<?xml version="1.0" encoding="utf-8"?>
<!-- Generator: Adobe Illustrator 18.0.0, SVG Export Plug-In . SVG Version: 6.00 Build 0)  -->
<!DOCTYPE svg PUBLIC "-//W3C//DTD SVG 1.1//EN" "http://www.w3.org/Graphics/SVG/1.1/DTD/svg11.dtd">
<svg version="1.1" id="Layer_1" xmlns="http://www.w3.org/2000/svg" xmlns:xlink="http://www.w3.org/1999/xlink" x="0px" y="0px"
	 viewBox="194.5 246.2 413.9 349.3" enable-background="new 194.5 246.2 413.9 349.3" xml:space="preserve">
<g id="Layer_1_1_" display="none">
	<g display="inline">
		<path fill="#FFFFFF" d="M99.9,386h28.7v-91c0-2.7,0.1-5.5,0.3-8.3L105,307.1c-0.6,0.5-1.2,0.9-1.9,1.1c-0.6,0.2-1.2,0.3-1.8,0.3
			c-0.9,0-1.8-0.2-2.5-0.6c-0.7-0.4-1.3-0.9-1.7-1.4l-5.2-7.2l39.7-34.4h13.5V386h26.3v12.7H99.9V386z"/>
	</g>
</g>
<g id="Layer_2">
</g>
<g id="Layer_3">
	<g>
		<path fill="#333333" d="M590.8,377.2c-15.4-1.5-31,0-46.8,0.2c0.2,2.9,0.3,4.7,0.4,6.5c0.8,22.1-9.9,37-30.2,42.3
			c-17.6,4.6-34.9-4.2-44.4-22.6c-2.7-5.2-6-10.3-7.7-15.8c-3.3-10.7-10.5-12.8-20.7-12.5c-23.9,0.7-48,1.5-71.9,0.3
			c-16.5-0.8-27,3.2-32.4,20.1c-4.2,12.9-11.6,24.6-26,29.4c-30.2,10.2-54.9-11.6-52.3-48.7c-15.1,0.2-29.1,0-43,0.7
			c-11.9,0.6-19.3,7.3-21.1,19.1c-1.7,11.1,5.4,22.2,17.3,23.8c9.3,1.3,11.6,5.9,13.4,13.4c10.6,43.9,21.6,87.7,32.4,131.5
			c4.8,19.5,16.4,28.8,36.9,29.1c19.4,0.3,38.9,0,58.3,0c50.6,0.1,101.3,0.4,151.9,0.2c24.9-0.1,35.4-9.3,41-32.5
			c10.5-43.4,21.6-86.7,32.2-130.2c1.8-7.3,4.1-11.5,12.8-12.5c11.2-1.3,17.1-9.3,17.1-20.9C608.2,386.4,601.6,378.2,590.8,377.2z
			 M315.1,554.9c0,2.4-0.4,4.4-1.3,6.3c-1.5,4.2-5.4,6.9-10.1,7l-0.7,0c-6,0.1-9.5-4.1-9.6-10.1l-1.2-89.3c-0.1-6,3.3-9.2,9.3-9.3
			l0.7,0c0.9,0,1.8-0.7,2.7-0.5c5.8,0.9,9,5.3,9.1,11.6L315.1,554.9z M380.3,553.6c0.1,7.1-6.4,12.9-13.4,13
			c-7.1,0.1-13.7-5.6-13.8-12.7l0-3c0-0.4-0.1-0.8-0.1-1.2c0-2.5,0-5.1,0-7.6l-0.9-72.4c-0.1-7.1,6.4-12.9,13.4-13
			c7.1-0.1,13.7,5.6,13.8,12.7L380.3,553.6z M445.5,552.7c0.1,7.1-6.4,12.9-13.4,13c-7.1,0.1-13.7-5.6-13.8-12.7l-1.1-84.2
			c-0.1-7.1,6.4-12.9,13.4-13c7.1-0.1,13.7,5.6,13.8,12.7L445.5,552.7z M505.3,552c0.1,7.1-3.6,12.9-10.7,13
			c-7.1,0.1-10.9-5.6-11-12.7l-1.1-84.2c-0.1-7.1,3.6-12.9,10.7-13c7.1-0.1,10.9,5.6,11,12.7L505.3,552z"/>
		<g>
			<path fill="#333333" d="M512.3,405L512.3,405c-9.6,4.7-21.3,0.7-26-8.9l-60.4-122.9c-4.7-9.6-0.7-21.3,8.9-26l0,0
				c9.6-4.7,21.3-0.7,26,8.9l60.4,122.9C525.9,388.5,521.9,400.3,512.3,405z"/>
			<path fill="#333333" d="M291.1,407.8L291.1,407.8c9.7,4.5,21.3,0.2,25.8-9.6l57.2-124.5c4.5-9.7,0.2-21.3-9.6-25.8l0,0
				c-9.7-4.5-21.3-0.2-25.8,9.6L281.6,382C277.1,391.8,281.4,403.4,291.1,407.8z"/>
		</g>
	</g>
</g>
<g id="Layer_4">
</g>
<g id="Layer_5">
</g>
<g id="Layer_6">
</g>
<g id="Layer_7">
</g>
</svg>
