<?xml version="1.0" encoding="utf-8"?>
<!-- Generator: Adobe Illustrator 22.1.0, SVG Export Plug-In . SVG Version: 6.00 Build 0)  -->
<svg version="1.1" id="Layer_1" xmlns="http://www.w3.org/2000/svg" xmlns:xlink="http://www.w3.org/1999/xlink" x="0px" y="0px"
	 viewBox="0 0 116.8 95" style="enable-background:new 0 0 116.8 95;" xml:space="preserve">
<style type="text/css">
	.st0{fill:#4D4D4D;}
	.st1{fill:#FFFFFF;}
	.st2{fill:#95BAA8;}
</style>
<g>
	<path class="st0" d="M-195.3-375.7c-9.5,0.8-17.1,8.6-16.7,18.3c0.5,10,8.9,17.5,18.7,17.6C-168.7-339.5-171.3-378.6-195.3-375.7z
		 M-193.2-342.8c-8.2,0-15.2-6.4-15.7-14.6c-0.5-8,5.8-14.7,13.7-15.3C-175.2-375.2-172.5-342.8-193.2-342.8z"/>
	<path class="st0" d="M-142.1-356.9c-0.1-2.5,0.8-7.6-1.5-9.5c-2.2-1.8-7.3-1.4-10.6-1.5c-0.8-2.5-1.3-5.2-2.3-7.6
		c-0.4-1-2-2.9-1.7-3.8c0.4-1.3,4.8-3.3,5.8-4.8c0.8-1.2,1.3-2.3,0.9-3.7c-0.6-2.4-3.5-4.2-5.2-5.8c-1.7-1.6-3.8-4.5-6-5.4
		c-3.5-1.4-7,3.4-9.4,6.1c-2.8-1.7-5.7-2.6-8.7-4c-2.1-1-2.5-1-3-3.2c-0.4-1.7,0.3-3.7-0.1-5.5c-1.2-5.3-6.8-3.7-11-3.4
		c-4.3,0.3-9.1-0.5-9.3,4.9c-0.1,1.7,0.8,3.9,0.2,5.6c-0.5,1.4-0.9,1.1-2.8,1.8c-3,1.1-5.7,2.4-8.4,4.1c-2.1-2.5-4.4-6-7.9-5.9
		c-3.7,0.2-7.3,4.9-9.6,7.3c-4.8,4.9,0.2,8.3,3.9,12.1c-2.6,3.5-4.4,7.3-5.5,11.6c-3.3-0.6-7.9-1.1-10.2,1.2
		c-2.4,2.4-1.3,8.5-1,11.4c0.2,2.5,0.1,5.8,2.5,7.2c2.4,1.4,6.4,0.7,9.3,0.3c0.7,2.6,1.5,5.2,2.6,7.7c0.3,0.6,1.4,2.2,1.3,2.7
		c0,0.2-0.7,0.6-0.9,1.1c-1.4,2.4-6.3,4.7-5.1,8.3c1.1,3.4,8.2,9.4,11.6,10.8c3.8,1.4,6.9-2.6,9.4-5.2c3.5,2.5,7.3,4.1,11.7,4.7
		c-0.2,3.3-1.5,7.9,0.6,10.3c1.5,1.8,5.1,1.4,7.1,1.4c2.6,0.1,6,0.4,8.5-0.6c1.8-0.7,2.7-1.8,3.1-3.6c0.4-2-1.3-5.5-0.5-7.1
		c0.7-1.3,5.1-2.1,6.7-3c2.7-1.4,4.9-4.1,7.7-1.5c3,2.6,4.3,7.2,8.5,4.7c3.1-1.9,6.6-5.5,8.4-8.6c2.1-3.5,0.6-4.8-2.2-7.3
		c-2.8-2.5-3.8-2.3-2.2-6.1c1.3-3.1,2.3-6.2,3.3-9.4c3.2,0.2,7.9,0.9,10.4-0.7C-141-350.1-142-354.4-142.1-356.9z M-147-350.9
		c-2.2,0.7-5.8,0-8.1,0.1c-0.5,0-0.9,0.2-1.1,0.5c-0.1,0.2-0.3,0.3-0.3,0.6c-1.3,4.2-3.3,8.1-4.8,12.2c-0.7,1.8-0.4,2.8,0.7,4.3
		c1.3,1.7,4.5,2.8,5.2,4.7c0.8,2-3.2,5.6-4.5,6.8c-0.7,0.7-1.9,2.1-2.8,2.4c-1.8,0.5-2.5-0.8-3.8-2.3c-1.3-1.5-2.7-4-4.9-4.2
		c-1.6-0.2-3.3,1.1-4.6,1.8c-3.4,1.9-6.3,3.4-10.2,4.1c-0.5,0.1-1,0.6-1,1c-0.3,1.9,0.2,3.7,0.2,5.6c0,5.1-4.4,5.1-8.5,5
		c-3.6-0.1-5-0.1-4.9-3.9c0.1-2,0.3-4.1,0.2-6.2c-0.1-0.9-0.6-1.4-1.5-1.5c-4.6-0.4-8.6-2.1-12.3-4.9c-0.2-0.1-0.4-0.2-0.6-0.3
		c-0.5-0.2-1-0.1-1.5,0.3c-1.3,1.2-3.8,4.5-5.5,5c-2.9,0.9-5.6-2.5-7.4-4.3c-1.5-1.4-4.1-3.1-3.4-5.5c0.5-1.6,2.9-3.2,4.1-4.3
		c1.3-1.3,1.8-1.6,1.4-3.4c-0.5-2-1.9-4-2.6-5.9c-0.7-2-1.3-4-1.7-6c-0.1-0.6-0.8-1.2-1.4-1.1c-1.6,0.2-3.1,0.4-4.7,0.4
		c-2.8,0.1-4.4,0.4-5-2.7c-0.4-2.3-0.7-5.2-0.4-7.4c0.2-1.3,0.3-3.4,1.6-4.3c1.5-0.9,6.1,0,7.5,0.3c0.8,0.2,1.7-0.2,1.8-1
		c1.1-4.9,3.1-9.1,6.2-13.1c0.4-0.5,0.2-1.4-0.2-1.8c-2.2-2.5-7.1-5.3-4.7-8.8c0.9-1.3,3.6-4.2,5.1-4.8c4.5-2.1,6.2,1,8.7,3.9
		c0.3,0.8,1.2,1.3,2,0.7c3.3-2.3,6.8-3.6,10.4-5c0.8-0.3,1.9-0.6,2.5-1.3c0.9-0.9,0.9-2.5,1-3.7c0.1-1.3-0.6-2.8-0.3-4
		c0.6-2.5,3.2-2.4,5.4-2.6c1.4-0.1,3.1-0.3,4.6-0.4c1.8-0.1,2.7,0.1,3.7,0.7c1.3,0.7,0.7,2.1,0.8,3.8c0.2,1.8-0.7,3.6,0.3,5.4
		c0.8,1.3,1.7,1.5,3.1,2c3.7,1.3,7.1,2.4,10.4,4.6c0.1,0.1,0.2,0.1,0.4,0.2c0.5,0.3,1.1,0.3,1.7-0.3c1.6-1.6,3.5-4.4,5.4-5.4
		c2.5-1.2,3.8,1.3,5.8,3.2c2.1,1.9,5.7,4,3.7,7.2c-1,1.5-3.3,2.1-4.6,3.5c-1.2,1.3-1.3,2.1-0.7,3.7c0.6,1.6,1.6,2.9,2.2,4.6
		c0.8,2.3,1.4,4.8,2.2,7.1c0.2,0.7,0.8,1,1.4,1.1c2.3,0.2,5.2-0.1,7.5,0.6c3.6,1,2.6,4.4,2.7,7.5C-145-354.3-144.3-351.8-147-350.9z
		"/>
	<path class="st0" d="M-200.8-383.2c1.8-0.6,3.6-0.9,5.6-0.9c1.9,0,1.9-3,0-3c-2.2,0-4.3,0.3-6.4,1
		C-203.4-385.5-202.7-382.6-200.8-383.2z"/>
	<path class="st0" d="M-184.1-382.3c1.6,0.4,3,1.1,4.2,2.2c1.5,1.3,3.6-0.9,2.1-2.1c-1.6-1.4-3.5-2.4-5.6-3
		C-185.2-385.7-186-382.8-184.1-382.3z"/>
	<path class="st0" d="M-166.4-368.5c-0.7-1.9-1.6-3.6-2.8-5.2c-0.5-0.6-1.3-1-2.1-0.5c-0.6,0.4-1,1.4-0.5,2.1c1,1.4,1.9,2.8,2.5,4.5
		C-168.6-365.9-165.7-366.7-166.4-368.5z"/>
	<path class="st0" d="M-167.5-356.2c-0.2,1.8-0.5,3.5-0.9,5.2c-0.5,1.9,2.4,2.7,2.9,0.8c0.5-2,0.8-4,1-6
		C-164.4-358.2-167.4-358.1-167.5-356.2z"/>
	<path class="st0" d="M-171.6-341.6c-0.6-0.4-1.7-0.2-2.1,0.5c-0.7,1.5-1.8,2.7-3.2,3.5c-1.7,0.9-0.2,3.5,1.5,2.6
		c1.9-1,3.4-2.7,4.3-4.6C-170.7-340.3-170.8-341.2-171.6-341.6z"/>
	<path class="st0" d="M-187.2-332.4c-1.7,0.3-3.4,0.5-5.2,0.7c-1.9,0.2-1.9,3.2,0,3c2-0.2,4-0.4,6-0.8
		C-184.5-329.8-185.3-332.7-187.2-332.4z"/>
	<path class="st0" d="M-203.3-333.4c-1.8-0.5-3.4-1.3-4.9-2.4c-0.7-0.5-1.7-0.1-2.1,0.5c-0.5,0.8-0.1,1.6,0.5,2.1
		c1.7,1.2,3.6,2.1,5.6,2.7C-202.2-330-201.4-332.8-203.3-333.4z"/>
	<path class="st0" d="M-218.4-348.3c-0.5-1.9-3.4-1.1-2.9,0.8c0.6,2.2,1.6,4.1,3,5.8c0.5,0.6,1.6,0.5,2.1,0c0.6-0.6,0.5-1.5,0-2.1
		C-217.2-345.1-217.9-346.6-218.4-348.3z"/>
	<path class="st0" d="M-219.8-359.2c0-1.8,0.1-3.6,0.4-5.4c0.3-1.9-2.6-2.7-2.9-0.8c-0.3,2.1-0.5,4.1-0.5,6.2
		C-222.7-357.3-219.7-357.3-219.8-359.2z"/>
	<path class="st0" d="M-212-380.5c-1.8,1.1-3.4,2.5-4.8,4.2c-0.5,0.6-0.6,1.5,0,2.1c0.5,0.5,1.6,0.6,2.1,0c1.2-1.5,2.6-2.7,4.2-3.7
		C-208.8-378.9-210.3-381.5-212-380.5z"/>
</g>
<g>
	<path class="st0" d="M-303.8-396.4c-5.7-10.9-18.3-17.9-30.7-14.7c-10.2,2.1-19.3,10.4-20.7,21c-1.4,10.7,4.1,21.8,13.5,27
		c2.9,1.6,6.1,2.7,9.4,3.2c0.2,3.5,0.4,7,1,10.5c-2.9,2.4-2.8,8.1-3.1,11.5c-0.7,7.5,0,15.1,0.2,22.6c0.2,3.4-0.1,8.8,3.1,11.1
		c2.5,1.8,8.8,2,11.4,0.4c3.7-2.3,3.9-8,3.9-11.8c-0.1-7.6-0.3-15.6-1.2-23.2c-0.4-3.9-0.3-8.9-4-11.1c-0.3-3.4-0.2-6.8-0.4-10.1
		c4.5-0.8,8.7-2.6,12.3-5.4C-298.9-373.1-298.1-385.6-303.8-396.4z M-319.8-336.9c0.6,7.5,1.4,15.6,1,23.2c-0.2,2.9-0.3,5.2-2.9,6.8
		c-1.8,1.1-3.8,1.2-5.8,0.7c-0.1,0-0.1,0-0.2-0.1c0.3-0.1,0.6-0.3,0.9-0.4c0.6-0.2,1-0.8,0.8-1.4c-0.2-0.5-0.8-1-1.4-0.8
		c-0.8,0.3-1.7,0.7-2.5,1.1c-0.3-0.4-0.5-0.8-0.7-1.3c1.4-1.1,2.9-2.2,4.5-3.2c1.2-0.8,0.1-2.7-1.1-1.9c-1.3,0.8-2.6,1.8-3.8,2.7
		c0-0.5-0.1-1.1-0.1-1.6c1.5-1,3-2.1,4.5-3.1c1.2-0.8,0.1-2.8-1.1-1.9c-1.2,0.8-2.3,1.6-3.5,2.4c0-0.5,0-1.1,0-1.6
		c1.4-1.3,2.8-2.5,4.4-3.6c1.2-0.8,0.1-2.8-1.1-1.9c-1.2,0.8-2.3,1.7-3.4,2.6c0-0.9-0.1-1.7-0.1-2.6c1.4-1.1,2.9-2.1,4.5-3
		c1.2-0.7,0.1-2.7-1.1-1.9c-1.2,0.7-2.3,1.5-3.5,2.3c0-0.5,0-1,0-1.5c1.4-1,2.9-2,4.3-3c1.2-0.8,0.1-2.8-1.1-1.9
		c-1.1,0.7-2.2,1.5-3.2,2.2c0-0.5,0-1,0-1.4c0.1-0.1,0.2-0.1,0.3-0.2c1.5-1.6,3.1-3,4.9-4.1c1.2-0.8,0.1-2.7-1.1-1.9
		c-1.4,0.9-2.8,2-4,3.1c0-0.6,0.1-1.2,0.1-1.8c1.6-1.4,3.4-2.5,5.4-3.4c1.3-0.6,0.2-2.6-1.1-1.9c-1.4,0.7-2.7,1.5-4,2.4
		c0-0.6,0.1-1.1,0.2-1.7c1.3-0.9,2.7-1.8,4.2-2.5c1.3-0.6,0.2-2.6-1.1-1.9c-0.9,0.4-1.7,0.9-2.5,1.3c0.6-2,1.8-3.7,4.4-4
		C-320.2-348.7-320.1-340.9-319.8-336.9z M-324.1-350.9c-1.4-0.2-3-0.1-4.4,0.2c-0.5-2.9-0.6-5.9-0.8-8.8c1.6,0.1,3.3,0.1,4.9-0.1
		C-324.2-356.7-324.3-353.8-324.1-350.9z M-325-362.5c-12.4,1-24.2-6.6-26.9-19.1c-2.7-12.6,5.8-24.1,18.2-26.6
		c13-3.4,25.1,5.7,29.2,17.7C-299.5-375.9-310.4-363.6-325-362.5z"/>
	<path class="st0" d="M-329.1-406.3c-11.2,0.8-22.6,11-20.7,22.9c1.8,11.4,13.7,18.6,24.6,18.4c12.1-0.2,20.2-8.5,18.5-20.8
		C-308.3-397-317.6-406.7-329.1-406.3z M-311.2-373.4c-3.2,4.5-8.8,6-14,6.1c-9.3,0.2-19.6-5.5-22.1-15c-2.8-11,7.8-21.1,18.2-21.8
		c9.4-0.3,17,6.7,19.5,15.6C-308.3-383.7-308.3-377.6-311.2-373.4z"/>
	<path class="st0" d="M-337.2-398.8c-5.1,2.6-8.3,7.7-8.8,13.4c0,1.7,0.3,4.2,2.2,4.7c1.5,0.4,2.8-0.8,3.2-2.2
		c0.4-1.3,0.3-2.6,0.6-3.9c0.5-1.8,1.6-3.4,2.8-4.8c1.5-1.7,3.9-2.5,5.2-4.2c0.7-1,0.8-2.6-0.1-3.5
		C-333.4-400.6-335.8-399.5-337.2-398.8z M-336.5-395.4c-1.8,1.4-3.4,3.2-4.5,5.2c-0.6,1.1-1.1,2.4-1.4,3.6
		c-0.1,0.4-0.1,0.8-0.2,1.2c-0.4,1.1-1.3,2.9-1.2-0.1c0.3-3.9,2.2-7.4,5.3-9.9c0.5-0.4,4.4-3,4.3-1.6
		C-334.2-396.7-336.2-395.6-336.5-395.4z"/>
	<path class="st0" d="M-328.2-401.7C-328.3-401.7-328.3-401.7-328.2-401.7c-0.1,0-0.2,0.1-0.3,0.1c-1.8,0.9-2.3,3.4-1,5
		c1.4,1.6,3.9,1.3,5-0.4c0.7-1,0.5-2.4-0.1-3.5C-325.3-401.9-326.8-402.3-328.2-401.7z M-326.5-398.1c-0.3,0.2-0.6,0.3-0.9,0.2
		c-0.8-0.3-0.7-1.4,0-1.8c0.4-0.1,0.7-0.2,0.9,0.1c0.2,0.3,0.3,0.7,0.3,1.1c0,0,0,0.1,0,0.1C-326.3-398.3-326.4-398.1-326.5-398.1z
		 M-326.2-398.5C-326.2-398.5-326.2-398.5-326.2-398.5L-326.2-398.5z"/>
</g>
<g>
	<path class="st0" d="M-28.1-377.9c-1.8-0.2-3.8,0.2-5.7,0.6c-1.9-4.7-4-9.4-6.3-13.9c-1.4-2.9-3.1-7.4-5.9-9.3
		c-3.9-2.6-8.2,1.7-10.6,4.4c-10.3,11.3-19.7,23.2-33.5,30.5c-0.1,0.1-0.2,0.1-0.3,0.2c-3.9,1.2-7.8,2.4-11.6,3.7
		c-2.5,0.8-5.9,1.4-7.9,3.2c-3.5,3.1-1.2,10,0.2,13.5c1.3,3.4,4.4,10.2,8.3,11.3c1.1,0.3,2.3,0.1,3.6-0.2c2.3,4.8,4.5,9.8,7.1,14.5
		c1.7,3,3.5,7,7.5,5.6c4.2-1.4,9.5-5.7,8.3-10.7c-0.7-2.5-3-4.4-4.4-6.4c-1.6-2.3-2.8-4.7-4-7.2c0.6-0.2,1.3-0.4,1.9-0.6
		c7.9-1.5,15.9-2.3,23.9-1.4c7.2,0.8,14.2,2.7,21.2,4.2c3.5,0.7,10.1,3.5,12.4-0.7c2.4-4.3-0.8-12.3-1.9-16.6
		c-0.8-2.9-1.6-5.8-2.5-8.6c1.9-1.3,4.3-2.5,5.3-4.7c1-2.3,0-4.8-1-7C-24.7-375.3-25.9-377.6-28.1-377.9z M-103.7-340
		c-1.2-1.6-2.1-3.3-2.9-5.2c-0.8-1.8-1.4-3.7-1.7-5.7c-0.8-4.2,1.6-6.1,5.2-7.3c4.4-1.5,8.8-2.9,13.2-4.2c2.2,7.1,4.6,14.1,7.1,21.1
		c-3.9,1.3-7.9,2.4-11.9,3.4C-98.4-336.9-101.2-336.5-103.7-340z M-80.2-328.3c0.4,0.5,1,1.2,1.4,1.7c2,3.1,2,5-0.6,7.8
		c-0.7,0.8-2,1.6-2.9,2c-0.9,0.4-1.5,0.6-2.1,0.7c0.4-0.7,0.8-1.5,1-2.3c0.5-1.4-1.7-2-2.2-0.6c-0.2,0.7-0.5,1.3-0.9,1.9
		c-0.1-0.1-0.2-0.2-0.3-0.3c-0.2-0.2-0.4-0.5-0.6-0.7c0,0,0-0.1,0.1-0.1c0.2-0.5,0.5-0.9,0.7-1.4c0.3-0.6,0.5-1.1,0.7-1.7
		c0.5-1.4-1.7-2-2.2-0.6c-0.2,0.6-0.5,1.1-0.8,1.7c-0.3-0.5-0.6-1.1-0.8-1.6c0,0,0,0,0,0c0.5-1.1,1-2.3,1.5-3.4
		c0.3-0.6,0.2-1.2-0.4-1.5c-0.5-0.3-1.3-0.2-1.5,0.4c-0.3,0.6-0.6,1.3-0.9,1.9c-0.2-0.4-0.4-0.9-0.6-1.3c-0.1-0.2-0.2-0.4-0.3-0.6
		c0.1-0.1,0.2-0.2,0.2-0.3c0.5-0.9,1-1.7,1.5-2.6c0.7-1.3-1.2-2.4-1.9-1.1c-0.3,0.5-0.6,1.1-0.9,1.6c-0.3-0.6-0.6-1.2-0.9-1.8
		c0.1-0.1,0.2-0.1,0.2-0.2c0.4-0.6,0.9-1.2,1.3-1.8c0.3-0.5,0.1-1.2-0.4-1.5c-0.6-0.3-1.2-0.1-1.5,0.4c-0.2,0.3-0.4,0.6-0.7,0.9
		c-0.3-0.5-0.5-1.1-0.8-1.6c0.6-0.2,1.2-0.4,1.8-0.5c2.8-0.7,5.7-1.5,8.5-2.4C-83.9-334.1-82.3-331.1-80.2-328.3z M-38.6-339.4
		c-6.5-1.4-12.9-3-19.5-3.7c-7.6-0.8-15,0-22.5,1.3c-2.6-7.2-5-14.4-7.3-21.6c12.4-6.8,22-17.3,31.1-27.9c1.1-1.2,2.7-3.6,4.6-5.2
		c5.4,8,8.9,18,12.4,26.9c4,10.2,7.4,21.2,9.3,32C-33.2-337.7-36.7-339-38.6-339.4z M-26.2-340.4c-0.1,1.6-0.9,2.3-2.1,2.7
		c-2-11.2-5.4-22.7-9.7-33.2c-3.6-8.9-7-18.8-12.4-26.8c1-0.4,2-0.5,2.9,0c1.3,0.7,2.4,3.6,3,4.9c3.1,5.7,5.7,11.7,8.1,17.7
		c2.9,7.2,5.4,14.5,7.4,22C-27.8-349.3-25.9-344.3-26.2-340.4z M-25.5-366.6c-0.8,1.1-2.2,1.9-3.4,2.7c-1.2-3.8-2.6-7.5-4-11.1
		c0.9-0.1,1.8-0.3,2.7-0.4c2.2-0.2,3,0.4,4.1,2.4C-25.2-371.2-24-368.7-25.5-366.6z"/>
	<path class="st0" d="M-27.5-384.6c0-2.1,0-4.3,0-6.4c0-1.4-2.2-1.4-2.3,0c0,2.1,0,4.3,0,6.4C-29.7-383.1-27.5-383.1-27.5-384.6z"/>
	<path class="st0" d="M-18.3-380.3c1.2-1.3,2.3-2.6,3.5-3.9c1-1.1-0.6-2.7-1.6-1.6c-1.2,1.3-2.3,2.6-3.5,3.9
		C-20.9-380.8-19.3-379.2-18.3-380.3z"/>
	<path class="st0" d="M-10.6-372.9c-1.7-0.1-3.3-0.1-5-0.1c-1.4,0-1.4,2.2,0,2.3c1.7,0.1,3.3,0,5,0.1
		C-9.2-370.6-9.2-372.8-10.6-372.9z"/>
	<path class="st0" d="M-19.1-362.6c-1.2-0.8-2.3,1.1-1.1,1.9c1.4,1,2.8,2.2,4.1,3.4c1.1,1,2.7-0.6,1.6-1.6
		C-16-360.2-17.5-361.5-19.1-362.6z"/>
	<path class="st0" d="M-99.6-352c1.3-0.5,0.8-2.7-0.6-2.2c-1.5,0.6-3,1.2-4.5,1.8c-1.3,0.5-0.8,2.7,0.6,2.2
		C-102.7-350.9-101.2-351.5-99.6-352z"/>
	<path class="st0" d="M-99-350.5c-1.5,0.7-3.1,1.3-4.8,1.8c-1.4,0.4-0.8,2.6,0.6,2.2c1.8-0.5,3.6-1.2,5.3-2.1
		C-96.6-349.2-97.7-351.2-99-350.5z"/>
</g>
<g>
	<path class="st0" d="M-294.6-114.3c-15-13.4-37.8-15.1-55.3-6c-17.9,9.3-29.7,29.1-26.8,49.5c3.3,23.3,30,35.3,51,35.8
		c9.8,0.3,18.5-2.1,26.9-7.2c8.4-5,13.7-12.1,17.4-21.1C-274.5-80.6-280.9-102-294.6-114.3z M-281.6-78c-4.4,0.9-8.8,1.6-13.2,2.2
		c0-1.9-0.1-3.8-0.2-5.7c-0.4-5.1-1.5-10.1-3.1-14.8c3.3-1.8,6.4-3.9,9.3-6.2C-284.1-95.3-281.5-86.5-281.6-78z M-353.8-75.3
		c-0.2-6.8,0.5-12.9,2.6-18.9c6.2,2.4,12.8,3.8,19.6,4.7c2.6,0.4,5.3,0.5,7.9,0.4c0.5,5.1,0.9,10.3,1.2,15.4
		c-1.7,0.1-3.4,0.1-5.2,0.2c-8.7,0.3-17.4,0.5-26.1,0.1C-353.8-74.1-353.8-74.7-353.8-75.3z M-324-92.2c-3.3,0.1-6.6-0.1-9.8-0.7
		c-5.7-1-11.1-2.2-16.3-4.2c0.6-1.5,1.3-3,2.2-4.5c4.5-8.3,10.7-16.2,19.1-20.8C-326.7-112.3-325.1-102.3-324-92.2z M-325.8-122.3
		c11.7,4.4,19.7,13.5,24,24.5c-6,2.9-12.6,4.8-19.2,5.4C-322.1-102.4-323.7-112.4-325.8-122.3z M-327.6-70.5
		c1.8-0.1,3.5-0.1,5.3-0.2c0.2,3.6,0.2,7.1,0.3,10.7c-0.9,0-1.8,0-2.7,0c-7.4,0.1-15.4,1.4-23,3.8c-2.8-4.3-4.7-9.1-5.6-14.2
		C-344.8-70.1-336.2-70.2-327.6-70.5z M-324.8-57.1c0.9,0,1.8,0,2.7,0c0,6.2-0.2,12.4-0.5,18.6c-9.3-2.1-17.6-7.7-23.3-15.2
		C-338.9-55.8-331.5-56.9-324.8-57.1z M-331.9-38.5c-9.3-1.2-18.8-4.4-26.6-9.8c3-1.7,6.2-3.1,9.5-4.3
		C-344.6-46.6-338.6-41.7-331.9-38.5z M-319-57c5.2,0.1,10.4,0.7,15.4,1.8c-4,6.8-8.8,12.4-15.9,16.1C-319.2-45.1-319-51.1-319-57z
		 M-319-60c0-3.6-0.1-7.2-0.3-10.8c7.2-0.3,14.3-0.8,21.4-1.6c-0.4,5-1.6,9.7-4.2,14.5C-307.6-59.3-313.4-59.9-319-60z M-319.5-73.9
		c-0.3-5.2-0.7-10.3-1.2-15.5c6.8-0.7,13.7-2.7,19.9-5.7c1.5,4.7,2.5,9.6,2.8,14.6c0.1,1.7,0.2,3.3,0.1,5
		C-305-74.6-312.2-74.2-319.5-73.9z M-290.4-105.1c-2.7,2.2-5.6,4.2-8.7,5.9c-3.9-9.8-10.5-18.1-19.9-23.3
		c5.8,1.1,11.2,3.5,16.5,6.4C-297.8-113.4-293.7-109.6-290.4-105.1z M-354.6-113.8c6.1-4.5,12.9-7.1,20.1-8.4
		c-6.8,4.9-12.1,11.9-16,19.2c-0.9,1.6-1.6,3.2-2.3,4.8c-3.9-1.7-7.5-3.9-10.9-6.9C-361.1-108.4-358-111.4-354.6-113.8z
		 M-365.6-102.7c3.6,3.1,7.5,5.5,11.6,7.3c-2.5,6.9-3.3,13.8-2.8,21.6c0,0,0,0.1,0,0.1c-5.9-0.4-11.8-1.1-17.6-2.4
		C-374.7-85.4-371.2-94.9-365.6-102.7z M-371.6-63.7c-1.4-3-2.2-6.1-2.6-9.2c5.8,1.2,11.8,1.9,17.7,2.3c0.8,5.5,2.8,10.7,5.8,15.4
		c-3.7,1.3-7.2,3-10.4,4.9C-365.5-54-369.2-58.4-371.6-63.7z M-313.3-39.4c5.3-3.9,9.4-9.1,12.7-15c2.8,0.8,5.5,1.8,8.1,3.1
		C-298.1-45.5-305.3-41.4-313.3-39.4z M-290.5-53.6c-2.8-1.5-5.7-2.6-8.7-3.5c2.6-5.2,3.9-10.3,4.3-15.7c4.4-0.6,8.8-1.3,13.1-2.2
		c-0.1,1.4-0.3,2.8-0.6,4.2C-283.6-64.2-286.5-58.4-290.5-53.6z"/>
	<path class="st0" d="M-374.4-101.9c3.5-6.5,8-12.3,13.5-17.2c1.1-1-0.5-2.5-1.6-1.6c-5.7,5-10.3,11-13.9,17.7
		C-377-101.8-375-100.7-374.4-101.9z"/>
	<path class="st0" d="M-374.2-110.1c1.3-2.4,2.9-4.6,4.8-6.5c1-1-0.6-2.6-1.6-1.6c-2.1,2-3.8,4.4-5.2,7
		C-376.8-109.9-374.8-108.8-374.2-110.1z"/>
	<path class="st0" d="M-287.4-46.5c-4.2,4.9-9.3,8.5-15.3,10.7c-1.3,0.5-0.8,2.7,0.6,2.2c6.4-2.4,11.9-6.1,16.3-11.3
		C-284.9-46-286.5-47.6-287.4-46.5z"/>
	<path class="st0" d="M-289.4-39c-1.2,1.4-2.7,2.6-4.3,3.4c-1.3,0.6-0.2,2.6,1.1,1.9c1.8-0.9,3.5-2.2,4.8-3.7
		C-286.8-38.5-288.4-40.1-289.4-39z"/>
</g>
<g>
	<path class="st0" d="M-209.4-51.2C-209.4-51.2-209.4-51.2-209.4-51.2c-3.7-0.5-7.1,1.8-7.3,5.8c-0.2,3.9,3,6.2,6.5,6.3
		c3.4,0.1,7-2.1,6.8-5.9C-203.5-48.3-206.1-51.1-209.4-51.2z M-209.6-42.1c-1.8,0.1-3.5-0.4-4-2.3c-0.6-2.4,1.5-4.3,3.8-3.9
		c0,0,0,0,0.1,0c0.1,0,0.2,0,0.3,0c1.6,0.1,2.7,1.3,3,2.8C-206.1-43.4-207.8-42.2-209.6-42.1z"/>
	<path class="st0" d="M-166-51.5c-3.6-0.4-6.5,2.6-6.4,6.1c0.1,1.9,1,4,2.6,5.1c1.3,1,3,0.9,4.6,1c3.5,0.3,5.5-3.7,4.9-6.8
		C-160.9-49.3-162.3-51.4-166-51.5z M-165.2-42.2c-2.1-0.1-3.8-0.4-4.2-2.8c-0.3-2.2,1.1-3.7,3.3-3.5c1.8,0,2.2,0.6,2.6,2.3
		C-163-44.7-163.1-42.1-165.2-42.2z"/>
	<path class="st0" d="M-153.9-101c-9-1.8-18.8-1.3-28-2c-13.9-1.1-27.7-1.9-41.6-2.4c-0.4-1.8-0.9-3.5-1.6-5c-1.4-3-4.3-3.6-7.2-4.5
		c0.1-1.1-0.2-1.9-1.5-2.6c-1.6-0.9-3.5-1.5-5.3-2.1c-2.3-0.7-7.6-1.8-7.5,2.2c0.1,3.1,4.1,4.3,6.5,5.1c2,0.7,4.8,1.4,6.5,0.1
		c1.8,0.6,3.5,0.9,4.9,2.4c1.6,1.7,1.7,4.2,2.3,6.5c1.1,4.9,2.4,9.7,3.7,14.6c2.2,8.1,4.6,16.2,6.5,24.4c-2.4,0.9-4.3,3-4.2,5.9
		c0.1,4.4,4.4,5.4,8,5.5c17,0.4,34,0.1,50.9,0.2c1.9,0,1.9-3,0-3c-10,0-20.1,0-30.1,0c-5.3,0-10.7,0-16-0.1c-2.1,0-7.6,0.8-9.2-1.1
		c-1.6-1.9,0.2-4.5,2.4-4.7c14.5,0.1,29-0.1,43.4,0.1c3.5,0,9.6,0.7,12.1-2.5c1.1-1.3,1.4-3.4,1.9-5c1.1-3.4,2.2-6.8,3.3-10.2
		c1.7-5.2,4-10.8,4.6-16.2C-148.9-99-150.6-100.3-153.9-101z M-239.8-114.7c-0.9-0.3-3.8-1.1-4.3-2.1c-0.4-0.8,0.5-1.4,1-1.5
		c0.3-0.1,0.7,0,1,0.1c1,0.2,1.9,0.5,2.8,0.8c1.1,0.4,2.1,0.8,3.1,1.2c1.1,0.4,1.6,0.5,1.3,1.7
		C-235.3-112.9-238.8-114.3-239.8-114.7z M-152.3-97c0.8,1.6-1,5.8-1.5,7.5c-0.1,0.4-0.3,0.9-0.4,1.3c-4.2-0.2-8.4-0.5-12.6-0.8
		c0.8-3.4,1.6-6.7,2.5-10C-160.1-99-153.2-98.9-152.3-97z M-157.1-78.7c-0.2,0.7-0.5,1.4-0.7,2.1c-3.8-0.2-7.6-0.3-11.4-0.4
		c0.6-3.2,1.3-6.5,2-9.7c4.1,0.3,8.3,0.5,12.4,0.8C-155.6-83.6-156.4-81.2-157.1-78.7z M-181.7-64.6c0.2-3.5,0.4-7,0.6-10.5
		c3,0.1,6.1,0.2,9.1,0.2c-0.7,3.4-1.3,6.8-2,10.2C-176.5-64.6-179.1-64.6-181.7-64.6z M-180.9-77.3c0.2-3.5,0.5-6.9,0.8-10.4
		c3.5,0.3,7.1,0.6,10.6,0.8c-0.7,3.3-1.3,6.5-2,9.8C-174.6-77.2-177.8-77.3-180.9-77.3z M-213.4-64.8c-0.8-3.8-1.8-7.5-2.8-11.3
		c2.9,0.1,5.7,0.2,8.6,0.3c0.8,3.7,1.6,7.4,2.6,11.1C-207.7-64.7-210.5-64.8-213.4-64.8z M-220.3-91c3.3,0.2,6.6,0.5,9.9,0.8
		c0.8,4.1,1.6,8.1,2.4,12.2c-2.9-0.1-5.8-0.2-8.8-0.3C-217.9-82.6-219.1-86.8-220.3-91z M-202.6-64.7c-1-3.6-1.9-7.3-2.6-11
		c3.2,0.1,6.3,0.2,9.5,0.3c0.2,3.6,0.5,7.2,0.7,10.8C-197.5-64.6-200-64.7-202.6-64.7C-202.6-64.7-202.6-64.7-202.6-64.7z
		 M-205.7-78c-0.8-4-1.6-8-2.4-12c3.8,0.3,7.6,0.6,11.4,1c0.3,3.8,0.6,7.6,0.8,11.4C-199.1-77.8-202.4-77.9-205.7-78z M-208.5-92.3
		c-0.6-3.2-1.3-6.4-2-9.6c4.3,0.2,8.6,0.5,12.9,0.7c0.3,3.3,0.5,6.5,0.7,9.8C-200.7-91.7-204.6-92-208.5-92.3z M-194.4-88.9
		c4,0.3,8,0.7,12.1,1c-0.3,3.5-0.6,7-0.8,10.5c-3.5-0.1-7-0.2-10.4-0.3C-193.8-81.4-194.1-85.1-194.4-88.9z M-166.6-99
		c-0.9,3.3-1.7,6.6-2.4,9.9c-3.6-0.3-7.3-0.5-10.9-0.8c0.3-3.3,0.6-6.6,0.9-9.9c4,0.3,8.1,0.5,12.1,0.8C-166.8-99-166.7-99-166.6-99
		z M-181.3-100c-0.3,3.3-0.6,6.6-0.9,9.9c-4.1-0.3-8.3-0.7-12.4-1c-0.2-3.3-0.5-6.6-0.7-9.8c4.1,0.3,8.2,0.6,12.3,0.9
		C-182.4-100.1-181.8-100-181.3-100z M-222.9-102.4c3.3,0.1,6.7,0.3,10,0.4c0.7,3.2,1.4,6.3,2,9.5c-3.3-0.3-6.7-0.5-10.1-0.8
		c-0.2-0.7-0.4-1.4-0.6-2.1C-222-97.5-222.4-100-222.9-102.4z M-192.7-64.6c-0.2-3.6-0.5-7.2-0.7-10.8c3.4,0.1,6.8,0.2,10.1,0.2
		c-0.2,3.5-0.5,7-0.7,10.6C-186.9-64.6-189.8-64.6-192.7-64.6z M-160.2-69.3c-1.4,4.6-4,4.5-8.6,4.6c-1,0-1.9,0-2.9,0.1
		c0.7-3.3,1.4-6.7,2-10.1c3.7,0.1,7.4,0.2,11.1,0.4C-159.1-72.7-159.6-71-160.2-69.3z"/>
	<path class="st0" d="M-219.6-47.6c0.6-1.3-1.4-2.5-1.9-1.1c-1.3,2.9-0.9,6,1.1,8.5c0.9,1.1,2.5-0.5,1.6-1.6
		C-220.1-43.5-220.5-45.7-219.6-47.6z"/>
	<path class="st0" d="M-223.9-45.9c0-0.6-0.6-1.1-1.1-1.1c-0.6,0-1.1,0.5-1.1,1.1c-0.1,1.1,0.1,2.3,0.6,3.3c0.7,1.3,2.7,0.1,1.9-1.1
		C-223.9-44.4-223.9-45.2-223.9-45.9z"/>
</g>
<g>
	<path class="st0" d="M-77.5-108.2c-11,6.9-17.6,22.1-13,34.6c1.5,4.1,3.4,8,5.9,11.6c1.3,1.8,2.8,3.4,4.3,5.1
		c2.2,2.5,2.9,4.4,3.7,7.5c0.3,1.3,0.7,2.1,1.3,2.7c-1,1.1-1.3,2.6-0.5,3.9c-1.9,2.5-1.1,4.1,1,5c-3.2,4.8,3.5,5.8,9.7,5.9
		c0.1,1,0.2,2,0.6,2.8c0.6,1.2,2.3,1.4,3.5,1.4c1.4,0,3.3-0.1,4.5-0.9c1.1-0.7,1.4-2.3,1.5-3.6c3.5,0.1,8.9,0.4,10.7-1.9
		c1.1-1.4,0.6-2.7-0.4-3.6c1.7-0.9,2.4-2.4,1-4.6c0.8-1.2,0.3-2.7-0.9-4c0.2-0.3,0.5-0.6,0.7-1.1c0.8-1.7,0.3-3.5,0.7-5.3
		c0.6-2.7,2.4-4.1,3.8-6.2c2.1-3.2,5.1-6.3,6.8-9.7c5.5-11.2,3.2-26.8-5.5-35.7C-48.8-115.1-64.8-116.2-77.5-108.2z M-62.9-85.7
		c0.3-1.8,1.3-2.9,3-3.2c1.2,1,1.7,2.2,1.3,3.7c0.1,1.7-0.7,3.3-2,4.5C-62.1-82.1-63.2-83.9-62.9-85.7z M-60.8-77.7
		c1.6,1.3,3.5,2.4,5.3,2.9c-2.5,8.6-1.9,19-1.4,27.5c-1.1,0-2.1-0.1-3-0.1c-1.4,0-2.8,0-4.2-0.1c-0.1-3.7,0.3-17.9-2-27.7
		C-64.1-75.8-62.2-76.7-60.8-77.7z M-59.9-44.3c3.6,0,7.3-0.2,10.9-0.5c0.9-0.1,1.7-0.2,2.4-0.4c2.2,2.2-4.2,2.7-5.8,2.8
		c-2.4,0.1-4.9,0-7.4,0c-2.3-0.1-4.5-0.1-6.8-0.3c-1.5-0.1-9.5-1.1-6.8-2.8c0.3,0.1,0.6,0.1,0.9,0.2C-68.4-44.6-64-44.3-59.9-44.3z
		 M-47.2-39.1c-0.9,0.1-1.8,0.2-2.7,0.3c-1.1,0.1-2.2,0.1-3.4,0.2c-2.5,0.1-5,0-7.5,0c-2,0-4.1,0-6.1-0.1c-0.6,0-8.2-0.3-7.3-2.5
		c3.3,1.5,9.2,0.9,12,1c4.8,0.2,11,1.1,15.7-0.5C-46.6-40.2-46.9-39.7-47.2-39.1z M-58.2-30.5c-0.8,0.3-2,0.4-2.9,0.4
		c-0.4,0-0.9,0.1-1.3-0.1c-0.3-0.2-0.1,0.1-0.3-0.3c-0.2-0.3-0.3-0.9-0.4-1.5c2.6-0.1,4.8-0.3,5.7-0.3
		C-57.3-31.5-57.5-30.7-58.2-30.5z M-47.2-36.9c-0.7,1.6-1.9,2.2-3.4,2c-1.2,0.1-2.3,0.1-3.5,0.2c-2,0.1-3.9,0.2-5.9,0.3
		c-1.5,0.1-15,0.5-12.8-2.6c0-0.1,0.1-0.1,0.1-0.2c4.2,0.9,10.1,0.7,12,0.7C-58.9-36.4-51.9-35.9-47.2-36.9
		C-47.2-36.9-47.2-36.9-47.2-36.9z M-33.6-76.7c-0.8,4-1.7,6.6-4.3,10c-2.1,2.8-4.2,5.6-6.1,8.5c-0.9,1.5-1.8,2.9-2.2,4.6
		c-0.6,2.4,0.3,4.5-2.8,5.8c-1.5,0.6-3.6,0.7-5.7,0.6c-0.5-8.6-1-18.6,1.4-27.1c4.3,0.4,10.6-1.5,9.5-6.6c-1.6-7.3-8.4-2.1-10.3,2
		c-0.3,0.6-0.6,1.3-0.8,1.9c-0.9-0.3-1.8-0.7-2.4-1c-0.5-0.3-1.1-0.7-1.7-1.1c3.2-2.9,4.5-6.7,1.2-10.5c-2.7-3.1-6.6-1-7.4,2.9
		c-0.6,2.7,0.7,5.5,2.7,7.6c-1.3,0.9-2.8,1.5-4.3,1.9c-1.7-5.8-4.5-9.4-9.3-7c-2.8,1.4-2.4,5.3-0.6,7.3c2.1,2.4,5.2,2.8,8.3,2.3
		c0.9,4,0.8,8.2,1.1,12.3c0.3,4.9,0.5,9.9,0.8,14.8c-1.4-0.1-2.8-0.3-4.1-0.6c-2.1-0.5-2.5-0.4-3.4-2.7c-0.6-1.5-0.5-3.1-1.2-4.6
		c-1.8-3.5-5.6-6.1-7.8-9.4c-2.4-3.7-4.8-8.2-5.7-12.5c-1.5-6.9,0.8-14.2,4.5-19.9c5.4-8.3,13.8-12.4,23.6-13.2
		c8.9-0.7,18,4,23,11.5C-33.2-92.3-32-84.3-33.6-76.7z M-52.6-76.5c0-0.1,0.1-0.3,0.1-0.4c0.6-1.7,1.4-3.1,2.7-4.4
		c4-1.4,4.7-0.1,2.2,3.7C-48.8-76.4-50.7-76.2-52.6-76.5z M-68.8-76.8c-0.7,0.1-1.3,0.1-1.9,0c-1.5-0.1-6.6-1.8-5-4.6
		c2.2-3.9,6,2,6.6,3.8C-69-77.4-68.9-77.1-68.8-76.8z"/>
	<path class="st0" d="M-19-106.8c-3.2,1.5-6.6,2.8-9.5,4.9c-1.6,1.1-0.1,3.7,1.5,2.6c2.9-2.1,6.2-3.4,9.5-4.9
		C-15.7-105-17.2-107.6-19-106.8z"/>
	<path class="st0" d="M-40.8-113.8c2.2-2.8,3.9-5.9,5.7-9.1c0.9-1.7-1.6-3.2-2.6-1.5c-1.6,2.9-3.2,5.9-5.2,8.5
		C-44-114.4-41.9-112.3-40.8-113.8z"/>
	<path class="st0" d="M-59.7-120.1c0.2-3.4,0.3-6.8,0.3-10.1c0-1.9-3-1.9-3,0c0,3.4-0.1,6.8-0.3,10.1
		C-62.9-118.2-59.9-118.2-59.7-120.1z"/>
	<path class="st0" d="M-80.9-113.8c1.1,1.6,3.7,0.1,2.6-1.5c-2-3-4.3-6-5.6-9.4c-0.7-1.8-3.6-1-2.9,0.8
		C-85.4-120.3-83.1-117.1-80.9-113.8z"/>
	<path class="st0" d="M-93.3-102.2c-3-2.2-6.2-3.9-9.6-5.3c-1.8-0.7-2.6,2.2-0.8,2.9c3.2,1.3,6.1,3,8.9,5
		C-93.2-98.4-91.7-101-93.3-102.2z"/>
	<path class="st0" d="M-70.5-104.4c-7,2-13.3,9.6-14.3,16.8c-0.2,1.4,2,2,2.2,0.6c0.9-6.4,6.4-13.3,12.7-15.2
		C-68.6-102.7-69.1-104.8-70.5-104.4z"/>
	<path class="st0" d="M-69.1-100.6c-2.1,0.3-4.2,1.8-5.5,3.5c-0.9,1.1,0.7,2.7,1.6,1.6c1.1-1.4,2.6-2.6,4.5-2.9
		C-67.1-98.6-67.7-100.8-69.1-100.6z"/>
</g>
<g>
	<path class="st0" d="M-285.4-256.7c-7.9-10.6-22-10.5-32.3-3.7c-5.5,3.6-10.4,8.4-14.6,13.4c-3.7,4.3-8,9.5-10,14.9
		c-0.1,0.3-0.2,0.6-0.3,0.9c-5.9,2.5-10.8,6.2-15.2,10.9c-4.8,5.1-10,10.9-13.2,17.2c-4.8,9.3-3,20.5,5.5,27.2
		c9.7,7.6,23.2-0.6,31-7.1c5.7-4.8,10.4-10.5,14.7-16.6c1.9-2.7,3.7-5.5,5.1-8.4c11.4-1.8,19.4-10.6,25.5-19.9
		C-283.8-236.5-278.5-247.5-285.4-256.7z M-326.1-234.3c1-1.5,2-2.8,2.7-3.7c4.7-6,9.8-13.1,17.5-15.1c5.4-1.4,10.7,1.7,10.3,7.6
		c-0.2,3.3-1.9,6.5-3.9,9.1c-3.7,5.1-8,10.2-13.4,13.4C-314.4-229.4-319.1-234.9-326.1-234.3z M-330.5-208.6
		c-1.9,2.5-3.7,4.7-4.4,5.6c-3.5,4.7-7.2,10.2-12.6,13c-2.8,1.5-8.5,3.1-10.8,0.2c-3.2-4,0.4-10.4,2.7-13.7
		c4.2-5.9,9.3-10.5,14.9-15C-338.3-214.2-334.5-210.6-330.5-208.6z M-348.7-176.9c-7.2,2.8-14.1,2-18.9-4.6
		c-3.7-5.1-5.1-10.8-3.1-16.9c2.3-6.7,7.5-12.3,12-17.6c4.4-5.2,9.4-9.7,15.6-12.6c0,0.2,0,0.3,0,0.5c-0.6,0.3-1.3,0.5-1.9,0.8
		c-0.5,0.3-0.7,1-0.4,1.5c0.3,0.6,1,0.7,1.5,0.4c0.3-0.1,0.6-0.2,0.8-0.4c0,0.1,0,0.1,0,0.2c-0.5,0.3-0.9,0.6-1.4,0.9
		c-1.2,0.8-0.1,2.7,1.1,1.9c0.2-0.1,0.5-0.3,0.7-0.4c0,0.1,0,0.2,0.1,0.2c-0.3,0.2-0.6,0.4-0.8,0.6c-0.5,0.4-0.7,1-0.4,1.5
		c0.3,0.5,1,0.8,1.5,0.4c0.2-0.1,0.3-0.2,0.5-0.3c0,0.1,0,0.1,0.1,0.2c0,0,0,0-0.1,0c-7.6,5.9-19,14.9-19.9,25.4
		c-0.3,3.4,0.8,7.7,4.3,8.7c3.6,1,7.8,0.1,11-1.6c7.9-4.2,12.7-13.3,18.3-19.9c3.5-4.1,8.7-15.5-1.2-16c0-0.1,0-0.1-0.1-0.2
		c0,0,0.1,0,0.1,0c1.4,0,1.4-2.2,0-2.3c-0.1,0-0.3,0-0.4,0c0-0.1,0-0.1,0-0.2c0.5,0,1,0.1,1.5,0.1c0.6,0.1,1.1-0.6,1.1-1.1
		c0-0.7-0.5-1-1.1-1.1c-0.3,0-0.7-0.1-1-0.1c0.1-0.2,0.1-0.3,0.2-0.5c0.3,0,0.6,0.1,0.9,0.1c0.6,0.1,1.1-0.6,1.1-1.1
		c0-0.6-0.5-1-1-1.1c0.1-0.1,0.1-0.3,0.2-0.4c6.5-1.6,10.9,2.9,12.6,8.9c1.6,5.9-0.4,11.9-3.4,17
		C-325.3-194.2-335.7-181.9-348.7-176.9z M-313.7-210.5c0-0.1,0.1-0.3,0.1-0.4c0.2,0,0.4,0,0.5-0.1c0.6-0.3,1.2-0.6,1.8-1
		c1.3-0.7,0.1-2.6-1.1-1.9c-0.1,0.1-0.3,0.1-0.4,0.2c0-0.2,0.1-0.4,0.1-0.6c0.7-0.3,1.4-0.6,2.2-0.9c0.6-0.3,0.7-1.1,0.4-1.5
		c-0.3-0.6-1-0.7-1.5-0.4c-0.2,0.1-0.5,0.2-0.7,0.3c0-0.2,0-0.4,0-0.5c0.4-0.2,0.9-0.3,1.3-0.5c0.6-0.2,1-0.8,0.8-1.4
		c-0.1-0.5-0.8-1-1.4-0.8c-0.3,0.1-0.5,0.2-0.8,0.3c0-0.2,0-0.5-0.1-0.7c4.8-2.6,8-6.3,11.5-10.5c2.7-3.3,5.4-6.4,6.8-10.5
		c2.6-7.8-2.2-15.6-10.9-14c-10.3,1.9-17.8,12.4-23.3,20.4c-4,5.7-5.8,14.4,2.9,16.3c0,0.1,0,0.3,0,0.5c-0.5-0.1-1-0.3-1.5-0.2
		c-0.6,0.1-1.1,0.5-1.1,1.1c0,0.6,0.5,1.2,1.1,1.1c0.3,0,0.7,0.1,1,0.2c-0.1,0.2-0.1,0.4-0.2,0.6c-0.4-0.1-0.9-0.2-1.3-0.3
		c-1.4-0.4-2,1.8-0.6,2.2c0.3,0.1,0.6,0.2,0.9,0.2c-0.1,0.2-0.2,0.4-0.4,0.7c-0.5-0.2-0.9-0.3-1.4-0.4c-1.4-0.4-2,1.8-0.6,2.2
		c0.3,0.1,0.5,0.2,0.7,0.2c-0.1,0.2-0.2,0.3-0.3,0.5c-5.4-2.4-9.2-7.3-10.9-12.9c-1.6-5.5,0.2-9.3,3.2-13.9
		c6.9-10.6,18.1-23.8,31.4-25.7c7.7-1.1,16.2,2.8,19.7,9.9c3,6,0.7,13-2.3,18.5C-293.6-224.4-301.8-213-313.7-210.5z"/>
	<path class="st0" d="M-309.6-261c-3.8,1.6-7.3,3.7-10.5,6.3c-1.1,0.9,0.5,2.5,1.6,1.6c3-2.5,6.4-4.5,10-6
		C-307.1-259.6-308.3-261.5-309.6-261z"/>
	<path class="st0" d="M-305-261.9c-1.4,0-1.5,2.3,0,2.3C-303.5-259.7-303.5-261.9-305-261.9z"/>
	<path class="st0" d="M-348-181.1c-3.7,1.8-7.6,2.4-11.6,1.8c-1.4-0.2-2,2-0.6,2.2c4.7,0.7,9.1,0,13.4-2
		C-345.6-179.8-346.7-181.7-348-181.1z"/>
	<path class="st0" d="M-343.8-183.2c-1.4,0-1.5,2.3,0,2.3C-342.4-180.9-342.4-183.2-343.8-183.2z"/>
</g>
<g>
	<path class="st0" d="M-147.9-231.8c-1.8-4.9-7.4-3.9-11.7-4.1c-6.6-0.2-13.2,0.5-19.7,0.1c-1.6-5.5-2.9-11.1-4.4-16.6
		c-1.3-4.7-3.5-10.1-9-11c-4.5-0.7-7,2.1-8.5,5.9c-2.8,7.2-4.4,14.7-7.5,21.9c-7.3,0-14.7-0.1-22,0.3c-3.4,0.2-7.8,0.5-9.2,4.1
		c-1.6,4.1,1,7.3,4,9.6c2.5,1.9,5.2,3.6,7.8,5.5c2.9,2.1,7.1,4.3,9.4,7.1c2.2,2.7-1.2,8.5-2.3,11.5c-1.2,3.3-2.6,6.6-3.4,10
		c-0.9,3.8-1.2,9.6,2.7,12.2c3.9,2.5,9-2.3,12-4.4c5.5-3.9,10.6-8.4,16.2-12c5,4.8,10.3,9.4,16,13.5c3.3,2.4,8.2,5.2,12.2,2.6
		c3.7-2.4,3.5-7.4,2.3-11.1c-2.2-6.8-4.4-13.7-6.6-20.5c5.6-4.1,11.2-8.3,16.7-12.5C-149.1-222.8-146.1-226.7-147.9-231.8z
		 M-160.5-218.1c-3.9,2.9-7.7,6-11.7,8.8c-0.5,0.4-0.9,1-0.7,1.7c1.4,4.6,2.5,9.3,4,13.9c1.2,3.6,4.8,9,3.3,12.9
		c-3.7,9.4-23.1-10.4-26.8-14c-0.5-0.5-1.3-0.6-1.8-0.2c-3.6,2.2-7,4.8-10.3,7.4c-3.6,2.8-8,7.2-12.3,8.8c-1.7,0.6-3.6,0.4-4.9-1.5
		c-0.6-0.8-0.4-2.8-0.3-3.8c0.1-2.3,1-4.7,1.8-6.9c2-5.6,4.1-11.2,6.1-16.9c0.2-0.5,0-1.2-0.4-1.5c-3.3-2.7-6.7-5.4-10.2-7.9
		c-3.3-2.4-10.6-5.7-12-9.7c-2.4-6.8,8.8-5.4,12.7-5.4c5.4-0.1,10.8-0.2,16.2-0.2c0.5,0.1,1.1-0.1,1.4-0.7c1.9-4.1,3.5-8.3,4.9-12.6
		c1.3-4.1,2.8-15.7,8.8-14.1c5.8,1.5,6.4,10.2,7.8,15c1,3.7,1.9,7.4,3,11.1c0.2,0.7,0.8,1.1,1.4,1.1c3.8,0.3,7.5,0,11.3-0.1
		c4.4-0.1,10.1-0.9,14.4,0.3C-143.2-229.3-157.5-220.3-160.5-218.1z"/>
	<path class="st0" d="M-213.4-228c-2.5,1.2-4.7,2.8-6.7,4.8c-1,1,0.6,2.6,1.6,1.6c1.9-1.8,3.9-3.3,6.3-4.4
		C-211-226.7-212.1-228.6-213.4-228z"/>
	<path class="st0" d="M-205.5-226.5c-3.4,1.4-6.7,3.1-9.7,5.2c-1.2,0.8-0.1,2.8,1.1,1.9c2.9-2,5.9-3.6,9.2-4.9
		C-203.6-224.9-204.2-227-205.5-226.5z"/>
</g>
<g>
	<path class="st0" d="M-11.8-221.6c-0.2-5.1-0.1-10.3,0-15.4c0.1-3.3,0.1-6.5-0.1-9.8c-0.1-2.6,0.3-5.9-0.4-8.5
		c-0.7-2.5-2.7-2.7-5-2.8c-6.1-0.3-12.2,0-18.3-0.1c-13.6-0.1-27.1-0.1-40.7-0.2c-7.1,0-14.2,0.2-21.4,0.6c-2.6,0.2-6.9-0.3-8.9,1.5
		c-1.4,1.2-1.6,3.1-1.9,4.8c-0.7,3.7-0.8,7.6-0.9,11.4c-0.3,8.3-0.2,16.5-0.7,24.8c-0.4,6.7-0.2,13.4,0,20c0.1,3.7-1.1,9.8,2.1,12.6
		c3.3,2.9,10.2,1.7,14.1,1.8c7.2,0.2,14.3,0.4,21.5,0.5c13.4,0.2,26.8-0.3,40.2,0.2c5.1,0.2,10.8,0,15.8-0.9c3-0.5,3.9-2.3,4.2-5.2
		C-10.7-197.8-11.4-209.8-11.8-221.6z M-101.3-254.4c1.3-0.1,2.5-0.2,3.8-0.2c5.2-0.3,10.4-0.6,15.7-0.6c11.2-0.1,22.5,0,33.7,0.1
		c4.8,0,9.7,0,14.5,0.1c5.1,0,10.6-0.6,15.7,0.1c2.4,0.3,2.5,0.5,2.9,2.9c0.4,2.2,0.3,4.8,0.3,7.1c0,0.3,0,0.7,0,1
		c-30.4-1.1-60.9-1.2-91.3-0.3c0.1-1.7,0.3-3.4,0.5-5.1C-105.1-252.7-104.5-254.1-101.3-254.4z M-14.5-199.4
		c-0.1,4.1,0,8.3-0.4,12.4c-0.2,3-1.5,2.8-4.2,3.3c-2.8,0.5-5.7,0.8-8.5,0.9c-10.5,0.2-21.1-0.2-31.7-0.2c-12.5,0-24.9-0.3-37.3-0.7
		c-3.9-0.1-9.9,0.4-10.2-4.6c-0.1-2.8-0.1-5.7-0.2-8.5c-0.2-6.1-0.4-12.2,0-18.2c0.6-8.9,0.3-18,0.8-26.9c30.5-0.9,61-0.8,91.5,0.3
		c0,4.2-0.2,8.5-0.2,12.7C-14.9-219.2-14.2-209.3-14.5-199.4z"/>
	<path class="st0" d="M-98.7-246.2c1.8-0.2,3.8-1.3,3.4-3.4c-0.3-1.9-1.6-3.2-3.5-3.3c-1.9,0-3.2,1.8-3.5,3.5
		C-102.6-247.2-100.6-245.9-98.7-246.2z M-100-249.2c0.2-0.6,0.6-1.4,1.2-1.4c0.6,0,1,0.3,1.2,0.9c0.3,0.9-0.2,1.1-1.1,1.3
		c-0.4,0.1-0.7,0.1-1.1-0.1C-100.1-248.7-100.1-248.8-100-249.2z"/>
	<path class="st0" d="M-89.2-246.3c2.1,0.2,3.6-1.4,3.8-3.3c0.2-2.1-1.4-3.5-3.4-3.6c-1.8-0.1-3.8,1.2-3.9,3.1
		C-92.8-248-91.2-246.4-89.2-246.3z M-90.4-250c0.2-0.7,1-0.9,1.6-0.9c0.7,0,1.2,0.4,1.1,1.1c-0.1,0.8-0.6,1.4-1.5,1.3
		C-89.9-248.6-90.6-249.3-90.4-250z"/>
	<path class="st0" d="M-79.1-246.4c1.8-0.1,3.4-1.7,3.5-3.6c0-1.9-1.8-3.5-3.7-3.5c-2,0.1-3.5,1.8-3.7,3.8
		C-83.1-247.6-81.1-246.3-79.1-246.4z M-79.3-251.2c1.6-0.1,1.9,2.2,0.2,2.5c-0.6,0.1-1.6-0.2-1.7-0.9
		C-80.8-250.3-80.1-251.2-79.3-251.2z"/>
	<path class="st0" d="M-73.2-231.9c-3.1-2.5-7.5-0.4-10.3,1.5c-5.2,3.6-9.6,8.2-14.5,12.2c-7.5,6.6,1.6,13.8,6.8,17.7
		c3.5,2.6,7.8,6.3,12.1,7.6c2.9,0.8,7.3-0.3,7.5-3.9c0.2-3.6-5.3-7.1-7.7-9.2c-1.5-1.3-3-2.5-4.6-3.6c-0.7-0.5-1.4-0.9-2.1-1.4
		c-1.5-1-2.1-0.8-1.2-2.3C-84.8-217.1-66-226.1-73.2-231.9z M-89.6-210.8c1.7,2.1,5.3,3.5,7.4,5.3c1.6,1.3,3.2,2.8,4.7,4.3
		c0.6,0.6,2.5,1.8,2.8,2.7c1.3,4.2-2.1,3.9-4.2,3.2c0.2-0.1,0.4-0.3,0.6-0.4c0.5-0.4,0.7-1,0.4-1.5c-0.3-0.5-1-0.8-1.5-0.4
		c-0.4,0.3-0.9,0.7-1.3,1c-0.2,0.1-0.3,0.3-0.4,0.4c-0.5-0.2-0.9-0.5-1.4-0.8c0.2-0.1,0.3-0.2,0.5-0.3c1.2-0.7,0.1-2.7-1.1-1.9
		c-0.5,0.3-0.9,0.6-1.4,1c-0.6-0.4-1.1-0.8-1.7-1.2c0.3-0.2,0.6-0.3,0.9-0.5c1.3-0.7,0.1-2.6-1.1-1.9c-0.6,0.3-1.2,0.6-1.8,0.9
		c-0.4-0.3-0.7-0.6-1.1-0.8c0.2-0.1,0.4-0.2,0.6-0.4c1.3-0.7,0.1-2.7-1.1-1.9c-0.5,0.3-0.9,0.6-1.3,0.9c-0.5-0.4-1.1-0.8-1.6-1.3
		c0.3-0.2,0.6-0.4,0.9-0.6c0.5-0.3,0.7-1,0.4-1.5c-0.3-0.6-1-0.7-1.5-0.4c-0.6,0.3-1.1,0.7-1.6,1.1c-0.4-0.4-0.8-0.7-1.2-1.1
		c0.4-0.2,0.7-0.5,1.1-0.7c1.2-0.8,0.1-2.7-1.1-1.9c-0.5,0.3-0.9,0.6-1.4,0.9c-0.5-0.7-0.9-1.5-1.2-2.3c0.4,0,0.7,0,1.1,0
		c1.4,0,1.5-2.3,0-2.3c-0.4,0-0.8,0-1.2,0c0.1-0.7,0.5-1.4,1-2.1c0.4,0.4,0.8,0.9,1.3,1.2c0.5,0.4,1.3,0.1,1.5-0.4
		c0.3-0.6,0.1-1.2-0.4-1.5c0.2,0.1-0.2-0.2-0.2-0.2c-0.1-0.1-0.3-0.3-0.4-0.4c-0.1-0.1-0.2-0.2-0.2-0.2c0.4-0.3,0.8-0.6,1.1-0.9
		c0.4,0.4,0.9,0.9,1.2,1.3c0.4,0.5,1.2,0.4,1.6,0c0.5-0.5,0.4-1.1,0-1.6c-0.3-0.4-0.7-0.8-1.1-1.2c0.5-0.5,1.1-1,1.6-1.5
		c0.4,0.4,0.9,0.8,1.3,1.2c1,1,2.6-0.6,1.6-1.6c-0.4-0.4-0.8-0.7-1.2-1.1c0.6-0.5,1.2-1.1,1.9-1.6c0.4,0.5,0.8,0.9,1.2,1.4
		c1,1.1,2.6-0.5,1.6-1.6c-0.4-0.4-0.8-0.7-1.1-1.1c0.3-0.2,0.6-0.4,0.9-0.6c0.4-0.3,0.8-0.6,1.2-0.9c0.2,0.3,0.4,0.6,0.6,0.9
		c0.4,0.5,1,0.7,1.5,0.4c0.5-0.3,0.8-1,0.4-1.5c-0.3-0.4-0.5-0.7-0.8-1.1c0.5-0.4,1-0.7,1.6-1c0,0,0.1,0.1,0.1,0.1
		c0.3,0.3,0.7,0.7,1,1c1,1,2.6-0.6,1.6-1.6c-0.2-0.2-0.4-0.4-0.6-0.6c1.4-0.5,2.6-0.5,3.5,1.2c1.2,2.2-0.1,2.7-1.5,4.2
		c-3.7,3.8-8.5,6.4-12.2,10.1C-90.3-213.6-90.9-212.4-89.6-210.8z"/>
	<path class="st0" d="M-30.3-225.2c-3.5-2.6-7.8-6.3-12.1-7.6c-2.9-0.8-7.3,0.3-7.5,3.9c-0.2,3.6,5.3,7.1,7.7,9.2
		c1.5,1.3,3,2.5,4.6,3.6c0.7,0.5,1.4,0.9,2.1,1.4c1.5,1,2.1,0.8,1.2,2.3c-2.4,3.8-21.2,12.8-14,18.6c3.1,2.5,7.5,0.4,10.3-1.5
		c5.2-3.6,9.6-8.2,14.5-12.2C-16-214.1-25.1-221.3-30.3-225.2z M-25.1-209.1c-3.8,3.1-7.1,6.6-11.1,9.5c-1.7,1.2-3.3,2.8-5.2,3.7
		c-2,1-3.8,1.8-5-0.5c-0.5-0.9-0.5-1.6-0.3-2.1c0.5,0.4,1.1,0.9,1.6,1.3c0.5,0.4,1.3,0.1,1.5-0.4c0.3-0.6,0.1-1.2-0.4-1.5
		c-0.5-0.3-0.9-0.7-1.3-1c0.1-0.1,0.3-0.3,0.4-0.4c0.3-0.3,0.7-0.7,1-1c0.5,0.5,0.9,1,1.4,1.4c0.5,0.4,1.1,0.5,1.6,0
		c0.4-0.4,0.5-1.2,0-1.6c-0.5-0.4-0.9-0.9-1.3-1.3c0.5-0.4,1.1-0.9,1.6-1.3c0.5,0.6,0.9,1.2,1.4,1.7c1,1,2.6-0.6,1.6-1.6
		c-0.5-0.5-0.9-1-1.3-1.5c0.5-0.3,0.9-0.7,1.4-1c0.4,0.4,0.8,0.8,1.2,1.3c0.4,0.5,1.2,0.4,1.6,0c0.5-0.5,0.4-1.1,0-1.6
		c-0.3-0.4-0.6-0.7-1-1.1c0.6-0.5,1.2-1,1.7-1.5c0.3,0.2,0.6,0.4,0.8,0.7c1,1.1,2.6-0.5,1.6-1.6c-0.2-0.2-0.5-0.5-0.7-0.7
		c0.4-0.5,0.7-0.9,0.8-1.4c0.5,0,0.9,0.1,1.4,0.1c0.6,0,1.1-0.5,1.1-1.1c0-0.6-0.5-1.1-1.1-1.1c-0.7,0-1.3-0.1-2-0.1c0,0,0,0,0,0
		c-0.3-0.4-0.6-0.7-1-1c0.4-0.2,0.7-0.3,1.1-0.5c0.5-0.3,0.7-1,0.4-1.5c-0.3-0.6-1-0.7-1.5-0.4c-0.7,0.3-1.4,0.6-2,1
		c-0.4-0.2-0.7-0.4-1.1-0.7c0.3-0.1,0.6-0.3,0.9-0.4c0.5-0.3,0.7-1,0.4-1.5c-0.3-0.6-1-0.7-1.5-0.4c-0.6,0.3-1.2,0.6-1.8,0.9
		c-0.1,0-0.1,0.1-0.1,0.1c-0.4-0.2-0.7-0.5-1-0.7c-0.1-0.1-0.3-0.2-0.4-0.3c0.4-0.2,0.9-0.5,1.3-0.7c0.6-0.3,0.7-1,0.4-1.5
		c-0.3-0.6-1-0.7-1.5-0.4c-0.7,0.3-1.3,0.7-1.9,1c-0.4-0.4-0.9-0.8-1.3-1.2c0.2-0.2,0.5-0.3,0.8-0.4c0.6-0.2,1-0.7,0.8-1.4
		c-0.1-0.5-0.8-1-1.4-0.8c-0.7,0.3-1.3,0.6-1.8,1c-0.3-0.3-0.7-0.5-1.1-0.9c0.3-0.2,0.6-0.5,0.9-0.6c1.3-0.7,0.1-2.6-1.1-1.9
		c-0.4,0.2-0.8,0.5-1.1,0.8c-1-4,2.7-3.5,4.7-2.7c4,1.5,7.9,4.8,11.3,7.4C-27-219.9-19.1-214.4-25.1-209.1z"/>
	<path class="st0" d="M-57.9-233.2c-3.3-0.1-4.3,2.8-5.2,5.6c-2,6.1-3.6,12.4-4.8,18.7c-0.6,3.3-4.8,17.5,2.8,16.6
		c3-0.3,4.8-3.5,5.8-6c2-5.3,3-11.1,4.2-16.6c0.6-2.7,1.1-5.4,1.6-8.1c0.4-1.8,1.3-4.2,1.1-6.1C-52.8-232.1-55.1-233.1-57.9-233.2z
		 M-57.9-212.3c-0.6,2.5-1.2,4.9-1.8,7.3c-0.8,3.1-1.5,9.3-5.3,9.2c-2.1-0.1-2.2-0.3-2.1-1.6c0.3,0,0.5,0.1,0.8,0.2
		c0.6,0.2,1.2-0.2,1.4-0.8c0.2-0.6-0.2-1.2-0.8-1.4c-0.4-0.1-0.8-0.2-1.3-0.3c0-0.4,0.1-0.8,0.2-1.2c0.5,0.1,1,0.2,1.5,0.2
		c1.4,0,1.4-2.2,0-2.3c-0.4,0-0.8-0.1-1.2-0.1c0-0.2,0.1-0.5,0.1-0.7c0-0.1,0-0.2,0.1-0.4c0.5,0.1,1,0.1,1.5,0.3
		c1.4,0.4,2-1.8,0.6-2.2c-0.6-0.1-1.1-0.2-1.7-0.3c0.1-0.7,0.2-1.3,0.3-2c0.6,0.1,1.3,0.2,1.9,0.5c0.6,0.2,1.2-0.2,1.4-0.8
		c0.2-0.6-0.2-1.2-0.8-1.4c-0.7-0.2-1.3-0.4-2-0.5c0.1-0.5,0.2-1,0.3-1.5c0.5,0.1,1,0.2,1.5,0.4c1.4,0.3,2-1.8,0.6-2.2
		c-0.6-0.1-1.1-0.3-1.7-0.4c0.1-0.5,0.2-1,0.3-1.6c0.4,0.1,0.7,0.2,1.1,0.3c1.4,0.4,2-1.8,0.6-2.2c-0.4-0.1-0.8-0.2-1.2-0.3
		c0.1-0.3,0.1-0.6,0.2-0.9c0.6,0.1,1.3,0.3,1.9,0.4c0.6,0.1,1.2-0.2,1.4-0.8c0.2-0.6-0.2-1.3-0.8-1.4c-0.7-0.1-1.3-0.3-2-0.4
		c0.1-0.4,0.2-0.9,0.3-1.3c0.4,0.1,0.9,0.2,1.3,0.3c1.4,0.4,2-1.8,0.6-2.2c-0.4-0.1-0.9-0.2-1.3-0.3c0.1-0.3,0.2-0.6,0.3-0.8
		c0.4,0.1,0.8,0.2,1.2,0.3c0.6,0.2,1.2-0.2,1.4-0.8c0.2-0.6-0.2-1.2-0.8-1.4c-0.3-0.1-0.7-0.2-1-0.3c0.1-0.3,0.3-0.6,0.4-0.9
		c0.3,0.2,0.7,0.3,1.1,0.3c0.6,0.1,1.2-0.1,1.4-0.8c0.1-0.5-0.2-1.3-0.8-1.4c-0.1,0-0.2-0.1-0.4-0.1c0.4-0.4,0.9-0.6,1.3-0.6
		C-52.5-230.8-57.3-214.8-57.9-212.3z"/>
</g>
<g>
	<path class="st0" d="M124.6-330.2c-1.7-2.3-4.3-4.1-6.6-5.8c-3.2-2.4-6-5.3-9.1-7.9c4-2.8,3-10.9,2.9-15.1
		c-0.1-8.8-0.4-17.6-0.7-26.4c-0.1-2.5,0-5.4-2.4-7.1c-2.5-1.8-7.8-1.1-10.9-1.3c-8.6-0.7-17.3,0.3-25.9,0c-9.7,0.1-19.4,0.1-29,0.2
		c-2.6,0-5.1-0.3-6.8,2c-2.2,2.9-1.7,7.3-1.6,10.7c0.4,10.7-0.6,21.5,0.1,32.3c0.2,2.4,1.2,3.9,2.7,4.9c-4,2.8-8.1,5.5-12,8.6
		c-2.8,2.3-6.1,4.4-6.1,8.3c0,3.4,1.6,5.2,4.9,5.6c6.6,0.8,13.5,0.5,20.1,0.3c15.2-0.6,30.4-0.1,45.7-0.5c6.6-0.2,13.2,0,19.8,0.1
		c4,0,11.3,1.5,14.4-1.9C126-325.2,126.1-328.1,124.6-330.2z M37.5-356.9c-0.1-4.6-0.3-9.2-0.1-13.7c0.1-4.2,0.3-8.4,0.2-12.6
		c-0.1-2.7,0-6.3,3.2-7.3c1.7-0.6,4.5,0,6.4,0c8.3,0,16.7-0.1,25-0.1c5.4,0.2,10.8,0.3,16.1,0c4-0.2,18.4-1.6,19.9,3.3
		c0.5,1.7,0.1,4.2,0.1,6c0,4,0.1,8.1,0.3,12.1c0.1,3.2,0.3,6.4,0.4,9.6c0,2,0,4,0,6c-0.1,2.9,0.4,5.3-2.2,6.8
		c-2.9,1.7-8.1,0.8-11.5,0.7c-3.7,0-7.5-0.1-11.2-0.1c-7.3,0.1-14.6,0.5-21.9,0.6c-3.5,0-7-0.1-10.6,0c-3.2,0.1-8.7,1.4-11.7-0.2
		C36.5-347.5,37.6-353.9,37.5-356.9z M120.8-324.5c-2.3,1.1-7.7,0.2-10.2,0.2c-13-0.1-26.1-0.5-39.2-0.3c-13.6,0.2-27.2,1-40.8,0.7
		c-2.6-0.1-7.9,0.6-8.2-2.9c-0.2-2.2,2-3.6,3.5-4.9c4.5-3.9,9.7-7.1,14.6-10.6c0.1-0.1,0.2-0.2,0.3-0.3c2.4,0.4,5,0.2,7.4,0.1
		c9.5-0.5,19-0.3,28.5-0.6c4.7-0.2,9.4-0.3,14.1-0.2c4.7,0.1,9.9,0.7,14.6,0.4c0,0,0,0.1,0.1,0.1c4.9,3.9,9.9,8.1,14.5,12.2
		C121.8-329,124.8-326.4,120.8-324.5z"/>
	<path class="st0" d="M43.8-349.5c9.8-0.2,19.6-0.1,29.3-0.6c9.8-0.4,19.9-0.9,29.8-0.3c0.6,0,1.1-0.5,1.1-1.1
		c-0.3-11.1-0.3-22.2-0.8-33.3c0-0.6-0.5-1.1-1.1-1.1c-19.6,0.2-39.2-0.2-58.8,0c-0.3,0-0.5,0.1-0.6,0.2c-0.3,0.2-0.5,0.5-0.5,0.9
		c0.2,11.4,0.3,22.8,0.5,34.2C42.7-350,43.1-349.5,43.8-349.5z M101-383.7c0.4,10.4,0.5,20.7,0.7,31c-9.4-0.5-19.2,0-28.6,0.4
		c-9.4,0.4-18.8,0.4-28.2,0.5c-0.2-10.7-0.3-21.3-0.5-32C63.3-383.9,82.1-383.5,101-383.7z"/>
	<path class="st0" d="M83.3-334.7c-0.2-0.5-0.5-0.8-1.1-0.8c-6.2-0.4-12.3,0.2-18.5,0.2c-0.5,0-0.9,0.4-1.1,0.8
		c-0.8,2-1.4,3.8-1.8,5.9c0,0.2,0,0.5,0.1,0.7c0.1,0.4,0.5,0.8,1,0.8c7.4,0,15.3,0.6,22.7-0.6c0.6-0.1,1-0.9,0.8-1.4
		C84.6-331,84-332.8,83.3-334.7z M63.3-329.4c0.3-0.9,0.6-1.9,0.7-2.8c0.1-0.3,0.2-0.6,0.4-0.9c0,0,0.1,0,0.1,0
		c2.9-0.2,5.9-0.2,8.9-0.3c2.6-0.1,5.4-0.3,8,0.1c0,0,0,0,0,0c0.1,0.3,0.3,0.7,0.4,1c0.1,0.8,0.5,1.7,0.8,2.5
		C76.4-328.9,69.7-329.3,63.3-329.4z"/>
	<path class="st0" d="M72.2-387.3c1.4,0,1.5-2.3,0-2.3C70.7-389.5,70.7-387.3,72.2-387.3z"/>
	<path class="st0" d="M46.2-379.9c0.9,1.4,1.8,2.7,2.7,3.9c0.4,0.5,1,0.7,1.5,0.4c0.5-0.3,0.8-1.1,0.4-1.5c-1-1.3-1.9-2.6-2.7-3.9
		C47.4-382.2,45.4-381.1,46.2-379.9z"/>
	<path class="st0" d="M53.4-376.2c1,1.1,2.6-0.5,1.6-1.6c-1.2-1.2-2.3-2.5-3.5-3.7c-1-1.1-2.6,0.5-1.6,1.6
		C51-378.7,52.2-377.4,53.4-376.2z"/>
</g>
<g>
	<path class="st0" d="M121.6-231.6c-0.7-0.3-1.6-0.5-2.5-0.5c0.4-4.8,0.9-9.6,1.7-14.4c0,0,0,0,0,0c1.1-0.2,2.1-0.4,2.7-1
		c3-2.4,2.5-11.9-2.1-12.3c-5.7-0.2-11.4-0.2-17-0.2c-3.1,0-8.3-1-11.1,0.5c-2.6,1.4-2.4,5.2-2.4,7.7c0.1,2.9,0.6,4.5,3.6,4.8
		c0.3,4.7,0.7,9.4,1.3,14.2c0,0.1,0,0.1,0,0.2c-2.2-0.1-4.4-0.1-6.6-0.1c-2.6,0-9.2-1.2-11.3,0.6c-1.4,1.2-1.5,5.3,0,6.5
		c0.5,0.4,1.4,0.6,2.3,0.7c0,0.1,0,0.2,0,0.3c-1.5,0-2.9,0-4.4,0c-0.9-0.9-2.5-1.1-3.8-1.2c-1.7,0-2.8,0.4-3.3,1.3
		c-1.3,0-2.7-0.1-4-0.2c0-0.1,0-0.1,0-0.2c0.9-0.1,1.6-0.2,2.2-0.6c1.6-1.2,1.7-5.3,0.2-6.5c-2.2-1.8-8.6-0.6-11.3-0.6
		c-2.2,0-4.4,0-6.6,0.1c0-0.1,0-0.1,0-0.2c0.4-4.7,1-9.4,1.3-14.2c3-0.3,3.5-1.9,3.6-4.8c0.1-2.3,0.2-6.2-2-7.6
		c-2.7-1.7-8.3-0.6-11.4-0.7c-5.7-0.1-11.4,0-17,0.2c-4.6,0.4-5,9.7-2.2,12.2c0.6,0.6,1.6,0.9,2.8,1c0,0,0,0,0,0
		c0.9,4.8,1.3,9.6,1.7,14.4c-0.9,0.1-1.8,0.2-2.5,0.5c-2.2,1.1-2.7,4.7-0.7,6.3c0.6,0.5,1.8,0.8,3,1c1.1,6.5,1.6,13.1,2.8,19.5
		c-0.6,0.1-1.2,0.3-1.5,0.6c-1.5,1.3-1.5,5.2,0,6.5c1.9,1.7,8.9,0.6,11.1,0.6c2.2,0,4.5-0.1,6.7-0.3c0.3,2.9,0.2,5.8,0.2,8.7
		c-0.1,0-0.2,0-0.3,0.1c-3.3,1.1-3.3,8.1-0.6,9.9c1.8,1.3,5.8,0.5,7.9,0.5c4.3,0.1,8.7,0,13-0.1c3.6-0.4,4.2-7.5,1.9-9.6
		c-0.5-0.5-1.2-0.7-2-0.9c-0.1-3.1-0.1-6.2-0.1-9.3c2.1-0.9,3.2-3.6,1.6-5.7c-0.4-0.5-0.9-0.9-1.6-1.1c0-0.1,0-0.2,0-0.3
		c0.5,0,0.9-0.1,1.4-0.1c0.8,0,1.5,0,2.3,0.1c0.3,1.3,0.8,1.5,2.2,1.6c1.3,0.2,4.6,0.4,5.6-0.8c0.2-0.2,0.3-0.5,0.3-0.8
		c1.1,0,2.3,0.1,3.5,0c0,0.1,0,0.1,0,0.2c-0.7,0.3-1.2,0.6-1.6,1.1c-1.6,2.2-0.5,4.8,1.6,5.7c-0.2,3.1,0,6.2,0,9.3
		c-0.8,0.2-1.4,0.4-1.9,0.8c-2.5,2-1.8,9.3,1.8,9.7c4.2,0.1,8.4,0.2,12.5,0.1c2.3,0,6,0.7,8.1-0.4c3-1.6,3-8.9-0.3-10
		c-0.1,0-0.2,0-0.3-0.1c0-2.9-0.1-5.8,0.2-8.7c2.2,0.1,4.5,0.3,6.7,0.3c2.2,0,9.2,1.1,11.1-0.6c1.4-1.3,1.6-5.2,0-6.5
		c-0.4-0.3-0.9-0.5-1.5-0.6c1.3-6.5,1.9-13,2.8-19.6c1.3-0.2,2.4-0.4,3-1C124.3-226.9,123.8-230.5,121.6-231.6z M93.2-250.7
		c-0.3-0.7,0-2.1,0-2.8c0.1-1,0.2-1.8,0.5-2.5c0.6,1.1,1.1,2.3,1.7,3.4c0.6,1.3,2.6,0.2,1.9-1.1c-0.6-1.2-1.2-2.5-1.8-3.7
		c0.2-0.1,0.5-0.1,0.8-0.2c0.8,1.2,1.6,2.4,2.4,3.6c0.8,1.2,2.7,0.1,1.9-1.1c-0.6-0.9-1.2-1.8-1.8-2.7c0.4,0,0.8,0,1.2,0
		c0,0,0,0,0,0c0.7,1,1.3,2,1.8,3.1c0.3,0.5,1,0.7,1.5,0.4c0.6-0.3,0.7-1,0.4-1.5c-0.3-0.6-0.7-1.3-1-1.9c0.5,0,0.9,0,1.4,0
		c0,0.1,0.1,0.2,0.2,0.3c0.8,0.9,1.5,1.9,2.2,2.9c0.8,1.2,2.7,0.1,1.9-1.1c-0.5-0.7-1-1.4-1.5-2.1c0.6,0,1.1,0,1.7,0
		c0,0.1,0.1,0.1,0.1,0.2c0.8,0.9,1.4,1.9,2,2.9c0.7,1.3,2.6,0.2,1.9-1.1c-0.4-0.7-0.8-1.4-1.2-2c0.5,0,0.9,0,1.4,0
		c0.6,1,1.3,2,2,2.9c0.4,0.5,1,0.7,1.5,0.4c0.5-0.3,0.8-1.1,0.4-1.5c-0.4-0.6-0.8-1.1-1.3-1.7c0.4,0,0.9,0,1.3,0c0,0,0,0,0,0.1
		c0.8,1.3,1.6,2.6,2.6,3.8c0.4,0.5,1.2,0.4,1.6,0c0.5-0.5,0.4-1.1,0-1.6c-0.5-0.7-1-1.4-1.5-2.2c0.6,0,1.2,0,1.7,0
		c1.3,0.1,1.4,4.1,1.2,5.1c-0.3,1.7-0.8,2.8-2.7,3.3c-2.6,0.7-6.2,0.1-8.8,0.1c-3.1,0-6.1,0-9.2,0C99.7-249.1,94.4-248.1,93.2-250.7
		z M98.8-232.7c-0.5-4.6-1-9.3-1.2-13.9c4.5,0.2,9.1-0.1,13.5-0.1c1.6,0,4.2,0.3,6.7,0.4c-0.8,4.7-1.3,9.5-1.7,14.3
		c-0.4,0-0.7,0-1,0c-3.2-0.1-6.4,0.1-9.7,0c-2.2-0.1-4.4-0.2-6.6-0.3C98.8-232.5,98.8-232.6,98.8-232.7z M76.8-213.8
		c0-1.5-0.1-3-0.2-4.5c1.2,0,2.4,0,3.6,0.1c0,2,0,4.1,0,6.1c-0.4,0-0.9,0-1.4,0.1c-0.7,0-1.3,0-2,0
		C76.8-212.6,76.8-213.2,76.8-213.8z M80.2-222.4c0,0.6,0,1.3,0,1.9c-1.2-0.1-2.4-0.1-3.6-0.1c0-0.5,0.1-1.2,0.1-1.8
		C77.8-222.4,79-222.4,80.2-222.4z M64.8-212.2c0-2.2,0-4.4,0-6.6c1.1-0.1,2.2,0,3.3,0.1c0,0.7,0.1,1.4,0.1,2c0,1.4-0.1,3-0.1,4.6
		C67-212,65.9-212.1,64.8-212.2z M68.1-222.4c0,0.5-0.1,0.9,0,1.4c-1.1-0.1-2.2-0.2-3.3-0.1c0-0.5,0-1,0-1.5
		C65.8-222.4,66.9-222.4,68.1-222.4z M39.6-232.1c-3.2,0.1-6.4,0-9.7,0c-0.3,0-0.6,0-1,0c-0.4-4.8-0.9-9.6-1.7-14.3
		c2.5,0,5.2-0.4,6.7-0.4c4.4,0,9.1,0.3,13.5,0.1c-0.3,4.7-0.8,9.3-1.2,13.9c0,0.1,0,0.2,0,0.3C44-232.3,41.8-232.2,39.6-232.1z
		 M22.4-252.5c-0.1-0.4-0.1-1.4,0-2.3c0.3,0.4,0.5,0.8,0.8,1.1c0.3,0.5,1,0.7,1.5,0.4c0.5-0.3,0.8-1,0.4-1.5
		c-0.6-0.9-1.2-1.8-1.9-2.6c0.1-0.1,0.2-0.2,0.4-0.2c0.3,0,0.7,0,1,0c0.9,1.3,1.8,2.5,2.8,3.7c0.9,1.1,2.5-0.5,1.6-1.6
		c-0.6-0.7-1.1-1.4-1.7-2.2c0.4,0,0.9,0,1.3,0c0.8,1.2,1.6,2.3,2.6,3.4c1,1.1,2.5-0.5,1.6-1.6c-0.5-0.6-1-1.2-1.5-1.9
		c0.6,0,1.1,0,1.7,0c0.7,1.2,1.5,2.4,2.4,3.5c0.4,0.5,1,0.7,1.5,0.4c0.5-0.3,0.8-1.1,0.4-1.5c-0.6-0.8-1.1-1.5-1.6-2.3
		c0.6,0,1.1,0,1.7,0c0.5,0.9,1.1,1.8,1.6,2.7c0.8,1.2,2.7,0.1,1.9-1.1c-0.3-0.5-0.6-1-0.9-1.6c0.2,0,0.4,0,0.6,0c0.3,0,0.7,0,1,0
		c0.7,1.1,1.4,2.2,2.2,3.2c0.4,0.5,1,0.7,1.5,0.4c0.5-0.3,0.8-1.1,0.4-1.5c-0.5-0.7-1-1.4-1.5-2.1c0.5,0,1.1,0,1.6,0
		c0.1,0.1,0.1,0.3,0.2,0.4c0.8,1.1,1.7,2.1,2.5,3.2c0.4,0.5,1.2,0.4,1.6,0c0.5-0.5,0.4-1.1,0-1.6c-0.4-0.6-0.9-1.1-1.3-1.7
		c1.9,0.4,2.7,1.2,2.8,3.3c0.1,0.7,0.3,2.8,0,3.4c-1.1,2.4-5.7,1.6-7.8,1.6c-3.3,0-6.7,0.1-10,0c-2.5,0-5.6,0.4-8.1-0.1
		C23.7-249.6,22.8-250.2,22.4-252.5z M24.7-228.9c1-1.1,0.9-0.6,1.9-0.8c3.9-0.9,8.9,0,13-0.1c6.7-0.2,13.4-0.4,20.2-0.5
		c1.2,0,2.7-0.3,3.9,0c2.3,0.5,2.8,2.4,0.2,3c-3.7,0.9-8.6,0.7-12.4,0.7c-6.6-0.1-13.2,0.4-19.8,0.1c-1.7-0.1-3.6,0-5.2-0.3
		C24.9-227.3,23.5-227.5,24.7-228.9z M34.3-224.3c5.5,0.1,10.9-0.2,16.4-0.2c3.3,0.1,6.5-0.2,9.7-0.4c0.4,0,0.8,0,1.2,0
		c0,6.5,0.1,13,0.1,19.6c-2.1-0.1-4.4,0.1-5.8,0.1c-4.9-0.2-9.8,0.2-14.6,0.1c-3,0-5.8-0.1-8.8,0.2c-0.3,0-0.7,0-1.1,0
		c0-0.2,0-0.4,0-0.6c-1.1-6.2-1.6-12.5-2.6-18.7C31-224.2,33.1-224.3,34.3-224.3z M33.7-199.4c-1.4,0-7.2,0.7-5.5-2.2
		c1.4-2.3,10-1.4,12.1-1.3c6,0.1,11.9-0.4,17.9,0c1.5,0.1,4.4-0.2,5.4,0.9c1.7,1.8-1.3,2.2-3,2.2c-4,0.1-8,0-11.9,0
		C43.8-199.6,38.8-199.4,33.7-199.4z M48.9-197.5c4.1-0.1,8.7,0.6,12.9,0.1c-0.1,2.8,0,5.7,0.1,8.5c-1.8,0.1-3.6,0.3-4.7,0.3
		c-2.3,0-4.7,0-7,0c-0.6,0-1.4-0.1-2.2-0.1c0-2.9,0.1-5.8-0.2-8.7c0,0,0-0.1,0-0.1C48.1-197.5,48.5-197.5,48.9-197.5z M65-180.4
		c-4,0.1-8,0.1-12,0.1c-3.2,0-9.3,0.9-8.3-4.1c0,0,0,0,0-0.1c0.2,0.3,0.4,0.6,0.6,1c0.7,1.2,2.7,0.1,1.9-1.1c-0.3-0.5-0.6-1-0.9-1.4
		c0.4-0.1,0.8-0.2,1.3-0.3c0,0,0,0.1,0.1,0.1c0.4,0.5,0.8,1,1.1,1.6c0.7,1.3,2.7,0.1,1.9-1.1c-0.1-0.3-0.3-0.5-0.5-0.7
		c0.6,0,1.2,0,1.8,0.1c0,0.1,0.1,0.1,0.1,0.2c0.4,0.6,0.7,1.2,1.1,1.7c0.3,0.5,1,0.7,1.5,0.4c0.5-0.3,0.8-1,0.4-1.5
		c-0.1-0.2-0.3-0.4-0.4-0.6c0.3,0,0.6,0,0.8,0c0.6,0,1.1,0,1.7,0c0,0,0,0,0,0c0.3,0.6,0.6,1.1,0.9,1.7c0.7,1.3,2.7,0.1,1.9-1.1
		c-0.1-0.2-0.2-0.4-0.4-0.6c0.4,0,0.9,0,1.3,0c0,0,0,0,0,0.1c0.4,0.6,0.7,1.2,1,1.9c0.3,0.6,1.1,0.7,1.5,0.4c0.6-0.3,0.7-1,0.4-1.5
		c-0.1-0.1-0.1-0.2-0.2-0.3c0.8,0.3,1.3,0.7,1.6,2.3C65.7-183.2,65.8-180.5,65-180.4z M64.8-207.3c0-0.9,0-1.7,0-2.6
		c1.1,0.1,2.1,0.2,3.2,0.2c0,0.8,0.1,1.6,0.1,2.4c-0.6-0.1-1.3-0.1-1.9-0.1C65.8-207.4,65.3-207.3,64.8-207.3z M74.6-207.4
		c-0.4,1.8-2.3,2.6-3.5,1.2c-1.4-1.6-0.6-7.1-0.6-9.2c0-2-1-8.3,1.7-8.2c2.8,0.1,2.2,2.8,2.2,4.9c0.1,1.6,0.1,3.2,0.2,4.8
		C74.5-211.9,75-209.3,74.6-207.4z M76.8-207.2c0-0.9,0-1.7,0-2.6c0.5,0,1,0,1.6,0c0.6,0,1.2-0.1,1.7-0.1c0,0.9,0,1.8,0,2.6
		C79.1-207.1,77.9-207.2,76.8-207.2z M100.4-184.5c1.1,4.9-4.6,4.1-7.8,4.1c-4.2,0-8.4,0-12.5-0.1c-0.8-0.1-0.7-2.4-0.7-2.8
		c0.1-0.6,0.2-1.1,0.4-1.5c0.2,0.3,0.3,0.5,0.5,0.8c0.3,0.5,1,0.7,1.5,0.4c0.5-0.3,0.7-1,0.4-1.5c-0.2-0.4-0.5-0.7-0.7-1.1
		c0.1,0,0.1,0,0.1-0.1c0.4-0.1,0.8-0.2,1.3-0.2c0.6,1,1.2,1.9,1.8,2.8c0.4,0.5,1,0.7,1.5,0.4c0.5-0.3,0.8-1,0.4-1.5
		c-0.4-0.5-0.8-1.1-1.1-1.6c0.5,0,1,0.1,1.5,0.1c0.5,0.7,1,1.4,1.4,2c0.4,0.5,1,0.7,1.5,0.4c0.5-0.3,0.8-1,0.4-1.5
		c-0.2-0.3-0.4-0.6-0.6-0.9c0.4,0,0.9-0.1,1.5-0.1c0,0,0,0,0,0c0.4,0.6,0.8,1.3,1.2,2c0.7,1.2,2.7,0.1,1.9-1.1
		c-0.2-0.3-0.4-0.7-0.6-1c0.5,0,0.9,0,1.4,0c0.4,0.9,0.8,1.8,1.3,2.6c0.7,1.2,2.7,0.1,1.9-1.1c-0.2-0.4-0.4-0.8-0.6-1.2
		C99.2-186,100.2-185.5,100.4-184.5z M97.2-197.4c-0.3,2.8-0.1,5.6-0.2,8.4c-2.8-0.1-6.1,0.3-8.4,0.4c-1.3,0-3.5-0.3-5.5-0.3
		c0-2.8-0.1-5.6,0-8.4c4.2,0.5,8.9-0.2,13-0.1c0.4,0,0.7,0,1.1,0C97.2-197.4,97.2-197.4,97.2-197.4z M111.5-199.4
		c-5.1,0-10.2-0.2-15.3-0.4c-3.7-0.1-7.4,0.1-11.1,0c-0.9,0-4.9,0.1-4.7-1.7c0.2-1.5,4.7-1.4,5.8-1.4c6.1-0.4,12.3,0.1,18.4,0
		c2.8-0.1,9-1,11.3,0.9C119.4-199.2,113.3-199.4,111.5-199.4z M113.6-205.5c0,0.2,0,0.4,0,0.6c-0.4,0-0.8,0-1.1,0
		c-3-0.3-5.8-0.2-8.8-0.2c-4.9,0.1-9.8-0.3-14.6-0.1c-1.4,0.1-3.7-0.2-5.8-0.1c0-6.5-0.1-13.1,0.1-19.6c0.5,0,0.9,0,1.2,0
		c3.2,0.2,6.5,0.5,9.7,0.4c5.3-0.1,10.6,0.2,15.9,0.2c1.4,0,3.7,0.2,6.1,0.1C115.4-217.9,114.8-211.7,113.6-205.5z M119.4-227
		c-1.5,0.5-3.9,0.3-5.5,0.4c-6.8,0.3-13.5-0.2-20.3,0c-3.8,0.1-8,0-11.8-0.6c-2.3-0.4-3.6-2-0.9-3.1c1.1-0.4,2.9,0,4,0
		c6.8,0.1,13.6,0.3,20.5,0.5c4,0.1,8.8-0.7,12.7,0.1C119.8-229.4,122.6-228.1,119.4-227z"/>
	<path class="st0" d="M36.9-212.3c0.9,1.1,2.5-0.5,1.6-1.6c-1.3-1.7-2.8-3.3-4.3-4.8c-1-1-2.6,0.6-1.6,1.6
		C34.2-215.6,35.6-214,36.9-212.3z"/>
	<path class="st0" d="M41.7-212.5c0.9,1.1,2.8,0,1.9-1.1c-1.4-1.9-2.8-3.8-4.2-5.6c-0.9-1.1-2.8,0-1.9,1.1
		C38.9-216.2,40.3-214.3,41.7-212.5z"/>
</g>
<g>
	<path class="st0" d="M111-120.2c-5.1-4.7-9.9-6.1-16.4-3.4c-5.8,2.4-10.3,7.6-14.8,11.7c-6.8,6.2-13.4,12.7-19.9,19.3
		c-6.2,6.4-12.4,12.9-18.4,19.5c-2.7,2.9-5.7,5.9-8,9.1c-0.1,0.1-0.2,0.2-0.2,0.3c-0.1,0.1-0.2,0.3-0.2,0.4
		c-1.6,3.2-2.3,7.2-3.1,10.6c-1.3,5.5-2.3,11.1-2.8,16.7c-0.1,1.1,1,1.6,1.9,1.4c8.8-1.4,17.4-3.3,26.2-4.9c3.6-0.6,5.1-3.1,7.6-5.7
		c4.2-4.3,8.3-8.7,12.5-13c7.7-8.1,15.4-16.1,23.3-24c6.5-6.5,15.6-13.6,18.7-22.6C119.5-111.3,115.6-115.9,111-120.2z M101.7-89.1
		c-3.6-3-6.3-6.4-9.5-9.8c-3.4-3.6-7-7-10.7-10.3c0.7-0.6,1.3-1.2,2-1.8c6.8,6.7,13.4,13.4,20,20.2
		C102.9-90.3,102.3-89.7,101.7-89.1z M93.6-81.3c-6.3-7.2-13.8-13.3-21-19.6c0.6-0.6,1.2-1.1,1.8-1.7c7.6,5.6,14.1,13,20.8,19.7
		c-0.3,0.3-0.5,0.5-0.8,0.8C94.2-81.9,93.9-81.6,93.6-81.3z M54.9-52.6C54.9-52.6,54.9-52.6,54.9-52.6c-2.9,0.2-5.7,0.2-8.6,0.3
		c-0.1-2.2-0.1-5.6-0.9-7.7c5.1-5,9.6-10.6,14.5-15.8c5.5-5.9,11.4-11.6,17.1-17.3c3,2.6,5.9,5.2,8.7,8C75.8-74,65.6-63.1,54.9-52.6
		z M79.8-107.7c0.5,0.5,1.1,1,1.6,1.5c-1.1,1.2-2.2,2.4-3.4,3.5c-0.6-0.5-1.3-1-1.9-1.5C77.3-105.4,78.6-106.6,79.8-107.7z
		 M87.1-94.5c1.2-0.9,2.3-1.9,3.3-3c0,0,0.1,0.1,0.1,0.1c0.6,0.7,1.2,1.3,1.8,2c-0.9,1.1-2,2.1-3.1,3.1
		C88.6-93.1,87.9-93.8,87.1-94.5z M85.5-96.1c-0.6-0.6-1.2-1.2-1.9-1.8c1-1.1,2.1-2.2,3.2-3.3c0.7,0.7,1.4,1.3,2,2
		C87.8-98,86.7-97,85.5-96.1z M82-99.4c-0.7-0.7-1.5-1.3-2.2-2c1.2-1.1,2.3-2.2,3.3-3.4c0.7,0.7,1.5,1.4,2.2,2
		C84.1-101.6,83-100.5,82-99.4z M90.8-90.7c1.1-0.9,2.1-1.9,3-3c0.7,0.7,1.3,1.5,2,2.2c-1,1-2,2-2.9,3.1
		C92.3-89.2,91.6-90,90.8-90.7z M53.5-81.7c5.5-5.8,11.2-11.6,17-17.2c1.6,1.4,3.3,2.8,4.9,4.3c-5.7,5.7-11.5,11.3-17,17.2
		c-4.9,5.3-9.4,10.8-14.5,15.8c-0.9-0.3-2-0.3-2.6-0.4c-1.6-0.3-3.3-0.5-5-0.8C41.1-69.6,47.8-75.6,53.5-81.7z M42.1-39.7
		c-2.4-3-6.1-6.8-9.8-9.8c0.2-0.8,0.3-1.6,0.5-2.4c0.6-2.8,1.2-6.1,2.3-8.8c2.4,0.2,6.1,0.3,8.2,1.3c-0.8-0.3,0,1.5,0.1,2.7
		c0.2,1.8,0.4,3.7,0.7,5.5c0.1,0.6,0.5,1.2,1.1,1.1c2.1-0.1,4.3,0.1,6.4-0.1c2.3-0.2,2.2-0.7,2.5,1.6c0.2,2.1,0.4,4.1,0.5,6.2
		c-0.3,0.1-0.5,0.2-0.8,0.2C50-41.2,46.1-40.4,42.1-39.7z M74.4-61.5c-3.6,3.7-7.1,7.4-10.7,11.2c-2.2,2.3-4.2,5.1-6.8,6.8
		c-0.2-2.4-0.4-4.8-0.7-7.1C67-61.3,77.3-72.3,87.4-83.6c1.4,1.4,2.8,2.9,4.1,4.4C85.8-73.3,80.1-67.4,74.4-61.5z M96.9-84.6
		c-0.8-0.8-1.5-1.5-2.3-2.3c0.9-1.1,1.9-2.1,2.9-3.1c0.8,0.8,1.7,1.6,2.6,2.3C99-86.6,97.9-85.6,96.9-84.6z M113.6-103.7
		c-1.9,3.8-4.8,7.3-8,10.6c-6.6-6.8-13.2-13.5-19.9-20.1c0.1-0.1,0.3-0.3,0.4-0.4c4.5-4.1,10.2-10.2,17-8.3c3.2,0.9,5.7,3.6,7.9,6
		C114.5-112.1,116.1-108.8,113.6-103.7z"/>
	<path class="st0" d="M95.1-115.9c-0.3-1.4-2.4-0.8-2.2,0.6c0.4,2,0.9,4,1.6,6c0.5,1.4,2.6,0.8,2.2-0.6
		C96-111.9,95.5-113.9,95.1-115.9z"/>
	<path class="st0" d="M98.9-116.7c-0.5-1.4-2.6-0.8-2.2,0.6c0.6,1.7,1.1,3.4,1.7,5.1c0.5,1.4,2.6,0.8,2.2-0.6
		C100-113.3,99.5-115,98.9-116.7z"/>
</g>
<g>
	<path class="st0" d="M-329.1,44.9c-8.1,0.8-14,7.8-13.7,15.7c0.2,7.9,7.9,14.8,15.8,14.7c0.1,0,0.2,0,0.4,0
		c8.2-0.8,14-6.2,13.4-14.8C-313.9,52.4-320,44-329.1,44.9z M-318.1,67.6c-2.8-6.7-5.9-13.2-9.2-19.6c0.8,0.1,1.7,0.2,2.4,0.5
		c2.9,5.1,4.9,10.7,8.1,15.7c0,0.1,0.1,0.1,0.1,0.2C-317,65.5-317.5,66.6-318.1,67.6z M-316.6,58.6c0.1,0.7,0.2,1.3,0.2,2
		c-1.8-3.3-3.3-6.7-5-10C-318.9,52.5-317.1,55.4-316.6,58.6z M-329.8,48.1C-329.8,48.1-329.8,48.1-329.8,48.1c3.7,6.9,7,14,10,21.2
		c0,0.1,0.1,0.1,0.1,0.1c-0.6,0.5-1.2,0.9-1.9,1.3c-3.6-7.3-7.2-14.7-10.8-22c0.7-0.3,1.4-0.5,2.1-0.6
		C-330.1,48.1-330,48.1-329.8,48.1z M-330.8,71.6c-2.7-5.5-5.4-10.9-8.1-16.4c0.3-0.7,0.7-1.4,1.2-2.1c2.9,6.5,6.1,12.9,9.5,19.1
		C-329.1,72.1-330,71.9-330.8,71.6z M-325.7,72.2c-3.8-6.8-7.3-13.8-10.5-20.9c0.5-0.5,1.1-1,1.8-1.4c3.6,7.3,7.2,14.6,10.7,21.8
		C-324.3,71.9-325,72-325.7,72.2z M-339.8,61.4c-0.2-1-0.2-2,0-2.9c1.9,3.8,3.7,7.6,5.6,11.4C-337,67.8-339.2,64.7-339.8,61.4z"/>
	<path class="st0" d="M-302.8,30.3C-314.2,20-334,18.9-347.2,26c-13,7.1-22.8,24.3-19.7,39.2c0.9,4.4,2.2,9.1,4.1,13.2
		c2,4.3,5.5,7.6,8.9,10.8c7.1,6.5,15.9,10,25.5,10.2c16.2-0.6,31.5-9.4,37.7-24.9C-284.6,59.3-290.9,41-302.8,30.3z M-301.8,35.8
		c4,5,7.5,10.8,9.3,17c-3.5-6.2-7.1-12.3-10.6-18.5C-302.6,34.9-302.2,35.3-301.8,35.8z M-292.4,70.7c-2.9-5.1-5.5-10.3-8.5-15.3
		c-1.2-5.1-3.7-9.8-7.3-13.5c-2.7-5.2-5.5-10.4-8.4-15.5c0.8,0.2,1.6,0.5,2.4,0.8c8.5,13,15,27.2,22.5,40.8
		C-291.9,68.9-292.2,69.8-292.4,70.7z M-294.3,75.5c-2-3.6-4.3-7-6.2-10.7c0.1-0.6,0.1-1.1,0.2-1.7c0-0.7,0.1-1.4,0.1-2.1
		c2.3,4.1,4.4,8.3,6.9,12.4C-293.7,74.2-294,74.9-294.3,75.5z M-296.6,79.6c-1.7-3-3.5-5.9-5.5-8.7c0.3-0.8,0.6-1.7,0.9-2.6
		c1.9,3.2,3.8,6.4,5.6,9.6C-295.9,78.5-296.2,79-296.6,79.6z M-328.9,84.3c-6.2-0.5-12.2-2.4-16.9-6.7c-4.9-4.5-6.7-12.2-6.5-18.6
		c0.5-14,14.7-25,28.4-22.5c11.9,2.2,20.9,13.8,20.5,25.8C-303.8,76-316.1,84.5-328.9,84.3z M-306.4,89.3c-1.5-2.5-3-5-4.6-7.4
		c0.6-0.5,1.3-0.9,1.9-1.5c1.7,2.4,3.3,4.9,4.7,7.4C-305,88.3-305.7,88.8-306.4,89.3z M-310.5,91.8c-1.5-2.5-3.1-4.9-4.6-7.4
		c0.8-0.4,1.6-0.8,2.3-1.3c1.5,2.5,3.1,4.9,4.6,7.4C-309,90.9-309.8,91.3-310.5,91.8z M-315.1,93.8c-1.5-2.6-3.1-5.2-4.7-7.7
		c0.9-0.3,1.7-0.5,2.6-0.9c1.5,2.5,3.1,5,4.6,7.5C-313.4,93.1-314.2,93.5-315.1,93.8z M-319.2,95.1c-1.7-2.7-3.4-5.4-5.1-8.1
		c0.7-0.1,1.5-0.2,2.2-0.4c1.7,2.6,3.3,5.2,4.9,7.9C-317.9,94.7-318.5,94.9-319.2,95.1z M-323.8,96c-2-2.8-3.8-5.8-5.5-8.8
		c0.2,0,0.3,0,0.5,0c0.7,0,1.4,0,2.1,0c1.8,2.8,3.5,5.6,5.3,8.4C-322.3,95.8-323.1,95.9-323.8,96z M-328.3,96.5c-0.2,0-0.3,0-0.5,0
		c-2.1-3.3-4.1-6.6-6-10c0.9,0.2,1.8,0.4,2.6,0.5c1.8,3.2,3.7,6.4,5.8,9.4C-327,96.4-327.7,96.4-328.3,96.5z M-341.9,93.4
		c-7.3-13.5-14.5-26.9-21.8-40.4c0.2-0.7,0.4-1.4,0.6-2.1c2.8,5.2,5.7,10.3,8.5,15.5c0.9,5,3.1,10,6.8,13.3c0.5,0.4,0.9,0.8,1.4,1.2
		c2.8,4.7,5.7,9.4,8.5,14C-339.3,94.5-340.6,94-341.9,93.4z M-347.6,90.1c-6.1-10.1-11.7-20.2-16.9-30.8c0-0.3,0-0.6,0-1
		c0-0.6,0.1-1.2,0.2-1.8c6.3,11.6,12.6,23.3,18.8,34.9C-346.2,91.1-346.9,90.6-347.6,90.1z M-361.3,46c0.7,1.3,1.6,2.6,2.4,3.9
		c1.4,2.4,2.7,4.8,3.9,7.3c-0.1,0.6-0.1,1.2-0.1,1.8c0,0.6,0,1.1,0,1.7c-2.3-4.2-4.6-8.4-7-12.7C-361.9,47.3-361.6,46.6-361.3,46z
		 M-358.3,40.6c1.8,3.2,3.5,6.4,5,9.7c-0.4,1-0.8,2.1-1.1,3.1c-0.7-1.3-1.4-2.6-2.1-3.9c-1.2-2-2.8-4-3.5-6.2
		C-359.5,42.5-358.9,41.5-358.3,40.6z M-355.3,36.7c1.8,2.7,3.4,5.4,4.9,8.3c-0.6,0.9-1.2,1.8-1.7,2.7c-1.5-3.1-3.1-6.1-4.8-9.1
		C-356.4,38-355.8,37.3-355.3,36.7z M-352,33.3c1.5,2.7,3.1,5.4,4.6,8.1c-0.5,0.5-1,1-1.4,1.6c-1.5-2.8-3.1-5.5-4.9-8
		C-353.1,34.4-352.6,33.9-352,33.3z M-348.2,30.4c1.4,2.7,2.9,5.3,4.4,8c-0.6,0.5-1.3,1-1.9,1.5c-1.5-2.7-3-5.3-4.5-8
		C-349.6,31.3-348.9,30.9-348.2,30.4z M-340.2,26.3c1.3,2.7,2.8,5.4,4.4,8c-0.7,0.2-1.4,0.5-2.1,0.8c-1.4-2.7-2.9-5.3-4.3-8
		C-341.5,26.8-340.8,26.6-340.2,26.3z M-335.4,25c1.8,2.6,3,5.5,4.6,8.2c-0.9,0.1-1.8,0.3-2.7,0.5c-1.6-2.6-3.1-5.3-4.5-8.1
		C-337.1,25.4-336.3,25.2-335.4,25z M-330.4,24.4c1.5,3,3.1,5.9,4.9,8.7c-0.9-0.1-1.9-0.1-2.8-0.1c-1.7-2.8-2.9-5.7-4.7-8.4
		C-332.1,24.5-331.2,24.5-330.4,24.4z M-344.2,28.2c1.4,2.6,2.8,5.2,4.2,7.8c-0.7,0.3-1.4,0.7-2,1.1c-1.4-2.7-2.9-5.3-4.3-8
		c0.7-0.4,1.4-0.8,2.1-1.1C-344.2,28.1-344.2,28.1-344.2,28.2z M-334.9,95.6c-2.4-3.9-4.8-7.9-7.2-11.8c1.4,0.7,2.8,1.3,4.2,1.8
		c2,3.6,4.1,7.2,6.3,10.7c-1.1-0.1-2.1-0.3-3.2-0.5C-334.8,95.7-334.8,95.6-334.9,95.6z M-319.8,25.5c2.4,4,4.7,8.2,6.9,12.3
		c-1.1-0.8-2.2-1.4-3.4-2c-2.2-3.6-4.3-7.3-6.5-10.9C-321.8,25.1-320.8,25.3-319.8,25.5z M-310.6,28.8c0.9,0.5,1.8,1,2.7,1.6
		c0,0.1,0.1,0.2,0.1,0.3c5.4,9.3,10.7,18.7,16.1,28c0.1,0.2,0.3,0.3,0.4,0.4c0.1,0.9,0.1,1.8,0.1,2.7c0,0.8,0,1.6-0.1,2.3
		C-297.6,52.3-303.5,40.2-310.6,28.8z M-325.7,24.6c2,3.2,3.9,6.5,5.8,9.8c-0.9-0.3-1.8-0.5-2.7-0.7c-1.9-3-3.7-6-5.3-9.2
		C-327.1,24.5-326.4,24.5-325.7,24.6z M-355.5,83.3c-4.3-4.4-7.5-11.5-8.6-18.2c3.7,7.2,7.5,14.2,11.6,21.1
		C-353.6,85.3-354.6,84.3-355.5,83.3z M-302.6,86.3c-1.4-2.5-2.9-4.9-4.6-7.2c-0.1-0.1-0.1-0.2-0.2-0.2c0.5-0.5,0.9-1,1.4-1.5
		c1.6,2.6,3.2,5.1,4.9,7.7C-301.6,85.5-302.1,85.9-302.6,86.3z M-299.6,83.4c-1.7-2.6-3.4-5.2-5-7.9c0.5-0.7,1-1.5,1.4-2.2
		c1.8,2.7,3.5,5.5,5.1,8.3C-298.6,82.2-299.1,82.8-299.6,83.4z"/>
	<path class="st0" d="M-277.8,48.6c-2.5-9.7-8.6-18.2-16-24.9c-7.6-7-16.8-13-27.2-14.1c-11.1-1.2-24.7,0.2-34.1,6.7
		c-18.2,12.7-27.8,32.6-23.1,54.8c5.1,23.8,26.5,40.4,50.6,40.4c20.2,0.1,38.4-10.3,46.2-29.2C-276.9,71.6-274.9,59.9-277.8,48.6z
		 M-281.5,73.8c-3.1,10.7-8.5,20.4-17.9,26.7c-8.3,5.6-18.2,8.1-28.1,8c-19.9,0-38.2-11.9-45.5-30.6c-3.7-9.6-4.6-21.5-1.8-31.5
		c2.6-9.3,8.2-16.5,15.3-22.7c3.7-3.3,7.7-6.6,12.4-8.4c5.4-2.1,11.5-2.4,17.3-2.8c11.1-0.6,20.3,2.6,29.1,9.4
		C-284.1,34.6-275.6,53.1-281.5,73.8z"/>
	<path class="st0" d="M-339,43.7c1.1-0.9,0-2.8-1.1-1.9c-1.8,1.3-3.3,2.8-4.7,4.5c-0.9,1.1,0.7,2.7,1.6,1.6
		C-342,46.3-340.6,44.9-339,43.7z"/>
	<path class="st0" d="M-340.6,46.5c-1,1.1,0.6,2.7,1.6,1.6c0.9-1,2-1.9,3.2-2.6c1.3-0.7,0.1-2.7-1.1-1.9
		C-338.3,44.4-339.5,45.4-340.6,46.5z"/>
</g>
<g>
	<path class="st0" d="M-161.6,85.5c0-6.9-0.1-13.9-0.3-20.8c-0.4-13.2-0.9-26.4-1.7-39.6c-0.5-9.1-4.1-14.7-13.6-16.1
		c-10.6-1.6-21.8-1-32.5-0.4c-4.8,0.3-9.7,0.8-12.6,5.1c-2.8,4.2-3,10.3-3.4,15.2c-1.3,13.8,0.2,27.9-0.1,41.8
		c0,9.1-0.3,18.3,0.5,27.4c0.5,5.7,1.7,10,7.2,12.9c3.8,2,9.6,1.5,13.6,1.5c7.3,0.1,14.5-0.4,21.8-0.6c8.3-0.2,19.3,0.2,20.9-10.4
		C-161.1,96.4-161.6,90.7-161.6,85.5z M-164.9,101c-1.5,7.7-8.6,7.9-15,7.9c-10.2,0.1-20.5,1.1-30.7,0.5c-4.1-0.2-9-1.3-10.9-5.5
		c-1.2-2.5-1-6-1.2-8.8c-0.5-8.1-0.3-16.3-0.3-24.5c0.2-9.1,0.1-18.2-0.2-27.2c-0.2-4.9-0.1-9.7,0.4-14.5c0.5-5.6,0.6-14.1,6.8-16.5
		c4.1-1.6,9.9-1,14.3-1.2c4.5-0.2,9-0.2,13.5-0.1c4.2,0.1,8.9,0.1,13,1.2c6.6,1.8,8.1,6.4,8.5,12.7c1.3,20.4,2.1,40.9,2.1,61.3
		C-164.6,91.2-164,96.4-164.9,101z"/>
	<path class="st0" d="M-199.9,18.8c4-0.2,8-0.3,12-0.3c1.4,0,1.4-2.2,0-2.3c-4,0-8,0.1-12,0.3C-201.4,16.6-201.4,18.8-199.9,18.8z"
		/>
	<path class="st0" d="M-183,18.2C-183,18.2-183,18.2-183,18.2c1.1-1.1-0.5-2.7-1.5-1.7c0,0,0,0-0.1,0.1
		C-185.6,17.7-184,19.3-183,18.2z"/>
	<path class="st0" d="M-178.4,18.3C-178.4,18.3-178.4,18.3-178.4,18.3c1.1-1.1-0.5-2.7-1.5-1.7c0,0,0,0-0.1,0.1
		C-181.1,17.7-179.5,19.3-178.4,18.3z"/>
	<path class="st0" d="M-193.1,100.4c-3.1,0-9.2-0.7-9.6,3.7c-0.4,4.1,6.3,3.7,8.8,3.6c2.5-0.1,8.5,0.2,8.7-3.4
		C-184.9,99.6-190,100.3-193.1,100.4z M-187.8,104.5c-1,1.1-5.1,0.9-6.5,0.9c-1,0-5.4,0.2-5.7-0.5c-1.3-2.9,5.9-2.3,7-2.3
		C-192.1,102.6-185.8,102.2-187.8,104.5z"/>
	<path class="st0" d="M-168.2,23.7C-168.2,23.7-168.2,23.7-168.2,23.7c0,0,0-0.1-0.1-0.1c-0.2-0.3-0.5-0.6-1-0.6
		c-16.8,0.1-33.6,0.9-50.4,0.6c-0.5,0-0.8,0.3-1,0.6c0,0,0,0,0,0c0,0,0,0.1,0,0.1c0,0.1-0.1,0.2-0.1,0.4
		c-0.7,11.8,0.5,23.6,0.2,35.4c-0.3,12.6-1,25.1-0.6,37.7c0,0.2,0.1,0.4,0.2,0.5c0.2,0.3,0.5,0.6,1,0.6c8.8-0.2,17.5,0.1,26.3-0.4
		c8.9-0.5,17.7,0.1,26.6-0.1c0.2,0,0.4-0.1,0.5-0.1c0.4-0.1,0.6-0.5,0.6-1c-1.2-24.4-1-48.8-2.1-73.2
		C-168.2,23.9-168.2,23.8-168.2,23.7z M-193.8,96.3c-8.4,0.4-16.8,0.2-25.2,0.3c-0.3-12.2,0.4-24.3,0.6-36.5
		c0.2-11.4-0.9-22.9-0.3-34.3c16.1,0.2,32.2-0.5,48.3-0.6c1.1,23.6,0.9,47.3,2,71C-176.8,96.4-185.3,95.8-193.8,96.3z"/>
	<path class="st0" d="M-208,31.7c-2.2,1.8-4,3.9-5.4,6.4c-0.7,1.3,1.2,2.4,1.9,1.1c1.3-2.3,3-4.3,5-5.9
		C-205.2,32.4-206.8,30.8-208,31.7z"/>
	<path class="st0" d="M-203.1,32.5c-1.4,1.6-2.7,3.2-4.1,4.8c-0.9,1.1,0.7,2.7,1.6,1.6c1.4-1.6,2.7-3.2,4.1-4.8
		C-200.5,33-202.1,31.4-203.1,32.5z"/>
</g>
<g>
	<path class="st0" d="M-16,60c-6.7-6.4-13.1-13-19.5-19.7c-6.3-6.6-12.7-13.2-19.2-19.5c-2.1-2-4.8-5.9-7.7-6.9
		c-2.1-0.7-4.8,0.2-6.9,0.5c-0.1,0-0.1,0-0.2,0c-0.6-0.4-1.3-0.7-2.1-0.8c-2.8-0.6-6.4,0.2-9.2,0.4c-5.6,0.4-11.2,0.9-16.8,1.7
		c-4.2,0.6-9.9,0.1-11,5c-1.2,5.2-1.6,10.8-2.1,16.1c-0.5,4.9-1,10.9-0.2,15.7c1.3,8.2,11.1,15.2,16.7,20.4
		c7.7,7.1,15.1,14.6,22.6,21.9c3,3,6.1,5.9,9.2,8.7c1.3,1.1,3.1,3.2,4.9,3.6c0.2,0,0.3,0,0.4,0c0.1,0,0.2,0,0.4,0
		c1.2-0.2,2.3-1.2,3.3-2c5.2,5.7,11.9-3.7,15.5-7.1c4.7-4.5,9.3-9.2,13.9-13.8c4.3-4.4,9.2-8.7,12.9-13.5C-7.6,65.9-12.7,63.2-16,60
		z M-57.1,104.1c-1.2-0.5-2.4-1.9-3.2-2.7c-2.3-2-4.4-4.1-6.6-6.2c-5.7-5.5-11.2-11-16.9-16.5c-5.9-5.7-12.2-11.1-17.9-17
		c-2.9-3-5.9-6.2-6.5-10.5c-0.5-4-0.2-8.6,0.1-12.7c0.4-4.8,0.6-10.2,1.9-14.9c1.2-4.6,3.3-4.2,7.3-4.8c3.5-0.5,7-0.9,10.5-1.2
		c4.5-0.4,10.3-1.8,14.7-1c5.7,0.9,11.5,9,15.4,12.9c7.8,7.8,15.3,15.8,23.1,23.6c3.8,3.8,7.6,7.6,11.5,11.3c2.1,2,3.4,2.9,1.1,5.6
		c-1.3,1.5-2.7,2.8-4,4.2C-32.5,80.7-38.7,87-45,93.2c-2.6,2.5-5.2,5.1-7.9,7.5C-53.9,101.6-55.6,103.6-57.1,104.1z M-13,68
		c-0.1,0.6-2,2.3-2.5,2.9c-6.9,7.3-13.9,14.5-21.1,21.5c-2.9,2.8-5.8,5.6-8.8,8.3c-1.9,1.7-3.7,4.4-5.9,2.4c2.1-1.8,4.1-3.8,6.1-5.7
		c6.9-6.7,13.6-13.6,20.2-20.5c2-2.1,6.4-5.5,7.1-8.5c0.8-3.5-4.5-6.7-6.6-8.7c-9.8-9.4-19.1-19.3-28.6-29
		c-4.4-4.5-8.8-8.8-13.3-13.2c-0.2-0.2-0.4-0.4-0.6-0.6c0.7-0.1,1.5-0.2,2.1-0.1c2.1,0.3,4.1,2.8,5.6,4.1c2.5,2.4,4.9,4.8,7.3,7.2
		c4.9,4.9,9.7,9.9,14.6,14.9c4.9,5.1,9.8,10.1,14.8,15c2.5,2.4,5.5,4.7,7.6,7.3C-14,66.3-12.8,66.7-13,68z"/>
	<path class="st0" d="M-89.6,27.8c-1.1-3.8-4.7-4.3-7.9-3.1c-0.1,0-0.3,0.1-0.4,0.2c-2.8,1.7-4.3,5-3.1,8.2c1.3,3.2,4.2,4.6,7.3,2.9
		C-90.9,34.4-88.7,31-89.6,27.8z M-94.8,33c-1.6,1.1-2.9,0.6-3.5-1.3c-0.5-1.7,0.4-3.3,1.8-4.2c1.7-0.6,3.7-0.9,4.1,1.4
		C-92.1,30.5-93.4,32.1-94.8,33z"/>
	<path class="st0" d="M-75.1,49.9c-0.5-2-1.9-3.8-2.4-5.8c-0.9-3.6,4-5.5,6-2.6c0.6,0.9,1,2,0.9,3.1c-0.1,1.9,2.9,1.9,3,0
		c0.3-5.6-7.1-11.3-11.6-6.4c-2.3,2.5-1.6,6-0.4,8.8c0.5,1.2,1.4,2.5,1.7,3.8c0.9,3.6-2.2,6.1-5.7,5c-4-1.3-7.3-6.4-4.7-10.2
		c1.1-1.6-1.5-3.1-2.6-1.5c-4.6,6.9,4.6,18.5,12.3,15C-75.3,57.5-74.2,53.3-75.1,49.9z"/>
	<path class="st0" d="M-63.7,61.3c-1.2-1.2-2.5-2.4-3.7-3.5c0.8-0.8,1.6-1.6,2.5-2.4c1.5-1.4,1.8-1.8,4.1-1.6
		c2.4,0.2,3.3,1.2,4.9,2.9c1.3,1.4,3.5-0.7,2.1-2.1c-2.2-2.3-4.9-4.8-8.4-4.2c-3.6,0.6-6.7,4.7-9.1,7.2c-2,2.1-5.6,5.1-5.2,8.3
		c0.4,3.4,4.1,6.7,6.7,8.4c1.6,1.1,3.1-1.5,1.5-2.6c-1-0.7-2-1.5-2.7-2.4c-0.9-1.1-2.4-3.5-2.2-4.9c0.2-1.2,2.5-3.2,3.8-4.5
		c1.2,1.2,2.5,2.4,3.7,3.5C-64.4,64.8-62.3,62.7-63.7,61.3z"/>
	<path class="st0" d="M-41.8,66.7c-0.1-0.1-0.1-0.2-0.2-0.2c0,0,0-0.1-0.1-0.1c-8.4-9.4-28.8,5.2-20.3,16.4
		C-53.4,94.6-34.8,77.5-41.8,66.7z M-44.3,68.3c4.9,8.1-10.2,22-16.1,12C-65.2,72.2-50.3,62.1-44.3,68.3z"/>
	<path class="st0" d="M-81.2,27.6c3.5,0,7-0.1,10.4-0.1c1.4,0,1.5-2.3,0-2.3c-3.5,0-7,0.1-10.4,0.1C-82.6,25.4-82.6,27.6-81.2,27.6z
		"/>
	<path class="st0" d="M-75.3,29.3c-1.4-0.1-1.4,2.2,0,2.3c2,0.1,4-0.1,6-0.4c1.4-0.3,0.8-2.4-0.6-2.2
		C-71.6,29.3-73.4,29.4-75.3,29.3z"/>
	<path class="st0" d="M-54.2,90.6c-2.4,0.2-4.8,0.4-7.2,0.5c-1.4,0-1.5,2.3,0,2.3c2.4-0.1,4.8-0.2,7.2-0.5
		C-52.8,92.7-52.8,90.5-54.2,90.6z"/>
	<path class="st0" d="M-56.2,94.5c-0.8,0.3-1.6,0.5-2.4,0.6c-0.6,0.1-0.9,0.8-0.8,1.4c0.2,0.6,0.8,0.9,1.4,0.8
		c0.8-0.1,1.6-0.3,2.4-0.6c0.6-0.2,1-0.8,0.8-1.4C-55,94.8-55.7,94.3-56.2,94.5z"/>
</g>
<g>
	<path class="st1" d="M32.1,77.2c4.1,0.1,8.8,0.6,9.3-4.5c0.6-6.2,0.1-12.7,0.2-18.9c0-3,1.7-10-2-11.4c-2.1-0.8-5.6-0.4-7.9-0.7
		c-2.2-0.3-4.4-0.3-6.7-0.2c-4,0.1-5.9,0.3-5.9,4.6c0,6-0.5,12.1-0.5,18.1c-0.2,2.8-0.7,8.4,0.9,10.8C21.7,78.6,28.8,77.1,32.1,77.2
		z M24.4,44.5c3.1-0.3,6.2,0.2,9.3,0.5c1.3,0.1,4.1-0.4,4.9,0.7c0.7,0.9,0,5.6,0,6.7c0,3.6-0.1,7.3-0.1,10.9c0,2.2,0,4.5-0.1,6.7
		c0,3.7-1.2,4.3-4.9,4.3c-2.3,0-7,0.8-9.8-0.2c0.8-0.6,1.5-1.3,2.1-2.1c0.9-1.1-0.7-2.7-1.6-1.6c-0.7,0.8-1.5,1.6-2.3,2.3
		c0,0-0.1-0.1-0.1-0.1c-0.4-0.9-0.5-2.2-0.5-3.6c1.2-1.1,2.5-2.2,3.7-3.2c1.1-0.9-0.5-2.5-1.6-1.6c-0.7,0.6-1.4,1.2-2.1,1.8
		c0-0.6,0.1-1.2,0.1-1.7c0-0.7,0-1.3,0-2c1.5-1.4,3-2.8,4.7-4.1c1.1-0.9-0.5-2.5-1.6-1.6c-1,0.8-2,1.6-3,2.5c0-0.8,0.1-1.7,0.1-2.5
		c1.4-1.1,2.7-2.2,4.1-3.4c1.1-0.9-0.5-2.5-1.6-1.6c-0.8,0.6-1.6,1.3-2.3,1.9c0-0.5,0.1-1,0.1-1.5c0-0.4,0-0.8,0-1.2
		c1.2-0.9,2.4-1.8,3.6-2.6c1.2-0.9,0-2.8-1.1-1.9c-0.8,0.6-1.7,1.2-2.5,1.8c0-0.4,0-0.8,0-1.1C22.2,44.8,22.2,44.7,24.4,44.5z"/>
	<path class="st1" d="M50.4,74.3c1.5,3.4,6.1,2.6,9.1,2.5c3.1-0.1,9.5,1.1,12.1-0.9c2.6-2,1.2-9.1,1.2-11.9c0-6.7,0.1-13.4,0.1-20.1
		c0-3.3,0-6.5,0-9.8c0-1.5,0.5-4.2-0.4-5.6c-1.6-2.4-7.5-1.6-10-1.9c-2.6-0.3-8.8-1.2-11.1,0.5c-2.4,1.8-1.1,8.4-1.1,11
		c-0.2,7-0.6,14-0.5,21c-0.2,2.9-0.1,5.7,0.1,8.6C50,69.8,49.6,72.5,50.4,74.3z M53.3,30.2c1.4-2.1,9.2-0.5,11.2-0.2
		c2.2,0.3,4.6-0.5,5.5,1.5c0.8,1.8,0,6,0,7.8c0,5.9-0.1,11.8-0.1,17.7c0,2.9,0,5.8,0,8.6c0,1.5,0.8,6.2-0.1,7.5
		c-0.9,1.3-8.1,1.2-12,1c1.1-0.8,2.2-1.6,3.3-2.4c1.2-0.8,0-2.8-1.1-1.9c-1.8,1.3-3.6,2.6-5.3,3.9c-0.8-0.4-1.2-1-1.4-1.7
		c2.2-1.6,4.3-3.3,6.4-5.1c1.1-0.9-0.5-2.5-1.6-1.6c-1.6,1.4-3.2,2.7-4.9,4c0-0.4,0-0.9,0-1.3c0-0.5,0-0.9-0.1-1.4
		c2-2.2,4.2-4.2,6.6-5.9c1.2-0.8,0-2.8-1.1-1.9c-2,1.4-3.9,3-5.6,4.7c0-0.8,0-1.6,0-2.4c1.7-1.9,3.6-3.6,5.6-5.2
		c1.1-0.9-0.5-2.5-1.6-1.6c-1.4,1.1-2.7,2.3-4,3.5c0-1.2,0-2.4,0-3.6c1.6-1.7,3.4-3.1,5.3-4.4c1.2-0.8,0.1-2.7-1.1-1.9
		c-1.4,0.9-2.8,2-4.1,3.2c0-0.9,0.1-1.9,0.1-2.8c1.6-1.7,3.4-3.3,5.4-4.6c1.2-0.8,0.1-2.8-1.1-1.9c-1.5,1-2.8,2.1-4.1,3.3
		c0-0.5,0-0.9,0.1-1.4c0-0.5,0-1,0-1.5c1.4-1.7,3.1-3.3,4.9-4.6c1.2-0.8,0.1-2.8-1.1-1.9c-1.3,0.9-2.5,2-3.7,3.1c0-0.7,0-1.4,0-2.2
		c1.3-1.3,2.7-2.6,4.3-3.6c1.2-0.8,0.1-2.8-1.1-1.9c-1.1,0.8-2.2,1.6-3.2,2.6C53.1,32.2,53,30.7,53.3,30.2z"/>
	<path class="st1" d="M82.2,71.7c0.2,2.4,0.5,3.9,2.9,4.8c2.4,0.9,5.5,0.6,8,0.7c3.1,0.1,6.6,0.3,9.4-1c3.8-1.7,2.3-8.1,2.3-11.7
		c0-7.4,0.1-14.7,0.1-22.1C105,35,105,27.5,105,20c0-3.2,1.6-11-2-12.4c-2.6-1-6.5-0.6-9.3-0.8C91.1,6.5,87.5,6.3,85,7
		c-4,1.1-2.4,6.8-2.4,10.1c-0.1,14.1-0.8,28.1-0.6,42.2C81.6,63.4,81.9,67.6,82.2,71.7z M85.4,11.3C86,9,90.3,9.6,92.5,9.7
		c1.9,0.1,6.7,0,8.3,0.7c1.8,0.8,1.3,2.4,1.3,4.5c0,5.1-0.1,10.2-0.1,15.4c-0.1,11.9-0.1,23.8-0.2,35.7c0,1.6,0.7,5.2,0,6.7
		c-1.1,2.4-6.6,1.6-8.7,1.5c-1.2,0-2.7,0.1-4,0c0.5-0.4,0.9-0.8,1.3-1.3c1-1.1-0.6-2.7-1.6-1.6c-0.7,0.8-1.5,1.5-2.4,2.2
		c-0.2-0.1-0.4-0.3-0.6-0.5c1.1-1.2,2.2-2.3,3.3-3.4c1.1-1-0.5-2.6-1.6-1.6c-0.9,0.8-1.7,1.7-2.6,2.6c-0.1-0.7-0.2-1.4-0.2-2.1
		c1.3-1.1,2.6-2.2,3.9-3.2c1.1-0.9-0.5-2.5-1.6-1.6c-0.8,0.7-1.6,1.3-2.5,2c0-0.5,0-0.9,0-1.4c2-1.5,4-3,5.9-4.6
		c1.1-0.9-0.5-2.5-1.6-1.6c-1.4,1.1-2.8,2.2-4.2,3.3c0-0.7,0.1-1.4,0.1-2.1c0-0.4,0-0.7,0-1.1c1.5-1.4,3.1-2.6,4.8-3.8
		c1.2-0.8,0.1-2.8-1.1-1.9c-1.3,0.9-2.5,1.8-3.7,2.8c0-0.8,0-1.6,0-2.4c1.4-1,2.7-2.1,4.1-3.2c1.1-0.9-0.5-2.5-1.6-1.6
		c-0.8,0.7-1.6,1.3-2.5,1.9c0-0.9,0-1.8,0-2.7c1.5-1.4,3.1-2.7,4.7-3.9c1.2-0.8,0.1-2.8-1.1-1.9c-1.2,0.9-2.4,1.8-3.6,2.8
		c0-1.3,0.1-2.6,0.1-4c1.1-1,2.2-2,3.4-2.8c0.5-0.4,0.7-1,0.4-1.5c-0.3-0.5-1.1-0.8-1.5-0.4c-0.7,0.5-1.5,1.1-2.2,1.7
		c0-0.6,0-1.2,0-1.9c1.7-1.3,3.5-2.5,5.3-3.5c1.3-0.7,0.1-2.7-1.1-1.9c-1.4,0.8-2.8,1.7-4.1,2.7c0-0.9,0-1.8,0.1-2.7
		c0-0.1,0-0.2,0-0.3c1.3-1.1,2.6-2.3,3.8-3.4c1.1-1-0.5-2.6-1.6-1.6c-0.7,0.7-1.5,1.3-2.2,2c0-1.1,0-2.3,0.1-3.4c1-1,2.1-2,3.2-2.9
		c0.5-0.4,0.4-1.2,0-1.6c-0.5-0.5-1.1-0.4-1.6,0c-0.6,0.4-1.1,0.9-1.6,1.4c0-1,0-2,0-2.9c1.5-1.1,2.9-2.2,4.3-3.5
		c1.1-1-0.5-2.6-1.6-1.6c-0.9,0.8-1.8,1.5-2.7,2.3C85.4,13.3,85.2,12.2,85.4,11.3z"/>
	<path class="st1" d="M106.6,80.8c-14.8,0.6-29.6,0.6-44.4,0.3c-14-0.3-28.1-1.3-42.1-1c-1.4,0-4.7,0.6-5.8-0.1
		C13,79.2,13.1,76,13,74.7c-0.2-3.1-0.3-6.3-0.3-9.4c-0.2-6.2-0.1-12.5-0.1-18.7c0.1-12.7,0.4-25.4,0.1-38.1c0-1.9-3-1.9-3,0
		c0.3,14-0.1,27.9-0.2,41.9c0,6.6,0,13.3,0.3,19.9c0.2,4-1.2,11.1,3.7,12.6c2.5,0.8,5.6,0.2,8.2,0.1c3.6-0.1,7.2,0,10.9,0.1
		c8,0.3,15.9,0.6,23.9,0.8c16.7,0.4,33.4,0.4,50.1-0.2C108.5,83.8,108.5,80.8,106.6,80.8z"/>
</g>
<g>
	<path class="st0" d="M257-266.6c-17.4,6.4-33.7,15.3-50.6,23.1c-18,8.3-35.5,17.4-53.3,26c-1.1,0.5-0.9,2.6,0.4,2.7
		c11.7,1.6,23.1,4.2,34.6,6.8c0.2,11.7-0.1,23.4,0.1,35.1c0,1.6,2,1.9,2.8,0.8c6.1-8.7,12.2-17.4,18.7-25.8
		c9.1,5.5,18.2,10.9,26.8,17c0.8,0.5,2,0,2.2-0.9c2.7-14,5.5-27.7,9.4-41.4c4-13.8,7.7-27.6,10.8-41.6
		C259.1-265.8,258.2-267.1,257-266.6z M198.4-207.5c-0.4,0.3-0.7,0.7-0.7,1.2c-0.6,1.1-1,2.3-1.5,4.1c-1.8,7.1-3,14.4-5,21.4
		c0-9.4,0.2-18.8,0-28.2c17.8-15.7,36.2-30.9,54.8-45.7c-11.1,11-22.2,21.9-33.3,32.9c-3.4,3.4-6.9,6.7-10.3,10.1
		C200.5-210,199.3-208.9,198.4-207.5z M249.6-260.5c-20.4,16-40.5,32.6-60,49.7c-10.2-2.4-20.4-4.7-30.8-6.3
		c15.8-7.7,31.5-15.8,47.5-23.2C220.8-246.9,234.9-254.4,249.6-260.5z M193.5-180.9c1.7-6.3,2.9-12.7,4.4-19
		c0.4-1.6,0.7-3.1,1.3-4.5c2.6,1.6,5.3,3.3,8,4.9C202.5-193.4,197.9-187.2,193.5-180.9z M245.2-224c-3.7,13-6.5,26-9,39.2
		c-11.5-8-23.7-14.9-35.5-22.2c0.1-0.1,0.2-0.2,0.3-0.3c1.4-1.6,3.1-3.1,4.7-4.6c3.5-3.4,6.9-6.8,10.4-10.2
		c12.9-12.7,25.9-25.5,38.8-38.2C252-248.1,248.7-236,245.2-224z"/>
	<path class="st0" d="M179.4-217.8c3.6-2,7.2-4,10.8-6c1.3-0.7,0.1-2.6-1.1-1.9c-3.6,2-7.2,4-10.8,6
		C177-219.1,178.1-217.1,179.4-217.8z"/>
	<path class="st0" d="M189.6-220.9c-1.7,0.9-3.4,1.8-5.1,2.6c-1.3,0.7-0.1,2.6,1.1,1.9c1.7-0.9,3.4-1.8,5.1-2.6
		C192-219.6,190.9-221.6,189.6-220.9z"/>
</g>
<g>
	<path class="st0" d="M257.1-337.5c-0.1-0.1-0.1-0.2-0.2-0.3c-2.4-2.5-5.4-5.2-8.4-7c-0.5-0.3-1-0.2-1.5,0c-0.3,0.2-0.7,0.4-1,0.6
		c-1.3-1.3-2.5-2.9-4.4-2.5c-0.4,0.1-0.9,0.3-1.3,0.6c-2.9-4.2-4.1-8.6-5.6-13.4c-1.4-4.4-3.9-8.1-7-11.4c-2.3-2.4-5.3-6.5-8.9-7
		c-2.4-0.3-4.5,0.9-5.7,2.8c-3.5-2.1-7.8-1.1-9.4,2.6c-3.1-1.3-6.6-0.2-8.4,2.7c-6.2-6-11.4-13.4-18.3-18.5
		c-4.9-3.6-12.5-0.3-9.5,6.2c2,4.4,6.7,7.7,10,11.1c2.4,2.4,4.7,4.8,7,7.3c1.8,1.9,3.6,3.8,5.5,5.7c-2.9,8.2,0.1,16.2,8.4,19.8
		c4.2,1.8,8.7,2.5,13.2,3.3c4.1,0.8,7.2,3.5,10.2,6.4c-0.3,0.4-0.5,0.8-0.6,1.1c-0.5,1.9,1.5,3.8,2.9,5.2c-0.1,0.2-0.3,0.3-0.4,0.5
		c-0.5,0.6-0.6,1.5,0,2.1c2.8,2.9,5.5,5.9,8.3,8.8c0.5,0.5,1.2,0.5,1.8,0.2c3-1.4,5.4-4.5,7.7-6.9c2.8-2.9,5.5-5.8,8.4-8.5
		C252.1-328,259.8-333.6,257.1-337.5z M223.9-330.7c-4.1-3.9-7.8-6.4-13.5-7.4c-9.7-1.6-21.5-6-18-17.6c1.7,1.6,3.3,3.3,5,4.9
		c1.4,1.4,3.5-0.8,2.1-2.1c-6.5-6.4-12.8-13.1-19.2-19.6c-2.8-2.8-7.2-5.9-9.1-9.4c-1.2-2.2-1.5-4.4,1.5-4.6
		c1.9-0.1,2.4,0.4,3.8,1.6c1.1,1,2.1,2.1,3.2,3.1c5.2,5.2,9.9,10.8,15.4,15.7c0.8,0.7,2.2,0.5,2.5-0.7c0.7-3,2.8-3.8,6.2-2.4
		c1.1,0.9,2.4,0.3,2.6-1.1c0.7-3.2,2.9-3.6,6.5-1.4c0.8,0.8,2.2,0.4,2.5-0.7c1.7-6.6,9.1,2,10.7,3.8c2.5,2.7,4.6,5.8,5.8,9.3
		c1.9,5.4,3,10.3,6.4,15c-0.2,0.1-0.3,0.3-0.4,0.4c-2.2,1.8-4.3,3.6-6.3,5.6c-1.8,1.8-3.5,3.6-5.2,5.4
		C225.5-332.2,224.7-331.5,223.9-330.7z M224.5-326.5c0-0.6,1.4-1.7,2.1-2.5c2.2-2.4,4.5-4.8,6.8-7.1c2.5-2.4,5.1-4.7,7.9-6.9
		c1.5-1.1,1.4-0.7,2.4,0.5c-2.3,2.2-4.3,5-6.4,7c-3.8,3.7-7.6,7-11.1,10.9C225.6-325.2,224.5-326.3,224.5-326.5z M233.3-313.8
		c-2.2-2.3-4.3-4.6-6.5-6.9c4.9-5.7,10.7-10.4,15.8-15.9c1.1-1.1,2.1-2.3,3.2-3.4c0.6-0.6,2-1.7,1.9-1.7c1.3,0.1,6,5,7,6
		C255.2-335.2,238.2-317.6,233.3-313.8z"/>
	<path class="st0" d="M231.6-323.2c-0.1,0.1-0.1,0.1-0.2,0.2c-0.1,0.1-0.1,0.2-0.1,0.2c-0.9,1.6-0.8,3.6,0.9,4.7
		c1.6,1,3.7,0.4,4.7-1.1c1-1.5,0.7-3.7-0.7-4.9C234.7-325.4,232.7-324.5,231.6-323.2z M234.9-320.3c-0.4,0.5-1,0.7-1.5,0.4
		c-0.8-0.5-0.4-1.3,0-1.9c0.4-0.5,1.1-0.9,1.5-0.2C235.2-321.6,235.3-320.8,234.9-320.3z"/>
	<path class="st0" d="M187.2-385.2c1.4-12.6-15.5-16-23.1-8.7c-8.6,8.1-4.8,25.5,8.8,24.1c1.4-0.1,1.4-2.4,0-2.3
		c-11.7,1.2-14.4-13.5-7.2-20.3c6.4-5.9,20.5-3.5,19.3,7.1C184.8-383.8,187-383.8,187.2-385.2z"/>
	<path class="st0" d="M176.6-367.9c-5.7,2.3-12.8,0.1-17-4.3c-6.2-6.6-3.9-18.1,1.8-24.3c5.5-6,14.2-7.2,21.3-3.3
		c6.4,3.5,10.9,13,7,19.8c-0.7,1.3,1.2,2.4,1.9,1.1c4.3-7.3,0.5-17.1-6.1-21.8c-7.6-5.3-18.1-4.7-24.8,1.6
		c-6.8,6.4-9.7,18.1-4.3,26.4c4.1,6.4,13.7,9.8,20.8,6.9C178.5-366.2,177.9-368.4,176.6-367.9z"/>
	<path class="st0" d="M246.9-337.2c-0.7-1.2-2.7-0.1-1.9,1.1c0.6,1.1,1.2,2.1,1.9,3.2c0.7,1.2,2.7,0.1,1.9-1.1
		C248.2-335.1,247.6-336.1,246.9-337.2z"/>
	<path class="st0" d="M250.2-337.7c-0.2-0.6-1.1-0.7-1.5-0.4c-0.6,0.3-0.7,1-0.4,1.5c0.5,1,0.9,2.1,1.4,3.1c0.2,0.6,1.1,0.7,1.5,0.4
		c0.6-0.3,0.7-1,0.4-1.5C251.1-335.6,250.7-336.6,250.2-337.7z"/>
</g>
<g>
	<path class="st0" d="M176.3-51c2.3-2.4,4.6-4.7,6.7-7.3c1-1.2,1.4-2.3,0.9-3.7c0-0.2-0.1-0.5-0.3-0.6c-0.2-0.3-0.5-0.4-0.7-0.4
		c-3.8-1.4-7,3.4-9.4,5.8c-3,3.1-7,6.5-8.2,10.7c-0.1,0.4,0,0.8,0.3,1.1C169.4-41.6,174-48.6,176.3-51z M170.2-47.9
		c-0.6,0.6-2.4,2-2.5,1.7c-0.3-1.2,2.1-3.6,2.9-4.5c1-1.1,2-2.3,3-3.4c1.2-1.2,5.9-7.3,8.3-7c-0.1,1.9-5.8,7-6.8,8
		c-1.1,1.1-2.1,2.2-3.2,3.4C171.3-49.1,170.8-48.4,170.2-47.9z"/>
	<path class="st0" d="M181.3-52.5c-2.4,2.5-4.7,5-7,7.5c-1.8,1.9-2.9,3-2.5,5.6c0,0,0,0,0,0c0,0,0,0.1,0,0.1
		c0.1,0.4,0.3,0.6,0.5,0.7c3.2,2.8,8.8-4.6,10.6-6.5c1.9-2,9-7.9,7.2-11.3C187.8-60.4,182.6-53.9,181.3-52.5z M173.9-40.3
		c0.2-2.6,5-6.4,6.6-8.1c0.9-1,6-7,6.8-6.1C188.6-53.2,176.1-40.8,173.9-40.3z"/>
	<path class="st0" d="M245.8-56.3c-9.3-9.3-19.3-17.9-29.3-26.5c5.9-5.8,11.7-11.6,17.5-17.6c1.3-1.3,2.6-2.9,4-4.1
		c2-1.8,3.1-1.5,5.5-2c0.8-0.2,1.5-0.2,2.2-0.6c2.7-1.8,4.6-7.1,6-9.9c1.4-2.7,1.2-3.3-0.9-5.6c-2.2-2.3-3.2-4-6-2.5
		c-3.3,1.7-8.4,3.8-10.9,6.6c-0.7,0.8-0.6,1-1,1.9c0,0.7,0,1.3,0,2c-0.4,1.8-1.4,3.3-2.7,4.4c-1.1,1.3-2.5,2.5-3.7,3.7
		c-5.8,5.8-11.6,11.6-17.3,17.4c-4.7-4.1-9.3-8.3-13.7-12.6c4.2-6.2,4.9-14.2,0.2-20.4c-4.9-6.5-11.5-8.4-19.1-6.8
		c-1,0.2-1.4,1.4-0.9,2.2c1.5,2.5,2.8,4.9,4.2,7.4c0.5,0.8,0.9,1.8,1.4,2.6c0.4,0.5,0.5,1,0.5,1.2c-0.5,2.4-1.9,5.1-2.9,7.4
		c-1.4-0.1-2.9-0.1-4.3-0.2c-0.9,0-2.5-0.4-3.3-0.2c0,0-0.1,0-0.1,0c-2.3-3.5-4.3-7.2-6.4-10.8c-0.5-0.9-1.6-0.9-2.4-0.3
		c-6.3,5.6-6.4,15.9-1.3,22.3c5.9,7.4,14.6,8.2,22.9,5.8c4.5,4.6,9,9.2,13.5,13.9c-0.5,0.5-1,1-1.5,1.5c-1.8-1.7-3.6-3.3-5.5-4.9
		c-0.6-0.5-1.5-0.6-2.1,0c-1.3,1.2-2.8,2.7-3.6,4.3c-1.2,2.3-0.1,4.7-0.9,7.2c-0.3,0.9-6,1-7.3,1.6c-2.2,1-4.2,3.1-5.9,4.7
		c-2.5,2.3-4.8,4.8-6.9,7.4c-1.6,1.9-4.3,4.5-5.4,6.7c-1.6,3.3,2,6.2,4.1,8.5c2.8,3.2,6.8,8,10.6,9.9c4.1,2,7-2.8,9.6-5.4
		c3.9-3.9,8.1-7.8,11.4-12.3c1-1.4,1.6-2.4,1.8-4.1c0.3-3.2-1.1-4.5,3.1-5.1c3.7-0.5,5.9-2,8.5-4.9c0.6-0.6,0.6-1.5,0-2.1
		c-1.5-1.6-3.1-3.2-4.6-4.8c0.5-0.4,0.9-0.9,1.4-1.3c5.6,5.8,11.3,11.6,16.9,17.4c3,3.1,6.1,6.3,9.2,9.4c3.1,3.1,6.1,7,10.2,8.7
		c5.8,2.4,11.5-0.9,13.1-6.8C255.1-47.9,249.5-52.5,245.8-56.3z M225-101.7c3-3,8.7-6.8,10.1-10.9c0.3-1.1-0.1-3.3,0.1-3.8
		c0.6-1.1,3.4-2.3,4.4-2.9c1.6-1,3.2-1.9,4.8-2.8c2.1-1.2,2.1-1.6,3.9,0.2c1.4,1.4,2.2,1.8,1.8,3.6c-0.4,1.5-1.8,3.3-2.6,4.7
		c-0.7,1.3-1.5,3.3-2.7,4.3c-1.3,1.1-3,0.9-4.5,1.2c-4.4,0.9-7.5,6-10.5,9.1c-4.9,5-9.9,10-14.9,14.9c-1.3-1.1-2.6-2.3-3.9-3.4
		C215.6-92.3,220.3-97,225-101.7z M171-108.3C170.4-108.2,170.7-108.4,171-108.3L171-108.3z M202.6-61.9c-2.4,1.7-3.9,0.9-6.6,1.4
		c-2.6,0.4-3.4,1.8-3.4,4.3c0,2.1,0.5,3.7-0.6,5.7c-1.1,2-3.1,3.7-4.6,5.4c-1.9,2-3.8,3.9-5.7,5.9c-1.2,1.2-2.5,2.5-3.7,3.7
		c-1.4,1.4-1.4,1.8-3.4,1.6c-3.4-0.5-7.4-5.5-9.7-8.1c-1.4-1.6-3.9-3.6-3.4-5.9c0.4-2.1,4.5-5.7,5.9-7.4c3.3-3.7,7.8-9.6,13-10.1
		c2.6-0.2,5.3-0.1,6.3-3.1c0.7-2.1,0-3.9,0.5-5.9c0.3-1.2,1.3-2.3,2.3-3.3c5.2,4.5,10.1,9.4,14.8,14.4
		C203.8-62.9,203.2-62.4,202.6-61.9z M201.2-70.9c-1.2-1.2-2.4-2.3-3.5-3.5c0.5-0.5,1-1,1.4-1.4c1.2,1.2,2.3,2.4,3.5,3.6
		C202.1-71.8,201.7-71.4,201.2-70.9z M250.1-43.5c-0.4,4-2.9,7.1-7.5,6c-3.3-0.8-5.9-3.9-8.2-6.3c-12.2-12.3-24.2-24.8-36.3-37.3
		c-4.2-4.3-8.4-8.7-12.6-13c0,0,0,0,0,0c-0.3-0.4-0.8-0.5-1.4-0.4c-6.8,2.2-13.2,2.5-19-2.7c-5.2-4.7-6.3-13.2-1.9-18.7
		c1,1.7,2.1,3.5,3.1,5.2c0.8,1.3,1.7,4,3,4.8c2.4,1.6,7.8,0.8,10.7,0.9c0.7,0,1.2-0.5,1.4-1.1c1-2.6,3.7-7,3.6-9.8
		c-0.1-1.3-1.4-2.8-2-3.9c-1.2-2.2-2.4-4.3-3.7-6.5c5.2-0.6,9.7,0.9,13.4,5.3c4.8,5.6,3.8,13.1-0.5,18.8c-0.4,0.5-0.2,1.4,0.2,1.8
		c12.9,12.6,26.6,24.2,40.1,36.1c5.4,4.8,11,9.5,15.6,15.1C250-47.1,250.4-46.7,250.1-43.5z"/>
	<path class="st0" d="M245.1-49c-2-1.5-4.5-0.4-6,1.3c-0.1,0.1-0.2,0.2-0.2,0.3c-0.1,0.2-0.2,0.3-0.2,0.5c-0.8,2-0.3,4.5,1.7,5.7
		c2.2,1.3,4.9,0.3,6.4-1.6C248.5-45,247.1-47.6,245.1-49z M244.7-43.8c-0.8,0.7-2,1.2-3,0.7c-1.2-0.6-1.4-2.1-0.8-3.2
		c0.8-1.1,2.1-1.7,3.2-0.8C245.1-46.2,245.9-44.9,244.7-43.8z"/>
</g>
<g>
	<path class="st0" d="M241.5,54.3c2.7-5.4,0.9-12.7-4.5-16.1c-5.2-3.3-10.9-2.1-14.9,1.6c-0.8-16.7-22.5-25.4-37.4-20.5
		c-16.9,5.6-21.3,24.2-13.4,38.3c-8.5-2.1-17.2,4.5-15.8,14.6c1.8,13.1,15.4,13.8,26,13.5c1.9-0.1,1.9-3.1,0-3
		c-7.1,0.2-16.4,1-21-5.6c-2.4-3.4-3-8.5-1.1-12.2c3-5.6,10.5-6.2,15.2-2.5c1.5,1.2,3.4-0.6,2.1-2.1c-10.6-12.6-7.9-32.6,8.7-38.1
		c14.1-4.7,37.2,4.3,33.2,22.5c-0.3,1.6,2,2.8,2.7,1.2c2.3-4.7,6.9-8.1,12.3-5.9c6.1,2.5,8.2,11,3,15.6c-1.1,1,0.1,3.1,1.5,2.5
		c12.3-4.8,19.9,13.6,9.7,20.7c-5.2,3.6-12.5,4.2-18.6,4.1c-1.9,0-1.9,3,0,3c9.4,0.2,22.6-1.7,25.9-12.1
		C258.2,64.5,250.9,53.8,241.5,54.3z"/>
	<path class="st0" d="M195.9,66.6c-0.4-0.4-1.2-0.4-1.6,0c-2.9,3.5-5.8,6.8-8.6,10.4c-0.5,0.7,0.2,1.7,1,1.7c0.9,0,1.9,0,2.8,0
		c0.1,5.8-0.1,11.6,0,17.4c0,0.4,0.2,0.7,0.5,0.9c0.2,0.1,0.4,0.2,0.6,0.2c3.1,0.1,6.2,0.2,9.3,0c0.6,0,1.1-0.5,1.1-1.1
		c-0.1-5.8,0-11.6,0-17.4c0.8,0,1.6,0,2.4,0c0.8,0,1.5-1,1-1.7C201.7,73.4,198.8,70,195.9,66.6z M191.8,95c-0.1-5.8,0.1-11.6,0-17.4
		c0-0.6-0.5-1.1-1.1-1.1c-0.5,0-1.1,0-1.6,0c2-2.5,4-4.9,6.1-7.4c2,2.4,4.1,4.9,6.1,7.4c-0.4,0-0.8,0-1.3,0c-0.6,0-1.1,0.5-1.1,1.1
		c0,5.8-0.1,11.6,0,17.5C196.5,95.1,194.1,95.1,191.8,95z"/>
	<path class="st0" d="M224.7,90.2c-0.8,0-1.6,0-2.4,0c0-5.8-0.1-11.6,0-17.4c0-0.6-0.5-1.1-1.1-1.1c-3.1-0.2-6.2-0.1-9.3,0
		c-0.2,0-0.4,0.1-0.6,0.2c-0.3,0.2-0.5,0.5-0.5,0.9c-0.1,5.8,0.1,11.6,0,17.4c-0.9,0-1.9,0-2.8,0c-0.8,0-1.5,1-1,1.7
		c2.7,3.6,5.7,6.9,8.6,10.4c0.4,0.4,1.2,0.4,1.6,0c2.9-3.3,5.5-6.9,8.4-10.2C226.1,91.3,225.7,90.2,224.7,90.2z M210.2,92.4
		c0.5,0,1.1,0,1.6,0c0.6,0,1.1-0.5,1.1-1.1c0.1-5.8-0.1-11.6,0-17.4c2.3-0.1,4.7-0.1,7,0c-0.1,5.8,0,11.6,0,17.5
		c0,0.6,0.5,1.1,1.1,1.1c0.4,0,0.8,0,1.2,0c-2,2.4-4,4.9-6,7.4C214.3,97.3,212.2,94.9,210.2,92.4z"/>
	<path class="st0" d="M189.5,29.2c1.4-0.2,1.4-2.4,0-2.3c-8.2,0.9-15.1,10-13.2,18.1c0.3,1.4,2.5,0.8,2.2-0.6
		C177,37.9,182.8,29.9,189.5,29.2z"/>
	<path class="st0" d="M189.7,31.6c-2.2,0.4-4.1,1.4-5.8,2.8c-1.1,1,0.5,2.6,1.6,1.6c1.4-1.2,3-2,4.8-2.3
		C191.7,33.5,191.1,31.4,189.7,31.6z"/>
</g>
<g>
	<g>
		<path class="st0" d="M-160.3,182.4c-6.1-4.7-15.9-2.7-21.9,1c-1.9,1.2-0.1,4.2,1.8,3c0.9-0.6,1.8-1,2.6-1.4
			c0.8,16.9,1.5,33.8,2.2,50.7c-1.5-0.2-3-0.5-4.4-1c-2.1-0.8-3,2.6-0.9,3.4c6.4,2.3,18.4,2.7,24.3-1.3c8.6-5.7,7.5-19.2,6.4-27.9
			C-151.2,201.3-153.6,187.7-160.3,182.4z M-166.3,235.8c-1.9,0.2-3.8,0.3-5.8,0.2c-0.8-17.4-1.5-34.8-2.3-52.3
			c14.8-3.7,20.6,18.3,21.3,31C-152.6,224.4-154.9,234.8-166.3,235.8z"/>
		<path class="st0" d="M-136.4,216.9c-5.5,0.5-10.4,4.7-10.4,10.5c0,6.7,6.3,12.1,12.8,12c6-0.2,11.2-5.2,10.6-11.4
			C-124.2,221.7-130.3,216.7-136.4,216.9z M-133.7,235.8c-10.1,0.9-13.6-14.5-2.7-15.5C-127,220.2-122.8,234.9-133.7,235.8z"/>
		<path class="st0" d="M-110.4,217.5c-5.5,0.5-10.4,4.7-10.4,10.5c0,6.7,6.3,12.1,12.8,12c6-0.2,11.2-5.2,10.6-11.4
			C-98.1,222.4-104.3,217.4-110.4,217.5z M-107.7,236.5c-10.1,0.9-13.6-14.5-2.7-15.5C-101,220.8-96.8,235.5-107.7,236.5z"/>
		<path class="st0" d="M27.8,216.5c-5.7,0.5-10.7,4.9-10.8,10.9c-0.1,6.9,6.5,12.5,13.2,12.4c6.2-0.2,11.5-5.4,10.9-11.7
			C40.5,221.5,34.2,216.4,27.8,216.5z M30.7,236.2c-10.6,0.9-14.2-15.2-2.8-16.2c4.1-0.1,8.3,2.8,9.6,6.8
			C38.8,231.5,35.4,235.8,30.7,236.2z"/>
		<path class="st0" d="M-74.5,175.9c0.1-2.2-3.4-2.2-3.5,0c-0.8,13.6-1.2,27.3-0.1,40.9c-6.8-1.7-14.8,0.2-16.8,7.8
			c-1.6,6.2,0.9,14.2,8,14.9c4.9,0.5,11.4-3.1,13-7.9c2.2-6.5-1.1-17.1-1.3-24C-75.5,197.1-75.1,186.5-74.5,175.9z M-81.9,235
			c-13,5.9-12.8-21,4.1-14.5c0,0.2,0,0.4,0,0.5C-77.2,226.7-75.8,232.2-81.9,235z"/>
		<path class="st0" d="M-68.6,175.6c0.1,25.1,0.8,40.4,1.2,62.1c0,2.2,3.5,2,3.5-0.3c-0.3-21.7-1.1-36.7-1.2-61.8
			c0,0-0.1-1.3-1.9-1.4C-68.6,174.2-68.6,175.6-68.6,175.6z"/>
		<path class="st0" d="M-40.7,233.2c-2,3.9-8.2,3.9-11.3,1.4c-1.8-1.4-3.1-3.8-3.7-6.3c4.9,1,12.3,2.1,13.3-3.4
			c1.4-7.4-7.9-10.3-13.2-6.9c-6.2,4.1-4.3,14.1,0.4,18.6c4.6,4.4,14.2,4.6,17.4-1.6C-36.7,233-39.7,231.2-40.7,233.2z M-48.8,220.2
			c3.7,1.2,3.6,5.3-0.3,5.4c-2.2,0-4.5-0.4-6.7-0.8c0.1-0.3,0-0.7,0.1-1C-54.8,221-51.5,219.3-48.8,220.2z"/>
		<path class="st0" d="M-14.6,217.9c0.3,6.6,0.2,13.3,0.5,19.9c0.1,2.2,3.6,2.2,3.5,0c-0.3-6.6-0.2-13.3-0.5-19.9
			C-11.2,215.6-14.7,215.6-14.6,217.9z"/>
		<path class="st0" d="M-12,204.7c-0.1,0-0.2,0-0.3,0c-0.1,0-0.1-0.1-0.2-0.1c-5.6-0.6-8,7.7-2.2,9.3C-8.3,215.5-5.2,206.6-12,204.7
			z M-14.5,210c-0.6-1.2,0.8-1.8,1.8-1.9C-10,209.1-13.5,211.8-14.5,210z"/>
		<path class="st0" d="M11.4,232.3c-2.7,5.1-10.5,6.5-12.2-0.1c-0.5-2.1-0.6-4.7,0-6.8c1-3.3,6.2-6.8,8.9-2.9c1,1.5,3,0.8,3.2-0.9
			c0.1-1.2,0.3-2.5,0.4-3.7c0.3-2.2-3.2-2.2-3.5,0c0,0.2,0,0.3-0.1,0.5c-2.5-1.3-5.6-1.2-8.2,0.4c-4.3,2.7-5.2,8-4.6,12.7
			c1.5,10.4,14.2,11.7,18.9,2.7C15.4,232.1,12.4,230.3,11.4,232.3z"/>
		<path class="st0" d="M61,222.7c-0.4-3.1-2-6-5.5-5.9c-3.2,0.1-5.2,1.7-6.5,3.9c0-1-0.1-1.9-0.1-2.9c0-2.2-3.5-2.2-3.5,0
			c0.1,6.9,0.4,13.8,1.8,20.6c0.4,1.9,3.6,1.5,3.4-0.5c-0.2-2.9-0.5-5.8-0.4-8.6c0.1-1.5,0.1-3,0.6-4.5c0.6-1.7,3.9-7.1,6.5-3
			c1.1,1.6,0.4,6,0.6,7.9c0.2,2.9,0.6,5.9,0.9,8.8c0.3,2.2,3.7,2.2,3.5,0C61.7,233.3,61.7,227.9,61,222.7z"/>
	</g>
	<path class="st2" d="M-66.1,251.4h-10c-1.4,0-2.5,1.1-2.5,2.5c0,1.4,1.1,2.5,2.5,2.5h10c1.4,0,2.5-1.1,2.5-2.5
		C-63.6,252.5-64.7,251.4-66.1,251.4z"/>
	<path class="st2" d="M-130.2,251.4h-10c-1.4,0-2.5,1.1-2.5,2.5c0,1.4,1.1,2.5,2.5,2.5h10c1.4,0,2.5-1.1,2.5-2.5
		C-127.8,252.5-128.9,251.4-130.2,251.4z"/>
	<path class="st2" d="M-87.5,251.4h-10c-1.4,0-2.5,1.1-2.5,2.5c0,1.4,1.1,2.5,2.5,2.5h10c1.4,0,2.5-1.1,2.5-2.5
		C-85,252.5-86.1,251.4-87.5,251.4z"/>
	<path class="st2" d="M-108.9,251.4h-10c-1.4,0-2.5,1.1-2.5,2.5c0,1.4,1.1,2.5,2.5,2.5h10c1.4,0,2.5-1.1,2.5-2.5
		C-106.4,252.5-107.5,251.4-108.9,251.4z"/>
	<path class="st2" d="M-151.6,251.4h-10c-1.4,0-2.5,1.1-2.5,2.5c0,1.4,1.1,2.5,2.5,2.5h10c1.4,0,2.5-1.1,2.5-2.5
		C-149.2,252.5-150.3,251.4-151.6,251.4z"/>
	<path class="st2" d="M-173,251.4h-10c-1.4,0-2.5,1.1-2.5,2.5c0,1.4,1.1,2.5,2.5,2.5h10c1.4,0,2.5-1.1,2.5-2.5
		C-170.6,252.5-171.7,251.4-173,251.4z"/>
	<path class="st2" d="M-1.9,251.4h-10c-1.4,0-2.5,1.1-2.5,2.5c0,1.4,1.1,2.5,2.5,2.5h10c1.4,0,2.5-1.1,2.5-2.5
		C0.6,252.5-0.5,251.4-1.9,251.4z"/>
	<path class="st2" d="M-44.7,251.4h-10c-1.4,0-2.5,1.1-2.5,2.5c0,1.4,1.1,2.5,2.5,2.5h10c1.4,0,2.5-1.1,2.5-2.5
		C-42.2,252.5-43.3,251.4-44.7,251.4z"/>
	<path class="st2" d="M40.9,251.4h-10c-1.4,0-2.5,1.1-2.5,2.5c0,1.4,1.1,2.5,2.5,2.5h10c1.4,0,2.5-1.1,2.5-2.5
		C43.4,252.5,42.3,251.4,40.9,251.4z"/>
	<path class="st2" d="M19.5,251.4h-10c-1.4,0-2.5,1.1-2.5,2.5c0,1.4,1.1,2.5,2.5,2.5h10c1.4,0,2.5-1.1,2.5-2.5
		C22,252.5,20.9,251.4,19.5,251.4z"/>
	<path class="st2" d="M62.3,251.4h-10c-1.4,0-2.5,1.1-2.5,2.5c0,1.4,1.1,2.5,2.5,2.5h10c1.4,0,2.5-1.1,2.5-2.5
		C64.8,252.5,63.7,251.4,62.3,251.4z"/>
	<path class="st2" d="M-23.3,251.4h-10c-1.4,0-2.5,1.1-2.5,2.5c0,1.4,1.1,2.5,2.5,2.5h10c1.4,0,2.5-1.1,2.5-2.5
		C-20.8,252.5-21.9,251.4-23.3,251.4z"/>
	<g>
		<path class="st2" d="M71.3,215.2c1.2-1.8,2.4-3.6,3.9-5.2c1.8-2.1-1.2-5.2-3.1-3.1c-1.7,1.9-3.2,4-4.5,6.1
			C66.1,215.4,69.8,217.6,71.3,215.2L71.3,215.2z"/>
	</g>
	<g>
		<path class="st2" d="M78.5,216c1.5-2.1,3.2-3.9,5.1-5.6c2.1-1.8-0.9-4.9-3.1-3.1c-2.3,1.9-4.1,4-5.8,6.4
			C73.2,216.1,76.9,218.3,78.5,216L78.5,216z"/>
	</g>
</g>
</svg>
