<?xml version="1.0" encoding="utf-8"?>
<!-- Generator: Adobe Illustrator 22.1.0, SVG Export Plug-In . SVG Version: 6.00 Build 0)  -->
<svg version="1.1" id="Layer_1" xmlns="http://www.w3.org/2000/svg" xmlns:xlink="http://www.w3.org/1999/xlink" x="0px" y="0px"
	 viewBox="0 0 120.8 103.1" style="enable-background:new 0 0 120.8 103.1;" xml:space="preserve">
<style type="text/css">
	.st0{fill:#4D4D4D;}
	.st1{fill:#FFFFFF;}
	.st2{fill:#95BAA8;}
</style>
<g>
	<path class="st0" d="M-340.7,32.7c-9.5,0.8-17.1,8.6-16.7,18.3c0.5,10,8.9,17.5,18.7,17.6C-314.1,68.9-316.7,29.8-340.7,32.7z
		 M-338.6,65.6c-8.2,0-15.2-6.4-15.7-14.6c-0.5-8,5.8-14.7,13.7-15.3C-320.6,33.2-317.9,65.6-338.6,65.6z"/>
	<path class="st0" d="M-287.5,51.5c-0.1-2.5,0.8-7.6-1.5-9.5c-2.2-1.8-7.3-1.4-10.6-1.5c-0.8-2.5-1.3-5.2-2.3-7.6
		c-0.4-1-2-2.9-1.7-3.8c0.4-1.3,4.8-3.3,5.8-4.8c0.8-1.2,1.3-2.3,0.9-3.7c-0.6-2.4-3.5-4.2-5.2-5.8c-1.7-1.6-3.8-4.5-6-5.4
		c-3.5-1.4-7,3.4-9.4,6.1c-2.8-1.7-5.7-2.6-8.7-4c-2.1-1-2.5-1-3-3.2c-0.4-1.7,0.3-3.7-0.1-5.5c-1.2-5.3-6.8-3.7-11-3.4
		c-4.3,0.3-9.1-0.5-9.3,4.9c-0.1,1.7,0.8,3.9,0.2,5.6c-0.5,1.4-0.9,1.1-2.8,1.8c-3,1.1-5.7,2.4-8.4,4.1c-2.1-2.5-4.4-6-7.9-5.9
		c-3.7,0.2-7.3,4.9-9.6,7.3c-4.8,4.9,0.2,8.3,3.9,12.1c-2.6,3.5-4.4,7.3-5.5,11.6c-3.3-0.6-7.9-1.1-10.2,1.2
		c-2.4,2.4-1.3,8.5-1,11.4c0.2,2.5,0.1,5.8,2.5,7.2c2.4,1.4,6.4,0.7,9.3,0.3c0.7,2.6,1.5,5.2,2.6,7.7c0.3,0.6,1.4,2.2,1.3,2.7
		c0,0.2-0.7,0.6-0.9,1.1c-1.4,2.4-6.3,4.7-5.1,8.3c1.1,3.4,8.2,9.4,11.6,10.8c3.8,1.4,6.9-2.6,9.4-5.2c3.5,2.5,7.3,4.1,11.7,4.7
		c-0.2,3.3-1.5,7.9,0.6,10.3c1.5,1.8,5.1,1.4,7.1,1.4c2.6,0.1,6,0.4,8.5-0.6c1.8-0.7,2.7-1.8,3.1-3.6c0.4-2-1.3-5.5-0.5-7.1
		c0.7-1.3,5.1-2.1,6.7-3c2.7-1.4,4.9-4.1,7.7-1.5c3,2.6,4.3,7.2,8.5,4.7c3.1-1.9,6.6-5.5,8.4-8.6c2.1-3.5,0.6-4.8-2.2-7.3
		c-2.8-2.5-3.8-2.3-2.2-6.1c1.3-3.1,2.3-6.2,3.3-9.4c3.2,0.2,7.9,0.9,10.4-0.7C-286.4,58.3-287.4,54-287.5,51.5z M-292.4,57.5
		c-2.2,0.7-5.8,0-8.1,0.1c-0.5,0-0.9,0.2-1.1,0.5c-0.1,0.2-0.3,0.3-0.3,0.6c-1.3,4.2-3.3,8.1-4.8,12.2c-0.7,1.8-0.4,2.8,0.7,4.3
		c1.3,1.7,4.5,2.8,5.2,4.7c0.8,2-3.2,5.6-4.5,6.8c-0.7,0.7-1.9,2.1-2.8,2.4c-1.8,0.5-2.5-0.8-3.8-2.3c-1.3-1.5-2.7-4-4.9-4.2
		c-1.6-0.2-3.3,1.1-4.6,1.8c-3.4,1.9-6.3,3.4-10.2,4.1c-0.5,0.1-1,0.6-1,1c-0.3,1.9,0.2,3.7,0.2,5.6c0,5.1-4.4,5.1-8.5,5
		c-3.6-0.1-5-0.1-4.9-3.9c0.1-2,0.3-4.1,0.2-6.2c-0.1-0.9-0.6-1.4-1.5-1.5c-4.6-0.4-8.6-2.1-12.3-4.9c-0.2-0.1-0.4-0.2-0.6-0.3
		c-0.5-0.2-1-0.1-1.5,0.3c-1.3,1.2-3.8,4.5-5.5,5c-2.9,0.9-5.6-2.5-7.4-4.3c-1.5-1.4-4.1-3.1-3.4-5.5c0.5-1.6,2.9-3.2,4.1-4.3
		c1.3-1.3,1.8-1.6,1.4-3.4c-0.5-2-1.9-4-2.6-5.9c-0.7-2-1.3-4-1.7-6c-0.1-0.6-0.8-1.2-1.4-1.1c-1.6,0.2-3.1,0.4-4.7,0.4
		c-2.8,0.1-4.4,0.4-5-2.7c-0.4-2.3-0.7-5.2-0.4-7.4c0.2-1.3,0.3-3.4,1.6-4.3c1.5-0.9,6.1,0,7.5,0.3c0.8,0.2,1.7-0.2,1.8-1
		C-376,38.2-374,34-371,30c0.4-0.5,0.2-1.4-0.2-1.8c-2.2-2.5-7.1-5.3-4.7-8.8c0.9-1.3,3.6-4.2,5.1-4.8c4.5-2.1,6.2,1,8.7,3.9
		c0.3,0.8,1.2,1.3,2,0.7c3.3-2.3,6.8-3.6,10.4-5c0.8-0.3,1.9-0.6,2.5-1.3c0.9-0.9,0.9-2.5,1-3.7c0.1-1.3-0.6-2.8-0.3-4
		c0.6-2.5,3.2-2.4,5.4-2.6c1.4-0.1,3.1-0.3,4.6-0.4c1.8-0.1,2.7,0.1,3.7,0.7c1.3,0.7,0.7,2.1,0.8,3.8c0.2,1.8-0.7,3.6,0.3,5.4
		c0.8,1.3,1.7,1.5,3.1,2c3.7,1.3,7.1,2.4,10.4,4.6c0.1,0.1,0.2,0.1,0.4,0.2c0.5,0.3,1.1,0.3,1.7-0.3c1.6-1.6,3.5-4.4,5.4-5.4
		c2.5-1.2,3.8,1.3,5.8,3.2c2.1,1.9,5.7,4,3.7,7.2c-1,1.5-3.3,2.1-4.6,3.5c-1.2,1.3-1.3,2.1-0.7,3.7c0.6,1.6,1.6,2.9,2.2,4.6
		c0.8,2.3,1.4,4.8,2.2,7.1c0.2,0.7,0.8,1,1.4,1.1c2.3,0.2,5.2-0.1,7.5,0.6c3.6,1,2.6,4.4,2.7,7.5C-290.4,54.1-289.7,56.6-292.4,57.5
		z"/>
	<path class="st0" d="M-346.2,25.2c1.8-0.6,3.6-0.9,5.6-0.9c1.9,0,1.9-3,0-3c-2.2,0-4.3,0.3-6.4,1C-348.8,22.9-348,25.8-346.2,25.2z
		"/>
	<path class="st0" d="M-329.5,26c1.6,0.4,3,1.1,4.2,2.2c1.5,1.3,3.6-0.9,2.1-2.1c-1.6-1.4-3.5-2.4-5.6-3
		C-330.6,22.7-331.4,25.6-329.5,26z"/>
	<path class="st0" d="M-311.8,39.8c-0.7-1.9-1.6-3.6-2.8-5.2c-0.5-0.6-1.3-1-2.1-0.5c-0.6,0.4-1,1.4-0.5,2.1c1,1.4,1.9,2.8,2.5,4.5
		C-314,42.5-311.1,41.7-311.8,39.8z"/>
	<path class="st0" d="M-312.9,52.2c-0.2,1.8-0.5,3.5-0.9,5.2c-0.5,1.9,2.4,2.7,2.9,0.8c0.5-2,0.8-4,1-6
		C-309.8,50.2-312.8,50.2-312.9,52.2z"/>
	<path class="st0" d="M-317,66.8c-0.6-0.4-1.7-0.2-2.1,0.5c-0.7,1.5-1.8,2.7-3.2,3.5c-1.7,0.9-0.2,3.5,1.5,2.6
		c1.9-1,3.4-2.7,4.3-4.6C-316.1,68.1-316.2,67.2-317,66.8z"/>
	<path class="st0" d="M-332.5,76c-1.7,0.3-3.4,0.5-5.2,0.7c-1.9,0.2-1.9,3.2,0,3c2-0.2,4-0.4,6-0.8C-329.9,78.6-330.7,75.7-332.5,76
		z"/>
	<path class="st0" d="M-348.7,75c-1.8-0.5-3.4-1.3-4.9-2.4c-0.7-0.5-1.7-0.1-2.1,0.5c-0.5,0.8-0.1,1.6,0.5,2.1
		c1.7,1.2,3.6,2.1,5.6,2.7C-347.6,78.4-346.8,75.5-348.7,75z"/>
	<path class="st0" d="M-363.8,60.1c-0.5-1.9-3.4-1.1-2.9,0.8c0.6,2.2,1.6,4.1,3,5.8c0.5,0.6,1.6,0.5,2.1,0c0.6-0.6,0.5-1.5,0-2.1
		C-362.6,63.3-363.3,61.8-363.8,60.1z"/>
	<path class="st0" d="M-365.1,49.2c0-1.8,0.1-3.6,0.4-5.4c0.3-1.9-2.6-2.7-2.9-0.8c-0.3,2.1-0.5,4.1-0.5,6.2
		C-368.1,51.1-365.1,51.1-365.1,49.2z"/>
	<path class="st0" d="M-357.4,27.9c-1.8,1.1-3.4,2.5-4.8,4.2c-0.5,0.6-0.6,1.5,0,2.1c0.5,0.5,1.6,0.6,2.1,0c1.2-1.5,2.6-2.7,4.2-3.7
		C-354.2,29.5-355.7,26.9-357.4,27.9z"/>
</g>
<g>
	<path class="st0" d="M-449.2,12c-5.7-10.9-18.3-17.9-30.7-14.7c-10.2,2.1-19.3,10.4-20.7,21c-1.4,10.7,4.1,21.8,13.5,27
		c2.9,1.6,6.1,2.7,9.4,3.2c0.2,3.5,0.4,7,1,10.5c-2.9,2.4-2.8,8.1-3.1,11.5c-0.7,7.5,0,15.1,0.2,22.6c0.2,3.4-0.1,8.8,3.1,11.1
		c2.5,1.8,8.8,2,11.4,0.4c3.7-2.3,3.9-8,3.9-11.8c-0.1-7.6-0.3-15.6-1.2-23.2c-0.4-3.9-0.3-8.9-4-11.1c-0.3-3.4-0.2-6.8-0.4-10.1
		c4.5-0.8,8.7-2.6,12.3-5.4C-444.3,35.2-443.5,22.8-449.2,12z M-465.2,71.5c0.6,7.5,1.4,15.6,1,23.2c-0.2,2.9-0.3,5.2-2.9,6.8
		c-1.8,1.1-3.8,1.2-5.8,0.7c-0.1,0-0.1,0-0.2-0.1c0.3-0.1,0.6-0.3,0.9-0.4c0.6-0.2,1-0.8,0.8-1.4c-0.2-0.5-0.8-1-1.4-0.8
		c-0.8,0.3-1.7,0.7-2.5,1.1c-0.3-0.4-0.5-0.8-0.7-1.3c1.4-1.1,2.9-2.2,4.5-3.2c1.2-0.8,0.1-2.7-1.1-1.9c-1.3,0.8-2.6,1.8-3.8,2.7
		c0-0.5-0.1-1.1-0.1-1.6c1.5-1,3-2.1,4.5-3.1c1.2-0.8,0.1-2.8-1.1-1.9c-1.2,0.8-2.3,1.6-3.5,2.4c0-0.5,0-1.1,0-1.6
		c1.4-1.3,2.8-2.5,4.4-3.6c1.2-0.8,0.1-2.8-1.1-1.9c-1.2,0.8-2.3,1.7-3.4,2.6c0-0.9-0.1-1.7-0.1-2.6c1.4-1.1,2.9-2.1,4.5-3
		c1.2-0.7,0.1-2.7-1.1-1.9c-1.2,0.7-2.3,1.5-3.5,2.3c0-0.5,0-1,0-1.5c1.4-1,2.9-2,4.3-3c1.2-0.8,0.1-2.8-1.1-1.9
		c-1.1,0.7-2.2,1.5-3.2,2.2c0-0.5,0-1,0-1.4c0.1-0.1,0.2-0.1,0.3-0.2c1.5-1.6,3.1-3,4.9-4.1c1.2-0.8,0.1-2.7-1.1-1.9
		c-1.4,0.9-2.8,2-4,3.1c0-0.6,0.1-1.2,0.1-1.8c1.6-1.4,3.4-2.5,5.4-3.4c1.3-0.6,0.2-2.6-1.1-1.9c-1.4,0.7-2.7,1.5-4,2.4
		c0-0.6,0.1-1.1,0.2-1.7c1.3-0.9,2.7-1.8,4.2-2.5c1.3-0.6,0.2-2.6-1.1-1.9c-0.9,0.4-1.7,0.9-2.5,1.3c0.6-2,1.8-3.7,4.4-4
		C-465.6,59.7-465.5,67.5-465.2,71.5z M-469.5,57.5c-1.4-0.2-3-0.1-4.4,0.2c-0.5-2.9-0.6-5.9-0.8-8.8c1.6,0.1,3.3,0.1,4.9-0.1
		C-469.6,51.7-469.7,54.6-469.5,57.5z M-470.4,45.9c-12.4,1-24.2-6.6-26.9-19.1c-2.7-12.6,5.8-24.1,18.2-26.6
		c13-3.4,25.1,5.7,29.2,17.7C-444.9,32.5-455.8,44.7-470.4,45.9z"/>
	<path class="st0" d="M-474.5,2c-11.2,0.8-22.6,11-20.7,22.9c1.8,11.4,13.7,18.6,24.6,18.4c12.1-0.2,20.2-8.5,18.5-20.8
		C-453.7,11.4-463,1.7-474.5,2z M-456.6,35c-3.2,4.5-8.8,6-14,6.1c-9.3,0.2-19.6-5.5-22.1-15c-2.8-11,7.8-21.1,18.2-21.8
		c9.4-0.3,17,6.7,19.5,15.6C-453.7,24.7-453.7,30.8-456.6,35z"/>
	<path class="st0" d="M-482.6,9.6c-5.1,2.6-8.3,7.7-8.8,13.4c0,1.7,0.3,4.2,2.2,4.7c1.5,0.4,2.8-0.8,3.2-2.2
		c0.4-1.3,0.3-2.6,0.6-3.9c0.5-1.8,1.6-3.4,2.8-4.8c1.5-1.7,3.9-2.5,5.2-4.2c0.7-1,0.8-2.6-0.1-3.5C-478.8,7.7-481.2,8.9-482.6,9.6z
		 M-481.9,13c-1.8,1.4-3.4,3.2-4.5,5.2c-0.6,1.1-1.1,2.4-1.4,3.6c-0.1,0.4-0.1,0.8-0.2,1.2c-0.4,1.1-1.3,2.9-1.2-0.1
		c0.3-3.9,2.2-7.4,5.3-9.9c0.5-0.4,4.4-3,4.3-1.6C-479.6,11.7-481.5,12.8-481.9,13z"/>
	<path class="st0" d="M-473.6,6.7C-473.7,6.7-473.7,6.7-473.6,6.7c-0.1,0-0.2,0.1-0.3,0.1c-1.8,0.9-2.3,3.4-1,5
		c1.4,1.6,3.9,1.3,5-0.4c0.7-1,0.5-2.4-0.1-3.5C-470.7,6.5-472.2,6.1-473.6,6.7z M-471.9,10.3c-0.3,0.2-0.6,0.3-0.9,0.2
		c-0.8-0.3-0.7-1.4,0-1.8c0.4-0.1,0.7-0.2,0.9,0.1c0.2,0.3,0.3,0.7,0.3,1.1c0,0,0,0.1,0,0.1C-471.7,10.1-471.8,10.3-471.9,10.3z
		 M-471.6,9.9C-471.6,9.8-471.6,9.9-471.6,9.9L-471.6,9.9z"/>
</g>
<g>
	<path class="st0" d="M-173.5,30.5c-1.8-0.2-3.8,0.2-5.7,0.6c-1.9-4.7-4-9.4-6.3-13.9c-1.4-2.9-3.1-7.4-5.9-9.3
		c-3.9-2.6-8.2,1.7-10.6,4.4c-10.3,11.3-19.7,23.2-33.5,30.5c-0.1,0.1-0.2,0.1-0.3,0.2c-3.9,1.2-7.8,2.4-11.6,3.7
		c-2.5,0.8-5.9,1.4-7.9,3.2c-3.5,3.1-1.2,10,0.2,13.5c1.3,3.4,4.4,10.2,8.3,11.3c1.1,0.3,2.3,0.1,3.6-0.2c2.3,4.8,4.5,9.8,7.1,14.5
		c1.7,3,3.5,7,7.5,5.6c4.2-1.4,9.5-5.7,8.3-10.7c-0.6-2.5-3-4.4-4.4-6.4c-1.6-2.3-2.8-4.7-4-7.2c0.6-0.2,1.3-0.4,1.9-0.6
		c7.9-1.5,15.9-2.3,23.9-1.4c7.2,0.8,14.2,2.7,21.2,4.2c3.5,0.7,10.1,3.5,12.4-0.7c2.4-4.3-0.8-12.3-1.9-16.6
		c-0.8-2.9-1.6-5.8-2.5-8.6c1.9-1.3,4.3-2.5,5.3-4.7c1-2.3,0-4.8-1-7C-170.1,33.1-171.3,30.8-173.5,30.5z M-249.1,68.4
		c-1.2-1.6-2.1-3.3-2.9-5.2c-0.8-1.8-1.4-3.7-1.7-5.7c-0.8-4.2,1.6-6.1,5.2-7.3c4.4-1.5,8.8-2.9,13.2-4.2c2.2,7.1,4.6,14.1,7.1,21.1
		c-3.9,1.3-7.9,2.4-11.9,3.4C-243.8,71.5-246.6,71.9-249.1,68.4z M-225.6,80.1c0.4,0.5,1,1.2,1.4,1.7c2,3.1,2,5-0.6,7.8
		c-0.7,0.8-2,1.6-2.9,2c-0.9,0.4-1.5,0.6-2.1,0.7c0.4-0.7,0.8-1.5,1-2.3c0.5-1.4-1.7-2-2.2-0.6c-0.2,0.7-0.5,1.3-0.9,1.9
		c-0.1-0.1-0.2-0.2-0.3-0.3c-0.2-0.2-0.4-0.5-0.6-0.7c0,0,0-0.1,0.1-0.1c0.2-0.5,0.5-0.9,0.7-1.4c0.3-0.6,0.5-1.1,0.7-1.7
		c0.5-1.4-1.7-2-2.2-0.6c-0.2,0.6-0.5,1.1-0.8,1.7c-0.3-0.5-0.6-1.1-0.8-1.6c0,0,0,0,0,0c0.5-1.1,1-2.3,1.5-3.4
		c0.3-0.6,0.2-1.2-0.4-1.5c-0.5-0.3-1.3-0.2-1.5,0.4c-0.3,0.6-0.6,1.3-0.9,1.9c-0.2-0.4-0.4-0.9-0.6-1.3c-0.1-0.2-0.2-0.4-0.3-0.6
		c0.1-0.1,0.2-0.2,0.2-0.3c0.5-0.9,1-1.7,1.5-2.6c0.7-1.3-1.2-2.4-1.9-1.1c-0.3,0.5-0.6,1.1-0.9,1.6c-0.3-0.6-0.6-1.2-0.9-1.8
		c0.1-0.1,0.2-0.1,0.2-0.2c0.4-0.6,0.9-1.2,1.3-1.8c0.3-0.5,0.1-1.2-0.4-1.5c-0.6-0.3-1.2-0.1-1.5,0.4c-0.2,0.3-0.4,0.6-0.7,0.9
		c-0.3-0.5-0.5-1.1-0.8-1.6c0.6-0.2,1.2-0.4,1.8-0.5c2.8-0.7,5.7-1.5,8.5-2.4C-229.3,74.3-227.7,77.3-225.6,80.1z M-184,69
		c-6.5-1.4-12.9-3-19.5-3.7c-7.6-0.8-15,0-22.5,1.3c-2.6-7.2-5-14.4-7.3-21.6c12.4-6.8,22-17.3,31.1-27.9c1.1-1.2,2.7-3.6,4.6-5.2
		c5.4,8,8.9,18,12.4,26.9c4,10.2,7.4,21.2,9.3,32C-178.6,70.6-182.1,69.4-184,69z M-171.6,68c-0.1,1.6-0.9,2.3-2.1,2.7
		c-2-11.2-5.4-22.7-9.7-33.2c-3.6-8.9-7-18.8-12.4-26.8c1-0.4,2-0.5,2.9,0c1.3,0.7,2.4,3.6,3,4.9c3.1,5.7,5.7,11.7,8.1,17.7
		c2.9,7.2,5.4,14.5,7.4,22C-173.2,59.1-171.3,64.1-171.6,68z M-170.9,41.7c-0.8,1.1-2.2,1.9-3.4,2.7c-1.2-3.8-2.6-7.5-4-11.1
		c0.9-0.1,1.8-0.3,2.7-0.4c2.2-0.2,3,0.4,4.1,2.4C-170.6,37.2-169.4,39.7-170.9,41.7z"/>
	<path class="st0" d="M-172.9,23.8c0-2.1,0-4.3,0-6.4c0-1.4-2.2-1.4-2.3,0c0,2.1,0,4.3,0,6.4C-175.1,25.3-172.9,25.3-172.9,23.8z"/>
	<path class="st0" d="M-163.7,28.1c1.2-1.3,2.3-2.6,3.5-3.9c1-1.1-0.6-2.7-1.6-1.6c-1.2,1.3-2.3,2.6-3.5,3.9
		C-166.3,27.6-164.7,29.2-163.7,28.1z"/>
	<path class="st0" d="M-156,35.5c-1.7-0.1-3.3-0.1-5-0.1c-1.4,0-1.4,2.2,0,2.3c1.7,0.1,3.3,0,5,0.1C-154.6,37.8-154.6,35.6-156,35.5
		z"/>
	<path class="st0" d="M-164.5,45.7c-1.2-0.8-2.3,1.1-1.1,1.9c1.4,1,2.8,2.2,4.1,3.4c1.1,1,2.7-0.6,1.6-1.6
		C-161.4,48.2-162.9,46.9-164.5,45.7z"/>
	<path class="st0" d="M-245,56.3c1.3-0.5,0.8-2.7-0.6-2.2c-1.5,0.6-3,1.2-4.5,1.8c-1.3,0.5-0.8,2.7,0.6,2.2
		C-248.1,57.5-246.6,56.9-245,56.3z"/>
	<path class="st0" d="M-244.4,57.9c-1.5,0.7-3.1,1.3-4.8,1.8c-1.4,0.4-0.8,2.6,0.6,2.2c1.8-0.5,3.6-1.2,5.3-2.1
		C-242,59.2-243.1,57.2-244.4,57.9z"/>
</g>
<g>
	<path class="st0" d="M-440,294.1c-15-13.4-37.8-15.1-55.3-6c-17.9,9.3-29.7,29.1-26.8,49.5c3.3,23.3,30,35.3,51,35.8
		c9.8,0.3,18.5-2.1,26.9-7.2c8.4-5,13.7-12.1,17.4-21.1C-419.9,327.8-426.3,306.4-440,294.1z M-427,330.3c-4.4,0.9-8.8,1.6-13.2,2.2
		c0-1.9-0.1-3.8-0.2-5.7c-0.4-5.1-1.5-10.1-3.1-14.8c3.3-1.8,6.4-3.9,9.3-6.2C-429.5,313.1-426.9,321.9-427,330.3z M-499.2,333.1
		c-0.2-6.8,0.5-12.9,2.6-18.9c6.2,2.4,12.8,3.8,19.6,4.7c2.6,0.4,5.3,0.5,7.9,0.4c0.5,5.1,0.9,10.3,1.2,15.4
		c-1.7,0.1-3.4,0.1-5.2,0.2c-8.7,0.3-17.4,0.5-26.1,0.1C-499.2,334.3-499.2,333.7-499.2,333.1z M-469.4,316.2
		c-3.3,0.1-6.6-0.1-9.8-0.7c-5.7-1-11.1-2.2-16.3-4.2c0.6-1.5,1.3-3,2.2-4.5c4.5-8.3,10.7-16.2,19.1-20.8
		C-472.1,296.1-470.5,306.1-469.4,316.2z M-471.1,286.1c11.7,4.4,19.7,13.5,24,24.5c-6,2.9-12.6,4.8-19.2,5.4
		C-467.5,306-469.1,296-471.1,286.1z M-473,337.9c1.8-0.1,3.5-0.1,5.3-0.2c0.2,3.6,0.2,7.1,0.3,10.7c-0.9,0-1.8,0-2.7,0
		c-7.4,0.1-15.4,1.4-23,3.8c-2.8-4.3-4.7-9.1-5.6-14.2C-490.2,338.3-481.6,338.1-473,337.9z M-470.1,351.3c0.9,0,1.8,0,2.7,0
		c0,6.2-0.2,12.4-0.5,18.6c-9.3-2.1-17.6-7.7-23.3-15.2C-484.3,352.6-476.9,351.5-470.1,351.3z M-477.3,369.9
		c-9.3-1.2-18.8-4.4-26.6-9.8c3-1.7,6.2-3.1,9.5-4.3C-489.9,361.8-484,366.7-477.3,369.9z M-464.4,351.4c5.2,0.1,10.4,0.7,15.4,1.8
		c-4,6.8-8.8,12.4-15.9,16.1C-464.6,363.3-464.4,357.3-464.4,351.4z M-464.4,348.4c0-3.6-0.1-7.2-0.3-10.8
		c7.2-0.3,14.3-0.8,21.4-1.6c-0.4,5-1.6,9.7-4.2,14.5C-453,349.1-458.8,348.5-464.4,348.4z M-464.9,334.5
		c-0.3-5.2-0.7-10.3-1.2-15.5c6.8-0.7,13.7-2.7,19.9-5.7c1.5,4.7,2.5,9.6,2.8,14.6c0.1,1.7,0.2,3.3,0.1,5
		C-450.4,333.8-457.6,334.2-464.9,334.5z M-435.8,303.3c-2.7,2.2-5.6,4.2-8.7,5.9c-3.9-9.8-10.5-18.1-19.9-23.3
		c5.8,1.1,11.2,3.5,16.5,6.4C-443.2,295-439.1,298.8-435.8,303.3z M-500,294.6c6.1-4.5,12.9-7.1,20.1-8.4
		c-6.8,4.9-12.1,11.9-16,19.2c-0.9,1.6-1.6,3.2-2.3,4.8c-3.9-1.7-7.5-3.9-10.9-6.9C-506.5,300-503.4,297-500,294.6z M-511,305.7
		c3.6,3.1,7.5,5.5,11.6,7.3c-2.5,6.9-3.3,13.8-2.8,21.6c0,0,0,0.1,0,0.1c-5.9-0.4-11.8-1.1-17.6-2.4
		C-520.1,323-516.6,313.5-511,305.7z M-517,344.7c-1.4-3-2.2-6.1-2.6-9.2c5.8,1.2,11.8,1.9,17.7,2.3c0.8,5.5,2.8,10.7,5.8,15.4
		c-3.7,1.3-7.2,3-10.4,4.9C-510.9,354.4-514.6,350-517,344.7z M-458.7,369c5.3-3.9,9.4-9.1,12.7-15c2.8,0.8,5.5,1.8,8.1,3.1
		C-443.5,362.9-450.7,367-458.7,369z M-435.9,354.8c-2.8-1.5-5.7-2.6-8.7-3.5c2.6-5.2,3.9-10.3,4.3-15.7c4.4-0.6,8.8-1.3,13.1-2.2
		c-0.1,1.4-0.3,2.8-0.6,4.2C-429,344.2-431.9,350-435.9,354.8z"/>
	<path class="st0" d="M-519.8,306.5c3.5-6.5,8-12.3,13.5-17.2c1.1-1-0.5-2.5-1.6-1.6c-5.7,5-10.3,11-13.9,17.7
		C-522.4,306.6-520.4,307.7-519.8,306.5z"/>
	<path class="st0" d="M-519.6,298.3c1.3-2.4,2.9-4.6,4.8-6.5c1-1-0.6-2.6-1.6-1.6c-2.1,2-3.8,4.4-5.2,7
		C-522.2,298.5-520.2,299.6-519.6,298.3z"/>
	<path class="st0" d="M-432.8,361.9c-4.2,4.9-9.3,8.5-15.3,10.7c-1.3,0.5-0.8,2.7,0.6,2.2c6.4-2.4,11.9-6.1,16.3-11.3
		C-430.3,362.4-431.9,360.8-432.8,361.9z"/>
	<path class="st0" d="M-434.8,369.4c-1.2,1.4-2.7,2.6-4.3,3.4c-1.3,0.6-0.2,2.6,1.1,1.9c1.8-0.9,3.5-2.2,4.8-3.7
		C-432.2,369.9-433.8,368.3-434.8,369.4z"/>
</g>
<g>
	<path class="st0" d="M-354.8,357.2C-354.8,357.2-354.8,357.2-354.8,357.2c-3.7-0.5-7.1,1.8-7.3,5.8c-0.2,3.9,3,6.2,6.5,6.3
		c3.4,0.1,7-2.1,6.8-5.9C-348.9,360.1-351.5,357.3-354.8,357.2z M-355,366.3c-1.8,0.1-3.5-0.4-4-2.3c-0.6-2.4,1.5-4.3,3.8-3.9
		c0,0,0,0,0.1,0c0.1,0,0.2,0,0.3,0c1.6,0.1,2.7,1.3,3,2.8C-351.5,365-353.2,366.2-355,366.3z"/>
	<path class="st0" d="M-311.4,356.9c-3.6-0.4-6.5,2.6-6.4,6.1c0.1,1.9,1,4,2.6,5.1c1.3,1,3,0.9,4.6,1c3.5,0.3,5.5-3.7,4.9-6.8
		C-306.3,359.1-307.7,357-311.4,356.9z M-310.5,366.2c-2.1-0.1-3.8-0.4-4.2-2.8c-0.3-2.2,1.1-3.7,3.3-3.5c1.8,0,2.2,0.6,2.6,2.3
		C-308.4,363.7-308.5,366.3-310.5,366.2z"/>
	<path class="st0" d="M-299.3,307.4c-9-1.8-18.8-1.3-28-2c-13.9-1.1-27.7-1.9-41.6-2.4c-0.4-1.8-0.9-3.5-1.6-5
		c-1.4-3-4.3-3.6-7.2-4.5c0.1-1.1-0.2-1.9-1.5-2.6c-1.6-0.9-3.5-1.5-5.3-2.1c-2.3-0.7-7.6-1.8-7.5,2.2c0.1,3.1,4.1,4.3,6.5,5.1
		c2,0.7,4.8,1.4,6.5,0.1c1.8,0.6,3.5,0.9,4.9,2.4c1.6,1.7,1.7,4.2,2.3,6.5c1.1,4.9,2.4,9.7,3.7,14.6c2.2,8.1,4.6,16.2,6.5,24.4
		c-2.4,0.9-4.3,3-4.2,5.9c0.1,4.4,4.4,5.4,8,5.5c17,0.4,34,0.1,50.9,0.2c1.9,0,1.9-3,0-3c-10,0-20.1,0-30.1,0c-5.3,0-10.7,0-16-0.1
		c-2.1,0-7.6,0.8-9.2-1.1c-1.6-1.9,0.2-4.5,2.4-4.7c14.5,0.1,29-0.1,43.4,0.1c3.5,0,9.6,0.7,12.1-2.5c1.1-1.3,1.4-3.4,1.9-5
		c1.1-3.4,2.2-6.8,3.3-10.2c1.7-5.2,4-10.8,4.6-16.2C-294.3,309.4-296,308.1-299.3,307.4z M-385.2,293.7c-0.9-0.3-3.8-1.1-4.3-2.1
		c-0.4-0.8,0.5-1.4,1-1.5c0.3-0.1,0.7,0,1,0.1c1,0.2,1.9,0.5,2.8,0.8c1.1,0.4,2.1,0.8,3.1,1.2c1.1,0.4,1.6,0.5,1.3,1.7
		C-380.7,295.5-384.2,294.1-385.2,293.7z M-297.7,311.4c0.8,1.6-1,5.8-1.5,7.5c-0.1,0.4-0.3,0.9-0.4,1.3c-4.2-0.2-8.4-0.5-12.6-0.8
		c0.8-3.4,1.6-6.7,2.5-10C-305.5,309.4-298.6,309.5-297.7,311.4z M-302.5,329.7c-0.2,0.7-0.5,1.4-0.7,2.1c-3.8-0.2-7.6-0.3-11.4-0.4
		c0.6-3.2,1.3-6.5,2-9.7c4.1,0.3,8.3,0.5,12.4,0.8C-301,324.8-301.8,327.2-302.5,329.7z M-327.1,343.8c0.2-3.5,0.4-7,0.6-10.5
		c3,0.1,6.1,0.2,9.1,0.2c-0.7,3.4-1.3,6.8-2,10.2C-321.9,343.8-324.5,343.8-327.1,343.8z M-326.3,331.1c0.2-3.5,0.5-6.9,0.8-10.4
		c3.5,0.3,7.1,0.6,10.6,0.8c-0.7,3.3-1.3,6.5-2,9.8C-320,331.2-323.2,331.1-326.3,331.1z M-358.8,343.6c-0.8-3.8-1.8-7.5-2.8-11.3
		c2.9,0.1,5.7,0.2,8.6,0.3c0.8,3.7,1.6,7.4,2.6,11.1C-353.1,343.7-355.9,343.6-358.8,343.6z M-365.7,317.4c3.3,0.2,6.6,0.5,9.9,0.8
		c0.8,4.1,1.6,8.1,2.4,12.2c-2.9-0.1-5.8-0.2-8.8-0.3C-363.3,325.8-364.5,321.6-365.7,317.4z M-348,343.7c-1-3.6-1.9-7.3-2.6-11
		c3.2,0.1,6.3,0.2,9.5,0.3c0.2,3.6,0.5,7.2,0.7,10.8C-342.9,343.8-345.4,343.7-348,343.7C-348,343.7-348,343.7-348,343.7z
		 M-351.1,330.4c-0.8-4-1.6-8-2.4-12c3.8,0.3,7.6,0.6,11.4,1c0.3,3.8,0.6,7.6,0.8,11.4C-344.5,330.6-347.8,330.5-351.1,330.4z
		 M-353.9,316.1c-0.6-3.2-1.3-6.4-2-9.6c4.3,0.2,8.6,0.5,12.9,0.7c0.3,3.3,0.5,6.5,0.7,9.8C-346.1,316.7-350,316.4-353.9,316.1z
		 M-339.8,319.5c4,0.3,8,0.7,12.1,1c-0.3,3.5-0.6,7-0.8,10.5c-3.5-0.1-7-0.2-10.4-0.3C-339.2,327-339.5,323.3-339.8,319.5z
		 M-312,309.4c-0.9,3.3-1.7,6.6-2.4,9.9c-3.6-0.3-7.3-0.5-10.9-0.8c0.3-3.3,0.6-6.6,0.9-9.9c4,0.3,8.1,0.5,12.1,0.8
		C-312.2,309.4-312.1,309.4-312,309.4z M-326.6,308.4c-0.3,3.3-0.6,6.6-0.9,9.9c-4.1-0.3-8.3-0.7-12.4-1c-0.2-3.3-0.5-6.6-0.7-9.8
		c4.1,0.3,8.2,0.6,12.3,0.9C-327.8,308.3-327.2,308.4-326.6,308.4z M-368.3,306c3.3,0.1,6.7,0.3,10,0.4c0.7,3.2,1.4,6.3,2,9.5
		c-3.3-0.3-6.7-0.5-10.1-0.8c-0.2-0.7-0.4-1.4-0.6-2.1C-367.4,310.9-367.8,308.4-368.3,306z M-338.1,343.8
		c-0.2-3.6-0.5-7.2-0.7-10.8c3.4,0.1,6.8,0.2,10.1,0.2c-0.2,3.5-0.5,7-0.7,10.6C-332.3,343.8-335.2,343.8-338.1,343.8z
		 M-305.6,339.1c-1.4,4.6-4,4.5-8.6,4.6c-1,0-1.9,0-2.9,0.1c0.7-3.3,1.4-6.7,2-10.1c3.7,0.1,7.4,0.2,11.1,0.4
		C-304.5,335.7-305,337.4-305.6,339.1z"/>
	<path class="st0" d="M-365,360.8c0.6-1.3-1.4-2.5-1.9-1.1c-1.3,2.9-0.9,6,1.1,8.5c0.9,1.1,2.5-0.5,1.6-1.6
		C-365.5,364.9-365.8,362.7-365,360.8z"/>
	<path class="st0" d="M-369.3,362.5c0-0.6-0.6-1.1-1.1-1.1c-0.6,0-1.1,0.5-1.1,1.1c-0.1,1.1,0.1,2.3,0.6,3.3
		c0.7,1.3,2.7,0.1,1.9-1.1C-369.3,364-369.3,363.2-369.3,362.5z"/>
</g>
<g>
	<path class="st0" d="M-222.9,300.2c-11,6.9-17.6,22.1-13,34.6c1.5,4.1,3.4,8,5.9,11.6c1.3,1.8,2.8,3.4,4.3,5.1
		c2.2,2.5,2.9,4.4,3.7,7.5c0.3,1.3,0.7,2.1,1.3,2.7c-1,1.1-1.3,2.6-0.5,3.9c-1.9,2.5-1.1,4.1,1,5c-3.2,4.8,3.5,5.8,9.7,5.9
		c0.1,1,0.2,2,0.6,2.8c0.6,1.2,2.3,1.4,3.5,1.4c1.4,0,3.3-0.1,4.5-0.9c1.1-0.7,1.4-2.3,1.5-3.6c3.5,0.1,8.9,0.4,10.7-1.9
		c1.1-1.4,0.6-2.7-0.4-3.6c1.7-0.9,2.4-2.4,1-4.6c0.8-1.2,0.3-2.7-0.9-4c0.2-0.3,0.5-0.6,0.7-1.1c0.8-1.7,0.3-3.5,0.7-5.3
		c0.6-2.7,2.4-4.1,3.8-6.2c2.1-3.2,5.1-6.3,6.8-9.7c5.5-11.2,3.2-26.8-5.5-35.7C-194.2,293.3-210.2,292.2-222.9,300.2z
		 M-208.3,322.7c0.3-1.8,1.3-2.9,3-3.2c1.2,1,1.7,2.2,1.3,3.7c0.1,1.7-0.7,3.3-2,4.5C-207.5,326.3-208.6,324.5-208.3,322.7z
		 M-206.2,330.7c1.6,1.3,3.5,2.4,5.3,2.9c-2.5,8.6-1.9,19-1.4,27.5c-1.1,0-2.1-0.1-3-0.1c-1.4,0-2.8,0-4.2-0.1
		c-0.1-3.7,0.3-17.9-2-27.7C-209.5,332.6-207.6,331.7-206.2,330.7z M-205.3,364c3.6,0,7.3-0.2,10.9-0.5c0.9-0.1,1.7-0.2,2.4-0.4
		c2.2,2.2-4.2,2.7-5.8,2.8c-2.4,0.1-4.9,0-7.4,0c-2.3-0.1-4.5-0.1-6.8-0.3c-1.5-0.1-9.5-1.1-6.8-2.8c0.3,0.1,0.6,0.1,0.9,0.2
		C-213.8,363.8-209.4,364.1-205.3,364z M-192.6,369.3c-0.9,0.1-1.8,0.2-2.7,0.3c-1.1,0.1-2.2,0.1-3.4,0.2c-2.5,0.1-5,0-7.5,0
		c-2,0-4.1,0-6.1-0.1c-0.6,0-8.2-0.3-7.3-2.5c3.3,1.5,9.2,0.9,12,1c4.8,0.2,11,1.1,15.7-0.5C-192,368.2-192.3,368.7-192.6,369.3z
		 M-203.6,377.9c-0.8,0.3-2,0.4-2.9,0.4c-0.4,0-0.9,0.1-1.3-0.1c-0.3-0.2-0.1,0.1-0.3-0.3c-0.2-0.3-0.3-0.9-0.4-1.5
		c2.6-0.1,4.8-0.3,5.7-0.3C-202.7,376.9-202.9,377.7-203.6,377.9z M-192.6,371.5c-0.7,1.6-1.9,2.2-3.4,2c-1.2,0.1-2.3,0.1-3.5,0.2
		c-2,0.1-3.9,0.2-5.9,0.3c-1.5,0.1-15,0.5-12.8-2.6c0-0.1,0.1-0.1,0.1-0.2c4.2,0.9,10.1,0.7,12,0.7
		C-204.3,372-197.3,372.5-192.6,371.5C-192.6,371.4-192.6,371.5-192.6,371.5z M-179,331.7c-0.8,4-1.7,6.6-4.3,10
		c-2.1,2.8-4.2,5.6-6.1,8.5c-0.9,1.5-1.8,2.9-2.2,4.6c-0.6,2.4,0.3,4.5-2.8,5.8c-1.5,0.6-3.6,0.7-5.7,0.6c-0.5-8.6-1-18.6,1.4-27.1
		c4.3,0.4,10.6-1.5,9.5-6.6c-1.6-7.3-8.4-2.1-10.3,2c-0.3,0.6-0.6,1.3-0.8,1.9c-0.9-0.3-1.8-0.7-2.4-1c-0.5-0.3-1.1-0.7-1.7-1.1
		c3.2-2.9,4.5-6.7,1.2-10.5c-2.7-3.1-6.6-1-7.4,2.9c-0.6,2.7,0.7,5.5,2.7,7.6c-1.3,0.9-2.8,1.5-4.3,1.9c-1.7-5.8-4.5-9.4-9.3-7
		c-2.8,1.4-2.4,5.3-0.6,7.3c2.1,2.4,5.2,2.8,8.3,2.3c0.9,4,0.8,8.2,1.1,12.3c0.3,4.9,0.5,9.9,0.8,14.8c-1.4-0.1-2.8-0.3-4.1-0.6
		c-2.1-0.5-2.5-0.4-3.4-2.7c-0.6-1.5-0.5-3.1-1.2-4.6c-1.8-3.5-5.6-6.1-7.8-9.4c-2.4-3.7-4.8-8.2-5.7-12.5
		c-1.5-6.9,0.8-14.2,4.5-19.9c5.4-8.3,13.8-12.4,23.6-13.2c8.9-0.7,18,4,23,11.5C-178.6,316.1-177.4,324.1-179,331.7z M-197.9,331.9
		c0-0.1,0.1-0.3,0.1-0.4c0.6-1.7,1.4-3.1,2.7-4.4c3.9-1.4,4.7-0.1,2.2,3.7C-194.2,332-196.1,332.2-197.9,331.9z M-214.2,331.6
		c-0.7,0.1-1.3,0.1-1.9,0c-1.5-0.1-6.6-1.8-5-4.6c2.2-3.9,6,2,6.6,3.8C-214.3,331-214.3,331.3-214.2,331.6z"/>
	<path class="st0" d="M-164.4,301.6c-3.2,1.5-6.6,2.8-9.5,4.9c-1.6,1.1-0.1,3.7,1.5,2.6c2.9-2.1,6.2-3.4,9.5-4.9
		C-161.1,303.4-162.6,300.8-164.4,301.6z"/>
	<path class="st0" d="M-186.1,294.6c2.2-2.8,3.9-5.9,5.7-9.1c0.9-1.7-1.6-3.2-2.6-1.5c-1.6,2.9-3.2,5.9-5.2,8.5
		C-189.4,294-187.3,296.1-186.1,294.6z"/>
	<path class="st0" d="M-205.1,288.3c0.2-3.4,0.3-6.8,0.3-10.1c0-1.9-3-1.9-3,0c0,3.4-0.1,6.8-0.3,10.1
		C-208.3,290.2-205.3,290.2-205.1,288.3z"/>
	<path class="st0" d="M-226.3,294.6c1.1,1.6,3.7,0.1,2.6-1.5c-2-3-4.3-6-5.6-9.4c-0.7-1.8-3.6-1-2.9,0.8
		C-230.8,288.1-228.4,291.3-226.3,294.6z"/>
	<path class="st0" d="M-238.7,306.2c-3-2.2-6.2-3.9-9.6-5.3c-1.8-0.7-2.6,2.2-0.8,2.9c3.2,1.3,6.1,3,8.9,5
		C-238.6,310-237.1,307.4-238.7,306.2z"/>
	<path class="st0" d="M-215.9,304c-7,2-13.3,9.6-14.3,16.8c-0.2,1.4,2,2,2.2,0.6c0.9-6.4,6.4-13.3,12.7-15.2
		C-214,305.7-214.5,303.6-215.9,304z"/>
	<path class="st0" d="M-214.5,307.8c-2.1,0.3-4.2,1.8-5.5,3.5c-0.9,1.1,0.7,2.7,1.6,1.6c1.1-1.4,2.6-2.6,4.5-2.9
		C-212.5,309.8-213.1,307.6-214.5,307.8z"/>
</g>
<g>
	<path class="st0" d="M-430.8,151.6c-7.9-10.6-22-10.5-32.3-3.7c-5.5,3.6-10.4,8.4-14.6,13.4c-3.7,4.3-8,9.5-10,14.9
		c-0.1,0.3-0.2,0.6-0.3,0.9c-5.9,2.5-10.8,6.2-15.2,10.9c-4.8,5.1-10,10.9-13.2,17.2c-4.8,9.3-3,20.5,5.5,27.2
		c9.7,7.6,23.2-0.6,31-7.1c5.7-4.8,10.4-10.5,14.7-16.6c1.9-2.7,3.7-5.5,5.1-8.4c11.4-1.8,19.4-10.6,25.5-19.9
		C-429.2,171.9-423.9,160.9-430.8,151.6z M-471.5,174.1c1-1.5,2-2.8,2.7-3.7c4.7-6,9.8-13.1,17.5-15.1c5.4-1.4,10.7,1.7,10.3,7.6
		c-0.2,3.3-1.9,6.5-3.9,9.1c-3.7,5.1-8,10.2-13.4,13.4C-459.8,178.9-464.5,173.5-471.5,174.1z M-475.9,199.8
		c-1.9,2.5-3.7,4.7-4.4,5.6c-3.5,4.7-7.2,10.2-12.6,13c-2.8,1.5-8.5,3.1-10.8,0.2c-3.2-4,0.4-10.4,2.7-13.7
		c4.2-5.9,9.3-10.5,14.9-15C-483.7,194.2-479.9,197.8-475.9,199.8z M-494.1,231.5c-7.2,2.8-14.1,2-18.9-4.6
		c-3.7-5.1-5.1-10.8-3.1-16.9c2.3-6.7,7.5-12.3,12-17.6c4.4-5.2,9.4-9.7,15.6-12.6c0,0.2,0,0.3,0,0.5c-0.6,0.3-1.3,0.5-1.9,0.8
		c-0.5,0.3-0.7,1-0.4,1.5c0.3,0.6,1,0.7,1.5,0.4c0.3-0.1,0.6-0.2,0.8-0.4c0,0.1,0,0.1,0,0.2c-0.5,0.3-0.9,0.6-1.4,0.9
		c-1.2,0.8-0.1,2.7,1.1,1.9c0.2-0.1,0.5-0.3,0.7-0.4c0,0.1,0,0.2,0.1,0.2c-0.3,0.2-0.6,0.4-0.8,0.6c-0.5,0.4-0.7,1-0.4,1.5
		c0.3,0.5,1,0.8,1.5,0.4c0.2-0.1,0.3-0.2,0.5-0.3c0,0.1,0.1,0.1,0.1,0.2c0,0,0,0-0.1,0c-7.6,5.9-19,14.9-19.9,25.4
		c-0.3,3.4,0.8,7.7,4.3,8.7c3.6,1,7.8,0.1,11-1.6c7.9-4.2,12.7-13.3,18.3-19.9c3.5-4.1,8.7-15.5-1.2-16c0-0.1,0-0.1-0.1-0.2
		c0,0,0.1,0,0.1,0c1.4,0,1.4-2.2,0-2.3c-0.1,0-0.3,0-0.4,0c0-0.1,0-0.1,0-0.2c0.5,0,1,0.1,1.5,0.1c0.6,0.1,1.1-0.6,1.1-1.1
		c0-0.7-0.5-1-1.1-1.1c-0.3,0-0.7-0.1-1-0.1c0.1-0.2,0.1-0.3,0.2-0.5c0.3,0,0.6,0.1,0.9,0.1c0.6,0.1,1.1-0.6,1.1-1.1
		c0-0.6-0.5-1-1-1.1c0.1-0.1,0.1-0.3,0.2-0.4c6.5-1.6,10.9,2.9,12.6,8.9c1.6,5.9-0.4,11.9-3.4,17
		C-470.7,214.2-481.1,226.5-494.1,231.5z M-459.1,197.9c0-0.1,0.1-0.3,0.1-0.4c0.2,0,0.4,0,0.5-0.1c0.6-0.3,1.2-0.6,1.8-1
		c1.3-0.7,0.1-2.6-1.1-1.9c-0.1,0.1-0.3,0.1-0.4,0.2c0-0.2,0.1-0.4,0.1-0.6c0.7-0.3,1.4-0.6,2.2-0.9c0.6-0.3,0.7-1.1,0.4-1.5
		c-0.3-0.6-1-0.7-1.5-0.4c-0.2,0.1-0.5,0.2-0.7,0.3c0-0.2,0-0.4,0-0.5c0.4-0.2,0.9-0.3,1.3-0.5c0.6-0.2,1-0.8,0.8-1.4
		c-0.1-0.5-0.8-1-1.4-0.8c-0.3,0.1-0.5,0.2-0.8,0.3c0-0.2,0-0.5-0.1-0.7c4.8-2.6,8-6.3,11.5-10.5c2.7-3.3,5.4-6.4,6.8-10.5
		c2.6-7.8-2.2-15.6-10.9-14c-10.3,1.9-17.8,12.4-23.3,20.4c-4,5.7-5.8,14.4,2.9,16.3c0,0.1,0,0.3,0,0.5c-0.5-0.1-1-0.3-1.5-0.2
		c-0.6,0.1-1.1,0.5-1.1,1.1c0,0.6,0.5,1.2,1.1,1.1c0.3,0,0.7,0.1,1,0.2c-0.1,0.2-0.1,0.4-0.2,0.6c-0.4-0.1-0.9-0.2-1.3-0.3
		c-1.4-0.4-2,1.8-0.6,2.2c0.3,0.1,0.6,0.2,0.9,0.2c-0.1,0.2-0.2,0.4-0.4,0.7c-0.5-0.2-0.9-0.3-1.4-0.4c-1.4-0.4-2,1.8-0.6,2.2
		c0.3,0.1,0.5,0.2,0.7,0.2c-0.1,0.2-0.2,0.3-0.3,0.5c-5.4-2.4-9.2-7.3-10.9-12.9c-1.6-5.5,0.2-9.3,3.2-13.9
		c6.9-10.6,18.1-23.8,31.4-25.7c7.7-1.1,16.2,2.8,19.7,9.9c3,6,0.7,13-2.3,18.5C-439,184-447.2,195.4-459.1,197.9z"/>
	<path class="st0" d="M-455,147.4c-3.8,1.6-7.3,3.7-10.5,6.3c-1.1,0.9,0.5,2.5,1.6,1.6c3-2.5,6.4-4.5,10-6
		C-452.5,148.8-453.7,146.9-455,147.4z"/>
	<path class="st0" d="M-450.4,146.5c-1.4,0-1.5,2.3,0,2.3C-448.9,148.7-448.9,146.5-450.4,146.5z"/>
	<path class="st0" d="M-493.4,227.3c-3.7,1.8-7.6,2.4-11.6,1.8c-1.4-0.2-2,2-0.6,2.2c4.7,0.7,9.1,0,13.4-2
		C-491,228.6-492.1,226.7-493.4,227.3z"/>
	<path class="st0" d="M-489.2,225.2c-1.4,0-1.5,2.3,0,2.3C-487.8,227.5-487.8,225.2-489.2,225.2z"/>
</g>
<g>
	<path class="st0" d="M-293.3,176.6c-1.8-4.9-7.4-3.9-11.7-4.1c-6.6-0.2-13.2,0.5-19.7,0.1c-1.6-5.5-2.9-11.1-4.4-16.6
		c-1.3-4.7-3.5-10.1-9-11c-4.5-0.7-7,2.1-8.5,5.9c-2.8,7.2-4.4,14.7-7.5,21.9c-7.3,0-14.7-0.1-22,0.3c-3.4,0.2-7.8,0.5-9.2,4.1
		c-1.6,4.1,1,7.3,4,9.6c2.5,1.9,5.2,3.6,7.8,5.5c2.9,2.1,7.1,4.3,9.4,7.1c2.2,2.7-1.2,8.5-2.3,11.5c-1.2,3.3-2.6,6.6-3.4,10
		c-0.9,3.8-1.2,9.6,2.7,12.2c3.9,2.5,9-2.3,12-4.4c5.5-3.9,10.6-8.4,16.2-12c5,4.8,10.3,9.4,16,13.5c3.3,2.4,8.2,5.2,12.2,2.6
		c3.7-2.4,3.5-7.4,2.3-11.1c-2.2-6.8-4.4-13.7-6.6-20.5c5.6-4.1,11.2-8.3,16.7-12.5C-294.5,185.5-291.5,181.7-293.3,176.6z
		 M-305.8,190.3c-3.9,2.9-7.7,6-11.7,8.8c-0.5,0.4-0.9,1-0.7,1.7c1.4,4.6,2.5,9.3,4,13.9c1.2,3.6,4.8,9,3.3,12.9
		c-3.7,9.4-23.1-10.4-26.8-14c-0.5-0.5-1.3-0.6-1.8-0.2c-3.6,2.2-7,4.8-10.3,7.4c-3.6,2.8-8,7.2-12.3,8.8c-1.7,0.6-3.6,0.4-4.9-1.5
		c-0.6-0.8-0.4-2.8-0.3-3.8c0.1-2.3,1-4.7,1.8-6.9c2-5.6,4.1-11.2,6.1-16.9c0.2-0.5,0-1.2-0.4-1.5c-3.3-2.7-6.7-5.4-10.2-7.9
		c-3.3-2.4-10.6-5.7-12-9.7c-2.4-6.8,8.8-5.4,12.7-5.4c5.4-0.1,10.8-0.2,16.2-0.2c0.5,0.1,1.1-0.1,1.4-0.7c1.9-4.1,3.5-8.3,4.9-12.6
		c1.3-4.1,2.8-15.7,8.8-14.1c5.8,1.5,6.4,10.2,7.8,15c1,3.7,1.9,7.4,3,11.1c0.2,0.7,0.8,1.1,1.4,1.1c3.8,0.3,7.5,0,11.3-0.1
		c4.4-0.1,10.1-0.9,14.4,0.3C-288.6,179.1-302.9,188.1-305.8,190.3z"/>
	<path class="st0" d="M-358.8,180.4c-2.5,1.2-4.7,2.8-6.7,4.8c-1,1,0.6,2.6,1.6,1.6c1.9-1.8,3.9-3.3,6.3-4.4
		C-356.4,181.7-357.5,179.8-358.8,180.4z"/>
	<path class="st0" d="M-350.9,181.9c-3.4,1.4-6.7,3.1-9.7,5.2c-1.2,0.8-0.1,2.8,1.1,1.9c2.9-2,5.9-3.6,9.2-4.9
		C-349,183.5-349.6,181.4-350.9,181.9z"/>
</g>
<g>
	<path class="st1" d="M-157.2,186.8c-0.2-5.1-0.1-10.3,0-15.4c0.1-3.3,0.1-6.5-0.1-9.8c-0.1-2.6,0.3-5.9-0.4-8.5
		c-0.7-2.5-2.7-2.7-5-2.8c-6.1-0.3-12.2,0-18.3-0.1c-13.6-0.1-27.1-0.1-40.7-0.2c-7.1,0-14.2,0.2-21.4,0.6c-2.6,0.2-6.9-0.3-8.9,1.5
		c-1.4,1.2-1.6,3.1-1.9,4.8c-0.7,3.7-0.8,7.6-0.9,11.4c-0.3,8.3-0.2,16.5-0.7,24.8c-0.4,6.7-0.2,13.4,0,20c0.1,3.7-1.1,9.8,2.1,12.6
		c3.3,2.9,10.2,1.7,14.1,1.8c7.2,0.2,14.3,0.4,21.5,0.5c13.4,0.2,26.8-0.3,40.2,0.2c5.1,0.2,10.8,0,15.8-0.9c3-0.5,3.9-2.3,4.2-5.2
		C-156.1,210.6-156.8,198.6-157.2,186.8z M-246.7,154c1.3-0.1,2.5-0.2,3.8-0.2c5.2-0.3,10.4-0.6,15.7-0.6c11.2-0.1,22.5,0,33.7,0.1
		c4.8,0,9.7,0,14.5,0.1c5.1,0,10.6-0.6,15.7,0.1c2.4,0.3,2.5,0.5,2.9,2.9c0.4,2.2,0.3,4.8,0.3,7.1c0,0.3,0,0.7,0,1
		c-30.4-1.1-60.9-1.2-91.3-0.3c0.1-1.7,0.3-3.4,0.5-5.1C-250.5,155.7-249.9,154.3-246.7,154z M-159.9,209c-0.1,4.1,0,8.3-0.4,12.4
		c-0.2,3-1.5,2.8-4.2,3.3c-2.8,0.5-5.7,0.8-8.5,0.9c-10.5,0.2-21.1-0.2-31.7-0.2c-12.5,0-24.9-0.3-37.3-0.7
		c-3.9-0.1-9.9,0.4-10.2-4.6c-0.1-2.8-0.1-5.7-0.2-8.5c-0.2-6.1-0.4-12.2,0-18.2c0.6-8.9,0.3-18,0.8-26.9c30.5-0.9,61-0.8,91.5,0.3
		c0,4.2-0.2,8.5-0.2,12.7C-160.3,189.2-159.5,199.1-159.9,209z"/>
	<path class="st1" d="M-244.1,162.2c1.8-0.2,3.8-1.3,3.4-3.4c-0.3-1.9-1.6-3.2-3.5-3.3c-1.9,0-3.2,1.8-3.5,3.5
		C-248,161.2-246,162.5-244.1,162.2z M-245.4,159.2c0.2-0.6,0.6-1.4,1.2-1.4c0.6,0,1,0.3,1.2,0.9c0.3,0.9-0.2,1.1-1.1,1.3
		c-0.4,0.1-0.7,0.1-1.1-0.1C-245.5,159.7-245.5,159.6-245.4,159.2z"/>
	<path class="st1" d="M-234.6,162.1c2.1,0.2,3.6-1.4,3.8-3.3c0.2-2.1-1.4-3.5-3.4-3.6c-1.8-0.1-3.8,1.2-3.9,3.1
		C-238.2,160.4-236.6,162-234.6,162.1z M-235.8,158.4c0.2-0.7,1-0.9,1.6-0.9c0.7,0,1.2,0.4,1.1,1.1c-0.1,0.8-0.6,1.4-1.5,1.3
		C-235.3,159.8-236,159.1-235.8,158.4z"/>
	<path class="st1" d="M-224.5,162c1.8-0.1,3.4-1.7,3.5-3.6c0-1.9-1.8-3.5-3.7-3.5c-2,0.1-3.5,1.8-3.7,3.8
		C-228.5,160.8-226.5,162.1-224.5,162z M-224.7,157.2c1.6-0.1,1.9,2.2,0.2,2.5c-0.6,0.1-1.6-0.2-1.7-0.9
		C-226.2,158.1-225.5,157.2-224.7,157.2z"/>
	<path class="st1" d="M-218.6,176.5c-3.1-2.5-7.5-0.4-10.3,1.5c-5.2,3.6-9.6,8.2-14.5,12.2c-7.5,6.6,1.6,13.8,6.8,17.7
		c3.5,2.6,7.8,6.3,12.1,7.6c2.9,0.8,7.3-0.3,7.5-3.9c0.2-3.6-5.3-7.1-7.7-9.2c-1.5-1.3-3-2.5-4.6-3.6c-0.7-0.5-1.4-0.9-2.1-1.4
		c-1.5-1-2.1-0.8-1.2-2.3C-230.2,191.3-211.4,182.3-218.6,176.5z M-235,197.6c1.7,2.1,5.3,3.5,7.4,5.3c1.6,1.3,3.2,2.8,4.7,4.3
		c0.6,0.6,2.5,1.8,2.8,2.7c1.3,4.2-2.1,3.9-4.2,3.2c0.2-0.1,0.4-0.3,0.6-0.4c0.5-0.4,0.7-1,0.4-1.5c-0.3-0.5-1-0.8-1.5-0.4
		c-0.4,0.3-0.9,0.7-1.3,1c-0.2,0.1-0.3,0.3-0.4,0.4c-0.5-0.2-0.9-0.5-1.4-0.8c0.2-0.1,0.3-0.2,0.5-0.3c1.2-0.7,0.1-2.7-1.1-1.9
		c-0.5,0.3-0.9,0.6-1.4,1c-0.6-0.4-1.1-0.8-1.7-1.2c0.3-0.2,0.6-0.3,0.9-0.5c1.3-0.7,0.1-2.6-1.1-1.9c-0.6,0.3-1.2,0.6-1.8,0.9
		c-0.4-0.3-0.7-0.6-1.1-0.8c0.2-0.1,0.4-0.2,0.6-0.4c1.3-0.7,0.1-2.7-1.1-1.9c-0.5,0.3-0.9,0.6-1.3,0.9c-0.5-0.4-1.1-0.8-1.6-1.3
		c0.3-0.2,0.6-0.4,0.9-0.6c0.5-0.3,0.7-1,0.4-1.5c-0.3-0.6-1-0.7-1.5-0.4c-0.6,0.3-1.1,0.7-1.6,1.1c-0.4-0.4-0.8-0.7-1.2-1.1
		c0.4-0.2,0.7-0.5,1.1-0.7c1.2-0.8,0.1-2.7-1.1-1.9c-0.5,0.3-0.9,0.6-1.4,0.9c-0.5-0.7-0.9-1.5-1.2-2.3c0.4,0,0.7,0,1.1,0
		c1.4,0,1.5-2.3,0-2.3c-0.4,0-0.8,0-1.2,0c0.1-0.7,0.5-1.4,1-2.1c0.4,0.4,0.8,0.9,1.3,1.2c0.5,0.4,1.3,0.1,1.5-0.4
		c0.3-0.6,0.1-1.2-0.4-1.5c0.2,0.1-0.2-0.2-0.2-0.2c-0.1-0.1-0.3-0.3-0.4-0.4c-0.1-0.1-0.2-0.2-0.2-0.2c0.4-0.3,0.8-0.6,1.1-0.9
		c0.4,0.4,0.9,0.9,1.2,1.3c0.4,0.5,1.2,0.4,1.6,0c0.5-0.5,0.4-1.1,0-1.6c-0.3-0.4-0.7-0.8-1.1-1.2c0.5-0.5,1.1-1,1.6-1.5
		c0.4,0.4,0.9,0.8,1.3,1.2c1,1,2.6-0.6,1.6-1.6c-0.4-0.4-0.8-0.7-1.2-1.1c0.6-0.5,1.2-1.1,1.9-1.6c0.4,0.5,0.8,0.9,1.2,1.4
		c1,1.1,2.6-0.5,1.6-1.6c-0.4-0.4-0.8-0.7-1.1-1.1c0.3-0.2,0.6-0.4,0.9-0.6c0.4-0.3,0.8-0.6,1.2-0.9c0.2,0.3,0.4,0.6,0.6,0.9
		c0.4,0.5,1,0.7,1.5,0.4c0.5-0.3,0.8-1,0.4-1.5c-0.3-0.4-0.5-0.7-0.8-1.1c0.5-0.4,1-0.7,1.6-1c0,0,0.1,0.1,0.1,0.1
		c0.3,0.3,0.7,0.7,1,1c1,1,2.6-0.6,1.6-1.6c-0.2-0.2-0.4-0.4-0.6-0.6c1.4-0.5,2.6-0.5,3.5,1.2c1.2,2.2-0.1,2.7-1.5,4.2
		c-3.7,3.8-8.5,6.4-12.2,10.1C-235.7,194.8-236.3,196-235,197.6z"/>
	<path class="st1" d="M-175.7,183.2c-3.5-2.6-7.8-6.3-12.1-7.6c-2.9-0.8-7.3,0.3-7.5,3.9c-0.2,3.6,5.3,7.1,7.7,9.2
		c1.5,1.3,3,2.5,4.6,3.6c0.7,0.5,1.4,0.9,2.1,1.4c1.5,1,2.1,0.8,1.2,2.3c-2.4,3.8-21.2,12.8-14,18.6c3.1,2.5,7.5,0.4,10.3-1.5
		c5.2-3.6,9.6-8.2,14.5-12.2C-161.4,194.3-170.5,187.1-175.7,183.2z M-170.5,199.3c-3.8,3.1-7.1,6.6-11.1,9.5
		c-1.7,1.2-3.3,2.8-5.2,3.7c-2,1-3.8,1.8-5-0.5c-0.5-0.9-0.5-1.6-0.3-2.1c0.5,0.4,1.1,0.9,1.6,1.3c0.5,0.4,1.3,0.1,1.5-0.4
		c0.3-0.6,0.1-1.2-0.4-1.5c-0.5-0.3-0.9-0.7-1.3-1c0.1-0.1,0.3-0.3,0.4-0.4c0.3-0.3,0.7-0.7,1-1c0.5,0.5,0.9,1,1.4,1.4
		c0.5,0.4,1.1,0.5,1.6,0c0.4-0.4,0.5-1.2,0-1.6c-0.5-0.4-0.9-0.9-1.3-1.3c0.5-0.4,1.1-0.9,1.6-1.3c0.5,0.6,0.9,1.2,1.4,1.7
		c1,1,2.6-0.6,1.6-1.6c-0.5-0.5-0.9-1-1.3-1.5c0.5-0.3,0.9-0.7,1.4-1c0.4,0.4,0.8,0.8,1.2,1.3c0.4,0.5,1.2,0.4,1.6,0
		c0.5-0.5,0.4-1.1,0-1.6c-0.3-0.4-0.6-0.7-1-1.1c0.6-0.5,1.2-1,1.7-1.5c0.3,0.2,0.6,0.4,0.8,0.7c1,1.1,2.6-0.5,1.6-1.6
		c-0.2-0.2-0.5-0.5-0.7-0.7c0.4-0.5,0.7-0.9,0.8-1.4c0.5,0,0.9,0.1,1.4,0.1c0.6,0,1.1-0.5,1.1-1.1c0-0.6-0.5-1.1-1.1-1.1
		c-0.7,0-1.3-0.1-2-0.1c0,0,0,0,0,0c-0.3-0.4-0.6-0.7-1-1c0.4-0.2,0.7-0.3,1.1-0.5c0.5-0.3,0.7-1,0.4-1.5c-0.3-0.6-1-0.7-1.5-0.4
		c-0.7,0.3-1.4,0.6-2,1c-0.4-0.2-0.7-0.4-1.1-0.7c0.3-0.1,0.6-0.3,0.9-0.4c0.5-0.3,0.7-1,0.4-1.5c-0.3-0.6-1-0.7-1.5-0.4
		c-0.6,0.3-1.2,0.6-1.8,0.9c-0.1,0-0.1,0.1-0.1,0.1c-0.4-0.2-0.7-0.5-1-0.7c-0.1-0.1-0.3-0.2-0.4-0.3c0.4-0.2,0.9-0.5,1.3-0.7
		c0.6-0.3,0.7-1,0.4-1.5c-0.3-0.6-1-0.7-1.5-0.4c-0.7,0.3-1.3,0.7-1.9,1c-0.4-0.4-0.9-0.8-1.3-1.2c0.2-0.2,0.5-0.3,0.8-0.4
		c0.6-0.2,1-0.7,0.8-1.4c-0.1-0.5-0.8-1-1.4-0.8c-0.7,0.3-1.3,0.6-1.8,1c-0.3-0.3-0.7-0.5-1.1-0.9c0.3-0.2,0.6-0.5,0.9-0.6
		c1.3-0.7,0.1-2.6-1.1-1.9c-0.4,0.2-0.8,0.5-1.1,0.8c-1-4,2.7-3.5,4.7-2.7c4,1.5,7.9,4.8,11.3,7.4
		C-172.4,188.5-164.5,194-170.5,199.3z"/>
	<path class="st1" d="M-203.3,175.2c-3.3-0.1-4.3,2.8-5.2,5.6c-2,6.1-3.6,12.4-4.8,18.7c-0.6,3.3-4.8,17.5,2.8,16.6
		c3-0.3,4.8-3.5,5.8-6c2-5.3,3-11.1,4.2-16.6c0.6-2.7,1.1-5.4,1.6-8.1c0.4-1.8,1.3-4.2,1.1-6.1
		C-198.2,176.3-200.4,175.3-203.3,175.2z M-203.3,196.1c-0.6,2.5-1.2,4.9-1.8,7.3c-0.8,3.1-1.5,9.3-5.3,9.2
		c-2.1-0.1-2.2-0.3-2.1-1.6c0.3,0,0.5,0.1,0.8,0.2c0.6,0.2,1.2-0.2,1.4-0.8c0.2-0.6-0.2-1.2-0.8-1.4c-0.4-0.1-0.8-0.2-1.3-0.3
		c0-0.4,0.1-0.8,0.2-1.2c0.5,0.1,1,0.2,1.5,0.2c1.4,0,1.4-2.2,0-2.3c-0.4,0-0.8-0.1-1.2-0.1c0-0.2,0.1-0.5,0.1-0.7
		c0-0.1,0-0.2,0.1-0.4c0.5,0.1,1,0.1,1.5,0.3c1.4,0.4,2-1.8,0.6-2.2c-0.6-0.1-1.1-0.2-1.7-0.3c0.1-0.7,0.2-1.3,0.3-2
		c0.6,0.1,1.3,0.2,1.9,0.5c0.6,0.2,1.2-0.2,1.4-0.8c0.2-0.6-0.2-1.2-0.8-1.4c-0.7-0.2-1.3-0.4-2-0.5c0.1-0.5,0.2-1,0.3-1.5
		c0.5,0.1,1,0.2,1.5,0.4c1.4,0.3,2-1.8,0.6-2.2c-0.6-0.1-1.1-0.3-1.7-0.4c0.1-0.5,0.2-1,0.3-1.6c0.4,0.1,0.7,0.2,1.1,0.3
		c1.4,0.4,2-1.8,0.6-2.2c-0.4-0.1-0.8-0.2-1.2-0.3c0.1-0.3,0.1-0.6,0.2-0.9c0.6,0.1,1.3,0.3,1.9,0.4c0.6,0.1,1.2-0.2,1.4-0.8
		c0.2-0.6-0.2-1.3-0.8-1.4c-0.7-0.1-1.3-0.3-2-0.4c0.1-0.4,0.2-0.9,0.3-1.3c0.4,0.1,0.9,0.2,1.3,0.3c1.4,0.4,2-1.8,0.6-2.2
		c-0.4-0.1-0.9-0.2-1.3-0.3c0.1-0.3,0.2-0.6,0.3-0.8c0.4,0.1,0.8,0.2,1.2,0.3c0.6,0.2,1.2-0.2,1.4-0.8c0.2-0.6-0.2-1.2-0.8-1.4
		c-0.3-0.1-0.7-0.2-1-0.3c0.1-0.3,0.3-0.6,0.4-0.9c0.3,0.2,0.7,0.3,1.1,0.3c0.6,0.1,1.2-0.1,1.4-0.8c0.1-0.5-0.2-1.3-0.8-1.4
		c-0.1,0-0.2-0.1-0.4-0.1c0.4-0.4,0.9-0.6,1.3-0.6C-197.9,177.6-202.7,193.5-203.3,196.1z"/>
</g>
<g>
	<path class="st1" d="M-20.8,78.2c-1.7-2.3-4.3-4.1-6.6-5.8c-3.2-2.4-6-5.3-9.1-7.9c4-2.8,3-10.9,2.9-15.1
		c-0.1-8.8-0.4-17.6-0.7-26.4c-0.1-2.5,0-5.4-2.4-7.1c-2.5-1.8-7.8-1.1-10.9-1.3c-8.6-0.7-17.3,0.3-25.9,0c-9.7,0.1-19.4,0.1-29,0.2
		c-2.6,0-5.1-0.3-6.8,2c-2.2,2.9-1.7,7.3-1.6,10.7c0.4,10.7-0.6,21.5,0.1,32.3c0.2,2.4,1.2,3.9,2.7,4.9c-4,2.8-8.1,5.5-12,8.6
		c-2.8,2.3-6.1,4.4-6.1,8.3c0,3.4,1.6,5.2,4.9,5.6c6.6,0.8,13.5,0.5,20.1,0.3c15.2-0.6,30.4-0.1,45.7-0.5c6.6-0.2,13.2,0,19.8,0.1
		c4,0,11.3,1.5,14.4-1.9C-19.4,83.2-19.3,80.3-20.8,78.2z M-107.9,51.5c-0.1-4.6-0.3-9.2-0.1-13.7c0.1-4.2,0.3-8.4,0.2-12.6
		c-0.1-2.7,0-6.3,3.2-7.3c1.7-0.6,4.5,0,6.4,0c8.3,0,16.7-0.1,25-0.1c5.4,0.2,10.8,0.3,16.1,0c4-0.2,18.4-1.6,19.9,3.3
		c0.5,1.7,0.1,4.2,0.1,6c0,4,0.1,8.1,0.3,12.1c0.1,3.2,0.3,6.4,0.4,9.6c0,2,0,4,0,6c-0.1,2.9,0.4,5.3-2.2,6.8
		c-2.9,1.7-8.1,0.8-11.5,0.7c-3.7,0-7.5-0.1-11.2-0.1c-7.3,0.1-14.6,0.5-21.9,0.6c-3.5,0-7-0.1-10.6,0c-3.2,0.1-8.7,1.4-11.7-0.2
		C-108.9,60.8-107.8,54.5-107.9,51.5z M-24.6,83.9c-2.3,1.1-7.7,0.2-10.2,0.2C-47.9,84-61,83.6-74,83.8c-13.6,0.2-27.2,1-40.8,0.7
		c-2.6-0.1-7.9,0.6-8.2-2.9c-0.2-2.2,2-3.6,3.5-4.9c4.5-3.9,9.7-7.1,14.6-10.6c0.1-0.1,0.2-0.2,0.3-0.3c2.4,0.4,5,0.2,7.4,0.1
		c9.5-0.5,19-0.3,28.5-0.6c4.7-0.2,9.4-0.3,14.1-0.2c4.7,0.1,9.9,0.7,14.6,0.4c0,0,0,0.1,0.1,0.1c4.9,3.9,9.9,8.1,14.5,12.2
		C-23.6,79.4-20.6,82-24.6,83.9z"/>
	<path class="st1" d="M-101.6,58.9c9.8-0.2,19.6-0.1,29.3-0.6c9.8-0.4,19.9-0.9,29.8-0.3c0.6,0,1.1-0.5,1.1-1.1
		c-0.3-11.1-0.3-22.2-0.8-33.3c0-0.6-0.5-1.1-1.1-1.1c-19.6,0.2-39.2-0.2-58.8,0c-0.3,0-0.5,0.1-0.6,0.2c-0.3,0.2-0.5,0.5-0.5,0.9
		c0.2,11.4,0.3,22.8,0.5,34.2C-102.7,58.4-102.2,58.9-101.6,58.9z M-44.4,24.7c0.4,10.4,0.5,20.7,0.7,31c-9.4-0.5-19.2,0-28.6,0.4
		c-9.4,0.4-18.8,0.4-28.2,0.5c-0.2-10.7-0.3-21.3-0.5-32C-82.1,24.5-63.3,24.9-44.4,24.7z"/>
	<path class="st1" d="M-62.1,73.7c-0.2-0.5-0.5-0.8-1.1-0.8c-6.2-0.4-12.3,0.2-18.5,0.2c-0.5,0-0.9,0.4-1.1,0.8
		c-0.8,2-1.4,3.8-1.8,5.9c0,0.2,0,0.5,0.1,0.7c0.1,0.4,0.5,0.8,1,0.8c7.4,0,15.3,0.6,22.7-0.6c0.6-0.1,1-0.9,0.8-1.4
		C-60.8,77.4-61.4,75.6-62.1,73.7z M-82.1,79c0.3-0.9,0.6-1.9,0.7-2.8c0.1-0.3,0.2-0.6,0.4-0.9c0,0,0.1,0,0.1,0
		c2.9-0.2,5.9-0.2,8.9-0.3c2.6-0.1,5.4-0.3,8,0.1c0,0,0,0,0,0c0.1,0.3,0.3,0.7,0.4,1c0.1,0.8,0.5,1.7,0.8,2.5
		C-69,79.5-75.7,79.1-82.1,79z"/>
	<path class="st1" d="M-73.2,21.1c1.4,0,1.5-2.3,0-2.3C-74.7,18.9-74.7,21.1-73.2,21.1z"/>
	<path class="st1" d="M-99.2,28.5c0.9,1.4,1.8,2.7,2.7,3.9c0.4,0.5,1,0.7,1.5,0.4c0.5-0.3,0.8-1.1,0.4-1.5c-1-1.3-1.9-2.6-2.7-3.9
		C-98,26.2-100,27.3-99.2,28.5z"/>
	<path class="st1" d="M-92,32.2c1,1.1,2.6-0.5,1.6-1.6c-1.2-1.2-2.3-2.5-3.5-3.7c-1-1.1-2.6,0.5-1.6,1.6C-94.4,29.7-93.2,31-92,32.2
		z"/>
</g>
<g>
	<path class="st0" d="M-23.8,176.8c-0.7-0.3-1.6-0.5-2.5-0.5c0.4-4.8,0.9-9.6,1.7-14.4c0,0,0,0,0,0c1.1-0.2,2.1-0.4,2.7-1
		c3-2.4,2.5-11.9-2.1-12.3c-5.7-0.2-11.4-0.2-17-0.2c-3.1,0-8.3-1-11.1,0.5c-2.6,1.4-2.4,5.2-2.4,7.7c0.1,2.9,0.6,4.5,3.6,4.8
		c0.3,4.7,0.7,9.4,1.3,14.2c0,0.1,0,0.1,0,0.2c-2.2-0.1-4.4-0.1-6.6-0.1c-2.6,0-9.2-1.2-11.3,0.6c-1.4,1.2-1.5,5.3,0,6.5
		c0.5,0.4,1.4,0.6,2.3,0.7c0,0.1,0,0.2,0,0.3c-1.5,0-2.9,0-4.4,0c-0.9-0.9-2.5-1.1-3.8-1.2c-1.7,0-2.8,0.4-3.3,1.3
		c-1.3,0-2.7-0.1-4-0.2c0-0.1,0-0.1,0-0.2c0.9-0.1,1.6-0.2,2.2-0.6c1.6-1.2,1.7-5.3,0.2-6.5c-2.2-1.8-8.6-0.6-11.3-0.6
		c-2.2,0-4.4,0-6.6,0.1c0-0.1,0-0.1,0-0.2c0.4-4.7,1-9.4,1.3-14.2c3-0.3,3.5-1.9,3.6-4.8c0.1-2.3,0.2-6.2-2-7.6
		c-2.7-1.7-8.3-0.6-11.4-0.7c-5.7-0.1-11.4,0-17,0.2c-4.6,0.4-5,9.7-2.2,12.2c0.6,0.6,1.6,0.9,2.8,1c0,0,0,0,0,0
		c0.9,4.8,1.3,9.6,1.7,14.4c-0.9,0.1-1.8,0.2-2.5,0.5c-2.2,1.1-2.7,4.7-0.7,6.3c0.6,0.5,1.8,0.8,3,1c1.1,6.5,1.6,13.1,2.8,19.5
		c-0.6,0.1-1.2,0.3-1.5,0.6c-1.5,1.3-1.5,5.2,0,6.5c1.9,1.7,8.9,0.6,11.1,0.6c2.2,0,4.5-0.1,6.7-0.3c0.3,2.9,0.2,5.8,0.2,8.7
		c-0.1,0-0.2,0-0.3,0.1c-3.3,1.1-3.3,8.1-0.6,9.9c1.8,1.3,5.8,0.5,7.9,0.5c4.3,0.1,8.7,0,13-0.1c3.6-0.4,4.2-7.5,1.9-9.6
		c-0.5-0.5-1.2-0.7-2-0.9c-0.1-3.1-0.1-6.2-0.1-9.3c2.1-0.9,3.2-3.6,1.6-5.7c-0.4-0.5-0.9-0.9-1.6-1.1c0-0.1,0-0.2,0-0.3
		c0.5,0,0.9-0.1,1.4-0.1c0.8,0,1.5,0,2.3,0.1c0.3,1.3,0.8,1.5,2.2,1.6c1.3,0.2,4.6,0.4,5.6-0.8c0.2-0.2,0.3-0.5,0.3-0.8
		c1.1,0,2.3,0.1,3.5,0c0,0.1,0,0.1,0,0.2c-0.7,0.3-1.2,0.6-1.6,1.1c-1.6,2.2-0.5,4.8,1.6,5.7c-0.2,3.1,0,6.2,0,9.3
		c-0.8,0.2-1.4,0.4-1.9,0.8c-2.5,2-1.8,9.3,1.8,9.7c4.2,0.1,8.4,0.2,12.5,0.1c2.3,0,6,0.7,8.1-0.4c3-1.6,3-8.9-0.3-10
		c-0.1,0-0.2,0-0.3-0.1c0-2.9-0.1-5.8,0.2-8.7c2.2,0.1,4.5,0.3,6.7,0.3c2.2,0,9.2,1.1,11.1-0.6c1.4-1.3,1.6-5.2,0-6.5
		c-0.4-0.3-0.9-0.5-1.5-0.6c1.3-6.5,1.9-13,2.8-19.6c1.3-0.2,2.4-0.4,3-1C-21.1,181.5-21.6,177.9-23.8,176.8z M-52.2,157.7
		c-0.3-0.7,0-2.1,0-2.8c0.1-1,0.2-1.8,0.5-2.5c0.6,1.1,1.1,2.3,1.7,3.4c0.6,1.3,2.6,0.2,1.9-1.1c-0.6-1.2-1.2-2.5-1.8-3.7
		c0.2-0.1,0.5-0.1,0.8-0.2c0.8,1.2,1.6,2.4,2.4,3.6c0.8,1.2,2.7,0.1,1.9-1.1c-0.6-0.9-1.2-1.8-1.8-2.7c0.4,0,0.8,0,1.2,0
		c0,0,0,0,0,0c0.7,1,1.3,2,1.8,3.1c0.3,0.5,1,0.7,1.5,0.4c0.6-0.3,0.7-1,0.4-1.5c-0.3-0.6-0.7-1.3-1-1.9c0.5,0,0.9,0,1.4,0
		c0,0.1,0.1,0.2,0.2,0.3c0.8,0.9,1.5,1.9,2.2,2.9c0.8,1.2,2.7,0.1,1.9-1.1c-0.5-0.7-1-1.4-1.5-2.1c0.6,0,1.1,0,1.7,0
		c0,0.1,0.1,0.1,0.1,0.2c0.8,0.9,1.4,1.9,2,2.9c0.7,1.3,2.6,0.2,1.9-1.1c-0.4-0.7-0.8-1.4-1.2-2c0.5,0,0.9,0,1.4,0
		c0.6,1,1.3,2,2,2.9c0.4,0.5,1,0.7,1.5,0.4c0.5-0.3,0.8-1.1,0.4-1.5c-0.4-0.6-0.8-1.1-1.3-1.7c0.4,0,0.9,0,1.3,0c0,0,0,0,0,0.1
		c0.8,1.3,1.6,2.6,2.6,3.8c0.4,0.5,1.2,0.4,1.6,0c0.5-0.5,0.4-1.1,0-1.6c-0.5-0.7-1-1.4-1.5-2.2c0.6,0,1.2,0,1.7,0
		c1.3,0.1,1.4,4.1,1.2,5.1c-0.3,1.7-0.8,2.8-2.7,3.3c-2.6,0.7-6.2,0.1-8.8,0.1c-3.1,0-6.1,0-9.2,0C-45.7,159.3-51,160.2-52.2,157.7z
		 M-46.6,175.6c-0.5-4.6-1-9.3-1.2-13.9c4.5,0.2,9.1-0.1,13.5-0.1c1.6,0,4.2,0.3,6.7,0.4c-0.8,4.7-1.3,9.5-1.7,14.3
		c-0.4,0-0.7,0-1,0c-3.2-0.1-6.4,0.1-9.7,0c-2.2-0.1-4.4-0.2-6.6-0.3C-46.6,175.9-46.6,175.8-46.6,175.6z M-68.6,194.6
		c0-1.5-0.1-3-0.2-4.5c1.2,0,2.4,0,3.6,0.1c0,2,0,4.1,0,6.1c-0.4,0-0.9,0-1.4,0.1c-0.7,0-1.3,0-2,0
		C-68.6,195.7-68.6,195.2-68.6,194.6z M-65.2,186c0,0.6,0,1.3,0,1.9c-1.2-0.1-2.4-0.1-3.6-0.1c0-0.5,0.1-1.2,0.1-1.8
		C-67.6,186-66.4,186-65.2,186z M-80.6,196.2c0-2.2,0-4.4,0-6.6c1.1-0.1,2.2,0,3.3,0.1c0,0.7,0.1,1.4,0.1,2c0,1.4-0.1,3-0.1,4.6
		C-78.4,196.4-79.5,196.3-80.6,196.2z M-77.3,186c0,0.5-0.1,0.9,0,1.4c-1.1-0.1-2.2-0.2-3.3-0.1c0-0.5,0-1,0-1.5
		C-79.6,186-78.4,186-77.3,186z M-105.8,176.3c-3.2,0.1-6.4,0-9.7,0c-0.3,0-0.6,0-1,0c-0.4-4.8-0.9-9.6-1.7-14.3
		c2.5,0,5.2-0.4,6.7-0.4c4.4,0,9.1,0.3,13.5,0.1c-0.3,4.7-0.8,9.3-1.2,13.9c0,0.1,0,0.2,0,0.3C-101.4,176.1-103.6,176.2-105.8,176.3
		z M-123,155.9c-0.1-0.4-0.1-1.4,0-2.3c0.3,0.4,0.5,0.8,0.8,1.1c0.3,0.5,1,0.7,1.5,0.4c0.5-0.3,0.8-1,0.4-1.5
		c-0.6-0.9-1.2-1.8-1.9-2.6c0.1-0.1,0.2-0.2,0.4-0.2c0.3,0,0.7,0,1,0c0.9,1.3,1.8,2.5,2.8,3.7c0.9,1.1,2.5-0.5,1.6-1.6
		c-0.6-0.7-1.1-1.4-1.7-2.2c0.4,0,0.9,0,1.3,0c0.8,1.2,1.6,2.3,2.6,3.4c1,1.1,2.5-0.5,1.6-1.6c-0.5-0.6-1-1.2-1.5-1.9
		c0.6,0,1.1,0,1.7,0c0.7,1.2,1.5,2.4,2.4,3.5c0.4,0.5,1,0.7,1.5,0.4c0.5-0.3,0.8-1.1,0.4-1.5c-0.6-0.8-1.1-1.5-1.6-2.3
		c0.6,0,1.1,0,1.7,0c0.5,0.9,1.1,1.8,1.6,2.7c0.8,1.2,2.7,0.1,1.9-1.1c-0.3-0.5-0.6-1-0.9-1.6c0.2,0,0.4,0,0.6,0c0.3,0,0.7,0,1,0
		c0.7,1.1,1.4,2.2,2.2,3.2c0.4,0.5,1,0.7,1.5,0.4c0.5-0.3,0.8-1.1,0.4-1.5c-0.5-0.7-1-1.4-1.5-2.1c0.5,0,1.1,0,1.6,0
		c0.1,0.1,0.1,0.3,0.2,0.4c0.8,1.1,1.7,2.1,2.5,3.2c0.4,0.5,1.2,0.4,1.6,0c0.5-0.5,0.4-1.1,0-1.6c-0.4-0.6-0.9-1.1-1.3-1.7
		c1.9,0.4,2.7,1.2,2.8,3.3c0.1,0.7,0.3,2.8,0,3.4c-1.1,2.4-5.7,1.6-7.8,1.6c-3.3,0-6.7,0.1-10,0c-2.5,0-5.6,0.4-8.1-0.1
		C-121.7,158.8-122.6,158.2-123,155.9z M-120.7,179.5c1-1.1,0.9-0.6,1.9-0.8c3.9-0.9,8.9,0,13-0.1c6.7-0.2,13.4-0.4,20.2-0.5
		c1.2,0,2.7-0.3,3.9,0c2.3,0.5,2.8,2.4,0.2,3c-3.7,0.9-8.6,0.7-12.4,0.7c-6.6-0.1-13.2,0.4-19.8,0.1c-1.7-0.1-3.6,0-5.2-0.3
		C-120.5,181.1-121.9,180.9-120.7,179.5z M-111,184.1c5.5,0.1,10.9-0.2,16.4-0.2c3.3,0.1,6.5-0.2,9.7-0.4c0.4,0,0.8,0,1.2,0
		c0,6.5,0.1,13,0.1,19.6c-2.1-0.1-4.4,0.1-5.8,0.1c-4.9-0.2-9.8,0.2-14.6,0.1c-3,0-5.8-0.1-8.8,0.2c-0.3,0-0.7,0-1.1,0
		c0-0.2,0-0.4,0-0.6c-1.1-6.2-1.6-12.5-2.6-18.7C-114.4,184.2-112.3,184.1-111,184.1z M-111.6,209c-1.4,0-7.2,0.7-5.5-2.2
		c1.4-2.3,10-1.4,12.1-1.3c6,0.1,11.9-0.4,17.9,0c1.5,0.1,4.4-0.2,5.4,0.9c1.7,1.8-1.3,2.2-3,2.2c-4,0.1-8,0-11.9,0
		C-101.6,208.8-106.6,209-111.6,209z M-96.5,210.9c4.1-0.1,8.7,0.6,12.9,0.1c-0.1,2.8,0,5.7,0.1,8.5c-1.8,0.1-3.6,0.3-4.7,0.3
		c-2.3,0-4.7,0-7,0c-0.6,0-1.4-0.1-2.2-0.1c0-2.9,0.1-5.8-0.2-8.7c0,0,0-0.1,0-0.1C-97.3,210.9-96.9,210.9-96.5,210.9z M-80.4,228
		c-4,0.1-8,0.1-12,0.1c-3.2,0-9.3,0.9-8.3-4.1c0,0,0,0,0-0.1c0.2,0.3,0.4,0.6,0.6,1c0.7,1.2,2.7,0.1,1.9-1.1c-0.3-0.5-0.6-1-0.9-1.4
		c0.4-0.1,0.8-0.2,1.3-0.3c0,0,0,0.1,0.1,0.1c0.4,0.5,0.8,1,1.1,1.6c0.7,1.3,2.7,0.1,1.9-1.1c-0.1-0.3-0.3-0.5-0.5-0.7
		c0.6,0,1.2,0,1.8,0.1c0,0.1,0.1,0.1,0.1,0.2c0.4,0.6,0.7,1.2,1.1,1.7c0.3,0.5,1,0.7,1.5,0.4c0.5-0.3,0.8-1,0.4-1.5
		c-0.1-0.2-0.3-0.4-0.4-0.6c0.3,0,0.6,0,0.8,0c0.6,0,1.1,0,1.7,0c0,0,0,0,0,0c0.3,0.6,0.6,1.1,0.9,1.7c0.7,1.3,2.7,0.1,1.9-1.1
		c-0.1-0.2-0.2-0.4-0.4-0.6c0.4,0,0.9,0,1.3,0c0,0,0,0,0,0.1c0.4,0.6,0.7,1.2,1,1.9c0.3,0.6,1.1,0.7,1.5,0.4c0.6-0.3,0.7-1,0.4-1.5
		c-0.1-0.1-0.1-0.2-0.2-0.3c0.8,0.3,1.3,0.7,1.6,2.3C-79.7,225.2-79.6,227.9-80.4,228z M-80.6,201.1c0-0.9,0-1.7,0-2.6
		c1.1,0.1,2.1,0.2,3.2,0.2c0,0.8,0.1,1.6,0.1,2.4c-0.6-0.1-1.3-0.1-1.9-0.1C-79.6,201-80.1,201-80.6,201.1z M-70.8,201
		c-0.4,1.8-2.3,2.6-3.5,1.2c-1.4-1.6-0.6-7.1-0.6-9.2c0-2-1-8.3,1.7-8.2c2.8,0.1,2.2,2.8,2.2,4.9c0.1,1.6,0.1,3.2,0.2,4.8
		C-70.8,196.5-70.4,199.1-70.8,201z M-68.6,201.2c0-0.9,0-1.7,0-2.6c0.5,0,1,0,1.6,0c0.6,0,1.2-0.1,1.7-0.1c0,0.9,0,1.8,0,2.6
		C-66.3,201.3-67.5,201.2-68.6,201.2z M-45,223.9c1.1,4.9-4.6,4.1-7.8,4.1c-4.2,0-8.4,0-12.5-0.1c-0.8-0.1-0.7-2.4-0.7-2.8
		c0.1-0.6,0.2-1.1,0.4-1.5c0.2,0.3,0.3,0.5,0.5,0.8c0.3,0.5,1,0.7,1.5,0.4c0.5-0.3,0.7-1,0.4-1.5c-0.2-0.4-0.5-0.7-0.7-1.1
		c0.1,0,0.1,0,0.1-0.1c0.4-0.1,0.8-0.2,1.3-0.2c0.6,1,1.2,1.9,1.8,2.8c0.4,0.5,1,0.7,1.5,0.4c0.5-0.3,0.8-1,0.4-1.5
		c-0.4-0.5-0.8-1.1-1.1-1.6c0.5,0,1,0.1,1.5,0.1c0.5,0.7,1,1.4,1.4,2c0.4,0.5,1,0.7,1.5,0.4c0.5-0.3,0.8-1,0.4-1.5
		c-0.2-0.3-0.4-0.6-0.6-0.9c0.4,0,0.9-0.1,1.5-0.1c0,0,0,0,0,0c0.4,0.6,0.8,1.3,1.2,2c0.7,1.2,2.7,0.1,1.9-1.1
		c-0.2-0.3-0.4-0.7-0.6-1c0.5,0,0.9,0,1.4,0c0.4,0.9,0.8,1.8,1.3,2.6c0.7,1.2,2.7,0.1,1.9-1.1c-0.2-0.4-0.4-0.8-0.6-1.2
		C-46.2,222.4-45.2,222.9-45,223.9z M-48.2,211c-0.3,2.8-0.1,5.6-0.2,8.4c-2.8-0.1-6.1,0.3-8.4,0.4c-1.3,0-3.5-0.3-5.5-0.3
		c0-2.8-0.1-5.6,0-8.4c4.2,0.5,8.9-0.2,13-0.1c0.4,0,0.7,0,1.1,0C-48.2,211-48.2,211-48.2,211z M-33.9,209c-5.1,0-10.2-0.2-15.3-0.4
		c-3.7-0.1-7.4,0.1-11.1,0c-0.9,0-4.9,0.1-4.7-1.7c0.2-1.5,4.7-1.4,5.8-1.4c6.1-0.4,12.3,0.1,18.4,0c2.8-0.1,9-1,11.3,0.9
		C-26,209.2-32.1,209-33.9,209z M-31.8,202.9c0,0.2,0,0.4,0,0.6c-0.4,0-0.8,0-1.1,0c-3-0.3-5.8-0.2-8.8-0.2
		c-4.9,0.1-9.8-0.3-14.6-0.1c-1.4,0.1-3.7-0.2-5.8-0.1c0-6.5-0.1-13.1,0.1-19.6c0.5,0,0.9,0,1.2,0c3.2,0.2,6.5,0.5,9.7,0.4
		c5.3-0.1,10.6,0.2,15.9,0.2c1.4,0,3.7,0.2,6.1,0.1C-30,190.5-30.6,196.7-31.8,202.9z M-26,181.4c-1.5,0.5-3.9,0.3-5.5,0.4
		c-6.8,0.3-13.5-0.2-20.3,0c-3.8,0.1-8,0-11.8-0.6c-2.3-0.4-3.6-2-0.9-3.1c1.1-0.4,2.9,0,4,0c6.8,0.1,13.6,0.3,20.5,0.5
		c4,0.1,8.8-0.7,12.7,0.1C-25.6,179-22.8,180.3-26,181.4z"/>
	<path class="st0" d="M-108.5,196.1c0.9,1.1,2.5-0.5,1.6-1.6c-1.3-1.7-2.8-3.3-4.3-4.8c-1-1-2.6,0.6-1.6,1.6
		C-111.2,192.8-109.8,194.4-108.5,196.1z"/>
	<path class="st0" d="M-103.7,195.9c0.9,1.1,2.8,0,1.9-1.1c-1.4-1.9-2.8-3.8-4.2-5.6c-0.9-1.1-2.8,0-1.9,1.1
		C-106.5,192.2-105.1,194-103.7,195.9z"/>
</g>
<g>
	<path class="st1" d="M-34.4,288.1c-5.1-4.7-9.9-6.1-16.4-3.4c-5.8,2.4-10.3,7.6-14.8,11.7c-6.8,6.2-13.4,12.7-19.9,19.3
		c-6.2,6.4-12.4,12.9-18.4,19.5c-2.7,2.9-5.7,5.9-8,9.1c-0.1,0.1-0.2,0.2-0.2,0.3c-0.1,0.1-0.2,0.3-0.2,0.4
		c-1.6,3.2-2.3,7.2-3.1,10.6c-1.3,5.5-2.3,11.1-2.8,16.7c-0.1,1.1,1,1.6,1.9,1.4c8.8-1.4,17.4-3.3,26.2-4.9c3.6-0.6,5.1-3.1,7.6-5.7
		c4.2-4.3,8.3-8.7,12.5-13c7.7-8.1,15.4-16.1,23.3-24c6.5-6.5,15.6-13.6,18.7-22.6C-25.9,297.1-29.8,292.5-34.4,288.1z M-43.7,319.3
		c-3.6-3-6.3-6.4-9.5-9.8c-3.4-3.6-7-7-10.7-10.3c0.7-0.6,1.3-1.2,2-1.8c6.8,6.7,13.4,13.4,20,20.2
		C-42.5,318.1-43.1,318.7-43.7,319.3z M-51.8,327.1c-6.3-7.2-13.8-13.3-21-19.6c0.6-0.6,1.2-1.1,1.8-1.7c7.6,5.6,14.1,13,20.8,19.7
		c-0.3,0.3-0.5,0.5-0.8,0.8C-51.2,326.5-51.5,326.8-51.8,327.1z M-90.5,355.8C-90.5,355.8-90.5,355.8-90.5,355.8
		c-2.9,0.2-5.7,0.2-8.6,0.3c-0.1-2.2-0.1-5.6-0.9-7.7c5.1-5,9.6-10.6,14.5-15.8c5.5-5.9,11.4-11.6,17.1-17.3c3,2.6,5.9,5.2,8.7,8
		C-69.6,334.4-79.8,345.3-90.5,355.8z M-65.6,300.6c0.5,0.5,1.1,1,1.6,1.5c-1.1,1.2-2.2,2.4-3.4,3.5c-0.6-0.5-1.3-1-1.9-1.5
		C-68.1,303-66.8,301.8-65.6,300.6z M-58.3,313.9c1.2-0.9,2.3-1.9,3.3-3c0,0,0.1,0.1,0.1,0.1c0.6,0.7,1.2,1.3,1.8,2
		c-0.9,1.1-2,2.1-3.1,3.1C-56.8,315.3-57.5,314.6-58.3,313.9z M-59.9,312.3c-0.6-0.6-1.2-1.2-1.9-1.8c1-1.1,2.1-2.2,3.2-3.3
		c0.7,0.7,1.4,1.4,2,2C-57.6,310.4-58.7,311.4-59.9,312.3z M-63.4,309c-0.7-0.7-1.5-1.3-2.2-2c1.2-1.1,2.3-2.2,3.3-3.4
		c0.7,0.7,1.5,1.4,2.2,2C-61.3,306.8-62.3,307.9-63.4,309z M-54.5,317.7c1.1-0.9,2.1-1.9,3-3c0.7,0.7,1.3,1.5,2,2.2
		c-1,1-2,2-2.9,3.1C-53.1,319.2-53.8,318.4-54.5,317.7z M-91.9,326.7c5.5-5.8,11.2-11.6,17-17.2c1.6,1.4,3.3,2.8,4.9,4.3
		c-5.7,5.7-11.5,11.3-17,17.2c-4.9,5.3-9.4,10.8-14.5,15.8c-0.9-0.3-2-0.3-2.6-0.4c-1.6-0.3-3.3-0.5-5-0.8
		C-104.3,338.8-97.6,332.7-91.9,326.7z M-103.3,368.7c-2.4-3-6.1-6.8-9.8-9.8c0.2-0.8,0.3-1.6,0.5-2.4c0.6-2.8,1.2-6.1,2.3-8.8
		c2.4,0.2,6.1,0.3,8.2,1.3c-0.8-0.3,0,1.5,0.1,2.7c0.2,1.8,0.4,3.7,0.7,5.5c0.1,0.6,0.5,1.2,1.1,1.1c2.1-0.1,4.3,0.1,6.4-0.1
		c2.3-0.2,2.2-0.7,2.5,1.6c0.2,2.1,0.4,4.1,0.5,6.2c-0.3,0.1-0.5,0.2-0.8,0.2C-95.4,367.2-99.3,368-103.3,368.7z M-71,346.9
		c-3.6,3.7-7.1,7.4-10.7,11.2c-2.2,2.3-4.2,5.1-6.8,6.8c-0.2-2.4-0.4-4.8-0.7-7.1c10.8-10.6,21.1-21.7,31.3-32.9
		c1.4,1.4,2.8,2.9,4.1,4.4C-59.6,335.1-65.3,341-71,346.9z M-48.5,323.8c-0.8-0.8-1.5-1.5-2.3-2.3c0.9-1.1,1.9-2.1,2.9-3.1
		c0.8,0.8,1.7,1.6,2.6,2.3C-46.4,321.8-47.5,322.8-48.5,323.8z M-31.8,304.7c-1.9,3.8-4.8,7.3-8,10.6c-6.6-6.8-13.2-13.5-19.9-20.1
		c0.1-0.1,0.3-0.3,0.4-0.4c4.5-4.1,10.2-10.2,17-8.3c3.2,0.9,5.7,3.6,7.9,6C-30.9,296.3-29.3,299.6-31.8,304.7z"/>
	<path class="st1" d="M-50.3,292.5c-0.3-1.4-2.4-0.8-2.2,0.6c0.4,2,0.9,4,1.6,6c0.5,1.4,2.6,0.8,2.2-0.6
		C-49.4,296.5-49.9,294.5-50.3,292.5z"/>
	<path class="st1" d="M-46.5,291.7c-0.5-1.4-2.6-0.8-2.2,0.6c0.6,1.7,1.1,3.4,1.7,5.1c0.5,1.4,2.6,0.8,2.2-0.6
		C-45.4,295.1-45.9,293.4-46.5,291.7z"/>
</g>
<g>
	<path class="st0" d="M-474.5,453.3c-8.1,0.8-14,7.8-13.7,15.7c0.2,7.9,7.9,14.8,15.8,14.7c0.1,0,0.2,0,0.4,0
		c8.2-0.8,14-6.2,13.4-14.8C-459.3,460.8-465.4,452.4-474.5,453.3z M-463.5,476c-2.8-6.7-5.9-13.2-9.2-19.6c0.8,0.1,1.7,0.2,2.4,0.5
		c2.9,5.1,4.9,10.7,8.1,15.7c0,0.1,0.1,0.1,0.1,0.2C-462.4,473.9-462.9,475-463.5,476z M-462,467c0.1,0.7,0.2,1.3,0.2,2
		c-1.8-3.3-3.3-6.7-5-10C-464.3,460.9-462.5,463.8-462,467z M-475.2,456.5C-475.2,456.5-475.2,456.5-475.2,456.5
		c3.7,6.9,7,14,10,21.2c0,0.1,0.1,0.1,0.1,0.1c-0.6,0.5-1.2,0.9-1.9,1.3c-3.6-7.3-7.2-14.7-10.8-22c0.7-0.3,1.4-0.5,2.1-0.6
		C-475.5,456.5-475.4,456.5-475.2,456.5z M-476.2,480c-2.7-5.5-5.4-10.9-8.1-16.4c0.3-0.7,0.7-1.4,1.2-2.1
		c2.9,6.5,6.1,12.9,9.5,19.1C-474.5,480.5-475.4,480.3-476.2,480z M-471.1,480.5c-3.8-6.8-7.3-13.8-10.5-20.9c0.5-0.5,1.1-1,1.8-1.4
		c3.6,7.3,7.2,14.6,10.7,21.8C-469.7,480.3-470.4,480.4-471.1,480.5z M-485.1,469.8c-0.2-1-0.2-2,0-2.9c1.9,3.8,3.7,7.6,5.6,11.4
		C-482.4,476.2-484.6,473.1-485.1,469.8z"/>
	<path class="st0" d="M-448.2,438.7c-11.4-10.3-31.2-11.4-44.3-4.2c-13,7.1-22.8,24.3-19.7,39.2c0.9,4.4,2.2,9.1,4.1,13.2
		c2,4.3,5.5,7.6,8.9,10.8c7.1,6.5,15.9,10,25.5,10.2c16.2-0.6,31.5-9.4,37.7-24.9C-430,467.7-436.3,449.4-448.2,438.7z
		 M-447.2,444.2c4,5,7.5,10.8,9.3,17c-3.5-6.2-7.1-12.3-10.6-18.5C-448,443.2-447.6,443.7-447.2,444.2z M-437.8,479.1
		c-2.9-5.1-5.5-10.3-8.5-15.3c-1.2-5.1-3.7-9.8-7.3-13.5c-2.7-5.2-5.5-10.4-8.4-15.5c0.8,0.2,1.6,0.5,2.4,0.8
		c8.5,13,15,27.2,22.5,40.8C-437.3,477.3-437.6,478.2-437.8,479.1z M-439.7,483.9c-2-3.6-4.3-7-6.2-10.7c0.1-0.6,0.1-1.1,0.2-1.7
		c0-0.7,0.1-1.4,0.1-2.1c2.3,4.1,4.4,8.3,6.9,12.4C-439.1,482.6-439.4,483.3-439.7,483.9z M-442,488c-1.7-3-3.5-5.9-5.5-8.7
		c0.3-0.8,0.6-1.7,0.9-2.6c1.9,3.2,3.8,6.4,5.6,9.6C-441.3,486.9-441.6,487.4-442,488z M-474.3,492.7c-6.2-0.5-12.2-2.4-16.9-6.7
		c-4.9-4.5-6.7-12.2-6.5-18.6c0.5-14,14.7-25,28.4-22.5c11.9,2.2,20.9,13.8,20.5,25.8C-449.2,484.4-461.5,492.9-474.3,492.7z
		 M-451.7,497.6c-1.5-2.5-3-5-4.6-7.4c0.6-0.5,1.3-0.9,1.9-1.5c1.7,2.4,3.3,4.9,4.7,7.4C-450.4,496.7-451.1,497.2-451.7,497.6z
		 M-455.9,500.1c-1.5-2.5-3.1-4.9-4.6-7.4c0.8-0.4,1.6-0.8,2.3-1.3c1.5,2.5,3.1,4.9,4.6,7.4C-454.4,499.3-455.2,499.7-455.9,500.1z
		 M-460.5,502.2c-1.5-2.6-3.1-5.2-4.7-7.7c0.9-0.3,1.7-0.5,2.6-0.9c1.5,2.5,3.1,5,4.6,7.5C-458.8,501.5-459.6,501.8-460.5,502.2z
		 M-464.6,503.5c-1.7-2.7-3.4-5.4-5.1-8.1c0.7-0.1,1.5-0.2,2.2-0.4c1.7,2.6,3.3,5.2,4.9,7.9C-463.3,503.1-463.9,503.3-464.6,503.5z
		 M-469.2,504.4c-2-2.8-3.8-5.8-5.5-8.8c0.2,0,0.3,0,0.5,0c0.7,0,1.4,0,2.1,0c1.8,2.8,3.5,5.6,5.3,8.4
		C-467.7,504.2-468.5,504.3-469.2,504.4z M-473.7,504.9c-0.2,0-0.3,0-0.5,0c-2.1-3.3-4.1-6.6-6-10c0.9,0.2,1.8,0.4,2.6,0.5
		c1.8,3.2,3.7,6.4,5.8,9.4C-472.4,504.8-473.1,504.8-473.7,504.9z M-487.3,501.8c-7.3-13.5-14.5-26.9-21.8-40.4
		c0.2-0.7,0.4-1.4,0.6-2.1c2.8,5.2,5.7,10.3,8.5,15.5c0.9,5,3.1,10,6.8,13.3c0.5,0.4,0.9,0.8,1.4,1.2c2.8,4.7,5.7,9.4,8.5,14
		C-484.7,502.9-486,502.4-487.3,501.8z M-493,498.5c-6.1-10.1-11.7-20.2-16.9-30.8c0-0.3,0-0.6,0-1c0-0.6,0.1-1.2,0.2-1.8
		c6.3,11.6,12.6,23.3,18.8,34.9C-491.6,499.5-492.3,499-493,498.5z M-506.7,454.4c0.7,1.3,1.6,2.6,2.4,3.9c1.4,2.4,2.7,4.8,3.9,7.3
		c-0.1,0.6-0.1,1.2-0.1,1.8c0,0.6,0,1.1,0,1.7c-2.3-4.2-4.6-8.4-7-12.7C-507.3,455.7-507,455-506.7,454.4z M-503.7,449
		c1.8,3.2,3.5,6.4,5,9.7c-0.4,1-0.8,2.1-1.1,3.1c-0.7-1.3-1.4-2.6-2.1-3.9c-1.2-2-2.8-4-3.5-6.2C-504.9,450.8-504.3,449.9-503.7,449
		z M-500.7,445.1c1.8,2.7,3.4,5.4,4.9,8.3c-0.6,0.9-1.2,1.8-1.7,2.7c-1.5-3.1-3.1-6.1-4.8-9.1C-501.8,446.4-501.2,445.7-500.7,445.1
		z M-497.4,441.7c1.5,2.7,3.1,5.4,4.6,8.1c-0.5,0.5-1,1-1.4,1.6c-1.5-2.8-3.1-5.5-4.9-8C-498.5,442.8-498,442.3-497.4,441.7z
		 M-493.6,438.8c1.4,2.7,2.9,5.3,4.4,8c-0.6,0.5-1.3,1-1.9,1.5c-1.5-2.7-3-5.3-4.5-8C-494.9,439.7-494.3,439.3-493.6,438.8z
		 M-485.6,434.7c1.3,2.7,2.8,5.4,4.4,8c-0.7,0.2-1.4,0.5-2.1,0.8c-1.4-2.7-2.9-5.3-4.3-8C-486.9,435.2-486.2,434.9-485.6,434.7z
		 M-480.8,433.4c1.8,2.6,3,5.5,4.6,8.2c-0.9,0.1-1.8,0.3-2.7,0.5c-1.6-2.6-3.1-5.3-4.5-8.1C-482.5,433.8-481.7,433.6-480.8,433.4z
		 M-475.8,432.8c1.5,3,3.1,5.9,4.9,8.7c-0.9-0.1-1.9-0.1-2.8-0.1c-1.7-2.8-2.9-5.7-4.7-8.4C-477.5,432.9-476.6,432.9-475.8,432.8z
		 M-489.6,436.6c1.4,2.6,2.8,5.2,4.2,7.8c-0.7,0.3-1.4,0.7-2,1.1c-1.4-2.7-2.9-5.3-4.3-8c0.7-0.4,1.4-0.8,2.1-1.1
		C-489.6,436.5-489.6,436.5-489.6,436.6z M-480.3,504c-2.4-3.9-4.8-7.9-7.2-11.8c1.4,0.7,2.8,1.3,4.2,1.8c2,3.6,4.1,7.2,6.3,10.7
		c-1.1-0.1-2.1-0.3-3.2-0.5C-480.2,504.1-480.2,504-480.3,504z M-465.2,433.9c2.4,4,4.7,8.2,6.9,12.3c-1.1-0.8-2.2-1.4-3.4-2
		c-2.2-3.6-4.3-7.3-6.5-10.9C-467.2,433.5-466.2,433.7-465.2,433.9z M-456,437.2c0.9,0.5,1.8,1,2.7,1.6c0,0.1,0.1,0.2,0.1,0.3
		c5.4,9.3,10.7,18.7,16.1,28c0.1,0.2,0.3,0.3,0.4,0.4c0.1,0.9,0.1,1.8,0.1,2.7c0,0.8,0,1.6-0.1,2.3
		C-443,460.7-448.9,448.6-456,437.2z M-471,433c2,3.2,3.9,6.5,5.8,9.8c-0.9-0.3-1.8-0.5-2.7-0.7c-1.9-3-3.7-6-5.3-9.2
		C-472.5,432.9-471.8,432.9-471,433z M-500.9,491.7c-4.3-4.4-7.5-11.5-8.6-18.2c3.7,7.2,7.5,14.2,11.6,21.1
		C-499,493.7-500,492.7-500.9,491.7z M-448,494.7c-1.4-2.5-2.9-4.9-4.6-7.2c-0.1-0.1-0.1-0.2-0.2-0.2c0.5-0.5,0.9-1,1.4-1.5
		c1.6,2.6,3.2,5.1,4.9,7.7C-447,493.9-447.5,494.3-448,494.7z M-445,491.8c-1.7-2.6-3.4-5.2-5-7.9c0.5-0.7,1-1.5,1.4-2.2
		c1.8,2.7,3.5,5.5,5.1,8.3C-444,490.6-444.5,491.2-445,491.8z"/>
	<path class="st0" d="M-423.2,457c-2.5-9.7-8.6-18.2-16-24.9c-7.6-7-16.8-13-27.2-14.1c-11.1-1.2-24.7,0.2-34.1,6.7
		c-18.2,12.7-27.8,32.6-23.1,54.8c5.1,23.8,26.5,40.4,50.6,40.4c20.2,0.1,38.4-10.3,46.2-29.2C-422.3,480-420.3,468.2-423.2,457z
		 M-426.9,482.2c-3.1,10.7-8.5,20.4-17.9,26.7c-8.3,5.6-18.2,8.1-28.1,8c-19.9,0-38.2-11.9-45.5-30.6c-3.7-9.6-4.6-21.5-1.8-31.5
		c2.6-9.3,8.2-16.5,15.3-22.7c3.7-3.3,7.7-6.6,12.4-8.4c5.4-2.1,11.5-2.4,17.3-2.8c11.1-0.6,20.3,2.6,29.1,9.4
		C-429.5,442.9-421,461.5-426.9,482.2z"/>
	<path class="st0" d="M-484.4,452.1c1.1-0.9,0-2.8-1.1-1.9c-1.8,1.3-3.3,2.8-4.7,4.5c-0.9,1.1,0.7,2.7,1.6,1.6
		C-487.4,454.7-486,453.3-484.4,452.1z"/>
	<path class="st0" d="M-486,454.9c-1,1.1,0.6,2.7,1.6,1.6c0.9-1,2-1.9,3.2-2.6c1.3-0.7,0.1-2.7-1.1-1.9
		C-483.7,452.8-484.9,453.8-486,454.9z"/>
</g>
<g>
	<path class="st0" d="M-307,493.9c0-6.9-0.1-13.9-0.3-20.8c-0.4-13.2-0.9-26.4-1.7-39.6c-0.5-9.1-4.1-14.7-13.6-16.1
		c-10.6-1.6-21.8-1-32.5-0.4c-4.8,0.3-9.7,0.8-12.6,5.1c-2.8,4.2-3,10.3-3.4,15.2c-1.3,13.8,0.2,27.9-0.1,41.8
		c0,9.1-0.3,18.3,0.5,27.4c0.5,5.7,1.7,10,7.2,12.9c3.8,2,9.6,1.5,13.6,1.5c7.3,0.1,14.5-0.4,21.8-0.6c8.3-0.2,19.3,0.2,20.9-10.4
		C-306.5,504.8-307,499.1-307,493.9z M-310.3,509.4c-1.5,7.7-8.6,7.9-15,7.9c-10.2,0.1-20.5,1.1-30.7,0.5c-4.1-0.2-9-1.3-10.9-5.5
		c-1.2-2.5-1-6-1.2-8.8c-0.5-8.1-0.3-16.3-0.3-24.5c0.2-9.1,0.1-18.2-0.2-27.2c-0.2-4.9-0.1-9.7,0.4-14.5c0.5-5.6,0.6-14.1,6.8-16.5
		c4.1-1.6,9.9-1,14.3-1.2c4.5-0.2,9-0.2,13.5-0.1c4.2,0.1,8.9,0.1,13,1.2c6.6,1.8,8.1,6.4,8.5,12.7c1.3,20.4,2.1,40.9,2.1,61.3
		C-310,499.5-309.4,504.8-310.3,509.4z"/>
	<path class="st0" d="M-345.3,427.1c4-0.2,8-0.3,12-0.3c1.4,0,1.5-2.2,0-2.3c-4,0-8,0.1-12,0.3C-346.8,425-346.8,427.2-345.3,427.1z
		"/>
	<path class="st0" d="M-328.4,426.6C-328.4,426.6-328.3,426.6-328.4,426.6c1.1-1.1-0.5-2.7-1.5-1.7c0,0,0,0-0.1,0.1
		C-331,426.1-329.4,427.7-328.4,426.6z"/>
	<path class="st0" d="M-323.8,426.7C-323.8,426.7-323.8,426.7-323.8,426.7c1.1-1.1-0.5-2.7-1.5-1.7c0,0,0,0-0.1,0.1
		C-326.5,426.1-324.9,427.7-323.8,426.7z"/>
	<path class="st0" d="M-338.5,508.7c-3.1,0-9.2-0.7-9.6,3.7c-0.4,4.1,6.3,3.7,8.8,3.6c2.5-0.1,8.5,0.2,8.7-3.4
		C-330.3,508-335.3,508.7-338.5,508.7z M-333.2,512.9c-1,1.1-5.1,0.9-6.5,0.9c-1,0-5.4,0.2-5.7-0.5c-1.3-2.9,5.9-2.3,7-2.3
		C-337.5,511-331.2,510.6-333.2,512.9z"/>
	<path class="st0" d="M-313.6,432.1C-313.6,432.1-313.6,432.1-313.6,432.1c0,0,0-0.1-0.1-0.1c-0.2-0.3-0.5-0.6-1-0.6
		c-16.8,0.1-33.6,0.9-50.4,0.6c-0.5,0-0.8,0.3-1,0.6c0,0,0,0,0,0c0,0,0,0.1,0,0.1c0,0.1-0.1,0.2-0.1,0.4
		c-0.7,11.8,0.5,23.6,0.2,35.4c-0.3,12.6-1,25.1-0.6,37.7c0,0.2,0.1,0.4,0.2,0.5c0.2,0.3,0.5,0.6,1,0.6c8.8-0.2,17.5,0.1,26.3-0.4
		c8.9-0.5,17.7,0.1,26.6-0.1c0.2,0,0.4-0.1,0.5-0.1c0.4-0.1,0.6-0.5,0.6-1c-1.2-24.4-1-48.8-2.1-73.2
		C-313.5,432.3-313.6,432.2-313.6,432.1z M-339.2,504.7c-8.4,0.4-16.8,0.2-25.2,0.3c-0.3-12.2,0.4-24.3,0.6-36.5
		c0.2-11.4-0.9-22.9-0.3-34.3c16.1,0.2,32.2-0.5,48.3-0.6c1.1,23.6,0.9,47.3,2,71C-322.2,504.7-330.7,504.2-339.2,504.7z"/>
	<path class="st0" d="M-353.3,440.1c-2.2,1.8-4,3.9-5.4,6.4c-0.7,1.3,1.2,2.4,1.9,1.1c1.3-2.3,3-4.3,5-5.9
		C-350.6,440.8-352.2,439.2-353.3,440.1z"/>
	<path class="st0" d="M-348.5,440.9c-1.4,1.6-2.7,3.2-4.1,4.8c-0.9,1.1,0.7,2.7,1.6,1.6c1.4-1.6,2.7-3.2,4.1-4.8
		C-345.9,441.4-347.5,439.8-348.5,440.9z"/>
</g>
<g>
	<path class="st0" d="M-161.4,468.4c-6.7-6.4-13.1-13-19.5-19.7c-6.3-6.6-12.7-13.2-19.2-19.5c-2.1-2-4.8-5.9-7.7-6.9
		c-2.1-0.7-4.8,0.2-6.9,0.5c-0.1,0-0.1,0-0.2,0c-0.6-0.4-1.3-0.7-2.1-0.8c-2.8-0.6-6.4,0.2-9.2,0.4c-5.6,0.4-11.2,0.9-16.8,1.7
		c-4.2,0.6-9.9,0.1-11,5c-1.2,5.2-1.6,10.8-2.1,16.1c-0.5,4.9-1,10.9-0.2,15.7c1.3,8.2,11.1,15.2,16.7,20.4
		c7.7,7.1,15.1,14.6,22.6,21.9c3,3,6.1,5.9,9.2,8.7c1.3,1.1,3.1,3.2,4.9,3.6c0.2,0,0.3,0,0.4,0c0.1,0,0.2,0,0.4,0
		c1.2-0.2,2.3-1.2,3.3-2c5.2,5.7,11.9-3.7,15.5-7.1c4.7-4.5,9.3-9.2,13.9-13.8c4.3-4.4,9.2-8.7,12.9-13.5
		C-153,474.3-158.1,471.6-161.4,468.4z M-202.5,512.5c-1.2-0.5-2.4-1.9-3.2-2.7c-2.3-2-4.4-4.1-6.6-6.2c-5.7-5.5-11.2-11-16.9-16.5
		c-5.9-5.7-12.2-11.1-17.9-17c-2.9-3-5.9-6.2-6.5-10.5c-0.5-4-0.2-8.6,0.1-12.7c0.4-4.8,0.6-10.2,1.9-14.9c1.2-4.6,3.3-4.2,7.3-4.8
		c3.5-0.5,7-0.9,10.5-1.2c4.5-0.4,10.3-1.8,14.7-1c5.7,0.9,11.5,9,15.4,12.9c7.8,7.8,15.3,15.8,23.1,23.6c3.8,3.8,7.6,7.6,11.5,11.3
		c2.1,2,3.4,2.9,1.1,5.6c-1.3,1.5-2.7,2.8-4,4.2c-6.1,6.4-12.2,12.7-18.5,18.9c-2.6,2.5-5.2,5.1-7.9,7.5
		C-199.3,510-201,512-202.5,512.5z M-158.3,476.4c-0.1,0.6-2,2.3-2.5,2.9c-6.9,7.3-13.9,14.5-21.1,21.5c-2.9,2.8-5.8,5.6-8.8,8.3
		c-1.9,1.7-3.7,4.4-5.9,2.4c2.1-1.8,4.1-3.8,6.1-5.7c6.9-6.7,13.6-13.6,20.2-20.5c2-2.1,6.4-5.5,7.1-8.5c0.8-3.5-4.5-6.7-6.6-8.7
		c-9.8-9.4-19.1-19.3-28.6-29c-4.4-4.5-8.8-8.8-13.3-13.2c-0.2-0.2-0.4-0.4-0.6-0.6c0.7-0.1,1.5-0.2,2.1-0.1
		c2.1,0.3,4.1,2.8,5.6,4.1c2.5,2.4,4.9,4.8,7.3,7.2c4.9,4.9,9.7,9.9,14.6,14.9c4.9,5.1,9.8,10.1,14.8,15c2.5,2.4,5.5,4.7,7.6,7.3
		C-159.4,474.7-158.2,475.1-158.3,476.4z"/>
	<path class="st0" d="M-235,436.2c-1.1-3.8-4.7-4.3-7.9-3.1c-0.1,0-0.3,0.1-0.4,0.2c-2.8,1.7-4.3,5-3.1,8.2c1.3,3.2,4.2,4.6,7.3,2.9
		C-236.3,442.8-234.1,439.4-235,436.2z M-240.1,441.4c-1.6,1.1-2.9,0.6-3.5-1.3c-0.5-1.7,0.4-3.3,1.8-4.2c1.7-0.6,3.7-0.9,4.1,1.4
		C-237.5,438.9-238.8,440.5-240.1,441.4z"/>
	<path class="st0" d="M-220.5,458.3c-0.5-2-1.9-3.8-2.4-5.8c-0.9-3.6,4-5.5,6-2.6c0.6,0.9,1,2,0.9,3.1c-0.1,1.9,2.9,1.9,3,0
		c0.3-5.6-7.1-11.3-11.6-6.4c-2.3,2.5-1.6,6-0.4,8.8c0.5,1.2,1.4,2.5,1.7,3.8c0.9,3.6-2.2,6.1-5.7,5c-4-1.3-7.3-6.4-4.7-10.2
		c1.1-1.6-1.5-3.1-2.6-1.5c-4.6,6.9,4.6,18.5,12.3,15C-220.7,465.8-219.6,461.7-220.5,458.3z"/>
	<path class="st0" d="M-209.1,469.7c-1.2-1.2-2.5-2.4-3.7-3.5c0.8-0.8,1.6-1.6,2.5-2.4c1.5-1.4,1.8-1.8,4.1-1.6
		c2.4,0.2,3.3,1.2,4.9,2.9c1.3,1.4,3.5-0.7,2.1-2.1c-2.2-2.3-4.9-4.8-8.4-4.2c-3.6,0.6-6.7,4.7-9.1,7.2c-2,2.1-5.6,5.1-5.2,8.3
		c0.4,3.4,4.1,6.7,6.7,8.4c1.6,1.1,3.1-1.5,1.5-2.6c-1-0.7-2-1.5-2.7-2.4c-0.9-1.1-2.4-3.5-2.2-4.9c0.2-1.2,2.5-3.2,3.8-4.5
		c1.2,1.2,2.5,2.4,3.7,3.5C-209.8,473.2-207.7,471.1-209.1,469.7z"/>
	<path class="st0" d="M-187.2,475.1c-0.1-0.1-0.1-0.2-0.2-0.2c0,0,0-0.1-0.1-0.1c-8.4-9.4-28.8,5.2-20.3,16.4
		C-198.8,503-180.2,485.9-187.2,475.1z M-189.7,476.7c4.9,8.1-10.2,22-16.1,12C-210.6,480.6-195.7,470.5-189.7,476.7z"/>
	<path class="st0" d="M-226.6,436c3.5,0,7-0.1,10.4-0.1c1.4,0,1.5-2.3,0-2.3c-3.5,0-7,0.1-10.4,0.1C-228,433.8-228,436-226.6,436z"
		/>
	<path class="st0" d="M-220.7,437.7c-1.4-0.1-1.4,2.2,0,2.3c2,0.1,4-0.1,6-0.4c1.4-0.3,0.8-2.4-0.6-2.2
		C-217,437.7-218.8,437.8-220.7,437.7z"/>
	<path class="st0" d="M-199.6,499c-2.4,0.2-4.8,0.4-7.2,0.5c-1.4,0-1.5,2.3,0,2.3c2.4-0.1,4.8-0.2,7.2-0.5
		C-198.2,501.1-198.2,498.9-199.6,499z"/>
	<path class="st0" d="M-201.6,502.9c-0.8,0.3-1.6,0.5-2.4,0.6c-0.6,0.1-0.9,0.8-0.8,1.4c0.2,0.6,0.8,0.9,1.4,0.8
		c0.8-0.1,1.6-0.3,2.4-0.6c0.6-0.2,1-0.8,0.8-1.4C-200.4,503.2-201.1,502.7-201.6,502.9z"/>
</g>
<g>
	<path class="st1" d="M-113.3,485.6c4.1,0.1,8.8,0.6,9.3-4.5c0.6-6.2,0.1-12.7,0.2-18.9c0-3,1.7-10-2-11.4c-2.1-0.8-5.6-0.4-7.9-0.7
		c-2.2-0.3-4.4-0.3-6.7-0.2c-4,0.1-5.9,0.3-5.9,4.6c0,6-0.5,12.1-0.5,18.1c-0.2,2.8-0.7,8.4,0.9,10.8
		C-123.7,486.9-116.6,485.5-113.3,485.6z M-121,452.9c3.1-0.3,6.2,0.2,9.3,0.5c1.3,0.1,4.1-0.4,4.9,0.7c0.7,0.9,0,5.6,0,6.7
		c0,3.6-0.1,7.3-0.1,10.9c0,2.2,0,4.5-0.1,6.7c0,3.7-1.2,4.3-4.9,4.3c-2.3,0-7,0.8-9.8-0.2c0.8-0.6,1.5-1.3,2.1-2.1
		c0.9-1.1-0.7-2.7-1.6-1.6c-0.7,0.8-1.5,1.6-2.3,2.3c0,0-0.1-0.1-0.1-0.1c-0.4-0.9-0.5-2.2-0.5-3.6c1.2-1.1,2.5-2.2,3.7-3.2
		c1.1-0.9-0.5-2.5-1.6-1.6c-0.7,0.6-1.4,1.2-2.1,1.8c0-0.6,0.1-1.2,0.1-1.7c0-0.7,0-1.3,0-2c1.5-1.4,3-2.8,4.7-4.1
		c1.1-0.9-0.5-2.5-1.6-1.6c-1,0.8-2,1.6-3,2.5c0-0.8,0.1-1.7,0.1-2.5c1.4-1.1,2.7-2.2,4.1-3.4c1.1-0.9-0.5-2.5-1.6-1.6
		c-0.8,0.6-1.6,1.3-2.3,1.9c0-0.5,0.1-1,0.1-1.5c0-0.4,0-0.8,0-1.2c1.2-0.9,2.4-1.8,3.6-2.6c1.2-0.9,0-2.8-1.1-1.9
		c-0.8,0.6-1.7,1.2-2.5,1.8c0-0.4,0-0.8,0-1.1C-123.2,453.2-123.2,453.1-121,452.9z"/>
	<path class="st1" d="M-95,482.7c1.5,3.4,6.1,2.6,9.1,2.5c3.1-0.1,9.5,1.1,12.1-0.9c2.6-2,1.2-9.1,1.2-11.9c0-6.7,0.1-13.4,0.1-20.1
		c0-3.3,0-6.5,0-9.8c0-1.5,0.5-4.2-0.4-5.6c-1.6-2.4-7.5-1.6-10-1.9c-2.6-0.3-8.8-1.2-11.1,0.5c-2.4,1.8-1.1,8.4-1.1,11
		c-0.2,7-0.6,14-0.5,21c-0.2,2.9-0.1,5.7,0.1,8.6C-95.4,478.2-95.8,480.9-95,482.7z M-92.1,438.6c1.4-2.1,9.2-0.5,11.2-0.2
		c2.2,0.3,4.6-0.5,5.5,1.5c0.8,1.8,0,6,0,7.8c0,5.9-0.1,11.8-0.1,17.7c0,2.9,0,5.8,0,8.6c0,1.5,0.8,6.2-0.1,7.5
		c-0.9,1.3-8.1,1.2-12,1c1.1-0.8,2.2-1.6,3.3-2.4c1.2-0.8,0-2.8-1.1-1.9c-1.8,1.3-3.6,2.6-5.3,3.9c-0.8-0.4-1.2-1-1.4-1.7
		c2.2-1.6,4.3-3.3,6.4-5.1c1.1-0.9-0.5-2.5-1.6-1.6c-1.6,1.4-3.2,2.7-4.9,4c0-0.4,0-0.9,0-1.3c0-0.5,0-0.9-0.1-1.4
		c2-2.2,4.2-4.2,6.6-5.9c1.2-0.8,0-2.8-1.1-1.9c-2,1.4-3.9,3-5.6,4.7c0-0.8,0-1.6,0-2.4c1.7-1.9,3.6-3.6,5.6-5.2
		c1.1-0.9-0.5-2.5-1.6-1.6c-1.4,1.1-2.7,2.3-4,3.5c0-1.2,0-2.4,0-3.6c1.6-1.7,3.4-3.1,5.3-4.4c1.2-0.8,0.1-2.7-1.1-1.9
		c-1.4,0.9-2.8,2-4.1,3.2c0-0.9,0.1-1.9,0.1-2.8c1.6-1.7,3.4-3.3,5.4-4.6c1.2-0.8,0.1-2.8-1.1-1.9c-1.5,1-2.8,2.1-4.1,3.3
		c0-0.5,0-0.9,0.1-1.4c0-0.5,0-1,0-1.5c1.4-1.7,3.1-3.3,4.9-4.6c1.2-0.8,0.1-2.8-1.1-1.9c-1.3,0.9-2.5,2-3.7,3.1c0-0.7,0-1.4,0-2.2
		c1.3-1.3,2.7-2.6,4.3-3.6c1.2-0.8,0.1-2.8-1.1-1.9c-1.1,0.8-2.2,1.6-3.2,2.6C-92.3,440.6-92.4,439.1-92.1,438.6z"/>
	<path class="st1" d="M-63.2,480.1c0.2,2.4,0.5,3.9,2.9,4.8c2.4,0.9,5.5,0.6,8,0.7c3.1,0.1,6.6,0.3,9.4-1c3.8-1.7,2.3-8.1,2.3-11.7
		c0-7.4,0.1-14.7,0.1-22.1c0-7.5,0.1-14.9,0.1-22.4c0-3.2,1.6-11-2-12.4c-2.6-1-6.5-0.6-9.3-0.8c-2.5-0.2-6.2-0.5-8.7,0.2
		c-4,1.1-2.4,6.8-2.4,10.1c-0.1,14.1-0.8,28.1-0.6,42.2C-63.8,471.8-63.5,476-63.2,480.1z M-60,419.7c0.6-2.4,4.8-1.8,7.1-1.7
		c1.9,0.1,6.7,0,8.3,0.7c1.8,0.8,1.3,2.4,1.3,4.5c0,5.1-0.1,10.2-0.1,15.4c-0.1,11.9-0.1,23.8-0.2,35.7c0,1.6,0.7,5.2,0,6.7
		c-1.1,2.4-6.6,1.6-8.7,1.5c-1.2,0-2.7,0.1-4,0c0.5-0.4,0.9-0.8,1.3-1.3c1-1.1-0.6-2.7-1.6-1.6c-0.7,0.8-1.5,1.5-2.4,2.2
		c-0.2-0.1-0.4-0.3-0.6-0.5c1.1-1.2,2.2-2.3,3.3-3.4c1.1-1-0.5-2.6-1.6-1.6c-0.9,0.8-1.7,1.7-2.6,2.6c-0.1-0.7-0.2-1.4-0.2-2.1
		c1.3-1.1,2.6-2.2,3.9-3.2c1.1-0.9-0.5-2.5-1.6-1.6c-0.8,0.7-1.6,1.3-2.5,2c0-0.5,0-0.9,0-1.4c2-1.5,4-3,5.9-4.6
		c1.1-0.9-0.5-2.5-1.6-1.6c-1.4,1.1-2.8,2.2-4.2,3.3c0-0.7,0.1-1.4,0.1-2.1c0-0.4,0-0.7,0-1.1c1.5-1.4,3.1-2.6,4.8-3.8
		c1.2-0.8,0.1-2.8-1.1-1.9c-1.3,0.9-2.5,1.8-3.7,2.8c0-0.8,0-1.6,0-2.4c1.4-1,2.7-2.1,4.1-3.2c1.1-0.9-0.5-2.5-1.6-1.6
		c-0.8,0.7-1.6,1.3-2.5,1.9c0-0.9,0-1.8,0-2.7c1.5-1.4,3.1-2.7,4.7-3.9c1.2-0.8,0.1-2.8-1.1-1.9c-1.2,0.9-2.4,1.8-3.6,2.8
		c0-1.3,0.1-2.6,0.1-4c1.1-1,2.2-2,3.4-2.8c0.5-0.4,0.7-1,0.4-1.5c-0.3-0.5-1.1-0.8-1.5-0.4c-0.7,0.5-1.5,1.1-2.2,1.7
		c0-0.6,0-1.2,0-1.9c1.7-1.3,3.5-2.5,5.3-3.5c1.3-0.7,0.1-2.7-1.1-1.9c-1.4,0.8-2.8,1.7-4.1,2.7c0-0.9,0-1.8,0.1-2.7
		c0-0.1,0-0.2,0-0.3c1.3-1.1,2.6-2.3,3.8-3.4c1.1-1-0.5-2.6-1.6-1.6c-0.7,0.7-1.5,1.3-2.2,2c0-1.1,0-2.3,0.1-3.4c1-1,2.1-2,3.2-2.9
		c0.5-0.4,0.4-1.2,0-1.6c-0.5-0.5-1.1-0.4-1.6,0c-0.6,0.4-1.1,0.9-1.6,1.4c0-1,0-2,0-2.9c1.5-1.1,2.9-2.2,4.3-3.5
		c1.1-1-0.5-2.6-1.6-1.6c-0.9,0.8-1.8,1.5-2.7,2.3C-60,421.7-60.2,420.6-60,419.7z"/>
	<path class="st1" d="M-38.8,489.2c-14.8,0.6-29.6,0.6-44.4,0.3c-14-0.3-28.1-1.3-42.1-1c-1.4,0-4.7,0.6-5.8-0.1
		c-1.3-0.8-1.2-4.1-1.3-5.3c-0.2-3.1-0.3-6.3-0.3-9.4c-0.2-6.2-0.1-12.5-0.1-18.7c0.1-12.7,0.4-25.4,0.1-38.1c0-1.9-3-1.9-3,0
		c0.3,14-0.1,27.9-0.2,41.9c0,6.6,0,13.3,0.3,19.9c0.2,4-1.2,11.1,3.7,12.6c2.5,0.8,5.6,0.2,8.2,0.1c3.6-0.1,7.2,0,10.9,0.1
		c8,0.3,15.9,0.6,23.9,0.8c16.7,0.4,33.4,0.4,50.1-0.2C-36.9,492.2-36.9,489.2-38.8,489.2z"/>
</g>
<g>
	<path class="st0" d="M111.6,141.8c-17.4,6.4-33.7,15.3-50.6,23.1c-18,8.3-35.5,17.4-53.3,26c-1.1,0.5-0.9,2.6,0.4,2.7
		c11.7,1.6,23.1,4.2,34.6,6.8c0.2,11.7-0.1,23.4,0.1,35.1c0,1.6,2,1.9,2.8,0.8c6.1-8.7,12.2-17.4,18.7-25.8
		c9.1,5.5,18.2,10.9,26.8,17c0.8,0.5,2,0,2.2-0.9c2.7-14,5.5-27.7,9.4-41.4c4-13.8,7.7-27.6,10.8-41.6
		C113.7,142.6,112.8,141.3,111.6,141.8z M53,200.9c-0.4,0.3-0.7,0.7-0.7,1.2c-0.6,1.1-1,2.3-1.5,4.1c-1.8,7.1-3,14.4-5,21.4
		c0-9.4,0.2-18.8,0-28.2c17.8-15.7,36.2-30.9,54.8-45.7c-11.1,11-22.2,21.9-33.3,32.9c-3.4,3.4-6.9,6.7-10.3,10.1
		C55.1,198.3,53.9,199.5,53,200.9z M104.2,147.9c-20.4,16-40.5,32.6-60,49.7c-10.2-2.4-20.4-4.7-30.8-6.3
		c15.8-7.7,31.5-15.8,47.5-23.2C75.4,161.5,89.5,154,104.2,147.9z M48.1,227.5c1.7-6.3,2.9-12.7,4.4-19c0.4-1.6,0.7-3.1,1.3-4.5
		c2.6,1.6,5.3,3.3,8,4.9C57.1,215,52.5,221.2,48.1,227.5z M99.8,184.4c-3.7,13-6.5,26-9,39.2c-11.5-8-23.7-14.9-35.5-22.2
		c0.1-0.1,0.2-0.2,0.3-0.3c1.4-1.6,3.1-3.1,4.7-4.6c3.5-3.4,6.9-6.8,10.4-10.2c12.9-12.7,25.9-25.5,38.8-38.2
		C106.6,160.3,103.3,172.4,99.8,184.4z"/>
	<path class="st0" d="M34,190.6c3.6-2,7.2-4,10.8-6c1.3-0.7,0.1-2.6-1.1-1.9c-3.6,2-7.2,4-10.8,6C31.6,189.3,32.7,191.3,34,190.6z"
		/>
	<path class="st0" d="M44.2,187.5c-1.7,0.9-3.4,1.8-5.1,2.6c-1.3,0.7-0.1,2.6,1.1,1.9c1.7-0.9,3.4-1.8,5.1-2.6
		C46.6,188.7,45.5,186.8,44.2,187.5z"/>
</g>
<g>
	<path class="st1" d="M111.7,70.9c-0.1-0.1-0.1-0.2-0.2-0.3c-2.4-2.5-5.4-5.2-8.4-7c-0.5-0.3-1-0.2-1.5,0c-0.3,0.2-0.7,0.4-1,0.6
		c-1.3-1.3-2.5-2.9-4.4-2.5c-0.4,0.1-0.9,0.3-1.3,0.6c-2.9-4.2-4.1-8.6-5.6-13.4c-1.4-4.4-3.9-8.1-7-11.4c-2.3-2.4-5.3-6.5-8.9-7
		c-2.4-0.3-4.5,0.9-5.7,2.8c-3.5-2.1-7.8-1.1-9.4,2.6c-3.1-1.3-6.6-0.2-8.4,2.7c-6.2-6-11.4-13.4-18.3-18.5
		c-4.9-3.6-12.5-0.3-9.5,6.2c2,4.4,6.7,7.7,10,11.1c2.4,2.4,4.7,4.8,7,7.3c1.8,1.9,3.6,3.8,5.5,5.7c-2.9,8.2,0.1,16.2,8.4,19.8
		c4.2,1.8,8.7,2.5,13.2,3.3c4.1,0.8,7.2,3.5,10.2,6.4c-0.3,0.4-0.5,0.8-0.6,1.1c-0.5,1.9,1.5,3.8,2.9,5.2c-0.1,0.2-0.3,0.3-0.4,0.5
		c-0.5,0.6-0.6,1.5,0,2.1c2.8,2.9,5.5,5.9,8.3,8.8c0.5,0.5,1.2,0.5,1.8,0.2c3-1.4,5.4-4.5,7.7-6.9c2.8-2.9,5.5-5.8,8.4-8.5
		C106.7,80.3,114.4,74.8,111.7,70.9z M78.5,77.7c-4.1-3.9-7.8-6.4-13.5-7.4c-9.7-1.6-21.5-6-18-17.6c1.7,1.6,3.3,3.3,5,4.9
		c1.4,1.4,3.5-0.8,2.1-2.1C47.5,49,41.2,42.4,34.8,35.9C32,33,27.6,30,25.6,26.5c-1.2-2.2-1.5-4.4,1.5-4.6c1.9-0.1,2.4,0.4,3.8,1.6
		c1.1,1,2.1,2.1,3.2,3.1c5.2,5.2,9.9,10.8,15.4,15.7c0.8,0.7,2.2,0.5,2.5-0.7c0.7-3,2.8-3.8,6.2-2.4c1.1,0.9,2.4,0.3,2.6-1.1
		c0.7-3.2,2.9-3.6,6.5-1.4c0.8,0.8,2.2,0.4,2.5-0.7c1.7-6.6,9.1,2,10.7,3.8c2.5,2.7,4.6,5.8,5.8,9.3c1.9,5.4,3,10.3,6.4,15
		c-0.2,0.1-0.3,0.3-0.4,0.4c-2.2,1.8-4.3,3.6-6.3,5.6c-1.8,1.8-3.5,3.6-5.2,5.4C80.1,76.2,79.3,76.9,78.5,77.7z M79.1,81.9
		c0-0.6,1.4-1.7,2.1-2.5c2.2-2.4,4.5-4.8,6.8-7.1c2.5-2.4,5.1-4.7,7.9-6.9c1.5-1.1,1.4-0.7,2.4,0.5c-2.3,2.2-4.3,5-6.4,7
		c-3.8,3.7-7.6,7-11.1,10.9C80.2,83.2,79.1,82.1,79.1,81.9z M87.9,94.6c-2.2-2.3-4.3-4.6-6.5-6.9c4.9-5.7,10.7-10.4,15.8-15.9
		c1.1-1.1,2.1-2.3,3.2-3.4c0.6-0.6,2-1.7,1.9-1.7c1.3,0.1,6,5,7,6C109.8,73.2,92.8,90.8,87.9,94.6z"/>
	<path class="st1" d="M86.2,85.2c-0.1,0.1-0.1,0.1-0.2,0.2c-0.1,0.1-0.1,0.2-0.1,0.2c-0.9,1.6-0.8,3.6,0.9,4.7
		c1.6,1,3.7,0.4,4.7-1.1c1-1.5,0.7-3.7-0.7-4.9C89.3,83,87.3,83.9,86.2,85.2z M89.5,88.1c-0.4,0.5-1,0.7-1.5,0.4
		c-0.8-0.5-0.4-1.3,0-1.9c0.4-0.5,1.1-0.9,1.5-0.2C89.8,86.8,89.9,87.5,89.5,88.1z"/>
	<path class="st1" d="M41.8,23.2c1.4-12.6-15.5-16-23.1-8.7c-8.6,8.1-4.8,25.5,8.8,24.1c1.4-0.1,1.4-2.4,0-2.3
		C15.8,37.5,13,22.8,20.2,16.1c6.4-5.9,20.5-3.5,19.3,7.1C39.4,24.6,41.6,24.6,41.8,23.2z"/>
	<path class="st1" d="M31.2,40.5c-5.7,2.3-12.8,0.1-17-4.3C8,29.6,10.4,18,16,11.9c5.5-6,14.2-7.2,21.3-3.3c6.4,3.5,10.9,13,7,19.8
		c-0.7,1.3,1.2,2.4,1.9,1.1c4.3-7.3,0.5-17.1-6.1-21.8C32.6,2.4,22,3,15.4,9.4C8.6,15.8,5.7,27.5,11,35.7c4.1,6.4,13.7,9.8,20.8,6.9
		C33.1,42.1,32.6,40,31.2,40.5z"/>
	<path class="st1" d="M101.5,71.2c-0.7-1.2-2.7-0.1-1.9,1.1c0.6,1.1,1.2,2.1,1.9,3.2c0.7,1.2,2.7,0.1,1.9-1.1
		C102.8,73.3,102.2,72.3,101.5,71.2z"/>
	<path class="st1" d="M104.8,70.7c-0.2-0.6-1.1-0.7-1.5-0.4c-0.6,0.3-0.7,1-0.4,1.5c0.5,1,0.9,2.1,1.4,3.1c0.2,0.6,1.1,0.7,1.5,0.4
		c0.6-0.3,0.7-1,0.4-1.5C105.7,72.8,105.3,71.7,104.8,70.7z"/>
</g>
<g>
	<path class="st1" d="M30.9,357.4c2.3-2.4,4.6-4.7,6.7-7.3c1-1.2,1.4-2.3,0.9-3.7c0-0.2-0.1-0.5-0.3-0.6c-0.2-0.3-0.5-0.4-0.7-0.4
		c-3.8-1.4-7,3.4-9.4,5.8c-3,3.1-7,6.5-8.2,10.7c-0.1,0.4,0,0.8,0.3,1.1C24,366.8,28.6,359.8,30.9,357.4z M24.8,360.5
		c-0.6,0.6-2.4,2-2.5,1.7c-0.3-1.2,2.1-3.6,2.9-4.5c1-1.1,2-2.3,3-3.4c1.2-1.2,5.9-7.3,8.3-7c-0.1,1.9-5.8,7-6.8,8
		c-1.1,1.1-2.1,2.2-3.2,3.4C25.9,359.3,25.4,360,24.8,360.5z"/>
	<path class="st1" d="M35.9,355.9c-2.4,2.5-4.7,5-7,7.5c-1.8,1.9-2.9,3-2.5,5.6c0,0,0,0,0,0c0,0,0,0.1,0,0.1
		c0.1,0.4,0.3,0.6,0.5,0.7c3.2,2.8,8.8-4.6,10.6-6.5c1.9-2,9-7.9,7.2-11.3C42.4,348,37.2,354.5,35.9,355.9z M28.5,368.1
		c0.2-2.6,5-6.4,6.6-8.1c0.9-1,6-7,6.8-6.1C43.2,355.2,30.7,367.6,28.5,368.1z"/>
	<path class="st1" d="M100.4,352.1c-9.3-9.3-19.3-17.9-29.3-26.5c5.9-5.8,11.7-11.6,17.5-17.6c1.3-1.3,2.6-2.9,4-4.1
		c2-1.8,3.1-1.5,5.5-2c0.8-0.2,1.5-0.2,2.2-0.6c2.7-1.8,4.6-7.1,6-9.9c1.4-2.7,1.2-3.3-0.9-5.6c-2.2-2.3-3.2-4-6-2.5
		c-3.3,1.7-8.4,3.8-10.9,6.6c-0.7,0.8-0.6,1-1,1.9c0,0.7,0,1.3,0,2c-0.4,1.8-1.4,3.3-2.7,4.4c-1.1,1.3-2.5,2.5-3.7,3.7
		c-5.8,5.8-11.6,11.6-17.3,17.4c-4.7-4.1-9.3-8.3-13.7-12.6c4.2-6.2,4.9-14.2,0.2-20.4c-4.9-6.5-11.5-8.4-19.1-6.8
		c-1,0.2-1.4,1.4-0.9,2.2c1.5,2.5,2.8,4.9,4.2,7.4c0.5,0.8,0.9,1.8,1.4,2.6c0.4,0.5,0.5,1,0.5,1.2c-0.5,2.4-1.9,5.1-2.9,7.4
		c-1.4-0.1-2.9-0.1-4.3-0.2c-0.9,0-2.5-0.4-3.3-0.2c0,0-0.1,0-0.1,0c-2.3-3.5-4.3-7.2-6.4-10.8c-0.5-0.9-1.6-0.9-2.4-0.3
		c-6.3,5.6-6.4,15.9-1.3,22.3c5.9,7.4,14.6,8.2,22.9,5.8c4.5,4.6,9,9.2,13.5,13.9c-0.5,0.5-1,1-1.5,1.5c-1.8-1.7-3.6-3.3-5.5-4.9
		c-0.6-0.5-1.5-0.6-2.1,0c-1.3,1.2-2.8,2.7-3.6,4.3c-1.2,2.3-0.1,4.7-0.9,7.2c-0.3,0.9-6,1-7.3,1.6c-2.2,1-4.2,3.1-5.9,4.7
		c-2.5,2.3-4.8,4.8-6.9,7.4c-1.6,1.9-4.3,4.5-5.4,6.7c-1.6,3.3,2,6.2,4.1,8.5c2.8,3.2,6.8,8,10.6,9.9c4.1,2,7-2.8,9.6-5.4
		c3.9-3.9,8.1-7.8,11.4-12.3c1-1.4,1.6-2.4,1.8-4.1c0.3-3.2-1.1-4.5,3.1-5.1c3.7-0.5,5.9-2,8.5-4.9c0.6-0.6,0.6-1.5,0-2.1
		c-1.5-1.6-3.1-3.2-4.6-4.8c0.5-0.4,0.9-0.9,1.4-1.3c5.6,5.8,11.3,11.6,16.9,17.4c3,3.1,6.1,6.3,9.2,9.4c3.1,3.1,6.1,7,10.2,8.7
		c5.8,2.4,11.5-0.9,13.1-6.8C109.7,360.5,104.1,355.9,100.4,352.1z M79.6,306.7c3-3,8.7-6.8,10.1-10.9c0.3-1.1-0.1-3.3,0.1-3.8
		c0.6-1.1,3.4-2.3,4.4-2.9c1.6-1,3.2-1.9,4.8-2.8c2.1-1.2,2.1-1.6,3.9,0.2c1.4,1.4,2.2,1.8,1.8,3.6c-0.4,1.5-1.8,3.3-2.6,4.7
		c-0.7,1.3-1.5,3.3-2.7,4.3c-1.3,1.1-3,0.9-4.5,1.2c-4.4,0.9-7.5,6-10.5,9.1c-4.9,5-9.9,10-14.9,14.9c-1.3-1.1-2.6-2.3-3.9-3.4
		C70.2,316.1,74.9,311.4,79.6,306.7z M25.7,300.1C25,300.2,25.3,299.9,25.7,300.1L25.7,300.1z M57.2,346.5c-2.4,1.7-3.9,0.9-6.6,1.4
		c-2.6,0.4-3.4,1.8-3.4,4.3c0,2.1,0.5,3.7-0.6,5.7c-1.1,2-3.1,3.7-4.6,5.4c-1.9,2-3.8,3.9-5.7,5.9c-1.2,1.2-2.5,2.5-3.7,3.7
		c-1.4,1.4-1.4,1.8-3.4,1.6c-3.4-0.5-7.4-5.5-9.7-8.1c-1.4-1.6-3.9-3.6-3.4-5.9c0.4-2.1,4.5-5.7,5.9-7.4c3.3-3.7,7.8-9.6,13-10.1
		c2.6-0.2,5.3-0.1,6.3-3.1c0.7-2.1,0-3.9,0.5-5.9c0.3-1.2,1.3-2.3,2.3-3.3c5.2,4.5,10.1,9.4,14.8,14.4
		C58.4,345.5,57.8,346,57.2,346.5z M55.8,337.5c-1.2-1.2-2.4-2.3-3.5-3.5c0.5-0.5,1-1,1.4-1.4c1.2,1.2,2.3,2.4,3.5,3.6
		C56.8,336.6,56.3,337,55.8,337.5z M104.7,364.9c-0.4,4-2.9,7.1-7.5,6c-3.3-0.8-5.9-3.9-8.2-6.3c-12.2-12.3-24.2-24.8-36.3-37.3
		c-4.2-4.3-8.4-8.7-12.6-13c0,0,0,0,0,0c-0.3-0.4-0.8-0.5-1.4-0.4c-6.8,2.2-13.2,2.5-19-2.7c-5.2-4.7-6.3-13.2-1.9-18.7
		c1,1.7,2.1,3.5,3.1,5.2c0.8,1.3,1.7,4,3,4.8c2.4,1.6,7.8,0.8,10.7,0.9c0.7,0,1.2-0.5,1.4-1.1c1-2.6,3.7-7,3.6-9.8
		c-0.1-1.3-1.4-2.8-2-3.9c-1.2-2.2-2.4-4.3-3.7-6.5c5.2-0.6,9.7,0.9,13.4,5.3c4.8,5.6,3.8,13.1-0.5,18.8c-0.4,0.5-0.2,1.4,0.2,1.8
		c12.9,12.6,26.6,24.2,40.1,36.1c5.4,4.8,11,9.5,15.6,15.1C104.6,361.3,105,361.7,104.7,364.9z"/>
	<path class="st1" d="M99.7,359.4c-2-1.5-4.5-0.4-6,1.3c-0.1,0.1-0.2,0.2-0.2,0.3c-0.1,0.2-0.2,0.3-0.2,0.5c-0.8,2-0.3,4.5,1.7,5.7
		c2.2,1.3,4.9,0.3,6.4-1.6C103.1,363.4,101.7,360.8,99.7,359.4z M99.3,364.6c-0.8,0.7-2,1.2-3,0.7c-1.2-0.6-1.4-2.1-0.8-3.2
		c0.8-1.1,2.1-1.7,3.2-0.8C99.7,362.2,100.5,363.5,99.3,364.6z"/>
</g>
<g>
	<path class="st0" d="M96.1,462.7c2.7-5.4,0.9-12.7-4.5-16.1c-5.2-3.3-10.9-2.1-14.9,1.6c-0.8-16.7-22.5-25.4-37.4-20.5
		C22.4,433.3,18,451.9,26,466.1c-8.5-2.1-17.2,4.5-15.8,14.6c1.8,13.1,15.4,13.8,26,13.5c1.9-0.1,1.9-3.1,0-3
		c-7.1,0.2-16.4,1-21-5.6c-2.4-3.4-3-8.5-1.1-12.2c3-5.6,10.5-6.2,15.2-2.5c1.5,1.2,3.4-0.6,2.1-2.1c-10.6-12.6-7.9-32.6,8.7-38.1
		c14.1-4.7,37.2,4.3,33.2,22.5c-0.3,1.6,2,2.8,2.7,1.2c2.3-4.7,6.9-8.1,12.3-5.9c6.1,2.5,8.2,11,3,15.6c-1.1,1,0.1,3.1,1.5,2.5
		c12.3-4.8,19.9,13.6,9.7,20.7c-5.2,3.6-12.5,4.2-18.6,4.1c-1.9,0-1.9,3,0,3c9.4,0.2,22.6-1.7,25.9-12.1
		C112.8,472.9,105.5,462.2,96.1,462.7z"/>
	<path class="st0" d="M50.6,475c-0.4-0.4-1.2-0.4-1.6,0c-2.9,3.5-5.8,6.8-8.6,10.4c-0.5,0.7,0.2,1.7,1,1.7c0.9,0,1.9,0,2.8,0
		c0.1,5.8-0.1,11.6,0,17.4c0,0.4,0.2,0.7,0.5,0.9c0.2,0.1,0.4,0.2,0.6,0.2c3.1,0.1,6.2,0.2,9.3,0c0.6,0,1.1-0.5,1.1-1.1
		c-0.1-5.8,0-11.6,0-17.4c0.8,0,1.6,0,2.4,0c0.8,0,1.5-1,1-1.7C56.4,481.8,53.4,478.4,50.6,475z M46.4,503.4
		c-0.1-5.8,0.1-11.6,0-17.4c0-0.6-0.5-1.1-1.1-1.1c-0.5,0-1.1,0-1.6,0c2-2.5,4-4.9,6.1-7.4c2,2.4,4.1,4.9,6.1,7.4
		c-0.4,0-0.8,0-1.3,0c-0.6,0-1.1,0.5-1.1,1.1c0,5.8-0.1,11.6,0,17.5C51.1,503.5,48.7,503.5,46.4,503.4z"/>
	<path class="st0" d="M79.3,498.6c-0.8,0-1.6,0-2.4,0c0-5.8-0.1-11.6,0-17.4c0-0.6-0.5-1.1-1.1-1.1c-3.1-0.2-6.2-0.1-9.3,0
		c-0.2,0-0.4,0.1-0.6,0.2c-0.3,0.2-0.5,0.5-0.5,0.9c-0.1,5.8,0.1,11.6,0,17.4c-0.9,0-1.9,0-2.8,0c-0.8,0-1.5,1-1,1.7
		c2.7,3.6,5.7,6.9,8.6,10.4c0.4,0.4,1.2,0.4,1.6,0c2.9-3.3,5.5-6.9,8.4-10.2C80.7,499.7,80.3,498.6,79.3,498.6z M64.8,500.8
		c0.5,0,1.1,0,1.6,0c0.6,0,1.1-0.5,1.1-1.1c0.1-5.8-0.1-11.6,0-17.4c2.3-0.1,4.7-0.1,7,0c-0.1,5.8,0,11.6,0,17.5
		c0,0.6,0.5,1.1,1.1,1.1c0.4,0,0.8,0,1.2,0c-2,2.4-4,4.9-6,7.4C68.9,505.7,66.8,503.3,64.8,500.8z"/>
	<path class="st0" d="M44.1,437.6c1.4-0.2,1.4-2.4,0-2.3c-8.2,0.9-15.1,10-13.2,18.1c0.3,1.4,2.5,0.8,2.2-0.6
		C31.6,446.3,37.4,438.3,44.1,437.6z"/>
	<path class="st0" d="M44.3,440c-2.2,0.4-4.1,1.4-5.8,2.8c-1.1,1,0.5,2.6,1.6,1.6c1.4-1.2,3-2,4.8-2.3
		C46.3,441.9,45.7,439.8,44.3,440z"/>
</g>
<g>
	<g>
		<path class="st0" d="M-305.7,590.8c-6.1-4.7-15.9-2.7-21.9,1c-1.9,1.2-0.1,4.2,1.8,3c0.9-0.6,1.8-1,2.6-1.4
			c0.8,16.9,1.5,33.8,2.2,50.7c-1.5-0.2-3-0.5-4.4-1c-2.1-0.8-3,2.6-0.9,3.4c6.4,2.3,18.4,2.7,24.3-1.3c8.6-5.7,7.5-19.2,6.4-27.9
			C-296.6,609.7-299,596.1-305.7,590.8z M-311.7,644.2c-1.9,0.2-3.8,0.3-5.8,0.2c-0.8-17.4-1.5-34.8-2.3-52.3
			c14.8-3.7,20.6,18.3,21.3,31C-298,632.8-300.2,643.2-311.7,644.2z"/>
		<path class="st0" d="M-281.8,625.3c-5.5,0.5-10.4,4.7-10.4,10.5c0,6.7,6.3,12.1,12.8,12c6-0.2,11.2-5.2,10.6-11.4
			C-269.6,630.1-275.7,625.1-281.8,625.3z M-279.1,644.2c-10.1,0.9-13.6-14.5-2.7-15.5C-272.4,628.6-268.2,643.3-279.1,644.2z"/>
		<path class="st0" d="M-255.8,625.9c-5.5,0.5-10.4,4.7-10.4,10.5c0,6.7,6.3,12.1,12.8,12c6-0.2,11.2-5.2,10.6-11.4
			C-243.5,630.8-249.6,625.8-255.8,625.9z M-253.1,644.8c-10.1,0.9-13.6-14.5-2.7-15.5C-246.4,629.2-242.2,643.9-253.1,644.8z"/>
		<path class="st0" d="M-117.6,624.9c-5.7,0.5-10.7,4.9-10.8,10.9c-0.1,6.9,6.5,12.5,13.2,12.4c6.2-0.2,11.5-5.4,10.9-11.7
			C-104.9,629.9-111.2,624.8-117.6,624.9z M-114.7,644.6c-10.6,0.9-14.2-15.2-2.8-16.2c4.1-0.1,8.3,2.8,9.6,6.8
			C-106.6,639.9-110,644.2-114.7,644.6z"/>
		<path class="st0" d="M-219.9,584.3c0.1-2.2-3.4-2.2-3.5,0c-0.8,13.6-1.2,27.3-0.1,40.9c-6.8-1.7-14.8,0.2-16.8,7.8
			c-1.6,6.2,0.9,14.2,8,14.9c4.9,0.5,11.4-3.1,13-7.9c2.2-6.5-1.1-17.1-1.3-24C-220.9,605.4-220.5,594.9-219.9,584.3z M-227.3,643.4
			c-13,5.9-12.8-21,4.1-14.5c0,0.2,0,0.4,0,0.5C-222.6,635.1-221.2,640.6-227.3,643.4z"/>
		<path class="st0" d="M-214,584c0.1,25.1,0.8,40.4,1.2,62.1c0,2.2,3.5,2,3.5-0.3c-0.3-21.7-1.1-36.7-1.2-61.8c0,0-0.1-1.3-1.9-1.4
			C-214,582.6-214,584-214,584z"/>
		<path class="st0" d="M-186.1,641.6c-2,3.9-8.2,3.9-11.3,1.4c-1.8-1.4-3.1-3.8-3.7-6.3c4.9,1,12.3,2.1,13.3-3.4
			c1.4-7.4-7.9-10.3-13.2-6.9c-6.2,4.1-4.3,14.1,0.4,18.6c4.6,4.4,14.2,4.6,17.4-1.7C-182.1,641.4-185.1,639.6-186.1,641.6z
			 M-194.2,628.5c3.7,1.2,3.6,5.3-0.3,5.4c-2.2,0-4.5-0.4-6.7-0.8c0.1-0.3,0-0.7,0.1-1C-200.2,629.4-196.9,627.7-194.2,628.5z"/>
		<path class="st0" d="M-160,626.3c0.3,6.6,0.2,13.3,0.5,19.9c0.1,2.2,3.6,2.2,3.5,0c-0.3-6.6-0.2-13.3-0.5-19.9
			C-156.6,624-160.1,624-160,626.3z"/>
		<path class="st0" d="M-157.4,613c-0.1,0-0.2,0-0.3,0c-0.1,0-0.1-0.1-0.2-0.1c-5.6-0.6-8,7.7-2.2,9.3
			C-153.7,623.9-150.6,615-157.4,613z M-159.9,618.4c-0.6-1.2,0.8-1.8,1.8-1.9C-155.4,617.5-158.9,620.2-159.9,618.4z"/>
		<path class="st0" d="M-134,640.7c-2.7,5.1-10.5,6.5-12.2-0.1c-0.5-2.1-0.6-4.7,0-6.8c1-3.3,6.2-6.8,8.9-2.9c1,1.5,3,0.8,3.2-0.9
			c0.1-1.2,0.3-2.5,0.4-3.7c0.3-2.2-3.2-2.2-3.5,0c0,0.2,0,0.3-0.1,0.5c-2.5-1.3-5.6-1.2-8.2,0.4c-4.3,2.7-5.2,8-4.6,12.7
			c1.5,10.4,14.2,11.7,18.9,2.7C-129.9,640.5-133,638.7-134,640.7z"/>
		<path class="st0" d="M-84.4,631.1c-0.4-3.1-2-6-5.5-5.9c-3.2,0.1-5.2,1.7-6.5,3.9c0-1-0.1-1.9-0.1-2.9c0-2.2-3.5-2.2-3.5,0
			c0.1,6.9,0.4,13.8,1.8,20.6c0.4,1.9,3.6,1.5,3.4-0.5c-0.2-2.9-0.5-5.8-0.4-8.6c0.1-1.5,0.1-3,0.6-4.5c0.6-1.7,3.9-7.1,6.5-3
			c1.1,1.6,0.4,6,0.6,7.9c0.2,2.9,0.6,5.9,0.9,8.8c0.3,2.2,3.7,2.2,3.5,0C-83.7,641.7-83.7,636.3-84.4,631.1z"/>
	</g>
	<path class="st2" d="M-211.5,659.8h-10c-1.4,0-2.5,1.1-2.5,2.5c0,1.4,1.1,2.5,2.5,2.5h10c1.4,0,2.5-1.1,2.5-2.5
		C-209,660.9-210.1,659.8-211.5,659.8z"/>
	<path class="st2" d="M-275.6,659.8h-10c-1.4,0-2.5,1.1-2.5,2.5c0,1.4,1.1,2.5,2.5,2.5h10c1.4,0,2.5-1.1,2.5-2.5
		C-273.2,660.9-274.3,659.8-275.6,659.8z"/>
	<path class="st2" d="M-232.9,659.8h-10c-1.4,0-2.5,1.1-2.5,2.5c0,1.4,1.1,2.5,2.5,2.5h10c1.4,0,2.5-1.1,2.5-2.5
		C-230.4,660.9-231.5,659.8-232.9,659.8z"/>
	<path class="st2" d="M-254.2,659.8h-10c-1.4,0-2.5,1.1-2.5,2.5c0,1.4,1.1,2.5,2.5,2.5h10c1.4,0,2.5-1.1,2.5-2.5
		C-251.8,660.9-252.9,659.8-254.2,659.8z"/>
	<path class="st2" d="M-297,659.8h-10c-1.4,0-2.5,1.1-2.5,2.5c0,1.4,1.1,2.5,2.5,2.5h10c1.4,0,2.5-1.1,2.5-2.5
		C-294.6,660.9-295.7,659.8-297,659.8z"/>
	<path class="st2" d="M-318.4,659.8h-10c-1.4,0-2.5,1.1-2.5,2.5c0,1.4,1.1,2.5,2.5,2.5h10c1.4,0,2.5-1.1,2.5-2.5
		C-316,660.9-317.1,659.8-318.4,659.8z"/>
	<path class="st2" d="M-147.3,659.8h-10c-1.4,0-2.5,1.1-2.5,2.5c0,1.4,1.1,2.5,2.5,2.5h10c1.4,0,2.5-1.1,2.5-2.5
		C-144.8,660.9-145.9,659.8-147.3,659.8z"/>
	<path class="st2" d="M-190.1,659.8h-10c-1.4,0-2.5,1.1-2.5,2.5c0,1.4,1.1,2.5,2.5,2.5h10c1.4,0,2.5-1.1,2.5-2.5
		C-187.6,660.9-188.7,659.8-190.1,659.8z"/>
	<path class="st2" d="M-104.5,659.8h-10c-1.4,0-2.5,1.1-2.5,2.5c0,1.4,1.1,2.5,2.5,2.5h10c1.4,0,2.5-1.1,2.5-2.5
		C-102,660.9-103.1,659.8-104.5,659.8z"/>
	<path class="st2" d="M-125.9,659.8h-10c-1.4,0-2.5,1.1-2.5,2.5c0,1.4,1.1,2.5,2.5,2.5h10c1.4,0,2.5-1.1,2.5-2.5
		C-123.4,660.9-124.5,659.8-125.9,659.8z"/>
	<path class="st2" d="M-83.1,659.8h-10c-1.4,0-2.5,1.1-2.5,2.5c0,1.4,1.1,2.5,2.5,2.5h10c1.4,0,2.5-1.1,2.5-2.5
		C-80.6,660.9-81.7,659.8-83.1,659.8z"/>
	<path class="st2" d="M-168.7,659.8h-10c-1.4,0-2.5,1.1-2.5,2.5c0,1.4,1.1,2.5,2.5,2.5h10c1.4,0,2.5-1.1,2.5-2.5
		C-166.2,660.9-167.3,659.8-168.7,659.8z"/>
	<g>
		<path class="st2" d="M-74.1,623.6c1.2-1.8,2.4-3.6,3.9-5.2c1.8-2.1-1.2-5.2-3.1-3.1c-1.7,1.9-3.2,4-4.5,6.1
			C-79.3,623.8-75.6,626-74.1,623.6L-74.1,623.6z"/>
	</g>
	<g>
		<path class="st2" d="M-66.9,624.4c1.5-2.1,3.2-3.9,5.1-5.6c2.1-1.8-0.9-4.9-3.1-3.1c-2.3,1.9-4.1,4-5.8,6.4
			C-72.2,624.5-68.5,626.7-66.9,624.4L-66.9,624.4z"/>
	</g>
</g>
</svg>
