<?xml version="1.0" encoding="utf-8"?>
<!-- Generator: Adobe Illustrator 24.2.3, SVG Export Plug-In . SVG Version: 6.00 Build 0)  -->
<svg version="1.1" xmlns="http://www.w3.org/2000/svg" xmlns:xlink="http://www.w3.org/1999/xlink" x="0px" y="0px"
	 viewBox="0 0 2332.3 642.9" style="enable-background:new 0 0 2332.3 642.9;" xml:space="preserve">
<style type="text/css">
	.st0{fill:#0090D3;}
	.st1{fill:#FFFFFF;}
	.st2{fill:#ADE5ED;}
</style>
<g id="Layer_2">
</g>
<g id="Layer_1">
	<g id="Layer_2_1_">
	</g>
	<g id="Layer_1_1_">
		<path class="st0" d="M265.3,185.9c0-65.3,36.4-124.3,83.7-162.3L303.3,1.2H59.1C22.7,1.2,4.5,20.1,4.5,57.8v158.4
			c0,21,6.6,37.2,19.7,48.7c1.8,1.6,17.8,11.7,48,30.3c-31.2,19.1-47.7,29.6-49.5,31.4C8.5,338.9,1.5,355.8,1.5,377.3v182.8
			c0,37.5,60.7,78.2,98.2,78.2l203.7-22v-272C256,306.3,265.3,251.2,265.3,185.9z M211.2,538.9H93.7V363.6l45.2-29.9h72.3
			L211.2,538.9L211.2,538.9z M211.2,259.1h-70.8L96,227.7v-149h115.2L211.2,259.1L211.2,259.1z"/>
		<g>
			<path class="st1" d="M1263.8,638.4h-59.9l-141.3-294.5v294.5h-54.4V25.6h54.4v275.3L1191,25.6h59.1v3.5l-138.6,291.7
				L1263.8,638.4z"/>
			<path class="st1" d="M1496.5,638.4h-195.8V25.6h54.4v564.6h141.4V638.4z"/>
			<path class="st1" d="M2001.6,638.4h-51.3v-388c0-5.5,1.8-21.5,5.5-48.2l-100.2,378.6h-11l-100.2-378.6
				c3.7,26.9,5.5,42.9,5.5,48.2v388h-51.3V25.6h50.5l99.5,398.6c0.5,2.1,1,8,1.6,17.6c0-3.9,0.5-9.8,1.6-17.6l99.5-398.6h50.5v612.8
				H2001.6z"/>
			<path class="st1" d="M2330.6,638.4h-54l-21.5-136.3h-121.8l-21.5,136.3h-52.5v-1.6L2168.5,24h53.6L2330.6,638.4z M2247.9,454
				l-53.6-332.1l-54,332.1H2247.9z"/>
			<g>
				<rect x="1557.9" y="25.6" class="st1" width="54.4" height="91.8"/>
				<rect x="1557.9" y="150.4" class="st1" width="54.4" height="488"/>
			</g>
		</g>
		<g>
			<polygon class="st0" points="380.8,1.4 380.8,579.1 426.5,638.4 472.5,638.4 518.8,21.2 472.5,1.4 			"/>
			<path class="st0" d="M845.6,1.4l-96.4,339.1c-1.6,12-2.4,21.3-2.4,27.8c-0.5-14.9-1.3-24.2-2.4-27.8L693.7,24.9L648,1.4h-86.6
				v17.4c0,63.4,0,270.9,0,327.4v268.7l45.7,23.5l42.5-23.5V330.6c0-15.4,14.2,7.2,10.6-21.8l63.5,250.1l45.7,23.5l80.1-336.7
				c-3.7,28.5-5.5,50.7-5.5,66.6V615l45.7,23.5l42.5-23.5l45.7-590.1L932.2,1.4L845.6,1.4L845.6,1.4z"/>
		</g>
		<g>
			<g>
				<path class="st2" d="M891.4,24.8L795,363.9c-1.6,12-2.4,21.3-2.4,27.8c-0.5-14.9-1.3-24.2-2.4-27.8L693.8,24.8h-86.6v17.7
					c48.4,38,79.5,97,79.5,163.3s-31.1,125.3-79.5,163.3v269.3h88.2V335.7c0-15.4-1.8-37.6-5.5-66.6l79.6,313.2h46.7l79.2-313.2
					c-3.7,28.5-5.5,50.7-5.5,66.6v302.7h88.2V24.8H891.4z"/>
			</g>
		</g>
		<g>
			<path class="st2" d="M978,642h-88.7V337.5c0-16,1.8-38.4,5.5-67l-79.7,315.1h-46.9l-80.1-315.1c3.7,29.2,5.5,51.5,5.5,67v304.4
				h-88.7V24.8H692l97,341.1c1,3.7,1.8,13,2.4,28c0-6.6,0.8-15.9,2.4-28l97-341.1h87.1L978,642L978,642z"/>
		</g>
		<g>
			<path class="st2" d="M518.8,638.4h-92.3V21.2h92.3V638.4z"/>
		</g>
		<g>
			<path class="st2" d="M47,399.1c0-21.6,7.1-38.5,21.3-50.9c1.8-1.8,18.4-12.4,49.7-31.5c-30.2-18.7-46.3-28.8-48.1-30.4
				c-13.1-11.6-19.7-27.9-19.7-48.9V78.5c0-37.9,18.3-56.8,54.8-56.8h244.9v617.1H103.4C65.8,638.8,47,620,47,582.4V399.1z
				 M257.6,561.1V355.3H185l-45.3,30v175.9L257.6,561.1L257.6,561.1z M186.6,280.4h71v-181H142v149.5L186.6,280.4z"/>
		</g>
	</g>
</g>
</svg>
