<?xml version="1.0" encoding="utf-8"?>
<!-- Generator: Adobe Illustrator 22.1.0, SVG Export Plug-In . SVG Version: 6.00 Build 0)  -->
<svg version="1.1" id="Layer_1" xmlns="http://www.w3.org/2000/svg" xmlns:xlink="http://www.w3.org/1999/xlink" x="0px" y="0px"
	 viewBox="0 0 109.9 90.4" style="enable-background:new 0 0 109.9 90.4;" xml:space="preserve">
<style type="text/css">
	.st0{fill:#4D4D4D;}
	.st1{fill:#FFFFFF;}
	.st2{fill:#95BAA8;}
</style>
<g>
	<path class="st0" d="M-79.7-111.3c-9.5,0.8-17.1,8.6-16.7,18.3c0.5,10,8.9,17.5,18.7,17.6C-53.1-75.1-55.7-114.2-79.7-111.3z
		 M-77.6-78.3c-8.2,0-15.2-6.4-15.7-14.6c-0.5-8,5.8-14.7,13.7-15.3C-59.6-110.7-56.9-78.4-77.6-78.3z"/>
	<path class="st0" d="M-26.5-92.4c-0.1-2.5,0.8-7.6-1.5-9.5c-2.2-1.8-7.3-1.4-10.6-1.5c-0.8-2.5-1.3-5.2-2.3-7.6
		c-0.4-1-2-2.9-1.7-3.8c0.4-1.3,4.8-3.3,5.8-4.8c0.8-1.2,1.3-2.3,0.9-3.7c-0.6-2.4-3.5-4.2-5.2-5.8c-1.7-1.6-3.8-4.5-6-5.4
		c-3.5-1.4-7,3.4-9.4,6.1c-2.8-1.7-5.7-2.6-8.7-4c-2.1-1-2.5-1-3-3.2c-0.4-1.7,0.3-3.7-0.1-5.5c-1.2-5.3-6.8-3.7-11-3.4
		c-4.3,0.3-9.1-0.5-9.3,4.9c-0.1,1.7,0.8,3.9,0.2,5.6c-0.5,1.4-0.9,1.1-2.8,1.8c-3,1.1-5.7,2.4-8.4,4.1c-2.1-2.5-4.4-6-7.9-5.9
		c-3.7,0.2-7.3,4.9-9.6,7.3c-4.8,4.9,0.2,8.3,3.9,12.1c-2.6,3.5-4.4,7.3-5.5,11.6c-3.3-0.6-7.9-1.1-10.2,1.2
		c-2.4,2.4-1.3,8.5-1,11.4c0.2,2.5,0.1,5.8,2.5,7.2c2.4,1.4,6.4,0.7,9.3,0.3c0.7,2.6,1.5,5.2,2.6,7.7c0.3,0.6,1.4,2.2,1.3,2.7
		c0,0.2-0.7,0.6-0.9,1.1c-1.4,2.4-6.3,4.7-5.1,8.3c1.1,3.4,8.2,9.4,11.6,10.8c3.8,1.4,6.9-2.6,9.4-5.2c3.5,2.5,7.3,4.1,11.7,4.7
		c-0.2,3.3-1.5,7.9,0.6,10.3c1.5,1.8,5.1,1.4,7.1,1.4c2.6,0.1,6,0.4,8.5-0.6c1.8-0.7,2.7-1.8,3.1-3.6c0.4-2-1.3-5.5-0.5-7.1
		c0.7-1.3,5.1-2.1,6.7-3c2.7-1.4,4.9-4.1,7.7-1.5c3,2.6,4.3,7.2,8.5,4.7c3.1-1.9,6.6-5.5,8.4-8.6c2.1-3.5,0.6-4.8-2.2-7.3
		c-2.8-2.5-3.8-2.3-2.2-6.1c1.3-3.1,2.3-6.2,3.3-9.4c3.2,0.2,7.9,0.9,10.4-0.7C-25.4-85.7-26.4-90-26.5-92.4z M-31.3-86.5
		c-2.2,0.7-5.8,0-8.1,0.1c-0.5,0-0.9,0.2-1.1,0.5c-0.1,0.2-0.3,0.3-0.3,0.6c-1.3,4.2-3.3,8.1-4.8,12.2c-0.7,1.8-0.4,2.8,0.7,4.3
		c1.3,1.7,4.5,2.8,5.2,4.7c0.8,2-3.2,5.6-4.5,6.8c-0.7,0.7-1.9,2.1-2.8,2.4c-1.8,0.5-2.5-0.8-3.8-2.3c-1.3-1.5-2.7-4-4.9-4.2
		c-1.6-0.2-3.3,1.1-4.6,1.8c-3.4,1.9-6.3,3.4-10.2,4.1c-0.5,0.1-1,0.6-1,1c-0.3,1.9,0.2,3.7,0.2,5.6c0,5.1-4.4,5.1-8.5,5
		c-3.6-0.1-5-0.1-4.9-3.9c0.1-2,0.3-4.1,0.2-6.2c-0.1-0.9-0.6-1.4-1.5-1.5c-4.6-0.4-8.6-2.1-12.3-4.9c-0.2-0.1-0.4-0.2-0.6-0.3
		c-0.5-0.2-1-0.1-1.5,0.3c-1.3,1.2-3.8,4.5-5.5,5c-2.9,0.9-5.6-2.5-7.4-4.3c-1.5-1.4-4.1-3.1-3.4-5.5c0.5-1.6,2.9-3.2,4.1-4.3
		c1.3-1.3,1.8-1.6,1.4-3.4c-0.5-2-1.9-4-2.6-5.9c-0.7-2-1.3-4-1.7-6c-0.1-0.6-0.8-1.2-1.4-1.1c-1.6,0.2-3.1,0.4-4.7,0.4
		c-2.8,0.1-4.4,0.4-5-2.7c-0.4-2.3-0.7-5.2-0.4-7.4c0.2-1.3,0.3-3.4,1.6-4.3c1.5-0.9,6.1,0,7.5,0.3c0.8,0.2,1.7-0.2,1.8-1
		c1.1-4.9,3.1-9.1,6.2-13.1c0.4-0.5,0.2-1.4-0.2-1.8c-2.2-2.5-7.1-5.3-4.7-8.8c0.9-1.3,3.6-4.2,5.1-4.8c4.5-2.1,6.2,1,8.7,3.9
		c0.3,0.8,1.2,1.3,2,0.7c3.3-2.3,6.8-3.6,10.4-5c0.8-0.3,1.9-0.6,2.5-1.3c0.9-0.9,0.9-2.5,1-3.7c0.1-1.3-0.6-2.8-0.3-4
		c0.6-2.5,3.2-2.4,5.4-2.6c1.4-0.1,3.1-0.3,4.6-0.4c1.8-0.1,2.7,0.1,3.7,0.7c1.3,0.7,0.7,2.1,0.8,3.8c0.2,1.8-0.7,3.6,0.3,5.4
		c0.8,1.3,1.7,1.5,3.1,2c3.7,1.3,7.1,2.4,10.4,4.6c0.1,0.1,0.2,0.1,0.4,0.2c0.5,0.3,1.1,0.3,1.7-0.3c1.6-1.6,3.5-4.4,5.4-5.4
		c2.5-1.2,3.8,1.3,5.8,3.2c2.1,1.9,5.7,4,3.7,7.2c-1,1.5-3.3,2.1-4.6,3.5c-1.2,1.3-1.3,2.1-0.7,3.7c0.6,1.6,1.6,2.9,2.2,4.6
		c0.8,2.3,1.4,4.8,2.2,7.1c0.2,0.7,0.8,1,1.4,1.1c2.3,0.2,5.2-0.1,7.5,0.6c3.6,1,2.6,4.4,2.7,7.5C-29.4-89.9-28.6-87.3-31.3-86.5z"
		/>
	<path class="st0" d="M-85.2-118.8c1.8-0.6,3.6-0.9,5.6-0.9c1.9,0,1.9-3,0-3c-2.2,0-4.3,0.3-6.4,1C-87.8-121.1-87-118.2-85.2-118.8z
		"/>
	<path class="st0" d="M-68.5-117.9c1.6,0.4,3,1.1,4.2,2.2c1.5,1.3,3.6-0.9,2.1-2.1c-1.6-1.4-3.5-2.4-5.6-3
		C-69.6-121.3-70.4-118.4-68.5-117.9z"/>
	<path class="st0" d="M-50.7-104.1c-0.7-1.9-1.6-3.6-2.8-5.2c-0.5-0.6-1.3-1-2.1-0.5c-0.6,0.4-1,1.4-0.5,2.1c1,1.4,1.9,2.8,2.5,4.5
		C-53-101.5-50.1-102.3-50.7-104.1z"/>
	<path class="st0" d="M-51.9-91.8c-0.2,1.8-0.5,3.5-0.9,5.2c-0.5,1.9,2.4,2.7,2.9,0.8c0.5-2,0.8-4,1-6
		C-48.7-93.7-51.7-93.7-51.9-91.8z"/>
	<path class="st0" d="M-56-77.2c-0.6-0.4-1.7-0.2-2.1,0.5c-0.7,1.5-1.8,2.7-3.2,3.5c-1.7,0.9-0.2,3.5,1.5,2.6c1.9-1,3.4-2.7,4.3-4.6
		C-55.1-75.9-55.2-76.7-56-77.2z"/>
	<path class="st0" d="M-71.5-67.9c-1.7,0.3-3.4,0.5-5.2,0.7c-1.9,0.2-1.9,3.2,0,3c2-0.2,4-0.4,6-0.8C-68.8-65.4-69.6-68.3-71.5-67.9
		z"/>
	<path class="st0" d="M-87.7-68.9c-1.8-0.5-3.4-1.3-4.9-2.4c-0.7-0.5-1.7-0.1-2.1,0.5c-0.5,0.8-0.1,1.6,0.5,2.1
		c1.7,1.2,3.6,2.1,5.6,2.7C-86.6-65.5-85.8-68.4-87.7-68.9z"/>
	<path class="st0" d="M-102.8-83.8c-0.5-1.9-3.4-1.1-2.9,0.8c0.6,2.2,1.6,4.1,3,5.8c0.5,0.6,1.6,0.5,2.1,0c0.6-0.6,0.5-1.5,0-2.1
		C-101.6-80.7-102.3-82.2-102.8-83.8z"/>
	<path class="st0" d="M-104.1-94.8c0-1.8,0.1-3.6,0.4-5.4c0.3-1.9-2.6-2.7-2.9-0.8c-0.3,2.1-0.5,4.1-0.5,6.2
		C-107.1-92.9-104.1-92.9-104.1-94.8z"/>
	<path class="st0" d="M-96.3-116c-1.8,1.1-3.4,2.5-4.8,4.2c-0.5,0.6-0.6,1.5,0,2.1c0.5,0.5,1.6,0.6,2.1,0c1.2-1.5,2.6-2.7,4.2-3.7
		C-93.2-114.4-94.7-117-96.3-116z"/>
</g>
<g>
	<path class="st0" d="M-188.2-132c-5.7-10.9-18.3-17.9-30.7-14.7c-10.2,2.1-19.3,10.4-20.7,21c-1.4,10.7,4.1,21.8,13.5,27
		c2.9,1.6,6.1,2.7,9.4,3.2c0.2,3.5,0.4,7,1,10.5c-2.9,2.4-2.8,8.1-3.1,11.5c-0.7,7.5,0,15.1,0.2,22.6c0.2,3.4-0.1,8.8,3.1,11.1
		c2.5,1.8,8.8,2,11.4,0.4c3.7-2.3,3.9-8,3.9-11.8c-0.1-7.6-0.3-15.6-1.2-23.2c-0.4-3.9-0.3-8.9-4-11.1c-0.3-3.4-0.2-6.8-0.4-10.1
		c4.5-0.8,8.7-2.6,12.3-5.4C-183.3-108.7-182.5-121.1-188.2-132z M-204.2-72.4c0.6,7.5,1.4,15.6,1,23.2c-0.2,2.9-0.3,5.2-2.9,6.8
		c-1.8,1.1-3.8,1.2-5.8,0.7c-0.1,0-0.1,0-0.2-0.1c0.3-0.1,0.6-0.3,0.9-0.4c0.6-0.2,1-0.8,0.8-1.4c-0.2-0.5-0.8-1-1.4-0.8
		c-0.8,0.3-1.7,0.7-2.5,1.1c-0.3-0.4-0.5-0.8-0.7-1.3c1.4-1.1,2.9-2.2,4.5-3.2c1.2-0.8,0.1-2.7-1.1-1.9c-1.3,0.8-2.6,1.8-3.8,2.7
		c0-0.5-0.1-1.1-0.1-1.6c1.5-1,3-2.1,4.5-3.1c1.2-0.8,0.1-2.8-1.1-1.9c-1.2,0.8-2.3,1.6-3.5,2.4c0-0.5,0-1.1,0-1.6
		c1.4-1.3,2.8-2.5,4.4-3.6c1.2-0.8,0.1-2.8-1.1-1.9c-1.2,0.8-2.3,1.7-3.4,2.6c0-0.9-0.1-1.7-0.1-2.6c1.4-1.1,2.9-2.1,4.5-3
		c1.2-0.7,0.1-2.7-1.1-1.9c-1.2,0.7-2.3,1.5-3.5,2.3c0-0.5,0-1,0-1.5c1.4-1,2.9-2,4.3-3c1.2-0.8,0.1-2.8-1.1-1.9
		c-1.1,0.7-2.2,1.5-3.2,2.2c0-0.5,0-1,0-1.4c0.1-0.1,0.2-0.1,0.3-0.2c1.5-1.6,3.1-3,4.9-4.1c1.2-0.8,0.1-2.7-1.1-1.9
		c-1.4,0.9-2.8,2-4,3.1c0-0.6,0.1-1.2,0.1-1.8c1.6-1.4,3.4-2.5,5.4-3.4c1.3-0.6,0.2-2.6-1.1-1.9c-1.4,0.7-2.7,1.5-4,2.4
		c0-0.6,0.1-1.1,0.2-1.7c1.3-0.9,2.7-1.8,4.2-2.5c1.3-0.6,0.2-2.6-1.1-1.9c-0.9,0.4-1.7,0.9-2.5,1.3c0.6-2,1.8-3.7,4.4-4
		C-204.6-84.3-204.5-76.4-204.2-72.4z M-208.5-86.5c-1.4-0.2-3-0.1-4.4,0.2c-0.5-2.9-0.6-5.9-0.8-8.8c1.6,0.1,3.3,0.1,4.9-0.1
		C-208.6-92.3-208.7-89.4-208.5-86.5z M-209.4-98.1c-12.4,1-24.2-6.6-26.9-19.1c-2.7-12.6,5.8-24.1,18.2-26.6
		c13-3.4,25.1,5.7,29.2,17.7C-183.9-111.4-194.8-99.2-209.4-98.1z"/>
	<path class="st0" d="M-213.5-141.9c-11.2,0.8-22.6,11-20.7,22.9c1.8,11.4,13.7,18.6,24.6,18.4c12.1-0.2,20.2-8.5,18.5-20.8
		C-192.7-132.6-201.9-142.3-213.5-141.9z M-195.6-109c-3.2,4.5-8.8,6-14,6.1c-9.3,0.2-19.6-5.5-22.1-15c-2.8-11,7.8-21.1,18.2-21.8
		c9.4-0.3,17,6.7,19.5,15.6C-192.7-119.3-192.7-113.2-195.6-109z"/>
	<path class="st0" d="M-221.6-134.4c-5.1,2.6-8.3,7.7-8.8,13.4c0,1.7,0.3,4.2,2.2,4.7c1.5,0.4,2.8-0.8,3.2-2.2
		c0.4-1.3,0.3-2.6,0.6-3.9c0.5-1.8,1.6-3.4,2.8-4.8c1.5-1.7,3.9-2.5,5.2-4.2c0.7-1,0.8-2.6-0.1-3.5
		C-217.8-136.2-220.2-135.1-221.6-134.4z M-220.9-130.9c-1.8,1.4-3.4,3.2-4.5,5.2c-0.6,1.1-1.1,2.4-1.4,3.6
		c-0.1,0.4-0.1,0.8-0.2,1.2c-0.4,1.1-1.3,2.9-1.2-0.1c0.3-3.9,2.2-7.4,5.3-9.9c0.5-0.4,4.4-3,4.3-1.6
		C-218.6-132.3-220.5-131.2-220.9-130.9z"/>
	<path class="st0" d="M-212.6-137.3C-212.6-137.3-212.7-137.3-212.6-137.3c-0.1,0-0.2,0.1-0.3,0.1c-1.8,0.9-2.3,3.4-1,5
		c1.4,1.6,3.9,1.3,5-0.4c0.7-1,0.5-2.4-0.1-3.5C-209.7-137.5-211.2-137.8-212.6-137.3z M-210.9-133.6c-0.3,0.2-0.6,0.3-0.9,0.2
		c-0.8-0.3-0.7-1.4,0-1.8c0.4-0.1,0.7-0.2,0.9,0.1c0.2,0.3,0.3,0.7,0.3,1.1c0,0,0,0.1,0,0.1C-210.7-133.8-210.8-133.7-210.9-133.6z
		 M-210.6-134.1C-210.6-134.1-210.6-134.1-210.6-134.1L-210.6-134.1z"/>
</g>
<g>
	<path class="st0" d="M87.5-113.4c-1.8-0.2-3.8,0.2-5.7,0.6c-1.9-4.7-4-9.4-6.3-13.9c-1.4-2.9-3.1-7.4-5.9-9.3
		c-3.9-2.6-8.2,1.7-10.6,4.4c-10.3,11.3-19.7,23.2-33.5,30.5c-0.1,0.1-0.2,0.1-0.3,0.2c-3.9,1.2-7.8,2.4-11.6,3.7
		c-2.5,0.8-5.9,1.4-7.9,3.2c-3.5,3.1-1.2,10,0.2,13.5c1.3,3.4,4.4,10.2,8.3,11.3c1.1,0.3,2.3,0.1,3.6-0.2c2.3,4.8,4.5,9.8,7.1,14.5
		c1.7,3,3.5,7,7.5,5.6c4.2-1.4,9.5-5.7,8.3-10.7c-0.6-2.5-3-4.4-4.4-6.4c-1.6-2.3-2.8-4.7-4-7.2c0.6-0.2,1.3-0.4,1.9-0.6
		c7.9-1.5,15.9-2.3,23.9-1.4c7.2,0.8,14.2,2.7,21.2,4.2c3.5,0.7,10.1,3.5,12.4-0.7c2.4-4.3-0.8-12.3-1.9-16.6
		c-0.8-2.9-1.6-5.8-2.5-8.6c1.9-1.3,4.3-2.5,5.3-4.7c1-2.3,0-4.8-1-7C90.9-110.9,89.7-113.1,87.5-113.4z M11.9-75.6
		c-1.2-1.6-2.1-3.3-2.9-5.2c-0.8-1.8-1.4-3.7-1.7-5.7c-0.8-4.2,1.6-6.1,5.2-7.3c4.4-1.5,8.8-2.9,13.2-4.2c2.2,7.1,4.6,14.1,7.1,21.1
		c-3.9,1.3-7.9,2.4-11.9,3.4C17.2-72.5,14.4-72.1,11.9-75.6z M35.4-63.8c0.4,0.5,1,1.2,1.4,1.7c2,3.1,2,5-0.6,7.8
		c-0.7,0.8-2,1.6-2.9,2c-0.9,0.4-1.5,0.6-2.1,0.7c0.4-0.7,0.8-1.5,1-2.3c0.5-1.4-1.7-2-2.2-0.6c-0.2,0.7-0.5,1.3-0.9,1.9
		c-0.1-0.1-0.2-0.2-0.3-0.3c-0.2-0.2-0.4-0.5-0.6-0.7c0,0,0-0.1,0.1-0.1c0.2-0.5,0.5-0.9,0.7-1.4c0.3-0.6,0.5-1.1,0.7-1.7
		c0.5-1.4-1.7-2-2.2-0.6c-0.2,0.6-0.5,1.1-0.8,1.7c-0.3-0.5-0.6-1.1-0.8-1.6c0,0,0,0,0,0c0.5-1.1,1-2.3,1.5-3.4
		c0.3-0.6,0.2-1.2-0.4-1.5c-0.5-0.3-1.3-0.2-1.5,0.4c-0.3,0.6-0.6,1.3-0.9,1.9c-0.2-0.4-0.4-0.9-0.6-1.3c-0.1-0.2-0.2-0.4-0.3-0.6
		c0.1-0.1,0.2-0.2,0.2-0.3c0.5-0.9,1-1.7,1.5-2.6c0.7-1.3-1.2-2.4-1.9-1.1c-0.3,0.5-0.6,1.1-0.9,1.6c-0.3-0.6-0.6-1.2-0.9-1.8
		c0.1-0.1,0.2-0.1,0.2-0.2c0.4-0.6,0.9-1.2,1.3-1.8c0.3-0.5,0.1-1.2-0.4-1.5c-0.6-0.3-1.2-0.1-1.5,0.4c-0.2,0.3-0.4,0.6-0.7,0.9
		c-0.3-0.5-0.5-1.1-0.8-1.6c0.6-0.2,1.2-0.4,1.8-0.5c2.8-0.7,5.7-1.5,8.5-2.4C31.7-69.7,33.3-66.7,35.4-63.8z M77-75
		c-6.5-1.4-12.9-3-19.5-3.7c-7.6-0.8-15,0-22.5,1.3c-2.6-7.2-5-14.4-7.3-21.6c12.4-6.8,22-17.3,31.1-27.9c1.1-1.2,2.7-3.6,4.6-5.2
		c5.4,8,8.9,18,12.4,26.9c4,10.2,7.4,21.2,9.3,32C82.4-73.3,79-74.6,77-75z M89.5-75.9c-0.1,1.6-0.9,2.3-2.1,2.7
		c-2-11.2-5.4-22.7-9.7-33.2c-3.6-8.9-7-18.8-12.4-26.8c1-0.4,2-0.5,2.9,0c1.3,0.7,2.4,3.6,3,4.9c3.1,5.7,5.7,11.7,8.1,17.7
		c2.9,7.2,5.4,14.5,7.4,22C87.8-84.9,89.7-79.9,89.5-75.9z M90.2-102.2c-0.8,1.1-2.2,1.9-3.4,2.7c-1.2-3.8-2.6-7.5-4-11.1
		c0.9-0.1,1.8-0.3,2.7-0.4c2.2-0.2,3,0.4,4.1,2.4C90.4-106.7,91.6-104.2,90.2-102.2z"/>
	<path class="st0" d="M88.1-120.2c0-2.1,0-4.3,0-6.4c0-1.4-2.2-1.4-2.3,0c0,2.1,0,4.3,0,6.4C85.9-118.7,88.1-118.7,88.1-120.2z"/>
	<path class="st0" d="M97.3-115.8c1.2-1.3,2.3-2.6,3.5-3.9c1-1.1-0.6-2.7-1.6-1.6c-1.2,1.3-2.3,2.6-3.5,3.9
		C94.7-116.4,96.3-114.8,97.3-115.8z"/>
	<path class="st0" d="M105-108.5c-1.7-0.1-3.3-0.1-5-0.1c-1.4,0-1.4,2.2,0,2.3c1.7,0.1,3.3,0,5,0.1
		C106.5-106.1,106.4-108.4,105-108.5z"/>
	<path class="st0" d="M96.5-98.2c-1.2-0.8-2.3,1.1-1.1,1.9c1.4,1,2.8,2.2,4.1,3.4c1.1,1,2.7-0.6,1.6-1.6
		C99.6-95.8,98.1-97.1,96.5-98.2z"/>
	<path class="st0" d="M16-87.6c1.3-0.5,0.8-2.7-0.6-2.2c-1.5,0.6-3,1.2-4.5,1.8c-1.3,0.5-0.8,2.7,0.6,2.2C13-86.4,14.5-87,16-87.6z"
		/>
	<path class="st0" d="M16.6-86.1c-1.5,0.7-3.1,1.3-4.8,1.8c-1.4,0.4-0.8,2.6,0.6,2.2c1.8-0.5,3.6-1.2,5.3-2.1
		C19-84.8,17.9-86.7,16.6-86.1z"/>
</g>
<g>
	<path class="st0" d="M-179,150.1c-15-13.4-37.8-15.1-55.3-6c-17.9,9.3-29.7,29.1-26.8,49.5c3.3,23.3,30,35.3,51,35.8
		c9.8,0.3,18.5-2.1,26.9-7.2c8.4-5,13.7-12.1,17.4-21.1C-158.9,183.8-165.2,162.4-179,150.1z M-166,186.4c-4.4,0.9-8.8,1.6-13.2,2.2
		c0-1.9-0.1-3.8-0.2-5.7c-0.4-5.1-1.5-10.1-3.1-14.8c3.3-1.8,6.4-3.9,9.3-6.2C-168.5,169.2-165.9,178-166,186.4z M-238.2,189.1
		c-0.2-6.8,0.5-12.9,2.6-18.9c6.2,2.4,12.8,3.8,19.6,4.7c2.6,0.4,5.3,0.5,7.9,0.4c0.5,5.1,0.9,10.3,1.2,15.4
		c-1.7,0.1-3.4,0.1-5.2,0.2c-8.7,0.3-17.4,0.5-26.1,0.1C-238.2,190.3-238.2,189.7-238.2,189.1z M-208.4,172.2
		c-3.3,0.1-6.6-0.1-9.8-0.7c-5.7-1-11.1-2.2-16.3-4.2c0.6-1.5,1.3-3,2.2-4.5c4.5-8.3,10.7-16.2,19.1-20.8
		C-211.1,152.1-209.5,162.1-208.4,172.2z M-210.1,142.1c11.7,4.4,19.7,13.5,24,24.5c-6,2.9-12.6,4.8-19.2,5.4
		C-206.5,162-208.1,152-210.1,142.1z M-212,193.9c1.8-0.1,3.5-0.1,5.3-0.2c0.2,3.6,0.2,7.1,0.3,10.7c-0.9,0-1.8,0-2.7,0
		c-7.4,0.1-15.4,1.4-23,3.8c-2.8-4.3-4.7-9.1-5.6-14.2C-229.2,194.4-220.5,194.2-212,193.9z M-209.1,207.4c0.9,0,1.8,0,2.7,0
		c0,6.2-0.2,12.4-0.5,18.6c-9.3-2.1-17.6-7.7-23.3-15.2C-223.3,208.6-215.9,207.5-209.1,207.4z M-216.3,225.9
		c-9.3-1.2-18.8-4.4-26.6-9.8c3-1.7,6.2-3.1,9.5-4.3C-228.9,217.8-223,222.7-216.3,225.9z M-203.4,207.4c5.2,0.1,10.4,0.7,15.4,1.8
		c-4,6.8-8.8,12.4-15.9,16.1C-203.6,219.4-203.4,213.4-203.4,207.4z M-203.4,204.4c0-3.6-0.1-7.2-0.3-10.8
		c7.2-0.3,14.3-0.8,21.4-1.6c-0.4,5-1.6,9.7-4.2,14.5C-192,205.2-197.8,204.6-203.4,204.4z M-203.9,190.6
		c-0.3-5.2-0.7-10.3-1.2-15.5c6.8-0.7,13.7-2.7,19.9-5.7c1.5,4.7,2.5,9.6,2.8,14.6c0.1,1.7,0.2,3.3,0.1,5
		C-189.4,189.8-196.6,190.2-203.9,190.6z M-174.8,159.4c-2.7,2.2-5.6,4.2-8.7,5.9c-3.9-9.8-10.5-18.1-19.9-23.3
		c5.8,1.1,11.2,3.5,16.5,6.4C-182.2,151-178.1,154.8-174.8,159.4z M-239,150.6c6.1-4.5,12.9-7.1,20.1-8.4
		c-6.8,4.9-12.1,11.9-16,19.2c-0.9,1.6-1.6,3.2-2.3,4.8c-3.9-1.7-7.5-3.9-10.9-6.9C-245.4,156-242.3,153-239,150.6z M-250,161.7
		c3.6,3.1,7.5,5.5,11.6,7.3c-2.5,6.9-3.3,13.8-2.8,21.6c0,0,0,0.1,0,0.1c-5.9-0.4-11.8-1.1-17.6-2.4
		C-259.1,179-255.6,169.5-250,161.7z M-256,200.7c-1.4-3-2.2-6.1-2.6-9.2c5.8,1.2,11.8,1.9,17.7,2.3c0.8,5.5,2.8,10.7,5.8,15.4
		c-3.7,1.3-7.2,3-10.4,4.9C-249.9,210.5-253.5,206-256,200.7z M-197.7,225c5.3-3.9,9.4-9.1,12.7-15c2.8,0.8,5.5,1.8,8.1,3.1
		C-182.4,219-189.7,223-197.7,225z M-174.8,210.8c-2.8-1.5-5.7-2.6-8.7-3.5c2.6-5.2,3.9-10.3,4.3-15.7c4.4-0.6,8.8-1.3,13.1-2.2
		c-0.1,1.4-0.3,2.8-0.6,4.2C-168,200.3-170.9,206-174.8,210.8z"/>
	<path class="st0" d="M-258.7,162.5c3.5-6.5,8-12.3,13.5-17.2c1.1-1-0.5-2.5-1.6-1.6c-5.7,5-10.3,11-13.9,17.7
		C-261.4,162.6-259.4,163.8-258.7,162.5z"/>
	<path class="st0" d="M-258.6,154.4c1.3-2.4,2.9-4.6,4.8-6.5c1-1-0.6-2.6-1.6-1.6c-2.1,2-3.8,4.4-5.2,7
		C-261.2,154.5-259.2,155.6-258.6,154.4z"/>
	<path class="st0" d="M-171.8,217.9c-4.2,4.9-9.3,8.5-15.3,10.7c-1.3,0.5-0.8,2.7,0.6,2.2c6.4-2.4,11.9-6.1,16.3-11.3
		C-169.3,218.4-170.9,216.8-171.8,217.9z"/>
	<path class="st0" d="M-173.8,225.4c-1.2,1.4-2.7,2.6-4.3,3.4c-1.3,0.6-0.2,2.6,1.1,1.9c1.8-0.9,3.5-2.2,4.8-3.7
		C-171.2,225.9-172.8,224.3-173.8,225.4z"/>
</g>
<g>
	<path class="st0" d="M-93.8,213.2C-93.8,213.2-93.8,213.2-93.8,213.2c-3.7-0.5-7.1,1.8-7.3,5.8c-0.2,3.9,3,6.2,6.5,6.3
		c3.4,0.1,7-2.1,6.8-5.9C-87.9,216.1-90.5,213.3-93.8,213.2z M-94,222.3c-1.8,0.1-3.5-0.4-4-2.3c-0.6-2.4,1.5-4.3,3.8-3.9
		c0,0,0,0,0.1,0c0.1,0,0.2,0,0.3,0c1.6,0.1,2.7,1.3,3,2.8C-90.5,221-92.2,222.2-94,222.3z"/>
	<path class="st0" d="M-50.4,213c-3.6-0.4-6.5,2.6-6.4,6.1c0.1,1.9,1,4,2.6,5.1c1.3,1,3,0.9,4.6,1c3.5,0.3,5.5-3.7,4.9-6.8
		C-45.3,215.1-46.7,213-50.4,213z M-49.5,222.2c-2.1-0.1-3.8-0.4-4.2-2.8c-0.3-2.2,1.1-3.7,3.3-3.5c1.8,0,2.2,0.6,2.6,2.3
		C-47.4,219.7-47.5,222.3-49.5,222.2z"/>
	<path class="st0" d="M-38.3,163.5c-9-1.8-18.8-1.3-28-2c-13.9-1.1-27.7-1.9-41.6-2.4c-0.4-1.8-0.9-3.5-1.6-5
		c-1.4-3-4.3-3.6-7.2-4.5c0.1-1.1-0.2-1.9-1.5-2.6c-1.6-0.9-3.5-1.5-5.3-2.1c-2.3-0.7-7.6-1.8-7.5,2.2c0.1,3.1,4.1,4.3,6.5,5.1
		c2,0.7,4.8,1.4,6.5,0.1c1.8,0.6,3.5,0.9,4.9,2.4c1.6,1.7,1.7,4.2,2.3,6.5c1.1,4.9,2.4,9.7,3.7,14.6c2.2,8.1,4.6,16.2,6.5,24.4
		c-2.4,0.9-4.3,3-4.2,5.9c0.1,4.4,4.4,5.4,8,5.5c17,0.4,34,0.1,50.9,0.2c1.9,0,1.9-3,0-3c-10,0-20.1,0-30.1,0c-5.3,0-10.7,0-16-0.1
		c-2.1,0-7.6,0.8-9.2-1.1c-1.6-1.9,0.2-4.5,2.4-4.7c14.5,0.1,29-0.1,43.5,0.1c3.5,0,9.6,0.7,12.1-2.5c1.1-1.3,1.4-3.4,1.9-5
		c1.1-3.4,2.2-6.8,3.3-10.2c1.7-5.2,4-10.8,4.6-16.2C-33.3,165.4-35,164.1-38.3,163.5z M-124.2,149.8c-0.9-0.3-3.8-1.1-4.3-2.1
		c-0.4-0.8,0.5-1.4,1-1.5c0.3-0.1,0.7,0,1,0.1c1,0.2,1.9,0.5,2.8,0.8c1.1,0.4,2.1,0.8,3.1,1.2c1.1,0.4,1.6,0.5,1.3,1.7
		C-119.7,151.5-123.2,150.1-124.2,149.8z M-36.6,167.4c0.8,1.6-1,5.8-1.5,7.5c-0.1,0.4-0.3,0.9-0.4,1.3c-4.2-0.2-8.4-0.5-12.6-0.8
		c0.8-3.4,1.6-6.7,2.5-10C-44.4,165.5-37.6,165.5-36.6,167.4z M-41.5,185.7c-0.2,0.7-0.5,1.4-0.7,2.1c-3.8-0.2-7.6-0.3-11.4-0.4
		c0.6-3.2,1.3-6.5,2-9.7c4.1,0.3,8.3,0.5,12.4,0.8C-40,180.9-40.7,183.3-41.5,185.7z M-66.1,199.9c0.2-3.5,0.4-7,0.6-10.5
		c3,0.1,6.1,0.2,9.1,0.2c-0.7,3.4-1.3,6.8-2,10.2C-60.9,199.8-63.5,199.9-66.1,199.9z M-65.3,187.1c0.2-3.5,0.5-6.9,0.8-10.4
		c3.5,0.3,7.1,0.6,10.6,0.8c-0.7,3.3-1.3,6.5-2,9.8C-59,187.3-62.1,187.2-65.3,187.1z M-97.7,199.6c-0.8-3.8-1.8-7.5-2.8-11.3
		c2.9,0.1,5.7,0.2,8.6,0.3c0.8,3.7,1.6,7.4,2.6,11.1C-92.1,199.7-94.9,199.6-97.7,199.6z M-104.7,173.4c3.3,0.2,6.6,0.5,9.9,0.8
		c0.8,4.1,1.6,8.1,2.4,12.2c-2.9-0.1-5.8-0.2-8.8-0.3C-102.3,181.8-103.5,177.7-104.7,173.4z M-87,199.7c-1-3.6-1.9-7.3-2.6-11
		c3.2,0.1,6.3,0.2,9.5,0.3c0.2,3.6,0.5,7.2,0.7,10.8C-81.9,199.8-84.4,199.8-87,199.7C-87,199.7-87,199.7-87,199.7z M-90.1,186.5
		c-0.8-4-1.6-8-2.4-12c3.8,0.3,7.6,0.6,11.4,1c0.3,3.8,0.6,7.6,0.8,11.4C-83.5,186.6-86.8,186.6-90.1,186.5z M-92.9,172.1
		c-0.6-3.2-1.3-6.4-2-9.6c4.3,0.2,8.6,0.5,12.9,0.7c0.3,3.3,0.5,6.5,0.7,9.8C-85.1,172.8-89,172.4-92.9,172.1z M-78.8,175.5
		c4,0.3,8,0.7,12.1,1c-0.3,3.5-0.6,7-0.8,10.5c-3.5-0.1-7-0.2-10.4-0.3C-78.2,183-78.5,179.3-78.8,175.5z M-51,165.4
		c-0.9,3.3-1.7,6.6-2.4,9.9c-3.6-0.3-7.3-0.5-10.9-0.8c0.3-3.3,0.6-6.6,0.9-9.9c4,0.3,8.1,0.5,12.1,0.8
		C-51.2,165.4-51.1,165.4-51,165.4z M-65.6,164.4c-0.3,3.3-0.6,6.6-0.9,9.9c-4.1-0.3-8.3-0.7-12.4-1c-0.2-3.3-0.5-6.6-0.7-9.8
		c4.1,0.3,8.2,0.6,12.3,0.9C-66.8,164.4-66.2,164.4-65.6,164.4z M-107.3,162c3.3,0.1,6.7,0.3,10,0.4c0.7,3.2,1.4,6.3,2,9.5
		c-3.3-0.3-6.7-0.5-10.1-0.8c-0.2-0.7-0.4-1.4-0.6-2.1C-106.4,166.9-106.8,164.4-107.3,162z M-77.1,199.8c-0.2-3.6-0.5-7.2-0.7-10.8
		c3.4,0.1,6.8,0.2,10.1,0.2c-0.2,3.5-0.5,7-0.7,10.6C-71.3,199.9-74.2,199.9-77.1,199.8z M-44.6,195.1c-1.4,4.6-4,4.5-8.6,4.6
		c-1,0-1.9,0-2.9,0.1c0.7-3.3,1.4-6.7,2-10.1c3.7,0.1,7.4,0.2,11.1,0.4C-43.5,191.7-44,193.4-44.6,195.1z"/>
	<path class="st0" d="M-104,216.8c0.6-1.3-1.4-2.5-1.9-1.1c-1.3,2.9-0.9,6,1.1,8.5c0.9,1.1,2.5-0.5,1.6-1.6
		C-104.5,221-104.8,218.7-104,216.8z"/>
	<path class="st0" d="M-108.2,218.5c0-0.6-0.6-1.1-1.1-1.1c-0.6,0-1.1,0.5-1.1,1.1c-0.1,1.1,0.1,2.3,0.6,3.3
		c0.7,1.3,2.7,0.1,1.9-1.1C-108.3,220-108.3,219.2-108.2,218.5z"/>
</g>
<g>
	<path class="st0" d="M38.1,156.2c-11,6.9-17.6,22.1-13,34.6c1.5,4.1,3.4,8,5.9,11.6c1.3,1.8,2.8,3.4,4.3,5.1
		c2.2,2.5,2.9,4.4,3.7,7.5c0.3,1.3,0.7,2.1,1.3,2.7c-1,1.1-1.3,2.6-0.5,3.9c-1.9,2.5-1.1,4.1,1,5c-3.2,4.8,3.5,5.8,9.7,5.9
		c0.1,1,0.2,2,0.6,2.8c0.6,1.2,2.3,1.4,3.5,1.4c1.4,0,3.3-0.1,4.5-0.9c1.1-0.7,1.4-2.3,1.5-3.6c3.5,0.1,8.9,0.4,10.7-1.9
		c1.1-1.4,0.6-2.7-0.4-3.6c1.7-0.9,2.4-2.4,1-4.6c0.8-1.2,0.3-2.7-0.9-4c0.2-0.3,0.5-0.6,0.7-1.1c0.8-1.7,0.3-3.5,0.7-5.3
		c0.6-2.7,2.4-4.1,3.8-6.2c2.1-3.2,5.1-6.3,6.8-9.7c5.5-11.2,3.2-26.8-5.5-35.7C66.8,149.3,50.8,148.2,38.1,156.2z M52.7,178.7
		c0.3-1.8,1.3-2.9,3-3.2c1.2,1,1.7,2.2,1.3,3.7c0.1,1.7-0.7,3.3-2,4.5C53.6,182.4,52.4,180.5,52.7,178.7z M54.8,186.7
		c1.6,1.3,3.5,2.4,5.3,2.9c-2.5,8.6-1.9,19-1.4,27.5c-1.1,0-2.1-0.1-3-0.1c-1.4,0-2.8,0-4.2-0.1c-0.1-3.7,0.3-17.9-2-27.7
		C51.5,188.7,53.4,187.7,54.8,186.7z M55.7,220.1c3.6,0,7.3-0.2,10.9-0.5c0.9-0.1,1.7-0.2,2.4-0.4c2.2,2.2-4.2,2.7-5.8,2.8
		c-2.4,0.1-4.9,0-7.4,0c-2.3-0.1-4.5-0.1-6.8-0.3c-1.5-0.1-9.5-1.1-6.8-2.8c0.3,0.1,0.6,0.1,0.9,0.2
		C47.2,219.8,51.6,220.1,55.7,220.1z M68.5,225.3c-0.9,0.1-1.8,0.2-2.7,0.3c-1.1,0.1-2.2,0.1-3.4,0.2c-2.5,0.1-5,0-7.5,0
		c-2,0-4.1,0-6.1-0.1c-0.6,0-8.2-0.3-7.3-2.5c3.3,1.5,9.2,0.9,12,1c4.8,0.2,11,1.1,15.7-0.5C69,224.2,68.7,224.8,68.5,225.3z
		 M57.4,233.9c-0.8,0.3-2,0.4-2.9,0.4c-0.4,0-0.9,0.1-1.3-0.1c-0.3-0.2-0.1,0.1-0.3-0.3c-0.2-0.3-0.3-0.9-0.4-1.5
		c2.6-0.1,4.8-0.3,5.7-0.3C58.3,232.9,58.1,233.7,57.4,233.9z M68.4,227.5c-0.7,1.6-1.9,2.2-3.4,2c-1.2,0.1-2.3,0.1-3.5,0.2
		c-2,0.1-3.9,0.2-5.9,0.3c-1.5,0.1-15,0.5-12.8-2.6c0-0.1,0.1-0.1,0.1-0.2c4.2,0.9,10.1,0.7,12,0.7C56.7,228,63.7,228.5,68.4,227.5
		C68.4,227.5,68.4,227.5,68.4,227.5z M82.1,187.8c-0.8,4-1.7,6.6-4.3,10c-2.1,2.8-4.2,5.6-6.1,8.5c-0.9,1.5-1.8,2.9-2.2,4.6
		c-0.6,2.4,0.3,4.5-2.8,5.8c-1.5,0.6-3.6,0.7-5.7,0.6c-0.5-8.6-1-18.6,1.4-27.1c4.3,0.4,10.6-1.5,9.5-6.6c-1.6-7.3-8.4-2.1-10.3,2
		c-0.3,0.6-0.6,1.3-0.8,1.9c-0.9-0.3-1.8-0.7-2.4-1c-0.5-0.3-1.1-0.7-1.7-1.1c3.2-2.9,4.5-6.7,1.2-10.5c-2.7-3.1-6.6-1-7.4,2.9
		c-0.6,2.7,0.7,5.5,2.7,7.6c-1.3,0.9-2.8,1.5-4.3,1.9c-1.7-5.8-4.5-9.4-9.3-7c-2.8,1.4-2.4,5.3-0.6,7.3c2.1,2.4,5.2,2.8,8.3,2.3
		c0.9,4,0.8,8.2,1.1,12.3c0.3,4.9,0.5,9.9,0.8,14.8c-1.4-0.1-2.8-0.3-4.1-0.6c-2.1-0.5-2.5-0.4-3.4-2.7c-0.6-1.5-0.5-3.1-1.2-4.6
		c-1.8-3.5-5.6-6.1-7.8-9.4c-2.4-3.7-4.8-8.2-5.7-12.5c-1.5-6.9,0.8-14.2,4.5-19.9c5.4-8.3,13.8-12.4,23.6-13.2
		c8.9-0.7,18,4,23,11.5C82.4,172.1,83.7,180.1,82.1,187.8z M63.1,187.9c0-0.1,0.1-0.3,0.1-0.4c0.6-1.7,1.4-3.1,2.7-4.4
		c3.9-1.4,4.7-0.1,2.2,3.7C66.9,188.1,64.9,188.2,63.1,187.9z M46.8,187.6c-0.7,0.1-1.3,0.1-1.9,0c-1.5-0.1-6.6-1.8-5-4.6
		c2.2-3.9,6,2,6.6,3.8C46.7,187.1,46.7,187.3,46.8,187.6z"/>
	<path class="st0" d="M96.6,157.6c-3.2,1.5-6.6,2.8-9.5,4.9c-1.6,1.1-0.1,3.7,1.5,2.6c2.9-2.1,6.2-3.4,9.5-4.9
		C99.9,159.4,98.4,156.8,96.6,157.6z"/>
	<path class="st0" d="M74.9,150.6c2.2-2.8,3.9-5.9,5.7-9.1c0.9-1.7-1.6-3.2-2.6-1.5c-1.6,2.9-3.2,5.9-5.2,8.5
		C71.6,150,73.7,152.1,74.9,150.6z"/>
	<path class="st0" d="M55.9,144.3c0.2-3.4,0.3-6.8,0.3-10.1c0-1.9-3-1.9-3,0c0,3.4-0.1,6.8-0.3,10.1
		C52.7,146.3,55.7,146.3,55.9,144.3z"/>
	<path class="st0" d="M34.8,150.6c1.1,1.6,3.7,0.1,2.6-1.5c-2-3-4.3-6-5.6-9.4c-0.7-1.8-3.6-1-2.9,0.8
		C30.2,144.1,32.6,147.3,34.8,150.6z"/>
	<path class="st0" d="M22.3,162.3c-3-2.2-6.2-3.9-9.6-5.3c-1.8-0.7-2.6,2.2-0.8,2.9c3.2,1.3,6.1,3,8.9,5
		C22.4,166,23.9,163.4,22.3,162.3z"/>
	<path class="st0" d="M45.1,160c-7,2-13.3,9.6-14.3,16.8c-0.2,1.4,2,2,2.2,0.6c0.9-6.4,6.4-13.3,12.7-15.2
		C47.1,161.8,46.5,159.6,45.1,160z"/>
	<path class="st0" d="M46.5,163.9c-2.1,0.3-4.2,1.8-5.5,3.5c-0.9,1.1,0.7,2.7,1.6,1.6c1.1-1.4,2.6-2.6,4.5-2.9
		C48.5,165.8,47.9,163.7,46.5,163.9z"/>
</g>
<g>
	<path class="st0" d="M-169.8,7.7c-7.9-10.6-22-10.5-32.3-3.7c-5.5,3.6-10.4,8.4-14.6,13.4c-3.7,4.3-8,9.5-10,14.9
		c-0.1,0.3-0.2,0.6-0.3,0.9c-5.9,2.5-10.8,6.2-15.2,10.9c-4.8,5.1-10,10.9-13.2,17.2c-4.8,9.3-3,20.5,5.5,27.2
		c9.7,7.6,23.2-0.6,31-7.1c5.7-4.8,10.4-10.5,14.7-16.6c1.9-2.7,3.7-5.5,5.1-8.4c11.4-1.8,19.4-10.6,25.5-19.9
		C-168.2,27.9-162.9,16.9-169.8,7.7z M-210.5,30.1c1-1.5,2-2.8,2.7-3.7c4.7-6,9.8-13.1,17.5-15.1c5.4-1.4,10.7,1.7,10.3,7.6
		c-0.2,3.3-1.9,6.5-3.9,9.1c-3.7,5.1-8,10.2-13.4,13.4C-198.8,35-203.5,29.5-210.5,30.1z M-214.9,55.9c-1.9,2.5-3.7,4.7-4.4,5.6
		c-3.5,4.7-7.2,10.2-12.6,13c-2.8,1.5-8.5,3.1-10.8,0.2c-3.2-4,0.4-10.4,2.7-13.7c4.2-5.9,9.3-10.5,14.9-15
		C-222.7,50.2-218.9,53.8-214.9,55.9z M-233,87.5c-7.2,2.8-14.1,2-18.9-4.6c-3.7-5.1-5.1-10.8-3.1-16.9c2.3-6.7,7.5-12.3,12-17.6
		c4.4-5.2,9.4-9.7,15.6-12.6c0,0.2,0,0.3,0,0.5c-0.6,0.3-1.3,0.5-1.9,0.8c-0.5,0.3-0.7,1-0.4,1.5c0.3,0.6,1,0.7,1.5,0.4
		c0.3-0.1,0.6-0.2,0.8-0.4c0,0.1,0,0.1,0,0.2c-0.5,0.3-0.9,0.6-1.4,0.9c-1.2,0.8-0.1,2.7,1.1,1.9c0.2-0.1,0.5-0.3,0.7-0.4
		c0,0.1,0,0.2,0.1,0.2c-0.3,0.2-0.6,0.4-0.8,0.6c-0.5,0.4-0.7,1-0.4,1.5c0.3,0.5,1,0.8,1.5,0.4c0.2-0.1,0.3-0.2,0.5-0.3
		c0,0.1,0.1,0.1,0.1,0.2c0,0,0,0-0.1,0c-7.6,5.9-19,14.9-19.9,25.4c-0.3,3.4,0.8,7.7,4.3,8.7c3.6,1,7.8,0.1,11-1.6
		c7.9-4.2,12.7-13.3,18.3-19.9c3.5-4.1,8.7-15.5-1.2-16c0-0.1,0-0.1-0.1-0.2c0,0,0.1,0,0.1,0c1.4,0,1.4-2.2,0-2.3
		c-0.1,0-0.3,0-0.4,0c0-0.1,0-0.1,0-0.2c0.5,0,1,0.1,1.5,0.1c0.6,0.1,1.1-0.6,1.1-1.1c0-0.7-0.5-1-1.1-1.1c-0.3,0-0.7-0.1-1-0.1
		c0.1-0.2,0.1-0.3,0.2-0.5c0.3,0,0.6,0.1,0.9,0.1c0.6,0.1,1.1-0.6,1.1-1.1c0-0.6-0.5-1-1-1.1c0.1-0.1,0.1-0.3,0.2-0.4
		c6.5-1.6,10.9,2.9,12.6,8.9c1.6,5.9-0.4,11.9-3.4,17C-209.7,70.2-220.1,82.5-233,87.5z M-198.1,53.9c0-0.1,0.1-0.3,0.1-0.4
		c0.2,0,0.4,0,0.5-0.1c0.6-0.3,1.2-0.6,1.8-1c1.3-0.7,0.1-2.6-1.1-1.9c-0.1,0.1-0.3,0.1-0.4,0.2c0-0.2,0.1-0.4,0.1-0.6
		c0.7-0.3,1.4-0.6,2.2-0.9c0.6-0.3,0.7-1.1,0.4-1.5c-0.3-0.6-1-0.7-1.5-0.4c-0.2,0.1-0.5,0.2-0.7,0.3c0-0.2,0-0.4,0-0.5
		c0.4-0.2,0.9-0.3,1.3-0.5c0.6-0.2,1-0.8,0.8-1.4c-0.2-0.5-0.8-1-1.4-0.8c-0.3,0.1-0.5,0.2-0.8,0.3c0-0.2,0-0.5-0.1-0.7
		c4.8-2.6,8-6.3,11.5-10.5c2.7-3.3,5.4-6.4,6.8-10.5c2.6-7.8-2.2-15.6-10.9-14c-10.3,1.9-17.8,12.4-23.3,20.4
		c-4,5.7-5.8,14.4,2.9,16.3c0,0.1,0,0.3,0,0.5c-0.5-0.1-1-0.3-1.5-0.2c-0.6,0.1-1.1,0.5-1.1,1.1c0,0.6,0.5,1.2,1.1,1.1
		c0.3,0,0.7,0.1,1,0.2c-0.1,0.2-0.1,0.4-0.2,0.6c-0.4-0.1-0.9-0.2-1.3-0.3c-1.4-0.4-2,1.8-0.6,2.2c0.3,0.1,0.6,0.2,0.9,0.2
		c-0.1,0.2-0.2,0.4-0.4,0.7c-0.5-0.2-0.9-0.3-1.4-0.4c-1.4-0.4-2,1.8-0.6,2.2c0.3,0.1,0.5,0.2,0.7,0.2c-0.1,0.2-0.2,0.3-0.3,0.5
		c-5.4-2.4-9.2-7.3-10.9-12.9c-1.6-5.5,0.2-9.3,3.2-13.9c6.9-10.6,18.1-23.8,31.4-25.7c7.7-1.1,16.2,2.8,19.7,9.9
		c3,6,0.7,13-2.3,18.5C-177.9,40-186.2,51.4-198.1,53.9z"/>
	<path class="st0" d="M-194,3.5c-3.8,1.6-7.3,3.7-10.5,6.3c-1.1,0.9,0.5,2.5,1.6,1.6c3-2.5,6.4-4.5,10-6
		C-191.5,4.8-192.6,2.9-194,3.5z"/>
	<path class="st0" d="M-189.4,2.5c-1.4,0-1.5,2.2,0,2.2C-187.9,4.8-187.9,2.5-189.4,2.5z"/>
	<path class="st0" d="M-232.4,83.3c-3.7,1.8-7.6,2.4-11.6,1.8c-1.4-0.2-2,2-0.6,2.2c4.7,0.7,9.1,0,13.4-2
		C-230,84.6-231.1,82.7-232.4,83.3z"/>
	<path class="st0" d="M-228.2,81.3c-1.4,0-1.5,2.3,0,2.3C-226.7,83.5-226.7,81.3-228.2,81.3z"/>
</g>
<g>
	<path class="st0" d="M-32.3,32.6c-1.8-4.9-7.4-3.9-11.7-4.1c-6.6-0.2-13.2,0.5-19.7,0.1c-1.6-5.5-2.9-11.1-4.4-16.6
		c-1.3-4.7-3.5-10.1-9-11c-4.5-0.7-7,2.1-8.5,5.9c-2.8,7.2-4.4,14.7-7.5,21.9c-7.3,0-14.7-0.1-22,0.3c-3.4,0.2-7.8,0.5-9.2,4.1
		c-1.6,4.1,1,7.3,4,9.6c2.5,1.9,5.2,3.6,7.8,5.5c2.9,2.1,7.1,4.3,9.4,7.1c2.2,2.7-1.2,8.5-2.3,11.5c-1.2,3.3-2.6,6.6-3.4,10
		c-0.9,3.8-1.2,9.6,2.7,12.2c3.9,2.5,9-2.3,12-4.4c5.5-3.9,10.6-8.4,16.2-12c5,4.8,10.3,9.4,16,13.5c3.3,2.4,8.2,5.2,12.2,2.6
		c3.7-2.4,3.5-7.4,2.3-11.1c-2.2-6.8-4.4-13.7-6.6-20.5c5.6-4.1,11.2-8.3,16.7-12.5C-33.5,41.6-30.4,37.7-32.3,32.6z M-44.8,46.4
		c-3.9,2.9-7.7,6-11.7,8.8c-0.5,0.4-0.9,1-0.7,1.7c1.4,4.6,2.5,9.3,4,13.9c1.2,3.6,4.8,9,3.3,12.9c-3.7,9.4-23.1-10.4-26.8-14
		c-0.5-0.5-1.3-0.6-1.8-0.2c-3.6,2.2-7,4.8-10.3,7.4c-3.6,2.8-8,7.2-12.3,8.8c-1.7,0.6-3.6,0.4-4.9-1.5c-0.6-0.8-0.4-2.8-0.3-3.8
		c0.1-2.3,1-4.7,1.8-6.9c2-5.6,4.1-11.2,6.1-16.9c0.2-0.5,0-1.2-0.4-1.5c-3.3-2.7-6.7-5.4-10.2-7.9c-3.3-2.4-10.6-5.7-12-9.7
		c-2.4-6.8,8.8-5.4,12.7-5.4c5.4-0.1,10.8-0.2,16.2-0.2c0.5,0.1,1.1-0.1,1.4-0.7c1.9-4.1,3.5-8.3,4.9-12.6
		c1.3-4.1,2.8-15.7,8.8-14.1c5.8,1.5,6.4,10.2,7.8,15c1,3.7,1.9,7.4,3,11.1c0.2,0.7,0.8,1.1,1.4,1.1c3.8,0.3,7.5,0,11.3-0.1
		c4.4-0.1,10.1-0.9,14.4,0.3C-27.6,35.1-41.9,44.1-44.8,46.4z"/>
	<path class="st0" d="M-97.8,36.4c-2.5,1.2-4.7,2.8-6.7,4.8c-1,1,0.6,2.6,1.6,1.6c1.9-1.8,3.9-3.3,6.3-4.4
		C-95.4,37.8-96.5,35.8-97.8,36.4z"/>
	<path class="st0" d="M-89.9,37.9c-3.4,1.4-6.7,3.1-9.7,5.2c-1.2,0.8-0.1,2.8,1.1,1.9c2.9-2,5.9-3.6,9.2-4.9
		C-88,39.6-88.6,37.4-89.9,37.9z"/>
</g>
<g>
	<path class="st1" d="M103.8,42.8c-0.2-5.1-0.1-10.3,0-15.4c0.1-3.3,0.1-6.5-0.1-9.8c-0.1-2.6,0.3-5.9-0.4-8.5
		c-0.7-2.5-2.7-2.7-5-2.8c-6.1-0.3-12.2,0-18.3-0.1C66.6,6.3,53,6.2,39.5,6.2c-7.1,0-14.2,0.2-21.4,0.6C15.6,7,11.3,6.5,9.2,8.3
		C7.8,9.5,7.6,11.4,7.3,13c-0.7,3.7-0.8,7.6-0.9,11.4C6.1,32.7,6.2,41,5.7,49.3c-0.4,6.7-0.2,13.4,0,20c0.1,3.7-1.1,9.8,2.1,12.6
		c3.3,2.9,10.2,1.7,14.1,1.8c7.2,0.2,14.3,0.4,21.5,0.5c13.4,0.2,26.8-0.3,40.2,0.2c5.1,0.2,10.8,0,15.8-0.9c3-0.5,3.9-2.3,4.2-5.2
		C105,66.7,104.2,54.6,103.8,42.8z M14.3,10c1.3-0.1,2.5-0.2,3.8-0.2c5.2-0.3,10.4-0.6,15.7-0.6c11.2-0.1,22.5,0,33.7,0.1
		c4.8,0,9.7,0,14.5,0.1c5.1,0,10.6-0.6,15.7,0.1c2.4,0.3,2.5,0.5,2.9,2.9c0.4,2.2,0.3,4.8,0.3,7.1c0,0.3,0,0.7,0,1
		C70.5,19.3,40,19.2,9.6,20.1c0.1-1.7,0.3-3.4,0.5-5.1C10.5,11.7,11.1,10.4,14.3,10z M101.2,65c-0.1,4.1,0,8.3-0.4,12.4
		c-0.2,3-1.5,2.8-4.2,3.3c-2.8,0.5-5.7,0.8-8.5,0.9c-10.5,0.2-21.1-0.2-31.7-0.2c-12.5,0-24.9-0.3-37.3-0.7C15.2,80.5,9.1,81,8.9,76
		c-0.1-2.8-0.1-5.7-0.2-8.5c-0.2-6.1-0.4-12.2,0-18.2c0.6-8.9,0.3-18,0.8-26.9c30.5-0.9,61-0.8,91.5,0.3c0,4.2-0.2,8.5-0.2,12.7
		C100.7,45.3,101.5,55.1,101.2,65z"/>
	<path class="st1" d="M16.9,18.3c1.8-0.2,3.8-1.3,3.4-3.4c-0.3-1.9-1.6-3.2-3.5-3.3c-1.9,0-3.2,1.8-3.5,3.5
		C13,17.2,15,18.5,16.9,18.3z M15.6,15.2c0.2-0.6,0.6-1.4,1.2-1.4c0.6,0,1,0.3,1.2,0.9c0.3,0.9-0.2,1.1-1.1,1.3
		c-0.4,0.1-0.7,0.1-1.1-0.1C15.5,15.7,15.5,15.7,15.6,15.2z"/>
	<path class="st1" d="M26.4,18.2c2.1,0.2,3.6-1.4,3.8-3.3c0.2-2.1-1.4-3.5-3.4-3.6c-1.8-0.1-3.8,1.2-3.9,3.1
		C22.8,16.4,24.4,18,26.4,18.2z M25.2,14.4c0.2-0.7,1-0.9,1.6-0.9c0.7,0,1.2,0.4,1.1,1.1c-0.1,0.8-0.6,1.4-1.5,1.3
		C25.7,15.8,25,15.2,25.2,14.4z"/>
	<path class="st1" d="M36.5,18c1.8-0.1,3.4-1.7,3.5-3.6c0-1.9-1.8-3.5-3.7-3.5c-2,0.1-3.5,1.8-3.7,3.8C32.5,16.8,34.5,18.1,36.5,18z
		 M36.3,13.2c1.6-0.1,1.9,2.2,0.2,2.5c-0.6,0.1-1.6-0.2-1.7-0.9C34.8,14.1,35.5,13.2,36.3,13.2z"/>
	<path class="st1" d="M42.4,32.5c-3.1-2.5-7.5-0.4-10.3,1.5c-5.2,3.6-9.6,8.2-14.5,12.2c-7.5,6.6,1.6,13.8,6.8,17.7
		c3.5,2.6,7.8,6.3,12.1,7.6c2.9,0.8,7.3-0.3,7.5-3.9c0.2-3.6-5.3-7.1-7.7-9.2c-1.5-1.3-3-2.5-4.6-3.6c-0.7-0.5-1.4-0.9-2.1-1.4
		c-1.5-1-2.1-0.8-1.2-2.3C30.8,47.3,49.6,38.3,42.4,32.5z M26,53.6c1.7,2.1,5.3,3.5,7.4,5.3c1.6,1.3,3.2,2.8,4.7,4.3
		c0.6,0.6,2.5,1.8,2.8,2.7c1.3,4.2-2.1,3.9-4.2,3.2c0.2-0.1,0.4-0.3,0.6-0.4c0.5-0.4,0.7-1,0.4-1.5c-0.3-0.5-1-0.8-1.5-0.4
		c-0.4,0.3-0.9,0.7-1.3,1c-0.2,0.1-0.3,0.3-0.4,0.4c-0.5-0.2-0.9-0.5-1.4-0.8c0.2-0.1,0.3-0.2,0.5-0.3c1.2-0.7,0.1-2.7-1.1-1.9
		c-0.5,0.3-0.9,0.6-1.4,1c-0.6-0.4-1.1-0.8-1.7-1.2c0.3-0.2,0.6-0.3,0.9-0.5c1.3-0.7,0.1-2.6-1.1-1.9c-0.6,0.3-1.2,0.6-1.8,0.9
		c-0.4-0.3-0.7-0.6-1.1-0.8c0.2-0.1,0.4-0.2,0.6-0.4c1.3-0.7,0.1-2.7-1.1-1.9c-0.5,0.3-0.9,0.6-1.3,0.9c-0.5-0.4-1.1-0.8-1.6-1.3
		c0.3-0.2,0.6-0.4,0.9-0.6c0.5-0.3,0.7-1,0.4-1.5c-0.3-0.6-1-0.7-1.5-0.4c-0.6,0.3-1.1,0.7-1.6,1.1c-0.4-0.4-0.8-0.7-1.2-1.1
		c0.4-0.2,0.7-0.5,1.1-0.7c1.2-0.8,0.1-2.7-1.1-1.9c-0.5,0.3-0.9,0.6-1.4,0.9c-0.5-0.7-0.9-1.5-1.2-2.3c0.4,0,0.7,0,1.1,0
		c1.4,0,1.5-2.3,0-2.3c-0.4,0-0.8,0-1.2,0c0.1-0.7,0.5-1.4,1-2.1c0.4,0.4,0.8,0.9,1.3,1.2c0.5,0.4,1.3,0.1,1.5-0.4
		c0.3-0.6,0.1-1.2-0.4-1.5c0.2,0.1-0.2-0.2-0.2-0.2c-0.1-0.1-0.3-0.3-0.4-0.4c-0.1-0.1-0.2-0.2-0.2-0.2c0.4-0.3,0.8-0.6,1.1-0.9
		c0.4,0.4,0.9,0.9,1.2,1.3c0.4,0.5,1.2,0.4,1.6,0c0.5-0.5,0.4-1.1,0-1.6c-0.3-0.4-0.7-0.8-1.1-1.2c0.5-0.5,1.1-1,1.6-1.5
		c0.4,0.4,0.9,0.8,1.3,1.2c1,1,2.6-0.6,1.6-1.6c-0.4-0.4-0.8-0.7-1.2-1.1c0.6-0.5,1.2-1.1,1.9-1.6c0.4,0.5,0.8,0.9,1.2,1.4
		c1,1.1,2.6-0.5,1.6-1.6c-0.4-0.4-0.8-0.7-1.1-1.1c0.3-0.2,0.6-0.4,0.9-0.6c0.4-0.3,0.8-0.6,1.2-0.9c0.2,0.3,0.4,0.6,0.6,0.9
		c0.4,0.5,1,0.7,1.5,0.4c0.5-0.3,0.8-1,0.4-1.5c-0.3-0.4-0.5-0.7-0.8-1.1c0.5-0.4,1-0.7,1.6-1c0,0,0.1,0.1,0.1,0.1
		c0.3,0.3,0.7,0.7,1,1c1,1,2.6-0.6,1.6-1.6c-0.2-0.2-0.4-0.4-0.6-0.6c1.4-0.5,2.6-0.5,3.5,1.2c1.2,2.2-0.1,2.7-1.5,4.2
		c-3.7,3.8-8.5,6.4-12.2,10.1C25.3,50.8,24.7,52,26,53.6z"/>
	<path class="st1" d="M85.3,39.2c-3.5-2.6-7.8-6.3-12.1-7.6c-2.9-0.8-7.3,0.3-7.5,3.9c-0.2,3.6,5.3,7.1,7.7,9.2
		c1.5,1.3,3,2.5,4.6,3.6c0.7,0.5,1.4,0.9,2.1,1.4c1.5,1,2.1,0.8,1.2,2.3c-2.4,3.8-21.2,12.8-14,18.6c3.1,2.5,7.5,0.4,10.3-1.5
		c5.2-3.6,9.6-8.2,14.5-12.2C99.6,50.3,90.5,43.1,85.3,39.2z M90.5,55.3c-3.8,3.1-7.1,6.6-11.1,9.5c-1.7,1.2-3.3,2.8-5.2,3.7
		c-2,1-3.8,1.8-5-0.5c-0.5-0.9-0.5-1.6-0.3-2.1c0.5,0.4,1.1,0.9,1.6,1.3c0.5,0.4,1.3,0.1,1.5-0.4c0.3-0.6,0.1-1.2-0.4-1.5
		c-0.5-0.3-0.9-0.7-1.3-1c0.1-0.1,0.3-0.3,0.4-0.4c0.3-0.3,0.7-0.7,1-1c0.5,0.5,0.9,1,1.4,1.4c0.5,0.4,1.1,0.5,1.6,0
		c0.4-0.4,0.5-1.2,0-1.6c-0.5-0.4-0.9-0.9-1.3-1.3c0.5-0.4,1.1-0.9,1.6-1.3c0.5,0.6,0.9,1.2,1.4,1.7c1,1,2.6-0.6,1.6-1.6
		c-0.5-0.5-0.9-1-1.3-1.5c0.5-0.3,0.9-0.7,1.4-1c0.4,0.4,0.8,0.8,1.2,1.3c0.4,0.5,1.2,0.4,1.6,0c0.5-0.5,0.4-1.1,0-1.6
		c-0.3-0.4-0.6-0.7-1-1.1c0.6-0.5,1.2-1,1.7-1.5c0.3,0.2,0.6,0.4,0.8,0.7c1,1.1,2.6-0.5,1.6-1.6c-0.2-0.2-0.5-0.5-0.7-0.7
		c0.4-0.5,0.7-0.9,0.8-1.4c0.5,0,0.9,0.1,1.4,0.1c0.6,0,1.1-0.5,1.1-1.1c0-0.6-0.5-1.1-1.1-1.1c-0.7,0-1.3-0.1-2-0.1c0,0,0,0,0,0
		c-0.3-0.4-0.6-0.7-1-1c0.4-0.2,0.7-0.3,1.1-0.5c0.5-0.3,0.7-1,0.4-1.5c-0.3-0.6-1-0.7-1.5-0.4c-0.7,0.3-1.4,0.6-2,1
		c-0.4-0.2-0.7-0.4-1.1-0.7c0.3-0.1,0.6-0.3,0.9-0.4c0.5-0.3,0.7-1,0.4-1.5c-0.3-0.6-1-0.7-1.5-0.4c-0.6,0.3-1.2,0.6-1.8,0.9
		c-0.1,0-0.1,0.1-0.1,0.1c-0.4-0.2-0.7-0.5-1-0.7c-0.1-0.1-0.3-0.2-0.4-0.3c0.4-0.2,0.9-0.5,1.3-0.7c0.6-0.3,0.7-1,0.4-1.5
		c-0.3-0.6-1-0.7-1.5-0.4c-0.7,0.3-1.3,0.7-1.9,1c-0.4-0.4-0.9-0.8-1.3-1.2c0.2-0.2,0.5-0.3,0.8-0.4c0.6-0.2,1-0.7,0.8-1.4
		c-0.1-0.5-0.8-1-1.4-0.8c-0.7,0.3-1.3,0.6-1.8,1c-0.3-0.3-0.7-0.5-1.1-0.9c0.3-0.2,0.6-0.5,0.9-0.6c1.3-0.7,0.1-2.6-1.1-1.9
		c-0.4,0.2-0.8,0.5-1.1,0.8c-1-4,2.7-3.5,4.7-2.7c4,1.5,7.9,4.8,11.3,7.4C88.7,44.6,96.6,50,90.5,55.3z"/>
	<path class="st1" d="M57.8,31.2c-3.3-0.1-4.3,2.8-5.2,5.6c-2,6.1-3.6,12.4-4.8,18.7c-0.6,3.3-4.8,17.5,2.8,16.6
		c3-0.3,4.8-3.5,5.8-6c2-5.3,3-11.1,4.2-16.6c0.6-2.7,1.1-5.4,1.6-8.1c0.4-1.8,1.3-4.2,1.1-6.1C62.9,32.4,60.6,31.3,57.8,31.2z
		 M57.7,52.2c-0.6,2.5-1.2,4.9-1.8,7.3c-0.8,3.1-1.5,9.3-5.3,9.2c-2.1-0.1-2.2-0.3-2.1-1.6c0.3,0,0.5,0.1,0.8,0.2
		c0.6,0.2,1.2-0.2,1.4-0.8c0.2-0.6-0.2-1.2-0.8-1.4c-0.4-0.1-0.8-0.2-1.3-0.3c0-0.4,0.1-0.8,0.2-1.2c0.5,0.1,1,0.2,1.5,0.2
		c1.4,0,1.4-2.2,0-2.3c-0.4,0-0.8-0.1-1.2-0.1c0-0.2,0.1-0.5,0.1-0.7c0-0.1,0-0.2,0.1-0.4c0.5,0.1,1,0.1,1.5,0.3
		c1.4,0.4,2-1.8,0.6-2.2c-0.6-0.1-1.1-0.2-1.7-0.3c0.1-0.7,0.2-1.3,0.3-2c0.6,0.1,1.3,0.2,1.9,0.5c0.6,0.2,1.2-0.2,1.4-0.8
		c0.2-0.6-0.2-1.2-0.8-1.4c-0.7-0.2-1.3-0.4-2-0.5c0.1-0.5,0.2-1,0.3-1.5c0.5,0.1,1,0.2,1.5,0.4c1.4,0.3,2-1.8,0.6-2.2
		c-0.6-0.1-1.1-0.3-1.7-0.4c0.1-0.5,0.2-1,0.3-1.6c0.4,0.1,0.7,0.2,1.1,0.3c1.4,0.4,2-1.8,0.6-2.2c-0.4-0.1-0.8-0.2-1.2-0.3
		c0.1-0.3,0.1-0.6,0.2-0.9c0.6,0.1,1.3,0.3,1.9,0.4c0.6,0.1,1.2-0.2,1.4-0.8c0.2-0.6-0.2-1.3-0.8-1.4c-0.7-0.1-1.3-0.3-2-0.4
		c0.1-0.4,0.2-0.9,0.3-1.3c0.4,0.1,0.9,0.2,1.3,0.3c1.4,0.4,2-1.8,0.6-2.2c-0.4-0.1-0.9-0.2-1.3-0.3c0.1-0.3,0.2-0.6,0.3-0.8
		c0.4,0.1,0.8,0.2,1.2,0.3c0.6,0.2,1.2-0.2,1.4-0.8c0.2-0.6-0.2-1.2-0.8-1.4c-0.3-0.1-0.7-0.2-1-0.3c0.1-0.3,0.3-0.6,0.4-0.9
		c0.3,0.2,0.7,0.3,1.1,0.3c0.6,0.1,1.2-0.1,1.4-0.8c0.1-0.5-0.2-1.3-0.8-1.4c-0.1,0-0.2-0.1-0.4-0.1c0.4-0.4,0.9-0.6,1.3-0.6
		C63.1,33.6,58.3,49.6,57.7,52.2z"/>
</g>
<g>
	<path class="st0" d="M240.2-65.7c-1.7-2.3-4.3-4.1-6.6-5.8c-3.2-2.4-6-5.3-9.1-7.9c4-2.8,3-10.9,2.9-15.1
		c-0.1-8.8-0.4-17.6-0.7-26.4c-0.1-2.5,0-5.4-2.4-7.1c-2.5-1.8-7.8-1.1-10.9-1.3c-8.6-0.7-17.3,0.3-25.9,0c-9.7,0.1-19.4,0.1-29,0.2
		c-2.6,0-5.1-0.3-6.8,2c-2.2,2.9-1.7,7.3-1.6,10.7c0.4,10.7-0.6,21.5,0.1,32.3c0.2,2.4,1.2,3.9,2.7,4.9c-4,2.8-8.1,5.5-12,8.6
		c-2.8,2.3-6.1,4.4-6.1,8.3c0,3.4,1.6,5.2,4.9,5.6c6.6,0.8,13.5,0.5,20.1,0.3c15.2-0.6,30.4-0.1,45.7-0.5c6.6-0.2,13.2,0,19.8,0.1
		c4,0,11.3,1.5,14.4-1.9C241.7-60.8,241.7-63.6,240.2-65.7z M153.1-92.5c-0.1-4.6-0.3-9.2-0.1-13.7c0.1-4.2,0.3-8.4,0.2-12.6
		c-0.1-2.7,0-6.3,3.2-7.3c1.7-0.6,4.5,0,6.4,0c8.3,0,16.7-0.1,25-0.1c5.4,0.2,10.8,0.3,16.1,0c4-0.2,18.4-1.6,19.9,3.3
		c0.5,1.7,0.1,4.2,0.1,6c0,4,0.1,8.1,0.3,12.1c0.1,3.2,0.3,6.4,0.4,9.6c0,2,0,4,0,6c-0.1,2.9,0.4,5.3-2.2,6.8
		c-2.9,1.7-8.1,0.8-11.5,0.7c-3.7,0-7.5-0.1-11.2-0.1c-7.3,0.1-14.6,0.5-21.9,0.6c-3.5,0-7-0.1-10.6,0c-3.2,0.1-8.7,1.4-11.7-0.2
		C152.1-83.1,153.2-89.4,153.1-92.5z M236.4-60.1c-2.3,1.1-7.7,0.2-10.2,0.2c-13-0.1-26.1-0.5-39.2-0.3c-13.6,0.2-27.2,1-40.8,0.7
		c-2.6-0.1-7.9,0.6-8.2-2.9c-0.2-2.2,2-3.6,3.5-4.9c4.5-3.9,9.7-7.1,14.6-10.6c0.1-0.1,0.2-0.2,0.3-0.3c2.4,0.4,5,0.2,7.4,0.1
		c9.5-0.5,19-0.3,28.5-0.6c4.7-0.2,9.4-0.3,14.1-0.2c4.7,0.1,9.9,0.7,14.6,0.4c0,0,0,0.1,0.1,0.1c4.9,3.9,9.9,8.1,14.5,12.2
		C237.4-64.5,240.4-62,236.4-60.1z"/>
	<path class="st0" d="M159.4-85.1c9.8-0.2,19.6-0.1,29.3-0.6c9.8-0.4,19.9-0.9,29.8-0.3c0.6,0,1.1-0.5,1.1-1.1
		c-0.3-11.1-0.3-22.2-0.8-33.3c0-0.6-0.5-1.1-1.1-1.1c-19.6,0.2-39.2-0.2-58.8,0c-0.3,0-0.5,0.1-0.6,0.2c-0.3,0.2-0.5,0.5-0.5,0.9
		c0.2,11.4,0.3,22.8,0.5,34.2C158.3-85.6,158.8-85.1,159.4-85.1z M216.6-119.3c0.4,10.4,0.5,20.7,0.7,31c-9.4-0.5-19.2,0-28.6,0.4
		c-9.4,0.4-18.8,0.4-28.2,0.5c-0.2-10.7-0.3-21.3-0.5-32C178.9-119.5,197.7-119.1,216.6-119.3z"/>
	<path class="st0" d="M198.9-70.3c-0.2-0.5-0.5-0.8-1.1-0.8c-6.2-0.4-12.3,0.2-18.5,0.2c-0.5,0-0.9,0.4-1.1,0.8
		c-0.8,2-1.4,3.8-1.8,5.9c0,0.2,0,0.5,0.1,0.7c0.1,0.4,0.5,0.8,1,0.8c7.4,0,15.3,0.6,22.7-0.6c0.6-0.1,1-0.9,0.8-1.4
		C200.3-66.6,199.6-68.4,198.9-70.3z M178.9-65c0.3-0.9,0.6-1.9,0.7-2.8c0.1-0.3,0.2-0.6,0.4-0.9c0,0,0.1,0,0.1,0
		c2.9-0.2,5.9-0.2,8.9-0.3c2.6-0.1,5.4-0.3,8,0.1c0,0,0,0,0,0c0.1,0.3,0.3,0.7,0.4,1c0.1,0.8,0.5,1.7,0.8,2.5
		C192-64.5,185.3-64.9,178.9-65z"/>
	<path class="st0" d="M187.8-122.8c1.4,0,1.5-2.3,0-2.3C186.3-125.1,186.3-122.8,187.8-122.8z"/>
	<path class="st0" d="M161.8-115.5c0.9,1.4,1.8,2.7,2.7,3.9c0.4,0.5,1,0.7,1.5,0.4c0.5-0.3,0.8-1.1,0.4-1.5c-1-1.3-1.9-2.6-2.7-3.9
		C163-117.8,161-116.7,161.8-115.5z"/>
	<path class="st0" d="M169-111.8c1,1.1,2.6-0.5,1.6-1.6c-1.2-1.2-2.3-2.5-3.5-3.7c-1-1.1-2.6,0.5-1.6,1.6
		C166.7-114.3,167.8-113,169-111.8z"/>
</g>
<g>
	<path class="st0" d="M237.2,32.8c-0.7-0.3-1.6-0.5-2.5-0.5c0.4-4.8,0.9-9.6,1.7-14.4c0,0,0,0,0,0c1.1-0.2,2.1-0.4,2.7-1
		c3-2.4,2.5-11.9-2.1-12.3c-5.7-0.2-11.4-0.2-17-0.2c-3.1,0-8.3-1-11.1,0.5c-2.6,1.4-2.4,5.2-2.4,7.7c0.1,2.9,0.6,4.5,3.6,4.8
		c0.3,4.7,0.7,9.4,1.3,14.2c0,0.1,0,0.1,0,0.2c-2.2-0.1-4.4-0.1-6.6-0.1c-2.6,0-9.2-1.2-11.3,0.6c-1.4,1.2-1.5,5.3,0,6.5
		c0.5,0.4,1.4,0.6,2.3,0.7c0,0.1,0,0.2,0,0.3c-1.5,0-2.9,0-4.4,0c-0.9-0.9-2.5-1.1-3.8-1.2c-1.7,0-2.8,0.4-3.3,1.3
		c-1.3,0-2.7-0.1-4-0.2c0-0.1,0-0.1,0-0.2c0.9-0.1,1.6-0.2,2.2-0.6c1.6-1.2,1.7-5.3,0.2-6.5c-2.2-1.8-8.6-0.6-11.3-0.6
		c-2.2,0-4.4,0-6.6,0.1c0-0.1,0-0.1,0-0.2c0.4-4.7,1-9.4,1.3-14.2c3-0.3,3.5-1.9,3.6-4.8c0.1-2.3,0.2-6.2-2-7.6
		c-2.7-1.7-8.3-0.6-11.4-0.7c-5.7-0.1-11.4,0-17,0.2c-4.6,0.4-5,9.7-2.2,12.2c0.6,0.6,1.6,0.9,2.8,1c0,0,0,0,0,0
		c0.9,4.8,1.3,9.6,1.7,14.4c-0.9,0.1-1.8,0.2-2.5,0.5c-2.2,1.1-2.7,4.7-0.7,6.3c0.6,0.5,1.8,0.8,3,1c1.1,6.5,1.6,13.1,2.8,19.5
		c-0.6,0.1-1.2,0.3-1.5,0.6c-1.5,1.3-1.5,5.2,0,6.5c1.9,1.7,8.9,0.6,11.1,0.6c2.2,0,4.5-0.1,6.7-0.3c0.3,2.9,0.2,5.8,0.2,8.7
		c-0.1,0-0.2,0-0.3,0.1c-3.3,1.1-3.3,8.1-0.6,9.9c1.8,1.3,5.8,0.5,7.9,0.5c4.3,0.1,8.7,0,13-0.1c3.6-0.4,4.2-7.5,1.9-9.6
		c-0.5-0.5-1.2-0.7-2-0.9c-0.1-3.1-0.1-6.2-0.1-9.3c2.1-0.9,3.2-3.6,1.6-5.7c-0.4-0.5-0.9-0.9-1.6-1.1c0-0.1,0-0.2,0-0.3
		c0.5,0,0.9-0.1,1.4-0.1c0.8,0,1.5,0,2.3,0.1c0.3,1.3,0.8,1.5,2.2,1.6c1.3,0.2,4.6,0.4,5.6-0.8c0.2-0.2,0.3-0.5,0.3-0.8
		c1.1,0,2.3,0.1,3.5,0c0,0.1,0,0.1,0,0.2c-0.7,0.3-1.2,0.6-1.6,1.1c-1.6,2.2-0.5,4.8,1.6,5.7c-0.2,3.1,0,6.2,0,9.3
		c-0.8,0.2-1.4,0.4-1.9,0.8c-2.5,2-1.8,9.3,1.8,9.7c4.2,0.1,8.4,0.2,12.5,0.1c2.3,0,6,0.7,8.1-0.4c3-1.6,3-8.9-0.3-10
		c-0.1,0-0.2,0-0.3-0.1c0-2.9-0.1-5.8,0.2-8.7c2.2,0.1,4.5,0.3,6.7,0.3c2.2,0,9.2,1.1,11.1-0.6c1.4-1.3,1.6-5.2,0-6.5
		c-0.4-0.3-0.9-0.5-1.5-0.6c1.3-6.5,1.9-13,2.8-19.6c1.3-0.2,2.4-0.4,3-1C239.9,37.5,239.5,33.9,237.2,32.8z M208.9,13.7
		c-0.3-0.7,0-2.1,0-2.8c0.1-1,0.2-1.8,0.5-2.5c0.6,1.1,1.1,2.3,1.7,3.4c0.6,1.3,2.6,0.2,1.9-1.1c-0.6-1.2-1.2-2.5-1.8-3.7
		c0.2-0.1,0.5-0.1,0.8-0.2c0.8,1.2,1.6,2.4,2.4,3.6c0.8,1.2,2.7,0.1,1.9-1.1c-0.6-0.9-1.2-1.8-1.8-2.7c0.4,0,0.8,0,1.2,0
		c0,0,0,0,0,0c0.7,1,1.3,2,1.8,3.1c0.3,0.5,1,0.7,1.5,0.4c0.6-0.3,0.7-1,0.4-1.5c-0.3-0.6-0.7-1.3-1-1.9c0.5,0,0.9,0,1.4,0
		c0,0.1,0.1,0.2,0.2,0.3c0.8,0.9,1.5,1.9,2.2,2.9c0.8,1.2,2.7,0.1,1.9-1.1c-0.5-0.7-1-1.4-1.5-2.1c0.6,0,1.1,0,1.7,0
		c0,0.1,0.1,0.1,0.1,0.2c0.8,0.9,1.4,1.9,2,2.9c0.7,1.3,2.6,0.1,1.9-1.1c-0.4-0.7-0.8-1.4-1.2-2c0.5,0,0.9,0,1.4,0
		c0.6,1,1.3,2,2,2.9c0.4,0.5,1,0.7,1.5,0.4c0.5-0.3,0.8-1.1,0.4-1.5c-0.4-0.6-0.8-1.1-1.3-1.7c0.4,0,0.9,0,1.3,0c0,0,0,0,0,0.1
		c0.8,1.3,1.6,2.6,2.6,3.8c0.4,0.5,1.2,0.4,1.6,0c0.5-0.5,0.4-1.1,0-1.6c-0.5-0.7-1-1.4-1.5-2.2c0.6,0,1.2,0,1.7,0
		c1.3,0.1,1.4,4.1,1.2,5.1c-0.3,1.7-0.8,2.8-2.7,3.3c-2.6,0.7-6.2,0.1-8.8,0.1c-3.1,0-6.1,0-9.2,0C215.3,15.3,210,16.3,208.9,13.7z
		 M214.4,31.7c-0.5-4.6-1-9.3-1.2-13.9c4.5,0.2,9.1-0.1,13.5-0.1c1.6,0,4.2,0.3,6.7,0.4c-0.8,4.7-1.3,9.5-1.7,14.3c-0.4,0-0.7,0-1,0
		c-3.2-0.1-6.4,0.1-9.7,0c-2.2-0.1-4.4-0.2-6.6-0.3C214.4,31.9,214.4,31.8,214.4,31.7z M192.4,50.6c0-1.5-0.1-3-0.2-4.5
		c1.2,0,2.4,0,3.6,0.1c0,2,0,4.1,0,6.1c-0.4,0-0.9,0-1.4,0.1c-0.7,0-1.3,0-2,0C192.4,51.8,192.4,51.2,192.4,50.6z M195.8,42
		c0,0.6,0,1.3,0,1.9c-1.2-0.1-2.4-0.1-3.6-0.1c0-0.5,0.1-1.2,0.1-1.8C193.4,42,194.6,42.1,195.8,42z M180.4,52.2c0-2.2,0-4.4,0-6.6
		c1.1-0.1,2.2,0,3.3,0.1c0,0.7,0.1,1.4,0.1,2c0,1.4-0.1,3-0.1,4.6C182.6,52.4,181.5,52.3,180.4,52.2z M183.7,42.1
		c0,0.5-0.1,0.9,0,1.4c-1.1-0.1-2.2-0.2-3.3-0.1c0-0.5,0-1,0-1.5C181.5,42,182.6,42.1,183.7,42.1z M155.2,32.3c-3.2,0.1-6.4,0-9.7,0
		c-0.3,0-0.6,0-1,0c-0.4-4.8-0.9-9.6-1.7-14.3c2.5,0,5.2-0.4,6.7-0.4c4.4,0,9.1,0.3,13.5,0.1c-0.3,4.7-0.8,9.3-1.2,13.9
		c0,0.1,0,0.2,0,0.3C159.7,32.1,157.5,32.2,155.2,32.3z M138,12c-0.1-0.4-0.1-1.4,0-2.3c0.3,0.4,0.5,0.8,0.8,1.1
		c0.3,0.5,1,0.7,1.5,0.4c0.5-0.3,0.8-1,0.4-1.5c-0.6-0.9-1.2-1.8-1.9-2.6c0.1-0.1,0.2-0.2,0.4-0.2c0.3,0,0.7,0,1,0
		c0.9,1.3,1.8,2.5,2.8,3.7c0.9,1.1,2.5-0.5,1.6-1.6c-0.6-0.7-1.1-1.4-1.7-2.2c0.4,0,0.9,0,1.3,0c0.8,1.2,1.6,2.3,2.6,3.4
		c1,1.1,2.5-0.5,1.6-1.6c-0.5-0.6-1-1.2-1.5-1.9c0.6,0,1.1,0,1.7,0c0.7,1.2,1.5,2.4,2.4,3.5c0.4,0.5,1,0.7,1.5,0.4
		c0.5-0.3,0.8-1.1,0.4-1.5c-0.6-0.8-1.1-1.5-1.6-2.3c0.6,0,1.1,0,1.7,0c0.5,0.9,1.1,1.8,1.6,2.7c0.8,1.2,2.7,0.1,1.9-1.1
		c-0.3-0.5-0.6-1-0.9-1.6c0.2,0,0.4,0,0.6,0c0.3,0,0.7,0,1,0c0.7,1.1,1.4,2.2,2.2,3.2c0.4,0.5,1,0.7,1.5,0.4
		c0.5-0.3,0.8-1.1,0.4-1.5c-0.5-0.7-1-1.4-1.5-2.1c0.5,0,1.1,0,1.6,0c0.1,0.1,0.1,0.3,0.2,0.4c0.8,1.1,1.7,2.1,2.5,3.2
		c0.4,0.5,1.2,0.4,1.6,0c0.5-0.5,0.4-1.1,0-1.6c-0.4-0.6-0.9-1.1-1.3-1.7c1.9,0.4,2.7,1.2,2.8,3.3c0.1,0.7,0.3,2.8,0,3.4
		c-1.1,2.4-5.7,1.6-7.8,1.6c-3.3,0-6.7,0.1-10,0c-2.5,0-5.6,0.4-8.1-0.1C139.3,14.8,138.5,14.3,138,12z M140.4,35.5
		c1-1.1,0.9-0.6,1.9-0.8c3.9-0.9,8.9,0,13-0.1c6.7-0.2,13.4-0.4,20.2-0.5c1.2,0,2.7-0.3,3.9,0c2.3,0.5,2.8,2.4,0.2,3
		c-3.7,0.9-8.6,0.7-12.4,0.7c-6.6-0.1-13.2,0.4-19.8,0.1c-1.7-0.1-3.6,0-5.2-0.3C140.5,37.1,139.1,36.9,140.4,35.5z M150,40.1
		c5.5,0.1,10.9-0.2,16.4-0.2c3.3,0.1,6.5-0.2,9.7-0.4c0.4,0,0.8,0,1.2,0c0,6.5,0.1,13,0.1,19.6c-2.1-0.1-4.4,0.1-5.8,0.1
		c-4.9-0.2-9.8,0.2-14.6,0.1c-3,0-5.8-0.1-8.8,0.2c-0.3,0-0.7,0-1.1,0c0-0.2,0-0.4,0-0.6c-1.1-6.2-1.6-12.5-2.6-18.7
		C146.6,40.3,148.7,40.1,150,40.1z M149.4,65c-1.4,0-7.2,0.7-5.5-2.2c1.4-2.3,10-1.4,12.1-1.3c6,0.1,11.9-0.4,17.9,0
		c1.5,0.1,4.4-0.2,5.4,0.9c1.7,1.8-1.3,2.2-3,2.2c-4,0.1-8,0-11.9,0C159.4,64.8,154.4,65,149.4,65z M164.5,66.9
		c4.1-0.1,8.7,0.6,12.9,0.1c-0.1,2.8,0,5.7,0.1,8.5c-1.8,0.1-3.6,0.3-4.7,0.3c-2.3,0-4.7,0-7,0c-0.6,0-1.4-0.1-2.2-0.1
		c0-2.9,0.1-5.8-0.2-8.7c0,0,0-0.1,0-0.1C163.8,66.9,164.1,66.9,164.5,66.9z M180.6,84c-4,0.1-8,0.1-12,0.1c-3.2,0-9.3,0.9-8.3-4.1
		c0,0,0,0,0-0.1c0.2,0.3,0.4,0.6,0.6,1c0.7,1.2,2.7,0.1,1.9-1.1c-0.3-0.5-0.6-1-0.9-1.4c0.4-0.1,0.8-0.2,1.3-0.3c0,0,0,0.1,0.1,0.1
		c0.4,0.5,0.8,1,1.1,1.6c0.7,1.3,2.7,0.1,1.9-1.1c-0.1-0.3-0.3-0.5-0.5-0.7c0.6,0,1.2,0,1.8,0.1c0,0.1,0.1,0.1,0.1,0.2
		c0.4,0.6,0.7,1.2,1.1,1.7c0.3,0.5,1,0.7,1.5,0.4c0.5-0.3,0.8-1,0.4-1.5c-0.1-0.2-0.3-0.4-0.4-0.6c0.3,0,0.6,0,0.8,0
		c0.6,0,1.1,0,1.7,0c0,0,0,0,0,0c0.3,0.6,0.6,1.1,0.9,1.7c0.7,1.3,2.7,0.1,1.9-1.1c-0.1-0.2-0.2-0.4-0.4-0.6c0.4,0,0.9,0,1.3,0
		c0,0,0,0,0,0.1c0.4,0.6,0.7,1.2,1,1.9c0.3,0.6,1.1,0.7,1.5,0.4c0.6-0.3,0.7-1,0.4-1.5c-0.1-0.1-0.1-0.2-0.2-0.3
		c0.8,0.3,1.3,0.7,1.6,2.3C181.4,81.3,181.4,83.9,180.6,84z M180.4,57.1c0-0.9,0-1.7,0-2.6c1.1,0.1,2.1,0.2,3.2,0.2
		c0,0.8,0.1,1.6,0.1,2.4c-0.6-0.1-1.3-0.1-1.9-0.1C181.4,57,180.9,57.1,180.4,57.1z M190.2,57c-0.4,1.8-2.3,2.6-3.5,1.2
		c-1.4-1.6-0.6-7.1-0.6-9.2c0-2-1-8.3,1.7-8.2c2.8,0.1,2.2,2.8,2.2,4.9c0.1,1.6,0.1,3.2,0.2,4.8C190.2,52.5,190.6,55.2,190.2,57z
		 M192.5,57.2c0-0.9,0-1.7,0-2.6c0.5,0,1,0,1.6,0c0.6,0,1.2-0.1,1.7-0.1c0,0.9,0,1.8,0,2.6C194.7,57.3,193.5,57.2,192.5,57.2z
		 M216,80c1.1,4.9-4.6,4.1-7.8,4.1c-4.2,0-8.4,0-12.5-0.1c-0.8-0.1-0.7-2.4-0.7-2.8c0.1-0.6,0.2-1.1,0.4-1.5
		c0.2,0.3,0.3,0.5,0.5,0.8c0.3,0.5,1,0.7,1.5,0.4c0.5-0.3,0.7-1,0.4-1.5c-0.2-0.4-0.5-0.7-0.7-1.1c0.1,0,0.1,0,0.1-0.1
		c0.4-0.1,0.8-0.2,1.3-0.2c0.6,1,1.2,1.9,1.8,2.8c0.4,0.5,1,0.7,1.5,0.4c0.5-0.3,0.8-1,0.4-1.5c-0.4-0.5-0.8-1.1-1.1-1.6
		c0.5,0,1,0.1,1.5,0.1c0.5,0.7,1,1.4,1.4,2c0.4,0.5,1,0.7,1.5,0.4c0.5-0.3,0.8-1,0.4-1.5c-0.2-0.3-0.4-0.6-0.6-0.9
		c0.4,0,0.9-0.1,1.5-0.1c0,0,0,0,0,0c0.4,0.6,0.8,1.3,1.2,2c0.7,1.2,2.7,0.1,1.9-1.1c-0.2-0.3-0.4-0.7-0.6-1c0.5,0,0.9,0,1.4,0
		c0.4,0.9,0.8,1.8,1.3,2.6c0.7,1.2,2.7,0.1,1.9-1.1c-0.2-0.4-0.4-0.8-0.6-1.2C214.8,78.4,215.8,79,216,80z M212.8,67.1
		c-0.3,2.8-0.1,5.6-0.2,8.4c-2.8-0.1-6.1,0.3-8.4,0.4c-1.3,0-3.5-0.3-5.5-0.3c0-2.8-0.1-5.6,0-8.4c4.2,0.5,8.9-0.2,13-0.1
		c0.4,0,0.7,0,1.1,0C212.8,67,212.8,67,212.8,67.1z M227.1,65c-5.1,0-10.2-0.2-15.3-0.4c-3.7-0.1-7.4,0.1-11.1,0
		c-0.9,0-4.9,0.1-4.7-1.7c0.2-1.5,4.7-1.4,5.8-1.4c6.1-0.4,12.3,0.1,18.4,0c2.8-0.1,9-1,11.3,0.9C235,65.2,228.9,65,227.1,65z
		 M229.2,58.9c0,0.2,0,0.4,0,0.6c-0.4,0-0.8,0-1.1,0c-3-0.3-5.8-0.2-8.8-0.2c-4.9,0.1-9.8-0.3-14.6-0.1c-1.4,0.1-3.7-0.2-5.8-0.1
		c0-6.5-0.1-13.1,0.1-19.6c0.5,0,0.9,0,1.2,0c3.2,0.2,6.5,0.5,9.7,0.4c5.3-0.1,10.6,0.2,15.9,0.2c1.4,0,3.7,0.2,6.1,0.1
		C231,46.5,230.4,52.8,229.2,58.9z M235,37.4c-1.5,0.5-3.9,0.3-5.5,0.4c-6.8,0.3-13.5-0.2-20.3,0c-3.8,0.1-8,0-11.8-0.6
		c-2.3-0.4-3.6-2-0.9-3.1c1.1-0.4,2.9,0,4,0c6.8,0.1,13.6,0.3,20.5,0.5c4,0.1,8.8-0.7,12.7,0.1C235.5,35.1,238.2,36.3,235,37.4z"/>
	<path class="st0" d="M152.6,52.2c0.9,1.1,2.5-0.5,1.6-1.6c-1.3-1.7-2.8-3.3-4.3-4.8c-1-1-2.6,0.6-1.6,1.6
		C149.8,48.9,151.2,50.5,152.6,52.2z"/>
	<path class="st0" d="M157.3,52c0.9,1.1,2.8,0,1.9-1.1c-1.4-1.9-2.8-3.8-4.2-5.6c-0.9-1.1-2.8,0-1.9,1.1
		C154.5,48.2,155.9,50.1,157.3,52z"/>
</g>
<g>
	<path class="st0" d="M226.6,144.2c-5.1-4.7-9.9-6.1-16.4-3.4c-5.8,2.4-10.3,7.6-14.8,11.7c-6.8,6.2-13.4,12.7-19.9,19.3
		c-6.2,6.4-12.4,12.9-18.4,19.5c-2.7,2.9-5.7,5.9-8,9.1c-0.1,0.1-0.2,0.2-0.2,0.3c-0.1,0.1-0.2,0.3-0.2,0.4
		c-1.6,3.2-2.3,7.2-3.1,10.6c-1.3,5.5-2.3,11.1-2.8,16.7c-0.1,1.1,1,1.6,1.9,1.4c8.8-1.4,17.4-3.3,26.2-4.9c3.6-0.6,5.1-3.1,7.6-5.7
		c4.2-4.3,8.3-8.7,12.5-13c7.7-8.1,15.4-16.1,23.3-24c6.5-6.5,15.6-13.6,18.7-22.6C235.1,153.1,231.2,148.5,226.6,144.2z
		 M217.3,175.3c-3.6-3-6.3-6.4-9.5-9.8c-3.4-3.6-7-7-10.7-10.3c0.7-0.6,1.3-1.2,2-1.8c6.8,6.7,13.4,13.4,20,20.2
		C218.5,174.1,217.9,174.7,217.3,175.3z M209.3,183.1c-6.3-7.2-13.8-13.3-21-19.6c0.6-0.6,1.2-1.1,1.8-1.7
		c7.6,5.6,14.1,13,20.8,19.7c-0.3,0.3-0.5,0.5-0.8,0.8C209.8,182.5,209.5,182.8,209.3,183.1z M170.5,211.8
		C170.5,211.8,170.5,211.8,170.5,211.8c-2.9,0.2-5.7,0.2-8.6,0.3c-0.1-2.2-0.1-5.6-0.9-7.7c5.1-5,9.6-10.6,14.5-15.8
		c5.5-5.9,11.4-11.6,17.1-17.3c3,2.6,5.9,5.2,8.7,8C191.4,190.4,181.2,201.3,170.5,211.8z M195.4,156.7c0.5,0.5,1.1,1,1.6,1.5
		c-1.1,1.2-2.2,2.4-3.4,3.5c-0.6-0.5-1.3-1-1.9-1.5C192.9,159,194.2,157.8,195.4,156.7z M202.7,169.9c1.2-0.9,2.3-1.9,3.3-3
		c0,0,0.1,0.1,0.1,0.1c0.6,0.7,1.2,1.3,1.8,2c-0.9,1.1-2,2.1-3.1,3.1C204.2,171.4,203.5,170.7,202.7,169.9z M201.1,168.4
		c-0.6-0.6-1.2-1.2-1.9-1.8c1-1.1,2.1-2.2,3.2-3.3c0.7,0.7,1.4,1.4,2,2C203.4,166.4,202.3,167.4,201.1,168.4z M197.6,165
		c-0.7-0.7-1.5-1.3-2.2-2c1.2-1.1,2.3-2.2,3.3-3.4c0.7,0.7,1.5,1.4,2.2,2C199.7,162.8,198.7,163.9,197.6,165z M206.5,173.7
		c1.1-0.9,2.1-1.9,3-3c0.7,0.7,1.3,1.5,2,2.2c-1,1-2,2-2.9,3.1C207.9,175.2,207.2,174.5,206.5,173.7z M169.2,182.8
		c5.5-5.8,11.2-11.6,17-17.2c1.6,1.4,3.3,2.8,4.9,4.3c-5.7,5.7-11.5,11.3-17,17.2c-4.9,5.3-9.4,10.8-14.5,15.8
		c-0.9-0.3-2-0.3-2.6-0.4c-1.6-0.3-3.3-0.5-5-0.8C156.7,194.8,163.4,188.8,169.2,182.8z M157.7,224.7c-2.4-3-6.1-6.8-9.8-9.8
		c0.2-0.8,0.3-1.6,0.5-2.4c0.6-2.8,1.2-6.1,2.3-8.8c2.4,0.2,6.1,0.3,8.2,1.3c-0.8-0.3,0,1.5,0.1,2.7c0.2,1.8,0.4,3.7,0.7,5.5
		c0.1,0.6,0.5,1.2,1.1,1.1c2.1-0.1,4.3,0.1,6.4-0.1c2.3-0.2,2.2-0.7,2.5,1.6c0.2,2.1,0.4,4.1,0.5,6.2c-0.3,0.1-0.5,0.2-0.8,0.2
		C165.6,223.2,161.7,224,157.7,224.7z M190,203c-3.6,3.7-7.1,7.4-10.7,11.2c-2.2,2.3-4.2,5.1-6.8,6.8c-0.2-2.4-0.4-4.8-0.7-7.1
		c10.8-10.6,21.1-21.7,31.3-32.9c1.4,1.4,2.8,2.9,4.1,4.4C201.4,191.1,195.7,197,190,203z M212.5,179.9c-0.8-0.8-1.5-1.5-2.3-2.3
		c0.9-1.1,1.9-2.1,2.9-3.1c0.8,0.8,1.7,1.6,2.6,2.3C214.6,177.9,213.5,178.9,212.5,179.9z M229.2,160.8c-1.9,3.8-4.8,7.3-8,10.6
		c-6.6-6.8-13.2-13.5-19.9-20.1c0.1-0.1,0.3-0.3,0.4-0.4c4.5-4.1,10.2-10.2,17-8.3c3.2,0.9,5.7,3.6,7.9,6
		C230.1,152.4,231.8,155.6,229.2,160.8z"/>
	<path class="st0" d="M210.7,148.5c-0.3-1.4-2.4-0.8-2.2,0.6c0.4,2,0.9,4,1.6,6c0.5,1.4,2.6,0.8,2.2-0.6
		C211.6,152.6,211.1,150.6,210.7,148.5z"/>
	<path class="st0" d="M214.5,147.7c-0.5-1.4-2.6-0.8-2.2,0.6c0.6,1.7,1.1,3.4,1.7,5.1c0.5,1.4,2.6,0.8,2.2-0.6
		C215.6,151.1,215.1,149.4,214.5,147.7z"/>
</g>
<g>
	<path class="st0" d="M-213.4,309.3c-8.1,0.8-14,7.8-13.7,15.7c0.2,7.9,7.9,14.8,15.8,14.7c0.1,0,0.2,0,0.4,0
		c8.2-0.8,14-6.2,13.4-14.8C-198.3,316.9-204.4,308.4-213.4,309.3z M-202.5,332c-2.8-6.7-5.9-13.2-9.2-19.6c0.8,0.1,1.7,0.2,2.4,0.5
		c2.9,5.1,4.9,10.7,8.1,15.7c0,0.1,0.1,0.1,0.1,0.2C-201.4,330-201.9,331.1-202.5,332z M-200.9,323c0.1,0.7,0.2,1.3,0.2,2
		c-1.8-3.3-3.3-6.7-5-10C-203.2,316.9-201.5,319.8-200.9,323z M-214.2,312.5C-214.2,312.5-214.2,312.5-214.2,312.5
		c3.7,6.9,7,14,10,21.2c0,0.1,0.1,0.1,0.1,0.1c-0.6,0.5-1.2,0.9-1.9,1.3c-3.6-7.3-7.2-14.7-10.8-22c0.7-0.3,1.4-0.5,2.1-0.6
		C-214.5,312.5-214.4,312.5-214.2,312.5z M-215.2,336c-2.7-5.5-5.4-10.9-8.1-16.4c0.3-0.7,0.7-1.4,1.2-2.1
		c2.9,6.5,6.1,12.9,9.5,19.1C-213.5,336.5-214.3,336.3-215.2,336z M-210.1,336.6c-3.8-6.8-7.3-13.8-10.5-20.9c0.5-0.5,1.1-1,1.8-1.4
		c3.6,7.3,7.2,14.6,10.7,21.8C-208.7,336.3-209.3,336.5-210.1,336.6z M-224.1,325.8c-0.2-1-0.2-2,0-2.9c1.9,3.8,3.7,7.6,5.6,11.4
		C-221.4,332.2-223.6,329.1-224.1,325.8z"/>
	<path class="st0" d="M-187.2,294.7c-11.4-10.3-31.2-11.4-44.3-4.2c-13,7.1-22.8,24.3-19.7,39.2c0.9,4.4,2.2,9.1,4.1,13.2
		c2,4.3,5.5,7.6,8.9,10.8c7.1,6.5,15.9,10,25.5,10.2c16.2-0.6,31.5-9.4,37.7-24.9C-169,323.8-175.3,305.5-187.2,294.7z
		 M-186.2,300.3c4,5,7.5,10.8,9.3,17c-3.5-6.2-7.1-12.3-10.6-18.5C-187,299.3-186.6,299.8-186.2,300.3z M-176.8,335.1
		c-2.9-5.1-5.5-10.3-8.5-15.3c-1.2-5.1-3.7-9.8-7.3-13.5c-2.7-5.2-5.5-10.4-8.4-15.5c0.8,0.2,1.6,0.5,2.4,0.8
		c8.5,13,15,27.2,22.5,40.8C-176.3,333.3-176.5,334.2-176.8,335.1z M-178.7,340c-2-3.6-4.3-7-6.2-10.7c0.1-0.6,0.1-1.1,0.2-1.7
		c0-0.7,0.1-1.4,0.1-2.1c2.3,4.1,4.4,8.3,6.9,12.4C-178.1,338.6-178.4,339.3-178.7,340z M-181,344c-1.7-3-3.5-5.9-5.5-8.7
		c0.3-0.8,0.6-1.7,0.9-2.6c1.9,3.2,3.8,6.4,5.6,9.6C-180.3,342.9-180.6,343.5-181,344z M-213.2,348.7c-6.2-0.5-12.2-2.4-16.9-6.7
		c-4.9-4.5-6.7-12.2-6.5-18.6c0.5-14,14.7-25,28.4-22.5c11.9,2.2,20.9,13.8,20.5,25.8C-188.2,340.4-200.5,348.9-213.2,348.7z
		 M-190.7,353.7c-1.5-2.5-3-5-4.6-7.4c0.6-0.5,1.3-0.9,1.9-1.5c1.7,2.4,3.3,4.9,4.7,7.4C-189.4,352.7-190,353.2-190.7,353.7z
		 M-194.9,356.2c-1.5-2.5-3.1-4.9-4.6-7.4c0.8-0.4,1.6-0.8,2.3-1.3c1.5,2.5,3.1,4.9,4.6,7.4C-193.4,355.4-194.1,355.8-194.9,356.2z
		 M-199.4,358.2c-1.5-2.6-3.1-5.2-4.7-7.7c0.9-0.3,1.7-0.5,2.6-0.9c1.5,2.5,3.1,5,4.6,7.5C-197.8,357.5-198.6,357.9-199.4,358.2z
		 M-203.6,359.5c-1.7-2.7-3.4-5.4-5.1-8.1c0.7-0.1,1.5-0.2,2.2-0.4c1.7,2.6,3.3,5.2,4.9,7.9C-202.3,359.1-202.9,359.3-203.6,359.5z
		 M-208.2,360.5c-2-2.8-3.8-5.8-5.5-8.8c0.2,0,0.3,0,0.5,0c0.7,0,1.4,0,2.1,0c1.8,2.8,3.5,5.6,5.3,8.4
		C-206.7,360.2-207.5,360.4-208.2,360.5z M-212.7,360.9c-0.2,0-0.3,0-0.5,0c-2.1-3.3-4.1-6.6-6-10c0.9,0.2,1.8,0.4,2.6,0.5
		c1.8,3.2,3.7,6.4,5.8,9.4C-211.4,360.8-212.1,360.9-212.7,360.9z M-226.3,357.8c-7.3-13.5-14.5-26.9-21.8-40.4
		c0.2-0.7,0.4-1.4,0.6-2.1c2.8,5.2,5.7,10.3,8.5,15.5c0.9,5,3.1,10,6.8,13.3c0.5,0.4,0.9,0.8,1.4,1.2c2.8,4.7,5.7,9.4,8.5,14
		C-223.7,358.9-225,358.4-226.3,357.8z M-232,354.6c-6.1-10.1-11.7-20.2-16.9-30.8c0-0.3,0-0.6,0-1c0-0.6,0.1-1.2,0.2-1.8
		c6.3,11.6,12.6,23.3,18.8,34.9C-230.6,355.5-231.3,355-232,354.6z M-245.7,310.4c0.7,1.3,1.6,2.6,2.4,3.9c1.4,2.4,2.7,4.8,3.9,7.3
		c-0.1,0.6-0.1,1.2-0.1,1.8c0,0.6,0,1.1,0,1.7c-2.3-4.2-4.6-8.4-7-12.7C-246.3,311.7-246,311.1-245.7,310.4z M-242.7,305.1
		c1.8,3.2,3.5,6.4,5,9.7c-0.4,1-0.8,2.1-1.1,3.1c-0.7-1.3-1.4-2.6-2.1-3.9c-1.2-2-2.8-4-3.5-6.2C-243.9,306.9-243.3,306-242.7,305.1
		z M-239.7,301.1c1.8,2.7,3.4,5.4,4.9,8.3c-0.6,0.9-1.2,1.8-1.7,2.7c-1.5-3.1-3.1-6.1-4.8-9.1C-240.8,302.4-240.2,301.7-239.7,301.1
		z M-236.3,297.8c1.5,2.7,3.1,5.4,4.6,8.1c-0.5,0.5-1,1-1.4,1.6c-1.5-2.8-3.1-5.5-4.9-8C-237.5,298.8-236.9,298.3-236.3,297.8z
		 M-232.6,294.8c1.4,2.7,2.9,5.3,4.4,8c-0.6,0.5-1.3,1-1.9,1.5c-1.5-2.7-3-5.3-4.5-8C-233.9,295.8-233.3,295.3-232.6,294.8z
		 M-224.5,290.7c1.3,2.7,2.8,5.4,4.4,8c-0.7,0.2-1.4,0.5-2.1,0.8c-1.4-2.7-2.9-5.3-4.3-8C-225.9,291.2-225.2,291-224.5,290.7z
		 M-219.8,289.4c1.8,2.6,3,5.5,4.6,8.2c-0.9,0.1-1.8,0.3-2.7,0.5c-1.6-2.6-3.1-5.3-4.5-8.1C-221.5,289.8-220.7,289.6-219.8,289.4z
		 M-214.8,288.9c1.5,3,3.1,5.9,4.9,8.7c-0.9-0.1-1.9-0.1-2.8-0.1c-1.7-2.8-2.9-5.7-4.7-8.4C-216.5,289-215.6,288.9-214.8,288.9z
		 M-228.6,292.6c1.4,2.6,2.8,5.2,4.2,7.8c-0.7,0.3-1.4,0.7-2,1.1c-1.4-2.7-2.9-5.3-4.3-8c0.7-0.4,1.4-0.8,2.1-1.1
		C-228.6,292.5-228.6,292.6-228.6,292.6z M-219.3,360c-2.4-3.9-4.8-7.9-7.2-11.8c1.4,0.7,2.8,1.3,4.2,1.8c2,3.6,4.1,7.2,6.3,10.7
		c-1.1-0.1-2.1-0.3-3.2-0.5C-219.2,360.1-219.2,360-219.3,360z M-204.2,289.9c2.4,4,4.7,8.2,6.9,12.3c-1.1-0.8-2.2-1.4-3.4-2
		c-2.2-3.6-4.3-7.3-6.5-10.9C-206.2,289.5-205.2,289.7-204.2,289.9z M-195,293.2c0.9,0.5,1.8,1,2.7,1.6c0,0.1,0.1,0.2,0.1,0.3
		c5.4,9.3,10.7,18.7,16.1,28c0.1,0.2,0.3,0.3,0.4,0.4c0.1,0.9,0.1,1.8,0.1,2.7c0,0.8,0,1.6-0.1,2.3
		C-182,316.8-187.8,304.6-195,293.2z M-210,289c2,3.2,3.9,6.5,5.8,9.8c-0.9-0.3-1.8-0.5-2.7-0.7c-1.9-3-3.7-6-5.3-9.2
		C-211.5,288.9-210.8,289-210,289z M-239.9,347.7c-4.3-4.4-7.5-11.5-8.6-18.2c3.7,7.2,7.5,14.2,11.6,21.1
		C-238,349.7-239,348.7-239.9,347.7z M-187,350.8c-1.4-2.5-2.9-4.9-4.6-7.2c-0.1-0.1-0.1-0.2-0.2-0.2c0.5-0.5,0.9-1,1.4-1.5
		c1.6,2.6,3.2,5.1,4.9,7.7C-186,349.9-186.5,350.3-187,350.8z M-184,347.8c-1.7-2.6-3.4-5.2-5-7.9c0.5-0.7,1-1.5,1.4-2.2
		c1.8,2.7,3.5,5.5,5.1,8.3C-182.9,346.6-183.5,347.2-184,347.8z"/>
	<path class="st0" d="M-162.2,313.1c-2.5-9.7-8.6-18.2-16-24.9c-7.6-7-16.8-13-27.2-14.1c-11.1-1.2-24.7,0.2-34.1,6.7
		c-18.2,12.7-27.8,32.6-23.1,54.8c5.1,23.8,26.5,40.4,50.6,40.4c20.2,0.1,38.4-10.3,46.2-29.2C-161.3,336.1-159.3,324.3-162.2,313.1
		z M-165.9,338.2c-3.1,10.7-8.5,20.4-17.9,26.7c-8.3,5.6-18.2,8.1-28.1,8c-19.9,0-38.2-11.9-45.5-30.6c-3.7-9.6-4.6-21.5-1.8-31.5
		c2.6-9.3,8.2-16.5,15.3-22.7c3.7-3.3,7.7-6.6,12.4-8.4c5.4-2.1,11.5-2.4,17.3-2.8c11.1-0.6,20.3,2.6,29.1,9.4
		C-168.5,299-159.9,317.5-165.9,338.2z"/>
	<path class="st0" d="M-223.3,308.1c1.1-0.9,0-2.8-1.1-1.9c-1.8,1.3-3.3,2.8-4.7,4.5c-0.9,1.1,0.7,2.7,1.6,1.6
		C-226.4,310.7-224.9,309.3-223.3,308.1z"/>
	<path class="st0" d="M-225,311c-1,1.1,0.6,2.7,1.6,1.6c0.9-1,2-1.9,3.2-2.6c1.3-0.7,0.1-2.7-1.1-1.9
		C-222.7,308.8-223.9,309.8-225,311z"/>
</g>
<g>
	<path class="st0" d="M-46,349.9c0-6.9-0.1-13.9-0.3-20.8c-0.4-13.2-0.9-26.4-1.7-39.6c-0.5-9.1-4.1-14.7-13.6-16.1
		c-10.6-1.6-21.8-1-32.5-0.4c-4.8,0.3-9.7,0.8-12.6,5.1c-2.8,4.2-3,10.3-3.4,15.2c-1.3,13.8,0.2,27.9-0.1,41.8
		c0,9.1-0.3,18.3,0.5,27.4c0.5,5.7,1.7,10,7.2,12.9c3.8,2,9.6,1.5,13.6,1.5c7.3,0.1,14.5-0.4,21.8-0.6c8.3-0.2,19.3,0.2,20.9-10.4
		C-45.5,360.9-46,355.2-46,349.9z M-49.3,365.5c-1.5,7.7-8.6,7.9-15,7.9c-10.2,0.1-20.5,1.1-30.7,0.5c-4.1-0.2-9-1.3-10.9-5.5
		c-1.2-2.5-1-6-1.2-8.8c-0.5-8.1-0.3-16.3-0.3-24.5c0.2-9.1,0.1-18.2-0.2-27.2c-0.2-4.9-0.1-9.7,0.4-14.5c0.5-5.6,0.6-14.1,6.8-16.5
		c4.1-1.6,9.9-1,14.3-1.2c4.5-0.2,9-0.2,13.5-0.1c4.2,0.1,8.9,0.1,13,1.2c6.6,1.8,8.1,6.4,8.5,12.7c1.3,20.4,2.1,40.9,2.1,61.3
		C-49,355.6-48.4,360.9-49.3,365.5z"/>
	<path class="st0" d="M-84.3,283.2c4-0.2,8-0.3,12-0.3c1.4,0,1.5-2.2,0-2.3c-4,0-8,0.1-12,0.3C-85.8,281-85.8,283.2-84.3,283.2z"/>
	<path class="st0" d="M-67.4,282.7C-67.4,282.6-67.3,282.6-67.4,282.7c1.1-1.1-0.5-2.7-1.5-1.7c0,0,0,0-0.1,0.1
		C-70,282.1-68.4,283.7-67.4,282.7z"/>
	<path class="st0" d="M-62.8,282.7C-62.8,282.7-62.8,282.7-62.8,282.7c1.1-1.1-0.5-2.7-1.5-1.7c0,0,0,0-0.1,0.1
		C-65.4,282.2-63.9,283.8-62.8,282.7z"/>
	<path class="st0" d="M-77.5,364.8c-3.1,0-9.2-0.7-9.6,3.7c-0.4,4.1,6.3,3.7,8.8,3.6c2.5-0.1,8.5,0.2,8.7-3.4
		C-69.3,364-74.3,364.7-77.5,364.8z M-72.2,369c-1,1.1-5.1,0.9-6.5,0.9c-1,0-5.4,0.2-5.7-0.5c-1.3-2.9,5.9-2.3,7-2.3
		C-76.5,367-70.2,366.6-72.2,369z"/>
	<path class="st0" d="M-52.6,288.1C-52.6,288.1-52.6,288.1-52.6,288.1c0,0,0-0.1-0.1-0.1c-0.2-0.3-0.5-0.6-1-0.6
		c-16.8,0.1-33.6,0.9-50.4,0.6c-0.5,0-0.8,0.3-1,0.6c0,0,0,0,0,0c0,0,0,0.1,0,0.1c0,0.1-0.1,0.2-0.1,0.4
		c-0.7,11.8,0.5,23.6,0.2,35.4c-0.3,12.6-1,25.1-0.6,37.7c0,0.2,0.1,0.4,0.2,0.5c0.2,0.3,0.5,0.6,1,0.6c8.8-0.2,17.5,0.1,26.3-0.4
		c8.9-0.5,17.7,0.1,26.6-0.1c0.2,0,0.4-0.1,0.5-0.1c0.4-0.1,0.6-0.5,0.6-1c-1.2-24.4-1-48.8-2.1-73.2
		C-52.5,288.3-52.6,288.2-52.6,288.1z M-78.2,360.7c-8.4,0.4-16.8,0.2-25.2,0.3c-0.3-12.2,0.4-24.3,0.6-36.5
		c0.2-11.4-0.9-22.9-0.3-34.3c16.1,0.2,32.2-0.5,48.3-0.6c1.1,23.6,0.9,47.3,2,71C-61.2,360.8-69.7,360.3-78.2,360.7z"/>
	<path class="st0" d="M-92.3,296.1c-2.2,1.8-4,3.9-5.4,6.4c-0.7,1.3,1.2,2.4,1.9,1.1c1.3-2.3,3-4.3,5-5.9
		C-89.6,296.8-91.2,295.2-92.3,296.1z"/>
	<path class="st0" d="M-87.4,296.9c-1.4,1.6-2.7,3.2-4.1,4.8c-0.9,1.1,0.7,2.7,1.6,1.6c1.4-1.6,2.7-3.2,4.1-4.8
		C-84.9,297.4-86.5,295.8-87.4,296.9z"/>
</g>
<g>
	<path class="st0" d="M99.6,324.4c-6.7-6.4-13.1-13-19.5-19.7c-6.3-6.6-12.7-13.2-19.2-19.5c-2.1-2-4.8-5.9-7.7-6.9
		c-2.1-0.7-4.8,0.2-6.9,0.5c-0.1,0-0.1,0-0.2,0c-0.6-0.4-1.3-0.7-2.1-0.8c-2.8-0.6-6.4,0.2-9.2,0.4c-5.6,0.4-11.2,0.9-16.8,1.7
		c-4.2,0.6-9.9,0.1-11,5c-1.2,5.2-1.6,10.8-2.1,16.1c-0.5,4.9-1,10.9-0.2,15.7c1.3,8.2,11.1,15.2,16.7,20.4
		c7.7,7.1,15.1,14.6,22.6,21.9c3,3,6.1,5.9,9.2,8.7c1.3,1.1,3.1,3.2,4.9,3.6c0.2,0,0.3,0,0.4,0c0.1,0,0.2,0,0.4,0
		c1.2-0.2,2.3-1.2,3.3-2c5.2,5.7,11.9-3.7,15.5-7.1c4.7-4.5,9.3-9.2,13.9-13.8c4.3-4.4,9.2-8.7,12.9-13.5
		C108,330.3,102.9,327.6,99.6,324.4z M58.6,368.5c-1.2-0.5-2.4-1.9-3.2-2.7c-2.3-2-4.4-4.1-6.6-6.2c-5.7-5.5-11.2-11-16.9-16.5
		c-5.9-5.7-12.2-11.1-17.9-17c-2.9-3-5.9-6.2-6.5-10.5c-0.5-4-0.2-8.6,0.1-12.7c0.4-4.8,0.6-10.2,1.9-14.9c1.2-4.6,3.3-4.2,7.3-4.8
		c3.5-0.5,7-0.9,10.5-1.2c4.5-0.4,10.3-1.8,14.7-1c5.7,0.9,11.5,9,15.4,12.9c7.8,7.8,15.3,15.8,23.1,23.6c3.8,3.8,7.6,7.6,11.5,11.3
		c2.1,2,3.4,2.9,1.1,5.6c-1.3,1.5-2.7,2.8-4,4.2c-6.1,6.4-12.2,12.7-18.5,18.9c-2.6,2.5-5.2,5.1-7.9,7.5
		C61.7,366,60.1,368,58.6,368.5z M102.7,332.5c-0.1,0.6-2,2.3-2.5,2.9c-6.9,7.3-13.9,14.5-21.1,21.5c-2.9,2.8-5.8,5.6-8.8,8.3
		c-1.9,1.7-3.7,4.4-5.9,2.4c2.1-1.8,4.1-3.8,6.1-5.7c6.9-6.7,13.6-13.6,20.2-20.5c2-2.1,6.4-5.5,7.1-8.5c0.8-3.5-4.5-6.7-6.6-8.7
		c-9.8-9.4-19.1-19.3-28.6-29c-4.4-4.5-8.8-8.8-13.3-13.2c-0.2-0.2-0.4-0.4-0.6-0.6c0.7-0.1,1.5-0.2,2.1-0.1
		c2.1,0.3,4.1,2.8,5.6,4.1c2.5,2.4,4.9,4.8,7.3,7.2c4.9,4.9,9.7,9.9,14.6,14.9c4.9,5.1,9.8,10.1,14.8,15c2.5,2.4,5.5,4.7,7.6,7.3
		C101.7,330.7,102.9,331.1,102.7,332.5z"/>
	<path class="st0" d="M26,292.2c-1.1-3.8-4.7-4.3-7.9-3.1c-0.1,0-0.3,0.1-0.4,0.2c-2.8,1.7-4.3,5-3.1,8.2c1.3,3.2,4.2,4.6,7.3,2.9
		C24.7,298.8,26.9,295.4,26,292.2z M20.9,297.4c-1.6,1.1-2.9,0.6-3.5-1.3c-0.5-1.7,0.4-3.3,1.8-4.2c1.7-0.6,3.7-0.9,4.1,1.4
		C23.5,294.9,22.2,296.5,20.9,297.4z"/>
	<path class="st0" d="M40.5,314.4c-0.5-2-1.9-3.8-2.4-5.8c-0.9-3.6,4-5.5,6-2.6c0.6,0.9,1,2,0.9,3.1c-0.1,1.9,2.9,1.9,3,0
		c0.3-5.6-7.1-11.3-11.6-6.4c-2.3,2.5-1.6,6-0.4,8.8c0.5,1.2,1.4,2.5,1.7,3.8c0.9,3.6-2.2,6.1-5.7,5c-4-1.3-7.3-6.4-4.7-10.2
		c1.1-1.6-1.5-3.1-2.6-1.5c-4.6,6.9,4.6,18.5,12.3,15C40.3,321.9,41.4,317.7,40.5,314.4z"/>
	<path class="st0" d="M51.9,325.8c-1.2-1.2-2.5-2.4-3.7-3.5c0.8-0.8,1.6-1.6,2.5-2.4c1.5-1.4,1.8-1.8,4.1-1.6
		c2.4,0.2,3.3,1.2,4.9,2.9c1.3,1.4,3.5-0.7,2.1-2.1c-2.2-2.3-4.9-4.8-8.4-4.2c-3.6,0.6-6.7,4.7-9.1,7.2c-2,2.1-5.6,5.1-5.2,8.3
		c0.4,3.4,4.1,6.7,6.7,8.4c1.6,1.1,3.1-1.5,1.5-2.6c-1-0.7-2-1.5-2.7-2.4c-0.9-1.1-2.4-3.5-2.2-4.9c0.2-1.2,2.5-3.2,3.8-4.5
		c1.2,1.2,2.5,2.4,3.7,3.5C51.2,329.2,53.3,327.1,51.9,325.8z"/>
	<path class="st0" d="M73.8,331.1c-0.1-0.1-0.1-0.2-0.2-0.2c0,0,0-0.1-0.1-0.1c-8.4-9.4-28.8,5.2-20.3,16.4
		C62.2,359,80.8,341.9,73.8,331.1z M71.3,332.8c4.9,8.1-10.2,22-16.1,12C50.4,336.7,65.4,326.5,71.3,332.8z"/>
	<path class="st0" d="M34.5,292c3.5,0,7-0.1,10.4-0.1c1.4,0,1.5-2.3,0-2.3c-3.5,0-7,0.1-10.4,0.1C33,289.8,33,292.1,34.5,292z"/>
	<path class="st0" d="M40.4,293.7c-1.4-0.1-1.4,2.2,0,2.3c2,0.1,4-0.1,6-0.4c1.4-0.3,0.8-2.4-0.6-2.2
		C44,293.7,42.2,293.8,40.4,293.7z"/>
	<path class="st0" d="M61.4,355c-2.4,0.2-4.8,0.4-7.2,0.5c-1.4,0-1.5,2.3,0,2.3c2.4-0.1,4.8-0.2,7.2-0.5
		C62.8,357.1,62.8,354.9,61.4,355z"/>
	<path class="st0" d="M59.4,359c-0.8,0.3-1.6,0.5-2.4,0.6c-0.6,0.1-0.9,0.8-0.8,1.4c0.2,0.6,0.8,0.9,1.4,0.8
		c0.8-0.1,1.6-0.3,2.4-0.6c0.6-0.2,1-0.8,0.8-1.4C60.6,359.2,59.9,358.8,59.4,359z"/>
</g>
<g>
	<path class="st1" d="M147.8,341.6c4.1,0.1,8.8,0.6,9.3-4.5c0.6-6.2,0.1-12.7,0.2-18.9c0-3,1.7-10-2-11.4c-2.1-0.8-5.6-0.4-7.9-0.7
		c-2.2-0.3-4.4-0.3-6.7-0.2c-4,0.1-5.9,0.3-5.9,4.6c0,6-0.5,12.1-0.5,18.1c-0.2,2.8-0.7,8.4,0.9,10.8
		C137.3,343,144.4,341.5,147.8,341.6z M140,308.9c3.1-0.3,6.2,0.2,9.3,0.5c1.3,0.1,4.1-0.4,4.9,0.7c0.7,0.9,0,5.6,0,6.7
		c0,3.6-0.1,7.3-0.1,10.9c0,2.2,0,4.5-0.1,6.7c0,3.7-1.2,4.3-4.9,4.3c-2.3,0-7,0.8-9.8-0.2c0.8-0.6,1.5-1.3,2.1-2.1
		c0.9-1.1-0.7-2.7-1.6-1.6c-0.7,0.8-1.5,1.6-2.3,2.3c0,0-0.1-0.1-0.1-0.1c-0.4-0.9-0.5-2.2-0.5-3.6c1.2-1.1,2.5-2.2,3.7-3.2
		c1.1-0.9-0.5-2.5-1.6-1.6c-0.7,0.6-1.4,1.2-2.1,1.8c0-0.6,0.1-1.2,0.1-1.7c0-0.7,0-1.3,0-2c1.5-1.4,3-2.8,4.7-4.1
		c1.1-0.9-0.5-2.5-1.6-1.6c-1,0.8-2,1.6-3,2.5c0-0.8,0.1-1.7,0.1-2.5c1.4-1.1,2.7-2.2,4.1-3.4c1.1-0.9-0.5-2.5-1.6-1.6
		c-0.8,0.6-1.6,1.3-2.3,1.9c0-0.5,0.1-1,0.1-1.5c0-0.4,0-0.8,0-1.2c1.2-0.9,2.4-1.8,3.6-2.6c1.2-0.9,0-2.8-1.1-1.9
		c-0.8,0.6-1.7,1.2-2.5,1.8c0-0.4,0-0.8,0-1.1C137.8,309.2,137.8,309.1,140,308.9z"/>
	<path class="st1" d="M166,338.8c1.5,3.4,6.1,2.6,9.1,2.5c3.1-0.1,9.5,1.1,12.1-0.9c2.6-2,1.2-9.1,1.2-11.9c0-6.7,0.1-13.4,0.1-20.1
		c0-3.3,0-6.5,0-9.8c0-1.5,0.5-4.2-0.4-5.6c-1.6-2.4-7.5-1.6-10-1.9c-2.6-0.3-8.8-1.2-11.1,0.5c-2.4,1.8-1.1,8.4-1.1,11
		c-0.2,7-0.6,14-0.5,21c-0.2,2.9-0.1,5.7,0.1,8.6C165.6,334.2,165.2,337,166,338.8z M168.9,294.7c1.4-2.1,9.2-0.5,11.2-0.2
		c2.2,0.3,4.6-0.5,5.5,1.5c0.8,1.8,0,6,0,7.8c0,5.9-0.1,11.8-0.1,17.7c0,2.9,0,5.8,0,8.6c0,1.5,0.8,6.2-0.1,7.5
		c-0.9,1.3-8.1,1.2-12,1c1.1-0.8,2.2-1.6,3.3-2.4c1.2-0.8,0-2.8-1.1-1.9c-1.8,1.3-3.6,2.6-5.3,3.9c-0.8-0.4-1.2-1-1.4-1.7
		c2.2-1.6,4.3-3.3,6.4-5.1c1.1-0.9-0.5-2.5-1.6-1.6c-1.6,1.4-3.2,2.7-4.9,4c0-0.4,0-0.9,0-1.3c0-0.5,0-0.9-0.1-1.4
		c2-2.2,4.2-4.2,6.6-5.9c1.2-0.8,0-2.8-1.1-1.9c-2,1.4-3.9,3-5.6,4.7c0-0.8,0-1.6,0-2.4c1.7-1.9,3.6-3.6,5.6-5.2
		c1.1-0.9-0.5-2.5-1.6-1.6c-1.4,1.1-2.7,2.3-4,3.5c0-1.2,0-2.4,0-3.6c1.6-1.7,3.4-3.1,5.3-4.4c1.2-0.8,0.1-2.7-1.1-1.9
		c-1.4,0.9-2.8,2-4.1,3.2c0-0.9,0.1-1.9,0.1-2.8c1.6-1.7,3.4-3.3,5.4-4.6c1.2-0.8,0.1-2.8-1.1-1.9c-1.5,1-2.8,2.1-4.1,3.3
		c0-0.5,0-0.9,0.1-1.4c0-0.5,0-1,0-1.5c1.4-1.7,3.1-3.3,4.9-4.6c1.2-0.8,0.1-2.8-1.1-1.9c-1.3,0.9-2.5,2-3.7,3.1c0-0.7,0-1.4,0-2.2
		c1.3-1.3,2.7-2.6,4.3-3.6c1.2-0.8,0.1-2.8-1.1-1.9c-1.1,0.8-2.2,1.6-3.2,2.6C168.7,296.6,168.6,295.1,168.9,294.7z"/>
	<path class="st1" d="M197.8,336.1c0.2,2.4,0.5,3.9,2.9,4.8c2.4,0.9,5.5,0.6,8,0.7c3.1,0.1,6.6,0.3,9.4-1c3.8-1.7,2.3-8.1,2.3-11.7
		c0-7.4,0.1-14.7,0.1-22.1c0-7.5,0.1-14.9,0.1-22.4c0-3.2,1.6-11-2-12.4c-2.6-1-6.5-0.6-9.3-0.8c-2.5-0.2-6.2-0.5-8.7,0.2
		c-4,1.1-2.4,6.8-2.4,10.1c-0.1,14.1-0.8,28.1-0.6,42.2C197.2,327.8,197.5,332,197.8,336.1z M201,275.8c0.6-2.4,4.8-1.8,7.1-1.7
		c1.9,0.1,6.7,0,8.3,0.7c1.8,0.8,1.3,2.4,1.3,4.5c0,5.1-0.1,10.2-0.1,15.4c-0.1,11.9-0.1,23.8-0.2,35.7c0,1.6,0.7,5.2,0,6.7
		c-1.1,2.4-6.6,1.6-8.7,1.5c-1.2,0-2.7,0.1-4,0c0.5-0.4,0.9-0.8,1.3-1.3c1-1.1-0.6-2.7-1.6-1.6c-0.7,0.8-1.5,1.5-2.4,2.2
		c-0.2-0.1-0.4-0.3-0.6-0.5c1.1-1.2,2.2-2.3,3.3-3.4c1.1-1-0.5-2.6-1.6-1.6c-0.9,0.8-1.7,1.7-2.6,2.6c-0.1-0.7-0.2-1.4-0.2-2.1
		c1.3-1.1,2.6-2.2,3.9-3.2c1.1-0.9-0.5-2.5-1.6-1.6c-0.8,0.7-1.6,1.3-2.5,2c0-0.5,0-0.9,0-1.4c2-1.5,4-3,5.9-4.6
		c1.1-0.9-0.5-2.5-1.6-1.6c-1.4,1.1-2.8,2.2-4.2,3.3c0-0.7,0.1-1.4,0.1-2.1c0-0.4,0-0.7,0-1.1c1.5-1.4,3.1-2.6,4.8-3.8
		c1.2-0.8,0.1-2.8-1.1-1.9c-1.3,0.9-2.5,1.8-3.7,2.8c0-0.8,0-1.6,0-2.4c1.4-1,2.7-2.1,4.1-3.2c1.1-0.9-0.5-2.5-1.6-1.6
		c-0.8,0.7-1.6,1.3-2.5,1.9c0-0.9,0-1.8,0-2.7c1.5-1.4,3.1-2.7,4.7-3.9c1.2-0.8,0.1-2.8-1.1-1.9c-1.2,0.9-2.4,1.8-3.6,2.8
		c0-1.3,0.1-2.6,0.1-4c1.1-1,2.2-2,3.4-2.8c0.5-0.4,0.7-1,0.4-1.5c-0.3-0.5-1.1-0.8-1.5-0.4c-0.7,0.5-1.5,1.1-2.2,1.7
		c0-0.6,0-1.2,0-1.9c1.7-1.3,3.5-2.5,5.3-3.5c1.3-0.7,0.1-2.7-1.1-1.9c-1.4,0.8-2.8,1.7-4.1,2.7c0-0.9,0-1.8,0.1-2.7
		c0-0.1,0-0.2,0-0.3c1.3-1.1,2.6-2.3,3.8-3.4c1.1-1-0.5-2.6-1.6-1.6c-0.7,0.7-1.5,1.3-2.2,2c0-1.1,0-2.3,0.1-3.4c1-1,2.1-2,3.2-2.9
		c0.5-0.4,0.4-1.2,0-1.6c-0.5-0.5-1.1-0.4-1.6,0c-0.6,0.4-1.1,0.9-1.6,1.4c0-1,0-2,0-2.9c1.5-1.1,2.9-2.2,4.3-3.5
		c1.1-1-0.5-2.6-1.6-1.6c-0.9,0.8-1.8,1.5-2.7,2.3C201,277.7,200.8,276.6,201,275.8z"/>
	<path class="st1" d="M222.2,345.3c-14.8,0.6-29.6,0.6-44.4,0.3c-14-0.3-28.1-1.3-42.1-1c-1.4,0-4.7,0.6-5.8-0.1
		c-1.3-0.8-1.2-4.1-1.3-5.3c-0.2-3.1-0.3-6.3-0.3-9.4c-0.2-6.2-0.1-12.5-0.1-18.7c0.1-12.7,0.4-25.4,0.1-38.1c0-1.9-3-1.9-3,0
		c0.3,14-0.1,27.9-0.2,41.9c0,6.6,0,13.3,0.3,19.9c0.2,4-1.2,11.1,3.7,12.6c2.5,0.8,5.6,0.2,8.2,0.1c3.6-0.1,7.2,0,10.9,0.1
		c8,0.3,15.9,0.6,23.9,0.8c16.7,0.4,33.4,0.4,50.1-0.2C224.1,348.2,224.1,345.2,222.2,345.3z"/>
</g>
<g>
	<path class="st0" d="M372.7-2.2c-17.4,6.4-33.7,15.3-50.6,23.1c-18,8.3-35.5,17.4-53.3,26c-1.1,0.5-0.9,2.6,0.4,2.7
		c11.7,1.6,23.1,4.2,34.6,6.8c0.2,11.7-0.1,23.4,0.1,35.1c0,1.6,2,1.9,2.8,0.8c6.1-8.7,12.2-17.4,18.7-25.8
		c9.1,5.5,18.2,10.9,26.8,17c0.8,0.5,2,0,2.2-0.9c2.7-14,5.5-27.7,9.4-41.4c4-13.8,7.7-27.6,10.8-41.6
		C374.7-1.4,373.8-2.6,372.7-2.2z M314,56.9c-0.4,0.3-0.7,0.7-0.7,1.2c-0.6,1.1-1,2.3-1.5,4.1c-1.8,7.1-3,14.4-5,21.4
		c0-9.4,0.2-18.8,0-28.2c17.8-15.7,36.2-30.9,54.8-45.7c-11.1,11-22.2,21.9-33.3,32.9c-3.4,3.4-6.9,6.7-10.3,10.1
		C316.1,54.4,314.9,55.6,314,56.9z M365.2,3.9c-20.4,16-40.5,32.6-60,49.7c-10.2-2.4-20.4-4.7-30.8-6.3
		c15.8-7.7,31.5-15.8,47.5-23.2C336.4,17.5,350.5,10.1,365.2,3.9z M309.1,83.6c1.7-6.3,2.9-12.7,4.4-19c0.4-1.6,0.7-3.1,1.3-4.5
		c2.6,1.6,5.3,3.3,8,4.9C318.1,71,313.5,77.3,309.1,83.6z M360.9,40.4c-3.7,13-6.5,26-9,39.2c-11.5-8-23.7-14.9-35.5-22.2
		c0.1-0.1,0.2-0.2,0.3-0.3c1.4-1.6,3.1-3.1,4.7-4.6c3.5-3.4,6.9-6.8,10.4-10.2c12.9-12.7,25.9-25.5,38.8-38.2
		C367.6,16.3,364.3,28.4,360.9,40.4z"/>
	<path class="st0" d="M295,46.6c3.6-2,7.2-4,10.8-6c1.3-0.7,0.1-2.6-1.1-1.9c-3.6,2-7.2,4-10.8,6C292.6,45.3,293.7,47.3,295,46.6z"
		/>
	<path class="st0" d="M305.2,43.5c-1.7,0.9-3.4,1.8-5.1,2.6c-1.3,0.7-0.1,2.6,1.1,1.9c1.7-0.9,3.4-1.8,5.1-2.6
		C307.6,44.8,306.5,42.8,305.2,43.5z"/>
</g>
<g>
	<path class="st0" d="M372.8-73.1c-0.1-0.1-0.1-0.2-0.2-0.3c-2.4-2.5-5.4-5.2-8.4-7c-0.5-0.3-1-0.2-1.5,0c-0.3,0.2-0.7,0.4-1,0.6
		c-1.3-1.3-2.5-2.9-4.4-2.5c-0.4,0.1-0.9,0.3-1.3,0.6c-2.9-4.2-4.1-8.6-5.6-13.4c-1.4-4.4-3.9-8.1-7-11.4c-2.3-2.4-5.3-6.5-8.9-7
		c-2.4-0.3-4.5,0.9-5.7,2.8c-3.5-2.1-7.8-1.1-9.4,2.6c-3.1-1.3-6.6-0.2-8.4,2.7c-6.2-6-11.4-13.4-18.3-18.5
		c-4.9-3.6-12.5-0.3-9.5,6.2c2,4.4,6.7,7.7,10,11.1c2.4,2.4,4.7,4.8,7,7.3c1.8,1.9,3.6,3.8,5.5,5.7c-2.9,8.2,0.1,16.2,8.4,19.8
		c4.2,1.8,8.7,2.5,13.2,3.3c4.1,0.8,7.2,3.5,10.2,6.4c-0.3,0.4-0.5,0.8-0.6,1.1c-0.5,1.9,1.5,3.8,2.9,5.2c-0.1,0.2-0.3,0.3-0.4,0.5
		c-0.5,0.6-0.6,1.5,0,2.1c2.8,2.9,5.5,5.9,8.3,8.8c0.5,0.5,1.2,0.5,1.8,0.2c3-1.4,5.4-4.5,7.7-6.9c2.8-2.9,5.5-5.8,8.4-8.5
		C367.7-63.6,375.4-69.2,372.8-73.1z M339.5-66.3c-4.1-3.9-7.8-6.4-13.5-7.4c-9.7-1.6-21.5-6-18-17.6c1.7,1.6,3.3,3.3,5,4.9
		c1.4,1.4,3.5-0.8,2.1-2.1c-6.5-6.4-12.8-13.1-19.2-19.6c-2.8-2.8-7.2-5.9-9.1-9.4c-1.2-2.2-1.5-4.4,1.5-4.6
		c1.9-0.1,2.4,0.4,3.8,1.6c1.1,1,2.1,2.1,3.2,3.1c5.2,5.2,9.9,10.8,15.4,15.7c0.8,0.7,2.2,0.5,2.5-0.7c0.7-3,2.8-3.8,6.2-2.4
		c1.1,0.9,2.4,0.3,2.6-1.1c0.7-3.2,2.9-3.6,6.5-1.4c0.8,0.8,2.2,0.4,2.5-0.7c1.7-6.6,9.1,2,10.7,3.8c2.5,2.7,4.6,5.8,5.8,9.3
		c1.9,5.4,3,10.3,6.4,15c-0.2,0.1-0.3,0.3-0.4,0.4c-2.2,1.8-4.3,3.6-6.3,5.6c-1.8,1.8-3.5,3.6-5.2,5.4
		C341.1-67.8,340.3-67,339.5-66.3z M340.2-62c0-0.6,1.4-1.7,2.1-2.5c2.2-2.4,4.5-4.8,6.8-7.1c2.5-2.4,5.1-4.7,7.9-6.9
		c1.5-1.1,1.4-0.7,2.4,0.5c-2.3,2.2-4.3,5-6.4,7c-3.8,3.7-7.6,7-11.1,10.9C341.2-60.8,340.2-61.9,340.2-62z M348.9-49.4
		c-2.2-2.3-4.3-4.6-6.5-6.9c4.9-5.7,10.7-10.4,15.8-15.9c1.1-1.1,2.1-2.3,3.2-3.4c0.6-0.6,2-1.7,1.9-1.7c1.3,0.1,6,5,7,6
		C370.8-70.8,353.8-53.2,348.9-49.4z"/>
	<path class="st0" d="M347.2-58.8c-0.1,0.1-0.1,0.1-0.2,0.2c-0.1,0.1-0.1,0.2-0.1,0.2c-0.9,1.6-0.8,3.6,0.9,4.7
		c1.6,1,3.7,0.4,4.7-1.1c1-1.5,0.7-3.7-0.7-4.9C350.3-61,348.3-60.1,347.2-58.8z M350.5-55.9c-0.4,0.5-1,0.7-1.5,0.4
		c-0.8-0.5-0.4-1.3,0-1.9c0.4-0.5,1.1-0.9,1.5-0.2C350.8-57.1,350.9-56.4,350.5-55.9z"/>
	<path class="st0" d="M302.8-120.8c1.4-12.6-15.5-16-23.1-8.7c-8.6,8.1-4.8,25.5,8.8,24.1c1.4-0.1,1.4-2.4,0-2.3
		c-11.7,1.2-14.4-13.5-7.2-20.3c6.4-5.9,20.5-3.5,19.3,7.1C300.4-119.3,302.7-119.3,302.8-120.8z"/>
	<path class="st0" d="M292.2-103.5c-5.7,2.3-12.8,0.1-17-4.3c-6.2-6.6-3.9-18.1,1.8-24.3c5.5-6,14.2-7.2,21.3-3.3
		c6.4,3.5,10.9,13,7,19.8c-0.7,1.3,1.2,2.4,1.9,1.1c4.3-7.3,0.5-17.1-6.1-21.8c-7.6-5.3-18.1-4.7-24.8,1.6
		c-6.8,6.4-9.7,18.1-4.3,26.4c4.1,6.4,13.7,9.8,20.8,6.9C294.1-101.8,293.6-104,292.2-103.5z"/>
	<path class="st0" d="M362.6-72.8c-0.7-1.2-2.7-0.1-1.9,1.1c0.6,1.1,1.2,2.1,1.9,3.2c0.7,1.2,2.7,0.1,1.9-1.1
		C363.8-70.6,363.2-71.7,362.6-72.8z"/>
	<path class="st0" d="M365.8-73.3c-0.2-0.6-1.1-0.7-1.5-0.4c-0.6,0.3-0.7,1-0.4,1.5c0.5,1,0.9,2.1,1.4,3.1c0.2,0.6,1.1,0.7,1.5,0.4
		c0.6-0.3,0.7-1,0.4-1.5C366.7-71.2,366.3-72.2,365.8-73.3z"/>
</g>
<g>
	<path class="st1" d="M291.9,213.4c2.3-2.4,4.6-4.7,6.7-7.3c1-1.2,1.4-2.3,0.9-3.7c0-0.2-0.1-0.5-0.3-0.6c-0.2-0.3-0.5-0.4-0.7-0.4
		c-3.8-1.4-7,3.4-9.4,5.8c-3,3.1-7,6.5-8.2,10.7c-0.1,0.4,0,0.8,0.3,1.1C285.1,222.8,289.7,215.8,291.9,213.4z M285.8,216.6
		c-0.6,0.6-2.4,2-2.5,1.7c-0.3-1.2,2.1-3.6,2.9-4.5c1-1.1,2-2.3,3-3.4c1.2-1.2,5.9-7.3,8.3-7c-0.1,1.9-5.8,7-6.8,8
		c-1.1,1.1-2.1,2.2-3.2,3.4C287,215.4,286.4,216,285.8,216.6z"/>
	<path class="st1" d="M296.9,211.9c-2.4,2.5-4.7,5-7,7.5c-1.8,1.9-2.9,3-2.5,5.6c0,0,0,0,0,0c0,0,0,0.1,0,0.1
		c0.1,0.4,0.3,0.6,0.5,0.7c3.2,2.8,8.8-4.6,10.6-6.5c1.9-2,9-7.9,7.2-11.3C303.4,204,298.2,210.5,296.9,211.9z M289.5,224.1
		c0.2-2.6,5-6.4,6.6-8.1c0.9-1,6-7,6.8-6.1C304.2,211.2,291.7,223.6,289.5,224.1z"/>
	<path class="st1" d="M361.4,208.2c-9.3-9.3-19.3-17.9-29.3-26.5c5.9-5.8,11.7-11.6,17.5-17.6c1.3-1.3,2.6-2.9,4-4.1
		c2-1.8,3.1-1.5,5.5-2c0.8-0.2,1.5-0.2,2.2-0.6c2.7-1.8,4.6-7.1,6-9.9c1.4-2.7,1.2-3.3-0.9-5.6c-2.2-2.3-3.2-4-6-2.5
		c-3.3,1.7-8.4,3.8-10.9,6.6c-0.7,0.8-0.6,1-1,1.9c0,0.7,0,1.3,0,2c-0.4,1.8-1.4,3.3-2.7,4.4c-1.1,1.3-2.5,2.5-3.7,3.7
		c-5.8,5.8-11.6,11.6-17.3,17.4c-4.7-4.1-9.3-8.3-13.7-12.6c4.2-6.2,4.9-14.2,0.2-20.4c-4.9-6.5-11.5-8.4-19.1-6.8
		c-1,0.2-1.4,1.4-0.9,2.2c1.5,2.5,2.8,4.9,4.2,7.4c0.5,0.8,0.9,1.8,1.4,2.6c0.4,0.5,0.5,1,0.5,1.2c-0.5,2.4-1.9,5.1-2.9,7.4
		c-1.4-0.1-2.9-0.1-4.3-0.2c-0.9,0-2.5-0.4-3.3-0.2c0,0-0.1,0-0.1,0c-2.3-3.5-4.3-7.2-6.4-10.8c-0.5-0.9-1.6-0.9-2.4-0.3
		c-6.3,5.6-6.4,15.9-1.3,22.3c5.9,7.4,14.6,8.2,22.9,5.8c4.5,4.6,9,9.2,13.5,13.9c-0.5,0.5-1,1-1.5,1.5c-1.8-1.7-3.6-3.3-5.5-4.9
		c-0.6-0.5-1.5-0.6-2.1,0c-1.3,1.2-2.8,2.7-3.6,4.3c-1.2,2.3-0.1,4.7-0.9,7.2c-0.3,0.9-6,1-7.3,1.6c-2.2,1-4.2,3.1-5.9,4.7
		c-2.5,2.3-4.8,4.8-6.9,7.4c-1.6,1.9-4.3,4.5-5.4,6.7c-1.6,3.3,2,6.2,4.1,8.5c2.8,3.2,6.8,8,10.6,9.9c4.1,2,7-2.8,9.6-5.4
		c3.9-3.9,8.1-7.8,11.4-12.3c1-1.4,1.6-2.4,1.8-4.1c0.3-3.2-1.1-4.5,3.1-5.1c3.7-0.5,5.9-2,8.5-4.9c0.6-0.6,0.6-1.5,0-2.1
		c-1.5-1.6-3.1-3.2-4.6-4.8c0.5-0.4,0.9-0.9,1.4-1.3c5.6,5.8,11.3,11.6,16.9,17.4c3,3.1,6.1,6.3,9.2,9.4c3.1,3.1,6.1,7,10.2,8.7
		c5.8,2.4,11.5-0.9,13.1-6.8C370.8,216.6,365.1,211.9,361.4,208.2z M340.6,162.7c3-3,8.7-6.8,10.1-10.9c0.3-1.1-0.1-3.3,0.1-3.8
		c0.6-1.1,3.4-2.3,4.4-2.9c1.6-1,3.2-1.9,4.8-2.8c2.1-1.2,2.1-1.6,3.9,0.2c1.4,1.4,2.2,1.8,1.8,3.6c-0.4,1.5-1.8,3.3-2.6,4.7
		c-0.7,1.3-1.5,3.3-2.7,4.3c-1.3,1.1-3,0.9-4.5,1.2c-4.4,0.9-7.5,6-10.5,9c-4.9,5-9.9,10-14.9,14.9c-1.3-1.1-2.6-2.3-3.9-3.4
		C331.2,172.1,335.9,167.4,340.6,162.7z M286.7,156.1C286,156.3,286.3,156,286.7,156.1L286.7,156.1z M318.3,202.5
		c-2.4,1.7-3.9,0.9-6.6,1.4c-2.6,0.4-3.4,1.8-3.4,4.3c0,2.1,0.5,3.7-0.6,5.7c-1.1,2-3.1,3.7-4.6,5.4c-1.9,2-3.8,3.9-5.7,5.9
		c-1.2,1.2-2.5,2.5-3.7,3.7c-1.4,1.4-1.4,1.8-3.4,1.6c-3.4-0.5-7.4-5.5-9.7-8.1c-1.4-1.6-3.9-3.6-3.4-5.9c0.4-2.1,4.5-5.7,5.9-7.4
		c3.3-3.7,7.8-9.6,13-10.1c2.6-0.2,5.3-0.1,6.3-3.1c0.7-2.1,0-3.9,0.5-5.9c0.3-1.2,1.3-2.3,2.3-3.3c5.2,4.5,10.1,9.4,14.8,14.4
		C319.4,201.5,318.9,202.1,318.3,202.5z M316.8,193.5c-1.2-1.2-2.4-2.3-3.5-3.5c0.5-0.5,1-1,1.4-1.4c1.2,1.2,2.3,2.4,3.5,3.6
		C317.8,192.6,317.3,193,316.8,193.5z M365.7,220.9c-0.4,4-2.9,7.1-7.5,6c-3.3-0.8-5.9-3.9-8.2-6.3c-12.2-12.3-24.2-24.8-36.3-37.3
		c-4.2-4.3-8.4-8.7-12.6-13c0,0,0,0,0,0c-0.3-0.4-0.8-0.5-1.4-0.4c-6.8,2.2-13.2,2.5-19-2.7c-5.2-4.7-6.3-13.2-1.9-18.7
		c1,1.7,2.1,3.5,3.1,5.2c0.8,1.3,1.7,4,3,4.8c2.4,1.6,7.8,0.8,10.7,0.9c0.7,0,1.2-0.5,1.4-1.1c1-2.6,3.7-7,3.6-9.8
		c-0.1-1.3-1.4-2.8-2-3.9c-1.2-2.2-2.4-4.3-3.7-6.5c5.2-0.6,9.7,0.9,13.4,5.3c4.8,5.6,3.8,13.1-0.5,18.8c-0.4,0.5-0.2,1.4,0.2,1.8
		c12.9,12.6,26.6,24.2,40.1,36.1c5.4,4.8,11,9.5,15.6,15.1C365.6,217.4,366,217.8,365.7,220.9z"/>
	<path class="st1" d="M360.8,215.4c-2-1.5-4.5-0.4-6,1.3c-0.1,0.1-0.2,0.2-0.2,0.3c-0.1,0.2-0.2,0.3-0.2,0.5c-0.8,2-0.3,4.5,1.7,5.7
		c2.2,1.3,4.9,0.3,6.4-1.6C364.1,219.4,362.7,216.9,360.8,215.4z M360.3,220.7c-0.8,0.7-2,1.2-3,0.7c-1.2-0.6-1.4-2.1-0.8-3.2
		c0.8-1.1,2.1-1.7,3.2-0.8C360.7,218.3,361.5,219.5,360.3,220.7z"/>
</g>
<g>
	<path class="st0" d="M357.2,318.7c2.7-5.4,0.9-12.7-4.5-16.1c-5.2-3.3-10.9-2.1-14.9,1.6c-0.8-16.7-22.5-25.4-37.4-20.5
		c-16.9,5.6-21.3,24.2-13.4,38.3c-8.5-2.1-17.2,4.5-15.8,14.6c1.8,13.1,15.4,13.8,26,13.5c1.9-0.1,1.9-3.1,0-3
		c-7.1,0.2-16.4,1-21-5.6c-2.4-3.4-3-8.5-1.1-12.2c3-5.6,10.5-6.2,15.2-2.5c1.5,1.2,3.4-0.6,2.1-2.1c-10.6-12.6-7.9-32.6,8.7-38.1
		c14.1-4.7,37.2,4.3,33.2,22.5c-0.3,1.6,2,2.8,2.7,1.2c2.3-4.7,6.9-8.1,12.3-5.9c6.1,2.5,8.2,11,3,15.6c-1.1,1,0.1,3.1,1.5,2.5
		c12.3-4.8,19.9,13.6,9.7,20.7c-5.2,3.6-12.5,4.2-18.6,4.1c-1.9,0-1.9,3,0,3c9.4,0.2,22.6-1.7,25.9-12.1
		C373.8,328.9,366.5,318.3,357.2,318.7z"/>
	<path class="st0" d="M311.6,331c-0.4-0.4-1.2-0.4-1.6,0c-2.9,3.5-5.8,6.8-8.6,10.4c-0.5,0.7,0.2,1.7,1,1.7c0.9,0,1.9,0,2.8,0
		c0.1,5.8-0.1,11.6,0,17.4c0,0.4,0.2,0.7,0.5,0.9c0.2,0.1,0.4,0.2,0.6,0.2c3.1,0.1,6.2,0.2,9.3,0c0.6,0,1.1-0.5,1.1-1.1
		c-0.1-5.8,0-11.6,0-17.4c0.8,0,1.6,0,2.4,0c0.8,0,1.5-1,1-1.7C317.4,337.9,314.4,334.4,311.6,331z M307.4,359.4
		c-0.1-5.8,0.1-11.6,0-17.4c0-0.6-0.5-1.1-1.1-1.1c-0.5,0-1.1,0-1.6,0c2-2.5,4-4.9,6.1-7.4c2,2.4,4.1,4.9,6.1,7.4
		c-0.4,0-0.8,0-1.3,0c-0.6,0-1.1,0.5-1.1,1.1c0,5.8-0.1,11.6,0,17.5C312.1,359.6,309.8,359.5,307.4,359.4z"/>
	<path class="st0" d="M340.3,354.6c-0.8,0-1.6,0-2.4,0c0-5.8-0.1-11.6,0-17.4c0-0.6-0.5-1.1-1.1-1.1c-3.1-0.2-6.2-0.1-9.3,0
		c-0.2,0-0.4,0.1-0.6,0.2c-0.3,0.2-0.5,0.5-0.5,0.9c-0.1,5.8,0.1,11.6,0,17.4c-0.9,0-1.9,0-2.8,0c-0.8,0-1.5,1-1,1.7
		c2.7,3.6,5.7,6.9,8.6,10.4c0.4,0.4,1.2,0.4,1.6,0c2.9-3.3,5.5-6.9,8.4-10.2C341.7,355.8,341.3,354.6,340.3,354.6z M325.8,356.8
		c0.5,0,1.1,0,1.6,0c0.6,0,1.1-0.5,1.1-1.1c0.1-5.8-0.1-11.6,0-17.4c2.3-0.1,4.7-0.1,7,0c-0.1,5.8,0,11.6,0,17.5
		c0,0.6,0.5,1.1,1.1,1.1c0.4,0,0.8,0,1.2,0c-2,2.4-4,4.9-6,7.4C329.9,361.7,327.8,359.3,325.8,356.8z"/>
	<path class="st0" d="M305.1,293.6c1.4-0.2,1.4-2.4,0-2.3c-8.2,0.9-15.1,10-13.2,18.1c0.3,1.4,2.5,0.8,2.2-0.6
		C292.6,302.3,298.4,294.3,305.1,293.6z"/>
	<path class="st0" d="M305.3,296c-2.2,0.4-4.1,1.4-5.8,2.8c-1.1,1,0.5,2.6,1.6,1.6c1.4-1.2,3-2,4.8-2.3
		C307.3,298,306.7,295.8,305.3,296z"/>
</g>
<g>
	<g>
		<path class="st0" d="M-44.7,446.9c-6.1-4.7-15.9-2.7-21.9,1c-1.9,1.2-0.1,4.2,1.8,3c0.9-0.6,1.8-1,2.6-1.4
			c0.8,16.9,1.5,33.8,2.2,50.7c-1.5-0.2-3-0.5-4.4-1c-2.1-0.8-3,2.6-0.9,3.4c6.4,2.3,18.4,2.7,24.3-1.3c8.6-5.7,7.5-19.2,6.4-27.9
			C-35.6,465.7-38,452.1-44.7,446.9z M-50.7,500.3c-1.9,0.2-3.8,0.3-5.8,0.2c-0.8-17.4-1.5-34.8-2.3-52.3
			c14.8-3.7,20.6,18.3,21.3,31C-37,488.9-39.2,499.2-50.7,500.3z"/>
		<path class="st0" d="M-20.8,481.3c-5.5,0.5-10.4,4.7-10.4,10.5c0,6.7,6.3,12.1,12.8,12c6-0.2,11.2-5.2,10.6-11.4
			C-8.6,486.2-14.7,481.2-20.8,481.3z M-18.1,500.3c-10.1,0.9-13.6-14.5-2.7-15.5C-11.4,484.6-7.2,499.3-18.1,500.3z"/>
		<path class="st0" d="M5.2,481.9c-5.5,0.5-10.4,4.7-10.4,10.5c0,6.7,6.3,12.1,12.8,12c6-0.2,11.2-5.2,10.6-11.4
			C17.5,486.8,11.4,481.8,5.2,481.9z M7.9,500.9c-10.1,0.9-13.6-14.5-2.7-15.5C14.6,485.2,18.8,499.9,7.9,500.9z"/>
		<path class="st0" d="M143.4,480.9c-5.7,0.5-10.7,4.9-10.8,10.9c-0.1,6.9,6.5,12.5,13.2,12.4c6.2-0.2,11.5-5.4,10.9-11.7
			C156.1,486,149.8,480.8,143.4,480.9z M146.3,500.6c-10.6,0.9-14.2-15.2-2.8-16.2c4.1-0.1,8.3,2.8,9.6,6.8
			C154.4,495.9,151,500.2,146.3,500.6z"/>
		<path class="st0" d="M41.2,440.4c0.1-2.2-3.4-2.2-3.5,0c-0.8,13.6-1.2,27.3-0.1,40.9c-6.8-1.7-14.8,0.2-16.8,7.8
			c-1.6,6.2,0.9,14.2,8,14.9c4.9,0.5,11.4-3.1,13-7.9c2.2-6.5-1.1-17.1-1.3-24C40.2,461.5,40.5,450.9,41.2,440.4z M33.7,499.4
			c-13,5.9-12.8-21,4.1-14.5c0,0.2,0,0.4,0,0.5C38.4,491.1,39.8,496.7,33.7,499.4z"/>
		<path class="st0" d="M47,440.1c0.1,25.1,0.8,40.4,1.2,62.1c0,2.2,3.5,2,3.5-0.3c-0.3-21.7-1.1-36.7-1.2-61.8c0,0-0.1-1.3-1.9-1.4
			C47,438.6,47,440.1,47,440.1z"/>
		<path class="st0" d="M74.9,497.6c-2,3.9-8.2,3.9-11.3,1.4c-1.8-1.4-3.1-3.8-3.7-6.3c4.9,1,12.3,2.1,13.3-3.4
			c1.4-7.4-7.9-10.3-13.2-6.9c-6.2,4.1-4.3,14.1,0.4,18.6c4.6,4.4,14.2,4.6,17.4-1.6C78.9,497.4,75.9,495.6,74.9,497.6z M66.8,484.6
			c3.7,1.2,3.6,5.3-0.3,5.4c-2.2,0-4.5-0.4-6.7-0.8c0.1-0.3,0-0.7,0.1-1C60.8,485.4,64.1,483.7,66.8,484.6z"/>
		<path class="st0" d="M101.1,482.3c0.3,6.6,0.2,13.3,0.5,19.9c0.1,2.2,3.6,2.2,3.5,0c-0.3-6.6-0.2-13.3-0.5-19.9
			C104.4,480.1,100.9,480,101.1,482.3z"/>
		<path class="st0" d="M103.7,469.1c-0.1,0-0.2,0-0.3,0c-0.1,0-0.1-0.1-0.2-0.1c-5.6-0.6-8,7.7-2.2,9.3
			C107.3,479.9,110.4,471,103.7,469.1z M101.1,474.4c-0.6-1.2,0.8-1.8,1.8-1.9C105.6,473.5,102.1,476.3,101.1,474.4z"/>
		<path class="st0" d="M127,496.7c-2.7,5.1-10.5,6.5-12.2-0.1c-0.5-2.1-0.6-4.7,0-6.8c1-3.3,6.2-6.8,8.9-2.9c1,1.5,3,0.8,3.2-0.9
			c0.1-1.2,0.3-2.5,0.4-3.7c0.3-2.2-3.2-2.2-3.5,0c0,0.2,0,0.3-0.1,0.5c-2.5-1.3-5.6-1.2-8.2,0.4c-4.3,2.7-5.2,8-4.6,12.7
			c1.5,10.4,14.2,11.7,18.9,2.7C131.1,496.5,128.1,494.7,127,496.7z"/>
		<path class="st0" d="M176.7,487.1c-0.4-3.1-2-6-5.5-5.9c-3.2,0.1-5.2,1.7-6.5,3.9c0-1-0.1-1.9-0.1-2.9c0-2.2-3.5-2.2-3.5,0
			c0.1,6.9,0.4,13.8,1.8,20.6c0.4,1.9,3.6,1.5,3.4-0.5c-0.2-2.9-0.5-5.8-0.4-8.6c0.1-1.5,0.1-3,0.6-4.5c0.6-1.7,3.9-7.1,6.5-3
			c1.1,1.6,0.4,6,0.6,7.9c0.2,2.9,0.6,5.9,0.9,8.8c0.3,2.2,3.7,2.2,3.5,0C177.3,497.7,177.3,492.3,176.7,487.1z"/>
	</g>
	<path class="st2" d="M49.6,515.8h-10c-1.4,0-2.5,1.1-2.5,2.5c0,1.4,1.1,2.5,2.5,2.5h10c1.4,0,2.5-1.1,2.5-2.5
		C52,516.9,50.9,515.8,49.6,515.8z"/>
	<path class="st2" d="M-14.6,515.8h-10c-1.4,0-2.5,1.1-2.5,2.5c0,1.4,1.1,2.5,2.5,2.5h10c1.4,0,2.5-1.1,2.5-2.5
		C-12.2,516.9-13.3,515.8-14.6,515.8z"/>
	<path class="st2" d="M28.2,515.8h-10c-1.4,0-2.5,1.1-2.5,2.5c0,1.4,1.1,2.5,2.5,2.5h10c1.4,0,2.5-1.1,2.5-2.5
		C30.6,516.9,29.5,515.8,28.2,515.8z"/>
	<path class="st2" d="M6.8,515.8h-10c-1.4,0-2.5,1.1-2.5,2.5c0,1.4,1.1,2.5,2.5,2.5h10c1.4,0,2.5-1.1,2.5-2.5
		C9.2,516.9,8.1,515.8,6.8,515.8z"/>
	<path class="st2" d="M-36,515.8h-10c-1.4,0-2.5,1.1-2.5,2.5c0,1.4,1.1,2.5,2.5,2.5h10c1.4,0,2.5-1.1,2.5-2.5
		C-33.6,516.9-34.7,515.8-36,515.8z"/>
	<path class="st2" d="M-57.4,515.8h-10c-1.4,0-2.5,1.1-2.5,2.5c0,1.4,1.1,2.5,2.5,2.5h10c1.4,0,2.5-1.1,2.5-2.5
		C-54.9,516.9-56.1,515.8-57.4,515.8z"/>
	<path class="st2" d="M113.8,515.8h-10c-1.4,0-2.5,1.1-2.5,2.5c0,1.4,1.1,2.5,2.5,2.5h10c1.4,0,2.5-1.1,2.5-2.5
		C116.2,516.9,115.1,515.8,113.8,515.8z"/>
	<path class="st2" d="M70.9,515.8H61c-1.4,0-2.5,1.1-2.5,2.5c0,1.4,1.1,2.5,2.5,2.5h10c1.4,0,2.5-1.1,2.5-2.5
		C73.4,516.9,72.3,515.8,70.9,515.8z"/>
	<path class="st2" d="M156.5,515.8h-10c-1.4,0-2.5,1.1-2.5,2.5c0,1.4,1.1,2.5,2.5,2.5h10c1.4,0,2.5-1.1,2.5-2.5
		C159,516.9,157.9,515.8,156.5,515.8z"/>
	<path class="st2" d="M135.1,515.8h-10c-1.4,0-2.5,1.1-2.5,2.5c0,1.4,1.1,2.5,2.5,2.5h10c1.4,0,2.5-1.1,2.5-2.5
		C137.6,516.9,136.5,515.8,135.1,515.8z"/>
	<path class="st2" d="M177.9,515.8h-10c-1.4,0-2.5,1.1-2.5,2.5c0,1.4,1.1,2.5,2.5,2.5h10c1.4,0,2.5-1.1,2.5-2.5
		C180.4,516.9,179.3,515.8,177.9,515.8z"/>
	<path class="st2" d="M92.4,515.8h-10c-1.4,0-2.5,1.1-2.5,2.5c0,1.4,1.1,2.5,2.5,2.5h10c1.4,0,2.5-1.1,2.5-2.5
		C94.8,516.9,93.7,515.8,92.4,515.8z"/>
	<g>
		<path class="st2" d="M186.9,479.6c1.2-1.8,2.4-3.6,3.9-5.2c1.8-2.1-1.2-5.2-3.1-3.1c-1.7,1.9-3.2,4-4.5,6.1
			C181.7,479.8,185.5,482,186.9,479.6L186.9,479.6z"/>
	</g>
	<g>
		<path class="st2" d="M194.1,480.4c1.5-2.1,3.2-3.9,5.1-5.6c2.1-1.8-0.9-4.9-3.1-3.1c-2.3,1.9-4.1,4-5.8,6.4
			C188.8,480.5,192.6,482.7,194.1,480.4L194.1,480.4z"/>
	</g>
</g>
</svg>
