<?xml version="1.0" encoding="utf-8"?>
<!-- Generator: Adobe Illustrator 22.1.0, SVG Export Plug-In . SVG Version: 6.00 Build 0)  -->
<svg version="1.1" id="Layer_1" xmlns="http://www.w3.org/2000/svg" xmlns:xlink="http://www.w3.org/1999/xlink" x="0px" y="0px"
	 viewBox="0 0 107.4 112.5" style="enable-background:new 0 0 107.4 112.5;" xml:space="preserve">
<style type="text/css">
	.st0{fill:#4D4D4D;}
	.st1{fill:#FFFFFF;}
	.st2{fill:#95BAA8;}
</style>
<g>
	<path class="st0" d="M-213.5-242.8c-9.5,0.8-17.1,8.6-16.7,18.3c0.5,10,8.9,17.5,18.7,17.6C-186.9-206.5-189.5-245.6-213.5-242.8z
		 M-211.5-209.8c-8.2,0-15.2-6.4-15.7-14.6c-0.5-8,5.8-14.7,13.7-15.3C-193.4-242.2-190.8-209.8-211.5-209.8z"/>
	<path class="st0" d="M-160.3-223.9c-0.1-2.5,0.8-7.6-1.5-9.5c-2.2-1.8-7.3-1.4-10.6-1.5c-0.8-2.5-1.3-5.2-2.3-7.6
		c-0.4-1-2-2.9-1.7-3.8c0.4-1.3,4.8-3.3,5.8-4.8c0.8-1.2,1.3-2.3,0.9-3.7c-0.6-2.4-3.5-4.2-5.2-5.8c-1.7-1.6-3.8-4.5-6-5.4
		c-3.5-1.4-7,3.4-9.4,6.1c-2.8-1.7-5.7-2.6-8.7-4c-2.1-1-2.5-1-3-3.2c-0.4-1.7,0.3-3.7-0.1-5.5c-1.2-5.3-6.8-3.7-11-3.4
		c-4.3,0.3-9.1-0.5-9.3,4.9c-0.1,1.7,0.8,3.9,0.2,5.6c-0.5,1.4-0.9,1.1-2.8,1.8c-3,1.1-5.7,2.4-8.4,4.1c-2.1-2.5-4.4-6-7.9-5.9
		c-3.7,0.2-7.3,4.9-9.6,7.3c-4.8,4.9,0.2,8.3,3.9,12.1c-2.6,3.5-4.4,7.3-5.5,11.6c-3.3-0.6-7.9-1.1-10.2,1.2
		c-2.4,2.4-1.3,8.5-1,11.4c0.2,2.5,0.1,5.8,2.5,7.2c2.4,1.4,6.4,0.7,9.3,0.3c0.7,2.6,1.5,5.2,2.6,7.7c0.3,0.6,1.4,2.2,1.3,2.7
		c0,0.2-0.7,0.6-0.9,1.1c-1.4,2.4-6.3,4.7-5.1,8.3c1.1,3.4,8.2,9.4,11.6,10.8c3.8,1.4,6.9-2.6,9.4-5.2c3.5,2.5,7.3,4.1,11.7,4.7
		c-0.2,3.3-1.5,7.9,0.6,10.3c1.5,1.8,5.1,1.4,7.1,1.4c2.6,0.1,6,0.4,8.5-0.6c1.8-0.7,2.7-1.8,3.1-3.6c0.4-2-1.3-5.5-0.5-7.1
		c0.7-1.3,5.1-2.1,6.7-3c2.7-1.4,4.9-4.1,7.7-1.5c3,2.6,4.3,7.2,8.5,4.7c3.1-1.9,6.6-5.5,8.4-8.6c2.1-3.5,0.6-4.8-2.2-7.3
		c-2.8-2.5-3.8-2.3-2.2-6.1c1.3-3.1,2.3-6.2,3.3-9.4c3.2,0.2,7.9,0.9,10.4-0.7C-159.3-217.2-160.2-221.4-160.3-223.9z M-165.2-217.9
		c-2.2,0.7-5.8,0-8.1,0.1c-0.5,0-0.9,0.2-1.1,0.5c-0.1,0.2-0.3,0.3-0.3,0.6c-1.3,4.2-3.3,8.1-4.8,12.2c-0.7,1.8-0.4,2.8,0.7,4.3
		c1.3,1.7,4.5,2.8,5.2,4.7c0.8,2-3.2,5.6-4.5,6.8c-0.7,0.7-1.9,2.1-2.8,2.4c-1.8,0.5-2.5-0.8-3.8-2.3c-1.3-1.5-2.7-4-4.9-4.2
		c-1.6-0.2-3.3,1.1-4.6,1.8c-3.4,1.9-6.3,3.4-10.2,4.1c-0.5,0.1-1,0.6-1,1c-0.3,1.9,0.2,3.7,0.2,5.6c0,5.1-4.4,5.1-8.5,5
		c-3.6-0.1-5-0.1-4.9-3.9c0.1-2,0.3-4.1,0.2-6.2c-0.1-0.9-0.6-1.4-1.5-1.5c-4.6-0.4-8.6-2.1-12.3-4.9c-0.2-0.1-0.4-0.2-0.6-0.3
		c-0.5-0.2-1-0.1-1.5,0.3c-1.3,1.2-3.8,4.5-5.5,5c-2.9,0.9-5.6-2.5-7.4-4.3c-1.5-1.4-4.1-3.1-3.4-5.5c0.5-1.6,2.9-3.2,4.1-4.3
		c1.3-1.3,1.8-1.6,1.4-3.4c-0.5-2-1.9-4-2.6-5.9c-0.7-2-1.3-4-1.7-6c-0.1-0.6-0.8-1.2-1.4-1.1c-1.6,0.2-3.1,0.4-4.7,0.4
		c-2.8,0.1-4.4,0.4-5-2.7c-0.4-2.3-0.7-5.2-0.4-7.4c0.2-1.3,0.3-3.4,1.6-4.3c1.5-0.9,6.1,0,7.5,0.3c0.8,0.2,1.7-0.2,1.8-1
		c1.1-4.9,3.1-9.1,6.2-13.1c0.4-0.5,0.2-1.4-0.2-1.8c-2.2-2.5-7.1-5.3-4.7-8.8c0.9-1.3,3.6-4.2,5.1-4.8c4.5-2.1,6.2,1,8.7,3.9
		c0.3,0.8,1.2,1.3,2,0.7c3.3-2.3,6.8-3.6,10.4-5c0.8-0.3,1.9-0.6,2.5-1.3c0.9-0.9,0.9-2.5,1-3.7c0.1-1.3-0.6-2.8-0.3-4
		c0.6-2.5,3.2-2.4,5.4-2.6c1.4-0.1,3.1-0.3,4.6-0.4c1.8-0.1,2.7,0.1,3.7,0.7c1.3,0.7,0.7,2.1,0.8,3.8c0.2,1.8-0.7,3.6,0.3,5.4
		c0.8,1.3,1.7,1.5,3.1,2c3.7,1.3,7.1,2.4,10.4,4.6c0.1,0.1,0.2,0.1,0.4,0.2c0.5,0.3,1.1,0.3,1.7-0.3c1.6-1.6,3.5-4.4,5.4-5.4
		c2.5-1.2,3.8,1.3,5.8,3.2c2.1,1.9,5.7,4,3.7,7.2c-1,1.5-3.3,2.1-4.6,3.5c-1.2,1.3-1.3,2.1-0.7,3.7c0.6,1.6,1.6,2.9,2.2,4.6
		c0.8,2.3,1.4,4.8,2.2,7.1c0.2,0.7,0.8,1,1.4,1.1c2.3,0.2,5.2-0.1,7.5,0.6c3.6,1,2.6,4.4,2.7,7.5
		C-163.2-221.3-162.5-218.8-165.2-217.9z"/>
	<path class="st0" d="M-219-250.2c1.8-0.6,3.6-0.9,5.6-0.9c1.9,0,1.9-3,0-3c-2.2,0-4.3,0.3-6.4,1
		C-221.7-252.5-220.9-249.6-219-250.2z"/>
	<path class="st0" d="M-202.3-249.4c1.6,0.4,3,1.1,4.2,2.2c1.5,1.3,3.6-0.9,2.1-2.1c-1.6-1.4-3.5-2.4-5.6-3
		C-203.4-252.7-204.2-249.9-202.3-249.4z"/>
	<path class="st0" d="M-184.6-235.6c-0.7-1.9-1.6-3.6-2.8-5.2c-0.5-0.6-1.3-1-2.1-0.5c-0.6,0.4-1,1.4-0.5,2.1c1,1.4,1.9,2.8,2.5,4.5
		C-186.8-233-183.9-233.7-184.6-235.6z"/>
	<path class="st0" d="M-185.8-223.3c-0.2,1.8-0.5,3.5-0.9,5.2c-0.5,1.9,2.4,2.7,2.9,0.8c0.5-2,0.8-4,1-6
		C-182.6-225.2-185.6-225.2-185.8-223.3z"/>
	<path class="st0" d="M-189.8-208.6c-0.6-0.4-1.7-0.2-2.1,0.5c-0.7,1.5-1.8,2.7-3.2,3.5c-1.7,0.9-0.2,3.5,1.5,2.6
		c1.9-1,3.4-2.7,4.3-4.6C-188.9-207.3-189.1-208.2-189.8-208.6z"/>
	<path class="st0" d="M-205.4-199.4c-1.7,0.3-3.4,0.5-5.2,0.7c-1.9,0.2-1.9,3.2,0,3c2-0.2,4-0.4,6-0.8
		C-202.7-196.8-203.5-199.7-205.4-199.4z"/>
	<path class="st0" d="M-221.5-200.4c-1.8-0.5-3.4-1.3-4.9-2.4c-0.7-0.5-1.7-0.1-2.1,0.5c-0.5,0.8-0.1,1.6,0.5,2.1
		c1.7,1.2,3.6,2.1,5.6,2.7C-220.5-197-219.7-199.9-221.5-200.4z"/>
	<path class="st0" d="M-236.6-215.3c-0.5-1.9-3.4-1.1-2.9,0.8c0.6,2.2,1.6,4.1,3,5.8c0.5,0.6,1.6,0.5,2.1,0c0.6-0.6,0.5-1.5,0-2.1
		C-235.4-212.1-236.2-213.7-236.6-215.3z"/>
	<path class="st0" d="M-238-226.2c0-1.8,0.1-3.6,0.4-5.4c0.3-1.9-2.6-2.7-2.9-0.8c-0.3,2.1-0.5,4.1-0.5,6.2
		C-241-224.3-238-224.3-238-226.2z"/>
	<path class="st0" d="M-230.2-247.5c-1.8,1.1-3.4,2.5-4.8,4.2c-0.5,0.6-0.6,1.5,0,2.1c0.5,0.5,1.6,0.6,2.1,0
		c1.2-1.5,2.6-2.7,4.2-3.7C-227-245.9-228.5-248.5-230.2-247.5z"/>
</g>
<g>
	<path class="st0" d="M-322-263.4c-5.7-10.9-18.3-17.9-30.7-14.7c-10.2,2.1-19.3,10.4-20.7,21c-1.4,10.7,4.1,21.8,13.5,27
		c2.9,1.6,6.1,2.7,9.4,3.2c0.2,3.5,0.4,7,1,10.5c-2.9,2.4-2.8,8.1-3.1,11.5c-0.7,7.5,0,15.1,0.2,22.6c0.2,3.4-0.1,8.8,3.1,11.1
		c2.5,1.8,8.8,2,11.4,0.4c3.7-2.3,3.9-8,3.9-11.8c-0.1-7.6-0.3-15.6-1.2-23.2c-0.4-3.9-0.3-8.9-4-11.1c-0.3-3.4-0.2-6.8-0.4-10.1
		c4.5-0.8,8.7-2.6,12.3-5.4C-317.2-240.2-316.3-252.6-322-263.4z M-338-203.9c0.6,7.5,1.4,15.6,1,23.2c-0.2,2.9-0.3,5.2-2.9,6.8
		c-1.8,1.1-3.8,1.2-5.8,0.7c-0.1,0-0.1,0-0.2-0.1c0.3-0.1,0.6-0.3,0.9-0.4c0.6-0.2,1-0.8,0.8-1.4c-0.2-0.5-0.8-1-1.4-0.8
		c-0.8,0.3-1.7,0.7-2.5,1.1c-0.3-0.4-0.5-0.8-0.7-1.3c1.4-1.1,2.9-2.2,4.5-3.2c1.2-0.8,0.1-2.7-1.1-1.9c-1.3,0.8-2.6,1.8-3.8,2.7
		c0-0.5-0.1-1.1-0.1-1.6c1.5-1,3-2.1,4.5-3.1c1.2-0.8,0.1-2.8-1.1-1.9c-1.2,0.8-2.3,1.6-3.5,2.4c0-0.5,0-1.1,0-1.6
		c1.4-1.3,2.8-2.5,4.4-3.6c1.2-0.8,0.1-2.8-1.1-1.9c-1.2,0.8-2.3,1.7-3.4,2.6c0-0.9-0.1-1.7-0.1-2.6c1.4-1.1,2.9-2.1,4.5-3
		c1.2-0.7,0.1-2.7-1.1-1.9c-1.2,0.7-2.3,1.5-3.5,2.3c0-0.5,0-1,0-1.5c1.4-1,2.9-2,4.3-3c1.2-0.8,0.1-2.8-1.1-1.9
		c-1.1,0.7-2.2,1.5-3.2,2.2c0-0.5,0-1,0-1.4c0.1-0.1,0.2-0.1,0.3-0.2c1.5-1.6,3.1-3,4.9-4.1c1.2-0.8,0.1-2.7-1.1-1.9
		c-1.4,0.9-2.8,2-4,3.1c0-0.6,0.1-1.2,0.1-1.8c1.6-1.4,3.4-2.5,5.4-3.4c1.3-0.6,0.2-2.6-1.1-1.9c-1.4,0.7-2.7,1.5-4,2.4
		c0-0.6,0.1-1.1,0.2-1.7c1.3-0.9,2.7-1.8,4.2-2.5c1.3-0.6,0.2-2.6-1.1-1.9c-0.9,0.4-1.7,0.9-2.5,1.3c0.6-2,1.8-3.7,4.4-4
		C-338.5-215.7-338.4-207.9-338-203.9z M-342.3-217.9c-1.4-0.2-3-0.1-4.4,0.2c-0.5-2.9-0.6-5.9-0.8-8.8c1.6,0.1,3.3,0.1,4.9-0.1
		C-342.4-223.7-342.5-220.8-342.3-217.9z M-343.2-229.5c-12.4,1-24.2-6.6-26.9-19.1c-2.7-12.6,5.8-24.1,18.2-26.6
		c13-3.4,25.1,5.7,29.2,17.7C-317.7-242.9-328.7-230.7-343.2-229.5z"/>
	<path class="st0" d="M-347.3-273.4c-11.2,0.8-22.6,11-20.7,22.9c1.8,11.4,13.7,18.6,24.6,18.4c12.1-0.2,20.2-8.5,18.5-20.8
		C-326.5-264.1-335.8-273.7-347.3-273.4z M-329.5-240.4c-3.2,4.5-8.8,6-14,6.1c-9.3,0.2-19.6-5.5-22.1-15
		c-2.8-11,7.8-21.1,18.2-21.8c9.4-0.3,17,6.7,19.5,15.6C-326.5-250.7-326.5-244.6-329.5-240.4z"/>
	<path class="st0" d="M-355.5-265.8c-5.1,2.6-8.3,7.7-8.8,13.4c0,1.7,0.3,4.2,2.2,4.7c1.5,0.4,2.8-0.8,3.2-2.2
		c0.4-1.3,0.3-2.6,0.6-3.9c0.5-1.8,1.6-3.4,2.8-4.8c1.5-1.7,3.9-2.5,5.2-4.2c0.7-1,0.8-2.6-0.1-3.5
		C-351.6-267.7-354.1-266.5-355.5-265.8z M-354.7-262.4c-1.8,1.4-3.4,3.2-4.5,5.2c-0.6,1.1-1.1,2.4-1.4,3.6
		c-0.1,0.4-0.1,0.8-0.2,1.2c-0.4,1.1-1.3,2.9-1.2-0.1c0.3-3.9,2.2-7.4,5.3-9.9c0.5-0.4,4.4-3,4.3-1.6
		C-352.4-263.7-354.4-262.6-354.7-262.4z"/>
	<path class="st0" d="M-346.5-268.7C-346.5-268.7-346.5-268.7-346.5-268.7c-0.1,0-0.2,0.1-0.3,0.1c-1.8,0.9-2.3,3.4-1,5
		c1.4,1.6,3.9,1.3,5-0.4c0.7-1,0.5-2.4-0.1-3.5C-343.5-268.9-345.1-269.3-346.5-268.7z M-344.7-265.1c-0.3,0.2-0.6,0.3-0.9,0.2
		c-0.8-0.3-0.7-1.4,0-1.8c0.4-0.1,0.7-0.2,0.9,0.1c0.2,0.3,0.3,0.7,0.3,1.1c0,0,0,0.1,0,0.1C-344.5-265.3-344.7-265.2-344.7-265.1z
		 M-344.4-265.5C-344.4-265.6-344.4-265.5-344.4-265.5L-344.4-265.5z"/>
</g>
<g>
	<path class="st0" d="M-46.3-244.9c-1.8-0.2-3.8,0.2-5.7,0.6c-1.9-4.7-4-9.4-6.3-13.9c-1.4-2.9-3.1-7.4-5.9-9.3
		c-3.9-2.6-8.2,1.7-10.6,4.4c-10.3,11.3-19.7,23.2-33.5,30.5c-0.1,0.1-0.2,0.1-0.3,0.2c-3.9,1.2-7.8,2.4-11.6,3.7
		c-2.5,0.8-5.9,1.4-7.9,3.2c-3.5,3.1-1.2,10,0.2,13.5c1.3,3.4,4.4,10.2,8.3,11.3c1.1,0.3,2.3,0.1,3.6-0.2c2.3,4.8,4.5,9.8,7.1,14.5
		c1.7,3,3.5,7,7.5,5.6c4.2-1.4,9.5-5.7,8.3-10.7c-0.7-2.5-3-4.4-4.4-6.4c-1.6-2.3-2.8-4.7-4-7.2c0.6-0.2,1.3-0.4,1.9-0.6
		c7.9-1.5,15.9-2.3,23.9-1.4c7.2,0.8,14.2,2.7,21.2,4.2c3.5,0.7,10.1,3.5,12.4-0.7c2.4-4.3-0.8-12.3-1.9-16.6
		c-0.8-2.9-1.6-5.8-2.5-8.6c1.9-1.3,4.3-2.5,5.3-4.7c1-2.3,0-4.8-1-7C-42.9-242.3-44.1-244.6-46.3-244.9z M-122-207
		c-1.2-1.6-2.1-3.3-2.9-5.2c-0.8-1.8-1.4-3.7-1.7-5.7c-0.8-4.2,1.6-6.1,5.2-7.3c4.4-1.5,8.8-2.9,13.2-4.2c2.2,7.1,4.6,14.1,7.1,21.1
		c-3.9,1.3-7.9,2.4-11.9,3.4C-116.6-203.9-119.4-203.5-122-207z M-98.4-195.3c0.4,0.5,1,1.2,1.4,1.7c2,3.1,2,5-0.6,7.8
		c-0.7,0.8-2,1.6-2.9,2c-0.9,0.4-1.5,0.6-2.1,0.7c0.4-0.7,0.8-1.5,1-2.3c0.5-1.4-1.7-2-2.2-0.6c-0.2,0.7-0.5,1.3-0.9,1.9
		c-0.1-0.1-0.2-0.2-0.3-0.3c-0.2-0.2-0.4-0.5-0.6-0.7c0,0,0-0.1,0.1-0.1c0.2-0.5,0.5-0.9,0.7-1.4c0.3-0.6,0.5-1.1,0.7-1.7
		c0.5-1.4-1.7-2-2.2-0.6c-0.2,0.6-0.5,1.1-0.8,1.7c-0.3-0.5-0.6-1.1-0.8-1.6c0,0,0,0,0,0c0.5-1.1,1-2.3,1.5-3.4
		c0.3-0.6,0.2-1.2-0.4-1.5c-0.5-0.3-1.3-0.2-1.5,0.4c-0.3,0.6-0.6,1.3-0.9,1.9c-0.2-0.4-0.4-0.9-0.6-1.3c-0.1-0.2-0.2-0.4-0.3-0.6
		c0.1-0.1,0.2-0.2,0.2-0.3c0.5-0.9,1-1.7,1.5-2.6c0.7-1.3-1.2-2.4-1.9-1.1c-0.3,0.5-0.6,1.1-0.9,1.6c-0.3-0.6-0.6-1.2-0.9-1.8
		c0.1-0.1,0.2-0.1,0.2-0.2c0.4-0.6,0.9-1.2,1.3-1.8c0.3-0.5,0.1-1.2-0.4-1.5c-0.6-0.3-1.2-0.1-1.5,0.4c-0.2,0.3-0.4,0.6-0.7,0.9
		c-0.3-0.5-0.5-1.1-0.8-1.6c0.6-0.2,1.2-0.4,1.8-0.5c2.8-0.7,5.7-1.5,8.5-2.4C-102.2-201.2-100.6-198.1-98.4-195.3z M-56.8-206.5
		c-6.5-1.4-12.9-3-19.5-3.7c-7.6-0.8-15,0-22.5,1.3c-2.6-7.2-5-14.4-7.3-21.6c12.4-6.8,22-17.3,31.1-27.9c1.1-1.2,2.7-3.6,4.6-5.2
		c5.4,8,8.9,18,12.4,26.9c4,10.2,7.4,21.2,9.3,32C-51.5-204.8-54.9-206-56.8-206.5z M-44.4-207.4c-0.1,1.6-0.9,2.3-2.1,2.7
		c-2-11.2-5.4-22.7-9.7-33.2c-3.6-8.9-7-18.8-12.4-26.8c1-0.4,2-0.5,2.9,0c1.3,0.7,2.4,3.6,3,4.9c3.1,5.7,5.7,11.7,8.1,17.7
		c2.9,7.2,5.4,14.5,7.4,22C-46-216.3-44.1-211.3-44.4-207.4z M-43.7-233.7c-0.8,1.1-2.2,1.9-3.4,2.7c-1.2-3.8-2.6-7.5-4-11.1
		c0.9-0.1,1.8-0.3,2.7-0.4c2.2-0.2,3,0.4,4.1,2.4C-43.4-238.2-42.3-235.7-43.7-233.7z"/>
	<path class="st0" d="M-45.7-251.6c0-2.1,0-4.3,0-6.4c0-1.4-2.2-1.4-2.3,0c0,2.1,0,4.3,0,6.4C-48-250.2-45.7-250.2-45.7-251.6z"/>
	<path class="st0" d="M-36.6-247.3c1.2-1.3,2.3-2.6,3.5-3.9c1-1.1-0.6-2.7-1.6-1.6c-1.2,1.3-2.3,2.6-3.5,3.9
		C-39.1-247.8-37.5-246.2-36.6-247.3z"/>
	<path class="st0" d="M-28.8-239.9c-1.7-0.1-3.3-0.1-5-0.1c-1.4,0-1.4,2.2,0,2.3c1.7,0.1,3.3,0,5,0.1
		C-27.4-237.6-27.4-239.8-28.8-239.9z"/>
	<path class="st0" d="M-37.3-229.7c-1.2-0.8-2.3,1.1-1.1,1.9c1.4,1,2.8,2.2,4.1,3.4c1.1,1,2.7-0.6,1.6-1.6
		C-34.2-227.2-35.7-228.5-37.3-229.7z"/>
	<path class="st0" d="M-117.9-219.1c1.3-0.5,0.8-2.7-0.6-2.2c-1.5,0.6-3,1.2-4.5,1.8c-1.3,0.5-0.8,2.7,0.6,2.2
		C-120.9-217.9-119.4-218.5-117.9-219.1z"/>
	<path class="st0" d="M-117.3-217.5c-1.5,0.7-3.1,1.3-4.8,1.8c-1.4,0.4-0.8,2.6,0.6,2.2c1.8-0.5,3.6-1.2,5.3-2.1
		C-114.8-216.2-116-218.2-117.3-217.5z"/>
</g>
<g>
	<path class="st0" d="M-312.8,18.7c-15-13.4-37.8-15.1-55.3-6c-17.9,9.3-29.7,29.1-26.8,49.5c3.3,23.3,30,35.3,51,35.8
		c9.8,0.3,18.5-2.1,26.9-7.2c8.4-5,13.7-12.1,17.4-21.1C-292.7,52.4-299.1,30.9-312.8,18.7z M-299.8,54.9c-4.4,0.9-8.8,1.6-13.2,2.2
		c0-1.9-0.1-3.8-0.2-5.7c-0.4-5.1-1.5-10.1-3.1-14.8c3.3-1.8,6.4-3.9,9.3-6.2C-302.4,37.7-299.8,46.5-299.8,54.9z M-372.1,57.6
		c-0.2-6.8,0.5-12.9,2.6-18.9c6.2,2.4,12.8,3.8,19.6,4.7c2.6,0.4,5.3,0.5,7.9,0.4c0.5,5.1,0.9,10.3,1.2,15.4
		c-1.7,0.1-3.4,0.1-5.2,0.2c-8.7,0.3-17.4,0.5-26.1,0.1C-372,58.9-372.1,58.3-372.1,57.6z M-342.2,40.8c-3.3,0.1-6.6-0.1-9.8-0.7
		c-5.7-1-11.1-2.2-16.3-4.2c0.6-1.5,1.3-3,2.2-4.5c4.5-8.3,10.7-16.2,19.1-20.8C-344.9,20.6-343.3,30.7-342.2,40.8z M-344,10.7
		c11.7,4.4,19.7,13.5,24,24.5c-6,2.9-12.6,4.8-19.2,5.4C-340.3,30.5-341.9,20.6-344,10.7z M-345.9,62.4c1.8-0.1,3.5-0.1,5.3-0.2
		c0.2,3.6,0.2,7.1,0.3,10.7c-0.9,0-1.8,0-2.7,0c-7.4,0.1-15.4,1.4-23,3.8c-2.8-4.3-4.7-9.1-5.6-14.2
		C-363,62.9-354.4,62.7-345.9,62.4z M-343,75.9c0.9,0,1.8,0,2.7,0c0,6.2-0.2,12.4-0.5,18.6c-9.3-2.1-17.6-7.7-23.3-15.2
		C-357.1,77.2-349.7,76.1-343,75.9z M-350.1,94.4c-9.3-1.2-18.8-4.4-26.6-9.8c3-1.7,6.2-3.1,9.5-4.3
		C-362.8,86.4-356.8,91.3-350.1,94.4z M-337.3,75.9c5.2,0.1,10.4,0.7,15.4,1.8c-4,6.8-8.8,12.4-15.9,16.1
		C-337.4,87.9-337.2,81.9-337.3,75.9z M-337.3,72.9c0-3.6-0.1-7.2-0.3-10.8c7.2-0.3,14.3-0.8,21.4-1.6c-0.4,5-1.6,9.7-4.2,14.5
		C-325.8,73.7-331.6,73.1-337.3,72.9z M-337.7,59.1c-0.3-5.2-0.7-10.3-1.2-15.5c6.8-0.7,13.7-2.7,19.9-5.7c1.5,4.7,2.5,9.6,2.8,14.6
		c0.1,1.7,0.2,3.3,0.1,5C-323.2,58.3-330.4,58.8-337.7,59.1z M-308.7,27.9c-2.7,2.2-5.6,4.2-8.7,5.9c-3.9-9.8-10.5-18.1-19.9-23.3
		c5.8,1.1,11.2,3.5,16.5,6.4C-316,19.6-311.9,23.4-308.7,27.9z M-372.9,19.2c6.1-4.5,12.9-7.1,20.1-8.4c-6.8,4.9-12.1,11.9-16,19.2
		c-0.9,1.6-1.6,3.2-2.3,4.8c-3.9-1.7-7.5-3.9-10.9-6.9C-379.3,24.6-376.2,21.6-372.9,19.2z M-383.8,30.3c3.6,3.1,7.5,5.5,11.6,7.3
		c-2.5,6.9-3.3,13.8-2.8,21.6c0,0,0,0.1,0,0.1c-5.9-0.4-11.8-1.1-17.6-2.4C-392.9,47.6-389.4,38.1-383.8,30.3z M-389.8,69.3
		c-1.4-3-2.2-6.1-2.6-9.2c5.8,1.2,11.8,1.9,17.7,2.3c0.8,5.5,2.8,10.7,5.8,15.4c-3.7,1.3-7.2,3-10.4,4.9
		C-383.7,79-387.4,74.6-389.8,69.3z M-331.5,93.6c5.3-3.9,9.4-9.1,12.7-15c2.8,0.8,5.5,1.8,8.1,3.1
		C-316.3,87.5-323.5,91.6-331.5,93.6z M-308.7,79.4c-2.8-1.5-5.7-2.6-8.7-3.5c2.6-5.2,3.9-10.3,4.3-15.7c4.4-0.6,8.8-1.3,13.1-2.2
		c-0.1,1.4-0.3,2.8-0.6,4.2C-301.9,68.8-304.7,74.6-308.7,79.4z"/>
	<path class="st0" d="M-392.6,31c3.5-6.5,8-12.3,13.5-17.2c1.1-1-0.5-2.5-1.6-1.6c-5.7,5-10.3,11-13.9,17.7
		C-395.2,31.2-393.3,32.3-392.6,31z"/>
	<path class="st0" d="M-392.4,22.9c1.3-2.4,2.9-4.6,4.8-6.5c1-1-0.6-2.6-1.6-1.6c-2.1,2-3.8,4.4-5.2,7
		C-395,23.1-393.1,24.2-392.4,22.9z"/>
	<path class="st0" d="M-305.7,86.5c-4.2,4.9-9.3,8.5-15.3,10.7c-1.3,0.5-0.8,2.7,0.6,2.2c6.4-2.4,11.9-6.1,16.3-11.3
		C-303.1,87-304.7,85.4-305.7,86.5z"/>
	<path class="st0" d="M-307.6,94c-1.2,1.4-2.7,2.6-4.3,3.4c-1.3,0.6-0.2,2.6,1.1,1.9c1.8-0.9,3.5-2.2,4.8-3.7
		C-305.1,94.5-306.7,92.9-307.6,94z"/>
</g>
<g>
	<path class="st0" d="M-227.7,81.7C-227.7,81.7-227.7,81.7-227.7,81.7c-3.7-0.5-7.1,1.8-7.3,5.8c-0.2,3.9,3,6.2,6.5,6.3
		c3.4,0.1,7-2.1,6.8-5.9C-221.8,84.7-224.3,81.9-227.7,81.7z M-227.8,90.9c-1.8,0.1-3.5-0.4-4-2.3c-0.6-2.4,1.5-4.3,3.8-3.9
		c0,0,0,0,0.1,0c0.1,0,0.2,0,0.3,0c1.6,0.1,2.7,1.3,3,2.8C-224.3,89.6-226,90.8-227.8,90.9z"/>
	<path class="st0" d="M-184.2,81.5c-3.6-0.4-6.5,2.6-6.4,6.1c0.1,1.9,1,4,2.6,5.1c1.3,1,3,0.9,4.6,1c3.5,0.3,5.5-3.7,4.9-6.8
		C-179.1,83.6-180.5,81.6-184.2,81.5z M-183.4,90.8c-2.1-0.1-3.8-0.4-4.2-2.8c-0.3-2.2,1.1-3.7,3.3-3.5c1.8,0,2.2,0.6,2.6,2.3
		C-181.2,88.3-181.3,90.9-183.4,90.8z"/>
	<path class="st0" d="M-172.1,32c-9-1.8-18.8-1.3-28-2c-13.9-1.1-27.7-1.9-41.6-2.4c-0.4-1.8-0.9-3.5-1.6-5c-1.4-3-4.3-3.6-7.2-4.5
		c0.1-1.1-0.2-1.9-1.5-2.6c-1.6-0.9-3.5-1.5-5.3-2.1c-2.3-0.7-7.6-1.8-7.5,2.2c0.1,3.1,4.1,4.3,6.5,5.1c2,0.7,4.8,1.4,6.5,0.1
		c1.8,0.6,3.5,0.9,4.9,2.4c1.6,1.7,1.7,4.2,2.3,6.5c1.1,4.9,2.4,9.7,3.7,14.6c2.2,8.1,4.6,16.2,6.5,24.4c-2.4,0.9-4.3,3-4.2,5.9
		c0.1,4.4,4.4,5.4,8,5.5c17,0.4,34,0.1,50.9,0.2c1.9,0,1.9-3,0-3c-10,0-20.1,0-30.1,0c-5.3,0-10.7,0-16-0.1c-2.1,0-7.6,0.8-9.2-1.1
		c-1.6-1.9,0.2-4.5,2.4-4.7c14.5,0.1,29-0.1,43.4,0.1c3.5,0,9.6,0.7,12.1-2.5c1.1-1.3,1.4-3.4,1.9-5c1.1-3.4,2.2-6.8,3.3-10.2
		c1.7-5.2,4-10.8,4.6-16.2C-167.1,34-168.9,32.7-172.1,32z M-258,18.3c-0.9-0.3-3.8-1.1-4.3-2.1c-0.4-0.8,0.5-1.4,1-1.5
		c0.3-0.1,0.7,0,1,0.1c1,0.2,1.9,0.5,2.8,0.8c1.1,0.4,2.1,0.8,3.1,1.2c1.1,0.4,1.6,0.5,1.3,1.7C-253.5,20.1-257.1,18.7-258,18.3z
		 M-170.5,36c0.8,1.6-1,5.8-1.5,7.5c-0.1,0.4-0.3,0.9-0.4,1.3c-4.2-0.2-8.4-0.5-12.6-0.8c0.8-3.4,1.6-6.7,2.5-10
		C-178.3,34-171.4,34.1-170.5,36z M-175.4,54.2c-0.2,0.7-0.5,1.4-0.7,2.1c-3.8-0.2-7.6-0.3-11.4-0.4c0.6-3.2,1.3-6.5,2-9.7
		c4.1,0.3,8.3,0.5,12.4,0.8C-173.8,49.4-174.6,51.8-175.4,54.2z M-199.9,68.4c0.2-3.5,0.4-7,0.6-10.5c3,0.1,6.1,0.2,9.1,0.2
		c-0.7,3.4-1.3,6.8-2,10.2C-194.8,68.4-197.3,68.4-199.9,68.4z M-199.1,55.7c0.2-3.5,0.5-6.9,0.8-10.4c3.5,0.3,7.1,0.6,10.6,0.8
		c-0.7,3.3-1.3,6.5-2,9.8C-192.9,55.8-196,55.7-199.1,55.7z M-231.6,68.2c-0.8-3.8-1.8-7.5-2.8-11.3c2.9,0.1,5.7,0.2,8.6,0.3
		c0.8,3.7,1.6,7.4,2.6,11.1C-226,68.2-228.8,68.2-231.6,68.2z M-238.5,42c3.3,0.2,6.6,0.5,9.9,0.8c0.8,4.1,1.6,8.1,2.4,12.2
		c-2.9-0.1-5.8-0.2-8.8-0.3C-236.1,50.4-237.3,46.2-238.5,42z M-220.8,68.3c-1-3.6-1.9-7.3-2.6-11c3.2,0.1,6.3,0.2,9.5,0.3
		c0.2,3.6,0.5,7.2,0.7,10.8C-215.7,68.4-218.3,68.3-220.8,68.3C-220.8,68.3-220.8,68.3-220.8,68.3z M-223.9,55c-0.8-4-1.6-8-2.4-12
		c3.8,0.3,7.6,0.6,11.4,1c0.3,3.8,0.6,7.6,0.8,11.4C-217.4,55.2-220.6,55.1-223.9,55z M-226.7,40.7c-0.6-3.2-1.3-6.4-2-9.6
		c4.3,0.2,8.6,0.5,12.9,0.7c0.3,3.3,0.5,6.5,0.7,9.8C-219,41.3-222.8,41-226.7,40.7z M-212.6,44.1c4,0.3,8,0.7,12.1,1
		c-0.3,3.5-0.6,7-0.8,10.5c-3.5-0.1-7-0.2-10.4-0.3C-212.1,51.6-212.3,47.9-212.6,44.1z M-184.8,34c-0.9,3.3-1.7,6.6-2.4,9.9
		c-3.6-0.3-7.3-0.5-10.9-0.8c0.3-3.3,0.6-6.6,0.9-9.9c4,0.3,8.1,0.5,12.1,0.8C-185,34-184.9,34-184.8,34z M-199.5,33
		c-0.3,3.3-0.6,6.6-0.9,9.9c-4.1-0.3-8.3-0.7-12.4-1c-0.2-3.3-0.5-6.6-0.7-9.8c4.1,0.3,8.2,0.6,12.3,0.9
		C-200.7,32.9-200.1,33-199.5,33z M-241.1,30.6c3.3,0.1,6.7,0.3,10,0.4c0.7,3.2,1.4,6.3,2,9.5c-3.3-0.3-6.7-0.5-10.1-0.8
		c-0.2-0.7-0.4-1.4-0.6-2.1C-240.2,35.5-240.6,33-241.1,30.6z M-210.9,68.4c-0.2-3.6-0.5-7.2-0.7-10.8c3.4,0.1,6.8,0.2,10.1,0.2
		c-0.2,3.5-0.5,7-0.7,10.6C-205.1,68.4-208,68.4-210.9,68.4z M-178.4,63.7c-1.4,4.6-4,4.5-8.6,4.6c-1,0-1.9,0-2.9,0.1
		c0.7-3.3,1.4-6.7,2-10.1c3.7,0.1,7.4,0.2,11.1,0.4C-177.3,60.3-177.9,62-178.4,63.7z"/>
	<path class="st0" d="M-237.9,85.4c0.6-1.3-1.4-2.5-1.9-1.1c-1.3,2.9-0.9,6,1.1,8.5c0.9,1.1,2.5-0.5,1.6-1.6
		C-238.4,89.5-238.7,87.3-237.9,85.4z"/>
	<path class="st0" d="M-242.1,87.1c0-0.6-0.6-1.1-1.1-1.1c-0.6,0-1.1,0.5-1.1,1.1c-0.1,1.1,0.1,2.3,0.6,3.3c0.7,1.3,2.7,0.1,1.9-1.1
		C-242.1,88.6-242.1,87.8-242.1,87.1z"/>
</g>
<g>
	<path class="st0" d="M-95.8,24.7c-11,6.9-17.6,22.1-13,34.6c1.5,4.1,3.4,8,5.9,11.6c1.3,1.8,2.8,3.4,4.3,5.1
		c2.2,2.5,2.9,4.4,3.7,7.5c0.3,1.3,0.7,2.1,1.3,2.7c-1,1.1-1.3,2.6-0.5,3.9c-1.9,2.5-1.1,4.1,1,5c-3.2,4.8,3.5,5.8,9.7,5.9
		c0.1,1,0.2,2,0.6,2.8c0.6,1.2,2.3,1.4,3.5,1.4c1.4,0,3.3-0.1,4.5-0.9c1.1-0.7,1.4-2.3,1.5-3.6c3.5,0.1,8.9,0.4,10.7-1.9
		c1.1-1.4,0.6-2.7-0.4-3.6c1.7-0.9,2.4-2.4,1-4.6c0.8-1.2,0.3-2.7-0.9-4c0.2-0.3,0.5-0.6,0.7-1.1c0.8-1.7,0.3-3.5,0.7-5.3
		c0.6-2.7,2.4-4.1,3.8-6.2c2.1-3.2,5.1-6.3,6.8-9.7c5.5-11.2,3.2-26.8-5.5-35.7C-67,17.8-83.1,16.8-95.8,24.7z M-81.2,47.3
		c0.3-1.8,1.3-2.9,3-3.2c1.2,1,1.7,2.2,1.3,3.7c0.1,1.7-0.7,3.3-2,4.5C-80.3,50.9-81.4,49.1-81.2,47.3z M-79,55.3
		c1.6,1.3,3.5,2.4,5.3,2.9c-2.5,8.6-1.9,19-1.4,27.5c-1.1,0-2.1-0.1-3-0.1c-1.4,0-2.8,0-4.2-0.1c-0.1-3.7,0.3-17.9-2-27.7
		C-82.3,57.2-80.5,56.3-79,55.3z M-78.1,88.6c3.6,0,7.3-0.2,10.9-0.5c0.9-0.1,1.7-0.2,2.4-0.4c2.2,2.2-4.2,2.7-5.8,2.8
		c-2.4,0.1-4.9,0-7.4,0c-2.3-0.1-4.5-0.1-6.8-0.3c-1.5-0.1-9.5-1.1-6.8-2.8c0.3,0.1,0.6,0.1,0.9,0.2C-86.6,88.4-82.2,88.7-78.1,88.6
		z M-65.4,93.9c-0.9,0.1-1.8,0.2-2.7,0.3c-1.1,0.1-2.2,0.1-3.4,0.2c-2.5,0.1-5,0-7.5,0c-2,0-4.1,0-6.1-0.1c-0.6,0-8.2-0.3-7.3-2.5
		c3.3,1.5,9.2,0.9,12,1c4.8,0.2,11,1.1,15.7-0.5C-64.9,92.8-65.1,93.3-65.4,93.9z M-76.4,102.5c-0.8,0.3-2,0.4-2.9,0.4
		c-0.4,0-0.9,0.1-1.3-0.1c-0.3-0.2-0.1,0.1-0.3-0.3c-0.2-0.3-0.3-0.9-0.4-1.5c2.6-0.1,4.8-0.3,5.7-0.3
		C-75.6,101.4-75.8,102.3-76.4,102.5z M-65.4,96.1c-0.7,1.6-1.9,2.2-3.4,2c-1.2,0.1-2.3,0.1-3.5,0.2c-2,0.1-3.9,0.2-5.9,0.3
		c-1.5,0.1-15,0.5-12.8-2.6c0-0.1,0.1-0.1,0.1-0.2c4.2,0.9,10.1,0.7,12,0.7C-77.2,96.6-70.1,97.1-65.4,96.1
		C-65.5,96-65.4,96.1-65.4,96.1z M-51.8,56.3c-0.8,4-1.7,6.6-4.3,10c-2.1,2.8-4.2,5.6-6.1,8.5c-0.9,1.5-1.8,2.9-2.2,4.6
		c-0.6,2.4,0.3,4.5-2.8,5.8c-1.5,0.6-3.6,0.7-5.7,0.6c-0.5-8.6-1-18.6,1.4-27.1c4.3,0.4,10.6-1.5,9.5-6.6c-1.6-7.3-8.4-2.1-10.3,2
		c-0.3,0.6-0.6,1.3-0.8,1.9c-0.9-0.3-1.8-0.7-2.4-1c-0.5-0.3-1.1-0.7-1.7-1.1c3.2-2.9,4.5-6.7,1.2-10.5c-2.7-3.1-6.6-1-7.4,2.9
		c-0.6,2.7,0.7,5.5,2.7,7.6c-1.3,0.9-2.8,1.5-4.3,1.9c-1.7-5.8-4.5-9.4-9.3-7c-2.8,1.4-2.4,5.3-0.6,7.3c2.1,2.4,5.2,2.8,8.3,2.3
		c0.9,4,0.8,8.2,1.1,12.3c0.3,4.9,0.5,9.9,0.8,14.8c-1.4-0.1-2.8-0.3-4.1-0.6c-2.1-0.5-2.5-0.4-3.4-2.7c-0.6-1.5-0.5-3.1-1.2-4.6
		c-1.8-3.5-5.6-6.1-7.8-9.4c-2.4-3.7-4.8-8.2-5.7-12.5c-1.5-6.9,0.8-14.2,4.5-19.9c5.4-8.3,13.8-12.4,23.6-13.2
		c8.9-0.7,18,4,23,11.5C-51.4,40.7-50.2,48.7-51.8,56.3z M-70.8,56.5c0-0.1,0.1-0.3,0.1-0.4c0.6-1.7,1.4-3.1,2.7-4.4
		c3.9-1.4,4.7-0.1,2.2,3.7C-67,56.6-68.9,56.8-70.8,56.5z M-87,56.1c-0.7,0.1-1.3,0.1-1.9,0c-1.5-0.1-6.6-1.8-5-4.6
		c2.2-3.9,6,2,6.6,3.8C-87.2,55.6-87.1,55.9-87,56.1z"/>
	<path class="st0" d="M-37.2,26.2c-3.2,1.5-6.6,2.8-9.5,4.9c-1.6,1.1-0.1,3.7,1.5,2.6c2.9-2.1,6.2-3.4,9.5-4.9
		C-34,28-35.5,25.4-37.2,26.2z"/>
	<path class="st0" d="M-59,19.2c2.2-2.8,3.9-5.9,5.7-9.1c0.9-1.7-1.6-3.2-2.6-1.5c-1.6,2.9-3.2,5.9-5.2,8.5
		C-62.3,18.6-60.2,20.7-59,19.2z"/>
	<path class="st0" d="M-78,12.9c0.2-3.4,0.3-6.8,0.3-10.1c0-1.9-3-1.9-3,0c0,3.4-0.1,6.8-0.3,10.1C-81.1,14.8-78.1,14.8-78,12.9z"/>
	<path class="st0" d="M-99.1,19.1c1.1,1.6,3.7,0.1,2.6-1.5c-2-3-4.3-6-5.6-9.4c-0.7-1.8-3.6-1-2.9,0.8
		C-103.6,12.7-101.3,15.9-99.1,19.1z"/>
	<path class="st0" d="M-111.5,30.8c-3-2.2-6.2-3.9-9.6-5.3c-1.8-0.7-2.6,2.2-0.8,2.9c3.2,1.3,6.1,3,8.9,5
		C-111.5,34.6-110,32-111.5,30.8z"/>
	<path class="st0" d="M-88.8,28.5c-7,2-13.3,9.6-14.3,16.8c-0.2,1.4,2,2,2.2,0.6c0.9-6.4,6.4-13.3,12.7-15.2
		C-86.8,30.3-87.4,28.1-88.8,28.5z"/>
	<path class="st0" d="M-87.4,32.4c-2.1,0.3-4.2,1.8-5.5,3.5c-0.9,1.1,0.7,2.7,1.6,1.6c1.1-1.4,2.6-2.6,4.5-2.9
		C-85.3,34.4-86,32.2-87.4,32.4z"/>
</g>
<g>
	<path class="st0" d="M-303.6-123.8c-7.9-10.6-22-10.5-32.3-3.7c-5.5,3.6-10.4,8.4-14.6,13.4c-3.7,4.3-8,9.5-10,14.9
		c-0.1,0.3-0.2,0.6-0.3,0.9c-5.9,2.5-10.8,6.2-15.2,10.9c-4.8,5.1-10,10.9-13.2,17.2c-4.8,9.3-3,20.5,5.5,27.2
		c9.7,7.6,23.2-0.6,31-7.1c5.7-4.8,10.4-10.5,14.7-16.6c1.9-2.7,3.7-5.5,5.1-8.4c11.4-1.8,19.4-10.6,25.5-19.9
		C-302.1-103.5-296.7-114.5-303.6-123.8z M-344.3-101.3c1-1.5,2-2.8,2.7-3.7c4.7-6,9.8-13.1,17.5-15.1c5.4-1.4,10.7,1.7,10.3,7.6
		c-0.2,3.3-1.9,6.5-3.9,9.1c-3.7,5.1-8,10.2-13.4,13.4C-332.6-96.5-337.3-101.9-344.3-101.3z M-348.7-75.6c-1.9,2.5-3.7,4.7-4.4,5.6
		c-3.5,4.7-7.2,10.2-12.6,13c-2.8,1.5-8.5,3.1-10.8,0.2c-3.2-4,0.4-10.4,2.7-13.7c4.2-5.9,9.3-10.5,14.9-15
		C-356.5-81.2-352.8-77.6-348.7-75.6z M-366.9-43.9c-7.2,2.8-14.1,2-18.9-4.6c-3.7-5.1-5.1-10.8-3.1-16.9c2.3-6.7,7.5-12.3,12-17.6
		c4.4-5.2,9.4-9.7,15.6-12.6c0,0.2,0,0.3,0,0.5c-0.6,0.3-1.3,0.5-1.9,0.8c-0.5,0.3-0.7,1-0.4,1.5c0.3,0.6,1,0.7,1.5,0.4
		c0.3-0.1,0.6-0.2,0.8-0.4c0,0.1,0,0.1,0,0.2c-0.5,0.3-0.9,0.6-1.4,0.9c-1.2,0.8-0.1,2.7,1.1,1.9c0.2-0.1,0.5-0.3,0.7-0.4
		c0,0.1,0,0.2,0.1,0.2c-0.3,0.2-0.6,0.4-0.8,0.6c-0.5,0.4-0.7,1-0.4,1.5c0.3,0.5,1,0.8,1.5,0.4c0.2-0.1,0.3-0.2,0.5-0.3
		c0,0.1,0,0.1,0.1,0.2c0,0,0,0-0.1,0c-7.6,5.9-19,14.9-19.9,25.4c-0.3,3.4,0.8,7.7,4.3,8.7c3.6,1,7.8,0.1,11-1.6
		c7.9-4.2,12.7-13.3,18.3-19.9c3.5-4.1,8.7-15.5-1.2-16c0-0.1,0-0.1-0.1-0.2c0,0,0.1,0,0.1,0c1.4,0,1.4-2.2,0-2.3
		c-0.1,0-0.3,0-0.4,0c0-0.1,0-0.1,0-0.2c0.5,0,1,0.1,1.5,0.1c0.6,0.1,1.1-0.6,1.1-1.1c0-0.7-0.5-1-1.1-1.1c-0.3,0-0.7-0.1-1-0.1
		c0.1-0.2,0.1-0.3,0.2-0.5c0.3,0,0.6,0.1,0.9,0.1c0.6,0.1,1.1-0.6,1.1-1.1c0-0.6-0.5-1-1-1.1c0.1-0.1,0.1-0.3,0.2-0.4
		c6.5-1.6,10.9,2.9,12.6,8.9c1.6,5.9-0.4,11.9-3.4,17C-343.6-61.2-353.9-48.9-366.9-43.9z M-332-77.6c0-0.1,0.1-0.3,0.1-0.4
		c0.2,0,0.4,0,0.5-0.1c0.6-0.3,1.2-0.6,1.8-1c1.3-0.7,0.1-2.6-1.1-1.9c-0.1,0.1-0.3,0.1-0.4,0.2c0-0.2,0.1-0.4,0.1-0.6
		c0.7-0.3,1.4-0.6,2.2-0.9c0.6-0.3,0.7-1.1,0.4-1.5c-0.3-0.6-1-0.7-1.5-0.4c-0.2,0.1-0.5,0.2-0.7,0.3c0-0.2,0-0.4,0-0.5
		c0.4-0.2,0.9-0.3,1.3-0.5c0.6-0.2,1-0.8,0.8-1.4c-0.2-0.5-0.8-1-1.4-0.8c-0.3,0.1-0.5,0.2-0.8,0.3c0-0.2,0-0.5-0.1-0.7
		c4.8-2.6,8-6.3,11.5-10.5c2.7-3.3,5.4-6.4,6.8-10.5c2.6-7.8-2.2-15.6-10.9-14c-10.3,1.9-17.8,12.4-23.3,20.4
		c-4,5.7-5.8,14.4,2.9,16.3c0,0.1,0,0.3,0,0.5c-0.5-0.1-1-0.3-1.5-0.2c-0.6,0.1-1.1,0.5-1.1,1.1c0,0.6,0.5,1.2,1.1,1.1
		c0.3,0,0.7,0.1,1,0.2c-0.1,0.2-0.1,0.4-0.2,0.6c-0.4-0.1-0.9-0.2-1.3-0.3c-1.4-0.4-2,1.8-0.6,2.2c0.3,0.1,0.6,0.2,0.9,0.2
		c-0.1,0.2-0.2,0.4-0.4,0.7c-0.5-0.2-0.9-0.3-1.4-0.4c-1.4-0.4-2,1.8-0.6,2.2c0.3,0.1,0.5,0.2,0.7,0.2c-0.1,0.2-0.2,0.3-0.3,0.5
		c-5.4-2.4-9.2-7.3-10.9-12.9c-1.6-5.5,0.2-9.3,3.2-13.9c6.9-10.6,18.1-23.8,31.4-25.7c7.7-1.1,16.2,2.8,19.7,9.9
		c3,6,0.7,13-2.3,18.5C-311.8-91.4-320-80.1-332-77.6z"/>
	<path class="st0" d="M-327.8-128c-3.8,1.6-7.3,3.7-10.5,6.3c-1.1,0.9,0.5,2.5,1.6,1.6c3-2.5,6.4-4.5,10-6
		C-325.3-126.6-326.5-128.5-327.8-128z"/>
	<path class="st0" d="M-323.2-128.9c-1.4,0-1.5,2.3,0,2.3C-321.8-126.7-321.8-128.9-323.2-128.9z"/>
	<path class="st0" d="M-366.3-48.1c-3.7,1.8-7.6,2.4-11.6,1.8c-1.4-0.2-2,2-0.6,2.2c4.7,0.7,9.1,0,13.4-2
		C-363.8-46.8-365-48.7-366.3-48.1z"/>
	<path class="st0" d="M-362-50.2c-1.4,0-1.5,2.3,0,2.3C-360.6-47.9-360.6-50.2-362-50.2z"/>
</g>
<g>
	<path class="st0" d="M-166.1-98.8c-1.8-4.9-7.4-3.9-11.7-4.1c-6.6-0.2-13.2,0.5-19.7,0.1c-1.6-5.5-2.9-11.1-4.4-16.6
		c-1.3-4.7-3.5-10.1-9-11c-4.5-0.7-7,2.1-8.5,5.9c-2.8,7.2-4.4,14.7-7.5,21.9c-7.3,0-14.7-0.1-22,0.3c-3.4,0.2-7.8,0.5-9.2,4.1
		c-1.6,4.1,1,7.3,4,9.6c2.5,1.9,5.2,3.6,7.8,5.5c2.9,2.1,7.1,4.3,9.4,7.1c2.2,2.7-1.2,8.5-2.3,11.5c-1.2,3.3-2.6,6.6-3.4,10
		c-0.9,3.8-1.2,9.6,2.7,12.2c3.9,2.5,9-2.3,12-4.4c5.5-3.9,10.6-8.4,16.2-12c5,4.8,10.3,9.4,16,13.5c3.3,2.4,8.2,5.2,12.2,2.6
		c3.7-2.4,3.5-7.4,2.3-11.1c-2.2-6.8-4.4-13.7-6.6-20.5c5.6-4.1,11.2-8.3,16.7-12.5C-167.3-89.9-164.3-93.8-166.1-98.8z
		 M-178.7-85.1c-3.9,2.9-7.7,6-11.7,8.8c-0.5,0.4-0.9,1-0.7,1.7c1.4,4.6,2.5,9.3,4,13.9c1.2,3.6,4.8,9,3.3,12.9
		c-3.7,9.4-23.1-10.4-26.8-14c-0.5-0.5-1.3-0.6-1.8-0.2c-3.6,2.2-7,4.8-10.3,7.4c-3.6,2.8-8,7.2-12.3,8.8c-1.7,0.6-3.6,0.4-4.9-1.5
		c-0.6-0.8-0.4-2.8-0.3-3.8c0.1-2.3,1-4.7,1.8-6.9c2-5.6,4.1-11.2,6.1-16.9c0.2-0.5,0-1.2-0.4-1.5c-3.3-2.7-6.7-5.4-10.2-7.9
		c-3.3-2.4-10.6-5.7-12-9.7c-2.4-6.8,8.8-5.4,12.7-5.4c5.4-0.1,10.8-0.2,16.2-0.2c0.5,0.1,1.1-0.1,1.4-0.7c1.9-4.1,3.5-8.3,4.9-12.6
		c1.3-4.1,2.8-15.7,8.8-14.1c5.8,1.5,6.4,10.2,7.8,15c1,3.7,1.9,7.4,3,11.1c0.2,0.7,0.8,1.1,1.4,1.1c3.8,0.3,7.5,0,11.3-0.1
		c4.4-0.1,10.1-0.9,14.4,0.3C-161.4-96.3-175.7-87.3-178.7-85.1z"/>
	<path class="st0" d="M-231.7-95c-2.5,1.2-4.7,2.8-6.7,4.8c-1,1,0.6,2.6,1.6,1.6c1.9-1.8,3.9-3.3,6.3-4.4
		C-229.2-93.7-230.4-95.6-231.7-95z"/>
	<path class="st0" d="M-223.8-93.5c-3.4,1.4-6.7,3.1-9.7,5.2c-1.2,0.8-0.1,2.8,1.1,1.9c2.9-2,5.9-3.6,9.2-4.9
		C-221.8-91.9-222.4-94-223.8-93.5z"/>
</g>
<g>
	<path class="st1" d="M-30-88.6c-0.2-5.1-0.1-10.3,0-15.4c0.1-3.3,0.1-6.5-0.1-9.8c-0.1-2.6,0.3-5.9-0.4-8.5c-0.7-2.5-2.7-2.7-5-2.8
		c-6.1-0.3-12.2,0-18.3-0.1c-13.6-0.1-27.1-0.1-40.7-0.2c-7.1,0-14.2,0.2-21.4,0.6c-2.6,0.2-6.9-0.3-8.9,1.5
		c-1.4,1.2-1.6,3.1-1.9,4.8c-0.7,3.7-0.8,7.6-0.9,11.4c-0.3,8.3-0.2,16.5-0.7,24.8c-0.4,6.7-0.2,13.4,0,20c0.1,3.7-1.1,9.8,2.1,12.6
		c3.3,2.9,10.2,1.7,14.1,1.8c7.2,0.2,14.3,0.4,21.5,0.5C-77-47-63.6-47.5-50.2-47c5.1,0.2,10.8,0,15.8-0.9c3-0.5,3.9-2.3,4.2-5.2
		C-28.9-64.8-29.6-76.9-30-88.6z M-119.5-121.4c1.3-0.1,2.5-0.2,3.8-0.2c5.2-0.3,10.4-0.6,15.7-0.6c11.2-0.1,22.5,0,33.7,0.1
		c4.8,0,9.7,0,14.5,0.1c5.1,0,10.6-0.6,15.7,0.1c2.4,0.3,2.5,0.5,2.9,2.9c0.4,2.2,0.3,4.8,0.3,7.1c0,0.3,0,0.7,0,1
		c-30.4-1.1-60.9-1.2-91.3-0.3c0.1-1.7,0.3-3.4,0.5-5.1C-123.4-119.7-122.8-121.1-119.5-121.4z M-32.7-66.4c-0.1,4.1,0,8.3-0.4,12.4
		c-0.2,3-1.5,2.8-4.2,3.3c-2.8,0.5-5.7,0.8-8.5,0.9c-10.5,0.2-21.1-0.2-31.7-0.2c-12.5,0-24.9-0.3-37.3-0.7
		c-3.9-0.1-9.9,0.4-10.2-4.6c-0.1-2.8-0.1-5.7-0.2-8.5c-0.2-6.1-0.4-12.2,0-18.2c0.6-8.9,0.3-18,0.8-26.9c30.5-0.9,61-0.8,91.5,0.3
		c0,4.2-0.2,8.5-0.2,12.7C-33.1-86.2-32.4-76.3-32.7-66.4z"/>
	<path class="st1" d="M-116.9-113.2c1.8-0.2,3.8-1.3,3.4-3.4c-0.3-1.9-1.6-3.2-3.5-3.3c-1.9,0-3.2,1.8-3.5,3.5
		C-120.9-114.2-118.8-112.9-116.9-113.2z M-118.2-116.2c0.2-0.6,0.6-1.4,1.2-1.4c0.6,0,1,0.3,1.2,0.9c0.3,0.9-0.2,1.1-1.1,1.3
		c-0.4,0.1-0.7,0.1-1.1-0.1C-118.4-115.7-118.4-115.8-118.2-116.2z"/>
	<path class="st1" d="M-107.5-113.3c2.1,0.2,3.6-1.4,3.8-3.3c0.2-2.1-1.4-3.5-3.4-3.6c-1.8-0.1-3.8,1.2-3.9,3.1
		C-111-115.1-109.4-113.4-107.5-113.3z M-108.7-117c0.2-0.7,1-0.9,1.6-0.9c0.7,0,1.2,0.4,1.1,1.1c-0.1,0.8-0.6,1.4-1.5,1.3
		C-108.1-115.7-108.8-116.3-108.7-117z"/>
	<path class="st1" d="M-97.3-113.4c1.8-0.1,3.4-1.7,3.5-3.6c0-1.9-1.8-3.5-3.7-3.5c-2,0.1-3.5,1.8-3.7,3.8
		C-101.4-114.6-99.3-113.3-97.3-113.4z M-97.5-118.2c1.6-0.1,1.9,2.2,0.2,2.5c-0.6,0.1-1.6-0.2-1.7-0.9
		C-99-117.4-98.3-118.2-97.5-118.2z"/>
	<path class="st1" d="M-91.4-99c-3.1-2.5-7.5-0.4-10.3,1.5c-5.2,3.6-9.6,8.2-14.5,12.2c-7.5,6.6,1.6,13.8,6.8,17.7
		c3.5,2.6,7.8,6.3,12.1,7.6c2.9,0.8,7.3-0.3,7.5-3.9c0.2-3.6-5.3-7.1-7.7-9.2c-1.5-1.3-3-2.5-4.6-3.6c-0.7-0.5-1.4-0.9-2.1-1.4
		c-1.5-1-2.1-0.8-1.2-2.3C-103-84.1-84.2-93.1-91.4-99z M-107.8-77.8c1.7,2.1,5.3,3.5,7.4,5.3c1.6,1.3,3.2,2.8,4.7,4.3
		c0.6,0.6,2.5,1.8,2.8,2.7c1.3,4.2-2.1,3.9-4.2,3.2c0.2-0.1,0.4-0.3,0.6-0.4c0.5-0.4,0.7-1,0.4-1.5c-0.3-0.5-1-0.8-1.5-0.4
		c-0.4,0.3-0.9,0.7-1.3,1c-0.2,0.1-0.3,0.3-0.4,0.4c-0.5-0.2-0.9-0.5-1.4-0.8c0.2-0.1,0.3-0.2,0.5-0.3c1.2-0.7,0.1-2.7-1.1-1.9
		c-0.5,0.3-0.9,0.6-1.4,1c-0.6-0.4-1.1-0.8-1.7-1.2c0.3-0.2,0.6-0.3,0.9-0.5c1.3-0.7,0.1-2.6-1.1-1.9c-0.6,0.3-1.2,0.6-1.8,0.9
		c-0.4-0.3-0.7-0.6-1.1-0.8c0.2-0.1,0.4-0.2,0.6-0.4c1.3-0.7,0.1-2.7-1.1-1.9c-0.5,0.3-0.9,0.6-1.3,0.9c-0.5-0.4-1.1-0.8-1.6-1.3
		c0.3-0.2,0.6-0.4,0.9-0.6c0.5-0.3,0.7-1,0.4-1.5c-0.3-0.6-1-0.7-1.5-0.4c-0.6,0.3-1.1,0.7-1.6,1.1c-0.4-0.4-0.8-0.7-1.2-1.1
		c0.4-0.2,0.7-0.5,1.1-0.7c1.2-0.8,0.1-2.7-1.1-1.9c-0.5,0.3-0.9,0.6-1.4,0.9c-0.5-0.7-0.9-1.5-1.2-2.3c0.4,0,0.7,0,1.1,0
		c1.4,0,1.5-2.3,0-2.3c-0.4,0-0.8,0-1.2,0c0.1-0.7,0.5-1.4,1-2.1c0.4,0.4,0.8,0.9,1.3,1.2c0.5,0.4,1.3,0.1,1.5-0.4
		c0.3-0.6,0.1-1.2-0.4-1.5c0.2,0.1-0.2-0.2-0.2-0.2c-0.1-0.1-0.3-0.3-0.4-0.4c-0.1-0.1-0.2-0.2-0.2-0.2c0.4-0.3,0.8-0.6,1.1-0.9
		c0.4,0.4,0.9,0.9,1.2,1.3c0.4,0.5,1.2,0.4,1.6,0c0.5-0.5,0.4-1.1,0-1.6c-0.3-0.4-0.7-0.8-1.1-1.2c0.5-0.5,1.1-1,1.6-1.5
		c0.4,0.4,0.9,0.8,1.3,1.2c1,1,2.6-0.6,1.6-1.6c-0.4-0.4-0.8-0.7-1.2-1.1c0.6-0.5,1.2-1.1,1.9-1.6c0.4,0.5,0.8,0.9,1.2,1.4
		c1,1.1,2.6-0.5,1.6-1.6c-0.4-0.4-0.8-0.7-1.1-1.1c0.3-0.2,0.6-0.4,0.9-0.6c0.4-0.3,0.8-0.6,1.2-0.9c0.2,0.3,0.4,0.6,0.6,0.9
		c0.4,0.5,1,0.7,1.5,0.4c0.5-0.3,0.8-1,0.4-1.5c-0.3-0.4-0.5-0.7-0.8-1.1c0.5-0.4,1-0.7,1.6-1c0,0,0.1,0.1,0.1,0.1
		c0.3,0.3,0.7,0.7,1,1c1,1,2.6-0.6,1.6-1.6c-0.2-0.2-0.4-0.4-0.6-0.6c1.4-0.5,2.6-0.5,3.5,1.2c1.2,2.2-0.1,2.7-1.5,4.2
		c-3.7,3.8-8.5,6.4-12.2,10.1C-108.5-80.6-109.1-79.4-107.8-77.8z"/>
	<path class="st1" d="M-48.5-92.2c-3.5-2.6-7.8-6.3-12.1-7.6c-2.9-0.8-7.3,0.3-7.5,3.9c-0.2,3.6,5.3,7.1,7.7,9.2
		c1.5,1.3,3,2.5,4.6,3.6c0.7,0.5,1.4,0.9,2.1,1.4c1.5,1,2.1,0.8,1.2,2.3c-2.4,3.8-21.2,12.8-14,18.6c3.1,2.5,7.5,0.4,10.3-1.5
		c5.2-3.6,9.6-8.2,14.5-12.2C-34.2-81.1-43.3-88.3-48.5-92.2z M-43.3-76.1c-3.8,3.1-7.1,6.6-11.1,9.5c-1.7,1.2-3.3,2.8-5.2,3.7
		c-2,1-3.8,1.8-5-0.5c-0.5-0.9-0.5-1.6-0.3-2.1c0.5,0.4,1.1,0.9,1.6,1.3c0.5,0.4,1.3,0.1,1.5-0.4c0.3-0.6,0.1-1.2-0.4-1.5
		c-0.5-0.3-0.9-0.7-1.3-1c0.1-0.1,0.3-0.3,0.4-0.4c0.3-0.3,0.7-0.7,1-1c0.5,0.5,0.9,1,1.4,1.4c0.5,0.4,1.1,0.5,1.6,0
		c0.4-0.4,0.5-1.2,0-1.6c-0.5-0.4-0.9-0.9-1.3-1.3c0.5-0.4,1.1-0.9,1.6-1.3c0.5,0.6,0.9,1.2,1.4,1.7c1,1,2.6-0.6,1.6-1.6
		c-0.5-0.5-0.9-1-1.3-1.5c0.5-0.3,0.9-0.7,1.4-1c0.4,0.4,0.8,0.8,1.2,1.3c0.4,0.5,1.2,0.4,1.6,0c0.5-0.5,0.4-1.1,0-1.6
		c-0.3-0.4-0.6-0.7-1-1.1c0.6-0.5,1.2-1,1.7-1.5c0.3,0.2,0.6,0.4,0.8,0.7c1,1.1,2.6-0.5,1.6-1.6c-0.2-0.2-0.5-0.5-0.7-0.7
		c0.4-0.5,0.7-0.9,0.8-1.4c0.5,0,0.9,0.1,1.4,0.1c0.6,0,1.1-0.5,1.1-1.1c0-0.6-0.5-1.1-1.1-1.1c-0.7,0-1.3-0.1-2-0.1c0,0,0,0,0,0
		c-0.3-0.4-0.6-0.7-1-1c0.4-0.2,0.7-0.3,1.1-0.5c0.5-0.3,0.7-1,0.4-1.5c-0.3-0.6-1-0.7-1.5-0.4c-0.7,0.3-1.4,0.6-2,1
		c-0.4-0.2-0.7-0.4-1.1-0.7c0.3-0.1,0.6-0.3,0.9-0.4c0.5-0.3,0.7-1,0.4-1.5c-0.3-0.6-1-0.7-1.5-0.4c-0.6,0.3-1.2,0.6-1.8,0.9
		c-0.1,0-0.1,0.1-0.1,0.1c-0.4-0.2-0.7-0.5-1-0.7c-0.1-0.1-0.3-0.2-0.4-0.3c0.4-0.2,0.9-0.5,1.3-0.7c0.6-0.3,0.7-1,0.4-1.5
		c-0.3-0.6-1-0.7-1.5-0.4c-0.7,0.3-1.3,0.7-1.9,1c-0.4-0.4-0.9-0.8-1.3-1.2c0.2-0.2,0.5-0.3,0.8-0.4c0.6-0.2,1-0.7,0.8-1.4
		c-0.1-0.5-0.8-1-1.4-0.8c-0.7,0.3-1.3,0.6-1.8,1c-0.3-0.3-0.7-0.5-1.1-0.9c0.3-0.2,0.6-0.5,0.9-0.6c1.3-0.7,0.1-2.6-1.1-1.9
		c-0.4,0.2-0.8,0.5-1.1,0.8c-1-4,2.7-3.5,4.7-2.7c4,1.5,7.9,4.8,11.3,7.4C-45.2-86.9-37.3-81.4-43.3-76.1z"/>
	<path class="st1" d="M-76.1-100.2c-3.3-0.1-4.3,2.8-5.2,5.6c-2,6.1-3.6,12.4-4.8,18.7c-0.6,3.3-4.8,17.5,2.8,16.6
		c3-0.3,4.8-3.5,5.8-6c2-5.3,3-11.1,4.2-16.6c0.6-2.7,1.1-5.4,1.6-8.1c0.4-1.8,1.3-4.2,1.1-6.1C-71-99.1-73.3-100.1-76.1-100.2z
		 M-76.1-79.3c-0.6,2.5-1.2,4.9-1.8,7.3c-0.8,3.1-1.5,9.3-5.3,9.2c-2.1-0.1-2.2-0.3-2.1-1.6c0.3,0,0.5,0.1,0.8,0.2
		c0.6,0.2,1.2-0.2,1.4-0.8c0.2-0.6-0.2-1.2-0.8-1.4c-0.4-0.1-0.8-0.2-1.3-0.3c0-0.4,0.1-0.8,0.2-1.2c0.5,0.1,1,0.2,1.5,0.2
		c1.4,0,1.4-2.2,0-2.3c-0.4,0-0.8-0.1-1.2-0.1c0-0.2,0.1-0.5,0.1-0.7c0-0.1,0-0.2,0.1-0.4c0.5,0.1,1,0.1,1.5,0.3
		c1.4,0.4,2-1.8,0.6-2.2c-0.6-0.1-1.1-0.2-1.7-0.3c0.1-0.7,0.2-1.3,0.3-2c0.6,0.1,1.3,0.2,1.9,0.5c0.6,0.2,1.2-0.2,1.4-0.8
		c0.2-0.6-0.2-1.2-0.8-1.4c-0.7-0.2-1.3-0.4-2-0.5c0.1-0.5,0.2-1,0.3-1.5c0.5,0.1,1,0.2,1.5,0.4c1.4,0.3,2-1.8,0.6-2.2
		c-0.6-0.1-1.1-0.3-1.7-0.4c0.1-0.5,0.2-1,0.3-1.6c0.4,0.1,0.7,0.2,1.1,0.3c1.4,0.4,2-1.8,0.6-2.2c-0.4-0.1-0.8-0.2-1.2-0.3
		c0.1-0.3,0.1-0.6,0.2-0.9c0.6,0.1,1.3,0.3,1.9,0.4c0.6,0.1,1.2-0.2,1.4-0.8c0.2-0.6-0.2-1.3-0.8-1.4c-0.7-0.1-1.3-0.3-2-0.4
		c0.1-0.4,0.2-0.9,0.3-1.3c0.4,0.1,0.9,0.2,1.3,0.3c1.4,0.4,2-1.8,0.6-2.2c-0.4-0.1-0.9-0.2-1.3-0.3c0.1-0.3,0.2-0.6,0.3-0.8
		c0.4,0.1,0.8,0.2,1.2,0.3c0.6,0.2,1.2-0.2,1.4-0.8c0.2-0.6-0.2-1.2-0.8-1.4c-0.3-0.1-0.7-0.2-1-0.3c0.1-0.3,0.3-0.6,0.4-0.9
		c0.3,0.2,0.7,0.3,1.1,0.3c0.6,0.1,1.2-0.1,1.4-0.8c0.1-0.5-0.2-1.3-0.8-1.4c-0.1,0-0.2-0.1-0.4-0.1c0.4-0.4,0.9-0.6,1.3-0.6
		C-70.7-97.8-75.5-81.9-76.1-79.3z"/>
</g>
<g>
	<path class="st0" d="M106.4-197.2c-1.7-2.3-4.3-4.1-6.6-5.8c-3.2-2.4-6-5.3-9.1-7.9c4-2.8,3-10.9,2.9-15.1
		c-0.1-8.8-0.4-17.6-0.7-26.4c-0.1-2.5,0-5.4-2.4-7.1c-2.5-1.8-7.8-1.1-10.9-1.3c-8.6-0.7-17.3,0.3-25.9,0c-9.7,0.1-19.4,0.1-29,0.2
		c-2.6,0-5.1-0.3-6.8,2c-2.2,2.9-1.7,7.3-1.6,10.7c0.4,10.7-0.6,21.5,0.1,32.3c0.2,2.4,1.2,3.9,2.7,4.9c-4,2.8-8.1,5.5-12,8.6
		c-2.8,2.3-6.1,4.4-6.1,8.3c0,3.4,1.6,5.2,4.9,5.6c6.6,0.8,13.5,0.5,20.1,0.3c15.2-0.6,30.4-0.1,45.7-0.5c6.6-0.2,13.2,0,19.8,0.1
		c4,0,11.3,1.5,14.4-1.9C107.8-192.3,107.9-195.1,106.4-197.2z M19.2-223.9c-0.1-4.6-0.3-9.2-0.1-13.7c0.1-4.2,0.3-8.4,0.2-12.6
		c-0.1-2.7,0-6.3,3.2-7.3c1.7-0.6,4.5,0,6.4,0c8.3,0,16.7-0.1,25-0.1c5.4,0.2,10.8,0.3,16.1,0c4-0.2,18.4-1.6,19.9,3.3
		c0.5,1.7,0.1,4.2,0.1,6c0,4,0.1,8.1,0.3,12.1c0.1,3.2,0.3,6.4,0.4,9.6c0,2,0,4,0,6c-0.1,2.9,0.4,5.3-2.2,6.8
		c-2.9,1.7-8.1,0.8-11.5,0.7c-3.7,0-7.5-0.1-11.2-0.1c-7.3,0.1-14.6,0.5-21.9,0.6c-3.5,0-7-0.1-10.6,0c-3.2,0.1-8.7,1.4-11.7-0.2
		C18.2-214.6,19.3-220.9,19.2-223.9z M102.5-191.5c-2.3,1.1-7.7,0.2-10.2,0.2c-13-0.1-26.1-0.5-39.2-0.3c-13.6,0.2-27.2,1-40.8,0.7
		c-2.6-0.1-7.9,0.6-8.2-2.9c-0.2-2.2,2-3.6,3.5-4.9c4.5-3.9,9.7-7.1,14.6-10.6c0.1-0.1,0.2-0.2,0.3-0.3c2.4,0.4,5,0.2,7.4,0.1
		c9.5-0.5,19-0.3,28.5-0.6c4.7-0.2,9.4-0.3,14.1-0.2c4.7,0.1,9.9,0.7,14.6,0.4c0,0,0,0.1,0.1,0.1c4.9,3.9,9.9,8.1,14.5,12.2
		C103.6-196,106.6-193.4,102.5-191.5z"/>
	<path class="st0" d="M25.5-216.5c9.8-0.2,19.6-0.1,29.3-0.6c9.8-0.4,19.9-0.9,29.8-0.3c0.6,0,1.1-0.5,1.1-1.1
		c-0.3-11.1-0.3-22.2-0.8-33.3c0-0.6-0.5-1.1-1.1-1.1c-19.6,0.2-39.2-0.2-58.8,0c-0.3,0-0.5,0.1-0.6,0.2c-0.3,0.2-0.5,0.5-0.5,0.9
		c0.2,11.4,0.3,22.8,0.5,34.2C24.4-217.1,24.9-216.5,25.5-216.5z M82.8-250.7c0.4,10.4,0.5,20.7,0.7,31c-9.4-0.5-19.2,0-28.6,0.4
		c-9.4,0.4-18.8,0.4-28.2,0.5c-0.2-10.7-0.3-21.3-0.5-32C45-250.9,63.9-250.5,82.8-250.7z"/>
	<path class="st0" d="M65.1-201.7c-0.2-0.5-0.5-0.8-1.1-0.8c-6.2-0.4-12.3,0.2-18.5,0.2c-0.5,0-0.9,0.4-1.1,0.8
		c-0.8,2-1.4,3.8-1.8,5.9c0,0.2,0,0.5,0.1,0.7c0.1,0.4,0.5,0.8,1,0.8c7.4,0,15.3,0.6,22.7-0.6c0.6-0.1,1-0.9,0.8-1.4
		C66.4-198,65.8-199.9,65.1-201.7z M45.1-196.4c0.3-0.9,0.6-1.9,0.7-2.8c0.1-0.3,0.2-0.6,0.4-0.9c0,0,0.1,0,0.1,0
		c2.9-0.2,5.9-0.2,8.9-0.3c2.6-0.1,5.4-0.3,8,0.1c0,0,0,0,0,0c0.1,0.3,0.3,0.7,0.4,1c0.1,0.8,0.5,1.7,0.8,2.5
		C58.1-196,51.5-196.3,45.1-196.4z"/>
	<path class="st0" d="M53.9-254.3c1.4,0,1.5-2.2,0-2.2C52.5-256.5,52.5-254.3,53.9-254.3z"/>
	<path class="st0" d="M28-246.9c0.9,1.4,1.8,2.7,2.7,3.9c0.4,0.5,1,0.7,1.5,0.4c0.5-0.3,0.8-1.1,0.4-1.5c-1-1.3-1.9-2.6-2.7-3.9
		C29.1-249.3,27.2-248.1,28-246.9z"/>
	<path class="st0" d="M35.2-243.2c1,1.1,2.6-0.5,1.6-1.6c-1.2-1.2-2.3-2.5-3.5-3.7c-1-1.1-2.6,0.5-1.6,1.6
		C32.8-245.7,34-244.5,35.2-243.2z"/>
</g>
<g>
	<path class="st0" d="M103.4-98.6c-0.7-0.3-1.6-0.5-2.5-0.5c0.4-4.8,0.9-9.6,1.7-14.4c0,0,0,0,0,0c1.1-0.2,2.1-0.4,2.7-1
		c3-2.4,2.5-11.9-2.1-12.3c-5.7-0.2-11.4-0.2-17-0.2c-3.1,0-8.3-1-11.1,0.5c-2.6,1.4-2.4,5.2-2.4,7.7c0.1,2.9,0.6,4.5,3.6,4.8
		c0.3,4.7,0.7,9.4,1.3,14.2c0,0.1,0,0.1,0,0.2c-2.2-0.1-4.4-0.1-6.6-0.1c-2.6,0-9.2-1.2-11.3,0.6c-1.4,1.2-1.5,5.3,0,6.5
		c0.5,0.4,1.4,0.6,2.3,0.7c0,0.1,0,0.2,0,0.3c-1.5,0-2.9,0-4.4,0c-0.9-0.9-2.5-1.1-3.8-1.2c-1.7,0-2.8,0.4-3.3,1.3
		c-1.3,0-2.7-0.1-4-0.2c0-0.1,0-0.1,0-0.2c0.9-0.1,1.6-0.2,2.2-0.6c1.6-1.2,1.7-5.3,0.2-6.5c-2.2-1.8-8.6-0.6-11.3-0.6
		c-2.2,0-4.4,0-6.6,0.1c0-0.1,0-0.1,0-0.2c0.4-4.7,1-9.4,1.3-14.2c3-0.3,3.5-1.9,3.6-4.8c0.1-2.3,0.2-6.2-2-7.6
		c-2.7-1.7-8.3-0.6-11.4-0.7c-5.7-0.1-11.4,0-17,0.2c-4.6,0.4-5,9.7-2.2,12.2c0.6,0.6,1.6,0.9,2.8,1c0,0,0,0,0,0
		c0.9,4.8,1.3,9.6,1.7,14.4c-0.9,0.1-1.8,0.2-2.5,0.5c-2.2,1.1-2.7,4.7-0.7,6.3c0.6,0.5,1.8,0.8,3,1c1.1,6.5,1.6,13.1,2.8,19.5
		c-0.6,0.1-1.2,0.3-1.5,0.6c-1.5,1.3-1.5,5.2,0,6.5c1.9,1.7,8.9,0.6,11.1,0.6c2.2,0,4.5-0.1,6.7-0.3c0.3,2.9,0.2,5.8,0.2,8.7
		c-0.1,0-0.2,0-0.3,0.1c-3.3,1.1-3.3,8.1-0.6,9.9c1.8,1.3,5.8,0.5,7.9,0.5c4.3,0.1,8.7,0,13-0.1c3.6-0.4,4.2-7.5,1.9-9.6
		c-0.5-0.5-1.2-0.7-2-0.9c-0.1-3.1-0.1-6.2-0.1-9.3c2.1-0.9,3.2-3.6,1.6-5.7c-0.4-0.5-0.9-0.9-1.6-1.1c0-0.1,0-0.2,0-0.3
		c0.5,0,0.9-0.1,1.4-0.1c0.8,0,1.5,0,2.3,0.1c0.3,1.3,0.8,1.5,2.2,1.6c1.3,0.2,4.6,0.4,5.6-0.8c0.2-0.2,0.3-0.5,0.3-0.8
		c1.1,0,2.3,0.1,3.5,0c0,0.1,0,0.1,0,0.2c-0.7,0.3-1.2,0.6-1.6,1.1c-1.6,2.2-0.5,4.8,1.6,5.7c-0.2,3.1,0,6.2,0,9.3
		c-0.8,0.2-1.4,0.4-1.9,0.8c-2.5,2-1.8,9.3,1.8,9.7c4.2,0.1,8.4,0.2,12.5,0.1c2.3,0,6,0.7,8.1-0.4c3-1.6,3-8.9-0.3-10
		c-0.1,0-0.2,0-0.3-0.1c0-2.9-0.1-5.8,0.2-8.7c2.2,0.1,4.5,0.3,6.7,0.3c2.2,0,9.2,1.1,11.1-0.6c1.4-1.3,1.6-5.2,0-6.5
		c-0.4-0.3-0.9-0.5-1.5-0.6c1.3-6.5,1.9-13,2.8-19.6c1.3-0.2,2.4-0.4,3-1C106-93.9,105.6-97.5,103.4-98.6z M75-117.7
		c-0.3-0.7,0-2.1,0-2.8c0.1-1,0.2-1.8,0.5-2.5c0.6,1.1,1.1,2.3,1.7,3.4c0.6,1.3,2.6,0.2,1.9-1.1c-0.6-1.2-1.2-2.5-1.8-3.7
		c0.2-0.1,0.5-0.1,0.8-0.2c0.8,1.2,1.6,2.4,2.4,3.6c0.8,1.2,2.7,0.1,1.9-1.1c-0.6-0.9-1.2-1.8-1.8-2.7c0.4,0,0.8,0,1.2,0
		c0,0,0,0,0,0c0.7,1,1.3,2,1.8,3.1c0.3,0.5,1,0.7,1.5,0.4c0.6-0.3,0.7-1,0.4-1.5c-0.3-0.6-0.7-1.3-1-1.9c0.5,0,0.9,0,1.4,0
		c0,0.1,0.1,0.2,0.2,0.3c0.8,0.9,1.5,1.9,2.2,2.9c0.8,1.2,2.7,0.1,1.9-1.1c-0.5-0.7-1-1.4-1.5-2.1c0.6,0,1.1,0,1.7,0
		c0,0.1,0.1,0.1,0.1,0.2c0.8,0.9,1.4,1.9,2,2.9c0.7,1.3,2.6,0.2,1.9-1.1c-0.4-0.7-0.8-1.4-1.2-2c0.5,0,0.9,0,1.4,0
		c0.6,1,1.3,2,2,2.9c0.4,0.5,1,0.7,1.5,0.4c0.5-0.3,0.8-1.1,0.4-1.5c-0.4-0.6-0.8-1.1-1.3-1.7c0.4,0,0.9,0,1.3,0c0,0,0,0,0,0.1
		c0.8,1.3,1.6,2.6,2.6,3.8c0.4,0.5,1.2,0.4,1.6,0c0.5-0.5,0.4-1.1,0-1.6c-0.5-0.7-1-1.4-1.5-2.2c0.6,0,1.2,0,1.7,0
		c1.3,0.1,1.4,4.1,1.2,5.1c-0.3,1.7-0.8,2.8-2.7,3.3c-2.6,0.7-6.2,0.1-8.8,0.1c-3.1,0-6.1,0-9.2,0C81.4-116.1,76.2-115.2,75-117.7z
		 M80.5-99.8c-0.5-4.6-1-9.3-1.2-13.9c4.5,0.2,9.1-0.1,13.5-0.1c1.6,0,4.2,0.3,6.7,0.4c-0.8,4.7-1.3,9.5-1.7,14.3c-0.4,0-0.7,0-1,0
		c-3.2-0.1-6.4,0.1-9.7,0c-2.2-0.1-4.4-0.2-6.6-0.3C80.6-99.5,80.6-99.6,80.5-99.8z M58.5-80.8c0-1.5-0.1-3-0.2-4.5
		c1.2,0,2.4,0,3.6,0.1c0,2,0,4.1,0,6.1c-0.4,0-0.9,0-1.4,0.1c-0.7,0-1.3,0-2,0C58.6-79.7,58.5-80.3,58.5-80.8z M62-89.4
		c0,0.6,0,1.3,0,1.9c-1.2-0.1-2.4-0.1-3.6-0.1c0-0.5,0.1-1.2,0.1-1.8C59.6-89.4,60.8-89.4,62-89.4z M46.6-79.2c0-2.2,0-4.4,0-6.6
		c1.1-0.1,2.2,0,3.3,0.1c0,0.7,0.1,1.4,0.1,2c0,1.4-0.1,3-0.1,4.6C48.8-79,47.7-79.1,46.6-79.2z M49.8-89.4c0,0.5-0.1,0.9,0,1.4
		c-1.1-0.1-2.2-0.2-3.3-0.1c0-0.5,0-1,0-1.5C47.6-89.4,48.7-89.4,49.8-89.4z M21.4-99.2c-3.2,0.1-6.4,0-9.7,0c-0.3,0-0.6,0-1,0
		c-0.4-4.8-0.9-9.6-1.7-14.3c2.5,0,5.2-0.4,6.7-0.4c4.4,0,9.1,0.3,13.5,0.1c-0.3,4.7-0.8,9.3-1.2,13.9c0,0.1,0,0.2,0,0.3
		C25.8-99.3,23.6-99.2,21.4-99.2z M4.1-119.5c-0.1-0.4-0.1-1.4,0-2.3c0.3,0.4,0.5,0.8,0.8,1.1c0.3,0.5,1,0.7,1.5,0.4
		c0.5-0.3,0.8-1,0.4-1.5c-0.6-0.9-1.2-1.8-1.9-2.6c0.1-0.1,0.2-0.2,0.4-0.2c0.3,0,0.7,0,1,0c0.9,1.3,1.8,2.5,2.8,3.7
		c0.9,1.1,2.5-0.5,1.6-1.6c-0.6-0.7-1.1-1.4-1.7-2.2c0.4,0,0.9,0,1.3,0c0.8,1.2,1.6,2.3,2.6,3.4c1,1.1,2.5-0.5,1.6-1.6
		c-0.5-0.6-1-1.2-1.5-1.9c0.6,0,1.1,0,1.7,0c0.7,1.2,1.5,2.4,2.4,3.5c0.4,0.5,1,0.7,1.5,0.4c0.5-0.3,0.8-1.1,0.4-1.5
		c-0.6-0.8-1.1-1.5-1.6-2.3c0.6,0,1.1,0,1.7,0c0.5,0.9,1.1,1.8,1.6,2.7c0.8,1.2,2.7,0.1,1.9-1.1c-0.3-0.5-0.6-1-0.9-1.6
		c0.2,0,0.4,0,0.6,0c0.3,0,0.7,0,1,0c0.7,1.1,1.4,2.2,2.2,3.2c0.4,0.5,1,0.7,1.5,0.4c0.5-0.3,0.8-1.1,0.4-1.5
		c-0.5-0.7-1-1.4-1.5-2.1c0.5,0,1.1,0,1.6,0c0.1,0.1,0.1,0.3,0.2,0.4c0.8,1.1,1.7,2.1,2.5,3.2c0.4,0.5,1.2,0.4,1.6,0
		c0.5-0.5,0.4-1.1,0-1.6c-0.4-0.6-0.9-1.1-1.3-1.7c1.9,0.4,2.7,1.2,2.8,3.3c0.1,0.7,0.3,2.8,0,3.4c-1.1,2.4-5.7,1.6-7.8,1.6
		c-3.3,0-6.7,0.1-10,0c-2.5,0-5.6,0.4-8.1-0.1C5.4-116.6,4.6-117.2,4.1-119.5z M6.5-95.9c1-1.1,0.9-0.6,1.9-0.8
		c3.9-0.9,8.9,0,13-0.1c6.7-0.2,13.4-0.4,20.2-0.5c1.2,0,2.7-0.3,3.9,0c2.3,0.5,2.8,2.4,0.2,3c-3.7,0.9-8.6,0.7-12.4,0.7
		c-6.6-0.1-13.2,0.4-19.8,0.1c-1.7-0.1-3.6,0-5.2-0.3C6.7-94.3,5.3-94.5,6.5-95.9z M16.1-91.3c5.5,0.1,10.9-0.2,16.4-0.2
		c3.3,0.1,6.5-0.2,9.7-0.4c0.4,0,0.8,0,1.2,0c0,6.5,0.1,13,0.1,19.6c-2.1-0.1-4.4,0.1-5.8,0.1c-4.9-0.2-9.8,0.2-14.6,0.1
		c-3,0-5.8-0.1-8.8,0.2c-0.3,0-0.7,0-1.1,0c0-0.2,0-0.4,0-0.6c-1.1-6.2-1.6-12.5-2.6-18.7C12.7-91.2,14.9-91.3,16.1-91.3z
		 M15.5-66.4c-1.4,0-7.2,0.7-5.5-2.2c1.4-2.3,10-1.4,12.1-1.3c6,0.1,11.9-0.4,17.9,0c1.5,0.1,4.4-0.2,5.4,0.9c1.7,1.8-1.3,2.2-3,2.2
		c-4,0.1-8,0-11.9,0C25.6-66.6,20.6-66.4,15.5-66.4z M30.6-64.5c4.1-0.1,8.7,0.6,12.9,0.1c-0.1,2.8,0,5.7,0.1,8.5
		c-1.8,0.1-3.6,0.3-4.7,0.3c-2.3,0-4.7,0-7,0c-0.6,0-1.4-0.1-2.2-0.1c0-2.9,0.1-5.8-0.2-8.7c0,0,0-0.1,0-0.1
		C29.9-64.5,30.3-64.5,30.6-64.5z M46.7-47.5c-4,0.1-8,0.1-12,0.1c-3.2,0-9.3,0.9-8.3-4.1c0,0,0,0,0-0.1c0.2,0.3,0.4,0.6,0.6,1
		c0.7,1.2,2.7,0.1,1.9-1.1c-0.3-0.5-0.6-1-0.9-1.4c0.4-0.1,0.8-0.2,1.3-0.3c0,0,0,0.1,0.1,0.1c0.4,0.5,0.8,1,1.1,1.6
		c0.7,1.3,2.7,0.1,1.9-1.1c-0.1-0.3-0.3-0.5-0.5-0.7c0.6,0,1.2,0,1.8,0.1c0,0.1,0.1,0.1,0.1,0.2c0.4,0.6,0.7,1.2,1.1,1.7
		c0.3,0.5,1,0.7,1.5,0.4c0.5-0.3,0.8-1,0.4-1.5c-0.1-0.2-0.3-0.4-0.4-0.6c0.3,0,0.6,0,0.8,0c0.6,0,1.1,0,1.7,0c0,0,0,0,0,0
		c0.3,0.6,0.6,1.1,0.9,1.7c0.7,1.3,2.7,0.1,1.9-1.1c-0.1-0.2-0.2-0.4-0.4-0.6c0.4,0,0.9,0,1.3,0c0,0,0,0,0,0.1
		c0.4,0.6,0.7,1.2,1,1.9c0.3,0.6,1.1,0.7,1.5,0.4c0.6-0.3,0.7-1,0.4-1.5c-0.1-0.1-0.1-0.2-0.2-0.3c0.8,0.3,1.3,0.7,1.6,2.3
		C47.5-50.2,47.6-47.5,46.7-47.5z M46.6-74.3c0-0.9,0-1.7,0-2.6c1.1,0.1,2.1,0.2,3.2,0.2c0,0.8,0.1,1.6,0.1,2.4
		c-0.6-0.1-1.3-0.1-1.9-0.1C47.5-74.4,47.1-74.4,46.6-74.3z M56.3-74.4c-0.4,1.8-2.3,2.6-3.5,1.2c-1.4-1.6-0.6-7.1-0.6-9.2
		c0-2-1-8.3,1.7-8.2c2.8,0.1,2.2,2.8,2.2,4.9c0.1,1.6,0.1,3.2,0.2,4.8C56.3-78.9,56.8-76.3,56.3-74.4z M58.6-74.2c0-0.9,0-1.7,0-2.6
		c0.5,0,1,0,1.6,0c0.6,0,1.2-0.1,1.7-0.1c0,0.9,0,1.8,0,2.6C60.9-74.1,59.7-74.2,58.6-74.2z M82.1-51.5c1.1,4.9-4.6,4.1-7.8,4.1
		c-4.2,0-8.4,0-12.5-0.1c-0.8-0.1-0.7-2.4-0.7-2.8c0.1-0.6,0.2-1.1,0.4-1.5c0.2,0.3,0.3,0.5,0.5,0.8c0.3,0.5,1,0.7,1.5,0.4
		c0.5-0.3,0.7-1,0.4-1.5c-0.2-0.4-0.5-0.7-0.7-1.1c0.1,0,0.1,0,0.1-0.1c0.4-0.1,0.8-0.2,1.3-0.2c0.6,1,1.2,1.9,1.8,2.8
		c0.4,0.5,1,0.7,1.5,0.4c0.5-0.3,0.8-1,0.4-1.5c-0.4-0.5-0.8-1.1-1.1-1.6c0.5,0,1,0.1,1.5,0.1c0.5,0.7,1,1.4,1.4,2
		c0.4,0.5,1,0.7,1.5,0.4c0.5-0.3,0.8-1,0.4-1.5c-0.2-0.3-0.4-0.6-0.6-0.9c0.4,0,0.9-0.1,1.5-0.1c0,0,0,0,0,0c0.4,0.6,0.8,1.3,1.2,2
		c0.7,1.2,2.7,0.1,1.9-1.1c-0.2-0.3-0.4-0.7-0.6-1c0.5,0,0.9,0,1.4,0c0.4,0.9,0.8,1.8,1.3,2.6c0.7,1.2,2.7,0.1,1.9-1.1
		c-0.2-0.4-0.4-0.8-0.6-1.2C81-53.1,81.9-52.5,82.1-51.5z M79-64.4c-0.3,2.8-0.1,5.6-0.2,8.4c-2.8-0.1-6.1,0.3-8.4,0.4
		c-1.3,0-3.5-0.3-5.5-0.3c0-2.8-0.1-5.6,0-8.4c4.2,0.5,8.9-0.2,13-0.1c0.4,0,0.7,0,1.1,0C79-64.4,79-64.4,79-64.4z M93.3-66.4
		c-5.1,0-10.2-0.2-15.3-0.4c-3.7-0.1-7.4,0.1-11.1,0c-0.9,0-4.9,0.1-4.7-1.7c0.2-1.5,4.7-1.4,5.8-1.4c6.1-0.4,12.3,0.1,18.4,0
		c2.8-0.1,9-1,11.3,0.9C101.2-66.2,95.1-66.4,93.3-66.4z M95.3-72.5c0,0.2,0,0.4,0,0.6c-0.4,0-0.8,0-1.1,0c-3-0.3-5.8-0.2-8.8-0.2
		c-4.9,0.1-9.8-0.3-14.6-0.1c-1.4,0.1-3.7-0.2-5.8-0.1c0-6.5-0.1-13.1,0.1-19.6c0.5,0,0.9,0,1.2,0c3.2,0.2,6.5,0.5,9.7,0.4
		c5.3-0.1,10.6,0.2,15.9,0.2c1.4,0,3.7,0.2,6.1,0.1C97.2-84.9,96.6-78.7,95.3-72.5z M101.1-94c-1.5,0.5-3.9,0.3-5.5,0.4
		c-6.8,0.3-13.5-0.2-20.3,0c-3.8,0.1-8,0-11.8-0.6c-2.3-0.4-3.6-2-0.9-3.1c1.1-0.4,2.9,0,4,0c6.8,0.1,13.6,0.3,20.5,0.5
		c4,0.1,8.8-0.7,12.7,0.1C101.6-96.4,104.4-95.1,101.1-94z"/>
	<path class="st0" d="M18.7-79.3c0.9,1.1,2.5-0.5,1.6-1.6c-1.3-1.7-2.8-3.3-4.3-4.8c-1-1-2.6,0.6-1.6,1.6
		C15.9-82.6,17.4-81,18.7-79.3z"/>
	<path class="st0" d="M23.5-79.5c0.9,1.1,2.8,0,1.9-1.1c-1.4-1.9-2.8-3.8-4.2-5.6c-0.9-1.1-2.8,0-1.9,1.1
		C20.7-83.2,22.1-81.4,23.5-79.5z"/>
</g>
<g>
	<path class="st1" d="M92.7,12.7C87.7,8,82.9,6.6,76.3,9.3c-5.8,2.4-10.3,7.6-14.8,11.7c-6.8,6.2-13.4,12.7-19.9,19.3
		c-6.2,6.4-12.4,12.9-18.4,19.5c-2.7,2.9-5.7,5.9-8,9.1c-0.1,0.1-0.2,0.2-0.2,0.3c-0.1,0.1-0.2,0.3-0.2,0.4
		c-1.6,3.2-2.3,7.2-3.1,10.6C10.4,85.8,9.4,91.4,8.9,97c-0.1,1.1,1,1.6,1.9,1.4c8.8-1.4,17.4-3.3,26.2-4.9c3.6-0.6,5.1-3.1,7.6-5.7
		c4.2-4.3,8.3-8.7,12.5-13c7.7-8.1,15.4-16.1,23.3-24c6.5-6.5,15.6-13.6,18.7-22.6C101.3,21.7,97.4,17.1,92.7,12.7z M83.5,43.8
		c-3.6-3-6.3-6.4-9.5-9.8c-3.4-3.6-7-7-10.7-10.3c0.7-0.6,1.3-1.2,2-1.8c6.8,6.7,13.4,13.4,20,20.2C84.7,42.7,84.1,43.3,83.5,43.8z
		 M75.4,51.6c-6.3-7.2-13.8-13.3-21-19.6c0.6-0.6,1.2-1.1,1.8-1.7c7.6,5.6,14.1,13,20.8,19.7c-0.3,0.3-0.5,0.5-0.8,0.8
		C76,51.1,75.7,51.4,75.4,51.6z M36.7,80.4C36.7,80.4,36.7,80.4,36.7,80.4c-2.9,0.2-5.7,0.2-8.6,0.3C28,78.5,28,75,27.2,73
		c5.1-5,9.6-10.6,14.5-15.8c5.5-5.9,11.4-11.6,17.1-17.3c3,2.6,5.9,5.2,8.7,8C57.6,58.9,47.4,69.9,36.7,80.4z M61.6,25.2
		c0.5,0.5,1.1,1,1.6,1.5c-1.1,1.2-2.2,2.4-3.4,3.5c-0.6-0.5-1.3-1-1.9-1.5C59.1,27.6,60.3,26.4,61.6,25.2z M68.9,38.5
		c1.2-0.9,2.3-1.9,3.3-3c0,0,0.1,0.1,0.1,0.1c0.6,0.7,1.2,1.3,1.8,2c-0.9,1.1-2,2.1-3.1,3.1C70.3,39.9,69.6,39.2,68.9,38.5z
		 M67.3,36.9c-0.6-0.6-1.2-1.2-1.9-1.8c1-1.1,2.1-2.2,3.2-3.3c0.7,0.7,1.4,1.4,2,2C69.6,35,68.5,36,67.3,36.9z M63.8,33.6
		c-0.7-0.7-1.5-1.3-2.2-2c1.2-1.1,2.3-2.2,3.3-3.4c0.7,0.7,1.5,1.4,2.2,2C65.9,31.4,64.8,32.5,63.8,33.6z M72.6,42.3
		c1.1-0.9,2.1-1.9,3-3c0.7,0.7,1.3,1.5,2,2.2c-1,1-2,2-2.9,3.1C74.1,43.8,73.3,43,72.6,42.3z M35.3,51.3c5.5-5.8,11.2-11.6,17-17.2
		c1.6,1.4,3.3,2.8,4.9,4.3c-5.7,5.7-11.5,11.3-17,17.2c-4.9,5.3-9.4,10.8-14.5,15.8c-0.9-0.3-2-0.3-2.6-0.4c-1.6-0.3-3.3-0.5-5-0.8
		C22.9,63.4,29.6,57.3,35.3,51.3z M23.9,93.3c-2.4-3-6.1-6.8-9.8-9.8c0.2-0.8,0.3-1.6,0.5-2.4c0.6-2.8,1.2-6.1,2.3-8.8
		c2.4,0.2,6.1,0.3,8.2,1.3c-0.8-0.3,0,1.5,0.1,2.7c0.2,1.8,0.4,3.7,0.7,5.5c0.1,0.6,0.5,1.2,1.1,1.1c2.1-0.1,4.3,0.1,6.4-0.1
		c2.3-0.2,2.2-0.7,2.5,1.6c0.2,2.1,0.4,4.1,0.5,6.2c-0.3,0.1-0.5,0.2-0.8,0.2C31.8,91.8,27.9,92.6,23.9,93.3z M56.2,71.5
		c-3.6,3.7-7.1,7.4-10.7,11.2c-2.2,2.3-4.2,5.1-6.8,6.8c-0.2-2.4-0.4-4.8-0.7-7.1C48.7,71.7,59,60.7,69.2,49.4
		c1.4,1.4,2.8,2.9,4.1,4.4C67.6,59.7,61.9,65.6,56.2,71.5z M78.6,48.4c-0.8-0.8-1.5-1.5-2.3-2.3c0.9-1.1,1.9-2.1,2.9-3.1
		c0.8,0.8,1.7,1.6,2.6,2.3C80.7,46.4,79.7,47.4,78.6,48.4z M95.3,29.3c-1.9,3.8-4.8,7.3-8,10.6c-6.6-6.8-13.2-13.5-19.9-20.1
		c0.1-0.1,0.3-0.3,0.4-0.4c4.5-4.1,10.2-10.2,17-8.3c3.2,0.9,5.7,3.6,7.9,6C96.3,20.9,97.9,24.2,95.3,29.3z"/>
	<path class="st1" d="M76.9,17.1c-0.3-1.4-2.4-0.8-2.2,0.6c0.4,2,0.9,4,1.6,6c0.5,1.4,2.6,0.8,2.2-0.6
		C77.8,21.1,77.2,19.1,76.9,17.1z"/>
	<path class="st1" d="M80.7,16.3c-0.5-1.4-2.6-0.8-2.2,0.6c0.6,1.7,1.1,3.4,1.7,5.1c0.5,1.4,2.6,0.8,2.2-0.6
		C81.8,19.7,81.2,18,80.7,16.3z"/>
</g>
<g>
	<path class="st0" d="M-347.3,177.9c-8.1,0.8-14,7.8-13.7,15.7c0.2,7.9,7.9,14.8,15.8,14.7c0.1,0,0.2,0,0.4,0
		c8.2-0.8,14-6.2,13.4-14.8C-332.1,185.4-338.2,177-347.3,177.9z M-336.3,200.6c-2.8-6.7-5.9-13.2-9.2-19.6c0.8,0.1,1.7,0.2,2.4,0.5
		c2.9,5.1,4.9,10.7,8.1,15.7c0,0.1,0.1,0.1,0.1,0.2C-335.2,198.5-335.7,199.6-336.3,200.6z M-334.8,191.5c0.1,0.7,0.2,1.3,0.2,2
		c-1.8-3.3-3.3-6.7-5-10C-337.1,185.5-335.4,188.4-334.8,191.5z M-348.1,181.1C-348.1,181.1-348.1,181.1-348.1,181.1
		c3.7,6.9,7,14,10,21.2c0,0.1,0.1,0.1,0.1,0.1c-0.6,0.5-1.2,0.9-1.9,1.3c-3.6-7.3-7.2-14.7-10.8-22c0.7-0.3,1.4-0.5,2.1-0.6
		C-348.4,181.1-348.2,181.1-348.1,181.1z M-349,204.6c-2.7-5.5-5.4-10.9-8.1-16.4c0.3-0.7,0.7-1.4,1.2-2.1
		c2.9,6.5,6.1,12.9,9.5,19.1C-347.3,205.1-348.2,204.9-349,204.6z M-343.9,205.1c-3.8-6.8-7.3-13.8-10.5-20.9c0.5-0.5,1.1-1,1.8-1.4
		c3.6,7.3,7.2,14.6,10.7,21.8C-342.5,204.9-343.2,205-343.9,205.1z M-358,194.4c-0.2-1-0.2-2,0-2.9c1.9,3.8,3.7,7.6,5.6,11.4
		C-355.3,200.8-357.4,197.7-358,194.4z"/>
	<path class="st0" d="M-321.1,163.2c-11.4-10.3-31.2-11.4-44.3-4.2c-13,7.1-22.8,24.3-19.7,39.2c0.9,4.4,2.2,9.1,4.1,13.2
		c2,4.3,5.5,7.6,8.9,10.8c7.1,6.5,15.9,10,25.5,10.2c16.2-0.6,31.5-9.4,37.7-24.9C-302.8,192.3-309.1,174-321.1,163.2z M-320,168.8
		c4,5,7.5,10.8,9.3,17c-3.5-6.2-7.1-12.3-10.6-18.5C-320.9,167.8-320.4,168.3-320,168.8z M-310.7,203.7c-2.9-5.1-5.5-10.3-8.5-15.3
		c-1.2-5.1-3.7-9.8-7.3-13.5c-2.7-5.2-5.5-10.4-8.4-15.5c0.8,0.2,1.6,0.5,2.4,0.8c8.5,13,15,27.2,22.5,40.8
		C-310.2,201.9-310.4,202.8-310.7,203.7z M-312.5,208.5c-2-3.6-4.3-7-6.2-10.7c0.1-0.6,0.1-1.1,0.2-1.7c0-0.7,0.1-1.4,0.1-2.1
		c2.3,4.1,4.4,8.3,6.9,12.4C-311.9,207.2-312.2,207.9-312.5,208.5z M-314.9,212.6c-1.7-3-3.5-5.9-5.5-8.7c0.3-0.8,0.6-1.7,0.9-2.6
		c1.9,3.2,3.8,6.4,5.6,9.6C-314.1,211.4-314.5,212-314.9,212.6z M-347.1,217.3c-6.2-0.5-12.2-2.4-16.9-6.7
		c-4.9-4.5-6.7-12.2-6.5-18.6c0.5-14,14.7-25,28.4-22.5c11.9,2.2,20.9,13.8,20.5,25.8C-322,208.9-334.4,217.5-347.1,217.3z
		 M-324.6,222.2c-1.5-2.5-3-5-4.6-7.4c0.6-0.5,1.3-0.9,1.9-1.5c1.7,2.4,3.3,4.9,4.7,7.4C-323.2,221.3-323.9,221.8-324.6,222.2z
		 M-328.8,224.7c-1.5-2.5-3.1-4.9-4.6-7.4c0.8-0.4,1.6-0.8,2.3-1.3c1.5,2.5,3.1,4.9,4.6,7.4C-327.2,223.9-328,224.3-328.8,224.7z
		 M-333.3,226.8c-1.5-2.6-3.1-5.2-4.7-7.7c0.9-0.3,1.7-0.5,2.6-0.9c1.5,2.5,3.1,5,4.6,7.5C-331.6,226.1-332.4,226.4-333.3,226.8z
		 M-337.4,228.1c-1.7-2.7-3.4-5.4-5.1-8.1c0.7-0.1,1.5-0.2,2.2-0.4c1.7,2.6,3.3,5.2,4.9,7.9C-336.1,227.7-336.8,227.9-337.4,228.1z
		 M-342.1,229c-2-2.8-3.8-5.8-5.5-8.8c0.2,0,0.3,0,0.5,0c0.7,0,1.4,0,2.1,0c1.8,2.8,3.5,5.6,5.3,8.4
		C-340.5,228.8-341.3,228.9-342.1,229z M-346.6,229.4c-0.2,0-0.3,0-0.5,0c-2.1-3.3-4.1-6.6-6-10c0.9,0.2,1.8,0.4,2.6,0.5
		c1.8,3.2,3.7,6.4,5.8,9.4C-345.3,229.4-345.9,229.4-346.6,229.4z M-360.2,226.4c-7.3-13.5-14.5-26.9-21.8-40.4
		c0.2-0.7,0.4-1.4,0.6-2.1c2.8,5.2,5.7,10.3,8.5,15.5c0.9,5,3.1,10,6.8,13.3c0.5,0.4,0.9,0.8,1.4,1.2c2.8,4.7,5.7,9.4,8.5,14
		C-357.5,227.5-358.9,227-360.2,226.4z M-365.9,223.1c-6.1-10.1-11.7-20.2-16.9-30.8c0-0.3,0-0.6,0-1c0-0.6,0.1-1.2,0.2-1.8
		c6.3,11.6,12.6,23.3,18.8,34.9C-364.5,224.1-365.2,223.6-365.9,223.1z M-379.5,179c0.7,1.3,1.6,2.6,2.4,3.9
		c1.4,2.4,2.7,4.8,3.9,7.3c-0.1,0.6-0.1,1.2-0.1,1.8c0,0.6,0,1.1,0,1.7c-2.3-4.2-4.6-8.4-7-12.7C-380.1,180.3-379.8,179.6-379.5,179
		z M-376.6,173.6c1.8,3.2,3.5,6.4,5,9.7c-0.4,1-0.8,2.1-1.1,3.1c-0.7-1.3-1.4-2.6-2.1-3.9c-1.2-2-2.8-4-3.5-6.2
		C-377.7,175.4-377.2,174.5-376.6,173.6z M-373.5,169.6c1.8,2.7,3.4,5.4,4.9,8.3c-0.6,0.9-1.2,1.8-1.7,2.7c-1.5-3.1-3.1-6.1-4.8-9.1
		C-374.6,170.9-374.1,170.3-373.5,169.6z M-370.2,166.3c1.5,2.7,3.1,5.4,4.6,8.1c-0.5,0.5-1,1-1.4,1.6c-1.5-2.8-3.1-5.5-4.9-8
		C-371.4,167.4-370.8,166.9-370.2,166.3z M-366.4,163.4c1.4,2.7,2.9,5.3,4.4,8c-0.6,0.5-1.3,1-1.9,1.5c-1.5-2.7-3-5.3-4.5-8
		C-367.8,164.3-367.1,163.8-366.4,163.4z M-358.4,159.3c1.3,2.7,2.8,5.4,4.4,8c-0.7,0.2-1.4,0.5-2.1,0.8c-1.4-2.7-2.9-5.3-4.3-8
		C-359.8,159.8-359.1,159.5-358.4,159.3z M-353.6,158c1.8,2.6,3,5.5,4.6,8.2c-0.9,0.1-1.8,0.3-2.7,0.5c-1.6-2.6-3.1-5.3-4.5-8.1
		C-355.4,158.4-354.5,158.2-353.6,158z M-348.6,157.4c1.5,3,3.1,5.9,4.9,8.7c-0.9-0.1-1.9-0.1-2.8-0.1c-1.7-2.8-2.9-5.7-4.7-8.4
		C-350.3,157.5-349.5,157.5-348.6,157.4z M-362.4,161.2c1.4,2.6,2.8,5.2,4.2,7.8c-0.7,0.3-1.4,0.7-2,1.1c-1.4-2.7-2.9-5.3-4.3-8
		c0.7-0.4,1.4-0.8,2.1-1.1C-362.4,161.1-362.4,161.1-362.4,161.2z M-353.1,228.5c-2.4-3.9-4.8-7.9-7.2-11.8c1.4,0.7,2.8,1.3,4.2,1.8
		c2,3.6,4.1,7.2,6.3,10.7c-1.1-0.1-2.1-0.3-3.2-0.5C-353,228.7-353.1,228.6-353.1,228.5z M-338,158.5c2.4,4,4.7,8.2,6.9,12.3
		c-1.1-0.8-2.2-1.4-3.4-2c-2.2-3.6-4.3-7.3-6.5-10.9C-340,158.1-339,158.3-338,158.5z M-328.8,161.8c0.9,0.5,1.8,1,2.7,1.6
		c0,0.1,0.1,0.2,0.1,0.3c5.4,9.3,10.7,18.7,16.1,28c0.1,0.2,0.3,0.3,0.4,0.4c0.1,0.9,0.1,1.8,0.1,2.7c0,0.8,0,1.6-0.1,2.3
		C-315.9,185.3-321.7,173.2-328.8,161.8z M-343.9,157.6c2,3.2,3.9,6.5,5.8,9.8c-0.9-0.3-1.8-0.5-2.7-0.7c-1.9-3-3.7-6-5.3-9.2
		C-345.4,157.5-344.6,157.5-343.9,157.6z M-373.8,216.3c-4.3-4.4-7.5-11.5-8.6-18.2c3.7,7.2,7.5,14.2,11.6,21.1
		C-371.8,218.3-372.8,217.3-373.8,216.3z M-320.8,219.3c-1.4-2.5-2.9-4.9-4.6-7.2c-0.1-0.1-0.1-0.2-0.2-0.2c0.5-0.5,0.9-1,1.4-1.5
		c1.6,2.6,3.2,5.1,4.9,7.7C-319.9,218.5-320.3,218.9-320.8,219.3z M-317.8,216.4c-1.7-2.6-3.4-5.2-5-7.9c0.5-0.7,1-1.5,1.4-2.2
		c1.8,2.7,3.5,5.5,5.1,8.3C-316.8,215.2-317.3,215.8-317.8,216.4z"/>
	<path class="st0" d="M-296,181.6c-2.5-9.7-8.6-18.2-16-24.9c-7.6-7-16.8-13-27.2-14.1c-11.1-1.2-24.7,0.2-34.1,6.7
		c-18.2,12.7-27.8,32.6-23.1,54.8c5.1,23.8,26.5,40.4,50.6,40.4c20.2,0.1,38.4-10.3,46.2-29.2C-295.2,204.6-293.1,192.8-296,181.6z
		 M-299.7,206.7c-3.1,10.7-8.5,20.4-17.9,26.7c-8.3,5.6-18.2,8.1-28.1,8c-19.9,0-38.2-11.9-45.5-30.6c-3.7-9.6-4.6-21.5-1.8-31.5
		c2.6-9.3,8.2-16.5,15.3-22.7c3.7-3.3,7.7-6.6,12.4-8.4c5.4-2.1,11.5-2.4,17.3-2.8c11.1-0.6,20.3,2.6,29.1,9.4
		C-302.4,167.5-293.8,186.1-299.7,206.7z"/>
	<path class="st0" d="M-357.2,176.7c1.1-0.9,0-2.8-1.1-1.9c-1.8,1.3-3.3,2.8-4.7,4.5c-0.9,1.1,0.7,2.7,1.6,1.6
		C-360.2,179.3-358.8,177.9-357.2,176.7z"/>
	<path class="st0" d="M-358.8,179.5c-1,1.1,0.6,2.7,1.6,1.6c0.9-1,2-1.9,3.2-2.6c1.3-0.7,0.1-2.7-1.1-1.9
		C-356.5,177.4-357.8,178.3-358.8,179.5z"/>
</g>
<g>
	<path class="st0" d="M-179.8,218.5c0-6.9-0.1-13.9-0.3-20.8c-0.4-13.2-0.9-26.4-1.7-39.6c-0.5-9.1-4.1-14.7-13.6-16.1
		c-10.6-1.6-21.8-1-32.5-0.4c-4.8,0.3-9.7,0.8-12.6,5.1c-2.8,4.2-3,10.3-3.4,15.2c-1.3,13.8,0.2,27.9-0.1,41.8
		c0,9.1-0.3,18.3,0.5,27.4c0.5,5.7,1.7,10,7.2,12.9c3.8,2,9.6,1.5,13.6,1.5c7.3,0.1,14.5-0.4,21.8-0.6c8.3-0.2,19.3,0.2,20.9-10.4
		C-179.4,229.4-179.8,223.7-179.8,218.5z M-183.2,234c-1.5,7.7-8.6,7.9-15,7.9c-10.2,0.1-20.5,1.1-30.7,0.5c-4.1-0.2-9-1.3-10.9-5.5
		c-1.2-2.5-1-6-1.2-8.8c-0.5-8.1-0.3-16.3-0.3-24.5c0.2-9.1,0.1-18.2-0.2-27.2c-0.2-4.9-0.1-9.7,0.4-14.5c0.5-5.6,0.6-14.1,6.8-16.5
		c4.1-1.6,9.9-1,14.3-1.2c4.5-0.2,9-0.2,13.5-0.1c4.2,0.1,8.9,0.1,13,1.2c6.6,1.8,8.1,6.4,8.5,12.7c1.3,20.4,2.1,40.9,2.1,61.3
		C-182.8,224.1-182.3,229.4-183.2,234z"/>
	<path class="st0" d="M-218.2,151.7c4-0.2,8-0.3,12-0.3c1.4,0,1.4-2.2,0-2.3c-4,0-8,0.1-12,0.3
		C-219.6,149.6-219.6,151.8-218.2,151.7z"/>
	<path class="st0" d="M-201.2,151.2C-201.2,151.2-201.2,151.2-201.2,151.2c1.1-1.1-0.5-2.7-1.5-1.7c0,0,0,0-0.1,0.1
		C-203.8,150.7-202.3,152.3-201.2,151.2z"/>
	<path class="st0" d="M-196.7,151.3C-196.7,151.3-196.6,151.2-196.7,151.3c1.1-1.1-0.5-2.7-1.5-1.7c0,0,0,0-0.1,0.1
		C-199.3,150.7-197.7,152.3-196.7,151.3z"/>
	<path class="st0" d="M-211.3,233.3c-3.1,0-9.2-0.7-9.6,3.7c-0.4,4.1,6.3,3.7,8.8,3.6c2.5-0.1,8.5,0.2,8.7-3.4
		C-203.2,232.6-208.2,233.3-211.3,233.3z M-206.1,237.5c-1,1.1-5.1,0.9-6.5,0.9c-1,0-5.4,0.2-5.7-0.5c-1.3-2.9,5.9-2.3,7-2.3
		C-210.3,235.6-204,235.1-206.1,237.5z"/>
	<path class="st0" d="M-186.5,156.6C-186.5,156.6-186.5,156.6-186.5,156.6c0,0,0-0.1-0.1-0.1c-0.2-0.3-0.5-0.6-1-0.6
		c-16.8,0.1-33.6,0.9-50.4,0.6c-0.5,0-0.8,0.3-1,0.6c0,0,0,0,0,0c0,0,0,0.1,0,0.1c0,0.1-0.1,0.2-0.1,0.4
		c-0.7,11.8,0.5,23.6,0.2,35.4c-0.3,12.6-1,25.1-0.6,37.7c0,0.2,0.1,0.4,0.2,0.5c0.2,0.3,0.5,0.6,1,0.6c8.8-0.2,17.5,0.1,26.3-0.4
		c8.9-0.5,17.7,0.1,26.6-0.1c0.2,0,0.4-0.1,0.5-0.1c0.4-0.1,0.6-0.5,0.6-1c-1.2-24.4-1-48.8-2.1-73.2
		C-186.4,156.9-186.4,156.8-186.5,156.6z M-212,229.3c-8.4,0.4-16.8,0.2-25.2,0.3c-0.3-12.2,0.4-24.3,0.6-36.5
		c0.2-11.4-0.9-22.9-0.3-34.3c16.1,0.2,32.2-0.5,48.3-0.6c1.1,23.6,0.9,47.3,2,71C-195,229.3-203.5,228.8-212,229.3z"/>
	<path class="st0" d="M-226.2,164.7c-2.2,1.8-4,3.9-5.4,6.4c-0.7,1.3,1.2,2.4,1.9,1.1c1.3-2.3,3-4.3,5-5.9
		C-223.5,165.3-225.1,163.8-226.2,164.7z"/>
	<path class="st0" d="M-221.3,165.5c-1.4,1.6-2.7,3.2-4.1,4.8c-0.9,1.1,0.7,2.7,1.6,1.6c1.4-1.6,2.7-3.2,4.1-4.8
		C-218.8,166-220.4,164.4-221.3,165.5z"/>
</g>
<g>
	<path class="st0" d="M-34.3,193c-6.7-6.4-13.1-13-19.5-19.7c-6.3-6.6-12.7-13.2-19.2-19.5c-2.1-2-4.8-5.9-7.7-6.9
		c-2.1-0.7-4.8,0.2-6.9,0.5c-0.1,0-0.1,0-0.2,0c-0.6-0.4-1.3-0.7-2.1-0.8c-2.8-0.6-6.4,0.2-9.2,0.4c-5.6,0.4-11.2,0.9-16.8,1.7
		c-4.2,0.6-9.9,0.1-11,5c-1.2,5.2-1.6,10.8-2.1,16.1c-0.5,4.9-1,10.9-0.2,15.7c1.3,8.2,11.1,15.2,16.7,20.4
		c7.7,7.1,15.1,14.6,22.6,21.9c3,3,6.1,5.9,9.2,8.7c1.3,1.1,3.1,3.2,4.9,3.6c0.2,0,0.3,0,0.4,0c0.1,0,0.2,0,0.4,0
		c1.2-0.2,2.3-1.2,3.3-2c5.2,5.7,11.9-3.7,15.5-7.1c4.7-4.5,9.3-9.2,13.9-13.8c4.3-4.4,9.2-8.7,12.9-13.5
		C-25.8,198.8-31,196.2-34.3,193z M-75.3,237.1c-1.2-0.5-2.4-1.9-3.2-2.7c-2.3-2-4.4-4.1-6.6-6.2c-5.7-5.5-11.2-11-16.9-16.5
		c-5.9-5.7-12.2-11.1-17.9-17c-2.9-3-5.9-6.2-6.5-10.5c-0.5-4-0.2-8.6,0.1-12.7c0.4-4.8,0.6-10.2,1.9-14.9c1.2-4.6,3.3-4.2,7.3-4.8
		c3.5-0.5,7-0.9,10.5-1.2c4.5-0.4,10.3-1.8,14.7-1c5.7,0.9,11.5,9,15.4,12.9c7.8,7.8,15.3,15.8,23.1,23.6c3.8,3.8,7.6,7.6,11.5,11.3
		c2.1,2,3.4,2.9,1.1,5.6c-1.3,1.5-2.7,2.8-4,4.2c-6.1,6.4-12.2,12.7-18.5,18.9c-2.6,2.5-5.2,5.1-7.9,7.5
		C-72.1,234.6-73.8,236.6-75.3,237.1z M-31.2,201c-0.1,0.6-2,2.3-2.5,2.9c-6.9,7.3-13.9,14.5-21.1,21.5c-2.9,2.8-5.8,5.6-8.8,8.3
		c-1.9,1.7-3.7,4.4-5.9,2.4c2.1-1.8,4.1-3.8,6.1-5.7c6.9-6.7,13.6-13.6,20.2-20.5c2-2.1,6.4-5.5,7.1-8.5c0.8-3.5-4.5-6.7-6.6-8.7
		c-9.8-9.4-19.1-19.3-28.6-29c-4.4-4.5-8.8-8.8-13.3-13.2c-0.2-0.2-0.4-0.4-0.6-0.6c0.7-0.1,1.5-0.2,2.1-0.1
		c2.1,0.3,4.1,2.8,5.6,4.1c2.5,2.4,4.9,4.8,7.3,7.2c4.9,4.9,9.7,9.9,14.6,14.9c4.9,5.1,9.8,10.1,14.8,15c2.5,2.4,5.5,4.7,7.6,7.3
		C-32.2,199.3-31,199.7-31.2,201z"/>
	<path class="st0" d="M-107.8,160.8c-1.1-3.8-4.7-4.3-7.9-3.1c-0.1,0-0.3,0.1-0.4,0.2c-2.8,1.7-4.3,5-3.1,8.2
		c1.3,3.2,4.2,4.6,7.3,2.9C-109.1,167.3-106.9,164-107.8,160.8z M-113,166c-1.6,1.1-2.9,0.6-3.5-1.3c-0.5-1.7,0.4-3.3,1.8-4.2
		c1.7-0.6,3.7-0.9,4.1,1.4C-110.3,163.5-111.7,165.1-113,166z"/>
	<path class="st0" d="M-93.3,182.9c-0.5-2-1.9-3.8-2.4-5.8c-0.9-3.6,4-5.5,6-2.6c0.6,0.9,1,2,0.9,3.1c-0.1,1.9,2.9,1.9,3,0
		c0.3-5.6-7.1-11.3-11.6-6.4c-2.3,2.5-1.6,6-0.4,8.8c0.5,1.2,1.4,2.5,1.7,3.8c0.9,3.6-2.2,6.1-5.7,5c-4-1.3-7.3-6.4-4.7-10.2
		c1.1-1.6-1.5-3.1-2.6-1.5c-4.6,6.9,4.6,18.5,12.3,15C-93.5,190.4-92.4,186.3-93.3,182.9z"/>
	<path class="st0" d="M-82,194.3c-1.2-1.2-2.5-2.4-3.7-3.5c0.8-0.8,1.6-1.6,2.5-2.4c1.5-1.4,1.8-1.8,4.1-1.6
		c2.4,0.2,3.3,1.2,4.9,2.9c1.3,1.4,3.5-0.7,2.1-2.1c-2.2-2.3-4.9-4.8-8.4-4.2c-3.6,0.6-6.7,4.7-9.1,7.2c-2,2.1-5.6,5.1-5.2,8.3
		c0.4,3.4,4.1,6.7,6.7,8.4c1.6,1.1,3.1-1.5,1.5-2.6c-1-0.7-2-1.5-2.7-2.4c-0.9-1.1-2.4-3.5-2.2-4.9c0.2-1.2,2.5-3.2,3.8-4.5
		c1.2,1.2,2.5,2.4,3.7,3.5C-82.7,197.8-80.6,195.7-82,194.3z"/>
	<path class="st0" d="M-60,199.7c-0.1-0.1-0.1-0.2-0.2-0.2c0,0,0-0.1-0.1-0.1c-8.4-9.4-28.8,5.2-20.3,16.4
		C-71.6,227.6-53.1,210.5-60,199.7z M-62.5,201.3c4.9,8.1-10.2,22-16.1,12C-83.5,205.2-68.5,195.1-62.5,201.3z"/>
	<path class="st0" d="M-99.4,160.6c3.5,0,7-0.1,10.4-0.1c1.4,0,1.5-2.3,0-2.3c-3.5,0-7,0.1-10.4,0.1
		C-100.8,158.4-100.8,160.6-99.4,160.6z"/>
	<path class="st0" d="M-93.5,162.3c-1.4-0.1-1.4,2.2,0,2.3c2,0.1,4-0.1,6-0.4c1.4-0.3,0.8-2.4-0.6-2.2
		C-89.9,162.2-91.7,162.3-93.5,162.3z"/>
	<path class="st0" d="M-72.4,223.6c-2.4,0.2-4.8,0.4-7.2,0.5c-1.4,0-1.5,2.3,0,2.3c2.4-0.1,4.8-0.2,7.2-0.5
		C-71,225.7-71,223.4-72.4,223.6z"/>
	<path class="st0" d="M-74.5,227.5c-0.8,0.3-1.6,0.5-2.4,0.6c-0.6,0.1-0.9,0.8-0.8,1.4c0.2,0.6,0.8,0.9,1.4,0.8
		c0.8-0.1,1.6-0.3,2.4-0.6c0.6-0.2,1-0.8,0.8-1.4C-73.2,227.7-73.9,227.3-74.5,227.5z"/>
</g>
<g>
	<path class="st1" d="M13.9,210.1c4.1,0.1,8.8,0.6,9.3-4.5c0.6-6.2,0.1-12.7,0.2-18.9c0-3,1.7-10-2-11.4c-2.1-0.8-5.6-0.4-7.9-0.7
		c-2.2-0.3-4.4-0.3-6.7-0.2c-4,0.1-5.9,0.3-5.9,4.6c0,6-0.5,12.1-0.5,18.1C0,200-0.4,205.6,1.1,208C3.5,211.5,10.6,210.1,13.9,210.1
		z M6.2,177.5c3.1-0.3,6.2,0.2,9.3,0.5c1.3,0.1,4.1-0.4,4.9,0.7c0.7,0.9,0,5.6,0,6.7c0,3.6-0.1,7.3-0.1,10.9c0,2.2,0,4.5-0.1,6.7
		c0,3.7-1.2,4.3-4.9,4.3c-2.3,0-7,0.8-9.8-0.2c0.8-0.6,1.5-1.3,2.1-2.1c0.9-1.1-0.7-2.7-1.6-1.6c-0.7,0.8-1.5,1.6-2.3,2.3
		c0,0-0.1-0.1-0.1-0.1c-0.4-0.9-0.5-2.2-0.5-3.6c1.2-1.1,2.5-2.2,3.7-3.2c1.1-0.9-0.5-2.5-1.6-1.6c-0.7,0.6-1.4,1.2-2.1,1.8
		c0-0.6,0.1-1.2,0.1-1.7c0-0.7,0-1.3,0-2c1.5-1.4,3-2.8,4.7-4.1c1.1-0.9-0.5-2.5-1.6-1.6c-1,0.8-2,1.6-3,2.5c0-0.8,0.1-1.7,0.1-2.5
		c1.4-1.1,2.7-2.2,4.1-3.4c1.1-0.9-0.5-2.5-1.6-1.6c-0.8,0.6-1.6,1.3-2.3,1.9c0-0.5,0.1-1,0.1-1.5c0-0.4,0-0.8,0-1.2
		c1.2-0.9,2.4-1.8,3.6-2.6c1.2-0.9,0-2.8-1.1-1.9c-0.8,0.6-1.7,1.2-2.5,1.8c0-0.4,0-0.8,0-1.1C3.9,177.7,4,177.7,6.2,177.5z"/>
	<path class="st1" d="M32.2,207.3c1.5,3.4,6.1,2.6,9.1,2.5c3.1-0.1,9.5,1.1,12.1-0.9c2.6-2,1.2-9.1,1.2-11.9
		c0-6.7,0.1-13.4,0.1-20.1c0-3.3,0-6.5,0-9.8c0-1.5,0.5-4.2-0.4-5.6c-1.6-2.4-7.5-1.6-10-1.9c-2.6-0.3-8.8-1.2-11.1,0.5
		c-2.4,1.8-1.1,8.4-1.1,11c-0.2,7-0.6,14-0.5,21c-0.2,2.9-0.1,5.7,0.1,8.6C31.7,202.8,31.4,205.5,32.2,207.3z M35,163.2
		c1.4-2.1,9.2-0.5,11.2-0.2c2.2,0.3,4.6-0.5,5.5,1.5c0.8,1.8,0,6,0,7.8c0,5.9-0.1,11.8-0.1,17.7c0,2.9,0,5.8,0,8.6
		c0,1.5,0.8,6.2-0.1,7.5c-0.9,1.3-8.1,1.2-12,1c1.1-0.8,2.2-1.6,3.3-2.4c1.2-0.8,0-2.8-1.1-1.9c-1.8,1.3-3.6,2.6-5.3,3.9
		c-0.8-0.4-1.2-1-1.4-1.7c2.2-1.6,4.3-3.3,6.4-5.1c1.1-0.9-0.5-2.5-1.6-1.6c-1.6,1.4-3.2,2.7-4.9,4c0-0.4,0-0.9,0-1.3
		c0-0.5,0-0.9-0.1-1.4c2-2.2,4.2-4.2,6.6-5.9c1.2-0.8,0-2.8-1.1-1.9c-2,1.4-3.9,3-5.6,4.7c0-0.8,0-1.6,0-2.4
		c1.7-1.9,3.6-3.6,5.6-5.2c1.1-0.9-0.5-2.5-1.6-1.6c-1.4,1.1-2.7,2.3-4,3.5c0-1.2,0-2.4,0-3.6c1.6-1.7,3.4-3.1,5.3-4.4
		c1.2-0.8,0.1-2.7-1.1-1.9c-1.4,0.9-2.8,2-4.1,3.2c0-0.9,0.1-1.9,0.1-2.8c1.6-1.7,3.4-3.3,5.4-4.6c1.2-0.8,0.1-2.8-1.1-1.9
		c-1.5,1-2.8,2.1-4.1,3.3c0-0.5,0-0.9,0.1-1.4c0-0.5,0-1,0-1.5c1.4-1.7,3.1-3.3,4.9-4.6c1.2-0.8,0.1-2.8-1.1-1.9
		c-1.3,0.9-2.5,2-3.7,3.1c0-0.7,0-1.4,0-2.2c1.3-1.3,2.7-2.6,4.3-3.6c1.2-0.8,0.1-2.8-1.1-1.9c-1.1,0.8-2.2,1.6-3.2,2.6
		C34.9,165.2,34.7,163.7,35,163.2z"/>
	<path class="st1" d="M64,204.7c0.2,2.4,0.5,3.9,2.9,4.8c2.4,0.9,5.5,0.6,8,0.7c3.1,0.1,6.6,0.3,9.4-1c3.8-1.7,2.3-8.1,2.3-11.7
		c0-7.4,0.1-14.7,0.1-22.1c0-7.5,0.1-14.9,0.1-22.4c0-3.2,1.6-11-2-12.4c-2.6-1-6.5-0.6-9.3-0.8c-2.5-0.2-6.2-0.5-8.7,0.2
		c-4,1.1-2.4,6.8-2.4,10.1c-0.1,14.1-0.8,28.1-0.6,42.2C63.4,196.4,63.6,200.6,64,204.7z M67.2,144.3c0.6-2.4,4.8-1.8,7.1-1.7
		c1.9,0.1,6.7,0,8.3,0.7c1.8,0.8,1.3,2.4,1.3,4.5c0,5.1-0.1,10.2-0.1,15.4c-0.1,11.9-0.1,23.8-0.2,35.7c0,1.6,0.7,5.2,0,6.7
		c-1.1,2.4-6.6,1.6-8.7,1.5c-1.2,0-2.7,0.1-4,0c0.5-0.4,0.9-0.8,1.3-1.3c1-1.1-0.6-2.7-1.6-1.6c-0.7,0.8-1.5,1.5-2.4,2.2
		c-0.2-0.1-0.4-0.3-0.6-0.5c1.1-1.2,2.2-2.3,3.3-3.4c1.1-1-0.5-2.6-1.6-1.6c-0.9,0.8-1.7,1.7-2.6,2.6c-0.1-0.7-0.2-1.4-0.2-2.1
		c1.3-1.1,2.6-2.2,3.9-3.2c1.1-0.9-0.5-2.5-1.6-1.6c-0.8,0.7-1.6,1.3-2.5,2c0-0.5,0-0.9,0-1.4c2-1.5,4-3,5.9-4.6
		c1.1-0.9-0.5-2.5-1.6-1.6c-1.4,1.1-2.8,2.2-4.2,3.3c0-0.7,0.1-1.4,0.1-2.1c0-0.4,0-0.7,0-1.1c1.5-1.4,3.1-2.6,4.8-3.8
		c1.2-0.8,0.1-2.8-1.1-1.9c-1.3,0.9-2.5,1.8-3.7,2.8c0-0.8,0-1.6,0-2.4c1.4-1,2.7-2.1,4.1-3.2c1.1-0.9-0.5-2.5-1.6-1.6
		c-0.8,0.7-1.6,1.3-2.5,1.9c0-0.9,0-1.8,0-2.7c1.5-1.4,3.1-2.7,4.7-3.9c1.2-0.8,0.1-2.8-1.1-1.9c-1.2,0.9-2.4,1.8-3.6,2.8
		c0-1.3,0.1-2.6,0.1-4c1.1-1,2.2-2,3.4-2.8c0.5-0.4,0.7-1,0.4-1.5c-0.3-0.5-1.1-0.8-1.5-0.4c-0.7,0.5-1.5,1.1-2.2,1.7
		c0-0.6,0-1.2,0-1.9c1.7-1.3,3.5-2.5,5.3-3.5c1.3-0.7,0.1-2.7-1.1-1.9c-1.4,0.8-2.8,1.7-4.1,2.7c0-0.9,0-1.8,0.1-2.7
		c0-0.1,0-0.2,0-0.3c1.3-1.1,2.6-2.3,3.8-3.4c1.1-1-0.5-2.6-1.6-1.6c-0.7,0.7-1.5,1.3-2.2,2c0-1.1,0-2.3,0.1-3.4c1-1,2.1-2,3.2-2.9
		c0.5-0.4,0.4-1.2,0-1.6c-0.5-0.5-1.1-0.4-1.6,0c-0.6,0.4-1.1,0.9-1.6,1.4c0-1,0-2,0-2.9c1.5-1.1,2.9-2.2,4.3-3.5
		c1.1-1-0.5-2.6-1.6-1.6c-0.9,0.8-1.8,1.5-2.7,2.3C67.1,146.3,67,145.1,67.2,144.3z"/>
	<path class="st1" d="M88.3,213.8c-14.8,0.6-29.6,0.6-44.4,0.3c-14-0.3-28.1-1.3-42.1-1c-1.4,0-4.7,0.6-5.8-0.1
		c-1.3-0.8-1.2-4.1-1.3-5.3c-0.2-3.1-0.3-6.3-0.3-9.4c-0.2-6.2-0.1-12.5-0.1-18.7c0.1-12.7,0.4-25.4,0.1-38.1c0-1.9-3-1.9-3,0
		c0.3,14-0.1,27.9-0.2,41.9c0,6.6,0,13.3,0.3,19.9c0.2,4-1.2,11.1,3.7,12.6c2.5,0.8,5.6,0.2,8.2,0.1c3.6-0.1,7.2,0,10.9,0.1
		c8,0.3,15.9,0.6,23.9,0.8c16.7,0.4,33.4,0.4,50.1-0.2C90.3,216.7,90.3,213.7,88.3,213.8z"/>
</g>
<g>
	<path class="st0" d="M238.8-133.7c-17.4,6.4-33.7,15.3-50.6,23.1c-18,8.3-35.5,17.4-53.3,26c-1.1,0.5-0.9,2.6,0.4,2.7
		c11.7,1.6,23.1,4.2,34.6,6.8c0.2,11.7-0.1,23.4,0.1,35.1c0,1.6,2,1.9,2.8,0.8c6.1-8.7,12.2-17.4,18.7-25.8
		c9.1,5.5,18.2,10.9,26.8,17c0.8,0.5,2,0,2.2-0.9c2.7-14,5.5-27.7,9.4-41.4c4-13.8,7.7-27.6,10.8-41.6
		C240.9-132.8,240-134.1,238.8-133.7z M180.1-74.5c-0.4,0.3-0.7,0.7-0.7,1.2c-0.6,1.1-1,2.3-1.5,4.1c-1.8,7.1-3,14.4-5,21.4
		c0-9.4,0.2-18.8,0-28.2c17.8-15.7,36.2-30.9,54.8-45.7c-11.1,11-22.2,21.9-33.3,32.9c-3.4,3.4-6.9,6.7-10.3,10.1
		C182.3-77.1,181.1-75.9,180.1-74.5z M231.4-127.5c-20.4,16-40.5,32.6-60,49.7c-10.2-2.4-20.4-4.7-30.8-6.3
		c15.8-7.7,31.5-15.8,47.5-23.2C202.6-113.9,216.7-121.4,231.4-127.5z M175.3-47.9c1.7-6.3,2.9-12.7,4.4-19c0.4-1.6,0.7-3.1,1.3-4.5
		c2.6,1.6,5.3,3.3,8,4.9C184.2-60.4,179.7-54.2,175.3-47.9z M227-91c-3.7,13-6.5,26-9,39.2c-11.5-8-23.7-14.9-35.5-22.2
		c0.1-0.1,0.2-0.2,0.3-0.3c1.4-1.6,3.1-3.1,4.7-4.6c3.5-3.4,6.9-6.8,10.4-10.2c12.9-12.7,25.9-25.5,38.8-38.2
		C233.8-115.1,230.5-103.1,227-91z"/>
	<path class="st0" d="M161.1-84.9c3.6-2,7.2-4,10.8-6c1.3-0.7,0.1-2.6-1.1-1.9c-3.6,2-7.2,4-10.8,6
		C158.7-86.1,159.9-84.2,161.1-84.9z"/>
	<path class="st0" d="M171.4-87.9c-1.7,0.9-3.4,1.8-5.1,2.6c-1.3,0.7-0.1,2.6,1.1,1.9c1.7-0.9,3.4-1.8,5.1-2.6
		C173.8-86.7,172.6-88.6,171.4-87.9z"/>
</g>
<g>
	<path class="st0" d="M238.9-204.5c-0.1-0.1-0.1-0.2-0.2-0.3c-2.4-2.5-5.4-5.2-8.4-7c-0.5-0.3-1-0.2-1.5,0c-0.3,0.2-0.7,0.4-1,0.6
		c-1.3-1.3-2.5-2.9-4.4-2.5c-0.4,0.1-0.9,0.3-1.3,0.6c-2.9-4.2-4.1-8.6-5.6-13.4c-1.4-4.4-3.9-8.1-7-11.4c-2.3-2.4-5.3-6.5-8.9-7
		c-2.4-0.3-4.5,0.9-5.7,2.8c-3.5-2.1-7.8-1.1-9.4,2.6c-3.1-1.3-6.6-0.2-8.4,2.7c-6.2-6-11.4-13.4-18.3-18.5
		c-4.9-3.6-12.5-0.3-9.5,6.2c2,4.4,6.7,7.7,10,11.1c2.4,2.4,4.7,4.8,7,7.3c1.8,1.9,3.6,3.8,5.5,5.7c-2.9,8.2,0.1,16.2,8.4,19.8
		c4.2,1.8,8.7,2.5,13.2,3.3c4.1,0.8,7.2,3.5,10.2,6.4c-0.3,0.4-0.5,0.8-0.6,1.1c-0.5,1.9,1.5,3.8,2.9,5.2c-0.1,0.2-0.3,0.3-0.4,0.5
		c-0.5,0.6-0.6,1.5,0,2.1c2.8,2.9,5.5,5.9,8.3,8.8c0.5,0.5,1.2,0.5,1.8,0.2c3-1.4,5.4-4.5,7.7-6.9c2.8-2.9,5.5-5.8,8.4-8.5
		C233.8-195.1,241.6-200.6,238.9-204.5z M205.6-197.7c-4.1-3.9-7.8-6.4-13.5-7.4c-9.7-1.6-21.5-6-18-17.6c1.7,1.6,3.3,3.3,5,4.9
		c1.4,1.4,3.5-0.8,2.1-2.1c-6.5-6.4-12.8-13.1-19.2-19.6c-2.8-2.8-7.2-5.9-9.1-9.4c-1.2-2.2-1.5-4.4,1.5-4.6
		c1.9-0.1,2.4,0.4,3.8,1.6c1.1,1,2.1,2.1,3.2,3.1c5.2,5.2,9.9,10.8,15.4,15.7c0.8,0.7,2.2,0.5,2.5-0.7c0.7-3,2.8-3.8,6.2-2.4
		c1.1,0.9,2.4,0.3,2.6-1.1c0.7-3.2,2.9-3.6,6.5-1.4c0.8,0.8,2.2,0.4,2.5-0.7c1.7-6.6,9.1,2,10.7,3.8c2.5,2.7,4.6,5.8,5.8,9.3
		c1.9,5.4,3,10.3,6.4,15c-0.2,0.1-0.3,0.3-0.4,0.4c-2.2,1.8-4.3,3.6-6.3,5.6c-1.8,1.8-3.5,3.6-5.2,5.4
		C207.3-199.2,206.5-198.5,205.6-197.7z M206.3-193.5c0-0.6,1.4-1.7,2.1-2.5c2.2-2.4,4.5-4.8,6.8-7.1c2.5-2.4,5.1-4.7,7.9-6.9
		c1.5-1.1,1.4-0.7,2.4,0.5c-2.3,2.2-4.3,5-6.4,7c-3.8,3.7-7.6,7-11.1,10.9C207.3-192.2,206.3-193.4,206.3-193.5z M215.1-180.8
		c-2.2-2.3-4.3-4.6-6.5-6.9c4.9-5.7,10.7-10.4,15.8-15.9c1.1-1.1,2.1-2.3,3.2-3.4c0.6-0.6,2-1.7,1.9-1.7c1.3,0.1,6,5,7,6
		C236.9-202.3,220-184.6,215.1-180.8z"/>
	<path class="st0" d="M213.3-190.2c-0.1,0.1-0.1,0.1-0.2,0.2c-0.1,0.1-0.1,0.2-0.1,0.2c-0.9,1.6-0.8,3.6,0.9,4.7
		c1.6,1,3.7,0.4,4.7-1.1c1-1.5,0.7-3.7-0.7-4.9C216.5-192.4,214.4-191.5,213.3-190.2z M216.6-187.4c-0.4,0.5-1,0.7-1.5,0.4
		c-0.8-0.5-0.4-1.3,0-1.9c0.4-0.5,1.1-0.9,1.5-0.2C217-188.6,217-187.9,216.6-187.4z"/>
	<path class="st0" d="M169-252.2c1.4-12.6-15.5-16-23.1-8.7c-8.6,8.1-4.8,25.5,8.8,24.1c1.4-0.1,1.4-2.4,0-2.3
		c-11.7,1.2-14.4-13.5-7.2-20.3c6.4-5.9,20.5-3.5,19.3,7.1C166.6-250.8,168.8-250.8,169-252.2z"/>
	<path class="st0" d="M158.4-234.9c-5.7,2.3-12.8,0.1-17-4.3c-6.2-6.6-3.9-18.1,1.8-24.3c5.5-6,14.2-7.2,21.3-3.3
		c6.4,3.5,10.9,13,7,19.8c-0.7,1.3,1.2,2.4,1.9,1.1c4.3-7.3,0.5-17.1-6.1-21.8c-7.6-5.3-18.1-4.7-24.8,1.6
		c-6.8,6.4-9.7,18.1-4.3,26.4c4.1,6.4,13.7,9.8,20.8,6.9C160.3-233.3,159.7-235.4,158.4-234.9z"/>
	<path class="st0" d="M228.7-204.2c-0.7-1.2-2.7-0.1-1.9,1.1c0.6,1.1,1.2,2.1,1.9,3.2c0.7,1.2,2.7,0.1,1.9-1.1
		C229.9-202.1,229.3-203.1,228.7-204.2z"/>
	<path class="st0" d="M232-204.7c-0.2-0.6-1.1-0.7-1.5-0.4c-0.6,0.3-0.7,1-0.4,1.5c0.5,1,0.9,2.1,1.4,3.1c0.2,0.6,1.1,0.7,1.5,0.4
		c0.6-0.3,0.7-1,0.4-1.5C232.9-202.6,232.4-203.7,232-204.7z"/>
</g>
<g>
	<path class="st1" d="M158.1,82c2.3-2.4,4.6-4.7,6.7-7.3c1-1.2,1.4-2.3,0.9-3.7c0-0.2-0.1-0.5-0.3-0.6c-0.2-0.3-0.5-0.4-0.7-0.4
		c-3.8-1.4-7,3.4-9.4,5.8c-3,3.1-7,6.5-8.2,10.7c-0.1,0.4,0,0.8,0.3,1.1C151.2,91.4,155.8,84.4,158.1,82z M152,85.1
		c-0.6,0.6-2.4,2-2.5,1.7c-0.3-1.2,2.1-3.6,2.9-4.5c1-1.1,2-2.3,3-3.4c1.2-1.2,5.9-7.3,8.3-7c-0.1,1.9-5.8,7-6.8,8
		c-1.1,1.1-2.1,2.2-3.2,3.4C153.1,83.9,152.6,84.6,152,85.1z"/>
	<path class="st1" d="M163.1,80.4c-2.4,2.5-4.7,5-7,7.5c-1.8,1.9-2.9,3-2.5,5.6c0,0,0,0,0,0c0,0,0,0.1,0,0.1
		c0.1,0.4,0.3,0.6,0.5,0.7c3.2,2.8,8.8-4.6,10.6-6.5c1.9-2,9-7.9,7.2-11.3C169.6,72.6,164.4,79.1,163.1,80.4z M155.7,92.6
		c0.2-2.6,5-6.4,6.6-8.1c0.9-1,6-7,6.8-6.1C170.3,79.8,157.9,92.1,155.7,92.6z"/>
	<path class="st1" d="M227.6,76.7c-9.3-9.3-19.3-17.9-29.3-26.5c5.9-5.8,11.7-11.6,17.5-17.6c1.3-1.3,2.6-2.9,4-4.1
		c2-1.8,3.1-1.5,5.5-2c0.8-0.2,1.5-0.2,2.2-0.6c2.7-1.8,4.6-7.1,6-9.9c1.4-2.7,1.2-3.3-0.9-5.6c-2.2-2.3-3.2-4-6-2.5
		c-3.3,1.7-8.4,3.8-10.9,6.6c-0.7,0.8-0.6,1-1,1.9c0,0.7,0,1.3,0,2c-0.4,1.8-1.4,3.3-2.7,4.4c-1.1,1.3-2.5,2.5-3.7,3.7
		c-5.8,5.8-11.6,11.6-17.3,17.4c-4.7-4.1-9.3-8.3-13.7-12.6c4.2-6.2,4.9-14.2,0.2-20.4c-4.9-6.5-11.5-8.4-19.1-6.8
		c-1,0.2-1.4,1.4-0.9,2.2c1.5,2.5,2.8,4.9,4.2,7.4c0.5,0.8,0.9,1.8,1.4,2.6c0.4,0.5,0.5,1,0.5,1.2c-0.5,2.4-1.9,5.1-2.9,7.4
		c-1.4-0.1-2.9-0.1-4.3-0.2c-0.9,0-2.5-0.4-3.3-0.2c0,0-0.1,0-0.1,0c-2.3-3.5-4.3-7.2-6.4-10.8c-0.5-0.9-1.6-0.9-2.4-0.3
		c-6.3,5.6-6.4,15.9-1.3,22.3c5.9,7.4,14.6,8.2,22.9,5.8c4.5,4.6,9,9.2,13.5,13.9c-0.5,0.5-1,1-1.5,1.5c-1.8-1.7-3.6-3.3-5.5-4.9
		c-0.6-0.5-1.5-0.6-2.1,0c-1.3,1.2-2.8,2.7-3.6,4.3c-1.2,2.3-0.1,4.7-0.9,7.2c-0.3,0.9-6,1-7.3,1.6c-2.2,1-4.2,3.1-5.9,4.7
		c-2.5,2.3-4.8,4.8-6.9,7.4c-1.6,1.9-4.3,4.5-5.4,6.7c-1.6,3.3,2,6.2,4.1,8.5c2.8,3.2,6.8,8,10.6,9.9c4.1,2,7-2.8,9.6-5.4
		c3.9-3.9,8.1-7.8,11.4-12.3c1-1.4,1.6-2.4,1.8-4.1c0.3-3.2-1.1-4.5,3.1-5.1c3.7-0.5,5.9-2,8.5-4.9c0.6-0.6,0.6-1.5,0-2.1
		c-1.5-1.6-3.1-3.2-4.6-4.8c0.5-0.4,0.9-0.9,1.4-1.3c5.6,5.8,11.3,11.6,16.9,17.4c3,3.1,6.1,6.3,9.2,9.4c3.1,3.1,6.1,7,10.2,8.7
		c5.8,2.4,11.5-0.9,13.1-6.8C236.9,85.1,231.3,80.5,227.6,76.7z M206.7,31.3c3-3,8.7-6.8,10.1-10.9c0.3-1.1-0.1-3.3,0.1-3.8
		c0.6-1.1,3.4-2.3,4.4-2.9c1.6-1,3.2-1.9,4.8-2.8c2.1-1.2,2.1-1.6,3.9,0.2c1.4,1.4,2.2,1.8,1.8,3.6c-0.4,1.5-1.8,3.3-2.6,4.7
		c-0.7,1.3-1.5,3.3-2.7,4.3c-1.3,1.1-3,0.9-4.5,1.2c-4.4,0.9-7.5,6-10.5,9.1c-4.9,5-9.9,10-14.9,14.9c-1.3-1.1-2.6-2.3-3.9-3.4
		C197.4,40.7,202,36,206.7,31.3z M152.8,24.7C152.2,24.8,152.4,24.5,152.8,24.7L152.8,24.7z M184.4,71c-2.4,1.7-3.9,0.9-6.6,1.4
		c-2.6,0.4-3.4,1.8-3.4,4.3c0,2.1,0.5,3.7-0.6,5.7c-1.1,2-3.1,3.7-4.6,5.4c-1.9,2-3.8,3.9-5.7,5.9c-1.2,1.2-2.5,2.5-3.7,3.7
		c-1.4,1.4-1.4,1.8-3.4,1.6c-3.4-0.5-7.4-5.5-9.7-8.1c-1.4-1.6-3.9-3.6-3.4-5.9c0.4-2.1,4.5-5.7,5.9-7.4c3.3-3.7,7.8-9.6,13-10.1
		c2.6-0.2,5.3-0.1,6.3-3.1c0.7-2.1,0-3.9,0.5-5.9c0.3-1.2,1.3-2.3,2.3-3.3c5.2,4.5,10.1,9.4,14.8,14.4C185.6,70.1,185,70.6,184.4,71
		z M183,62.1c-1.2-1.2-2.4-2.3-3.5-3.5c0.5-0.5,1-1,1.4-1.4c1.2,1.2,2.3,2.4,3.5,3.6C183.9,61.2,183.5,61.6,183,62.1z M231.9,89.5
		c-0.4,4-2.9,7.1-7.5,6c-3.3-0.8-5.9-3.9-8.2-6.3C204,76.9,192,64.3,180,51.9c-4.2-4.3-8.4-8.7-12.6-13c0,0,0,0,0,0
		c-0.3-0.4-0.8-0.5-1.4-0.4c-6.8,2.2-13.2,2.5-19-2.7c-5.2-4.7-6.3-13.2-1.9-18.7c1,1.7,2.1,3.5,3.1,5.2c0.8,1.3,1.7,4,3,4.8
		c2.4,1.6,7.8,0.8,10.7,0.9c0.7,0,1.2-0.5,1.4-1.1c1-2.6,3.7-7,3.6-9.8c-0.1-1.3-1.4-2.8-2-3.9c-1.2-2.2-2.4-4.3-3.7-6.5
		c5.2-0.6,9.7,0.9,13.4,5.3c4.8,5.6,3.8,13.1-0.5,18.8c-0.4,0.5-0.2,1.4,0.2,1.8c12.9,12.6,26.6,24.2,40.1,36.1
		c5.4,4.8,11,9.5,15.6,15.1C231.8,85.9,232.2,86.3,231.9,89.5z"/>
	<path class="st1" d="M226.9,84c-2-1.5-4.5-0.4-6,1.3c-0.1,0.1-0.2,0.2-0.2,0.3c-0.1,0.2-0.2,0.3-0.2,0.5c-0.8,2-0.3,4.5,1.7,5.7
		c2.2,1.3,4.9,0.3,6.4-1.6C230.3,88,228.9,85.4,226.9,84z M226.4,89.2c-0.8,0.7-2,1.2-3,0.7c-1.2-0.6-1.4-2.1-0.8-3.2
		c0.8-1.1,2.1-1.7,3.2-0.8C226.9,86.8,227.6,88.1,226.4,89.2z"/>
</g>
<g>
	<path class="st0" d="M223.3,187.3c2.7-5.4,0.9-12.7-4.5-16.1c-5.2-3.3-10.9-2.1-14.9,1.6c-0.8-16.7-22.5-25.4-37.4-20.5
		c-16.9,5.6-21.3,24.2-13.4,38.3c-8.5-2.1-17.2,4.5-15.8,14.6c1.8,13.1,15.4,13.8,26,13.5c1.9-0.1,1.9-3.1,0-3
		c-7.1,0.2-16.4,1-21-5.6c-2.4-3.4-3-8.5-1.1-12.2c3-5.6,10.5-6.2,15.2-2.5c1.5,1.2,3.4-0.6,2.1-2.1c-10.6-12.6-7.9-32.6,8.7-38.1
		c14.1-4.7,37.2,4.3,33.2,22.5c-0.3,1.6,2,2.8,2.7,1.2c2.3-4.7,6.9-8.1,12.3-5.9c6.1,2.5,8.2,11,3,15.6c-1.1,1,0.1,3.1,1.5,2.5
		c12.3-4.8,19.9,13.6,9.7,20.7c-5.2,3.6-12.5,4.2-18.6,4.1c-1.9,0-1.9,3,0,3c9.4,0.2,22.6-1.7,25.9-12.1
		C240,197.5,232.7,186.8,223.3,187.3z"/>
	<path class="st0" d="M177.7,199.5c-0.4-0.4-1.2-0.4-1.6,0c-2.9,3.5-5.8,6.8-8.6,10.4c-0.5,0.7,0.2,1.7,1,1.7c0.9,0,1.9,0,2.8,0
		c0.1,5.8-0.1,11.6,0,17.4c0,0.4,0.2,0.7,0.5,0.9c0.2,0.1,0.4,0.2,0.6,0.2c3.1,0.1,6.2,0.2,9.3,0c0.6,0,1.1-0.5,1.1-1.1
		c-0.1-5.8,0-11.6,0-17.4c0.8,0,1.6,0,2.4,0c0.8,0,1.5-1,1-1.7C183.5,206.4,180.6,203,177.7,199.5z M173.6,228
		c-0.1-5.8,0.1-11.6,0-17.4c0-0.6-0.5-1.1-1.1-1.1c-0.5,0-1.1,0-1.6,0c2-2.5,4-4.9,6.1-7.4c2,2.4,4.1,4.9,6.1,7.4
		c-0.4,0-0.8,0-1.3,0c-0.6,0-1.1,0.5-1.1,1.1c0,5.8-0.1,11.6,0,17.5C178.3,228.1,175.9,228.1,173.6,228z"/>
	<path class="st0" d="M206.4,223.1c-0.8,0-1.6,0-2.4,0c0-5.8-0.1-11.6,0-17.4c0-0.6-0.5-1.1-1.1-1.1c-3.1-0.2-6.2-0.1-9.3,0
		c-0.2,0-0.4,0.1-0.6,0.2c-0.3,0.2-0.5,0.5-0.5,0.9c-0.1,5.8,0.1,11.6,0,17.4c-0.9,0-1.9,0-2.8,0c-0.8,0-1.5,1-1,1.7
		c2.7,3.6,5.7,6.9,8.6,10.4c0.4,0.4,1.2,0.4,1.6,0c2.9-3.3,5.5-6.9,8.4-10.2C207.9,224.3,207.4,223.2,206.4,223.1z M192,225.4
		c0.5,0,1.1,0,1.6,0c0.6,0,1.1-0.5,1.1-1.1c0.1-5.8-0.1-11.6,0-17.4c2.3-0.1,4.7-0.1,7,0c-0.1,5.8,0,11.6,0,17.5
		c0,0.6,0.5,1.1,1.1,1.1c0.4,0,0.8,0,1.2,0c-2,2.4-4,4.9-6,7.4C196,230.3,194,227.9,192,225.4z"/>
	<path class="st0" d="M171.3,162.2c1.4-0.2,1.4-2.4,0-2.3c-8.2,0.9-15.1,10-13.2,18.1c0.3,1.4,2.5,0.8,2.2-0.6
		C158.7,170.9,164.6,162.9,171.3,162.2z"/>
	<path class="st0" d="M171.4,164.6c-2.2,0.4-4.1,1.4-5.8,2.8c-1.1,1,0.5,2.6,1.6,1.6c1.4-1.2,3-2,4.8-2.3
		C173.5,166.5,172.9,164.4,171.4,164.6z"/>
</g>
<g>
	<g>
		<path class="st0" d="M-178.6,315.4c-6.1-4.7-15.9-2.7-21.9,1c-1.9,1.2-0.1,4.2,1.8,3c0.9-0.6,1.8-1,2.6-1.4
			c0.8,16.9,1.5,33.8,2.2,50.7c-1.5-0.2-3-0.5-4.4-1c-2.1-0.8-3,2.6-0.9,3.4c6.4,2.3,18.4,2.7,24.3-1.3c8.6-5.7,7.5-19.2,6.4-27.9
			C-169.4,334.3-171.8,320.7-178.6,315.4z M-184.6,368.8c-1.9,0.2-3.8,0.3-5.8,0.2c-0.8-17.4-1.5-34.8-2.3-52.3
			c14.8-3.7,20.6,18.3,21.3,31C-170.8,357.4-173.1,367.8-184.6,368.8z"/>
		<path class="st0" d="M-154.7,349.9c-5.5,0.5-10.4,4.7-10.4,10.5c0,6.7,6.3,12.1,12.8,12c6-0.2,11.2-5.2,10.6-11.4
			C-142.4,354.7-148.5,349.7-154.7,349.9z M-151.9,368.8c-10.1,0.9-13.6-14.5-2.7-15.5C-145.2,353.1-141,367.9-151.9,368.8z"/>
		<path class="st0" d="M-128.7,350.5c-5.5,0.5-10.4,4.7-10.4,10.5c0,6.7,6.3,12.1,12.8,12c6-0.2,11.2-5.2,10.6-11.4
			C-116.4,355.4-122.5,350.4-128.7,350.5z M-125.9,369.4c-10.1,0.9-13.6-14.5-2.7-15.5C-119.2,353.8-115,368.5-125.9,369.4z"/>
		<path class="st0" d="M9.6,349.5c-5.7,0.5-10.7,4.9-10.8,10.9c-0.1,6.9,6.5,12.5,13.2,12.4c6.2-0.2,11.5-5.4,10.9-11.7
			C22.3,354.5,15.9,349.4,9.6,349.5z M12.4,369.2C1.8,370.1-1.8,353.9,9.6,353c4.1-0.1,8.3,2.8,9.6,6.8
			C20.6,364.5,17.1,368.8,12.4,369.2z"/>
		<path class="st0" d="M-92.7,308.9c0.1-2.2-3.4-2.2-3.5,0c-0.8,13.6-1.2,27.3-0.1,40.9c-6.8-1.7-14.8,0.2-16.8,7.8
			c-1.6,6.2,0.9,14.2,8,14.9c4.9,0.5,11.4-3.1,13-7.9c2.2-6.5-1.1-17.1-1.3-24C-93.7,330-93.3,319.5-92.7,308.9z M-100.1,368
			c-13,5.9-12.8-21,4.1-14.5c0,0.2,0,0.4,0,0.5C-95.4,359.7-94.1,365.2-100.1,368z"/>
		<path class="st0" d="M-86.8,308.6c0.1,25.1,0.8,40.4,1.2,62.1c0,2.2,3.5,2,3.5-0.3c-0.3-21.7-1.1-36.7-1.2-61.8
			c0,0-0.1-1.3-1.9-1.4C-86.8,307.2-86.8,308.6-86.8,308.6z"/>
		<path class="st0" d="M-59,366.2c-2,3.9-8.2,3.9-11.3,1.4c-1.8-1.4-3.1-3.8-3.7-6.3c4.9,1,12.3,2.1,13.3-3.4
			c1.4-7.4-7.9-10.3-13.2-6.9c-6.2,4.1-4.3,14.1,0.4,18.6c4.6,4.4,14.2,4.6,17.4-1.6C-54.9,365.9-57.9,364.2-59,366.2z M-67,353.1
			c3.7,1.2,3.6,5.3-0.3,5.4c-2.2,0-4.5-0.4-6.7-0.8c0.1-0.3,0-0.7,0.1-1C-73,354-69.8,352.2-67,353.1z"/>
		<path class="st0" d="M-32.8,350.8c0.3,6.6,0.2,13.3,0.5,19.9c0.1,2.2,3.6,2.2,3.5,0c-0.3-6.6-0.2-13.3-0.5-19.9
			C-29.4,348.6-32.9,348.6-32.8,350.8z"/>
		<path class="st0" d="M-30.2,337.6c-0.1,0-0.2,0-0.3,0c-0.1,0-0.1-0.1-0.2-0.1c-5.6-0.6-8,7.7-2.2,9.3
			C-26.5,348.5-23.4,339.6-30.2,337.6z M-32.7,343c-0.6-1.2,0.8-1.8,1.8-1.9C-28.3,342-31.7,344.8-32.7,343z"/>
		<path class="st0" d="M-6.8,365.3c-2.7,5.1-10.5,6.5-12.2-0.1c-0.5-2.1-0.6-4.7,0-6.8c1-3.3,6.2-6.8,8.9-2.9c1,1.5,3,0.8,3.2-0.9
			c0.1-1.2,0.3-2.5,0.4-3.7c0.3-2.2-3.2-2.2-3.5,0c0,0.2,0,0.3-0.1,0.5c-2.5-1.3-5.6-1.2-8.2,0.4c-4.3,2.7-5.2,8-4.6,12.7
			c1.5,10.4,14.2,11.7,18.9,2.7C-2.8,365-5.8,363.3-6.8,365.3z"/>
		<path class="st0" d="M42.8,355.6c-0.4-3.1-2-6-5.5-5.9c-3.2,0.1-5.2,1.7-6.5,3.9c0-1-0.1-1.9-0.1-2.9c0-2.2-3.5-2.2-3.5,0
			c0.1,6.9,0.4,13.8,1.8,20.6c0.4,1.9,3.6,1.5,3.4-0.5c-0.2-2.9-0.5-5.8-0.4-8.6c0.1-1.5,0.1-3,0.6-4.5c0.6-1.7,3.9-7.1,6.5-3
			c1.1,1.6,0.4,6,0.6,7.9c0.2,2.9,0.6,5.9,0.9,8.8c0.3,2.2,3.7,2.2,3.5,0C43.5,366.3,43.5,360.9,42.8,355.6z"/>
	</g>
	<path class="st2" d="M-84.3,384.4h-10c-1.4,0-2.5,1.1-2.5,2.5c0,1.4,1.1,2.5,2.5,2.5h10c1.4,0,2.5-1.1,2.5-2.5
		C-81.8,385.5-82.9,384.4-84.3,384.4z"/>
	<path class="st2" d="M-148.5,384.4h-10c-1.4,0-2.5,1.1-2.5,2.5c0,1.4,1.1,2.5,2.5,2.5h10c1.4,0,2.5-1.1,2.5-2.5
		C-146,385.5-147.1,384.4-148.5,384.4z"/>
	<path class="st2" d="M-105.7,384.4h-10c-1.4,0-2.5,1.1-2.5,2.5c0,1.4,1.1,2.5,2.5,2.5h10c1.4,0,2.5-1.1,2.5-2.5
		C-103.2,385.5-104.3,384.4-105.7,384.4z"/>
	<path class="st2" d="M-127.1,384.4h-10c-1.4,0-2.5,1.1-2.5,2.5c0,1.4,1.1,2.5,2.5,2.5h10c1.4,0,2.5-1.1,2.5-2.5
		C-124.6,385.5-125.7,384.4-127.1,384.4z"/>
	<path class="st2" d="M-169.9,384.4h-10c-1.4,0-2.5,1.1-2.5,2.5c0,1.4,1.1,2.5,2.5,2.5h10c1.4,0,2.5-1.1,2.5-2.5
		C-167.4,385.5-168.5,384.4-169.9,384.4z"/>
	<path class="st2" d="M-191.3,384.4h-10c-1.4,0-2.5,1.1-2.5,2.5c0,1.4,1.1,2.5,2.5,2.5h10c1.4,0,2.5-1.1,2.5-2.5
		C-188.8,385.5-189.9,384.4-191.3,384.4z"/>
	<path class="st2" d="M-20.1,384.4h-10c-1.4,0-2.5,1.1-2.5,2.5c0,1.4,1.1,2.5,2.5,2.5h10c1.4,0,2.5-1.1,2.5-2.5
		C-17.6,385.5-18.7,384.4-20.1,384.4z"/>
	<path class="st2" d="M-62.9,384.4h-10c-1.4,0-2.5,1.1-2.5,2.5c0,1.4,1.1,2.5,2.5,2.5h10c1.4,0,2.5-1.1,2.5-2.5
		C-60.4,385.5-61.5,384.4-62.9,384.4z"/>
	<path class="st2" d="M22.7,384.4h-10c-1.4,0-2.5,1.1-2.5,2.5c0,1.4,1.1,2.5,2.5,2.5h10c1.4,0,2.5-1.1,2.5-2.5
		C25.2,385.5,24.1,384.4,22.7,384.4z"/>
	<path class="st2" d="M1.3,384.4h-10c-1.4,0-2.5,1.1-2.5,2.5c0,1.4,1.1,2.5,2.5,2.5h10c1.4,0,2.5-1.1,2.5-2.5
		C3.8,385.5,2.7,384.4,1.3,384.4z"/>
	<path class="st2" d="M44.1,384.4h-10c-1.4,0-2.5,1.1-2.5,2.5c0,1.4,1.1,2.5,2.5,2.5h10c1.4,0,2.5-1.1,2.5-2.5
		C46.6,385.5,45.5,384.4,44.1,384.4z"/>
	<path class="st2" d="M-41.5,384.4h-10c-1.4,0-2.5,1.1-2.5,2.5c0,1.4,1.1,2.5,2.5,2.5h10c1.4,0,2.5-1.1,2.5-2.5
		C-39,385.5-40.1,384.4-41.5,384.4z"/>
	<g>
		<path class="st2" d="M53.1,348.2c1.2-1.8,2.4-3.6,3.9-5.2c1.8-2.1-1.2-5.2-3.1-3.1c-1.7,1.9-3.2,4-4.5,6.1
			C47.9,348.4,51.6,350.6,53.1,348.2L53.1,348.2z"/>
	</g>
	<g>
		<path class="st2" d="M60.3,349c1.5-2.1,3.2-3.9,5.1-5.6c2.1-1.8-0.9-4.9-3.1-3.1c-2.3,1.9-4.1,4-5.8,6.4
			C55,349.1,58.7,351.3,60.3,349L60.3,349z"/>
	</g>
</g>
</svg>
