<?xml version="1.0" encoding="utf-8"?>
<!-- Generator: Adobe Illustrator 22.1.0, SVG Export Plug-In . SVG Version: 6.00 Build 0)  -->
<svg version="1.1" id="Layer_1" xmlns="http://www.w3.org/2000/svg" xmlns:xlink="http://www.w3.org/1999/xlink" x="0px" y="0px"
	 viewBox="0 0 112.2 117.9" style="enable-background:new 0 0 112.2 117.9;" xml:space="preserve">
<style type="text/css">
	.st0{fill:#4D4D4D;}
	.st1{fill:#FFFFFF;}
	.st2{fill:#95BAA8;}
</style>
<g>
	<path class="st0" d="M-346.4-233.8c-9.5,0.8-17.1,8.6-16.7,18.3c0.5,10,8.9,17.5,18.7,17.6C-319.8-197.6-322.4-236.7-346.4-233.8z
		 M-344.3-200.8c-8.2,0-15.2-6.4-15.7-14.6c-0.5-8,5.8-14.7,13.7-15.3C-326.3-233.2-323.6-200.9-344.3-200.8z"/>
	<path class="st0" d="M-293.2-214.9c-0.1-2.5,0.8-7.6-1.5-9.5c-2.2-1.8-7.3-1.4-10.6-1.5c-0.8-2.5-1.3-5.2-2.3-7.6
		c-0.4-1-2-2.9-1.7-3.8c0.4-1.3,4.8-3.3,5.8-4.8c0.8-1.2,1.3-2.3,0.9-3.7c-0.6-2.4-3.5-4.2-5.2-5.8c-1.7-1.6-3.8-4.5-6-5.4
		c-3.5-1.4-7,3.4-9.4,6.1c-2.8-1.7-5.7-2.6-8.7-4c-2.1-1-2.5-1-3-3.2c-0.4-1.7,0.3-3.7-0.1-5.5c-1.2-5.3-6.8-3.7-11-3.4
		c-4.3,0.3-9.1-0.5-9.3,4.9c-0.1,1.7,0.8,3.9,0.2,5.6c-0.5,1.4-0.9,1.1-2.8,1.8c-3,1.1-5.7,2.4-8.4,4.1c-2.1-2.5-4.4-6-7.9-5.9
		c-3.7,0.2-7.3,4.9-9.6,7.3c-4.8,4.9,0.2,8.3,3.9,12.1c-2.6,3.5-4.4,7.3-5.5,11.6c-3.3-0.6-7.9-1.1-10.2,1.2
		c-2.4,2.4-1.3,8.5-1,11.4c0.2,2.5,0.1,5.8,2.5,7.2c2.4,1.4,6.4,0.7,9.3,0.3c0.7,2.6,1.5,5.2,2.6,7.7c0.3,0.6,1.4,2.2,1.3,2.7
		c0,0.2-0.7,0.6-0.9,1.1c-1.4,2.4-6.3,4.7-5.1,8.3c1.1,3.4,8.2,9.4,11.6,10.8c3.8,1.4,6.9-2.6,9.4-5.2c3.5,2.5,7.3,4.1,11.7,4.7
		c-0.2,3.3-1.5,7.9,0.6,10.3c1.5,1.8,5.1,1.4,7.1,1.4c2.6,0.1,6,0.4,8.5-0.6c1.8-0.7,2.7-1.8,3.1-3.6c0.4-2-1.3-5.5-0.5-7.1
		c0.7-1.3,5.1-2.1,6.7-3c2.7-1.4,4.9-4.1,7.7-1.5c3,2.6,4.3,7.2,8.5,4.7c3.1-1.9,6.6-5.5,8.4-8.6c2.1-3.5,0.6-4.8-2.2-7.3
		c-2.8-2.5-3.8-2.3-2.2-6.1c1.3-3.1,2.3-6.2,3.3-9.4c3.2,0.2,7.9,0.9,10.4-0.7C-292.1-208.2-293.1-212.5-293.2-214.9z M-298.1-209
		c-2.2,0.7-5.8,0-8.1,0.1c-0.5,0-0.9,0.2-1.1,0.5c-0.1,0.2-0.3,0.3-0.3,0.6c-1.3,4.2-3.3,8.1-4.8,12.2c-0.7,1.8-0.4,2.8,0.7,4.3
		c1.3,1.7,4.5,2.8,5.2,4.7c0.8,2-3.2,5.6-4.5,6.8c-0.7,0.7-1.9,2.1-2.8,2.4c-1.8,0.5-2.5-0.8-3.8-2.3c-1.3-1.5-2.7-4-4.9-4.2
		c-1.6-0.2-3.3,1.1-4.6,1.8c-3.4,1.9-6.3,3.4-10.2,4.1c-0.5,0.1-1,0.6-1,1c-0.3,1.9,0.2,3.7,0.2,5.6c0,5.1-4.4,5.1-8.5,5
		c-3.6-0.1-5-0.1-4.9-3.9c0.1-2,0.3-4.1,0.2-6.2c-0.1-0.9-0.6-1.4-1.5-1.5c-4.6-0.4-8.6-2.1-12.3-4.9c-0.2-0.1-0.4-0.2-0.6-0.3
		c-0.5-0.2-1-0.1-1.5,0.3c-1.3,1.2-3.8,4.5-5.5,5c-2.9,0.9-5.6-2.5-7.4-4.3c-1.5-1.4-4.1-3.1-3.4-5.5c0.5-1.6,2.9-3.2,4.1-4.3
		c1.3-1.3,1.8-1.6,1.4-3.4c-0.5-2-1.9-4-2.6-5.9c-0.7-2-1.3-4-1.7-6c-0.1-0.6-0.8-1.2-1.4-1.1c-1.6,0.2-3.1,0.4-4.7,0.4
		c-2.8,0.1-4.4,0.4-5-2.7c-0.4-2.3-0.7-5.2-0.4-7.4c0.2-1.3,0.3-3.4,1.6-4.3c1.5-0.9,6.1,0,7.5,0.3c0.8,0.2,1.7-0.2,1.8-1
		c1.1-4.9,3.1-9.1,6.2-13.1c0.4-0.5,0.2-1.4-0.2-1.8c-2.2-2.5-7.1-5.3-4.7-8.8c0.9-1.3,3.6-4.2,5.1-4.8c4.5-2.1,6.2,1,8.7,3.9
		c0.3,0.8,1.2,1.3,2,0.7c3.3-2.3,6.8-3.6,10.4-5c0.8-0.3,1.9-0.6,2.5-1.3c0.9-0.9,0.9-2.5,1-3.7c0.1-1.3-0.6-2.8-0.3-4
		c0.6-2.5,3.2-2.4,5.4-2.6c1.4-0.1,3.1-0.3,4.6-0.4c1.8-0.1,2.7,0.1,3.7,0.7c1.3,0.7,0.7,2.1,0.8,3.8c0.2,1.8-0.7,3.6,0.3,5.4
		c0.8,1.3,1.7,1.5,3.1,2c3.7,1.3,7.1,2.4,10.4,4.6c0.1,0.1,0.2,0.1,0.4,0.2c0.5,0.3,1.1,0.3,1.7-0.3c1.6-1.6,3.5-4.4,5.4-5.4
		c2.5-1.2,3.8,1.3,5.8,3.2c2.1,1.9,5.7,4,3.7,7.2c-1,1.5-3.3,2.1-4.6,3.5c-1.2,1.3-1.3,2.1-0.7,3.7c0.6,1.6,1.6,2.9,2.2,4.6
		c0.8,2.3,1.4,4.8,2.2,7.1c0.2,0.7,0.8,1,1.4,1.1c2.3,0.2,5.2-0.1,7.5,0.6c3.6,1,2.6,4.4,2.7,7.5
		C-296.1-212.4-295.4-209.8-298.1-209z"/>
	<path class="st0" d="M-351.9-241.3c1.8-0.6,3.6-0.9,5.6-0.9c1.9,0,1.9-3,0-3c-2.2,0-4.3,0.3-6.4,1
		C-354.5-243.6-353.8-240.7-351.9-241.3z"/>
	<path class="st0" d="M-335.2-240.4c1.6,0.4,3,1.1,4.2,2.2c1.5,1.3,3.6-0.9,2.1-2.1c-1.6-1.4-3.5-2.4-5.6-3
		C-336.3-243.8-337.1-240.9-335.2-240.4z"/>
	<path class="st0" d="M-317.5-226.6c-0.7-1.9-1.6-3.6-2.8-5.2c-0.5-0.6-1.3-1-2.1-0.5c-0.6,0.4-1,1.4-0.5,2.1c1,1.4,1.9,2.8,2.5,4.5
		C-319.7-224-316.8-224.8-317.5-226.6z"/>
	<path class="st0" d="M-318.6-214.3c-0.2,1.8-0.5,3.5-0.9,5.2c-0.5,1.9,2.4,2.7,2.9,0.8c0.5-2,0.8-4,1-6
		C-315.5-216.2-318.5-216.2-318.6-214.3z"/>
	<path class="st0" d="M-322.7-199.7c-0.6-0.4-1.7-0.2-2.1,0.5c-0.7,1.5-1.8,2.7-3.2,3.5c-1.7,0.9-0.2,3.5,1.5,2.6
		c1.9-1,3.4-2.7,4.3-4.6C-321.8-198.3-321.9-199.2-322.7-199.7z"/>
	<path class="st0" d="M-338.3-190.4c-1.7,0.3-3.4,0.5-5.2,0.7c-1.9,0.2-1.9,3.2,0,3c2-0.2,4-0.4,6-0.8
		C-335.6-187.9-336.4-190.8-338.3-190.4z"/>
	<path class="st0" d="M-354.4-191.4c-1.8-0.5-3.4-1.3-4.9-2.4c-0.7-0.5-1.7-0.1-2.1,0.5c-0.5,0.8-0.1,1.6,0.5,2.1
		c1.7,1.2,3.6,2.1,5.6,2.7C-353.3-188-352.5-190.9-354.4-191.4z"/>
	<path class="st0" d="M-369.5-206.3c-0.5-1.9-3.4-1.1-2.9,0.8c0.6,2.2,1.6,4.1,3,5.8c0.5,0.6,1.6,0.5,2.1,0c0.6-0.6,0.5-1.5,0-2.1
		C-368.3-203.2-369-204.7-369.5-206.3z"/>
	<path class="st0" d="M-370.9-217.3c0-1.8,0.1-3.6,0.4-5.4c0.3-1.9-2.6-2.7-2.9-0.8c-0.3,2.1-0.5,4.1-0.5,6.2
		C-373.8-215.3-370.8-215.3-370.9-217.3z"/>
	<path class="st0" d="M-363.1-238.5c-1.8,1.1-3.4,2.5-4.8,4.2c-0.5,0.6-0.6,1.5,0,2.1c0.5,0.5,1.6,0.6,2.1,0
		c1.2-1.5,2.6-2.7,4.2-3.7C-359.9-236.9-361.4-239.5-363.1-238.5z"/>
</g>
<g>
	<path class="st0" d="M-454.9-254.5c-5.7-10.9-18.3-17.9-30.7-14.7c-10.2,2.1-19.3,10.4-20.7,21c-1.4,10.7,4.1,21.8,13.5,27
		c2.9,1.6,6.1,2.7,9.4,3.2c0.2,3.5,0.4,7,1,10.5c-2.9,2.4-2.8,8.1-3.1,11.5c-0.7,7.5,0,15.1,0.2,22.6c0.2,3.4-0.1,8.8,3.1,11.1
		c2.5,1.8,8.8,2,11.4,0.4c3.7-2.3,3.9-8,3.9-11.8c-0.1-7.6-0.3-15.6-1.2-23.2c-0.4-3.9-0.3-8.9-4-11.1c-0.3-3.4-0.2-6.8-0.4-10.1
		c4.5-0.8,8.7-2.6,12.3-5.4C-450-231.2-449.2-243.6-454.9-254.5z M-470.9-194.9c0.6,7.5,1.4,15.6,1,23.2c-0.2,2.9-0.3,5.2-2.9,6.8
		c-1.8,1.1-3.8,1.2-5.8,0.7c-0.1,0-0.1,0-0.2-0.1c0.3-0.1,0.6-0.3,0.9-0.4c0.6-0.2,1-0.8,0.8-1.4c-0.2-0.5-0.8-1-1.4-0.8
		c-0.8,0.3-1.7,0.7-2.5,1.1c-0.3-0.4-0.5-0.8-0.7-1.3c1.4-1.1,2.9-2.2,4.5-3.2c1.2-0.8,0.1-2.7-1.1-1.9c-1.3,0.8-2.6,1.8-3.8,2.7
		c0-0.5-0.1-1.1-0.1-1.6c1.5-1,3-2.1,4.5-3.1c1.2-0.8,0.1-2.8-1.1-1.9c-1.2,0.8-2.3,1.6-3.5,2.4c0-0.5,0-1.1,0-1.6
		c1.4-1.3,2.8-2.5,4.4-3.6c1.2-0.8,0.1-2.8-1.1-1.9c-1.2,0.8-2.3,1.7-3.4,2.6c0-0.9-0.1-1.7-0.1-2.6c1.4-1.1,2.9-2.1,4.5-3
		c1.2-0.7,0.1-2.7-1.1-1.9c-1.2,0.7-2.3,1.5-3.5,2.3c0-0.5,0-1,0-1.5c1.4-1,2.9-2,4.3-3c1.2-0.8,0.1-2.8-1.1-1.9
		c-1.1,0.7-2.2,1.5-3.2,2.2c0-0.5,0-1,0-1.4c0.1-0.1,0.2-0.1,0.3-0.2c1.5-1.6,3.1-3,4.9-4.1c1.2-0.8,0.1-2.7-1.1-1.9
		c-1.4,0.9-2.8,2-4,3.1c0-0.6,0.1-1.2,0.1-1.8c1.6-1.4,3.4-2.5,5.4-3.4c1.3-0.6,0.2-2.6-1.1-1.9c-1.4,0.7-2.7,1.5-4,2.4
		c0-0.6,0.1-1.1,0.2-1.7c1.3-0.9,2.7-1.8,4.2-2.5c1.3-0.6,0.2-2.6-1.1-1.9c-0.9,0.4-1.7,0.9-2.5,1.3c0.6-2,1.8-3.7,4.4-4
		C-471.3-206.7-471.2-198.9-470.9-194.9z M-475.2-208.9c-1.4-0.2-3-0.1-4.4,0.2c-0.5-2.9-0.6-5.9-0.8-8.8c1.6,0.1,3.3,0.1,4.9-0.1
		C-475.3-214.7-475.4-211.8-475.2-208.9z M-476.1-220.6c-12.4,1-24.2-6.6-26.9-19.1c-2.7-12.6,5.8-24.1,18.2-26.6
		c13-3.4,25.1,5.7,29.2,17.7C-450.6-233.9-461.5-221.7-476.1-220.6z"/>
	<path class="st0" d="M-480.2-264.4c-11.2,0.8-22.6,11-20.7,22.9c1.8,11.4,13.7,18.6,24.6,18.4c12.1-0.2,20.2-8.5,18.5-20.8
		C-459.4-255.1-468.7-264.7-480.2-264.4z M-462.3-231.5c-3.2,4.5-8.8,6-14,6.1c-9.3,0.2-19.6-5.5-22.1-15
		c-2.8-11,7.8-21.1,18.2-21.8c9.4-0.3,17,6.7,19.5,15.6C-459.4-241.8-459.4-235.7-462.3-231.5z"/>
	<path class="st0" d="M-488.3-256.9c-5.1,2.6-8.3,7.7-8.8,13.4c0,1.7,0.3,4.2,2.2,4.7c1.5,0.4,2.8-0.8,3.2-2.2
		c0.4-1.3,0.3-2.6,0.6-3.9c0.5-1.8,1.6-3.4,2.8-4.8c1.5-1.7,3.9-2.5,5.2-4.2c0.7-1,0.8-2.6-0.1-3.5
		C-484.5-258.7-486.9-257.6-488.3-256.9z M-487.6-253.4c-1.8,1.4-3.4,3.2-4.5,5.2c-0.6,1.1-1.1,2.4-1.4,3.6
		c-0.1,0.4-0.1,0.8-0.2,1.2c-0.4,1.1-1.3,2.9-1.2-0.1c0.3-3.9,2.2-7.4,5.3-9.9c0.5-0.4,4.4-3,4.3-1.6
		C-485.3-254.8-487.3-253.7-487.6-253.4z"/>
	<path class="st0" d="M-479.3-259.8C-479.4-259.8-479.4-259.8-479.3-259.8c-0.1,0-0.2,0.1-0.3,0.1c-1.8,0.9-2.3,3.4-1,5
		c1.4,1.6,3.9,1.3,5-0.4c0.7-1,0.5-2.4-0.1-3.5C-476.4-259.9-477.9-260.3-479.3-259.8z M-477.6-256.1c-0.3,0.2-0.6,0.3-0.9,0.2
		c-0.8-0.3-0.7-1.4,0-1.8c0.4-0.1,0.7-0.2,0.9,0.1c0.2,0.3,0.3,0.7,0.3,1.1c0,0,0,0.1,0,0.1C-477.4-256.3-477.5-256.2-477.6-256.1z
		 M-477.3-256.5C-477.3-256.6-477.3-256.6-477.3-256.5L-477.3-256.5z"/>
</g>
<g>
	<path class="st0" d="M-179.2-235.9c-1.8-0.2-3.8,0.2-5.7,0.6c-1.9-4.7-4-9.4-6.3-13.9c-1.4-2.9-3.1-7.4-5.9-9.3
		c-3.9-2.6-8.2,1.7-10.6,4.4c-10.3,11.3-19.7,23.2-33.5,30.5c-0.1,0.1-0.2,0.1-0.3,0.2c-3.9,1.2-7.8,2.4-11.6,3.7
		c-2.5,0.8-5.9,1.4-7.9,3.2c-3.5,3.1-1.2,10,0.2,13.5c1.3,3.4,4.4,10.2,8.3,11.3c1.1,0.3,2.3,0.1,3.6-0.2c2.3,4.8,4.5,9.8,7.1,14.5
		c1.7,3,3.5,7,7.5,5.6c4.2-1.4,9.5-5.7,8.3-10.7c-0.6-2.5-3-4.4-4.4-6.4c-1.6-2.3-2.8-4.7-4-7.2c0.6-0.2,1.3-0.4,1.9-0.6
		c7.9-1.5,15.9-2.3,23.9-1.4c7.2,0.8,14.2,2.7,21.2,4.2c3.5,0.7,10.1,3.5,12.4-0.7c2.4-4.3-0.8-12.3-1.9-16.6
		c-0.8-2.9-1.6-5.8-2.5-8.6c1.9-1.3,4.3-2.5,5.3-4.7c1-2.3,0-4.8-1-7C-175.8-233.4-177-235.6-179.2-235.9z M-254.8-198.1
		c-1.2-1.6-2.1-3.3-2.9-5.2c-0.8-1.8-1.4-3.7-1.7-5.7c-0.8-4.2,1.6-6.1,5.2-7.3c4.4-1.5,8.8-2.9,13.2-4.2c2.2,7.1,4.6,14.1,7.1,21.1
		c-3.9,1.3-7.9,2.4-11.9,3.4C-249.5-195-252.3-194.6-254.8-198.1z M-231.3-186.3c0.4,0.5,1,1.2,1.4,1.7c2,3.1,2,5-0.6,7.8
		c-0.7,0.8-2,1.6-2.9,2c-0.9,0.4-1.5,0.6-2.1,0.7c0.4-0.7,0.8-1.5,1-2.3c0.5-1.4-1.7-2-2.2-0.6c-0.2,0.7-0.5,1.3-0.9,1.9
		c-0.1-0.1-0.2-0.2-0.3-0.3c-0.2-0.2-0.4-0.5-0.6-0.7c0,0,0-0.1,0.1-0.1c0.2-0.5,0.5-0.9,0.7-1.4c0.3-0.6,0.5-1.1,0.7-1.7
		c0.5-1.4-1.7-2-2.2-0.6c-0.2,0.6-0.5,1.1-0.8,1.7c-0.3-0.5-0.6-1.1-0.8-1.6c0,0,0,0,0,0c0.5-1.1,1-2.3,1.5-3.4
		c0.3-0.6,0.2-1.2-0.4-1.5c-0.5-0.3-1.3-0.2-1.5,0.4c-0.3,0.6-0.6,1.3-0.9,1.9c-0.2-0.4-0.4-0.9-0.6-1.3c-0.1-0.2-0.2-0.4-0.3-0.6
		c0.1-0.1,0.2-0.2,0.2-0.3c0.5-0.9,1-1.7,1.5-2.6c0.7-1.3-1.2-2.4-1.9-1.1c-0.3,0.5-0.6,1.1-0.9,1.6c-0.3-0.6-0.6-1.2-0.9-1.8
		c0.1-0.1,0.2-0.1,0.2-0.2c0.4-0.6,0.9-1.2,1.3-1.8c0.3-0.5,0.1-1.2-0.4-1.5c-0.6-0.3-1.2-0.1-1.5,0.4c-0.2,0.3-0.4,0.6-0.7,0.9
		c-0.3-0.5-0.5-1.1-0.8-1.6c0.6-0.2,1.2-0.4,1.8-0.5c2.8-0.7,5.7-1.5,8.5-2.4C-235-192.2-233.4-189.1-231.3-186.3z M-189.7-197.5
		c-6.5-1.4-12.9-3-19.5-3.7c-7.6-0.8-15,0-22.5,1.3c-2.6-7.2-5-14.4-7.3-21.6c12.4-6.8,22-17.3,31.1-27.9c1.1-1.2,2.7-3.6,4.6-5.2
		c5.4,8,8.9,18,12.4,26.9c4,10.2,7.4,21.2,9.3,32C-184.3-195.8-187.8-197.1-189.7-197.5z M-177.3-198.4c-0.1,1.6-0.9,2.3-2.1,2.7
		c-2-11.2-5.4-22.7-9.7-33.2c-3.6-8.9-7-18.8-12.4-26.8c1-0.4,2-0.5,2.9,0c1.3,0.7,2.4,3.6,3,4.9c3.1,5.7,5.7,11.7,8.1,17.7
		c2.9,7.2,5.4,14.5,7.4,22C-178.9-207.4-177-202.4-177.3-198.4z M-176.6-224.7c-0.8,1.1-2.2,1.9-3.4,2.7c-1.2-3.8-2.6-7.5-4-11.1
		c0.9-0.1,1.8-0.3,2.7-0.4c2.2-0.2,3,0.4,4.1,2.4C-176.3-229.2-175.1-226.7-176.6-224.7z"/>
	<path class="st0" d="M-178.6-242.6c0-2.1,0-4.3,0-6.4c0-1.4-2.2-1.4-2.3,0c0,2.1,0,4.3,0,6.4C-180.8-241.2-178.6-241.2-178.6-242.6
		z"/>
	<path class="st0" d="M-169.4-238.3c1.2-1.3,2.3-2.6,3.5-3.9c1-1.1-0.6-2.7-1.6-1.6c-1.2,1.3-2.3,2.6-3.5,3.9
		C-172-238.8-170.4-237.2-169.4-238.3z"/>
	<path class="st0" d="M-161.7-230.9c-1.7-0.1-3.3-0.1-5-0.1c-1.4,0-1.4,2.2,0,2.3c1.7,0.1,3.3,0,5,0.1
		C-160.3-228.6-160.3-230.9-161.7-230.9z"/>
	<path class="st0" d="M-170.2-220.7c-1.2-0.8-2.3,1.1-1.1,1.9c1.4,1,2.8,2.2,4.1,3.4c1.1,1,2.7-0.6,1.6-1.6
		C-167.1-218.3-168.6-219.6-170.2-220.7z"/>
	<path class="st0" d="M-250.7-210.1c1.3-0.5,0.8-2.7-0.6-2.2c-1.5,0.6-3,1.2-4.5,1.8c-1.3,0.5-0.8,2.7,0.6,2.2
		C-253.8-208.9-252.3-209.5-250.7-210.1z"/>
	<path class="st0" d="M-250.1-208.6c-1.5,0.7-3.1,1.3-4.8,1.8c-1.4,0.4-0.8,2.6,0.6,2.2c1.8-0.5,3.6-1.2,5.3-2.1
		C-247.7-207.3-248.8-209.2-250.1-208.6z"/>
</g>
<g>
	<path class="st0" d="M-445.7,27.6c-15-13.4-37.8-15.1-55.3-6c-17.9,9.3-29.7,29.1-26.8,49.5c3.3,23.3,30,35.3,51,35.8
		c9.8,0.3,18.5-2.1,26.9-7.2c8.4-5,13.7-12.1,17.4-21.1C-425.6,61.3-432,39.9-445.7,27.6z M-432.7,63.9c-4.4,0.9-8.8,1.6-13.2,2.2
		c0-1.9-0.1-3.8-0.2-5.7c-0.4-5.1-1.5-10.1-3.1-14.8c3.3-1.8,6.4-3.9,9.3-6.2C-435.2,46.7-432.6,55.5-432.7,63.9z M-504.9,66.6
		c-0.2-6.8,0.5-12.9,2.6-18.9c6.2,2.4,12.8,3.8,19.6,4.7c2.6,0.4,5.3,0.5,7.9,0.4c0.5,5.1,0.9,10.3,1.2,15.4
		c-1.7,0.1-3.4,0.1-5.2,0.2c-8.7,0.3-17.4,0.5-26.1,0.1C-504.9,67.9-504.9,67.2-504.9,66.6z M-475.1,49.7c-3.3,0.1-6.6-0.1-9.8-0.7
		c-5.7-1-11.1-2.2-16.3-4.2c0.6-1.5,1.3-3,2.2-4.5c4.5-8.3,10.7-16.2,19.1-20.8C-477.8,29.6-476.2,39.6-475.1,49.7z M-476.9,19.6
		c11.7,4.4,19.7,13.5,24,24.5c-6,2.9-12.6,4.8-19.2,5.4C-473.2,39.5-474.8,29.5-476.9,19.6z M-478.7,71.4c1.8-0.1,3.5-0.1,5.3-0.2
		c0.2,3.6,0.2,7.1,0.3,10.7c-0.9,0-1.8,0-2.7,0c-7.4,0.1-15.4,1.4-23,3.8c-2.8-4.3-4.7-9.1-5.6-14.2
		C-495.9,71.9-487.3,71.7-478.7,71.4z M-475.9,84.9c0.9,0,1.8,0,2.7,0c0,6.2-0.2,12.4-0.5,18.6c-9.3-2.1-17.6-7.7-23.3-15.2
		C-490,86.2-482.6,85-475.9,84.9z M-483,103.4c-9.3-1.2-18.8-4.4-26.6-9.8c3-1.7,6.2-3.1,9.5-4.3C-495.7,95.3-489.7,100.2-483,103.4
		z M-470.1,84.9c5.2,0.1,10.4,0.7,15.4,1.8c-4,6.8-8.8,12.4-15.9,16.1C-470.3,96.9-470.1,90.9-470.1,84.9z M-470.1,81.9
		c0-3.6-0.1-7.2-0.3-10.8c7.2-0.3,14.3-0.8,21.4-1.6c-0.4,5-1.6,9.7-4.2,14.5C-458.7,82.7-464.5,82.1-470.1,81.9z M-470.6,68.1
		c-0.3-5.2-0.7-10.3-1.2-15.5c6.8-0.7,13.7-2.7,19.9-5.7c1.5,4.7,2.5,9.6,2.8,14.6c0.1,1.7,0.2,3.3,0.1,5
		C-456.1,67.3-463.3,67.8-470.6,68.1z M-441.5,36.9c-2.7,2.2-5.6,4.2-8.7,5.9c-3.9-9.8-10.5-18.1-19.9-23.3
		c5.8,1.1,11.2,3.5,16.5,6.4C-448.9,28.5-444.8,32.4-441.5,36.9z M-505.7,28.1c6.1-4.5,12.9-7.1,20.1-8.4
		c-6.8,4.9-12.1,11.9-16,19.2c-0.9,1.6-1.6,3.2-2.3,4.8c-3.9-1.7-7.5-3.9-10.9-6.9C-512.2,33.5-509.1,30.5-505.7,28.1z M-516.7,39.2
		c3.6,3.1,7.5,5.5,11.6,7.3c-2.5,6.9-3.3,13.8-2.8,21.6c0,0,0,0.1,0,0.1c-5.9-0.4-11.8-1.1-17.6-2.4
		C-525.8,56.6-522.3,47.1-516.7,39.2z M-522.7,78.2c-1.4-3-2.2-6.1-2.6-9.2c5.8,1.2,11.8,1.9,17.7,2.3c0.8,5.5,2.8,10.7,5.8,15.4
		c-3.7,1.3-7.2,3-10.4,4.9C-516.6,88-520.3,83.5-522.7,78.2z M-464.4,102.5c5.3-3.9,9.4-9.1,12.7-15c2.8,0.8,5.5,1.8,8.1,3.1
		C-449.2,96.5-456.4,100.6-464.4,102.5z M-441.6,88.4c-2.8-1.5-5.7-2.6-8.7-3.5c2.6-5.2,3.9-10.3,4.3-15.7c4.4-0.6,8.8-1.3,13.1-2.2
		c-0.1,1.4-0.3,2.8-0.6,4.2C-434.7,77.8-437.6,83.6-441.6,88.4z"/>
	<path class="st0" d="M-525.5,40c3.5-6.5,8-12.3,13.5-17.2c1.1-1-0.5-2.5-1.6-1.6c-5.7,5-10.3,11-13.9,17.7
		C-528.1,40.1-526.1,41.3-525.5,40z"/>
	<path class="st0" d="M-525.3,31.9c1.3-2.4,2.9-4.6,4.8-6.5c1-1-0.6-2.6-1.6-1.6c-2.1,2-3.8,4.4-5.2,7
		C-527.9,32-525.9,33.2-525.3,31.9z"/>
	<path class="st0" d="M-438.5,95.5c-4.2,4.9-9.3,8.5-15.3,10.7c-1.3,0.5-0.8,2.7,0.6,2.2c6.4-2.4,11.9-6.1,16.3-11.3
		C-436,96-437.6,94.4-438.5,95.5z"/>
	<path class="st0" d="M-440.5,102.9c-1.2,1.4-2.7,2.6-4.3,3.4c-1.3,0.6-0.2,2.6,1.1,1.9c1.8-0.9,3.5-2.2,4.8-3.7
		C-437.9,103.4-439.5,101.8-440.5,102.9z"/>
</g>
<g>
	<path class="st0" d="M-360.5,90.7C-360.5,90.7-360.5,90.7-360.5,90.7c-3.7-0.5-7.1,1.8-7.3,5.8c-0.2,3.9,3,6.2,6.5,6.3
		c3.4,0.1,7-2.1,6.8-5.9C-354.6,93.6-357.2,90.8-360.5,90.7z M-360.7,99.8c-1.8,0.1-3.5-0.4-4-2.3c-0.6-2.4,1.5-4.3,3.8-3.9
		c0,0,0,0,0.1,0c0.1,0,0.2,0,0.3,0c1.6,0.1,2.7,1.3,3,2.8C-357.2,98.5-358.9,99.7-360.7,99.8z"/>
	<path class="st0" d="M-317.1,90.5c-3.6-0.4-6.5,2.6-6.4,6.1c0.1,1.9,1,4,2.6,5.1c1.3,1,3,0.9,4.6,1c3.5,0.3,5.5-3.7,4.9-6.8
		C-312,92.6-313.4,90.5-317.1,90.5z M-316.3,99.7c-2.1-0.1-3.8-0.4-4.2-2.8c-0.3-2.2,1.1-3.7,3.3-3.5c1.8,0,2.2,0.6,2.6,2.3
		C-314.1,97.2-314.2,99.8-316.3,99.7z"/>
	<path class="st0" d="M-305,41c-9-1.8-18.8-1.3-28-2c-13.9-1.1-27.7-1.9-41.6-2.4c-0.4-1.8-0.9-3.5-1.6-5c-1.4-3-4.3-3.6-7.2-4.5
		c0.1-1.1-0.2-1.9-1.5-2.6c-1.6-0.9-3.5-1.5-5.3-2.1c-2.3-0.7-7.6-1.8-7.5,2.2c0.1,3.1,4.1,4.3,6.5,5.1c2,0.7,4.8,1.4,6.5,0.1
		c1.8,0.6,3.5,0.9,4.9,2.4c1.6,1.7,1.7,4.2,2.3,6.5c1.1,4.9,2.4,9.7,3.7,14.6c2.2,8.1,4.6,16.2,6.5,24.4c-2.4,0.9-4.3,3-4.2,5.9
		c0.1,4.4,4.4,5.4,8,5.5c17,0.4,34,0.1,50.9,0.2c1.9,0,1.9-3,0-3c-10,0-20.1,0-30.1,0c-5.3,0-10.7,0-16-0.1c-2.1,0-7.6,0.8-9.2-1.1
		c-1.6-1.9,0.2-4.5,2.4-4.7c14.5,0.1,29-0.1,43.4,0.1c3.5,0,9.6,0.7,12.1-2.5c1.1-1.3,1.4-3.4,1.9-5c1.1-3.4,2.2-6.8,3.3-10.2
		c1.7-5.2,4-10.8,4.6-16.2C-300,42.9-301.7,41.6-305,41z M-390.9,27.3c-0.9-0.3-3.8-1.1-4.3-2.1c-0.4-0.8,0.5-1.4,1-1.5
		c0.3-0.1,0.7,0,1,0.1c1,0.2,1.9,0.5,2.8,0.8c1.1,0.4,2.1,0.8,3.1,1.2c1.1,0.4,1.6,0.5,1.3,1.7C-386.4,29-389.9,27.6-390.9,27.3z
		 M-303.4,44.9c0.8,1.6-1,5.8-1.5,7.5c-0.1,0.4-0.3,0.9-0.4,1.3c-4.2-0.2-8.4-0.5-12.6-0.8c0.8-3.4,1.6-6.7,2.5-10
		C-311.2,43-304.3,43-303.4,44.9z M-308.2,63.2c-0.2,0.7-0.5,1.4-0.7,2.1c-3.8-0.2-7.6-0.3-11.4-0.4c0.6-3.2,1.3-6.5,2-9.7
		c4.1,0.3,8.3,0.5,12.4,0.8C-306.7,58.4-307.5,60.8-308.2,63.2z M-332.8,77.4c0.2-3.5,0.4-7,0.6-10.5c3,0.1,6.1,0.2,9.1,0.2
		c-0.7,3.4-1.3,6.8-2,10.2C-327.6,77.3-330.2,77.4-332.8,77.4z M-332,64.6c0.2-3.5,0.5-6.9,0.8-10.4c3.5,0.3,7.1,0.6,10.6,0.8
		c-0.7,3.3-1.3,6.5-2,9.8C-325.7,64.8-328.9,64.7-332,64.6z M-364.5,77.1c-0.8-3.8-1.8-7.5-2.8-11.3c2.9,0.1,5.7,0.2,8.6,0.3
		c0.8,3.7,1.6,7.4,2.6,11.1C-358.8,77.2-361.6,77.2-364.5,77.1z M-371.4,51c3.3,0.2,6.6,0.5,9.9,0.8c0.8,4.1,1.6,8.1,2.4,12.2
		c-2.9-0.1-5.8-0.2-8.8-0.3C-369,59.4-370.2,55.2-371.4,51z M-353.7,77.2c-1-3.6-1.9-7.3-2.6-11c3.2,0.1,6.3,0.2,9.5,0.3
		c0.2,3.6,0.5,7.2,0.7,10.8C-348.6,77.3-351.1,77.3-353.7,77.2C-353.7,77.3-353.7,77.2-353.7,77.2z M-356.8,64c-0.8-4-1.6-8-2.4-12
		c3.8,0.3,7.6,0.6,11.4,1c0.3,3.8,0.6,7.6,0.8,11.4C-350.2,64.2-353.5,64.1-356.8,64z M-359.6,49.6c-0.6-3.2-1.3-6.4-2-9.6
		c4.3,0.2,8.6,0.5,12.9,0.7c0.3,3.3,0.5,6.5,0.7,9.8C-351.8,50.3-355.7,50-359.6,49.6z M-345.5,53.1c4,0.3,8,0.7,12.1,1
		c-0.3,3.5-0.6,7-0.8,10.5c-3.5-0.1-7-0.2-10.4-0.3C-344.9,60.6-345.2,56.8-345.5,53.1z M-317.7,42.9c-0.9,3.3-1.7,6.6-2.4,9.9
		c-3.6-0.3-7.3-0.5-10.9-0.8c0.3-3.3,0.6-6.6,0.9-9.9c4,0.3,8.1,0.5,12.1,0.8C-317.9,42.9-317.8,42.9-317.7,42.9z M-332.4,42
		c-0.3,3.3-0.6,6.6-0.9,9.9c-4.1-0.3-8.3-0.7-12.4-1c-0.2-3.3-0.5-6.6-0.7-9.8c4.1,0.3,8.2,0.6,12.3,0.9
		C-333.5,41.9-332.9,41.9-332.4,42z M-374,39.5c3.3,0.1,6.7,0.3,10,0.4c0.7,3.2,1.4,6.3,2,9.5c-3.3-0.3-6.7-0.5-10.1-0.8
		c-0.2-0.7-0.4-1.4-0.6-2.1C-373.1,44.4-373.5,42-374,39.5z M-343.8,77.4c-0.2-3.6-0.5-7.2-0.7-10.8c3.4,0.1,6.8,0.2,10.1,0.2
		c-0.2,3.5-0.5,7-0.7,10.6C-338,77.4-340.9,77.4-343.8,77.4z M-311.3,72.6c-1.4,4.6-4,4.5-8.6,4.6c-1,0-1.9,0-2.9,0.1
		c0.7-3.3,1.4-6.7,2-10.1c3.7,0.1,7.4,0.2,11.1,0.4C-310.2,69.2-310.7,70.9-311.3,72.6z"/>
	<path class="st0" d="M-370.7,94.3c0.6-1.3-1.4-2.5-1.9-1.1c-1.3,2.9-0.9,6,1.1,8.5c0.9,1.1,2.5-0.5,1.6-1.6
		C-371.2,98.5-371.6,96.2-370.7,94.3z"/>
	<path class="st0" d="M-375,96c0-0.6-0.6-1.1-1.1-1.1c-0.6,0-1.1,0.5-1.1,1.1c-0.1,1.1,0.1,2.3,0.6,3.3c0.7,1.3,2.7,0.1,1.9-1.1
		C-375,97.5-375,96.7-375,96z"/>
</g>
<g>
	<path class="st0" d="M-228.6,33.7c-11,6.9-17.6,22.1-13,34.6c1.5,4.1,3.4,8,5.9,11.6c1.3,1.8,2.8,3.4,4.3,5.1
		c2.2,2.5,2.9,4.4,3.7,7.5c0.3,1.3,0.7,2.1,1.3,2.7c-1,1.1-1.3,2.6-0.5,3.9c-1.9,2.5-1.1,4.1,1,5c-3.2,4.8,3.5,5.8,9.7,5.9
		c0.1,1,0.2,2,0.6,2.8c0.6,1.2,2.3,1.4,3.5,1.4c1.4,0,3.3-0.1,4.5-0.9c1.1-0.7,1.4-2.3,1.5-3.6c3.5,0.1,8.9,0.4,10.7-1.9
		c1.1-1.4,0.6-2.7-0.4-3.6c1.7-0.9,2.4-2.4,1-4.6c0.8-1.2,0.3-2.7-0.9-4c0.2-0.3,0.5-0.6,0.7-1.1c0.8-1.7,0.3-3.5,0.7-5.3
		c0.6-2.7,2.4-4.1,3.8-6.2c2.1-3.2,5.1-6.3,6.8-9.7c5.5-11.2,3.2-26.8-5.5-35.7C-199.9,26.8-215.9,25.8-228.6,33.7z M-214.1,56.2
		c0.3-1.8,1.3-2.9,3-3.2c1.2,1,1.7,2.2,1.3,3.7c0.1,1.7-0.7,3.3-2,4.5C-213.2,59.9-214.3,58.1-214.1,56.2z M-211.9,64.3
		c1.6,1.3,3.5,2.4,5.3,2.9c-2.5,8.6-1.9,19-1.4,27.5c-1.1,0-2.1-0.1-3-0.1c-1.4,0-2.8,0-4.2-0.1c-0.1-3.7,0.3-17.9-2-27.7
		C-215.2,66.2-213.3,65.2-211.9,64.3z M-211,97.6c3.6,0,7.3-0.2,10.9-0.5c0.9-0.1,1.7-0.2,2.4-0.4c2.2,2.2-4.2,2.7-5.8,2.8
		c-2.5,0.1-4.9,0-7.4,0c-2.3-0.1-4.5-0.1-6.8-0.3c-1.5-0.1-9.5-1.1-6.8-2.8c0.3,0.1,0.6,0.1,0.9,0.2
		C-219.5,97.3-215.1,97.6-211,97.6z M-198.3,102.8c-0.9,0.1-1.8,0.2-2.7,0.3c-1.1,0.1-2.2,0.1-3.4,0.2c-2.5,0.1-5,0-7.5,0
		c-2,0-4.1,0-6.1-0.1c-0.6,0-8.2-0.3-7.3-2.5c3.3,1.5,9.2,0.9,12,1c4.8,0.2,11,1.1,15.7-0.5C-197.7,101.7-198,102.3-198.3,102.8z
		 M-209.3,111.5c-0.8,0.3-2,0.4-2.9,0.4c-0.4,0-0.9,0.1-1.3-0.1c-0.3-0.2-0.1,0.1-0.3-0.3c-0.2-0.3-0.3-0.9-0.4-1.5
		c2.6-0.1,4.8-0.3,5.7-0.3C-208.4,110.4-208.6,111.2-209.3,111.5z M-198.3,105c-0.7,1.6-1.9,2.2-3.4,2c-1.2,0.1-2.3,0.1-3.5,0.2
		c-2,0.1-3.9,0.2-5.9,0.3c-1.5,0.1-15,0.5-12.8-2.6c0-0.1,0.1-0.1,0.1-0.2c4.2,0.9,10.1,0.7,12,0.7C-210,105.6-203,106-198.3,105
		C-198.3,105-198.3,105-198.3,105z M-184.7,65.3c-0.8,4-1.7,6.6-4.3,10c-2.1,2.8-4.2,5.6-6.1,8.5c-0.9,1.5-1.8,2.9-2.2,4.6
		c-0.6,2.4,0.3,4.5-2.8,5.8c-1.5,0.6-3.6,0.7-5.7,0.6c-0.5-8.6-1-18.6,1.4-27.1c4.3,0.4,10.6-1.5,9.5-6.6c-1.6-7.3-8.4-2.1-10.3,2
		c-0.3,0.6-0.6,1.3-0.8,1.9c-0.9-0.3-1.8-0.7-2.4-1c-0.5-0.3-1.1-0.7-1.7-1.1c3.2-2.9,4.5-6.7,1.2-10.5c-2.7-3.1-6.6-1-7.4,2.9
		c-0.6,2.7,0.7,5.5,2.7,7.6c-1.3,0.9-2.8,1.5-4.3,1.9c-1.7-5.8-4.5-9.4-9.3-7c-2.8,1.4-2.4,5.3-0.6,7.3c2.1,2.4,5.2,2.8,8.3,2.3
		c0.9,4,0.8,8.2,1.1,12.3c0.3,4.9,0.5,9.9,0.8,14.8c-1.4-0.1-2.8-0.3-4.1-0.6c-2.1-0.5-2.5-0.4-3.4-2.7c-0.6-1.5-0.5-3.1-1.2-4.6
		c-1.8-3.5-5.6-6.1-7.8-9.4c-2.4-3.7-4.8-8.2-5.7-12.5c-1.5-6.9,0.8-14.2,4.5-19.9c5.4-8.3,13.8-12.4,23.6-13.2
		c8.9-0.7,18,4,23,11.5C-184.3,49.7-183.1,57.6-184.7,65.3z M-203.7,65.5c0-0.1,0.1-0.3,0.1-0.4c0.6-1.7,1.4-3.1,2.7-4.4
		c3.9-1.4,4.7-0.1,2.2,3.7C-199.9,65.6-201.8,65.7-203.7,65.5z M-219.9,65.1c-0.7,0.1-1.3,0.1-1.9,0c-1.5-0.1-6.6-1.8-5-4.6
		c2.2-3.9,6,2,6.6,3.8C-220.1,64.6-220,64.8-219.9,65.1z"/>
	<path class="st0" d="M-170.1,35.2c-3.2,1.5-6.6,2.8-9.5,4.9c-1.6,1.1-0.1,3.7,1.5,2.6c2.9-2.1,6.2-3.4,9.5-4.9
		C-166.8,37-168.3,34.4-170.1,35.2z"/>
	<path class="st0" d="M-191.9,28.1c2.2-2.8,3.9-5.9,5.7-9.1c0.9-1.7-1.6-3.2-2.6-1.5c-1.6,2.9-3.2,5.9-5.2,8.5
		C-195.1,27.5-193,29.7-191.9,28.1z"/>
	<path class="st0" d="M-210.8,21.9c0.2-3.4,0.3-6.8,0.3-10.1c0-1.9-3-1.9-3,0c0,3.4-0.1,6.8-0.3,10.1C-214,23.8-211,23.8-210.8,21.9
		z"/>
	<path class="st0" d="M-232,28.1c1.1,1.6,3.7,0.1,2.6-1.5c-2-3-4.3-6-5.6-9.4c-0.7-1.8-3.6-1-2.9,0.8
		C-236.5,21.6-234.2,24.8-232,28.1z"/>
	<path class="st0" d="M-244.4,39.8c-3-2.2-6.2-3.9-9.6-5.3c-1.8-0.7-2.6,2.2-0.8,2.9c3.2,1.3,6.1,3,8.9,5
		C-244.3,43.5-242.8,40.9-244.4,39.8z"/>
	<path class="st0" d="M-221.6,37.5c-7,2-13.3,9.6-14.3,16.8c-0.2,1.4,2,2,2.2,0.6c0.9-6.4,6.4-13.3,12.7-15.2
		C-219.7,39.3-220.2,37.1-221.6,37.5z"/>
	<path class="st0" d="M-220.2,41.4c-2.1,0.3-4.2,1.8-5.5,3.5c-0.9,1.1,0.7,2.7,1.6,1.6c1.1-1.4,2.6-2.6,4.5-2.9
		C-218.2,43.3-218.8,41.2-220.2,41.4z"/>
</g>
<g>
	<path class="st0" d="M-436.5-114.8c-7.9-10.6-22-10.5-32.3-3.7c-5.5,3.6-10.4,8.4-14.6,13.4c-3.7,4.3-8,9.5-10,14.9
		c-0.1,0.3-0.2,0.6-0.3,0.9c-5.9,2.5-10.8,6.2-15.2,10.9c-4.8,5.1-10,10.9-13.2,17.2c-4.8,9.3-3,20.5,5.5,27.2
		c9.7,7.6,23.2-0.6,31-7.1c5.7-4.8,10.4-10.5,14.7-16.6c1.9-2.7,3.7-5.5,5.1-8.4c11.4-1.8,19.4-10.6,25.5-19.9
		C-434.9-94.6-429.6-105.6-436.5-114.8z M-477.2-92.3c1-1.5,2-2.8,2.7-3.7c4.7-6,9.8-13.1,17.5-15.1c5.4-1.4,10.7,1.7,10.3,7.6
		c-0.2,3.3-1.9,6.5-3.9,9.1c-3.7,5.1-8,10.2-13.4,13.4C-465.5-87.5-470.2-93-477.2-92.3z M-481.6-66.6c-1.9,2.5-3.7,4.7-4.4,5.6
		c-3.5,4.7-7.2,10.2-12.6,13c-2.8,1.5-8.5,3.1-10.8,0.2c-3.2-4,0.4-10.4,2.7-13.7c4.2-5.9,9.3-10.5,14.9-15
		C-489.4-72.3-485.6-68.6-481.6-66.6z M-499.8-35c-7.2,2.8-14.1,2-18.9-4.6c-3.7-5.1-5.1-10.8-3.1-16.9c2.3-6.7,7.5-12.3,12-17.6
		c4.4-5.2,9.4-9.7,15.6-12.6c0,0.2,0,0.3,0,0.5c-0.6,0.3-1.3,0.5-1.9,0.8c-0.5,0.3-0.7,1-0.4,1.5c0.3,0.6,1,0.7,1.5,0.4
		c0.3-0.1,0.6-0.2,0.8-0.4c0,0.1,0,0.1,0,0.2c-0.5,0.3-0.9,0.6-1.4,0.9c-1.2,0.8-0.1,2.7,1.1,1.9c0.2-0.1,0.5-0.3,0.7-0.4
		c0,0.1,0,0.2,0.1,0.2c-0.3,0.2-0.6,0.4-0.8,0.6c-0.5,0.4-0.7,1-0.4,1.5c0.3,0.5,1,0.8,1.5,0.4c0.2-0.1,0.3-0.2,0.5-0.3
		c0,0.1,0.1,0.1,0.1,0.2c0,0,0,0-0.1,0c-7.6,5.9-19,14.9-19.9,25.4c-0.3,3.4,0.8,7.7,4.3,8.7c3.6,1,7.8,0.1,11-1.6
		c7.9-4.2,12.7-13.3,18.3-19.9c3.5-4.1,8.7-15.5-1.2-16c0-0.1,0-0.1-0.1-0.2c0,0,0.1,0,0.1,0c1.4,0,1.4-2.2,0-2.3
		c-0.1,0-0.3,0-0.4,0c0-0.1,0-0.1,0-0.2c0.5,0,1,0.1,1.5,0.1c0.6,0.1,1.1-0.6,1.1-1.1c0-0.7-0.5-1-1.1-1.1c-0.3,0-0.7-0.1-1-0.1
		c0.1-0.2,0.1-0.3,0.2-0.5c0.3,0,0.6,0.1,0.9,0.1c0.6,0.1,1.1-0.6,1.1-1.1c0-0.6-0.5-1-1-1.1c0.1-0.1,0.1-0.3,0.2-0.4
		c6.5-1.6,10.9,2.9,12.6,8.9c1.6,5.9-0.4,11.9-3.4,17C-476.4-52.3-486.8-39.9-499.8-35z M-464.8-68.6c0-0.1,0.1-0.3,0.1-0.4
		c0.2,0,0.4,0,0.5-0.1c0.6-0.3,1.2-0.6,1.8-1c1.3-0.7,0.1-2.6-1.1-1.9c-0.1,0.1-0.3,0.1-0.4,0.2c0-0.2,0.1-0.4,0.1-0.6
		c0.7-0.3,1.4-0.6,2.2-0.9c0.6-0.3,0.7-1.1,0.4-1.5c-0.3-0.6-1-0.7-1.5-0.4c-0.2,0.1-0.5,0.2-0.7,0.3c0-0.2,0-0.4,0-0.5
		c0.4-0.2,0.9-0.3,1.3-0.5c0.6-0.2,1-0.8,0.8-1.4c-0.1-0.5-0.8-1-1.4-0.8c-0.3,0.1-0.5,0.2-0.8,0.3c0-0.2,0-0.5-0.1-0.7
		c4.8-2.6,8-6.3,11.5-10.5c2.7-3.3,5.4-6.4,6.8-10.5c2.6-7.8-2.2-15.6-10.9-14c-10.3,1.9-17.8,12.4-23.3,20.4
		c-4,5.7-5.8,14.4,2.9,16.3c0,0.1,0,0.3,0,0.5c-0.5-0.1-1-0.3-1.5-0.2c-0.6,0.1-1.1,0.5-1.1,1.1c0,0.6,0.5,1.2,1.1,1.1
		c0.3,0,0.7,0.1,1,0.2c-0.1,0.2-0.1,0.4-0.2,0.6c-0.4-0.1-0.9-0.2-1.3-0.3c-1.4-0.4-2,1.8-0.6,2.2c0.3,0.1,0.6,0.2,0.9,0.2
		c-0.1,0.2-0.2,0.4-0.4,0.7c-0.5-0.2-0.9-0.3-1.4-0.4c-1.4-0.4-2,1.8-0.6,2.2c0.3,0.1,0.5,0.2,0.7,0.2c-0.1,0.2-0.2,0.3-0.3,0.5
		c-5.4-2.4-9.2-7.3-10.9-12.9c-1.6-5.5,0.2-9.3,3.2-13.9c6.9-10.6,18.1-23.8,31.4-25.7c7.7-1.1,16.2,2.8,19.7,9.9
		c3,6,0.7,13-2.3,18.5C-444.7-82.5-452.9-71.1-464.8-68.6z"/>
	<path class="st0" d="M-460.7-119c-3.8,1.6-7.3,3.7-10.5,6.3c-1.1,0.9,0.5,2.5,1.6,1.6c3-2.5,6.4-4.5,10-6
		C-458.2-117.6-459.4-119.6-460.7-119z"/>
	<path class="st0" d="M-456.1-120c-1.4,0-1.5,2.3,0,2.3C-454.6-117.7-454.6-120-456.1-120z"/>
	<path class="st0" d="M-499.1-39.1c-3.7,1.8-7.6,2.4-11.6,1.8c-1.4-0.2-2,2-0.6,2.2c4.7,0.7,9.1,0,13.4-2
		C-496.7-37.8-497.8-39.8-499.1-39.1z"/>
	<path class="st0" d="M-494.9-41.2c-1.4,0-1.5,2.3,0,2.3C-493.5-39-493.5-41.2-494.9-41.2z"/>
</g>
<g>
	<path class="st0" d="M-299-89.8c-1.8-4.9-7.4-3.9-11.7-4.1c-6.6-0.2-13.2,0.5-19.7,0.1c-1.6-5.5-2.9-11.1-4.4-16.6
		c-1.3-4.7-3.5-10.1-9-11c-4.5-0.7-7,2.1-8.5,5.9c-2.8,7.2-4.4,14.7-7.5,21.9c-7.3,0-14.7-0.1-22,0.3c-3.4,0.2-7.8,0.5-9.2,4.1
		c-1.6,4.1,1,7.3,4,9.6c2.5,1.9,5.2,3.6,7.8,5.5c2.9,2.1,7.1,4.3,9.4,7.1c2.2,2.7-1.2,8.5-2.3,11.5c-1.2,3.3-2.6,6.6-3.4,10
		c-0.9,3.8-1.2,9.6,2.7,12.2c3.9,2.5,9-2.3,12-4.4c5.5-3.9,10.6-8.4,16.2-12c5,4.8,10.3,9.4,16,13.5c3.3,2.4,8.2,5.2,12.2,2.6
		c3.7-2.4,3.5-7.4,2.3-11.1c-2.2-6.8-4.4-13.7-6.6-20.5c5.6-4.1,11.2-8.3,16.7-12.5C-300.2-80.9-297.2-84.8-299-89.8z M-311.6-76.1
		c-3.9,2.9-7.7,6-11.7,8.8c-0.5,0.4-0.9,1-0.7,1.7c1.4,4.6,2.5,9.3,4,13.9c1.2,3.6,4.8,9,3.3,12.9c-3.7,9.4-23.1-10.4-26.8-14
		c-0.5-0.5-1.3-0.6-1.8-0.2c-3.6,2.2-7,4.8-10.3,7.4c-3.6,2.8-8,7.2-12.3,8.8c-1.7,0.6-3.6,0.4-4.9-1.5c-0.6-0.8-0.4-2.8-0.3-3.8
		c0.1-2.3,1-4.7,1.8-6.9c2-5.6,4.1-11.2,6.1-16.9c0.2-0.5,0-1.2-0.4-1.5c-3.3-2.7-6.7-5.4-10.2-7.9c-3.3-2.4-10.6-5.7-12-9.7
		c-2.4-6.8,8.8-5.4,12.7-5.4c5.4-0.1,10.8-0.2,16.2-0.2c0.5,0.1,1.1-0.1,1.4-0.7c1.9-4.1,3.5-8.3,4.9-12.6
		c1.3-4.1,2.8-15.7,8.8-14.1c5.8,1.5,6.4,10.2,7.8,15c1,3.7,1.9,7.4,3,11.1c0.2,0.7,0.8,1.1,1.4,1.1c3.8,0.3,7.5,0,11.3-0.1
		c4.4-0.1,10.1-0.9,14.4,0.3C-294.3-87.4-308.6-78.4-311.6-76.1z"/>
	<path class="st0" d="M-364.5-86c-2.5,1.2-4.7,2.8-6.7,4.8c-1,1,0.6,2.6,1.6,1.6c1.9-1.8,3.9-3.3,6.3-4.4
		C-362.1-84.7-363.2-86.7-364.5-86z"/>
	<path class="st0" d="M-356.6-84.5c-3.4,1.4-6.7,3.1-9.7,5.2c-1.2,0.8-0.1,2.8,1.1,1.9c2.9-2,5.9-3.6,9.2-4.9
		C-354.7-82.9-355.3-85.1-356.6-84.5z"/>
</g>
<g>
	<path class="st0" d="M-162.9-79.7c-0.2-5.1-0.1-10.3,0-15.4c0.1-3.3,0.1-6.5-0.1-9.8c-0.1-2.6,0.3-5.9-0.4-8.5
		c-0.7-2.5-2.7-2.7-5-2.8c-6.1-0.3-12.2,0-18.3-0.1c-13.6-0.1-27.1-0.1-40.7-0.2c-7.1,0-14.2,0.2-21.4,0.6c-2.6,0.2-6.9-0.3-8.9,1.5
		c-1.4,1.2-1.6,3.1-1.9,4.8c-0.7,3.7-0.8,7.6-0.9,11.4c-0.3,8.3-0.2,16.5-0.7,24.8c-0.4,6.7-0.2,13.4,0,20c0.1,3.7-1.1,9.8,2.1,12.6
		c3.3,2.9,10.2,1.7,14.1,1.8c7.2,0.2,14.3,0.4,21.5,0.5c13.4,0.2,26.8-0.3,40.2,0.2c5.1,0.2,10.8,0,15.8-0.9c3-0.5,3.9-2.3,4.2-5.2
		C-161.8-55.8-162.5-67.9-162.9-79.7z M-252.4-112.4c1.3-0.1,2.5-0.2,3.8-0.2c5.2-0.3,10.4-0.6,15.7-0.6c11.2-0.1,22.5,0,33.7,0.1
		c4.8,0,9.7,0,14.5,0.1c5.1,0,10.6-0.6,15.7,0.1c2.4,0.3,2.5,0.5,2.9,2.9c0.4,2.2,0.3,4.8,0.3,7.1c0,0.3,0,0.7,0,1
		c-30.4-1.1-60.9-1.2-91.3-0.3c0.1-1.7,0.3-3.4,0.5-5.1C-256.2-110.8-255.6-112.1-252.4-112.4z M-165.6-57.5
		c-0.1,4.1,0,8.3-0.4,12.4c-0.2,3-1.5,2.8-4.2,3.3c-2.8,0.5-5.7,0.8-8.5,0.9c-10.5,0.2-21.1-0.2-31.7-0.2c-12.5,0-24.9-0.3-37.3-0.7
		c-3.9-0.1-9.9,0.4-10.2-4.6c-0.1-2.8-0.1-5.7-0.2-8.5c-0.2-6.1-0.4-12.2,0-18.2c0.6-8.9,0.3-18,0.8-26.9c30.5-0.9,61-0.8,91.5,0.3
		c0,4.2-0.2,8.5-0.2,12.7C-166-77.2-165.3-67.4-165.6-57.5z"/>
	<path class="st0" d="M-249.8-104.2c1.8-0.2,3.8-1.3,3.4-3.4c-0.3-1.9-1.6-3.2-3.5-3.3c-1.9,0-3.2,1.8-3.5,3.5
		C-253.7-105.3-251.7-104-249.8-104.2z M-251.1-107.3c0.2-0.6,0.6-1.4,1.2-1.4c0.6,0,1,0.3,1.2,0.9c0.3,0.9-0.2,1.1-1.1,1.3
		c-0.4,0.1-0.7,0.1-1.1-0.1C-251.2-106.8-251.2-106.8-251.1-107.3z"/>
	<path class="st0" d="M-240.3-104.3c2.1,0.2,3.6-1.4,3.8-3.3c0.2-2.1-1.4-3.5-3.4-3.6c-1.8-0.1-3.8,1.2-3.9,3.1
		C-243.9-106.1-242.3-104.5-240.3-104.3z M-241.5-108.1c0.2-0.7,1-0.9,1.6-0.9c0.7,0,1.2,0.4,1.1,1.1c-0.1,0.8-0.6,1.4-1.5,1.3
		C-241-106.7-241.7-107.3-241.5-108.1z"/>
	<path class="st0" d="M-230.2-104.5c1.8-0.1,3.4-1.7,3.5-3.6c0-1.9-1.8-3.5-3.7-3.5c-2,0.1-3.5,1.8-3.7,3.8
		C-234.2-105.6-232.2-104.4-230.2-104.5z M-230.4-109.3c1.6-0.1,1.9,2.2,0.2,2.5c-0.6,0.1-1.6-0.2-1.7-0.9
		C-231.9-108.4-231.2-109.3-230.4-109.3z"/>
	<path class="st0" d="M-224.3-90c-3.1-2.5-7.5-0.4-10.3,1.5c-5.2,3.6-9.6,8.2-14.5,12.2c-7.5,6.6,1.6,13.8,6.8,17.7
		c3.5,2.6,7.8,6.3,12.1,7.6c2.9,0.8,7.3-0.3,7.5-3.9c0.2-3.6-5.3-7.1-7.7-9.2c-1.5-1.3-3-2.5-4.6-3.6c-0.7-0.5-1.4-0.9-2.1-1.4
		c-1.5-1-2.1-0.8-1.2-2.3C-235.9-75.1-217.1-84.1-224.3-90z M-240.7-68.9c1.7,2.1,5.3,3.5,7.4,5.3c1.6,1.3,3.2,2.8,4.7,4.3
		c0.6,0.6,2.5,1.8,2.8,2.7c1.3,4.2-2.1,3.9-4.2,3.2c0.2-0.1,0.4-0.3,0.6-0.4c0.5-0.4,0.7-1,0.4-1.5c-0.3-0.5-1-0.8-1.5-0.4
		c-0.4,0.3-0.9,0.7-1.3,1c-0.2,0.1-0.3,0.3-0.4,0.4c-0.5-0.2-0.9-0.5-1.4-0.8c0.2-0.1,0.3-0.2,0.5-0.3c1.2-0.7,0.1-2.7-1.1-1.9
		c-0.5,0.3-0.9,0.6-1.4,1c-0.6-0.4-1.1-0.8-1.7-1.2c0.3-0.2,0.6-0.3,0.9-0.5c1.3-0.7,0.1-2.6-1.1-1.9c-0.6,0.3-1.2,0.6-1.8,0.9
		c-0.4-0.3-0.7-0.6-1.1-0.8c0.2-0.1,0.4-0.2,0.6-0.4c1.3-0.7,0.1-2.7-1.1-1.9c-0.5,0.3-0.9,0.6-1.3,0.9c-0.5-0.4-1.1-0.8-1.6-1.3
		c0.3-0.2,0.6-0.4,0.9-0.6c0.5-0.3,0.7-1,0.4-1.5c-0.3-0.6-1-0.7-1.5-0.4c-0.6,0.3-1.1,0.7-1.6,1.1c-0.4-0.4-0.8-0.7-1.2-1.1
		c0.4-0.2,0.7-0.5,1.1-0.7c1.2-0.8,0.1-2.7-1.1-1.9c-0.5,0.3-0.9,0.6-1.4,0.9c-0.5-0.7-0.9-1.5-1.2-2.3c0.4,0,0.7,0,1.1,0
		c1.4,0,1.5-2.3,0-2.3c-0.4,0-0.8,0-1.2,0c0.1-0.7,0.5-1.4,1-2.1c0.4,0.4,0.8,0.9,1.3,1.2c0.5,0.4,1.3,0.1,1.5-0.4
		c0.3-0.6,0.1-1.2-0.4-1.5c0.2,0.1-0.2-0.2-0.2-0.2c-0.1-0.1-0.3-0.3-0.4-0.4c-0.1-0.1-0.2-0.2-0.2-0.2c0.4-0.3,0.8-0.6,1.1-0.9
		c0.4,0.4,0.9,0.9,1.2,1.3c0.4,0.5,1.2,0.4,1.6,0c0.5-0.5,0.4-1.1,0-1.6c-0.3-0.4-0.7-0.8-1.1-1.2c0.5-0.5,1.1-1,1.6-1.5
		c0.4,0.4,0.9,0.8,1.3,1.2c1,1,2.6-0.6,1.6-1.6c-0.4-0.4-0.8-0.7-1.2-1.1c0.6-0.5,1.2-1.1,1.9-1.6c0.4,0.5,0.8,0.9,1.2,1.4
		c1,1.1,2.6-0.5,1.6-1.6c-0.4-0.4-0.8-0.7-1.1-1.1c0.3-0.2,0.6-0.4,0.9-0.6c0.4-0.3,0.8-0.6,1.2-0.9c0.2,0.3,0.4,0.6,0.6,0.9
		c0.4,0.5,1,0.7,1.5,0.4c0.5-0.3,0.8-1,0.4-1.5c-0.3-0.4-0.5-0.7-0.8-1.1c0.5-0.4,1-0.7,1.6-1c0,0,0.1,0.1,0.1,0.1
		c0.3,0.3,0.7,0.7,1,1c1,1,2.6-0.6,1.6-1.6c-0.2-0.2-0.4-0.4-0.6-0.6c1.4-0.5,2.6-0.5,3.5,1.2c1.2,2.2-0.1,2.7-1.5,4.2
		c-3.7,3.8-8.5,6.4-12.2,10.1C-241.4-71.7-242-70.5-240.7-68.9z"/>
	<path class="st0" d="M-181.4-83.3c-3.5-2.6-7.8-6.3-12.1-7.6c-2.9-0.8-7.3,0.3-7.5,3.9c-0.2,3.6,5.3,7.1,7.7,9.2
		c1.5,1.3,3,2.5,4.6,3.6c0.7,0.5,1.4,0.9,2.1,1.4c1.5,1,2.1,0.8,1.2,2.3c-2.4,3.8-21.2,12.8-14,18.6c3.1,2.5,7.5,0.4,10.3-1.5
		c5.2-3.6,9.6-8.2,14.5-12.2C-167.1-72.2-176.2-79.4-181.4-83.3z M-176.2-67.2c-3.8,3.1-7.1,6.6-11.1,9.5c-1.7,1.2-3.3,2.8-5.2,3.7
		c-2,1-3.8,1.8-5-0.5c-0.5-0.9-0.5-1.6-0.3-2.1c0.5,0.4,1.1,0.9,1.6,1.3c0.5,0.4,1.3,0.1,1.5-0.4c0.3-0.6,0.1-1.2-0.4-1.5
		c-0.5-0.3-0.9-0.7-1.3-1c0.1-0.1,0.3-0.3,0.4-0.4c0.3-0.3,0.7-0.7,1-1c0.5,0.5,0.9,1,1.4,1.4c0.5,0.4,1.1,0.5,1.6,0
		c0.4-0.4,0.5-1.2,0-1.6c-0.5-0.4-0.9-0.9-1.3-1.3c0.5-0.4,1.1-0.9,1.6-1.3c0.5,0.6,0.9,1.2,1.4,1.7c1,1,2.6-0.6,1.6-1.6
		c-0.5-0.5-0.9-1-1.3-1.5c0.5-0.3,0.9-0.7,1.4-1c0.4,0.4,0.8,0.8,1.2,1.3c0.4,0.5,1.2,0.4,1.6,0c0.5-0.5,0.4-1.1,0-1.6
		c-0.3-0.4-0.6-0.7-1-1.1c0.6-0.5,1.2-1,1.7-1.5c0.3,0.2,0.6,0.4,0.8,0.7c1,1.1,2.6-0.5,1.6-1.6c-0.2-0.2-0.5-0.5-0.7-0.7
		c0.4-0.5,0.7-0.9,0.8-1.4c0.5,0,0.9,0.1,1.4,0.1c0.6,0,1.1-0.5,1.1-1.1c0-0.6-0.5-1.1-1.1-1.1c-0.7,0-1.3-0.1-2-0.1c0,0,0,0,0,0
		c-0.3-0.4-0.6-0.7-1-1c0.4-0.2,0.7-0.3,1.1-0.5c0.5-0.3,0.7-1,0.4-1.5c-0.3-0.6-1-0.7-1.5-0.4c-0.7,0.3-1.4,0.6-2,1
		c-0.4-0.2-0.7-0.4-1.1-0.7c0.3-0.1,0.6-0.3,0.9-0.4c0.5-0.3,0.7-1,0.4-1.5c-0.3-0.6-1-0.7-1.5-0.4c-0.6,0.3-1.2,0.6-1.8,0.9
		c-0.1,0-0.1,0.1-0.1,0.1c-0.4-0.2-0.7-0.5-1-0.7c-0.1-0.1-0.3-0.2-0.4-0.3c0.4-0.2,0.9-0.5,1.3-0.7c0.6-0.3,0.7-1,0.4-1.5
		c-0.3-0.6-1-0.7-1.5-0.4c-0.7,0.3-1.3,0.7-1.9,1c-0.4-0.4-0.9-0.8-1.3-1.2c0.2-0.2,0.5-0.3,0.8-0.4c0.6-0.2,1-0.7,0.8-1.4
		c-0.1-0.5-0.8-1-1.4-0.8c-0.7,0.3-1.3,0.6-1.8,1c-0.3-0.3-0.7-0.5-1.1-0.9c0.3-0.2,0.6-0.5,0.9-0.6c1.3-0.7,0.1-2.6-1.1-1.9
		c-0.4,0.2-0.8,0.5-1.1,0.8c-1-4,2.7-3.5,4.7-2.7c4,1.5,7.9,4.8,11.3,7.4C-178.1-77.9-170.2-72.5-176.2-67.2z"/>
	<path class="st0" d="M-209-91.3c-3.3-0.1-4.3,2.8-5.2,5.6c-2,6.1-3.6,12.4-4.8,18.7c-0.6,3.3-4.8,17.5,2.8,16.6
		c3-0.3,4.8-3.5,5.8-6c2-5.3,3-11.1,4.2-16.6c0.6-2.7,1.1-5.4,1.6-8.1c0.4-1.8,1.3-4.2,1.1-6.1C-203.9-90.1-206.2-91.2-209-91.3z
		 M-209-70.3c-0.6,2.5-1.2,4.9-1.8,7.3c-0.8,3.1-1.5,9.3-5.3,9.2c-2.1-0.1-2.2-0.3-2.1-1.6c0.3,0,0.5,0.1,0.8,0.2
		c0.6,0.2,1.2-0.2,1.4-0.8c0.2-0.6-0.2-1.2-0.8-1.4c-0.4-0.1-0.8-0.2-1.3-0.3c0-0.4,0.1-0.8,0.2-1.2c0.5,0.1,1,0.2,1.5,0.2
		c1.4,0,1.4-2.2,0-2.3c-0.4,0-0.8-0.1-1.2-0.1c0-0.2,0.1-0.5,0.1-0.7c0-0.1,0-0.2,0.1-0.4c0.5,0.1,1,0.1,1.5,0.3
		c1.4,0.4,2-1.8,0.6-2.2c-0.6-0.1-1.1-0.2-1.7-0.3c0.1-0.7,0.2-1.3,0.3-2c0.6,0.1,1.3,0.2,1.9,0.5c0.6,0.2,1.2-0.2,1.4-0.8
		c0.2-0.6-0.2-1.2-0.8-1.4c-0.7-0.2-1.3-0.4-2-0.5c0.1-0.5,0.2-1,0.3-1.5c0.5,0.1,1,0.2,1.5,0.4c1.4,0.3,2-1.8,0.6-2.2
		c-0.6-0.1-1.1-0.3-1.7-0.4c0.1-0.5,0.2-1,0.3-1.6c0.4,0.1,0.7,0.2,1.1,0.3c1.4,0.4,2-1.8,0.6-2.2c-0.4-0.1-0.8-0.2-1.2-0.3
		c0.1-0.3,0.1-0.6,0.2-0.9c0.6,0.1,1.3,0.3,1.9,0.4c0.6,0.1,1.2-0.2,1.4-0.8c0.2-0.6-0.2-1.3-0.8-1.4c-0.7-0.1-1.3-0.3-2-0.4
		c0.1-0.4,0.2-0.9,0.3-1.3c0.4,0.1,0.9,0.2,1.3,0.3c1.4,0.4,2-1.8,0.6-2.2c-0.4-0.1-0.9-0.2-1.3-0.3c0.1-0.3,0.2-0.6,0.3-0.8
		c0.4,0.1,0.8,0.2,1.2,0.3c0.6,0.2,1.2-0.2,1.4-0.8c0.2-0.6-0.2-1.2-0.8-1.4c-0.3-0.1-0.7-0.2-1-0.3c0.1-0.3,0.3-0.6,0.4-0.9
		c0.3,0.2,0.7,0.3,1.1,0.3c0.6,0.1,1.2-0.1,1.4-0.8c0.1-0.5-0.2-1.3-0.8-1.4c-0.1,0-0.2-0.1-0.4-0.1c0.4-0.4,0.9-0.6,1.3-0.6
		C-203.6-88.9-208.4-72.9-209-70.3z"/>
</g>
<g>
	<path class="st0" d="M-26.5-188.2c-1.7-2.3-4.3-4.1-6.6-5.8c-3.2-2.4-6-5.3-9.1-7.9c4-2.8,3-10.9,2.9-15.1
		c-0.1-8.8-0.4-17.6-0.7-26.4c-0.1-2.5,0-5.4-2.4-7.1c-2.5-1.8-7.8-1.1-10.9-1.3c-8.6-0.7-17.3,0.3-25.9,0c-9.7,0.1-19.4,0.1-29,0.2
		c-2.6,0-5.1-0.3-6.8,2c-2.2,2.9-1.7,7.3-1.6,10.7c0.4,10.7-0.6,21.5,0.1,32.3c0.2,2.4,1.2,3.9,2.7,4.9c-4,2.8-8.1,5.5-12,8.6
		c-2.8,2.3-6.1,4.4-6.1,8.3c0,3.4,1.6,5.2,4.9,5.6c6.6,0.8,13.5,0.5,20.1,0.3c15.2-0.6,30.4-0.1,45.7-0.5c6.6-0.2,13.2,0,19.8,0.1
		c4,0,11.3,1.5,14.4-1.9C-25.1-183.3-25-186.1-26.5-188.2z M-113.6-214.9c-0.1-4.6-0.3-9.2-0.1-13.7c0.1-4.2,0.3-8.4,0.2-12.6
		c-0.1-2.7,0-6.3,3.2-7.3c1.7-0.6,4.5,0,6.4,0c8.3,0,16.7-0.1,25-0.1c5.4,0.2,10.8,0.3,16.1,0c4-0.2,18.4-1.6,19.9,3.3
		c0.5,1.7,0.1,4.2,0.1,6c0,4,0.1,8.1,0.3,12.1c0.1,3.2,0.3,6.4,0.4,9.6c0,2,0,4,0,6c-0.1,2.9,0.4,5.3-2.2,6.8
		c-2.9,1.7-8.1,0.8-11.5,0.7c-3.7,0-7.5-0.1-11.2-0.1c-7.3,0.1-14.6,0.5-21.9,0.6c-3.5,0-7-0.1-10.6,0c-3.2,0.1-8.7,1.4-11.7-0.2
		C-114.6-205.6-113.5-211.9-113.6-214.9z M-30.3-182.6c-2.3,1.1-7.7,0.2-10.2,0.2c-13-0.1-26.1-0.5-39.2-0.3
		c-13.6,0.2-27.2,1-40.8,0.7c-2.6-0.1-7.9,0.6-8.2-2.9c-0.2-2.2,2-3.6,3.5-4.9c4.5-3.9,9.7-7.1,14.6-10.6c0.1-0.1,0.2-0.2,0.3-0.3
		c2.4,0.4,5,0.2,7.4,0.1c9.5-0.5,19-0.3,28.5-0.6c4.7-0.2,9.4-0.3,14.1-0.2c4.7,0.1,9.9,0.7,14.6,0.4c0,0,0,0.1,0.1,0.1
		c4.9,3.9,9.9,8.1,14.5,12.2C-29.3-187-26.3-184.5-30.3-182.6z"/>
	<path class="st0" d="M-107.3-207.6c9.8-0.2,19.6-0.1,29.3-0.6c9.8-0.4,19.9-0.9,29.8-0.3c0.6,0,1.1-0.5,1.1-1.1
		c-0.3-11.1-0.3-22.2-0.8-33.3c0-0.6-0.5-1.1-1.1-1.1c-19.6,0.2-39.2-0.2-58.8,0c-0.3,0-0.5,0.1-0.6,0.2c-0.3,0.2-0.5,0.5-0.5,0.9
		c0.2,11.4,0.3,22.8,0.5,34.2C-108.4-208.1-108-207.6-107.3-207.6z M-50.1-241.8c0.4,10.4,0.5,20.7,0.7,31c-9.4-0.5-19.2,0-28.6,0.4
		c-9.4,0.4-18.8,0.4-28.2,0.5c-0.2-10.7-0.3-21.3-0.5-32C-87.8-242-69-241.6-50.1-241.8z"/>
	<path class="st0" d="M-67.8-192.7c-0.2-0.5-0.5-0.8-1.1-0.8c-6.2-0.4-12.3,0.2-18.5,0.2c-0.5,0-0.9,0.4-1.1,0.8
		c-0.8,2-1.4,3.8-1.8,5.9c0,0.2,0,0.5,0.1,0.7c0.1,0.4,0.5,0.8,1,0.8c7.4,0,15.3,0.6,22.7-0.6c0.6-0.1,1-0.9,0.8-1.4
		C-66.5-189-67.1-190.9-67.8-192.7z M-87.8-187.4c0.3-0.9,0.6-1.9,0.7-2.8c0.1-0.3,0.2-0.6,0.4-0.9c0,0,0.1,0,0.1,0
		c2.9-0.2,5.9-0.2,8.9-0.3c2.6-0.1,5.4-0.3,8,0.1c0,0,0,0,0,0c0.1,0.3,0.3,0.7,0.4,1c0.1,0.8,0.5,1.7,0.8,2.5
		C-74.7-187-81.4-187.4-87.8-187.4z"/>
	<path class="st0" d="M-78.9-245.3c1.4,0,1.5-2.3,0-2.3C-80.4-247.6-80.4-245.3-78.9-245.3z"/>
	<path class="st0" d="M-104.9-237.9c0.9,1.4,1.8,2.7,2.7,3.9c0.4,0.5,1,0.7,1.5,0.4c0.5-0.3,0.8-1.1,0.4-1.5c-1-1.3-1.9-2.6-2.7-3.9
		C-103.7-240.3-105.7-239.2-104.9-237.9z"/>
	<path class="st0" d="M-97.7-234.2c1,1.1,2.6-0.5,1.6-1.6c-1.2-1.2-2.3-2.5-3.5-3.7c-1-1.1-2.6,0.5-1.6,1.6
		C-100.1-236.7-98.9-235.5-97.7-234.2z"/>
</g>
<g>
	<path class="st0" d="M-29.5-89.7c-0.7-0.3-1.6-0.5-2.5-0.5c0.4-4.8,0.9-9.6,1.7-14.4c0,0,0,0,0,0c1.1-0.2,2.1-0.4,2.7-1
		c3-2.4,2.5-11.9-2.1-12.3c-5.7-0.2-11.4-0.2-17-0.2c-3.1,0-8.3-1-11.1,0.5c-2.6,1.4-2.4,5.2-2.4,7.7c0.1,2.9,0.6,4.5,3.6,4.8
		c0.3,4.7,0.7,9.4,1.3,14.2c0,0.1,0,0.1,0,0.2c-2.2-0.1-4.4-0.1-6.6-0.1c-2.6,0-9.2-1.2-11.3,0.6c-1.4,1.2-1.5,5.3,0,6.5
		c0.5,0.4,1.4,0.6,2.3,0.7c0,0.1,0,0.2,0,0.3c-1.5,0-2.9,0-4.4,0c-0.9-0.9-2.5-1.1-3.8-1.2c-1.7,0-2.8,0.4-3.3,1.3
		c-1.3,0-2.7-0.1-4-0.2c0-0.1,0-0.1,0-0.2c0.9-0.1,1.6-0.2,2.2-0.6c1.6-1.2,1.7-5.3,0.2-6.5c-2.2-1.8-8.6-0.6-11.3-0.6
		c-2.2,0-4.4,0-6.6,0.1c0-0.1,0-0.1,0-0.2c0.4-4.7,1-9.4,1.3-14.2c3-0.3,3.5-1.9,3.6-4.8c0.1-2.3,0.2-6.2-2-7.6
		c-2.7-1.7-8.3-0.6-11.4-0.7c-5.7-0.1-11.4,0-17,0.2c-4.6,0.4-5,9.7-2.2,12.2c0.6,0.6,1.6,0.9,2.8,1c0,0,0,0,0,0
		c0.9,4.8,1.3,9.6,1.7,14.4c-0.9,0.1-1.8,0.2-2.5,0.5c-2.2,1.1-2.7,4.7-0.7,6.3c0.6,0.5,1.8,0.8,3,1c1.1,6.5,1.6,13.1,2.8,19.5
		c-0.6,0.1-1.2,0.3-1.5,0.6c-1.5,1.3-1.5,5.2,0,6.5c1.9,1.7,8.9,0.6,11.1,0.6c2.2,0,4.5-0.1,6.7-0.3c0.3,2.9,0.2,5.8,0.2,8.7
		c-0.1,0-0.2,0-0.3,0.1c-3.3,1.1-3.3,8.1-0.6,9.9c1.8,1.3,5.8,0.5,7.9,0.5c4.3,0.1,8.7,0,13-0.1c3.6-0.4,4.2-7.5,1.9-9.6
		c-0.5-0.5-1.2-0.7-2-0.9c-0.1-3.1-0.1-6.2-0.1-9.3c2.1-0.9,3.2-3.6,1.6-5.7c-0.4-0.5-0.9-0.9-1.6-1.1c0-0.1,0-0.2,0-0.3
		c0.5,0,0.9-0.1,1.4-0.1c0.8,0,1.5,0,2.3,0.1c0.3,1.3,0.8,1.5,2.2,1.6c1.3,0.2,4.6,0.4,5.6-0.8c0.2-0.2,0.3-0.5,0.3-0.8
		c1.1,0,2.3,0.1,3.5,0c0,0.1,0,0.1,0,0.2c-0.7,0.3-1.2,0.6-1.6,1.1c-1.6,2.2-0.5,4.8,1.6,5.7c-0.2,3.1,0,6.2,0,9.3
		c-0.8,0.2-1.4,0.4-1.9,0.8c-2.5,2-1.8,9.3,1.8,9.7c4.2,0.1,8.4,0.2,12.5,0.1c2.3,0,6,0.7,8.1-0.4c3-1.6,3-8.9-0.3-10
		c-0.1,0-0.2,0-0.3-0.1c0-2.9-0.1-5.8,0.2-8.7c2.2,0.1,4.5,0.3,6.7,0.3c2.2,0,9.2,1.1,11.1-0.6c1.4-1.3,1.6-5.2,0-6.5
		c-0.4-0.3-0.9-0.5-1.5-0.6c1.3-6.5,1.9-13,2.8-19.6c1.3-0.2,2.4-0.4,3-1C-26.8-84.9-27.3-88.6-29.5-89.7z M-57.9-108.8
		c-0.3-0.7,0-2.1,0-2.8c0.1-1,0.2-1.8,0.5-2.5c0.6,1.1,1.1,2.3,1.7,3.4c0.6,1.3,2.6,0.2,1.9-1.1c-0.6-1.2-1.2-2.5-1.8-3.7
		c0.2-0.1,0.5-0.1,0.8-0.2c0.8,1.2,1.6,2.4,2.4,3.6c0.8,1.2,2.7,0.1,1.9-1.1c-0.6-0.9-1.2-1.8-1.8-2.7c0.4,0,0.8,0,1.2,0
		c0,0,0,0,0,0c0.7,1,1.3,2,1.8,3.1c0.3,0.5,1,0.7,1.5,0.4c0.6-0.3,0.7-1,0.4-1.5c-0.3-0.6-0.7-1.3-1-1.9c0.5,0,0.9,0,1.4,0
		c0,0.1,0.1,0.2,0.2,0.3c0.8,0.9,1.5,1.9,2.2,2.9c0.8,1.2,2.7,0.1,1.9-1.1c-0.5-0.7-1-1.4-1.5-2.1c0.6,0,1.1,0,1.7,0
		c0,0.1,0.1,0.1,0.1,0.2c0.8,0.9,1.4,1.9,2,2.9c0.7,1.3,2.6,0.1,1.9-1.1c-0.4-0.7-0.8-1.4-1.2-2c0.5,0,0.9,0,1.4,0
		c0.6,1,1.3,2,2,2.9c0.4,0.5,1,0.7,1.5,0.4c0.5-0.3,0.8-1.1,0.4-1.5c-0.4-0.6-0.8-1.1-1.3-1.7c0.4,0,0.9,0,1.3,0c0,0,0,0,0,0.1
		c0.8,1.3,1.6,2.6,2.6,3.8c0.4,0.5,1.2,0.4,1.6,0c0.5-0.5,0.4-1.1,0-1.6c-0.5-0.7-1-1.4-1.5-2.2c0.6,0,1.2,0,1.7,0
		c1.3,0.1,1.4,4.1,1.2,5.1c-0.3,1.7-0.8,2.8-2.7,3.3c-2.6,0.7-6.2,0.1-8.8,0.1c-3.1,0-6.1,0-9.2,0
		C-51.4-107.1-56.7-106.2-57.9-108.8z M-52.3-90.8c-0.5-4.6-1-9.3-1.2-13.9c4.5,0.2,9.1-0.1,13.5-0.1c1.6,0,4.2,0.3,6.7,0.4
		c-0.8,4.7-1.3,9.5-1.7,14.3c-0.4,0-0.7,0-1,0c-3.2-0.1-6.4,0.1-9.7,0c-2.2-0.1-4.4-0.2-6.6-0.3C-52.3-90.6-52.3-90.7-52.3-90.8z
		 M-74.3-71.9c0-1.5-0.1-3-0.2-4.5c1.2,0,2.4,0,3.6,0.1c0,2,0,4.1,0,6.1c-0.4,0-0.9,0-1.4,0.1c-0.7,0-1.3,0-2,0
		C-74.3-70.7-74.3-71.3-74.3-71.9z M-70.9-80.4c0,0.6,0,1.3,0,1.9c-1.2-0.1-2.4-0.1-3.6-0.1c0-0.5,0.1-1.2,0.1-1.8
		C-73.3-80.4-72.1-80.4-70.9-80.4z M-86.3-70.2c0-2.2,0-4.4,0-6.6c1.1-0.1,2.2,0,3.3,0.1c0,0.7,0.1,1.4,0.1,2c0,1.4-0.1,3-0.1,4.6
		C-84.1-70-85.2-70.1-86.3-70.2z M-83-80.4c0,0.5-0.1,0.9,0,1.4c-1.1-0.1-2.2-0.2-3.3-0.1c0-0.5,0-1,0-1.5
		C-85.3-80.5-84.2-80.4-83-80.4z M-111.5-90.2c-3.2,0.1-6.4,0-9.7,0c-0.3,0-0.6,0-1,0c-0.4-4.8-0.9-9.6-1.7-14.3
		c2.5,0,5.2-0.4,6.7-0.4c4.4,0,9.1,0.3,13.5,0.1c-0.3,4.7-0.8,9.3-1.2,13.9c0,0.1,0,0.2,0,0.3C-107.1-90.4-109.3-90.3-111.5-90.2z
		 M-128.7-110.5c-0.1-0.4-0.1-1.4,0-2.3c0.3,0.4,0.5,0.8,0.8,1.1c0.3,0.5,1,0.7,1.5,0.4c0.5-0.3,0.8-1,0.4-1.5
		c-0.6-0.9-1.2-1.8-1.9-2.6c0.1-0.1,0.2-0.2,0.4-0.2c0.3,0,0.7,0,1,0c0.9,1.3,1.8,2.5,2.8,3.7c0.9,1.1,2.5-0.5,1.6-1.6
		c-0.6-0.7-1.1-1.4-1.7-2.2c0.4,0,0.9,0,1.3,0c0.8,1.2,1.6,2.3,2.6,3.4c1,1.1,2.5-0.5,1.6-1.6c-0.5-0.6-1-1.2-1.5-1.9
		c0.6,0,1.1,0,1.7,0c0.7,1.2,1.5,2.4,2.4,3.5c0.4,0.5,1,0.7,1.5,0.4c0.5-0.3,0.8-1.1,0.4-1.5c-0.6-0.8-1.1-1.5-1.6-2.3
		c0.6,0,1.1,0,1.7,0c0.5,0.9,1.1,1.8,1.6,2.7c0.8,1.2,2.7,0.1,1.9-1.1c-0.3-0.5-0.6-1-0.9-1.6c0.2,0,0.4,0,0.6,0c0.3,0,0.7,0,1,0
		c0.7,1.1,1.4,2.2,2.2,3.2c0.4,0.5,1,0.7,1.5,0.4c0.5-0.3,0.8-1.1,0.4-1.5c-0.5-0.7-1-1.4-1.5-2.1c0.5,0,1.1,0,1.6,0
		c0.1,0.1,0.1,0.3,0.2,0.4c0.8,1.1,1.7,2.1,2.5,3.2c0.4,0.5,1.2,0.4,1.6,0c0.5-0.5,0.4-1.1,0-1.6c-0.4-0.6-0.9-1.1-1.3-1.7
		c1.9,0.4,2.7,1.2,2.8,3.3c0.1,0.7,0.3,2.8,0,3.4c-1.1,2.4-5.7,1.6-7.8,1.6c-3.3,0-6.7,0.1-10,0c-2.5,0-5.6,0.4-8.1-0.1
		C-127.4-107.7-128.3-108.2-128.7-110.5z M-126.4-87c1-1.1,0.9-0.6,1.9-0.8c3.9-0.9,8.9,0,13-0.1c6.7-0.2,13.4-0.4,20.2-0.5
		c1.2,0,2.7-0.3,3.9,0c2.3,0.5,2.8,2.4,0.2,3c-3.7,0.9-8.6,0.7-12.4,0.7c-6.6-0.1-13.2,0.4-19.8,0.1c-1.7-0.1-3.6,0-5.2-0.3
		C-126.2-85.4-127.6-85.5-126.4-87z M-116.8-82.4c5.5,0.1,10.9-0.2,16.4-0.2c3.3,0.1,6.5-0.2,9.7-0.4c0.4,0,0.8,0,1.2,0
		c0,6.5,0.1,13,0.1,19.6c-2.1-0.1-4.4,0.1-5.8,0.1c-4.9-0.2-9.8,0.2-14.6,0.1c-3,0-5.8-0.1-8.8,0.2c-0.3,0-0.7,0-1.1,0
		c0-0.2,0-0.4,0-0.6c-1.1-6.2-1.6-12.5-2.6-18.7C-120.1-82.2-118-82.4-116.8-82.4z M-117.4-57.4c-1.4,0-7.2,0.7-5.5-2.2
		c1.4-2.3,10-1.4,12.1-1.3c6,0.1,11.9-0.4,17.9,0c1.5,0.1,4.4-0.2,5.4,0.9c1.7,1.8-1.3,2.2-3,2.2c-4,0.1-8,0-11.9,0
		C-107.3-57.7-112.3-57.4-117.4-57.4z M-102.2-55.6c4.1-0.1,8.7,0.6,12.9,0.1c-0.1,2.8,0,5.7,0.1,8.5c-1.8,0.1-3.6,0.3-4.7,0.3
		c-2.3,0-4.7,0-7,0c-0.6,0-1.4-0.1-2.2-0.1c0-2.9,0.1-5.8-0.2-8.7c0,0,0-0.1,0-0.1C-103-55.5-102.6-55.6-102.2-55.6z M-86.1-38.5
		c-4,0.1-8,0.1-12,0.1c-3.2,0-9.3,0.9-8.3-4.1c0,0,0,0,0-0.1c0.2,0.3,0.4,0.6,0.6,1c0.7,1.2,2.7,0.1,1.9-1.1c-0.3-0.5-0.6-1-0.9-1.4
		c0.4-0.1,0.8-0.2,1.3-0.3c0,0,0,0.1,0.1,0.1c0.4,0.5,0.8,1,1.1,1.6c0.7,1.3,2.7,0.1,1.9-1.1c-0.1-0.3-0.3-0.5-0.5-0.7
		c0.6,0,1.2,0,1.8,0.1c0,0.1,0.1,0.1,0.1,0.2c0.4,0.6,0.7,1.2,1.1,1.7c0.3,0.5,1,0.7,1.5,0.4c0.5-0.3,0.8-1,0.4-1.5
		c-0.1-0.2-0.3-0.4-0.4-0.6c0.3,0,0.6,0,0.8,0c0.6,0,1.1,0,1.7,0c0,0,0,0,0,0c0.3,0.6,0.6,1.1,0.9,1.7c0.7,1.3,2.7,0.1,1.9-1.1
		c-0.1-0.2-0.2-0.4-0.4-0.6c0.4,0,0.9,0,1.3,0c0,0,0,0,0,0.1c0.4,0.6,0.7,1.2,1,1.9c0.3,0.6,1.1,0.7,1.5,0.4c0.6-0.3,0.7-1,0.4-1.5
		c-0.1-0.1-0.1-0.2-0.2-0.3c0.8,0.3,1.3,0.7,1.6,2.3C-85.4-41.2-85.3-38.6-86.1-38.5z M-86.3-65.4c0-0.9,0-1.7,0-2.6
		c1.1,0.1,2.1,0.2,3.2,0.2c0,0.8,0.1,1.6,0.1,2.4c-0.6-0.1-1.3-0.1-1.9-0.1C-85.3-65.5-85.8-65.4-86.3-65.4z M-76.5-65.4
		c-0.4,1.8-2.3,2.6-3.5,1.2c-1.4-1.6-0.6-7.1-0.6-9.2c0-2-1-8.3,1.7-8.2c2.8,0.1,2.2,2.8,2.2,4.9c0.1,1.6,0.1,3.2,0.2,4.8
		C-76.6-69.9-76.1-67.3-76.5-65.4z M-74.3-65.3c0-0.9,0-1.7,0-2.6c0.5,0,1,0,1.6,0c0.6,0,1.2-0.1,1.7-0.1c0,0.9,0,1.8,0,2.6
		C-72-65.2-73.2-65.2-74.3-65.3z M-50.7-42.5c1.1,4.9-4.6,4.1-7.8,4.1c-4.2,0-8.4,0-12.5-0.1c-0.8-0.1-0.7-2.4-0.7-2.8
		c0.1-0.6,0.2-1.1,0.4-1.5c0.2,0.3,0.3,0.5,0.5,0.8c0.3,0.5,1,0.7,1.5,0.4c0.5-0.3,0.7-1,0.4-1.5c-0.2-0.4-0.5-0.7-0.7-1.1
		c0.1,0,0.1,0,0.1-0.1c0.4-0.1,0.8-0.2,1.3-0.2c0.6,1,1.2,1.9,1.8,2.8c0.4,0.5,1,0.7,1.5,0.4c0.5-0.3,0.8-1,0.4-1.5
		c-0.4-0.5-0.8-1.1-1.1-1.6c0.5,0,1,0.1,1.5,0.1c0.5,0.7,1,1.4,1.4,2c0.4,0.5,1,0.7,1.5,0.4c0.5-0.3,0.8-1,0.4-1.5
		c-0.2-0.3-0.4-0.6-0.6-0.9c0.4,0,0.9-0.1,1.5-0.1c0,0,0,0,0,0c0.4,0.6,0.8,1.3,1.2,2c0.7,1.2,2.7,0.1,1.9-1.1
		c-0.2-0.3-0.4-0.7-0.6-1c0.5,0,0.9,0,1.4,0c0.4,0.9,0.8,1.8,1.3,2.6c0.7,1.2,2.7,0.1,1.9-1.1c-0.2-0.4-0.4-0.8-0.6-1.2
		C-51.9-44.1-50.9-43.5-50.7-42.5z M-53.9-55.4c-0.3,2.8-0.1,5.6-0.2,8.4c-2.8-0.1-6.1,0.3-8.4,0.4c-1.3,0-3.5-0.3-5.5-0.3
		c0-2.8-0.1-5.6,0-8.4c4.2,0.5,8.9-0.2,13-0.1c0.4,0,0.7,0,1.1,0C-53.9-55.5-53.9-55.4-53.9-55.4z M-39.6-57.4
		c-5.1,0-10.2-0.2-15.3-0.4c-3.7-0.1-7.4,0.1-11.1,0c-0.9,0-4.9,0.1-4.7-1.7c0.2-1.5,4.7-1.4,5.8-1.4c6.1-0.4,12.3,0.1,18.4,0
		c2.8-0.1,9-1,11.3,0.9C-31.7-57.3-37.8-57.4-39.6-57.4z M-37.5-63.5c0,0.2,0,0.4,0,0.6c-0.4,0-0.8,0-1.1,0c-3-0.3-5.8-0.2-8.8-0.2
		c-4.9,0.1-9.8-0.3-14.6-0.1c-1.4,0.1-3.7-0.2-5.8-0.1c0-6.5-0.1-13.1,0.1-19.6c0.5,0,0.9,0,1.2,0c3.2,0.2,6.5,0.5,9.7,0.4
		c5.3-0.1,10.6,0.2,15.9,0.2c1.4,0,3.7,0.2,6.1,0.1C-35.7-76-36.3-69.7-37.5-63.5z M-31.7-85.1c-1.5,0.5-3.9,0.3-5.5,0.4
		c-6.8,0.3-13.5-0.2-20.3,0c-3.8,0.1-8,0-11.8-0.6c-2.3-0.4-3.6-2-0.9-3.1c1.1-0.4,2.9,0,4,0c6.8,0.1,13.6,0.3,20.5,0.5
		c4,0.1,8.8-0.7,12.7,0.1C-31.3-87.4-28.5-86.1-31.7-85.1z"/>
	<path class="st0" d="M-114.2-70.3c0.9,1.1,2.5-0.5,1.6-1.6c-1.3-1.7-2.8-3.3-4.3-4.8c-1-1-2.6,0.6-1.6,1.6
		C-116.9-73.6-115.5-72-114.2-70.3z"/>
	<path class="st0" d="M-109.4-70.5c0.9,1.1,2.8,0,1.9-1.1c-1.4-1.9-2.8-3.8-4.2-5.6c-0.9-1.1-2.8,0-1.9,1.1
		C-112.2-74.3-110.8-72.4-109.4-70.5z"/>
</g>
<g>
	<path class="st0" d="M-40.1,21.7c-5.1-4.7-9.9-6.1-16.4-3.4c-5.8,2.4-10.3,7.6-14.8,11.7c-6.8,6.2-13.4,12.7-19.9,19.3
		c-6.2,6.4-12.4,12.9-18.4,19.5c-2.7,2.9-5.7,5.9-8,9.1c-0.1,0.1-0.2,0.2-0.2,0.3c-0.1,0.1-0.2,0.3-0.2,0.4
		c-1.6,3.2-2.3,7.2-3.1,10.6c-1.3,5.5-2.3,11.1-2.8,16.7c-0.1,1.1,1,1.6,1.9,1.4c8.8-1.4,17.4-3.3,26.2-4.9c3.6-0.6,5.1-3.1,7.6-5.7
		c4.2-4.3,8.3-8.7,12.5-13c7.7-8.1,15.4-16.1,23.3-24c6.5-6.5,15.6-13.6,18.7-22.6C-31.6,30.6-35.5,26-40.1,21.7z M-49.4,52.8
		c-3.6-3-6.3-6.4-9.5-9.8c-3.4-3.6-7-7-10.7-10.3c0.7-0.6,1.3-1.2,2-1.8c6.8,6.7,13.4,13.4,20,20.2C-48.2,51.6-48.8,52.2-49.4,52.8z
		 M-57.5,60.6c-6.3-7.2-13.8-13.3-21-19.6c0.6-0.6,1.2-1.1,1.8-1.7c7.6,5.6,14.1,13,20.8,19.7c-0.3,0.3-0.5,0.5-0.8,0.8
		C-56.9,60-57.2,60.3-57.5,60.6z M-96.2,89.4C-96.2,89.4-96.2,89.4-96.2,89.4c-2.9,0.2-5.7,0.2-8.6,0.3c-0.1-2.2-0.1-5.6-0.9-7.7
		c5.1-5,9.6-10.6,14.5-15.8c5.5-5.9,11.4-11.6,17.1-17.3c3,2.6,5.9,5.2,8.7,8C-75.3,67.9-85.5,78.9-96.2,89.4z M-71.3,34.2
		c0.5,0.5,1.1,1,1.6,1.5c-1.1,1.2-2.2,2.4-3.4,3.5c-0.6-0.5-1.3-1-1.9-1.5C-73.8,36.5-72.5,35.4-71.3,34.2z M-64,47.5
		c1.2-0.9,2.3-1.9,3.3-3c0,0,0.1,0.1,0.1,0.1c0.6,0.7,1.2,1.3,1.8,2c-0.9,1.1-2,2.1-3.1,3.1C-62.5,48.9-63.2,48.2-64,47.5z
		 M-65.6,45.9c-0.6-0.6-1.2-1.2-1.9-1.8c1-1.1,2.1-2.2,3.2-3.3c0.7,0.7,1.4,1.4,2,2C-63.3,43.9-64.4,44.9-65.6,45.9z M-69.1,42.6
		c-0.7-0.7-1.5-1.3-2.2-2c1.2-1.1,2.3-2.2,3.3-3.4c0.7,0.7,1.5,1.4,2.2,2C-67,40.3-68.1,41.4-69.1,42.6z M-60.3,51.2
		c1.1-0.9,2.1-1.9,3-3c0.7,0.7,1.3,1.5,2,2.2c-1,1-2,2-2.9,3.1C-58.8,52.7-59.5,52-60.3,51.2z M-97.6,60.3
		c5.5-5.8,11.2-11.6,17-17.2c1.6,1.4,3.3,2.8,4.9,4.3c-5.7,5.7-11.5,11.3-17,17.2c-4.9,5.3-9.4,10.8-14.5,15.8
		c-0.9-0.3-2-0.3-2.6-0.4c-1.6-0.3-3.3-0.5-5-0.8C-110,72.4-103.3,66.3-97.6,60.3z M-109,102.3c-2.4-3-6.1-6.8-9.8-9.8
		c0.2-0.8,0.3-1.6,0.5-2.4c0.6-2.8,1.2-6.1,2.3-8.8c2.4,0.2,6.1,0.3,8.2,1.3c-0.8-0.3,0,1.5,0.1,2.7c0.2,1.8,0.4,3.7,0.7,5.5
		c0.1,0.6,0.5,1.2,1.1,1.1c2.1-0.1,4.3,0.1,6.4-0.1c2.3-0.2,2.2-0.7,2.5,1.6c0.2,2.1,0.4,4.1,0.5,6.2c-0.3,0.1-0.5,0.2-0.8,0.2
		C-101.1,100.7-105,101.5-109,102.3z M-76.7,80.5c-3.6,3.7-7.1,7.4-10.7,11.2c-2.2,2.3-4.2,5.1-6.8,6.8c-0.2-2.4-0.4-4.8-0.7-7.1
		c10.8-10.6,21.1-21.7,31.3-32.9c1.4,1.4,2.8,2.9,4.1,4.4C-65.3,68.6-71,74.5-76.7,80.5z M-54.2,57.4c-0.8-0.8-1.5-1.5-2.3-2.3
		c0.9-1.1,1.9-2.1,2.9-3.1c0.8,0.8,1.7,1.6,2.6,2.3C-52.1,55.4-53.2,56.4-54.2,57.4z M-37.5,38.3c-1.9,3.8-4.8,7.3-8,10.6
		c-6.6-6.8-13.2-13.5-19.9-20.1c0.1-0.1,0.3-0.3,0.4-0.4c4.5-4.1,10.2-10.2,17-8.3c3.2,0.9,5.7,3.6,7.9,6
		C-36.6,29.9-35,33.1-37.5,38.3z"/>
	<path class="st0" d="M-56,26c-0.3-1.4-2.4-0.8-2.2,0.6c0.4,2,0.9,4,1.6,6c0.5,1.4,2.6,0.8,2.2-0.6C-55.1,30.1-55.6,28.1-56,26z"/>
	<path class="st0" d="M-52.2,25.3c-0.5-1.4-2.6-0.8-2.2,0.6c0.6,1.7,1.1,3.4,1.7,5.1c0.5,1.4,2.6,0.8,2.2-0.6
		C-51.1,28.6-51.6,27-52.2,25.3z"/>
</g>
<g>
	<path class="st0" d="M-480.2,186.8c-8.1,0.8-14,7.8-13.7,15.7c0.2,7.9,7.9,14.8,15.8,14.7c0.1,0,0.2,0,0.4,0
		c8.2-0.8,14-6.2,13.4-14.8C-465,194.4-471.1,185.9-480.2,186.8z M-469.2,209.5c-2.8-6.7-5.9-13.2-9.2-19.6c0.8,0.1,1.7,0.2,2.4,0.5
		c2.9,5.1,4.9,10.7,8.1,15.7c0,0.1,0.1,0.1,0.1,0.2C-468.1,207.5-468.6,208.6-469.2,209.5z M-467.7,200.5c0.1,0.7,0.2,1.3,0.2,2
		c-1.8-3.3-3.3-6.7-5-10C-470,194.4-468.2,197.3-467.7,200.5z M-480.9,190C-480.9,190-480.9,190-480.9,190c3.7,6.9,7,14,10,21.2
		c0,0.1,0.1,0.1,0.1,0.1c-0.6,0.5-1.2,0.9-1.9,1.3c-3.6-7.3-7.2-14.7-10.8-22c0.7-0.3,1.4-0.5,2.1-0.6
		C-481.2,190.1-481.1,190-480.9,190z M-481.9,213.6c-2.7-5.5-5.4-10.9-8.1-16.4c0.3-0.7,0.7-1.4,1.2-2.1c2.9,6.5,6.1,12.9,9.5,19.1
		C-480.2,214.1-481.1,213.9-481.9,213.6z M-476.8,214.1c-3.8-6.8-7.3-13.8-10.5-20.9c0.5-0.5,1.1-1,1.8-1.4
		c3.6,7.3,7.2,14.6,10.7,21.8C-475.4,213.8-476.1,214-476.8,214.1z M-490.9,203.3c-0.2-1-0.2-2,0-2.9c1.9,3.8,3.7,7.6,5.6,11.4
		C-488.1,209.7-490.3,206.6-490.9,203.3z"/>
	<path class="st0" d="M-453.9,172.2c-11.4-10.3-31.2-11.4-44.3-4.2c-13,7.1-22.8,24.3-19.7,39.2c0.9,4.5,2.2,9.1,4.1,13.2
		c2,4.3,5.5,7.6,8.9,10.8c7.1,6.5,15.9,10,25.5,10.2c16.2-0.6,31.5-9.4,37.7-24.9C-435.7,201.3-442,183-453.9,172.2z M-452.9,177.8
		c4,5,7.5,10.8,9.3,17c-3.5-6.2-7.1-12.3-10.6-18.5C-453.7,176.8-453.3,177.3-452.9,177.8z M-443.5,212.7
		c-2.9-5.1-5.5-10.3-8.5-15.3c-1.2-5.1-3.7-9.8-7.3-13.5c-2.7-5.2-5.5-10.4-8.4-15.5c0.8,0.2,1.6,0.5,2.4,0.8
		c8.5,13,15,27.2,22.5,40.8C-443,210.8-443.3,211.8-443.5,212.7z M-445.4,217.5c-2-3.6-4.3-7-6.2-10.7c0.1-0.6,0.1-1.1,0.2-1.7
		c0-0.7,0.1-1.4,0.1-2.1c2.3,4.1,4.4,8.3,6.9,12.4C-444.8,216.2-445.1,216.8-445.4,217.5z M-447.7,221.5c-1.7-3-3.5-5.9-5.5-8.7
		c0.3-0.8,0.6-1.7,0.9-2.6c1.9,3.2,3.8,6.4,5.6,9.6C-447,220.4-447.3,221-447.7,221.5z M-480,226.3c-6.2-0.5-12.2-2.4-16.9-6.7
		c-4.9-4.5-6.7-12.2-6.5-18.6c0.5-14,14.7-25,28.4-22.5c11.9,2.2,20.9,13.8,20.5,25.8C-454.9,217.9-467.2,226.4-480,226.3z
		 M-457.5,231.2c-1.5-2.5-3-5-4.6-7.4c0.6-0.5,1.3-0.9,1.9-1.5c1.7,2.4,3.3,4.9,4.7,7.4C-456.1,230.2-456.8,230.7-457.5,231.2z
		 M-461.6,233.7c-1.5-2.5-3.1-4.9-4.6-7.4c0.8-0.4,1.6-0.8,2.3-1.3c1.5,2.5,3.1,4.9,4.6,7.4C-460.1,232.9-460.9,233.3-461.6,233.7z
		 M-466.2,235.7c-1.5-2.6-3.1-5.2-4.7-7.7c0.9-0.3,1.7-0.5,2.6-0.9c1.5,2.5,3.1,5,4.6,7.5C-464.5,235.1-465.3,235.4-466.2,235.7z
		 M-470.3,237c-1.7-2.7-3.4-5.4-5.1-8.1c0.7-0.1,1.5-0.2,2.2-0.4c1.7,2.6,3.3,5.2,4.9,7.9C-469,236.7-469.6,236.9-470.3,237z
		 M-474.9,238c-2-2.8-3.8-5.8-5.5-8.8c0.2,0,0.3,0,0.5,0c0.7,0,1.4,0,2.1,0c1.8,2.8,3.5,5.6,5.3,8.4
		C-473.4,237.7-474.2,237.9-474.9,238z M-479.4,238.4c-0.2,0-0.3,0-0.5,0c-2.1-3.3-4.1-6.6-6-10c0.9,0.2,1.8,0.4,2.6,0.5
		c1.8,3.2,3.7,6.4,5.8,9.4C-478.1,238.3-478.8,238.4-479.4,238.4z M-493,235.3c-7.3-13.5-14.5-26.9-21.8-40.4
		c0.2-0.7,0.4-1.4,0.6-2.1c2.8,5.2,5.7,10.3,8.5,15.5c0.9,5,3.1,10,6.8,13.3c0.5,0.4,0.9,0.8,1.4,1.2c2.8,4.7,5.7,9.4,8.5,14
		C-490.4,236.4-491.7,235.9-493,235.3z M-498.7,232.1c-6.1-10.1-11.7-20.2-16.9-30.8c0-0.3,0-0.6,0-1c0-0.6,0.1-1.2,0.2-1.8
		c6.3,11.6,12.6,23.3,18.8,34.9C-497.3,233-498,232.6-498.7,232.1z M-512.4,187.9c0.7,1.3,1.6,2.6,2.4,3.9c1.4,2.4,2.7,4.8,3.9,7.3
		c-0.1,0.6-0.1,1.2-0.1,1.8c0,0.6,0,1.1,0,1.7c-2.3-4.2-4.6-8.4-7-12.7C-513,189.2-512.7,188.6-512.4,187.9z M-509.4,182.6
		c1.8,3.2,3.5,6.4,5,9.7c-0.4,1-0.8,2.1-1.1,3.1c-0.7-1.3-1.4-2.6-2.1-3.9c-1.2-2-2.8-4-3.5-6.2C-510.6,184.4-510,183.5-509.4,182.6
		z M-506.4,178.6c1.8,2.7,3.4,5.4,4.9,8.3c-0.6,0.9-1.2,1.8-1.7,2.7c-1.5-3.1-3.1-6.1-4.8-9.1C-507.5,179.9-506.9,179.2-506.4,178.6
		z M-503.1,175.3c1.5,2.7,3.1,5.4,4.6,8.1c-0.5,0.5-1,1-1.4,1.6c-1.5-2.8-3.1-5.5-4.9-8C-504.2,176.4-503.7,175.8-503.1,175.3z
		 M-499.3,172.3c1.4,2.7,2.9,5.3,4.4,8c-0.6,0.5-1.3,1-1.9,1.5c-1.5-2.7-3-5.3-4.5-8C-500.7,173.3-500,172.8-499.3,172.3z
		 M-491.3,168.3c1.3,2.7,2.8,5.4,4.4,8c-0.7,0.2-1.4,0.5-2.1,0.8c-1.4-2.7-2.9-5.3-4.3-8C-492.6,168.8-491.9,168.5-491.3,168.3z
		 M-486.5,167c1.8,2.6,3,5.5,4.6,8.2c-0.9,0.1-1.8,0.3-2.7,0.5c-1.6-2.6-3.1-5.3-4.5-8.1C-488.2,167.3-487.4,167.1-486.5,167z
		 M-481.5,166.4c1.5,3,3.1,5.9,4.9,8.7c-0.9-0.1-1.9-0.1-2.8-0.1c-1.7-2.8-2.9-5.7-4.7-8.4C-483.2,166.5-482.3,166.4-481.5,166.4z
		 M-495.3,170.1c1.4,2.6,2.8,5.2,4.2,7.8c-0.7,0.3-1.4,0.7-2,1.1c-1.4-2.7-2.9-5.3-4.3-8c0.7-0.4,1.4-0.8,2.1-1.1
		C-495.3,170-495.3,170.1-495.3,170.1z M-486,237.5c-2.4-3.9-4.8-7.9-7.2-11.8c1.4,0.7,2.8,1.3,4.2,1.8c2,3.6,4.1,7.2,6.3,10.7
		c-1.1-0.1-2.1-0.3-3.2-0.5C-485.9,237.6-485.9,237.6-486,237.5z M-470.9,167.5c2.4,4,4.7,8.2,6.9,12.3c-1.1-0.8-2.2-1.4-3.4-2
		c-2.2-3.6-4.3-7.3-6.5-10.9C-472.9,167-471.9,167.2-470.9,167.5z M-461.7,170.8c0.9,0.5,1.8,1,2.7,1.6c0,0.1,0.1,0.2,0.1,0.3
		c5.4,9.3,10.7,18.7,16.1,28c0.1,0.2,0.3,0.3,0.4,0.4c0.1,0.9,0.1,1.8,0.1,2.7c0,0.8,0,1.6-0.1,2.3
		C-448.7,194.3-454.6,182.2-461.7,170.8z M-476.8,166.5c2,3.2,3.9,6.5,5.8,9.8c-0.9-0.3-1.8-0.5-2.7-0.7c-1.9-3-3.7-6-5.3-9.2
		C-478.2,166.4-477.5,166.5-476.8,166.5z M-506.6,225.2c-4.3-4.4-7.5-11.5-8.6-18.2c3.7,7.2,7.5,14.2,11.6,21.1
		C-504.7,227.2-505.7,226.3-506.6,225.2z M-453.7,228.3c-1.4-2.5-2.9-4.9-4.6-7.2c-0.1-0.1-0.1-0.2-0.2-0.2c0.5-0.5,0.9-1,1.4-1.5
		c1.6,2.6,3.2,5.1,4.9,7.7C-452.7,227.4-453.2,227.9-453.7,228.3z M-450.7,225.3c-1.7-2.6-3.4-5.2-5-7.9c0.5-0.7,1-1.5,1.4-2.2
		c1.8,2.7,3.5,5.5,5.1,8.3C-449.7,224.1-450.2,224.7-450.7,225.3z"/>
	<path class="st0" d="M-428.9,190.6c-2.5-9.7-8.6-18.2-16-24.9c-7.6-7-16.8-13-27.2-14.1c-11.1-1.2-24.7,0.2-34.1,6.7
		c-18.2,12.7-27.8,32.6-23.1,54.8c5.1,23.8,26.5,40.4,50.6,40.4c20.2,0.1,38.4-10.3,46.2-29.2C-428,213.6-426,201.8-428.9,190.6z
		 M-432.6,215.7c-3.1,10.7-8.5,20.4-17.9,26.7c-8.3,5.6-18.2,8.1-28.1,8c-19.9,0-38.2-11.9-45.5-30.6c-3.7-9.6-4.6-21.5-1.8-31.5
		c2.6-9.3,8.2-16.5,15.3-22.7c3.7-3.3,7.7-6.6,12.4-8.4c5.4-2.1,11.5-2.4,17.3-2.8c11.1-0.6,20.3,2.6,29.1,9.4
		C-435.2,176.5-426.7,195-432.6,215.7z"/>
	<path class="st0" d="M-490.1,185.6c1.1-0.9,0-2.8-1.1-1.9c-1.8,1.3-3.3,2.8-4.7,4.5c-0.9,1.1,0.7,2.7,1.6,1.6
		C-493.1,188.2-491.7,186.8-490.1,185.6z"/>
	<path class="st0" d="M-491.7,188.5c-1,1.1,0.6,2.7,1.6,1.6c0.9-1,2-1.9,3.2-2.6c1.3-0.7,0.1-2.7-1.1-1.9
		C-489.4,186.3-490.6,187.3-491.7,188.5z"/>
</g>
<g>
	<path class="st0" d="M-312.7,227.4c0-6.9-0.1-13.9-0.3-20.8c-0.4-13.2-0.9-26.4-1.7-39.6c-0.5-9.1-4.1-14.7-13.6-16.1
		c-10.6-1.6-21.8-1-32.5-0.4c-4.8,0.3-9.7,0.8-12.6,5.1c-2.8,4.2-3,10.3-3.4,15.2c-1.3,13.8,0.2,27.9-0.1,41.8
		c0,9.1-0.3,18.3,0.5,27.4c0.5,5.7,1.7,10,7.2,12.9c3.8,2,9.6,1.5,13.6,1.5c7.3,0.1,14.5-0.4,21.8-0.6c8.3-0.2,19.3,0.2,20.9-10.4
		C-312.2,238.4-312.7,232.7-312.7,227.4z M-316,243c-1.5,7.7-8.6,7.9-15,7.9c-10.2,0.1-20.5,1.1-30.7,0.5c-4.1-0.2-9-1.3-10.9-5.5
		c-1.2-2.5-1-6-1.2-8.8c-0.5-8.1-0.3-16.3-0.3-24.5c0.2-9.1,0.1-18.2-0.2-27.2c-0.2-4.9-0.1-9.7,0.4-14.5c0.5-5.6,0.6-14.1,6.8-16.5
		c4.1-1.6,9.9-1,14.3-1.2c4.5-0.2,9-0.2,13.5-0.1c4.2,0.1,8.9,0.1,13,1.2c6.6,1.8,8.1,6.4,8.5,12.7c1.3,20.4,2.1,40.9,2.1,61.3
		C-315.7,233.1-315.1,238.4-316,243z"/>
	<path class="st0" d="M-351,160.7c4-0.2,8-0.3,12-0.3c1.4,0,1.5-2.2,0-2.3c-4,0-8,0.1-12,0.3C-352.5,158.5-352.5,160.8-351,160.7z"
		/>
	<path class="st0" d="M-334.1,160.2C-334.1,160.2-334.1,160.1-334.1,160.2c1.1-1.1-0.5-2.7-1.5-1.7c0,0,0,0-0.1,0.1
		C-336.7,159.6-335.1,161.2-334.1,160.2z"/>
	<path class="st0" d="M-329.5,160.3C-329.5,160.2-329.5,160.2-329.5,160.3c1.1-1.1-0.5-2.7-1.5-1.7c0,0,0,0-0.1,0.1
		C-332.2,159.7-330.6,161.3-329.5,160.3z"/>
	<path class="st0" d="M-344.2,242.3c-3.1,0-9.2-0.7-9.6,3.7c-0.4,4.1,6.3,3.7,8.8,3.6c2.5-0.1,8.5,0.2,8.7-3.4
		C-336,241.5-341.1,242.3-344.2,242.3z M-338.9,246.5c-1,1.1-5.1,0.9-6.5,0.9c-1,0-5.4,0.2-5.7-0.5c-1.3-2.9,5.9-2.3,7-2.3
		C-343.2,244.5-336.9,244.1-338.9,246.5z"/>
	<path class="st0" d="M-319.3,165.6C-319.3,165.6-319.3,165.6-319.3,165.6c0,0,0-0.1-0.1-0.1c-0.2-0.3-0.5-0.6-1-0.6
		c-16.8,0.1-33.6,0.9-50.4,0.6c-0.5,0-0.8,0.3-1,0.6c0,0,0,0,0,0c0,0,0,0.1,0,0.1c0,0.1-0.1,0.2-0.1,0.4
		c-0.7,11.8,0.5,23.6,0.2,35.4c-0.3,12.6-1,25.1-0.6,37.7c0,0.2,0.1,0.4,0.2,0.5c0.2,0.3,0.5,0.6,1,0.6c8.8-0.2,17.5,0.1,26.3-0.4
		c8.9-0.5,17.7,0.1,26.6-0.1c0.2,0,0.4-0.1,0.5-0.1c0.4-0.1,0.6-0.5,0.6-1c-1.2-24.4-1-48.8-2.1-73.2
		C-319.3,165.9-319.3,165.7-319.3,165.6z M-344.9,238.2c-8.4,0.4-16.8,0.2-25.2,0.3c-0.3-12.2,0.4-24.3,0.6-36.5
		c0.2-11.4-0.9-22.9-0.3-34.3c16.1,0.2,32.2-0.5,48.3-0.6c1.1,23.6,0.9,47.3,2,71C-327.9,238.3-336.4,237.8-344.9,238.2z"/>
	<path class="st0" d="M-359.1,173.6c-2.2,1.8-4,3.9-5.4,6.4c-0.7,1.3,1.2,2.4,1.9,1.1c1.3-2.3,3-4.3,5-5.9
		C-356.3,174.3-357.9,172.7-359.1,173.6z"/>
	<path class="st0" d="M-354.2,174.4c-1.4,1.6-2.7,3.2-4.1,4.8c-0.9,1.1,0.7,2.7,1.6,1.6c1.4-1.6,2.7-3.2,4.1-4.8
		C-351.6,174.9-353.2,173.3-354.2,174.4z"/>
</g>
<g>
	<path class="st0" d="M-167.1,202c-6.7-6.4-13.1-13-19.5-19.7c-6.3-6.6-12.7-13.2-19.2-19.5c-2.1-2-4.8-5.9-7.7-6.9
		c-2.1-0.7-4.8,0.2-6.9,0.5c-0.1,0-0.1,0-0.2,0c-0.6-0.4-1.3-0.7-2.1-0.8c-2.8-0.6-6.4,0.2-9.2,0.4c-5.6,0.4-11.2,0.9-16.8,1.7
		c-4.2,0.6-9.9,0.1-11,5c-1.2,5.2-1.6,10.8-2.1,16.1c-0.5,4.9-1,10.9-0.2,15.7c1.3,8.2,11.1,15.2,16.7,20.4
		c7.7,7.1,15.1,14.6,22.6,21.9c3,3,6.1,5.9,9.2,8.7c1.3,1.1,3.1,3.2,4.9,3.6c0.2,0,0.3,0,0.4,0c0.1,0,0.2,0,0.4,0
		c1.2-0.2,2.3-1.2,3.3-2c5.2,5.7,11.9-3.7,15.5-7.1c4.7-4.5,9.3-9.2,13.9-13.8c4.3-4.4,9.2-8.7,12.9-13.5
		C-158.7,207.8-163.8,205.1-167.1,202z M-208.2,246.1c-1.2-0.5-2.4-1.9-3.2-2.7c-2.3-2-4.4-4.1-6.6-6.2c-5.7-5.5-11.2-11-16.9-16.5
		c-5.9-5.7-12.2-11.1-17.9-17c-2.9-3-5.9-6.2-6.5-10.5c-0.5-4-0.2-8.6,0.1-12.7c0.4-4.8,0.6-10.2,1.9-14.9c1.2-4.6,3.3-4.2,7.3-4.8
		c3.5-0.5,7-0.9,10.5-1.2c4.5-0.4,10.3-1.8,14.7-1c5.7,0.9,11.5,9,15.4,12.9c7.8,7.8,15.3,15.8,23.1,23.6c3.8,3.8,7.6,7.6,11.5,11.3
		c2.1,2,3.4,2.9,1.1,5.6c-1.3,1.5-2.7,2.8-4,4.2c-6.1,6.4-12.2,12.7-18.5,18.9c-2.6,2.5-5.2,5.1-7.9,7.5
		C-205,243.5-206.7,245.5-208.2,246.1z M-164.1,210c-0.1,0.6-2,2.3-2.5,2.9c-6.9,7.3-13.9,14.5-21.1,21.5c-2.9,2.8-5.8,5.6-8.8,8.3
		c-1.9,1.7-3.7,4.4-5.9,2.4c2.1-1.8,4.1-3.8,6.1-5.7c6.9-6.7,13.6-13.6,20.2-20.5c2-2.1,6.4-5.5,7.1-8.5c0.8-3.5-4.5-6.7-6.6-8.7
		c-9.8-9.4-19.1-19.3-28.6-29c-4.4-4.5-8.8-8.8-13.3-13.2c-0.2-0.2-0.4-0.4-0.6-0.6c0.7-0.1,1.5-0.2,2.1-0.1
		c2.1,0.3,4.1,2.8,5.6,4.1c2.5,2.4,4.9,4.8,7.3,7.2c4.9,4.9,9.7,9.9,14.6,14.9c4.9,5.1,9.8,10.1,14.8,15c2.5,2.4,5.5,4.7,7.6,7.3
		C-165.1,208.2-163.9,208.6-164.1,210z"/>
	<path class="st0" d="M-240.7,169.7c-1.1-3.8-4.7-4.3-7.9-3.1c-0.1,0-0.3,0.1-0.4,0.2c-2.8,1.7-4.3,5-3.1,8.2
		c1.3,3.2,4.2,4.6,7.3,2.9C-242,176.3-239.8,173-240.7,169.7z M-245.9,174.9c-1.6,1.1-2.9,0.6-3.5-1.3c-0.5-1.7,0.4-3.3,1.8-4.2
		c1.7-0.6,3.7-0.9,4.1,1.4C-243.2,172.4-244.5,174.1-245.9,174.9z"/>
	<path class="st0" d="M-226.2,191.9c-0.5-2-1.9-3.8-2.4-5.8c-0.9-3.6,4-5.5,6-2.6c0.6,0.9,1,2,0.9,3.1c-0.1,1.9,2.9,1.9,3,0
		c0.3-5.6-7.1-11.3-11.6-6.4c-2.3,2.5-1.6,6-0.4,8.8c0.5,1.2,1.4,2.5,1.7,3.8c0.9,3.6-2.2,6.1-5.7,5c-4-1.3-7.3-6.4-4.7-10.2
		c1.1-1.6-1.5-3.1-2.6-1.5c-4.6,6.9,4.6,18.5,12.3,15C-226.4,199.4-225.3,195.2-226.2,191.9z"/>
	<path class="st0" d="M-214.8,203.3c-1.2-1.2-2.5-2.4-3.7-3.5c0.8-0.8,1.6-1.6,2.5-2.4c1.5-1.4,1.8-1.8,4.1-1.6
		c2.4,0.2,3.3,1.2,4.9,2.9c1.3,1.4,3.5-0.7,2.1-2.1c-2.2-2.3-4.9-4.8-8.4-4.2c-3.6,0.6-6.7,4.7-9.1,7.2c-2,2.1-5.6,5.1-5.2,8.3
		c0.4,3.4,4.1,6.7,6.7,8.4c1.6,1.1,3.1-1.5,1.5-2.6c-1-0.7-2-1.5-2.7-2.4c-0.9-1.1-2.4-3.5-2.2-4.9c0.2-1.2,2.5-3.2,3.8-4.5
		c1.2,1.2,2.5,2.4,3.7,3.5C-215.5,206.7-213.4,204.6-214.8,203.3z"/>
	<path class="st0" d="M-192.9,208.6c-0.1-0.1-0.1-0.2-0.2-0.2c0,0,0-0.1-0.1-0.1c-8.4-9.4-28.8,5.2-20.3,16.4
		C-204.5,236.5-185.9,219.5-192.9,208.6z M-195.4,210.3c4.9,8.1-10.2,22-16.1,12C-216.3,214.2-201.4,204-195.4,210.3z"/>
	<path class="st0" d="M-232.3,169.6c3.5,0,7-0.1,10.4-0.1c1.4,0,1.5-2.3,0-2.3c-3.5,0-7,0.1-10.4,0.1
		C-233.7,167.3-233.7,169.6-232.3,169.6z"/>
	<path class="st0" d="M-226.4,171.2c-1.4-0.1-1.4,2.2,0,2.3c2,0.1,4-0.1,6-0.4c1.4-0.3,0.8-2.4-0.6-2.2
		C-222.7,171.2-224.5,171.3-226.4,171.2z"/>
	<path class="st0" d="M-205.3,232.6c-2.4,0.2-4.8,0.4-7.2,0.5c-1.4,0-1.5,2.3,0,2.3c2.4-0.1,4.8-0.2,7.2-0.5
		C-203.9,234.7-203.9,232.4-205.3,232.6z"/>
	<path class="st0" d="M-207.3,236.5c-0.8,0.3-1.6,0.5-2.4,0.6c-0.6,0.1-0.9,0.8-0.8,1.4c0.2,0.6,0.8,0.9,1.4,0.8
		c0.8-0.1,1.6-0.3,2.4-0.6c0.6-0.2,1-0.8,0.8-1.4C-206.1,236.7-206.8,236.3-207.3,236.5z"/>
</g>
<g>
	<path class="st1" d="M-119,219.1c4.1,0.1,8.8,0.6,9.3-4.5c0.6-6.2,0.1-12.7,0.2-18.9c0-3,1.7-10-2-11.4c-2.1-0.8-5.6-0.4-7.9-0.7
		c-2.2-0.3-4.4-0.3-6.7-0.2c-4,0.1-5.9,0.3-5.9,4.6c0,6-0.5,12.1-0.5,18.1c-0.2,2.8-0.7,8.4,0.9,10.8
		C-129.4,220.5-122.3,219.1-119,219.1z M-126.7,186.4c3.1-0.3,6.2,0.2,9.3,0.5c1.3,0.1,4.1-0.4,4.9,0.7c0.7,0.9,0,5.6,0,6.7
		c0,3.6-0.1,7.3-0.1,10.9c0,2.2,0,4.5-0.1,6.7c0,3.7-1.2,4.3-4.9,4.3c-2.3,0-7,0.8-9.8-0.2c0.8-0.6,1.5-1.3,2.1-2.1
		c0.9-1.1-0.7-2.7-1.6-1.6c-0.7,0.8-1.5,1.6-2.3,2.3c0,0-0.1-0.1-0.1-0.1c-0.4-0.9-0.5-2.2-0.5-3.6c1.2-1.1,2.5-2.2,3.7-3.2
		c1.1-0.9-0.5-2.5-1.6-1.6c-0.7,0.6-1.4,1.2-2.1,1.8c0-0.6,0.1-1.2,0.1-1.7c0-0.7,0-1.3,0-2c1.5-1.4,3-2.8,4.7-4.1
		c1.1-0.9-0.5-2.5-1.6-1.6c-1,0.8-2,1.6-3,2.5c0-0.8,0.1-1.7,0.1-2.5c1.4-1.1,2.7-2.2,4.1-3.4c1.1-0.9-0.5-2.5-1.6-1.6
		c-0.8,0.6-1.6,1.3-2.3,1.9c0-0.5,0.1-1,0.1-1.5c0-0.4,0-0.8,0-1.2c1.2-0.9,2.4-1.8,3.6-2.6c1.2-0.9,0-2.8-1.1-1.9
		c-0.8,0.6-1.7,1.2-2.5,1.8c0-0.4,0-0.8,0-1.1C-128.9,186.7-128.9,186.6-126.7,186.4z"/>
	<path class="st1" d="M-100.7,216.3c1.5,3.4,6.1,2.6,9.1,2.5c3.1-0.1,9.5,1.1,12.1-0.9c2.6-2,1.2-9.1,1.2-11.9
		c0-6.7,0.1-13.4,0.1-20.1c0-3.3,0-6.5,0-9.8c0-1.5,0.5-4.2-0.4-5.6c-1.6-2.4-7.5-1.6-10-1.9c-2.6-0.3-8.8-1.2-11.1,0.5
		c-2.4,1.8-1.1,8.4-1.1,11c-0.2,7-0.6,14-0.5,21c-0.2,2.9-0.1,5.7,0.1,8.6C-101.1,211.7-101.5,214.5-100.7,216.3z M-97.8,172.2
		c1.4-2.1,9.2-0.5,11.2-0.2c2.2,0.3,4.6-0.5,5.5,1.5c0.8,1.8,0,6,0,7.8c0,5.9-0.1,11.8-0.1,17.7c0,2.9,0,5.8,0,8.6
		c0,1.5,0.8,6.2-0.1,7.5c-0.9,1.3-8.1,1.2-12,1c1.1-0.8,2.2-1.6,3.3-2.4c1.2-0.8,0-2.8-1.1-1.9c-1.8,1.3-3.6,2.6-5.3,3.9
		c-0.8-0.4-1.2-1-1.4-1.7c2.2-1.6,4.3-3.3,6.4-5.1c1.1-0.9-0.5-2.5-1.6-1.6c-1.6,1.4-3.2,2.7-4.9,4c0-0.4,0-0.9,0-1.3
		c0-0.5,0-0.9-0.1-1.4c2-2.2,4.2-4.2,6.6-5.9c1.2-0.8,0-2.8-1.1-1.9c-2,1.4-3.9,3-5.6,4.7c0-0.8,0-1.6,0-2.4
		c1.7-1.9,3.6-3.6,5.6-5.2c1.1-0.9-0.5-2.5-1.6-1.6c-1.4,1.1-2.7,2.3-4,3.5c0-1.2,0-2.4,0-3.6c1.6-1.7,3.4-3.1,5.3-4.4
		c1.2-0.8,0.1-2.7-1.1-1.9c-1.4,0.9-2.8,2-4.1,3.2c0-0.9,0.1-1.9,0.1-2.8c1.6-1.7,3.4-3.3,5.4-4.6c1.2-0.8,0.1-2.8-1.1-1.9
		c-1.5,1-2.8,2.1-4.1,3.3c0-0.5,0-0.9,0.1-1.4c0-0.5,0-1,0-1.5c1.4-1.7,3.1-3.3,4.9-4.6c1.2-0.8,0.1-2.8-1.1-1.9
		c-1.3,0.9-2.5,2-3.7,3.1c0-0.7,0-1.4,0-2.2c1.3-1.3,2.7-2.6,4.3-3.6c1.2-0.8,0.1-2.8-1.1-1.9c-1.1,0.8-2.2,1.6-3.2,2.6
		C-98,174.1-98.1,172.6-97.8,172.2z"/>
	<path class="st1" d="M-68.9,213.6c0.2,2.4,0.5,3.9,2.9,4.8c2.4,0.9,5.5,0.6,8,0.7c3.1,0.1,6.6,0.3,9.4-1c3.8-1.7,2.3-8.1,2.3-11.7
		c0-7.4,0.1-14.7,0.1-22.1c0-7.5,0.1-14.9,0.1-22.4c0-3.2,1.6-11-2-12.4c-2.6-1-6.5-0.6-9.3-0.8c-2.5-0.2-6.2-0.5-8.7,0.2
		c-4,1.1-2.4,6.8-2.4,10.1c-0.1,14.1-0.8,28.1-0.6,42.2C-69.5,205.3-69.2,209.5-68.9,213.6z M-65.7,153.3c0.6-2.4,4.8-1.8,7.1-1.7
		c1.9,0.1,6.7,0,8.3,0.7c1.8,0.8,1.3,2.4,1.3,4.5c0,5.1-0.1,10.2-0.1,15.4c-0.1,11.9-0.1,23.8-0.2,35.7c0,1.6,0.7,5.2,0,6.7
		c-1.1,2.4-6.6,1.6-8.7,1.5c-1.2,0-2.7,0.1-4,0c0.5-0.4,0.9-0.8,1.3-1.3c1-1.1-0.6-2.7-1.6-1.6c-0.7,0.8-1.5,1.5-2.4,2.2
		c-0.2-0.1-0.4-0.3-0.6-0.5c1.1-1.2,2.2-2.3,3.3-3.4c1.1-1-0.5-2.6-1.6-1.6c-0.9,0.8-1.7,1.7-2.6,2.6c-0.1-0.7-0.2-1.4-0.2-2.1
		c1.3-1.1,2.6-2.2,3.9-3.2c1.1-0.9-0.5-2.5-1.6-1.6c-0.8,0.7-1.6,1.3-2.5,2c0-0.5,0-0.9,0-1.4c2-1.5,4-3,5.9-4.6
		c1.1-0.9-0.5-2.5-1.6-1.6c-1.4,1.1-2.8,2.2-4.2,3.3c0-0.7,0.1-1.4,0.1-2.1c0-0.4,0-0.7,0-1.1c1.5-1.4,3.1-2.6,4.8-3.8
		c1.2-0.8,0.1-2.8-1.1-1.9c-1.3,0.9-2.5,1.8-3.7,2.8c0-0.8,0-1.6,0-2.4c1.4-1,2.7-2.1,4.1-3.2c1.1-0.9-0.5-2.5-1.6-1.6
		c-0.8,0.7-1.6,1.3-2.5,1.9c0-0.9,0-1.8,0-2.7c1.5-1.4,3.1-2.7,4.7-3.9c1.2-0.8,0.1-2.8-1.1-1.9c-1.2,0.9-2.4,1.8-3.6,2.8
		c0-1.3,0.1-2.6,0.1-4c1.1-1,2.2-2,3.4-2.8c0.5-0.4,0.7-1,0.4-1.5c-0.3-0.5-1.1-0.8-1.5-0.4c-0.7,0.5-1.5,1.1-2.2,1.7
		c0-0.6,0-1.2,0-1.9c1.7-1.3,3.5-2.5,5.3-3.5c1.3-0.7,0.1-2.7-1.1-1.9c-1.4,0.8-2.8,1.7-4.1,2.7c0-0.9,0-1.8,0.1-2.7
		c0-0.1,0-0.2,0-0.3c1.3-1.1,2.6-2.3,3.8-3.4c1.1-1-0.5-2.6-1.6-1.6c-0.7,0.7-1.5,1.3-2.2,2c0-1.1,0-2.3,0.1-3.4c1-1,2.1-2,3.2-2.9
		c0.5-0.4,0.4-1.2,0-1.6c-0.5-0.5-1.1-0.4-1.6,0c-0.6,0.4-1.1,0.9-1.6,1.4c0-1,0-2,0-2.9c1.5-1.1,2.9-2.2,4.3-3.5
		c1.1-1-0.5-2.6-1.6-1.6c-0.9,0.8-1.8,1.5-2.7,2.3C-65.7,155.2-65.9,154.1-65.7,153.3z"/>
	<path class="st1" d="M-44.5,222.8c-14.8,0.6-29.6,0.6-44.4,0.3c-14-0.3-28.1-1.3-42.1-1c-1.4,0-4.7,0.6-5.8-0.1
		c-1.3-0.8-1.2-4.1-1.3-5.3c-0.2-3.1-0.3-6.3-0.3-9.4c-0.2-6.2-0.1-12.5-0.1-18.7c0.1-12.7,0.4-25.4,0.1-38.1c0-1.9-3-1.9-3,0
		c0.3,14-0.1,27.9-0.2,41.9c0,6.6,0,13.3,0.3,19.9c0.2,4-1.2,11.1,3.7,12.6c2.5,0.8,5.6,0.2,8.2,0.1c3.6-0.1,7.2,0,10.9,0.1
		c8,0.3,15.9,0.6,23.9,0.8c16.7,0.4,33.4,0.4,50.1-0.2C-42.6,225.7-42.6,222.7-44.5,222.8z"/>
</g>
<g>
	<path class="st0" d="M105.9-124.7c-17.4,6.4-33.7,15.3-50.6,23.1c-18,8.3-35.5,17.4-53.3,26c-1.1,0.5-0.9,2.6,0.4,2.7
		c11.7,1.6,23.1,4.2,34.6,6.8c0.2,11.7-0.1,23.4,0.1,35.1c0,1.6,2,1.9,2.8,0.8C46-38.9,52.1-47.6,58.6-56c9.1,5.5,18.2,10.9,26.8,17
		c0.8,0.5,2,0,2.2-0.9c2.7-14,5.5-27.7,9.4-41.4c4-13.8,7.7-27.6,10.8-41.6C108-123.9,107.1-125.1,105.9-124.7z M47.3-65.6
		c-0.4,0.3-0.7,0.7-0.7,1.2c-0.6,1.1-1,2.3-1.5,4.1c-1.8,7.1-3,14.4-5,21.4c0-9.4,0.2-18.8,0-28.2C57.8-82.8,76.2-98,94.8-112.8
		c-11.1,11-22.2,21.9-33.3,32.9c-3.4,3.4-6.9,6.7-10.3,10.1C49.4-68.1,48.2-66.9,47.3-65.6z M98.5-118.5c-20.4,16-40.5,32.6-60,49.7
		c-10.2-2.4-20.4-4.7-30.8-6.3c15.8-7.7,31.5-15.8,47.5-23.2C69.7-104.9,83.8-112.4,98.5-118.5z M42.4-38.9c1.7-6.3,2.9-12.7,4.4-19
		c0.4-1.6,0.7-3.1,1.3-4.5c2.6,1.6,5.3,3.3,8,4.9C51.4-51.5,46.8-45.2,42.4-38.9z M94.1-82c-3.7,13-6.5,26-9,39.2
		c-11.5-8-23.7-14.9-35.5-22.2c0.1-0.1,0.2-0.2,0.3-0.3c1.4-1.6,3.1-3.1,4.7-4.6c3.5-3.4,6.9-6.8,10.4-10.2
		c12.9-12.7,25.9-25.5,38.8-38.2C100.9-106.2,97.6-94.1,94.1-82z"/>
	<path class="st0" d="M28.3-75.9c3.6-2,7.2-4,10.8-6c1.3-0.7,0.1-2.6-1.1-1.9c-3.6,2-7.2,4-10.8,6C25.9-77.1,27-75.2,28.3-75.9z"/>
	<path class="st0" d="M38.5-79c-1.7,0.9-3.4,1.8-5.1,2.6c-1.3,0.7-0.1,2.6,1.1,1.9c1.7-0.9,3.4-1.8,5.1-2.6
		C40.9-77.7,39.8-79.6,38.5-79z"/>
</g>
<g>
	<path class="st0" d="M106-195.6c-0.1-0.1-0.1-0.2-0.2-0.3c-2.4-2.5-5.4-5.2-8.4-7c-0.5-0.3-1-0.2-1.5,0c-0.3,0.2-0.7,0.4-1,0.6
		c-1.3-1.3-2.5-2.9-4.4-2.5c-0.4,0.1-0.9,0.3-1.3,0.6c-2.9-4.2-4.1-8.6-5.6-13.4c-1.4-4.4-3.9-8.1-7-11.4c-2.3-2.4-5.3-6.5-8.9-7
		c-2.4-0.3-4.5,0.9-5.7,2.8c-3.5-2.1-7.8-1.1-9.4,2.6c-3.1-1.3-6.6-0.2-8.4,2.7c-6.2-6-11.4-13.4-18.3-18.5
		c-4.9-3.6-12.5-0.3-9.5,6.2c2,4.4,6.7,7.7,10,11.1c2.4,2.4,4.7,4.8,7,7.3c1.8,1.9,3.6,3.8,5.5,5.7c-2.9,8.2,0.1,16.2,8.4,19.8
		c4.2,1.8,8.7,2.5,13.2,3.3c4.1,0.8,7.2,3.5,10.2,6.4c-0.3,0.4-0.5,0.8-0.6,1.1c-0.5,1.9,1.5,3.8,2.9,5.2c-0.1,0.2-0.3,0.3-0.4,0.5
		c-0.5,0.6-0.6,1.5,0,2.1c2.8,2.9,5.5,5.9,8.3,8.8c0.5,0.5,1.2,0.5,1.8,0.2c3-1.4,5.4-4.5,7.7-6.9c2.8-2.9,5.5-5.8,8.4-8.5
		C101-186.1,108.7-191.7,106-195.6z M72.8-188.7c-4.1-3.9-7.8-6.4-13.5-7.4c-9.7-1.6-21.5-6-18-17.6c1.7,1.6,3.3,3.3,5,4.9
		c1.4,1.4,3.5-0.8,2.1-2.1c-6.5-6.4-12.8-13.1-19.2-19.6c-2.8-2.8-7.2-5.9-9.1-9.4c-1.2-2.2-1.5-4.4,1.5-4.6
		c1.9-0.1,2.4,0.4,3.8,1.6c1.1,1,2.1,2.1,3.2,3.1c5.2,5.2,9.9,10.8,15.4,15.7c0.8,0.7,2.2,0.5,2.5-0.7c0.7-3,2.8-3.8,6.2-2.4
		c1.1,0.9,2.4,0.3,2.6-1.1c0.7-3.2,2.9-3.6,6.5-1.4c0.8,0.8,2.2,0.4,2.5-0.7c1.7-6.6,9.1,2,10.7,3.8c2.5,2.7,4.6,5.8,5.8,9.3
		c1.9,5.4,3,10.3,6.4,15c-0.2,0.1-0.3,0.3-0.4,0.4c-2.2,1.8-4.3,3.6-6.3,5.6c-1.8,1.8-3.5,3.6-5.2,5.4
		C74.4-190.2,73.6-189.5,72.8-188.7z M73.4-184.5c0-0.6,1.4-1.7,2.1-2.5c2.2-2.4,4.5-4.8,6.8-7.1c2.5-2.4,5.1-4.7,7.9-6.9
		c1.5-1.1,1.4-0.7,2.4,0.5c-2.3,2.2-4.3,5-6.4,7c-3.8,3.7-7.6,7-11.1,10.9C74.5-183.3,73.4-184.4,73.4-184.5z M82.2-171.9
		c-2.2-2.3-4.3-4.6-6.5-6.9c4.9-5.7,10.7-10.4,15.8-15.9c1.1-1.1,2.1-2.3,3.2-3.4c0.6-0.6,2-1.7,1.9-1.7c1.3,0.1,6,5,7,6
		C104.1-193.3,87.1-175.7,82.2-171.9z"/>
	<path class="st0" d="M80.5-181.3c-0.1,0.1-0.1,0.1-0.2,0.2c-0.1,0.1-0.1,0.2-0.1,0.2c-0.9,1.6-0.8,3.6,0.9,4.7
		c1.6,1,3.7,0.4,4.7-1.1c1-1.5,0.7-3.7-0.7-4.9C83.6-183.4,81.6-182.6,80.5-181.3z M83.8-178.4c-0.4,0.5-1,0.7-1.5,0.4
		c-0.8-0.5-0.4-1.3,0-1.9c0.4-0.5,1.1-0.9,1.5-0.2C84.1-179.6,84.2-178.9,83.8-178.4z"/>
	<path class="st0" d="M36.1-243.3c1.4-12.6-15.5-16-23.1-8.7c-8.6,8.1-4.8,25.5,8.8,24.1c1.4-0.1,1.4-2.4,0-2.3
		c-11.7,1.2-14.4-13.5-7.2-20.3c6.4-5.9,20.5-3.5,19.3,7.1C33.7-241.8,35.9-241.8,36.1-243.3z"/>
	<path class="st0" d="M25.5-225.9c-5.7,2.3-12.8,0.1-17-4.3c-6.2-6.6-3.9-18.1,1.8-24.3c5.5-6,14.2-7.2,21.3-3.3
		c6.4,3.5,10.9,13,7,19.8c-0.7,1.3,1.2,2.4,1.9,1.1c4.3-7.3,0.5-17.1-6.1-21.8c-7.6-5.3-18.1-4.7-24.8,1.6
		c-6.8,6.4-9.7,18.1-4.3,26.4c4.1,6.4,13.7,9.8,20.8,6.9C27.4-224.3,26.8-226.5,25.5-225.9z"/>
	<path class="st0" d="M95.8-195.2c-0.7-1.2-2.7-0.1-1.9,1.1c0.6,1.1,1.2,2.1,1.9,3.2c0.7,1.2,2.7,0.1,1.9-1.1
		C97.1-193.1,96.5-194.2,95.8-195.2z"/>
	<path class="st0" d="M99.1-195.7c-0.2-0.6-1.1-0.7-1.5-0.4c-0.6,0.3-0.7,1-0.4,1.5c0.5,1,0.9,2.1,1.4,3.1c0.2,0.6,1.1,0.7,1.5,0.4
		c0.6-0.3,0.7-1,0.4-1.5C100-193.7,99.6-194.7,99.1-195.7z"/>
</g>
<g>
	<path class="st1" d="M25.2,90.9c2.3-2.4,4.6-4.7,6.7-7.3c1-1.2,1.4-2.3,0.9-3.7c0-0.2-0.1-0.5-0.3-0.6c-0.2-0.3-0.5-0.4-0.7-0.4
		c-3.8-1.4-7,3.4-9.4,5.8c-3,3.1-7,6.5-8.2,10.7c-0.1,0.4,0,0.8,0.3,1.1C18.3,100.4,22.9,93.3,25.2,90.9z M19.1,94.1
		c-0.6,0.6-2.4,2-2.5,1.7c-0.3-1.2,2.1-3.6,2.9-4.5c1-1.1,2-2.3,3-3.4c1.2-1.2,5.9-7.3,8.3-7c-0.1,1.9-5.8,7-6.8,8
		c-1.1,1.1-2.1,2.2-3.2,3.4C20.2,92.9,19.7,93.5,19.1,94.1z"/>
	<path class="st1" d="M30.2,89.4c-2.4,2.5-4.7,5-7,7.5c-1.8,1.9-2.9,3-2.5,5.6c0,0,0,0,0,0c0,0,0,0.1,0,0.1c0.1,0.4,0.3,0.6,0.5,0.7
		c3.2,2.8,8.8-4.6,10.6-6.5c1.9-2,9-7.9,7.2-11.3C36.7,81.5,31.5,88.1,30.2,89.4z M22.8,101.6c0.2-2.6,5-6.4,6.6-8.1
		c0.9-1,6-7,6.8-6.1C37.5,88.7,25,101.1,22.8,101.6z"/>
	<path class="st1" d="M94.7,85.7c-9.3-9.3-19.3-17.9-29.3-26.5c5.9-5.8,11.7-11.6,17.5-17.6c1.3-1.3,2.6-2.9,4-4.1
		c2-1.8,3.1-1.5,5.5-2c0.8-0.2,1.5-0.2,2.2-0.6c2.7-1.8,4.6-7.1,6-9.9c1.4-2.7,1.2-3.3-0.9-5.6c-2.2-2.3-3.2-4-6-2.5
		c-3.3,1.7-8.4,3.8-10.9,6.6c-0.7,0.8-0.6,1-1,1.9c0,0.7,0,1.3,0,2c-0.4,1.8-1.4,3.3-2.7,4.4c-1.1,1.3-2.5,2.5-3.7,3.7
		c-5.8,5.8-11.6,11.6-17.3,17.4c-4.7-4.1-9.3-8.3-13.7-12.6c4.2-6.2,4.9-14.2,0.2-20.4c-4.9-6.5-11.5-8.4-19.1-6.8
		c-1,0.2-1.4,1.4-0.9,2.2c1.5,2.5,2.8,4.9,4.2,7.4c0.5,0.8,0.9,1.8,1.4,2.6c0.4,0.5,0.5,1,0.5,1.2c-0.5,2.4-1.9,5.1-2.9,7.4
		c-1.4-0.1-2.9-0.1-4.3-0.2c-0.9,0-2.5-0.4-3.3-0.2c0,0-0.1,0-0.1,0c-2.3-3.5-4.3-7.2-6.4-10.8c-0.5-0.9-1.6-0.9-2.4-0.3
		C5.1,28.1,5,38.4,10.1,44.8C16,52.2,24.6,53,33,50.6c4.5,4.6,9,9.2,13.5,13.9c-0.5,0.5-1,1-1.5,1.5c-1.8-1.7-3.6-3.3-5.5-4.9
		c-0.6-0.5-1.5-0.6-2.1,0c-1.3,1.2-2.8,2.7-3.6,4.3c-1.2,2.3-0.1,4.7-0.9,7.2c-0.3,0.9-6,1-7.3,1.6c-2.2,1-4.2,3.1-5.9,4.7
		c-2.5,2.3-4.8,4.8-6.9,7.4c-1.6,1.9-4.3,4.5-5.4,6.7c-1.6,3.3,2,6.2,4.1,8.5c2.8,3.2,6.8,8,10.6,9.9c4.1,2,7-2.8,9.6-5.4
		c3.9-3.9,8.1-7.8,11.4-12.3c1-1.4,1.6-2.4,1.8-4.1c0.3-3.2-1.1-4.5,3.1-5.1c3.7-0.5,5.9-2,8.5-4.9c0.6-0.6,0.6-1.5,0-2.1
		c-1.5-1.6-3.1-3.2-4.6-4.8c0.5-0.4,0.9-0.9,1.4-1.3c5.6,5.8,11.3,11.6,16.9,17.4c3,3.1,6.1,6.3,9.2,9.4c3.1,3.1,6.1,7,10.2,8.7
		c5.8,2.4,11.5-0.9,13.1-6.8C104,94.1,98.4,89.4,94.7,85.7z M73.9,40.2c3-3,8.7-6.8,10.1-10.9c0.3-1.1-0.1-3.3,0.1-3.8
		c0.6-1.1,3.4-2.3,4.4-2.9c1.6-1,3.2-1.9,4.8-2.8c2.1-1.2,2.1-1.6,3.9,0.2c1.4,1.4,2.2,1.8,1.8,3.6c-0.4,1.5-1.8,3.3-2.6,4.7
		c-0.7,1.3-1.5,3.3-2.7,4.3c-1.3,1.1-3,0.9-4.5,1.2c-4.4,0.9-7.5,6-10.5,9c-4.9,5-9.9,10-14.9,14.9c-1.3-1.1-2.6-2.3-3.9-3.4
		C64.5,49.6,69.2,44.9,73.9,40.2z M19.9,33.6C19.3,33.8,19.6,33.5,19.9,33.6L19.9,33.6z M51.5,80c-2.4,1.7-3.9,0.9-6.6,1.4
		c-2.6,0.4-3.4,1.8-3.4,4.3c0,2.1,0.5,3.7-0.6,5.7c-1.1,2-3.1,3.7-4.6,5.4c-1.9,2-3.8,3.9-5.7,5.9c-1.2,1.2-2.5,2.5-3.7,3.7
		c-1.4,1.4-1.4,1.8-3.4,1.6c-3.4-0.5-7.4-5.5-9.7-8.1c-1.4-1.6-3.9-3.6-3.4-5.9c0.4-2.1,4.5-5.7,5.9-7.4c3.3-3.7,7.8-9.6,13-10.1
		c2.6-0.2,5.3-0.1,6.3-3.1c0.7-2.1,0-3.9,0.5-5.9c0.3-1.2,1.3-2.3,2.3-3.3c5.2,4.5,10.1,9.4,14.8,14.4C52.7,79,52.1,79.6,51.5,80z
		 M50.1,71c-1.2-1.2-2.4-2.3-3.5-3.5c0.5-0.5,1-1,1.4-1.4c1.2,1.2,2.3,2.4,3.5,3.6C51,70.1,50.6,70.6,50.1,71z M99,98.4
		c-0.4,4-2.9,7.1-7.5,6c-3.3-0.8-5.9-3.9-8.2-6.3C71.2,85.8,59.2,73.3,47.1,60.8c-4.2-4.3-8.4-8.7-12.6-13c0,0,0,0,0,0
		c-0.3-0.4-0.8-0.5-1.4-0.4c-6.8,2.2-13.2,2.5-19-2.7C8.9,40,7.8,31.5,12.1,26c1,1.7,2.1,3.5,3.1,5.2c0.8,1.3,1.7,4,3,4.8
		c2.4,1.6,7.8,0.8,10.7,0.9c0.7,0,1.2-0.5,1.4-1.1c1-2.6,3.7-7,3.6-9.8c-0.1-1.3-1.4-2.8-2-3.9c-1.2-2.2-2.4-4.3-3.7-6.5
		c5.2-0.6,9.7,0.9,13.4,5.3c4.8,5.6,3.8,13.1-0.5,18.8c-0.4,0.5-0.2,1.4,0.2,1.8C54.2,54.1,68,65.7,81.5,77.7
		c5.4,4.8,11,9.5,15.6,15.1C98.9,94.9,99.3,95.3,99,98.4z"/>
	<path class="st1" d="M94,92.9c-2-1.5-4.5-0.4-6,1.3c-0.1,0.1-0.2,0.2-0.2,0.3c-0.1,0.2-0.2,0.3-0.2,0.5c-0.8,2-0.3,4.5,1.7,5.7
		c2.2,1.3,4.9,0.3,6.4-1.6C97.4,96.9,96,94.4,94,92.9z M93.6,98.2c-0.8,0.7-2,1.2-3,0.7c-1.2-0.6-1.4-2.1-0.8-3.2
		c0.8-1.1,2.1-1.7,3.2-0.8C94,95.8,94.8,97,93.6,98.2z"/>
</g>
<g>
	<path class="st0" d="M90.4,196.2c2.7-5.4,0.9-12.7-4.5-16.1c-5.2-3.3-10.9-2.1-14.9,1.6c-0.8-16.7-22.5-25.4-37.4-20.5
		c-16.9,5.6-21.3,24.2-13.4,38.3c-8.5-2.1-17.2,4.5-15.8,14.6c1.8,13.1,15.4,13.8,26,13.5c1.9-0.1,1.9-3.1,0-3
		c-7.1,0.2-16.4,1-21-5.6c-2.4-3.4-3-8.5-1.1-12.2c3-5.6,10.5-6.2,15.2-2.5c1.5,1.2,3.4-0.6,2.1-2.1c-10.6-12.6-7.9-32.6,8.7-38.1
		c14.1-4.7,37.2,4.3,33.2,22.5c-0.3,1.6,2,2.8,2.7,1.2c2.3-4.7,6.9-8.1,12.3-5.9c6.1,2.5,8.2,11,3,15.6c-1.1,1,0.1,3.1,1.5,2.5
		c12.3-4.8,19.9,13.6,9.7,20.7c-5.2,3.6-12.5,4.2-18.6,4.1c-1.9,0-1.9,3,0,3c9.4,0.2,22.6-1.7,25.9-12.1
		C107.1,206.5,99.8,195.8,90.4,196.2z"/>
	<path class="st0" d="M44.8,208.5c-0.4-0.4-1.2-0.4-1.6,0c-2.9,3.5-5.8,6.8-8.6,10.4c-0.5,0.7,0.2,1.7,1,1.7c0.9,0,1.9,0,2.8,0
		c0.1,5.8-0.1,11.6,0,17.4c0,0.4,0.2,0.7,0.5,0.9c0.2,0.1,0.4,0.2,0.6,0.2c3.1,0.1,6.2,0.2,9.3,0c0.6,0,1.1-0.5,1.1-1.1
		c-0.1-5.8,0-11.6,0-17.4c0.8,0,1.6,0,2.4,0c0.8,0,1.5-1,1-1.7C50.6,215.4,47.7,212,44.8,208.5z M40.7,237c-0.1-5.8,0.1-11.6,0-17.4
		c0-0.6-0.5-1.1-1.1-1.1c-0.5,0-1.1,0-1.6,0c2-2.5,4-4.9,6.1-7.4c2,2.4,4.1,4.9,6.1,7.4c-0.4,0-0.8,0-1.3,0c-0.6,0-1.1,0.5-1.1,1.1
		c0,5.8-0.1,11.6,0,17.5C45.4,237.1,43,237.1,40.7,237z"/>
	<path class="st0" d="M73.6,232.1c-0.8,0-1.6,0-2.4,0c0-5.8-0.1-11.6,0-17.4c0-0.6-0.5-1.1-1.1-1.1c-3.1-0.2-6.2-0.1-9.3,0
		c-0.2,0-0.4,0.1-0.6,0.2c-0.3,0.2-0.5,0.5-0.5,0.9c-0.1,5.8,0.1,11.6,0,17.4c-0.9,0-1.9,0-2.8,0c-0.8,0-1.5,1-1,1.7
		c2.7,3.6,5.7,6.9,8.6,10.4c0.4,0.4,1.2,0.4,1.6,0c2.9-3.3,5.5-6.9,8.4-10.2C75,233.3,74.6,232.2,73.6,232.1z M59.1,234.4
		c0.5,0,1.1,0,1.6,0c0.6,0,1.1-0.5,1.1-1.1c0.1-5.8-0.1-11.6,0-17.4c2.3-0.1,4.7-0.1,7,0c-0.1,5.8,0,11.6,0,17.5
		c0,0.6,0.5,1.1,1.1,1.1c0.4,0,0.8,0,1.2,0c-2,2.4-4,4.9-6,7.4C63.2,239.2,61.1,236.8,59.1,234.4z"/>
	<path class="st0" d="M38.4,171.1c1.4-0.2,1.4-2.4,0-2.3c-8.2,0.9-15.1,10-13.2,18.1c0.3,1.4,2.5,0.8,2.2-0.6
		C25.9,179.8,31.7,171.8,38.4,171.1z"/>
	<path class="st0" d="M38.6,173.6c-2.2,0.4-4.1,1.4-5.8,2.8c-1.1,1,0.5,2.6,1.6,1.6c1.4-1.2,3-2,4.8-2.3
		C40.6,175.5,40,173.3,38.6,173.6z"/>
</g>
<g>
	<g>
		<path class="st0" d="M-311.4,324.4c-6.1-4.7-15.9-2.7-21.9,1c-1.9,1.2-0.1,4.2,1.8,3c0.9-0.6,1.8-1,2.6-1.4
			c0.8,16.9,1.5,33.8,2.2,50.7c-1.5-0.2-3-0.5-4.4-1c-2.1-0.8-3,2.6-0.9,3.4c6.4,2.3,18.4,2.7,24.3-1.3c8.6-5.7,7.5-19.2,6.4-27.9
			C-302.3,343.2-304.7,329.6-311.4,324.4z M-317.4,377.8c-1.9,0.2-3.8,0.3-5.8,0.2c-0.8-17.4-1.5-34.8-2.3-52.3
			c14.8-3.7,20.6,18.3,21.3,31C-303.7,366.4-306,376.7-317.4,377.8z"/>
		<path class="st0" d="M-287.5,358.8c-5.5,0.5-10.4,4.7-10.4,10.5c0,6.7,6.3,12.1,12.8,12c6-0.2,11.2-5.2,10.6-11.4
			C-275.3,363.7-281.4,358.7-287.5,358.8z M-284.8,377.8c-10.1,0.9-13.6-14.5-2.7-15.5C-278.1,362.1-273.9,376.8-284.8,377.8z"/>
		<path class="st0" d="M-261.5,359.5c-5.5,0.5-10.4,4.7-10.4,10.5c0,6.7,6.3,12.1,12.8,12c6-0.2,11.2-5.2,10.6-11.4
			C-249.2,364.3-255.4,359.3-261.5,359.5z M-258.8,378.4c-10.1,0.9-13.6-14.5-2.7-15.5C-252.1,362.7-247.9,377.4-258.8,378.4z"/>
		<path class="st0" d="M-123.3,358.5c-5.7,0.5-10.7,4.9-10.8,10.9c-0.1,6.9,6.5,12.5,13.2,12.4c6.2-0.2,11.5-5.4,10.9-11.7
			C-110.6,363.5-116.9,358.3-123.3,358.5z M-120.4,378.1c-10.6,0.9-14.2-15.2-2.8-16.2c4.1-0.1,8.3,2.8,9.6,6.8
			C-112.3,373.5-115.7,377.7-120.4,378.1z"/>
		<path class="st0" d="M-225.6,317.9c0.1-2.2-3.4-2.2-3.5,0c-0.8,13.6-1.2,27.3-0.1,40.9c-6.8-1.7-14.8,0.2-16.8,7.8
			c-1.6,6.2,0.9,14.2,8,14.9c4.9,0.5,11.4-3.1,13-7.9c2.2-6.5-1.1-17.1-1.3-24C-226.6,339-226.2,328.4-225.6,317.9z M-233,376.9
			c-13,5.9-12.8-21,4.1-14.5c0,0.2,0,0.4,0,0.5C-228.3,368.6-226.9,374.2-233,376.9z"/>
		<path class="st0" d="M-219.7,317.6c0.1,25.1,0.8,40.4,1.2,62.1c0,2.2,3.5,2,3.5-0.3c-0.3-21.7-1.1-36.7-1.2-61.8
			c0,0-0.1-1.3-1.9-1.4C-219.7,316.2-219.7,317.6-219.7,317.6z"/>
		<path class="st0" d="M-191.8,375.1c-2,3.9-8.2,3.9-11.3,1.4c-1.8-1.4-3.1-3.8-3.7-6.3c4.9,1,12.3,2.1,13.3-3.4
			c1.4-7.4-7.9-10.3-13.2-6.9c-6.2,4.1-4.3,14.1,0.4,18.6c4.6,4.4,14.2,4.6,17.4-1.6C-187.8,374.9-190.8,373.1-191.8,375.1z
			 M-199.9,362.1c3.7,1.2,3.6,5.3-0.3,5.4c-2.2,0-4.5-0.4-6.7-0.8c0.1-0.3,0-0.7,0.1-1C-205.9,363-202.6,361.2-199.9,362.1z"/>
		<path class="st0" d="M-165.7,359.8c0.3,6.6,0.2,13.3,0.5,19.9c0.1,2.2,3.6,2.2,3.5,0c-0.3-6.6-0.2-13.3-0.5-19.9
			C-162.3,357.6-165.8,357.6-165.7,359.8z"/>
		<path class="st0" d="M-163.1,346.6c-0.1,0-0.2,0-0.3,0c-0.1,0-0.1-0.1-0.2-0.1c-5.6-0.6-8,7.7-2.2,9.3
			C-159.4,357.4-156.3,348.5-163.1,346.6z M-165.6,351.9c-0.6-1.2,0.8-1.8,1.8-1.9C-161.1,351-164.6,353.8-165.6,351.9z"/>
		<path class="st0" d="M-139.7,374.2c-2.7,5.1-10.5,6.5-12.2-0.1c-0.5-2.1-0.6-4.7,0-6.8c1-3.3,6.2-6.8,8.9-2.9c1,1.5,3,0.8,3.2-0.9
			c0.1-1.2,0.3-2.5,0.4-3.7c0.3-2.2-3.2-2.2-3.5,0c0,0.2,0,0.3-0.1,0.5c-2.5-1.3-5.6-1.2-8.2,0.4c-4.3,2.7-5.2,8-4.6,12.7
			c1.5,10.4,14.2,11.7,18.9,2.7C-135.7,374-138.7,372.2-139.7,374.2z"/>
		<path class="st0" d="M-90.1,364.6c-0.4-3.1-2-6-5.5-5.9c-3.2,0.1-5.2,1.7-6.5,3.9c0-1-0.1-1.9-0.1-2.9c0-2.2-3.5-2.2-3.5,0
			c0.1,6.9,0.4,13.8,1.8,20.6c0.4,1.9,3.6,1.5,3.4-0.5c-0.2-2.9-0.5-5.8-0.4-8.6c0.1-1.5,0.1-3,0.6-4.5c0.6-1.7,3.9-7.1,6.5-3
			c1.1,1.6,0.4,6,0.6,7.9c0.2,2.9,0.6,5.9,0.9,8.8c0.3,2.2,3.7,2.2,3.5,0C-89.4,375.2-89.4,369.8-90.1,364.6z"/>
	</g>
	<path class="st2" d="M-217.2,393.3h-10c-1.4,0-2.5,1.1-2.5,2.5c0,1.4,1.1,2.5,2.5,2.5h10c1.4,0,2.5-1.1,2.5-2.5
		C-214.7,394.4-215.8,393.3-217.2,393.3z"/>
	<path class="st2" d="M-281.3,393.3h-10c-1.4,0-2.5,1.1-2.5,2.5c0,1.4,1.1,2.5,2.5,2.5h10c1.4,0,2.5-1.1,2.5-2.5
		C-278.9,394.4-280,393.3-281.3,393.3z"/>
	<path class="st2" d="M-238.6,393.3h-10c-1.4,0-2.5,1.1-2.5,2.5c0,1.4,1.1,2.5,2.5,2.5h10c1.4,0,2.5-1.1,2.5-2.5
		C-236.1,394.4-237.2,393.3-238.6,393.3z"/>
	<path class="st2" d="M-260,393.3h-10c-1.4,0-2.5,1.1-2.5,2.5c0,1.4,1.1,2.5,2.5,2.5h10c1.4,0,2.5-1.1,2.5-2.5
		C-257.5,394.4-258.6,393.3-260,393.3z"/>
	<path class="st2" d="M-302.7,393.3h-10c-1.4,0-2.5,1.1-2.5,2.5c0,1.4,1.1,2.5,2.5,2.5h10c1.4,0,2.5-1.1,2.5-2.5
		C-300.3,394.4-301.4,393.3-302.7,393.3z"/>
	<path class="st2" d="M-324.1,393.3h-10c-1.4,0-2.5,1.1-2.5,2.5c0,1.4,1.1,2.5,2.5,2.5h10c1.4,0,2.5-1.1,2.5-2.5
		C-321.7,394.4-322.8,393.3-324.1,393.3z"/>
	<path class="st2" d="M-153,393.3h-10c-1.4,0-2.5,1.1-2.5,2.5c0,1.4,1.1,2.5,2.5,2.5h10c1.4,0,2.5-1.1,2.5-2.5
		C-150.5,394.4-151.6,393.3-153,393.3z"/>
	<path class="st2" d="M-195.8,393.3h-10c-1.4,0-2.5,1.1-2.5,2.5c0,1.4,1.1,2.5,2.5,2.5h10c1.4,0,2.5-1.1,2.5-2.5
		C-193.3,394.4-194.4,393.3-195.8,393.3z"/>
	<path class="st2" d="M-110.2,393.3h-10c-1.4,0-2.5,1.1-2.5,2.5c0,1.4,1.1,2.5,2.5,2.5h10c1.4,0,2.5-1.1,2.5-2.5
		C-107.7,394.4-108.8,393.3-110.2,393.3z"/>
	<path class="st2" d="M-131.6,393.3h-10c-1.4,0-2.5,1.1-2.5,2.5c0,1.4,1.1,2.5,2.5,2.5h10c1.4,0,2.5-1.1,2.5-2.5
		C-129.1,394.4-130.2,393.3-131.6,393.3z"/>
	<path class="st2" d="M-88.8,393.3h-10c-1.4,0-2.5,1.1-2.5,2.5c0,1.4,1.1,2.5,2.5,2.5h10c1.4,0,2.5-1.1,2.5-2.5
		C-86.3,394.4-87.4,393.3-88.8,393.3z"/>
	<path class="st2" d="M-174.4,393.3h-10c-1.4,0-2.5,1.1-2.5,2.5c0,1.4,1.1,2.5,2.5,2.5h10c1.4,0,2.5-1.1,2.5-2.5
		C-171.9,394.4-173,393.3-174.4,393.3z"/>
	<g>
		<path class="st2" d="M-79.8,357.2c1.2-1.8,2.4-3.6,3.9-5.2c1.8-2.1-1.2-5.2-3.1-3.1c-1.7,1.9-3.2,4-4.5,6.1
			C-85,357.3-81.3,359.5-79.8,357.2L-79.8,357.2z"/>
	</g>
	<g>
		<path class="st2" d="M-72.6,358c1.5-2.1,3.2-3.9,5.1-5.6c2.1-1.8-0.9-4.9-3.1-3.1c-2.3,1.9-4.1,4-5.8,6.4
			C-77.9,358.1-74.2,360.2-72.6,358L-72.6,358z"/>
	</g>
</g>
</svg>
