<?xml version="1.0" encoding="utf-8"?>
<!-- Generator: Adobe Illustrator 22.1.0, SVG Export Plug-In . SVG Version: 6.00 Build 0)  -->
<svg version="1.1" id="Layer_1" xmlns="http://www.w3.org/2000/svg" xmlns:xlink="http://www.w3.org/1999/xlink" x="0px" y="0px"
	 viewBox="0 0 107.4 85.9" style="enable-background:new 0 0 107.4 85.9;" xml:space="preserve">
<style type="text/css">
	.st0{fill:#4D4D4D;}
	.st1{fill:#FFFFFF;}
	.st2{fill:#95BAA8;}
</style>
<g>
	<path class="st0" d="M-213.5,26.2c-9.5,0.8-17.1,8.6-16.7,18.3c0.5,10,8.9,17.5,18.7,17.6C-186.9,62.5-189.5,23.3-213.5,26.2z
		 M-211.5,59.2c-8.2,0-15.2-6.4-15.7-14.6c-0.5-8,5.8-14.7,13.7-15.3C-193.4,26.8-190.8,59.1-211.5,59.2z"/>
	<path class="st0" d="M-160.3,45.1c-0.1-2.5,0.8-7.6-1.5-9.5c-2.2-1.8-7.3-1.4-10.6-1.5c-0.8-2.5-1.3-5.2-2.3-7.6
		c-0.4-1-2-2.9-1.7-3.8c0.4-1.3,4.8-3.3,5.8-4.8c0.8-1.2,1.3-2.3,0.9-3.7c-0.6-2.4-3.5-4.2-5.2-5.8c-1.7-1.6-3.8-4.5-6-5.4
		c-3.5-1.4-7,3.4-9.4,6.1c-2.8-1.7-5.7-2.6-8.7-4c-2.1-1-2.5-1-3-3.2c-0.4-1.7,0.3-3.7-0.1-5.5c-1.2-5.3-6.8-3.7-11-3.4
		c-4.3,0.3-9.1-0.5-9.3,4.9c-0.1,1.7,0.8,3.9,0.2,5.6c-0.5,1.4-0.9,1.1-2.8,1.8c-3,1.1-5.7,2.4-8.4,4.1c-2.1-2.5-4.4-6-7.9-5.9
		c-3.7,0.2-7.3,4.9-9.6,7.3c-4.8,4.9,0.2,8.3,3.9,12.1c-2.6,3.5-4.4,7.3-5.5,11.6c-3.3-0.6-7.9-1.1-10.2,1.2
		c-2.4,2.4-1.3,8.5-1,11.4c0.2,2.5,0.1,5.8,2.5,7.2c2.4,1.4,6.4,0.7,9.3,0.3c0.7,2.6,1.5,5.2,2.6,7.7c0.3,0.6,1.4,2.2,1.3,2.7
		c0,0.2-0.7,0.6-0.9,1.1c-1.4,2.4-6.3,4.7-5.1,8.3c1.1,3.4,8.2,9.4,11.6,10.8c3.8,1.4,6.9-2.6,9.4-5.2c3.5,2.5,7.3,4.1,11.7,4.7
		c-0.2,3.3-1.5,7.9,0.6,10.3c1.5,1.8,5.1,1.4,7.1,1.4c2.6,0.1,6,0.4,8.5-0.6c1.8-0.7,2.7-1.8,3.1-3.6c0.4-2-1.3-5.5-0.5-7.1
		c0.7-1.3,5.1-2.1,6.7-3c2.7-1.4,4.9-4.1,7.7-1.5c3,2.6,4.3,7.2,8.5,4.7c3.1-1.9,6.6-5.5,8.4-8.6c2.1-3.5,0.6-4.8-2.2-7.3
		c-2.8-2.5-3.8-2.3-2.2-6.1c1.3-3.1,2.3-6.2,3.3-9.4c3.2,0.2,7.9,0.9,10.4-0.7C-159.3,51.8-160.2,47.5-160.3,45.1z M-165.2,51
		c-2.2,0.7-5.8,0-8.1,0.1c-0.5,0-0.9,0.2-1.1,0.5c-0.1,0.2-0.3,0.3-0.3,0.6c-1.3,4.2-3.3,8.1-4.8,12.2c-0.7,1.8-0.4,2.8,0.7,4.3
		c1.3,1.7,4.5,2.8,5.2,4.7c0.8,2-3.2,5.6-4.5,6.8c-0.7,0.7-1.9,2.1-2.8,2.4c-1.8,0.5-2.5-0.8-3.8-2.3c-1.3-1.5-2.7-4-4.9-4.2
		c-1.6-0.2-3.3,1.1-4.6,1.8c-3.4,1.9-6.3,3.4-10.2,4.1c-0.5,0.1-1,0.6-1,1c-0.3,1.9,0.2,3.7,0.2,5.6c0,5.1-4.4,5.1-8.5,5
		c-3.6-0.1-5-0.1-4.9-3.9c0.1-2,0.3-4.1,0.2-6.2c-0.1-0.9-0.6-1.4-1.5-1.5c-4.6-0.4-8.6-2.1-12.3-4.9c-0.2-0.1-0.4-0.2-0.6-0.3
		c-0.5-0.2-1-0.1-1.5,0.3c-1.3,1.2-3.8,4.5-5.5,5c-2.9,0.9-5.6-2.5-7.4-4.3c-1.5-1.4-4.1-3.1-3.4-5.5c0.5-1.6,2.9-3.2,4.1-4.3
		c1.3-1.3,1.8-1.6,1.4-3.4c-0.5-2-1.9-4-2.6-5.9c-0.7-2-1.3-4-1.7-6c-0.1-0.6-0.8-1.2-1.4-1.1c-1.6,0.2-3.1,0.4-4.7,0.4
		c-2.8,0.1-4.4,0.4-5-2.7c-0.4-2.3-0.7-5.2-0.4-7.4c0.2-1.3,0.3-3.4,1.6-4.3c1.5-0.9,6.1,0,7.5,0.3c0.8,0.2,1.7-0.2,1.8-1
		c1.1-4.9,3.1-9.1,6.2-13.1c0.4-0.5,0.2-1.4-0.2-1.8c-2.2-2.5-7.1-5.3-4.7-8.8c0.9-1.3,3.6-4.2,5.1-4.8c4.5-2.1,6.2,1,8.7,3.9
		c0.3,0.8,1.2,1.3,2,0.7c3.3-2.3,6.8-3.6,10.4-5c0.8-0.3,1.9-0.6,2.5-1.3c0.9-0.9,0.9-2.5,1-3.7c0.1-1.3-0.6-2.8-0.3-4
		c0.6-2.5,3.2-2.4,5.4-2.6c1.4-0.1,3.1-0.3,4.6-0.4c1.8-0.1,2.7,0.1,3.7,0.7c1.3,0.7,0.7,2.1,0.8,3.8c0.2,1.8-0.7,3.6,0.3,5.4
		c0.8,1.3,1.7,1.5,3.1,2c3.7,1.3,7.1,2.4,10.4,4.6c0.1,0.1,0.2,0.1,0.4,0.2c0.5,0.3,1.1,0.3,1.7-0.3c1.6-1.6,3.5-4.4,5.4-5.4
		c2.5-1.2,3.8,1.3,5.8,3.2c2.1,1.9,5.7,4,3.7,7.2c-1,1.5-3.3,2.1-4.6,3.5c-1.2,1.3-1.3,2.1-0.7,3.7c0.6,1.6,1.6,2.9,2.2,4.6
		c0.8,2.3,1.4,4.8,2.2,7.1c0.2,0.7,0.8,1,1.4,1.1c2.3,0.2,5.2-0.1,7.5,0.6c3.6,1,2.6,4.4,2.7,7.5C-163.2,47.6-162.5,50.2-165.2,51z"
		/>
	<path class="st0" d="M-219,18.7c1.8-0.6,3.6-0.9,5.6-0.9c1.9,0,1.9-3,0-3c-2.2,0-4.3,0.3-6.4,1C-221.7,16.4-220.9,19.3-219,18.7z"
		/>
	<path class="st0" d="M-202.3,19.6c1.6,0.4,3,1.1,4.2,2.2c1.5,1.3,3.6-0.9,2.1-2.1c-1.6-1.4-3.5-2.4-5.6-3
		C-203.4,16.2-204.2,19.1-202.3,19.6z"/>
	<path class="st0" d="M-184.6,33.4c-0.7-1.9-1.6-3.6-2.8-5.2c-0.5-0.6-1.3-1-2.1-0.5c-0.6,0.4-1,1.4-0.5,2.1c1,1.4,1.9,2.8,2.5,4.5
		C-186.8,36-183.9,35.2-184.6,33.4z"/>
	<path class="st0" d="M-185.8,45.7c-0.2,1.8-0.5,3.5-0.9,5.2c-0.5,1.9,2.4,2.7,2.9,0.8c0.5-2,0.8-4,1-6
		C-182.6,43.8-185.6,43.8-185.8,45.7z"/>
	<path class="st0" d="M-189.8,60.4c-0.6-0.4-1.7-0.2-2.1,0.5c-0.7,1.5-1.8,2.7-3.2,3.5c-1.7,0.9-0.2,3.5,1.5,2.6
		c1.9-1,3.4-2.7,4.3-4.6C-188.9,61.7-189.1,60.8-189.8,60.4z"/>
	<path class="st0" d="M-205.4,69.6c-1.7,0.3-3.4,0.5-5.2,0.7c-1.9,0.2-1.9,3.2,0,3c2-0.2,4-0.4,6-0.8
		C-202.7,72.2-203.5,69.3-205.4,69.6z"/>
	<path class="st0" d="M-221.5,68.6c-1.8-0.5-3.4-1.3-4.9-2.4c-0.7-0.5-1.7-0.1-2.1,0.5c-0.5,0.8-0.1,1.6,0.5,2.1
		c1.7,1.2,3.6,2.1,5.6,2.7C-220.5,72-219.7,69.1-221.5,68.6z"/>
	<path class="st0" d="M-236.6,53.7c-0.5-1.9-3.4-1.1-2.9,0.8c0.6,2.2,1.6,4.1,3,5.8c0.5,0.6,1.6,0.5,2.1,0c0.6-0.6,0.5-1.5,0-2.1
		C-235.4,56.8-236.2,55.3-236.6,53.7z"/>
	<path class="st0" d="M-238,42.7c0-1.8,0.1-3.6,0.4-5.4c0.3-1.9-2.6-2.7-2.9-0.8c-0.3,2.1-0.5,4.1-0.5,6.2
		C-241,44.7-238,44.7-238,42.7z"/>
	<path class="st0" d="M-230.2,21.5c-1.8,1.1-3.4,2.5-4.8,4.2c-0.5,0.6-0.6,1.5,0,2.1c0.5,0.5,1.6,0.6,2.1,0c1.2-1.5,2.6-2.7,4.2-3.7
		C-227,23.1-228.5,20.5-230.2,21.5z"/>
</g>
<g>
	<path class="st0" d="M-322,5.6c-5.7-10.9-18.3-17.9-30.7-14.7C-363-7-372,1.3-373.5,11.9c-1.4,10.7,4.1,21.8,13.5,27
		c2.9,1.6,6.1,2.7,9.4,3.2c0.2,3.5,0.4,7,1,10.5c-2.9,2.4-2.8,8.1-3.1,11.5c-0.7,7.5,0,15.1,0.2,22.6c0.2,3.4-0.1,8.8,3.1,11.1
		c2.5,1.8,8.8,2,11.4,0.4c3.7-2.3,3.9-8,3.9-11.8c-0.1-7.6-0.3-15.6-1.2-23.2c-0.4-3.9-0.3-8.9-4-11.1c-0.3-3.4-0.2-6.8-0.4-10.1
		c4.5-0.8,8.7-2.6,12.3-5.4C-317.2,28.8-316.3,16.4-322,5.6z M-338,65.1c0.6,7.5,1.4,15.6,1,23.2c-0.2,2.9-0.3,5.2-2.9,6.8
		c-1.8,1.1-3.8,1.2-5.8,0.7c-0.1,0-0.1,0-0.2-0.1c0.3-0.1,0.6-0.3,0.9-0.4c0.6-0.2,1-0.8,0.8-1.4c-0.2-0.5-0.8-1-1.4-0.8
		c-0.8,0.3-1.7,0.7-2.5,1.1c-0.3-0.4-0.5-0.8-0.7-1.3c1.4-1.1,2.9-2.2,4.5-3.2c1.2-0.8,0.1-2.7-1.1-1.9c-1.3,0.8-2.6,1.8-3.8,2.7
		c0-0.5-0.1-1.1-0.1-1.6c1.5-1,3-2.1,4.5-3.1c1.2-0.8,0.1-2.8-1.1-1.9c-1.2,0.8-2.3,1.6-3.5,2.4c0-0.5,0-1.1,0-1.6
		c1.4-1.3,2.8-2.5,4.4-3.6c1.2-0.8,0.1-2.8-1.1-1.9c-1.2,0.8-2.3,1.7-3.4,2.6c0-0.9-0.1-1.7-0.1-2.6c1.4-1.1,2.9-2.1,4.5-3
		c1.2-0.7,0.1-2.7-1.1-1.9c-1.2,0.7-2.3,1.5-3.5,2.3c0-0.5,0-1,0-1.5c1.4-1,2.9-2,4.3-3c1.2-0.8,0.1-2.8-1.1-1.9
		c-1.1,0.7-2.2,1.5-3.2,2.2c0-0.5,0-1,0-1.4c0.1-0.1,0.2-0.1,0.3-0.2c1.5-1.6,3.1-3,4.9-4.1c1.2-0.8,0.1-2.7-1.1-1.9
		c-1.4,0.9-2.8,2-4,3.1c0-0.6,0.1-1.2,0.1-1.8c1.6-1.4,3.4-2.5,5.4-3.4c1.3-0.6,0.2-2.6-1.1-1.9c-1.4,0.7-2.7,1.5-4,2.4
		c0-0.6,0.1-1.1,0.2-1.7c1.3-0.9,2.7-1.8,4.2-2.5c1.3-0.6,0.2-2.6-1.1-1.9c-0.9,0.4-1.7,0.9-2.5,1.3c0.6-2,1.8-3.7,4.4-4
		C-338.5,53.3-338.4,61.1-338,65.1z M-342.3,51.1c-1.4-0.2-3-0.1-4.4,0.2c-0.5-2.9-0.6-5.9-0.8-8.8c1.6,0.1,3.3,0.1,4.9-0.1
		C-342.4,45.3-342.5,48.2-342.3,51.1z M-343.2,39.4c-12.4,1-24.2-6.6-26.9-19.1c-2.7-12.6,5.8-24.1,18.2-26.6
		c13-3.4,25.1,5.7,29.2,17.7C-317.7,26.1-328.7,38.3-343.2,39.4z"/>
	<path class="st0" d="M-347.3-4.4c-11.2,0.8-22.6,11-20.7,22.9c1.8,11.4,13.7,18.6,24.6,18.4c12.1-0.2,20.2-8.5,18.5-20.8
		C-326.5,4.9-335.8-4.7-347.3-4.4z M-329.5,28.6c-3.2,4.5-8.8,6-14,6.1c-9.3,0.2-19.6-5.5-22.1-15c-2.8-11,7.8-21.1,18.2-21.8
		c9.4-0.3,17,6.7,19.5,15.6C-326.5,18.3-326.5,24.4-329.5,28.6z"/>
	<path class="st0" d="M-355.5,3.2c-5.1,2.6-8.3,7.7-8.8,13.4c0,1.7,0.3,4.2,2.2,4.7c1.5,0.4,2.8-0.8,3.2-2.2
		c0.4-1.3,0.3-2.6,0.6-3.9c0.5-1.8,1.6-3.4,2.8-4.8c1.5-1.7,3.9-2.5,5.2-4.2c0.7-1,0.8-2.6-0.1-3.5C-351.6,1.3-354.1,2.5-355.5,3.2z
		 M-354.7,6.6c-1.8,1.4-3.4,3.2-4.5,5.2c-0.6,1.1-1.1,2.4-1.4,3.6c-0.1,0.4-0.1,0.8-0.2,1.2c-0.4,1.1-1.3,2.9-1.2-0.1
		c0.3-3.9,2.2-7.4,5.3-9.9c0.5-0.4,4.4-3,4.3-1.6C-352.4,5.3-354.4,6.4-354.7,6.6z"/>
	<path class="st0" d="M-346.5,0.2C-346.5,0.2-346.5,0.3-346.5,0.2c-0.1,0-0.2,0.1-0.3,0.1c-1.8,0.9-2.3,3.4-1,5
		c1.4,1.6,3.9,1.3,5-0.4c0.7-1,0.5-2.4-0.1-3.5C-343.5,0.1-345.1-0.3-346.5,0.2z M-344.7,3.9c-0.3,0.2-0.6,0.3-0.9,0.2
		c-0.8-0.3-0.7-1.4,0-1.8c0.4-0.1,0.7-0.2,0.9,0.1c0.2,0.3,0.3,0.7,0.3,1.1c0,0,0,0.1,0,0.1C-344.5,3.7-344.7,3.8-344.7,3.9z
		 M-344.4,3.5C-344.4,3.4-344.4,3.4-344.4,3.5L-344.4,3.5z"/>
</g>
<g>
	<path class="st0" d="M-46.3,24.1c-1.8-0.2-3.8,0.2-5.7,0.6c-1.9-4.7-4-9.4-6.3-13.9c-1.4-2.9-3.1-7.4-5.9-9.3
		c-3.9-2.6-8.2,1.7-10.6,4.4c-10.3,11.3-19.7,23.2-33.5,30.5c-0.1,0.1-0.2,0.1-0.3,0.2c-3.9,1.2-7.8,2.4-11.6,3.7
		c-2.5,0.8-5.9,1.4-7.9,3.2c-3.5,3.1-1.2,10,0.2,13.5c1.3,3.4,4.4,10.2,8.3,11.3c1.1,0.3,2.3,0.1,3.6-0.2c2.3,4.8,4.5,9.8,7.1,14.5
		c1.7,3,3.5,7,7.5,5.6c4.2-1.4,9.5-5.7,8.3-10.7c-0.7-2.5-3-4.4-4.4-6.4c-1.6-2.3-2.8-4.7-4-7.2c0.6-0.2,1.3-0.4,1.9-0.6
		c7.9-1.5,15.9-2.3,23.9-1.4c7.2,0.8,14.2,2.7,21.2,4.2c3.5,0.7,10.1,3.5,12.4-0.7c2.4-4.3-0.8-12.3-1.9-16.6
		c-0.8-2.9-1.6-5.8-2.5-8.6c1.9-1.3,4.3-2.5,5.3-4.7c1-2.3,0-4.8-1-7C-42.9,26.7-44.1,24.4-46.3,24.1z M-122,61.9
		c-1.2-1.6-2.1-3.3-2.9-5.2c-0.8-1.8-1.4-3.7-1.7-5.7c-0.8-4.2,1.6-6.1,5.2-7.3c4.4-1.5,8.8-2.9,13.2-4.2c2.2,7.1,4.6,14.1,7.1,21.1
		c-3.9,1.3-7.9,2.4-11.9,3.4C-116.6,65.1-119.4,65.5-122,61.9z M-98.4,73.7c0.4,0.5,1,1.2,1.4,1.7c2,3.1,2,5-0.6,7.8
		c-0.7,0.8-2,1.6-2.9,2c-0.9,0.4-1.5,0.6-2.1,0.7c0.4-0.7,0.8-1.5,1-2.3c0.5-1.4-1.7-2-2.2-0.6c-0.2,0.7-0.5,1.3-0.9,1.9
		c-0.1-0.1-0.2-0.2-0.3-0.3c-0.2-0.2-0.4-0.5-0.6-0.7c0,0,0-0.1,0.1-0.1c0.2-0.5,0.5-0.9,0.7-1.4c0.3-0.6,0.5-1.1,0.7-1.7
		c0.5-1.4-1.7-2-2.2-0.6c-0.2,0.6-0.5,1.1-0.8,1.7c-0.3-0.5-0.6-1.1-0.8-1.6c0,0,0,0,0,0c0.5-1.1,1-2.3,1.5-3.4
		c0.3-0.6,0.2-1.2-0.4-1.5c-0.5-0.3-1.3-0.2-1.5,0.4c-0.3,0.6-0.6,1.3-0.9,1.9c-0.2-0.4-0.4-0.9-0.6-1.3c-0.1-0.2-0.2-0.4-0.3-0.6
		c0.1-0.1,0.2-0.2,0.2-0.3c0.5-0.9,1-1.7,1.5-2.6c0.7-1.3-1.2-2.4-1.9-1.1c-0.3,0.5-0.6,1.1-0.9,1.6c-0.3-0.6-0.6-1.2-0.9-1.8
		c0.1-0.1,0.2-0.1,0.2-0.2c0.4-0.6,0.9-1.2,1.3-1.8c0.3-0.5,0.1-1.2-0.4-1.5c-0.6-0.3-1.2-0.1-1.5,0.4c-0.2,0.3-0.4,0.6-0.7,0.9
		c-0.3-0.5-0.5-1.1-0.8-1.6c0.6-0.2,1.2-0.4,1.8-0.5c2.8-0.7,5.7-1.5,8.5-2.4C-102.2,67.8-100.6,70.9-98.4,73.7z M-56.8,62.5
		c-6.5-1.4-12.9-3-19.5-3.7c-7.6-0.8-15,0-22.5,1.3c-2.6-7.2-5-14.4-7.3-21.6c12.4-6.8,22-17.3,31.1-27.9c1.1-1.2,2.7-3.6,4.6-5.2
		c5.4,8,8.9,18,12.4,26.9c4,10.2,7.4,21.2,9.3,32C-51.5,64.2-54.9,63-56.8,62.5z M-44.4,61.6c-0.1,1.6-0.9,2.3-2.1,2.7
		c-2-11.2-5.4-22.7-9.7-33.2c-3.6-8.9-7-18.8-12.4-26.8c1-0.4,2-0.5,2.9,0c1.3,0.7,2.4,3.6,3,4.9c3.1,5.7,5.7,11.7,8.1,17.7
		c2.9,7.2,5.4,14.5,7.4,22C-46,52.6-44.1,57.7-44.4,61.6z M-43.7,35.3c-0.8,1.1-2.2,1.9-3.4,2.7c-1.2-3.8-2.6-7.5-4-11.1
		c0.9-0.1,1.8-0.3,2.7-0.4c2.2-0.2,3,0.4,4.1,2.4C-43.4,30.8-42.3,33.3-43.7,35.3z"/>
	<path class="st0" d="M-45.7,17.4c0-2.1,0-4.3,0-6.4c0-1.4-2.2-1.4-2.3,0c0,2.1,0,4.3,0,6.4C-48,18.8-45.7,18.8-45.7,17.4z"/>
	<path class="st0" d="M-36.6,21.7c1.2-1.3,2.3-2.6,3.5-3.9c1-1.1-0.6-2.7-1.6-1.6c-1.2,1.3-2.3,2.6-3.5,3.9
		C-39.1,21.2-37.5,22.8-36.6,21.7z"/>
	<path class="st0" d="M-28.8,29.1c-1.7-0.1-3.3-0.1-5-0.1c-1.4,0-1.4,2.2,0,2.3c1.7,0.1,3.3,0,5,0.1C-27.4,31.4-27.4,29.2-28.8,29.1
		z"/>
	<path class="st0" d="M-37.3,39.3c-1.2-0.8-2.3,1.1-1.1,1.9c1.4,1,2.8,2.2,4.1,3.4c1.1,1,2.7-0.6,1.6-1.6
		C-34.2,41.7-35.7,40.5-37.3,39.3z"/>
	<path class="st0" d="M-117.9,49.9c1.3-0.5,0.8-2.7-0.6-2.2c-1.5,0.6-3,1.2-4.5,1.8c-1.3,0.5-0.8,2.7,0.6,2.2
		C-120.9,51.1-119.4,50.5-117.9,49.9z"/>
	<path class="st0" d="M-117.3,51.4c-1.5,0.7-3.1,1.3-4.8,1.8c-1.4,0.4-0.8,2.6,0.6,2.2c1.8-0.5,3.6-1.2,5.3-2.1
		C-114.8,52.8-116,50.8-117.3,51.4z"/>
</g>
<g>
	<path class="st0" d="M-312.8,287.7c-15-13.4-37.8-15.1-55.3-6c-17.9,9.3-29.7,29.1-26.8,49.5c3.3,23.3,30,35.3,51,35.8
		c9.8,0.3,18.5-2.1,26.9-7.2c8.4-5,13.7-12.1,17.4-21.1C-292.7,321.4-299.1,299.9-312.8,287.7z M-299.8,323.9
		c-4.4,0.9-8.8,1.6-13.2,2.2c0-1.9-0.1-3.8-0.2-5.7c-0.4-5.1-1.5-10.1-3.1-14.8c3.3-1.8,6.4-3.9,9.3-6.2
		C-302.4,306.7-299.8,315.5-299.8,323.9z M-372.1,326.6c-0.2-6.8,0.5-12.9,2.6-18.9c6.2,2.4,12.8,3.8,19.6,4.7
		c2.6,0.4,5.3,0.5,7.9,0.4c0.5,5.1,0.9,10.3,1.2,15.4c-1.7,0.1-3.4,0.1-5.2,0.2c-8.7,0.3-17.4,0.5-26.1,0.1
		C-372,327.9-372.1,327.2-372.1,326.6z M-342.2,309.7c-3.3,0.1-6.6-0.1-9.8-0.7c-5.7-1-11.1-2.2-16.3-4.2c0.6-1.5,1.3-3,2.2-4.5
		c4.5-8.3,10.7-16.2,19.1-20.8C-344.9,289.6-343.3,299.7-342.2,309.7z M-344,279.6c11.7,4.4,19.7,13.5,24,24.5
		c-6,2.9-12.6,4.8-19.2,5.4C-340.3,299.5-341.9,289.5-344,279.6z M-345.9,331.4c1.8-0.1,3.5-0.1,5.3-0.2c0.2,3.6,0.2,7.1,0.3,10.7
		c-0.9,0-1.8,0-2.7,0c-7.4,0.1-15.4,1.4-23,3.8c-2.8-4.3-4.7-9.1-5.6-14.2C-363,331.9-354.4,331.7-345.9,331.4z M-343,344.9
		c0.9,0,1.8,0,2.7,0c0,6.2-0.2,12.4-0.5,18.6c-9.3-2.1-17.6-7.7-23.3-15.2C-357.1,346.2-349.7,345-343,344.9z M-350.1,363.4
		c-9.3-1.2-18.8-4.4-26.6-9.8c3-1.7,6.2-3.1,9.5-4.3C-362.8,355.3-356.8,360.2-350.1,363.4z M-337.3,344.9
		c5.2,0.1,10.4,0.7,15.4,1.8c-4,6.8-8.8,12.4-15.9,16.1C-337.4,356.9-337.2,350.9-337.3,344.9z M-337.3,341.9
		c0-3.6-0.1-7.2-0.3-10.8c7.2-0.3,14.3-0.8,21.4-1.6c-0.4,5-1.6,9.7-4.2,14.5C-325.8,342.7-331.6,342.1-337.3,341.9z M-337.7,328.1
		c-0.3-5.2-0.7-10.3-1.2-15.5c6.8-0.7,13.7-2.7,19.9-5.7c1.5,4.7,2.5,9.6,2.8,14.6c0.1,1.7,0.2,3.3,0.1,5
		C-323.2,327.3-330.4,327.8-337.7,328.1z M-308.7,296.9c-2.7,2.2-5.6,4.2-8.7,5.9c-3.9-9.8-10.5-18.1-19.9-23.3
		c5.8,1.1,11.2,3.5,16.5,6.4C-316,288.6-311.9,292.4-308.7,296.9z M-372.9,288.2c6.1-4.5,12.9-7.1,20.1-8.4
		c-6.8,4.9-12.1,11.9-16,19.2c-0.9,1.6-1.6,3.2-2.3,4.8c-3.9-1.7-7.5-3.9-10.9-6.9C-379.3,293.5-376.2,290.6-372.9,288.2z
		 M-383.8,299.3c3.6,3.1,7.5,5.5,11.6,7.3c-2.5,6.9-3.3,13.8-2.8,21.6c0,0,0,0.1,0,0.1c-5.9-0.4-11.8-1.1-17.6-2.4
		C-392.9,316.6-389.4,307.1-383.8,299.3z M-389.8,338.3c-1.4-3-2.2-6.1-2.6-9.2c5.8,1.2,11.8,1.9,17.7,2.3
		c0.8,5.5,2.8,10.7,5.8,15.4c-3.7,1.3-7.2,3-10.4,4.9C-383.7,348-387.4,343.6-389.8,338.3z M-331.5,362.6c5.3-3.9,9.4-9.1,12.7-15
		c2.8,0.8,5.5,1.8,8.1,3.1C-316.3,356.5-323.5,360.6-331.5,362.6z M-308.7,348.4c-2.8-1.5-5.7-2.6-8.7-3.5
		c2.6-5.2,3.9-10.3,4.3-15.7c4.4-0.6,8.8-1.3,13.1-2.2c-0.1,1.4-0.3,2.8-0.6,4.2C-301.9,337.8-304.7,343.6-308.7,348.4z"/>
	<path class="st0" d="M-392.6,300c3.5-6.5,8-12.3,13.5-17.2c1.1-1-0.5-2.5-1.6-1.6c-5.7,5-10.3,11-13.9,17.7
		C-395.2,300.2-393.3,301.3-392.6,300z"/>
	<path class="st0" d="M-392.4,291.9c1.3-2.4,2.9-4.6,4.8-6.5c1-1-0.6-2.6-1.6-1.6c-2.1,2-3.8,4.4-5.2,7
		C-395,292-393.1,293.2-392.4,291.9z"/>
	<path class="st0" d="M-305.7,355.5c-4.2,4.9-9.3,8.5-15.3,10.7c-1.3,0.5-0.8,2.7,0.6,2.2c6.4-2.4,11.9-6.1,16.3-11.3
		C-303.1,356-304.7,354.4-305.7,355.5z"/>
	<path class="st0" d="M-307.6,362.9c-1.2,1.4-2.7,2.6-4.3,3.4c-1.3,0.6-0.2,2.6,1.1,1.9c1.8-0.9,3.5-2.2,4.8-3.7
		C-305.1,363.4-306.7,361.8-307.6,362.9z"/>
</g>
<g>
	<path class="st0" d="M-227.7,350.7C-227.7,350.7-227.7,350.7-227.7,350.7c-3.7-0.5-7.1,1.8-7.3,5.8c-0.2,3.9,3,6.2,6.5,6.3
		c3.4,0.1,7-2.1,6.8-5.9C-221.8,353.7-224.3,350.9-227.7,350.7z M-227.8,359.8c-1.8,0.1-3.5-0.4-4-2.3c-0.6-2.4,1.5-4.3,3.8-3.9
		c0,0,0,0,0.1,0c0.1,0,0.2,0,0.3,0c1.6,0.1,2.7,1.3,3,2.8C-224.3,358.5-226,359.8-227.8,359.8z"/>
	<path class="st0" d="M-184.2,350.5c-3.6-0.4-6.5,2.6-6.4,6.1c0.1,1.9,1,4,2.6,5.1c1.3,1,3,0.9,4.6,1c3.5,0.3,5.5-3.7,4.9-6.8
		C-179.1,352.6-180.5,350.5-184.2,350.5z M-183.4,359.8c-2.1-0.1-3.8-0.4-4.2-2.8c-0.3-2.2,1.1-3.7,3.3-3.5c1.8,0,2.2,0.6,2.6,2.3
		C-181.2,357.2-181.3,359.9-183.4,359.8z"/>
	<path class="st0" d="M-172.1,301c-9-1.8-18.8-1.3-28-2c-13.9-1.1-27.7-1.9-41.6-2.4c-0.4-1.8-0.9-3.5-1.6-5c-1.4-3-4.3-3.6-7.2-4.5
		c0.1-1.1-0.2-1.9-1.5-2.6c-1.6-0.9-3.5-1.5-5.3-2.1c-2.3-0.7-7.6-1.8-7.5,2.2c0.1,3.1,4.1,4.3,6.5,5.1c2,0.7,4.8,1.4,6.5,0.1
		c1.8,0.6,3.5,0.9,4.9,2.4c1.6,1.7,1.7,4.2,2.3,6.5c1.1,4.9,2.4,9.7,3.7,14.6c2.2,8.1,4.6,16.2,6.5,24.4c-2.4,0.9-4.3,3-4.2,5.9
		c0.1,4.4,4.4,5.4,8,5.5c17,0.4,34,0.1,50.9,0.2c1.9,0,1.9-3,0-3c-10,0-20.1,0-30.1,0c-5.3,0-10.7,0-16-0.1c-2.1,0-7.6,0.8-9.2-1.1
		c-1.6-1.9,0.2-4.5,2.4-4.7c14.5,0.1,29-0.1,43.4,0.1c3.5,0,9.6,0.7,12.1-2.5c1.1-1.3,1.4-3.4,1.9-5c1.1-3.4,2.2-6.8,3.3-10.2
		c1.7-5.2,4-10.8,4.6-16.2C-167.1,303-168.9,301.7-172.1,301z M-258,287.3c-0.9-0.3-3.8-1.1-4.3-2.1c-0.4-0.8,0.5-1.4,1-1.5
		c0.3-0.1,0.7,0,1,0.1c1,0.2,1.9,0.5,2.8,0.8c1.1,0.4,2.1,0.8,3.1,1.2c1.1,0.4,1.6,0.5,1.3,1.7C-253.5,289-257.1,287.6-258,287.3z
		 M-170.5,304.9c0.8,1.6-1,5.8-1.5,7.5c-0.1,0.4-0.3,0.9-0.4,1.3c-4.2-0.2-8.4-0.5-12.6-0.8c0.8-3.4,1.6-6.7,2.5-10
		C-178.3,303-171.4,303.1-170.5,304.9z M-175.4,323.2c-0.2,0.7-0.5,1.4-0.7,2.1c-3.8-0.2-7.6-0.3-11.4-0.4c0.6-3.2,1.3-6.5,2-9.7
		c4.1,0.3,8.3,0.5,12.4,0.8C-173.8,318.4-174.6,320.8-175.4,323.2z M-199.9,337.4c0.2-3.5,0.4-7,0.6-10.5c3,0.1,6.1,0.2,9.1,0.2
		c-0.7,3.4-1.3,6.8-2,10.2C-194.8,337.4-197.3,337.4-199.9,337.4z M-199.1,324.6c0.2-3.5,0.5-6.9,0.8-10.4c3.5,0.3,7.1,0.6,10.6,0.8
		c-0.7,3.3-1.3,6.5-2,9.8C-192.9,324.8-196,324.7-199.1,324.6z M-231.6,337.2c-0.8-3.8-1.8-7.5-2.8-11.3c2.9,0.1,5.7,0.2,8.6,0.3
		c0.8,3.7,1.6,7.4,2.6,11.1C-226,337.2-228.8,337.2-231.6,337.2z M-238.5,311c3.3,0.2,6.6,0.5,9.9,0.8c0.8,4.1,1.6,8.1,2.4,12.2
		c-2.9-0.1-5.8-0.2-8.8-0.3C-236.1,319.4-237.3,315.2-238.5,311z M-220.8,337.3c-1-3.6-1.9-7.3-2.6-11c3.2,0.1,6.3,0.2,9.5,0.3
		c0.2,3.6,0.5,7.2,0.7,10.8C-215.7,337.3-218.3,337.3-220.8,337.3C-220.8,337.3-220.8,337.3-220.8,337.3z M-223.9,324
		c-0.8-4-1.6-8-2.4-12c3.8,0.3,7.6,0.6,11.4,1c0.3,3.8,0.6,7.6,0.8,11.4C-217.4,324.2-220.6,324.1-223.9,324z M-226.7,309.7
		c-0.6-3.2-1.3-6.4-2-9.6c4.3,0.2,8.6,0.5,12.9,0.7c0.3,3.3,0.5,6.5,0.7,9.8C-219,310.3-222.8,310-226.7,309.7z M-212.6,313.1
		c4,0.3,8,0.7,12.1,1c-0.3,3.5-0.6,7-0.8,10.5c-3.5-0.1-7-0.2-10.4-0.3C-212.1,320.6-212.3,316.8-212.6,313.1z M-184.8,302.9
		c-0.9,3.3-1.7,6.6-2.4,9.9c-3.6-0.3-7.3-0.5-10.9-0.8c0.3-3.3,0.6-6.6,0.9-9.9c4,0.3,8.1,0.5,12.1,0.8
		C-185,302.9-184.9,302.9-184.8,302.9z M-199.5,302c-0.3,3.3-0.6,6.6-0.9,9.9c-4.1-0.3-8.3-0.7-12.4-1c-0.2-3.3-0.5-6.6-0.7-9.8
		c4.1,0.3,8.2,0.6,12.3,0.9C-200.7,301.9-200.1,301.9-199.5,302z M-241.1,299.5c3.3,0.1,6.7,0.3,10,0.4c0.7,3.2,1.4,6.3,2,9.5
		c-3.3-0.3-6.7-0.5-10.1-0.8c-0.2-0.7-0.4-1.4-0.6-2.1C-240.2,304.4-240.6,302-241.1,299.5z M-210.9,337.4
		c-0.2-3.6-0.5-7.2-0.7-10.8c3.4,0.1,6.8,0.2,10.1,0.2c-0.2,3.5-0.5,7-0.7,10.6C-205.1,337.4-208,337.4-210.9,337.4z M-178.4,332.7
		c-1.4,4.6-4,4.5-8.6,4.6c-1,0-1.9,0-2.9,0.1c0.7-3.3,1.4-6.7,2-10.1c3.7,0.1,7.4,0.2,11.1,0.4C-177.3,329.3-177.9,331-178.4,332.7z
		"/>
	<path class="st0" d="M-237.9,354.4c0.6-1.3-1.4-2.5-1.9-1.1c-1.3,2.9-0.9,6,1.1,8.5c0.9,1.1,2.5-0.5,1.6-1.6
		C-238.4,358.5-238.7,356.3-237.9,354.4z"/>
	<path class="st0" d="M-242.1,356c0-0.6-0.6-1.1-1.1-1.1c-0.6,0-1.1,0.5-1.1,1.1c-0.1,1.1,0.1,2.3,0.6,3.3c0.7,1.3,2.7,0.1,1.9-1.1
		C-242.1,357.5-242.1,356.8-242.1,356z"/>
</g>
<g>
	<path class="st0" d="M-95.8,293.7c-11,6.9-17.6,22.1-13,34.6c1.5,4.1,3.4,8,5.9,11.6c1.3,1.8,2.8,3.4,4.3,5.1
		c2.2,2.5,2.9,4.4,3.7,7.5c0.3,1.3,0.7,2.1,1.3,2.7c-1,1.1-1.3,2.6-0.5,3.9c-1.9,2.5-1.1,4.1,1,5c-3.2,4.8,3.5,5.8,9.7,5.9
		c0.1,1,0.2,2,0.6,2.8c0.6,1.2,2.3,1.4,3.5,1.4c1.4,0,3.3-0.1,4.5-0.9c1.1-0.7,1.4-2.3,1.5-3.6c3.5,0.1,8.9,0.4,10.7-1.9
		c1.1-1.4,0.6-2.7-0.4-3.6c1.7-0.9,2.4-2.4,1-4.6c0.8-1.2,0.3-2.7-0.9-4c0.2-0.3,0.5-0.6,0.7-1.1c0.8-1.7,0.3-3.5,0.7-5.3
		c0.6-2.7,2.4-4.1,3.8-6.2c2.1-3.2,5.1-6.3,6.8-9.7c5.5-11.2,3.2-26.8-5.5-35.7C-67,286.8-83.1,285.8-95.8,293.7z M-81.2,316.2
		c0.3-1.8,1.3-2.9,3-3.2c1.2,1,1.7,2.2,1.3,3.7c0.1,1.7-0.7,3.3-2,4.5C-80.3,319.9-81.4,318.1-81.2,316.2z M-79,324.3
		c1.6,1.3,3.5,2.4,5.3,2.9c-2.5,8.6-1.9,19-1.4,27.5c-1.1,0-2.1-0.1-3-0.1c-1.4,0-2.8,0-4.2-0.1c-0.1-3.7,0.3-17.9-2-27.7
		C-82.3,326.2-80.5,325.3-79,324.3z M-78.1,357.6c3.6,0,7.3-0.2,10.9-0.5c0.9-0.1,1.7-0.2,2.4-0.4c2.2,2.2-4.2,2.7-5.8,2.8
		c-2.4,0.1-4.9,0-7.4,0c-2.3-0.1-4.5-0.1-6.8-0.3c-1.5-0.1-9.5-1.1-6.8-2.8c0.3,0.1,0.6,0.1,0.9,0.2
		C-86.6,357.3-82.2,357.6-78.1,357.6z M-65.4,362.9c-0.9,0.1-1.8,0.2-2.7,0.3c-1.1,0.1-2.2,0.1-3.4,0.2c-2.5,0.1-5,0-7.5,0
		c-2,0-4.1,0-6.1-0.1c-0.6,0-8.2-0.3-7.3-2.5c3.3,1.5,9.2,0.9,12,1c4.8,0.2,11,1.1,15.7-0.5C-64.9,361.7-65.1,362.3-65.4,362.9z
		 M-76.4,371.5c-0.8,0.3-2,0.4-2.9,0.4c-0.4,0-0.9,0.1-1.3-0.1c-0.3-0.2-0.1,0.1-0.3-0.3c-0.2-0.3-0.3-0.9-0.4-1.5
		c2.6-0.1,4.8-0.3,5.7-0.3C-75.6,370.4-75.8,371.2-76.4,371.5z M-65.4,365.1c-0.7,1.6-1.9,2.2-3.4,2c-1.2,0.1-2.3,0.1-3.5,0.2
		c-2,0.1-3.9,0.2-5.9,0.3c-1.5,0.1-15,0.5-12.8-2.6c0-0.1,0.1-0.1,0.1-0.2c4.2,0.9,10.1,0.7,12,0.7
		C-77.2,365.6-70.1,366.1-65.4,365.1C-65.5,365-65.4,365-65.4,365.1z M-51.8,325.3c-0.8,4-1.7,6.6-4.3,10c-2.1,2.8-4.2,5.6-6.1,8.5
		c-0.9,1.5-1.8,2.9-2.2,4.6c-0.6,2.4,0.3,4.5-2.8,5.8c-1.5,0.6-3.6,0.7-5.7,0.6c-0.5-8.6-1-18.6,1.4-27.1c4.3,0.4,10.6-1.5,9.5-6.6
		c-1.6-7.3-8.4-2.1-10.3,2c-0.3,0.6-0.6,1.3-0.8,1.9c-0.9-0.3-1.8-0.7-2.4-1c-0.5-0.3-1.1-0.7-1.7-1.1c3.2-2.9,4.5-6.7,1.2-10.5
		c-2.7-3.1-6.6-1-7.4,2.9c-0.6,2.7,0.7,5.5,2.7,7.6c-1.3,0.9-2.8,1.5-4.3,1.9c-1.7-5.8-4.5-9.4-9.3-7c-2.8,1.4-2.4,5.3-0.6,7.3
		c2.1,2.4,5.2,2.8,8.3,2.3c0.9,4,0.8,8.2,1.1,12.3c0.3,4.9,0.5,9.9,0.8,14.8c-1.4-0.1-2.8-0.3-4.1-0.6c-2.1-0.5-2.5-0.4-3.4-2.7
		c-0.6-1.5-0.5-3.1-1.2-4.6c-1.8-3.5-5.6-6.1-7.8-9.4c-2.4-3.7-4.8-8.2-5.7-12.5c-1.5-6.9,0.8-14.2,4.5-19.9
		c5.4-8.3,13.8-12.4,23.6-13.2c8.9-0.7,18,4,23,11.5C-51.4,309.7-50.2,317.6-51.8,325.3z M-70.8,325.5c0-0.1,0.1-0.3,0.1-0.4
		c0.6-1.7,1.4-3.1,2.7-4.4c3.9-1.4,4.7-0.1,2.2,3.7C-67,325.6-68.9,325.8-70.8,325.5z M-87,325.1c-0.7,0.1-1.3,0.1-1.9,0
		c-1.5-0.1-6.6-1.8-5-4.6c2.2-3.9,6,2,6.6,3.8C-87.2,324.6-87.1,324.9-87,325.1z"/>
	<path class="st0" d="M-37.2,295.2c-3.2,1.5-6.6,2.8-9.5,4.9c-1.6,1.1-0.1,3.7,1.5,2.6c2.9-2.1,6.2-3.4,9.5-4.9
		C-34,297-35.5,294.4-37.2,295.2z"/>
	<path class="st0" d="M-59,288.2c2.2-2.8,3.9-5.9,5.7-9.1c0.9-1.7-1.6-3.2-2.6-1.5c-1.6,2.9-3.2,5.9-5.2,8.5
		C-62.3,287.5-60.2,289.7-59,288.2z"/>
	<path class="st0" d="M-78,281.9c0.2-3.4,0.3-6.8,0.3-10.1c0-1.9-3-1.9-3,0c0,3.4-0.1,6.8-0.3,10.1C-81.1,283.8-78.1,283.8-78,281.9
		z"/>
	<path class="st0" d="M-99.1,288.1c1.1,1.6,3.7,0.1,2.6-1.5c-2-3-4.3-6-5.6-9.4c-0.7-1.8-3.6-1-2.9,0.8
		C-103.6,281.7-101.3,284.9-99.1,288.1z"/>
	<path class="st0" d="M-111.5,299.8c-3-2.2-6.2-3.9-9.6-5.3c-1.8-0.7-2.6,2.2-0.8,2.9c3.2,1.3,6.1,3,8.9,5
		C-111.5,303.5-110,300.9-111.5,299.8z"/>
	<path class="st0" d="M-88.8,297.5c-7,2-13.3,9.6-14.3,16.8c-0.2,1.4,2,2,2.2,0.6c0.9-6.4,6.4-13.3,12.7-15.2
		C-86.8,299.3-87.4,297.1-88.8,297.5z"/>
	<path class="st0" d="M-87.4,301.4c-2.1,0.3-4.2,1.8-5.5,3.5c-0.9,1.1,0.7,2.7,1.6,1.6c1.1-1.4,2.6-2.6,4.5-2.9
		C-85.3,303.4-86,301.2-87.4,301.4z"/>
</g>
<g>
	<path class="st0" d="M-303.6,145.2c-7.9-10.6-22-10.5-32.3-3.7c-5.5,3.6-10.4,8.4-14.6,13.4c-3.7,4.3-8,9.5-10,14.9
		c-0.1,0.3-0.2,0.6-0.3,0.9c-5.9,2.5-10.8,6.2-15.2,10.9c-4.8,5.1-10,10.9-13.2,17.2c-4.8,9.3-3,20.5,5.5,27.2
		c9.7,7.6,23.2-0.6,31-7.1c5.7-4.8,10.4-10.5,14.7-16.6c1.9-2.7,3.7-5.5,5.1-8.4c11.4-1.8,19.4-10.6,25.5-19.9
		C-302.1,165.5-296.7,154.5-303.6,145.2z M-344.3,167.7c1-1.5,2-2.8,2.7-3.7c4.7-6,9.8-13.1,17.5-15.1c5.4-1.4,10.7,1.7,10.3,7.6
		c-0.2,3.3-1.9,6.5-3.9,9.1c-3.7,5.1-8,10.2-13.4,13.4C-332.6,172.5-337.3,167.1-344.3,167.7z M-348.7,193.4
		c-1.9,2.5-3.7,4.7-4.4,5.6c-3.5,4.7-7.2,10.2-12.6,13c-2.8,1.5-8.5,3.1-10.8,0.2c-3.2-4,0.4-10.4,2.7-13.7
		c4.2-5.9,9.3-10.5,14.9-15C-356.5,187.7-352.8,191.4-348.7,193.4z M-366.9,225c-7.2,2.8-14.1,2-18.9-4.6
		c-3.7-5.1-5.1-10.8-3.1-16.9c2.3-6.7,7.5-12.3,12-17.6c4.4-5.2,9.4-9.7,15.6-12.6c0,0.2,0,0.3,0,0.5c-0.6,0.3-1.3,0.5-1.9,0.8
		c-0.5,0.3-0.7,1-0.4,1.5c0.3,0.6,1,0.7,1.5,0.4c0.3-0.1,0.6-0.2,0.8-0.4c0,0.1,0,0.1,0,0.2c-0.5,0.3-0.9,0.6-1.4,0.9
		c-1.2,0.8-0.1,2.7,1.1,1.9c0.2-0.1,0.5-0.3,0.7-0.4c0,0.1,0,0.2,0.1,0.2c-0.3,0.2-0.6,0.4-0.8,0.6c-0.5,0.4-0.7,1-0.4,1.5
		c0.3,0.5,1,0.8,1.5,0.4c0.2-0.1,0.3-0.2,0.5-0.3c0,0.1,0,0.1,0.1,0.2c0,0,0,0-0.1,0c-7.6,5.9-19,14.9-19.9,25.4
		c-0.3,3.4,0.8,7.7,4.3,8.7c3.6,1,7.8,0.1,11-1.6c7.9-4.2,12.7-13.3,18.3-19.9c3.5-4.1,8.7-15.5-1.2-16c0-0.1,0-0.1-0.1-0.2
		c0,0,0.1,0,0.1,0c1.4,0,1.4-2.2,0-2.3c-0.1,0-0.3,0-0.4,0c0-0.1,0-0.1,0-0.2c0.5,0,1,0.1,1.5,0.1c0.6,0.1,1.1-0.6,1.1-1.1
		c0-0.7-0.5-1-1.1-1.1c-0.3,0-0.7-0.1-1-0.1c0.1-0.2,0.1-0.3,0.2-0.5c0.3,0,0.6,0.1,0.9,0.1c0.6,0.1,1.1-0.6,1.1-1.1
		c0-0.6-0.5-1-1-1.1c0.1-0.1,0.1-0.3,0.2-0.4c6.5-1.6,10.9,2.9,12.6,8.9c1.6,5.9-0.4,11.9-3.4,17
		C-343.6,207.8-353.9,220.1-366.9,225z M-332,191.4c0-0.1,0.1-0.3,0.1-0.4c0.2,0,0.4,0,0.5-0.1c0.6-0.3,1.2-0.6,1.8-1
		c1.3-0.7,0.1-2.6-1.1-1.9c-0.1,0.1-0.3,0.1-0.4,0.2c0-0.2,0.1-0.4,0.1-0.6c0.7-0.3,1.4-0.6,2.2-0.9c0.6-0.3,0.7-1.1,0.4-1.5
		c-0.3-0.6-1-0.7-1.5-0.4c-0.2,0.1-0.5,0.2-0.7,0.3c0-0.2,0-0.4,0-0.5c0.4-0.2,0.9-0.3,1.3-0.5c0.6-0.2,1-0.8,0.8-1.4
		c-0.2-0.5-0.8-1-1.4-0.8c-0.3,0.1-0.5,0.2-0.8,0.3c0-0.2,0-0.5-0.1-0.7c4.8-2.6,8-6.3,11.5-10.5c2.7-3.3,5.4-6.4,6.8-10.5
		c2.6-7.8-2.2-15.6-10.9-14c-10.3,1.9-17.8,12.4-23.3,20.4c-4,5.7-5.8,14.4,2.9,16.3c0,0.1,0,0.3,0,0.5c-0.5-0.1-1-0.3-1.5-0.2
		c-0.6,0.1-1.1,0.5-1.1,1.1c0,0.6,0.5,1.2,1.1,1.1c0.3,0,0.7,0.1,1,0.2c-0.1,0.2-0.1,0.4-0.2,0.6c-0.4-0.1-0.9-0.2-1.3-0.3
		c-1.4-0.4-2,1.8-0.6,2.2c0.3,0.1,0.6,0.2,0.9,0.2c-0.1,0.2-0.2,0.4-0.4,0.7c-0.5-0.2-0.9-0.3-1.4-0.4c-1.4-0.4-2,1.8-0.6,2.2
		c0.3,0.1,0.5,0.2,0.7,0.2c-0.1,0.2-0.2,0.3-0.3,0.5c-5.4-2.4-9.2-7.3-10.9-12.9c-1.6-5.5,0.2-9.3,3.2-13.9
		c6.9-10.6,18.1-23.8,31.4-25.7c7.7-1.1,16.2,2.8,19.7,9.9c3,6,0.7,13-2.3,18.5C-311.8,177.6-320,188.9-332,191.4z"/>
	<path class="st0" d="M-327.8,141c-3.8,1.6-7.3,3.7-10.5,6.3c-1.1,0.9,0.5,2.5,1.6,1.6c3-2.5,6.4-4.5,10-6
		C-325.3,142.4-326.5,140.4-327.8,141z"/>
	<path class="st0" d="M-323.2,140c-1.4,0-1.5,2.3,0,2.3C-321.8,142.3-321.8,140-323.2,140z"/>
	<path class="st0" d="M-366.3,220.9c-3.7,1.8-7.6,2.4-11.6,1.8c-1.4-0.2-2,2-0.6,2.2c4.7,0.7,9.1,0,13.4-2
		C-363.8,222.2-365,220.2-366.3,220.9z"/>
	<path class="st0" d="M-362,218.8c-1.4,0-1.5,2.3,0,2.3C-360.6,221.1-360.6,218.8-362,218.8z"/>
</g>
<g>
	<path class="st0" d="M-166.1,170.2c-1.8-4.9-7.4-3.9-11.7-4.1c-6.6-0.2-13.2,0.5-19.7,0.1c-1.6-5.5-2.9-11.1-4.4-16.6
		c-1.3-4.7-3.5-10.1-9-11c-4.5-0.7-7,2.1-8.5,5.9c-2.8,7.2-4.4,14.7-7.5,21.9c-7.3,0-14.7-0.1-22,0.3c-3.4,0.2-7.8,0.5-9.2,4.1
		c-1.6,4.1,1,7.3,4,9.6c2.5,1.9,5.2,3.6,7.8,5.5c2.9,2.1,7.1,4.3,9.4,7.1c2.2,2.7-1.2,8.5-2.3,11.5c-1.2,3.3-2.6,6.6-3.4,10
		c-0.9,3.8-1.2,9.6,2.7,12.2c3.9,2.5,9-2.3,12-4.4c5.5-3.9,10.6-8.4,16.2-12c5,4.8,10.3,9.4,16,13.5c3.3,2.4,8.2,5.2,12.2,2.6
		c3.7-2.4,3.5-7.4,2.3-11.1c-2.2-6.8-4.4-13.7-6.6-20.5c5.6-4.1,11.2-8.3,16.7-12.5C-167.3,179.1-164.3,175.2-166.1,170.2z
		 M-178.7,183.9c-3.9,2.9-7.7,6-11.7,8.8c-0.5,0.4-0.9,1-0.7,1.7c1.4,4.6,2.5,9.3,4,13.9c1.2,3.6,4.8,9,3.3,12.9
		c-3.7,9.4-23.1-10.4-26.8-14c-0.5-0.5-1.3-0.6-1.8-0.2c-3.6,2.2-7,4.8-10.3,7.4c-3.6,2.8-8,7.2-12.3,8.8c-1.7,0.6-3.6,0.4-4.9-1.5
		c-0.6-0.8-0.4-2.8-0.3-3.8c0.1-2.3,1-4.7,1.8-6.9c2-5.6,4.1-11.2,6.1-16.9c0.2-0.5,0-1.2-0.4-1.5c-3.3-2.7-6.7-5.4-10.2-7.9
		c-3.3-2.4-10.6-5.7-12-9.7c-2.4-6.8,8.8-5.4,12.7-5.4c5.4-0.1,10.8-0.2,16.2-0.2c0.5,0.1,1.1-0.1,1.4-0.7c1.9-4.1,3.5-8.3,4.9-12.6
		c1.3-4.1,2.8-15.7,8.8-14.1c5.8,1.5,6.4,10.2,7.8,15c1,3.7,1.9,7.4,3,11.1c0.2,0.7,0.8,1.1,1.4,1.1c3.8,0.3,7.5,0,11.3-0.1
		c4.4-0.1,10.1-0.9,14.4,0.3C-161.4,172.6-175.7,181.6-178.7,183.9z"/>
	<path class="st0" d="M-231.7,174c-2.5,1.2-4.7,2.8-6.7,4.8c-1,1,0.6,2.6,1.6,1.6c1.9-1.8,3.9-3.3,6.3-4.4
		C-229.2,175.3-230.4,173.3-231.7,174z"/>
	<path class="st0" d="M-223.8,175.5c-3.4,1.4-6.7,3.1-9.7,5.2c-1.2,0.8-0.1,2.8,1.1,1.9c2.9-2,5.9-3.6,9.2-4.9
		C-221.8,177.1-222.4,174.9-223.8,175.5z"/>
</g>
<g>
	<path class="st1" d="M-30,180.3c-0.2-5.1-0.1-10.3,0-15.4c0.1-3.3,0.1-6.5-0.1-9.8c-0.1-2.6,0.3-5.9-0.4-8.5
		c-0.7-2.5-2.7-2.7-5-2.8c-6.1-0.3-12.2,0-18.3-0.1c-13.6-0.1-27.1-0.1-40.7-0.2c-7.1,0-14.2,0.2-21.4,0.6c-2.6,0.2-6.9-0.3-8.9,1.5
		c-1.4,1.2-1.6,3.1-1.9,4.8c-0.7,3.7-0.8,7.6-0.9,11.4c-0.3,8.3-0.2,16.5-0.7,24.8c-0.4,6.7-0.2,13.4,0,20c0.1,3.7-1.1,9.8,2.1,12.6
		c3.3,2.9,10.2,1.7,14.1,1.8c7.2,0.2,14.3,0.4,21.5,0.5c13.4,0.2,26.8-0.3,40.2,0.2c5.1,0.2,10.8,0,15.8-0.9c3-0.5,3.9-2.3,4.2-5.2
		C-28.9,204.2-29.6,192.1-30,180.3z M-119.5,147.6c1.3-0.1,2.5-0.2,3.8-0.2c5.2-0.3,10.4-0.6,15.7-0.6c11.2-0.1,22.5,0,33.7,0.1
		c4.8,0,9.7,0,14.5,0.1c5.1,0,10.6-0.6,15.7,0.1c2.4,0.3,2.5,0.5,2.9,2.9c0.4,2.2,0.3,4.8,0.3,7.1c0,0.3,0,0.7,0,1
		c-30.4-1.1-60.9-1.2-91.3-0.3c0.1-1.7,0.3-3.4,0.5-5.1C-123.4,149.2-122.8,147.9-119.5,147.6z M-32.7,202.6
		c-0.1,4.1,0,8.3-0.4,12.4c-0.2,3-1.5,2.8-4.2,3.3c-2.8,0.5-5.7,0.8-8.5,0.9c-10.5,0.2-21.1-0.2-31.7-0.2c-12.5,0-24.9-0.3-37.3-0.7
		c-3.9-0.1-9.9,0.4-10.2-4.6c-0.1-2.8-0.1-5.7-0.2-8.5c-0.2-6.1-0.4-12.2,0-18.2c0.6-8.9,0.3-18,0.8-26.9c30.5-0.9,61-0.8,91.5,0.3
		c0,4.2-0.2,8.5-0.2,12.7C-33.1,182.8-32.4,192.6-32.7,202.6z"/>
	<path class="st1" d="M-116.9,155.8c1.8-0.2,3.8-1.3,3.4-3.4c-0.3-1.9-1.6-3.2-3.5-3.3c-1.9,0-3.2,1.8-3.5,3.5
		C-120.9,154.7-118.8,156-116.9,155.8z M-118.2,152.8c0.2-0.6,0.6-1.4,1.2-1.4c0.6,0,1,0.3,1.2,0.9c0.3,0.9-0.2,1.1-1.1,1.3
		c-0.4,0.1-0.7,0.1-1.1-0.1C-118.4,153.3-118.4,153.2-118.2,152.8z"/>
	<path class="st1" d="M-107.5,155.7c2.1,0.2,3.6-1.4,3.8-3.3c0.2-2.1-1.4-3.5-3.4-3.6c-1.8-0.1-3.8,1.2-3.9,3.1
		C-111,153.9-109.4,155.5-107.5,155.7z M-108.7,151.9c0.2-0.7,1-0.9,1.6-0.9c0.7,0,1.2,0.4,1.1,1.1c-0.1,0.8-0.6,1.4-1.5,1.3
		C-108.1,153.3-108.8,152.7-108.7,151.9z"/>
	<path class="st1" d="M-97.3,155.5c1.8-0.1,3.4-1.7,3.5-3.6c0-1.9-1.8-3.5-3.7-3.5c-2,0.1-3.5,1.8-3.7,3.8
		C-101.4,154.4-99.3,155.7-97.3,155.5z M-97.5,150.7c1.6-0.1,1.9,2.2,0.2,2.5c-0.6,0.1-1.6-0.2-1.7-0.9
		C-99,151.6-98.3,150.8-97.5,150.7z"/>
	<path class="st1" d="M-91.4,170c-3.1-2.5-7.5-0.4-10.3,1.5c-5.2,3.6-9.6,8.2-14.5,12.2c-7.5,6.6,1.6,13.8,6.8,17.7
		c3.5,2.6,7.8,6.3,12.1,7.6c2.9,0.8,7.3-0.3,7.5-3.9c0.2-3.6-5.3-7.1-7.7-9.2c-1.5-1.3-3-2.5-4.6-3.6c-0.7-0.5-1.4-0.9-2.1-1.4
		c-1.5-1-2.1-0.8-1.2-2.3C-103,184.9-84.2,175.9-91.4,170z M-107.8,191.2c1.7,2.1,5.3,3.5,7.4,5.3c1.6,1.3,3.2,2.8,4.7,4.3
		c0.6,0.6,2.5,1.8,2.8,2.7c1.3,4.2-2.1,3.9-4.2,3.2c0.2-0.1,0.4-0.3,0.6-0.4c0.5-0.4,0.7-1,0.4-1.5c-0.3-0.5-1-0.8-1.5-0.4
		c-0.4,0.3-0.9,0.7-1.3,1c-0.2,0.1-0.3,0.3-0.4,0.4c-0.5-0.2-0.9-0.5-1.4-0.8c0.2-0.1,0.3-0.2,0.5-0.3c1.2-0.7,0.1-2.7-1.1-1.9
		c-0.5,0.3-0.9,0.6-1.4,1c-0.6-0.4-1.1-0.8-1.7-1.2c0.3-0.2,0.6-0.3,0.9-0.5c1.3-0.7,0.1-2.6-1.1-1.9c-0.6,0.3-1.2,0.6-1.8,0.9
		c-0.4-0.3-0.7-0.6-1.1-0.8c0.2-0.1,0.4-0.2,0.6-0.4c1.3-0.7,0.1-2.7-1.1-1.9c-0.5,0.3-0.9,0.6-1.3,0.9c-0.5-0.4-1.1-0.8-1.6-1.3
		c0.3-0.2,0.6-0.4,0.9-0.6c0.5-0.3,0.7-1,0.4-1.5c-0.3-0.6-1-0.7-1.5-0.4c-0.6,0.3-1.1,0.7-1.6,1.1c-0.4-0.4-0.8-0.7-1.2-1.1
		c0.4-0.2,0.7-0.5,1.1-0.7c1.2-0.8,0.1-2.7-1.1-1.9c-0.5,0.3-0.9,0.6-1.4,0.9c-0.5-0.7-0.9-1.5-1.2-2.3c0.4,0,0.7,0,1.1,0
		c1.4,0,1.5-2.3,0-2.3c-0.4,0-0.8,0-1.2,0c0.1-0.7,0.5-1.4,1-2.1c0.4,0.4,0.8,0.9,1.3,1.2c0.5,0.4,1.3,0.1,1.5-0.4
		c0.3-0.6,0.1-1.2-0.4-1.5c0.2,0.1-0.2-0.2-0.2-0.2c-0.1-0.1-0.3-0.3-0.4-0.4c-0.1-0.1-0.2-0.2-0.2-0.2c0.4-0.3,0.8-0.6,1.1-0.9
		c0.4,0.4,0.9,0.9,1.2,1.3c0.4,0.5,1.2,0.4,1.6,0c0.5-0.5,0.4-1.1,0-1.6c-0.3-0.4-0.7-0.8-1.1-1.2c0.5-0.5,1.1-1,1.6-1.5
		c0.4,0.4,0.9,0.8,1.3,1.2c1,1,2.6-0.6,1.6-1.6c-0.4-0.4-0.8-0.7-1.2-1.1c0.6-0.5,1.2-1.1,1.9-1.6c0.4,0.5,0.8,0.9,1.2,1.4
		c1,1.1,2.6-0.5,1.6-1.6c-0.4-0.4-0.8-0.7-1.1-1.1c0.3-0.2,0.6-0.4,0.9-0.6c0.4-0.3,0.8-0.6,1.2-0.9c0.2,0.3,0.4,0.6,0.6,0.9
		c0.4,0.5,1,0.7,1.5,0.4c0.5-0.3,0.8-1,0.4-1.5c-0.3-0.4-0.5-0.7-0.8-1.1c0.5-0.4,1-0.7,1.6-1c0,0,0.1,0.1,0.1,0.1
		c0.3,0.3,0.7,0.7,1,1c1,1,2.6-0.6,1.6-1.6c-0.2-0.2-0.4-0.4-0.6-0.6c1.4-0.5,2.6-0.5,3.5,1.2c1.2,2.2-0.1,2.7-1.5,4.2
		c-3.7,3.8-8.5,6.4-12.2,10.1C-108.5,188.3-109.1,189.5-107.8,191.2z"/>
	<path class="st1" d="M-48.5,176.7c-3.5-2.6-7.8-6.3-12.1-7.6c-2.9-0.8-7.3,0.3-7.5,3.9c-0.2,3.6,5.3,7.1,7.7,9.2
		c1.5,1.3,3,2.5,4.6,3.6c0.7,0.5,1.4,0.9,2.1,1.4c1.5,1,2.1,0.8,1.2,2.3c-2.4,3.8-21.2,12.8-14,18.6c3.1,2.5,7.5,0.4,10.3-1.5
		c5.2-3.6,9.6-8.2,14.5-12.2C-34.2,187.9-43.3,180.7-48.5,176.7z M-43.3,192.9c-3.8,3.1-7.1,6.6-11.1,9.5c-1.7,1.2-3.3,2.8-5.2,3.7
		c-2,1-3.8,1.8-5-0.5c-0.5-0.9-0.5-1.6-0.3-2.1c0.5,0.4,1.1,0.9,1.6,1.3c0.5,0.4,1.3,0.1,1.5-0.4c0.3-0.6,0.1-1.2-0.4-1.5
		c-0.5-0.3-0.9-0.7-1.3-1c0.1-0.1,0.3-0.3,0.4-0.4c0.3-0.3,0.7-0.7,1-1c0.5,0.5,0.9,1,1.4,1.4c0.5,0.4,1.1,0.5,1.6,0
		c0.4-0.4,0.5-1.2,0-1.6c-0.5-0.4-0.9-0.9-1.3-1.3c0.5-0.4,1.1-0.9,1.6-1.3c0.5,0.6,0.9,1.2,1.4,1.7c1,1,2.6-0.6,1.6-1.6
		c-0.5-0.5-0.9-1-1.3-1.5c0.5-0.3,0.9-0.7,1.4-1c0.4,0.4,0.8,0.8,1.2,1.3c0.4,0.5,1.2,0.4,1.6,0c0.5-0.5,0.4-1.1,0-1.6
		c-0.3-0.4-0.6-0.7-1-1.1c0.6-0.5,1.2-1,1.7-1.5c0.3,0.2,0.6,0.4,0.8,0.7c1,1.1,2.6-0.5,1.6-1.6c-0.2-0.2-0.5-0.5-0.7-0.7
		c0.4-0.5,0.7-0.9,0.8-1.4c0.5,0,0.9,0.1,1.4,0.1c0.6,0,1.1-0.5,1.1-1.1c0-0.6-0.5-1.1-1.1-1.1c-0.7,0-1.3-0.1-2-0.1c0,0,0,0,0,0
		c-0.3-0.4-0.6-0.7-1-1c0.4-0.2,0.7-0.3,1.1-0.5c0.5-0.3,0.7-1,0.4-1.5c-0.3-0.6-1-0.7-1.5-0.4c-0.7,0.3-1.4,0.6-2,1
		c-0.4-0.2-0.7-0.4-1.1-0.7c0.3-0.1,0.6-0.3,0.9-0.4c0.5-0.3,0.7-1,0.4-1.5c-0.3-0.6-1-0.7-1.5-0.4c-0.6,0.3-1.2,0.6-1.8,0.9
		c-0.1,0-0.1,0.1-0.1,0.1c-0.4-0.2-0.7-0.5-1-0.7c-0.1-0.1-0.3-0.2-0.4-0.3c0.4-0.2,0.9-0.5,1.3-0.7c0.6-0.3,0.7-1,0.4-1.5
		c-0.3-0.6-1-0.7-1.5-0.4c-0.7,0.3-1.3,0.7-1.9,1c-0.4-0.4-0.9-0.8-1.3-1.2c0.2-0.2,0.5-0.3,0.8-0.4c0.6-0.2,1-0.7,0.8-1.4
		c-0.1-0.5-0.8-1-1.4-0.8c-0.7,0.3-1.3,0.6-1.8,1c-0.3-0.3-0.7-0.5-1.1-0.9c0.3-0.2,0.6-0.5,0.9-0.6c1.3-0.7,0.1-2.6-1.1-1.9
		c-0.4,0.2-0.8,0.5-1.1,0.8c-1-4,2.7-3.5,4.7-2.7c4,1.5,7.9,4.8,11.3,7.4C-45.2,182.1-37.3,187.6-43.3,192.9z"/>
	<path class="st1" d="M-76.1,168.8c-3.3-0.1-4.3,2.8-5.2,5.6c-2,6.1-3.6,12.4-4.8,18.7c-0.6,3.3-4.8,17.5,2.8,16.6
		c3-0.3,4.8-3.5,5.8-6c2-5.3,3-11.1,4.2-16.6c0.6-2.7,1.1-5.4,1.6-8.1c0.4-1.8,1.3-4.2,1.1-6.1C-71,169.9-73.3,168.8-76.1,168.8z
		 M-76.1,189.7c-0.6,2.5-1.2,4.9-1.8,7.3c-0.8,3.1-1.5,9.3-5.3,9.2c-2.1-0.1-2.2-0.3-2.1-1.6c0.3,0,0.5,0.1,0.8,0.2
		c0.6,0.2,1.2-0.2,1.4-0.8c0.2-0.6-0.2-1.2-0.8-1.4c-0.4-0.1-0.8-0.2-1.3-0.3c0-0.4,0.1-0.8,0.2-1.2c0.5,0.1,1,0.2,1.5,0.2
		c1.4,0,1.4-2.2,0-2.3c-0.4,0-0.8-0.1-1.2-0.1c0-0.2,0.1-0.5,0.1-0.7c0-0.1,0-0.2,0.1-0.4c0.5,0.1,1,0.1,1.5,0.3
		c1.4,0.4,2-1.8,0.6-2.2c-0.6-0.1-1.1-0.2-1.7-0.3c0.1-0.7,0.2-1.3,0.3-2c0.6,0.1,1.3,0.2,1.9,0.5c0.6,0.2,1.2-0.2,1.4-0.8
		c0.2-0.6-0.2-1.2-0.8-1.4c-0.7-0.2-1.3-0.4-2-0.5c0.1-0.5,0.2-1,0.3-1.5c0.5,0.1,1,0.2,1.5,0.4c1.4,0.3,2-1.8,0.6-2.2
		c-0.6-0.1-1.1-0.3-1.7-0.4c0.1-0.5,0.2-1,0.3-1.6c0.4,0.1,0.7,0.2,1.1,0.3c1.4,0.4,2-1.8,0.6-2.2c-0.4-0.1-0.8-0.2-1.2-0.3
		c0.1-0.3,0.1-0.6,0.2-0.9c0.6,0.1,1.3,0.3,1.9,0.4c0.6,0.1,1.2-0.2,1.4-0.8c0.2-0.6-0.2-1.3-0.8-1.4c-0.7-0.1-1.3-0.3-2-0.4
		c0.1-0.4,0.2-0.9,0.3-1.3c0.4,0.1,0.9,0.2,1.3,0.3c1.4,0.4,2-1.8,0.6-2.2c-0.4-0.1-0.9-0.2-1.3-0.3c0.1-0.3,0.2-0.6,0.3-0.8
		c0.4,0.1,0.8,0.2,1.2,0.3c0.6,0.2,1.2-0.2,1.4-0.8c0.2-0.6-0.2-1.2-0.8-1.4c-0.3-0.1-0.7-0.2-1-0.3c0.1-0.3,0.3-0.6,0.4-0.9
		c0.3,0.2,0.7,0.3,1.1,0.3c0.6,0.1,1.2-0.1,1.4-0.8c0.1-0.5-0.2-1.3-0.8-1.4c-0.1,0-0.2-0.1-0.4-0.1c0.4-0.4,0.9-0.6,1.3-0.6
		C-70.7,171.2-75.5,187.1-76.1,189.7z"/>
</g>
<g>
	<path class="st1" d="M106.4,71.8c-1.7-2.3-4.3-4.1-6.6-5.8c-3.2-2.4-6-5.3-9.1-7.9c4-2.8,3-10.9,2.9-15.1
		c-0.1-8.8-0.4-17.6-0.7-26.4c-0.1-2.5,0-5.4-2.4-7.1C88,7.7,82.7,8.5,79.7,8.2c-8.6-0.7-17.3,0.3-25.9,0c-9.7,0.1-19.4,0.1-29,0.2
		c-2.6,0-5.1-0.3-6.8,2c-2.2,2.9-1.7,7.3-1.6,10.7c0.4,10.7-0.6,21.5,0.1,32.3c0.2,2.4,1.2,3.9,2.7,4.9c-4,2.8-8.1,5.5-12,8.6
		c-2.8,2.3-6.1,4.4-6.1,8.3c0,3.4,1.6,5.2,4.9,5.6c6.6,0.8,13.5,0.5,20.1,0.3c15.2-0.6,30.4-0.1,45.7-0.5c6.6-0.2,13.2,0,19.8,0.1
		c4,0,11.3,1.5,14.4-1.9C107.8,76.7,107.9,73.9,106.4,71.8z M19.2,45.1c-0.1-4.6-0.3-9.2-0.1-13.7c0.1-4.2,0.3-8.4,0.2-12.6
		c-0.1-2.7,0-6.3,3.2-7.3c1.7-0.6,4.5,0,6.4,0c8.3,0,16.7-0.1,25-0.1c5.4,0.2,10.8,0.3,16.1,0c4-0.2,18.4-1.6,19.9,3.3
		c0.5,1.7,0.1,4.2,0.1,6c0,4,0.1,8.1,0.3,12.1c0.1,3.2,0.3,6.4,0.4,9.6c0,2,0,4,0,6c-0.1,2.9,0.4,5.3-2.2,6.8
		c-2.9,1.7-8.1,0.8-11.5,0.7c-3.7,0-7.5-0.1-11.2-0.1c-7.3,0.1-14.6,0.5-21.9,0.6c-3.5,0-7-0.1-10.6,0c-3.2,0.1-8.7,1.4-11.7-0.2
		C18.2,54.4,19.3,48.1,19.2,45.1z M102.5,77.4c-2.3,1.1-7.7,0.2-10.2,0.2c-13-0.1-26.1-0.5-39.2-0.3c-13.6,0.2-27.2,1-40.8,0.7
		c-2.6-0.1-7.9,0.6-8.2-2.9c-0.2-2.2,2-3.6,3.5-4.9c4.5-3.9,9.7-7.1,14.6-10.6c0.1-0.1,0.2-0.2,0.3-0.3c2.4,0.4,5,0.2,7.4,0.1
		c9.5-0.5,19-0.3,28.5-0.6c4.7-0.2,9.4-0.3,14.1-0.2c4.7,0.1,9.9,0.7,14.6,0.4c0,0,0,0.1,0.1,0.1c4.9,3.9,9.9,8.1,14.5,12.2
		C103.6,73,106.6,75.5,102.5,77.4z"/>
	<path class="st1" d="M25.5,52.4c9.8-0.2,19.6-0.1,29.3-0.6c9.8-0.4,19.9-0.9,29.8-0.3c0.6,0,1.1-0.5,1.1-1.1
		c-0.3-11.1-0.3-22.2-0.8-33.3c0-0.6-0.5-1.1-1.1-1.1c-19.6,0.2-39.2-0.2-58.8,0c-0.3,0-0.5,0.1-0.6,0.2c-0.3,0.2-0.5,0.5-0.5,0.9
		c0.2,11.4,0.3,22.8,0.5,34.2C24.4,51.9,24.9,52.5,25.5,52.4z M82.8,18.2c0.4,10.4,0.5,20.7,0.7,31c-9.4-0.5-19.2,0-28.6,0.4
		C45.5,50,36,50,26.6,50.2c-0.2-10.7-0.3-21.3-0.5-32C45,18,63.9,18.5,82.8,18.2z"/>
	<path class="st1" d="M65.1,67.3c-0.2-0.5-0.5-0.8-1.1-0.8c-6.2-0.4-12.3,0.2-18.5,0.2c-0.5,0-0.9,0.4-1.1,0.8
		c-0.8,2-1.4,3.8-1.8,5.9c0,0.2,0,0.5,0.1,0.7c0.1,0.4,0.5,0.8,1,0.8c7.4,0,15.3,0.6,22.7-0.6c0.6-0.1,1-0.9,0.8-1.4
		C66.4,71,65.8,69.1,65.1,67.3z M45.1,72.6c0.3-0.9,0.6-1.9,0.7-2.8c0.1-0.3,0.2-0.6,0.4-0.9c0,0,0.1,0,0.1,0
		c2.9-0.2,5.9-0.2,8.9-0.3c2.6-0.1,5.4-0.3,8,0.1c0,0,0,0,0,0c0.1,0.3,0.3,0.7,0.4,1c0.1,0.8,0.5,1.7,0.8,2.5
		C58.1,73,51.5,72.6,45.1,72.6z"/>
	<path class="st1" d="M53.9,14.7c1.4,0,1.5-2.3,0-2.3C52.5,12.4,52.5,14.7,53.9,14.7z"/>
	<path class="st1" d="M28,22.1c0.9,1.4,1.8,2.7,2.7,3.9c0.4,0.5,1,0.7,1.5,0.4c0.5-0.3,0.8-1.1,0.4-1.5c-1-1.3-1.9-2.6-2.7-3.9
		C29.1,19.7,27.2,20.9,28,22.1z"/>
	<path class="st1" d="M35.2,25.8c1,1.1,2.6-0.5,1.6-1.6c-1.2-1.2-2.3-2.5-3.5-3.7c-1-1.1-2.6,0.5-1.6,1.6
		C32.8,23.3,34,24.5,35.2,25.8z"/>
</g>
<g>
	<path class="st0" d="M103.4,170.4c-0.7-0.3-1.6-0.5-2.5-0.5c0.4-4.8,0.9-9.6,1.7-14.4c0,0,0,0,0,0c1.1-0.2,2.1-0.4,2.7-1
		c3-2.4,2.5-11.9-2.1-12.3c-5.7-0.2-11.4-0.2-17-0.2c-3.1,0-8.3-1-11.1,0.5c-2.6,1.4-2.4,5.2-2.4,7.7c0.1,2.9,0.6,4.5,3.6,4.8
		c0.3,4.7,0.7,9.4,1.3,14.2c0,0.1,0,0.1,0,0.2c-2.2-0.1-4.4-0.1-6.6-0.1c-2.6,0-9.2-1.2-11.3,0.6c-1.4,1.2-1.5,5.3,0,6.5
		c0.5,0.4,1.4,0.6,2.3,0.7c0,0.1,0,0.2,0,0.3c-1.5,0-2.9,0-4.4,0c-0.9-0.9-2.5-1.1-3.8-1.2c-1.7,0-2.8,0.4-3.3,1.3
		c-1.3,0-2.7-0.1-4-0.2c0-0.1,0-0.1,0-0.2c0.9-0.1,1.6-0.2,2.2-0.6c1.6-1.2,1.7-5.3,0.2-6.5c-2.2-1.8-8.6-0.6-11.3-0.6
		c-2.2,0-4.4,0-6.6,0.1c0-0.1,0-0.1,0-0.2c0.4-4.7,1-9.4,1.3-14.2c3-0.3,3.5-1.9,3.6-4.8c0.1-2.3,0.2-6.2-2-7.6
		c-2.7-1.7-8.3-0.6-11.4-0.7c-5.7-0.1-11.4,0-17,0.2c-4.6,0.4-5,9.7-2.2,12.2c0.6,0.6,1.6,0.9,2.8,1c0,0,0,0,0,0
		c0.9,4.8,1.3,9.6,1.7,14.4c-0.9,0.1-1.8,0.2-2.5,0.5c-2.2,1.1-2.7,4.7-0.7,6.3c0.6,0.5,1.8,0.8,3,1c1.1,6.5,1.6,13.1,2.8,19.5
		c-0.6,0.1-1.2,0.3-1.5,0.6c-1.5,1.3-1.5,5.2,0,6.5c1.9,1.7,8.9,0.6,11.1,0.6c2.2,0,4.5-0.1,6.7-0.3c0.3,2.9,0.2,5.8,0.2,8.7
		c-0.1,0-0.2,0-0.3,0.1c-3.3,1.1-3.3,8.1-0.6,9.9c1.8,1.3,5.8,0.5,7.9,0.5c4.3,0.1,8.7,0,13-0.1c3.6-0.4,4.2-7.5,1.9-9.6
		c-0.5-0.5-1.2-0.7-2-0.9c-0.1-3.1-0.1-6.2-0.1-9.3c2.1-0.9,3.2-3.6,1.6-5.7c-0.4-0.5-0.9-0.9-1.6-1.1c0-0.1,0-0.2,0-0.3
		c0.5,0,0.9-0.1,1.4-0.1c0.8,0,1.5,0,2.3,0.1c0.3,1.3,0.8,1.5,2.2,1.6c1.3,0.2,4.6,0.4,5.6-0.8c0.2-0.2,0.3-0.5,0.3-0.8
		c1.1,0,2.3,0.1,3.5,0c0,0.1,0,0.1,0,0.2c-0.7,0.3-1.2,0.6-1.6,1.1c-1.6,2.2-0.5,4.8,1.6,5.7c-0.2,3.1,0,6.2,0,9.3
		c-0.8,0.2-1.4,0.4-1.9,0.8c-2.5,2-1.8,9.3,1.8,9.7c4.2,0.1,8.4,0.2,12.5,0.1c2.3,0,6,0.7,8.1-0.4c3-1.6,3-8.9-0.3-10
		c-0.1,0-0.2,0-0.3-0.1c0-2.9-0.1-5.8,0.2-8.7c2.2,0.1,4.5,0.3,6.7,0.3c2.2,0,9.2,1.1,11.1-0.6c1.4-1.3,1.6-5.2,0-6.5
		c-0.4-0.3-0.9-0.5-1.5-0.6c1.3-6.5,1.9-13,2.8-19.6c1.3-0.2,2.4-0.4,3-1C106,175.1,105.6,171.5,103.4,170.4z M75,151.3
		c-0.3-0.7,0-2.1,0-2.8c0.1-1,0.2-1.8,0.5-2.5c0.6,1.1,1.1,2.3,1.7,3.4c0.6,1.3,2.6,0.2,1.9-1.1c-0.6-1.2-1.2-2.5-1.8-3.7
		c0.2-0.1,0.5-0.1,0.8-0.2c0.8,1.2,1.6,2.4,2.4,3.6c0.8,1.2,2.7,0.1,1.9-1.1c-0.6-0.9-1.2-1.8-1.8-2.7c0.4,0,0.8,0,1.2,0
		c0,0,0,0,0,0c0.7,1,1.3,2,1.8,3.1c0.3,0.5,1,0.7,1.5,0.4c0.6-0.3,0.7-1,0.4-1.5c-0.3-0.6-0.7-1.3-1-1.9c0.5,0,0.9,0,1.4,0
		c0,0.1,0.1,0.2,0.2,0.3c0.8,0.9,1.5,1.9,2.2,2.9c0.8,1.2,2.7,0.1,1.9-1.1c-0.5-0.7-1-1.4-1.5-2.1c0.6,0,1.1,0,1.7,0
		c0,0.1,0.1,0.1,0.1,0.2c0.8,0.9,1.4,1.9,2,2.9c0.7,1.3,2.6,0.1,1.9-1.1c-0.4-0.7-0.8-1.4-1.2-2c0.5,0,0.9,0,1.4,0
		c0.6,1,1.3,2,2,2.9c0.4,0.5,1,0.7,1.5,0.4c0.5-0.3,0.8-1.1,0.4-1.5c-0.4-0.6-0.8-1.1-1.3-1.7c0.4,0,0.9,0,1.3,0c0,0,0,0,0,0.1
		c0.8,1.3,1.6,2.6,2.6,3.8c0.4,0.5,1.2,0.4,1.6,0c0.5-0.5,0.4-1.1,0-1.6c-0.5-0.7-1-1.4-1.5-2.2c0.6,0,1.2,0,1.7,0
		c1.3,0.1,1.4,4.1,1.2,5.1c-0.3,1.7-0.8,2.8-2.7,3.3c-2.6,0.7-6.2,0.1-8.8,0.1c-3.1,0-6.1,0-9.2,0C81.4,152.9,76.2,153.8,75,151.3z
		 M80.5,169.2c-0.5-4.6-1-9.3-1.2-13.9c4.5,0.2,9.1-0.1,13.5-0.1c1.6,0,4.2,0.3,6.7,0.4c-0.8,4.7-1.3,9.5-1.7,14.3c-0.4,0-0.7,0-1,0
		c-3.2-0.1-6.4,0.1-9.7,0c-2.2-0.1-4.4-0.2-6.6-0.3C80.6,169.4,80.6,169.3,80.5,169.2z M58.5,188.1c0-1.5-0.1-3-0.2-4.5
		c1.2,0,2.4,0,3.6,0.1c0,2,0,4.1,0,6.1c-0.4,0-0.9,0-1.4,0.1c-0.7,0-1.3,0-2,0C58.6,189.3,58.5,188.7,58.5,188.1z M62,179.6
		c0,0.6,0,1.3,0,1.9c-1.2-0.1-2.4-0.1-3.6-0.1c0-0.5,0.1-1.2,0.1-1.8C59.6,179.6,60.8,179.6,62,179.6z M46.6,189.8
		c0-2.2,0-4.4,0-6.6c1.1-0.1,2.2,0,3.3,0.1c0,0.7,0.1,1.4,0.1,2c0,1.4-0.1,3-0.1,4.6C48.8,190,47.7,189.9,46.6,189.8z M49.8,179.6
		c0,0.5-0.1,0.9,0,1.4c-1.1-0.1-2.2-0.2-3.3-0.1c0-0.5,0-1,0-1.5C47.6,179.5,48.7,179.6,49.8,179.6z M21.4,169.8
		c-3.2,0.1-6.4,0-9.7,0c-0.3,0-0.6,0-1,0c-0.4-4.8-0.9-9.6-1.7-14.3c2.5,0,5.2-0.4,6.7-0.4c4.4,0,9.1,0.3,13.5,0.1
		c-0.3,4.7-0.8,9.3-1.2,13.9c0,0.1,0,0.2,0,0.3C25.8,169.6,23.6,169.8,21.4,169.8z M4.1,149.5c-0.1-0.4-0.1-1.4,0-2.3
		c0.3,0.4,0.5,0.8,0.8,1.1c0.3,0.5,1,0.7,1.5,0.4c0.5-0.3,0.8-1,0.4-1.5c-0.6-0.9-1.2-1.8-1.9-2.6c0.1-0.1,0.2-0.2,0.4-0.2
		c0.3,0,0.7,0,1,0c0.9,1.3,1.8,2.5,2.8,3.7c0.9,1.1,2.5-0.5,1.6-1.6c-0.6-0.7-1.1-1.4-1.7-2.2c0.4,0,0.9,0,1.3,0
		c0.8,1.2,1.6,2.3,2.6,3.4c1,1.1,2.5-0.5,1.6-1.6c-0.5-0.6-1-1.2-1.5-1.9c0.6,0,1.1,0,1.7,0c0.7,1.2,1.5,2.4,2.4,3.5
		c0.4,0.5,1,0.7,1.5,0.4c0.5-0.3,0.8-1.1,0.4-1.5c-0.6-0.8-1.1-1.5-1.6-2.3c0.6,0,1.1,0,1.7,0c0.5,0.9,1.1,1.8,1.6,2.7
		c0.8,1.2,2.7,0.1,1.9-1.1c-0.3-0.5-0.6-1-0.9-1.6c0.2,0,0.4,0,0.6,0c0.3,0,0.7,0,1,0c0.7,1.1,1.4,2.2,2.2,3.2
		c0.4,0.5,1,0.7,1.5,0.4c0.5-0.3,0.8-1.1,0.4-1.5c-0.5-0.7-1-1.4-1.5-2.1c0.5,0,1.1,0,1.6,0c0.1,0.1,0.1,0.3,0.2,0.4
		c0.8,1.1,1.7,2.1,2.5,3.2c0.4,0.5,1.2,0.4,1.6,0c0.5-0.5,0.4-1.1,0-1.6c-0.4-0.6-0.9-1.1-1.3-1.7c1.9,0.4,2.7,1.2,2.8,3.3
		c0.1,0.7,0.3,2.8,0,3.4c-1.1,2.4-5.7,1.6-7.8,1.6c-3.3,0-6.7,0.1-10,0c-2.5,0-5.6,0.4-8.1-0.1C5.4,152.3,4.6,151.8,4.1,149.5z
		 M6.5,173c1-1.1,0.9-0.6,1.9-0.8c3.9-0.9,8.9,0,13-0.1c6.7-0.2,13.4-0.4,20.2-0.5c1.2,0,2.7-0.3,3.9,0c2.3,0.5,2.8,2.4,0.2,3
		c-3.7,0.9-8.6,0.7-12.4,0.7c-6.6-0.1-13.2,0.4-19.8,0.1c-1.7-0.1-3.6,0-5.2-0.3C6.7,174.7,5.3,174.5,6.5,173z M16.1,177.7
		c5.5,0.1,10.9-0.2,16.4-0.2c3.3,0.1,6.5-0.2,9.7-0.4c0.4,0,0.8,0,1.2,0c0,6.5,0.1,13,0.1,19.6c-2.1-0.1-4.4,0.1-5.8,0.1
		c-4.9-0.2-9.8,0.2-14.6,0.1c-3,0-5.8-0.1-8.8,0.2c-0.3,0-0.7,0-1.1,0c0-0.2,0-0.4,0-0.6c-1.1-6.2-1.6-12.5-2.6-18.7
		C12.7,177.8,14.9,177.6,16.1,177.7z M15.5,202.6c-1.4,0-7.2,0.7-5.5-2.2c1.4-2.3,10-1.4,12.1-1.3c6,0.1,11.9-0.4,17.9,0
		c1.5,0.1,4.4-0.2,5.4,0.9c1.7,1.8-1.3,2.2-3,2.2c-4,0.1-8,0-11.9,0C25.6,202.3,20.6,202.6,15.5,202.6z M30.6,204.5
		c4.1-0.1,8.7,0.6,12.9,0.1c-0.1,2.8,0,5.7,0.1,8.5c-1.8,0.1-3.6,0.3-4.7,0.3c-2.3,0-4.7,0-7,0c-0.6,0-1.4-0.1-2.2-0.1
		c0-2.9,0.1-5.8-0.2-8.7c0,0,0-0.1,0-0.1C29.9,204.5,30.3,204.5,30.6,204.5z M46.7,221.5c-4,0.1-8,0.1-12,0.1
		c-3.2,0-9.3,0.9-8.3-4.1c0,0,0,0,0-0.1c0.2,0.3,0.4,0.6,0.6,1c0.7,1.2,2.7,0.1,1.9-1.1c-0.3-0.5-0.6-1-0.9-1.4
		c0.4-0.1,0.8-0.2,1.3-0.3c0,0,0,0.1,0.1,0.1c0.4,0.5,0.8,1,1.1,1.6c0.7,1.3,2.7,0.1,1.9-1.1c-0.1-0.3-0.3-0.5-0.5-0.7
		c0.6,0,1.2,0,1.8,0.1c0,0.1,0.1,0.1,0.1,0.2c0.4,0.6,0.7,1.2,1.1,1.7c0.3,0.5,1,0.7,1.5,0.4c0.5-0.3,0.8-1,0.4-1.5
		c-0.1-0.2-0.3-0.4-0.4-0.6c0.3,0,0.6,0,0.8,0c0.6,0,1.1,0,1.7,0c0,0,0,0,0,0c0.3,0.6,0.6,1.1,0.9,1.7c0.7,1.3,2.7,0.1,1.9-1.1
		c-0.1-0.2-0.2-0.4-0.4-0.6c0.4,0,0.9,0,1.3,0c0,0,0,0,0,0.1c0.4,0.6,0.7,1.2,1,1.9c0.3,0.6,1.1,0.7,1.5,0.4c0.6-0.3,0.7-1,0.4-1.5
		c-0.1-0.1-0.1-0.2-0.2-0.3c0.8,0.3,1.3,0.7,1.6,2.3C47.5,218.8,47.6,221.4,46.7,221.5z M46.6,194.7c0-0.9,0-1.7,0-2.6
		c1.1,0.1,2.1,0.2,3.2,0.2c0,0.8,0.1,1.6,0.1,2.4c-0.6-0.1-1.3-0.1-1.9-0.1C47.5,194.6,47.1,194.6,46.6,194.7z M56.3,194.6
		c-0.4,1.8-2.3,2.6-3.5,1.2c-1.4-1.6-0.6-7.1-0.6-9.2c0-2-1-8.3,1.7-8.2c2.8,0.1,2.2,2.8,2.2,4.9c0.1,1.6,0.1,3.2,0.2,4.8
		C56.3,190.1,56.8,192.7,56.3,194.6z M58.6,194.7c0-0.9,0-1.7,0-2.6c0.5,0,1,0,1.6,0c0.6,0,1.2-0.1,1.7-0.1c0,0.9,0,1.8,0,2.6
		C60.9,194.9,59.7,194.8,58.6,194.7z M82.1,217.5c1.1,4.9-4.6,4.1-7.8,4.1c-4.2,0-8.4,0-12.5-0.1c-0.8-0.1-0.7-2.4-0.7-2.8
		c0.1-0.6,0.2-1.1,0.4-1.5c0.2,0.3,0.3,0.5,0.5,0.8c0.3,0.5,1,0.7,1.5,0.4c0.5-0.3,0.7-1,0.4-1.5c-0.2-0.4-0.5-0.7-0.7-1.1
		c0.1,0,0.1,0,0.1-0.1c0.4-0.1,0.8-0.2,1.3-0.2c0.6,1,1.2,1.9,1.8,2.8c0.4,0.5,1,0.7,1.5,0.4c0.5-0.3,0.8-1,0.4-1.5
		c-0.4-0.5-0.8-1.1-1.1-1.6c0.5,0,1,0.1,1.5,0.1c0.5,0.7,1,1.4,1.4,2c0.4,0.5,1,0.7,1.5,0.4c0.5-0.3,0.8-1,0.4-1.5
		c-0.2-0.3-0.4-0.6-0.6-0.9c0.4,0,0.9-0.1,1.5-0.1c0,0,0,0,0,0c0.4,0.6,0.8,1.3,1.2,2c0.7,1.2,2.7,0.1,1.9-1.1
		c-0.2-0.3-0.4-0.7-0.6-1c0.5,0,0.9,0,1.4,0c0.4,0.9,0.8,1.8,1.3,2.6c0.7,1.2,2.7,0.1,1.9-1.1c-0.2-0.4-0.4-0.8-0.6-1.2
		C81,215.9,81.9,216.5,82.1,217.5z M79,204.6c-0.3,2.8-0.1,5.6-0.2,8.4c-2.8-0.1-6.1,0.3-8.4,0.4c-1.3,0-3.5-0.3-5.5-0.3
		c0-2.8-0.1-5.6,0-8.4c4.2,0.5,8.9-0.2,13-0.1c0.4,0,0.7,0,1.1,0C79,204.5,79,204.6,79,204.6z M93.3,202.6c-5.1,0-10.2-0.2-15.3-0.4
		c-3.7-0.1-7.4,0.1-11.1,0c-0.9,0-4.9,0.1-4.7-1.7c0.2-1.5,4.7-1.4,5.8-1.4c6.1-0.4,12.3,0.1,18.4,0c2.8-0.1,9-1,11.3,0.9
		C101.2,202.8,95.1,202.6,93.3,202.6z M95.3,196.5c0,0.2,0,0.4,0,0.6c-0.4,0-0.8,0-1.1,0c-3-0.3-5.8-0.2-8.8-0.2
		c-4.9,0.1-9.8-0.3-14.6-0.1c-1.4,0.1-3.7-0.2-5.8-0.1c0-6.5-0.1-13.1,0.1-19.6c0.5,0,0.9,0,1.2,0c3.2,0.2,6.5,0.5,9.7,0.4
		c5.3-0.1,10.6,0.2,15.9,0.2c1.4,0,3.7,0.2,6.1,0.1C97.2,184,96.6,190.3,95.3,196.5z M101.1,175c-1.5,0.5-3.9,0.3-5.5,0.4
		c-6.8,0.3-13.5-0.2-20.3,0c-3.8,0.1-8,0-11.8-0.6c-2.3-0.4-3.6-2-0.9-3.1c1.1-0.4,2.9,0,4,0c6.8,0.1,13.6,0.3,20.5,0.5
		c4,0.1,8.8-0.7,12.7,0.1C101.6,172.6,104.4,173.9,101.1,175z"/>
	<path class="st0" d="M18.7,189.7c0.9,1.1,2.5-0.5,1.6-1.6c-1.3-1.7-2.8-3.3-4.3-4.8c-1-1-2.6,0.6-1.6,1.6
		C15.9,186.4,17.4,188,18.7,189.7z"/>
	<path class="st0" d="M23.5,189.5c0.9,1.1,2.8,0,1.9-1.1c-1.4-1.9-2.8-3.8-4.2-5.6c-0.9-1.1-2.8,0-1.9,1.1
		C20.7,185.7,22.1,187.6,23.5,189.5z"/>
</g>
<g>
	<path class="st1" d="M92.7,281.7c-5.1-4.7-9.9-6.1-16.4-3.4c-5.8,2.4-10.3,7.6-14.8,11.7c-6.8,6.2-13.4,12.7-19.9,19.3
		c-6.2,6.4-12.4,12.9-18.4,19.5c-2.7,2.9-5.7,5.9-8,9.1c-0.1,0.1-0.2,0.2-0.2,0.3c-0.1,0.1-0.2,0.3-0.2,0.4
		c-1.6,3.2-2.3,7.2-3.1,10.6c-1.3,5.5-2.3,11.1-2.8,16.7c-0.1,1.1,1,1.6,1.9,1.4c8.8-1.4,17.4-3.3,26.2-4.9c3.6-0.6,5.1-3.1,7.6-5.7
		c4.2-4.3,8.3-8.7,12.5-13c7.7-8.1,15.4-16.1,23.3-24c6.5-6.5,15.6-13.6,18.7-22.6C101.3,290.6,97.4,286,92.7,281.7z M83.5,312.8
		c-3.6-3-6.3-6.4-9.5-9.8c-3.4-3.6-7-7-10.7-10.3c0.7-0.6,1.3-1.2,2-1.8c6.8,6.7,13.4,13.4,20,20.2
		C84.7,311.7,84.1,312.2,83.5,312.8z M75.4,320.6c-6.3-7.2-13.8-13.3-21-19.6c0.6-0.6,1.2-1.1,1.8-1.7c7.6,5.6,14.1,13,20.8,19.7
		c-0.3,0.3-0.5,0.5-0.8,0.8C76,320,75.7,320.3,75.4,320.6z M36.7,349.4C36.7,349.4,36.7,349.4,36.7,349.4c-2.9,0.2-5.7,0.2-8.6,0.3
		c-0.1-2.2-0.1-5.6-0.9-7.7c5.1-5,9.6-10.6,14.5-15.8c5.5-5.9,11.4-11.6,17.1-17.3c3,2.6,5.9,5.2,8.7,8
		C57.6,327.9,47.4,338.9,36.7,349.4z M61.6,294.2c0.5,0.5,1.1,1,1.6,1.5c-1.1,1.2-2.2,2.4-3.4,3.5c-0.6-0.5-1.3-1-1.9-1.5
		C59.1,296.5,60.3,295.4,61.6,294.2z M68.9,307.5c1.2-0.9,2.3-1.9,3.3-3c0,0,0.1,0.1,0.1,0.1c0.6,0.7,1.2,1.3,1.8,2
		c-0.9,1.1-2,2.1-3.1,3.1C70.3,308.9,69.6,308.2,68.9,307.5z M67.3,305.9c-0.6-0.6-1.2-1.2-1.9-1.8c1-1.1,2.1-2.2,3.2-3.3
		c0.7,0.7,1.4,1.4,2,2C69.6,303.9,68.5,305,67.3,305.9z M63.8,302.6c-0.7-0.7-1.5-1.3-2.2-2c1.2-1.1,2.3-2.2,3.3-3.4
		c0.7,0.7,1.5,1.4,2.2,2C65.9,300.3,64.8,301.4,63.8,302.6z M72.6,311.2c1.1-0.9,2.1-1.9,3-3c0.7,0.7,1.3,1.5,2,2.2
		c-1,1-2,2-2.9,3.1C74.1,312.7,73.3,312,72.6,311.2z M35.3,320.3c5.5-5.8,11.2-11.6,17-17.2c1.6,1.4,3.3,2.8,4.9,4.3
		c-5.7,5.7-11.5,11.3-17,17.2c-4.9,5.3-9.4,10.8-14.5,15.8c-0.9-0.3-2-0.3-2.6-0.4c-1.6-0.3-3.3-0.5-5-0.8
		C22.9,332.4,29.6,326.3,35.3,320.3z M23.9,362.3c-2.4-3-6.1-6.8-9.8-9.8c0.2-0.8,0.3-1.6,0.5-2.4c0.6-2.8,1.2-6.1,2.3-8.8
		c2.4,0.2,6.1,0.3,8.2,1.3c-0.8-0.3,0,1.5,0.1,2.7c0.2,1.8,0.4,3.7,0.7,5.5c0.1,0.6,0.5,1.2,1.1,1.1c2.1-0.1,4.3,0.1,6.4-0.1
		c2.3-0.2,2.2-0.7,2.5,1.6c0.2,2.1,0.4,4.1,0.5,6.2c-0.3,0.1-0.5,0.2-0.8,0.2C31.8,360.8,27.9,361.6,23.9,362.3z M56.2,340.5
		c-3.6,3.7-7.1,7.4-10.7,11.2c-2.2,2.3-4.2,5.1-6.8,6.8c-0.2-2.4-0.4-4.8-0.7-7.1c10.8-10.6,21.1-21.7,31.3-32.9
		c1.4,1.4,2.8,2.9,4.1,4.4C67.6,328.6,61.9,334.6,56.2,340.5z M78.6,317.4c-0.8-0.8-1.5-1.5-2.3-2.3c0.9-1.1,1.9-2.1,2.9-3.1
		c0.8,0.8,1.7,1.6,2.6,2.3C80.7,315.4,79.7,316.4,78.6,317.4z M95.3,298.3c-1.9,3.8-4.8,7.3-8,10.6c-6.6-6.8-13.2-13.5-19.9-20.1
		c0.1-0.1,0.3-0.3,0.4-0.4c4.5-4.1,10.2-10.2,17-8.3c3.2,0.9,5.7,3.6,7.9,6C96.3,289.9,97.9,293.2,95.3,298.3z"/>
	<path class="st1" d="M76.9,286.1c-0.3-1.4-2.4-0.8-2.2,0.6c0.4,2,0.9,4,1.6,6c0.5,1.4,2.6,0.8,2.2-0.6
		C77.8,290.1,77.2,288.1,76.9,286.1z"/>
	<path class="st1" d="M80.7,285.3c-0.5-1.4-2.6-0.8-2.2,0.6c0.6,1.7,1.1,3.4,1.7,5.1c0.5,1.4,2.6,0.8,2.2-0.6
		C81.8,288.7,81.2,287,80.7,285.3z"/>
</g>
<g>
	<path class="st0" d="M-347.3,446.8c-8.1,0.8-14,7.8-13.7,15.7c0.2,7.9,7.9,14.8,15.8,14.7c0.1,0,0.2,0,0.4,0
		c8.2-0.8,14-6.2,13.4-14.8C-332.1,454.4-338.2,445.9-347.3,446.8z M-336.3,469.6c-2.8-6.7-5.9-13.2-9.2-19.6
		c0.8,0.1,1.7,0.2,2.4,0.5c2.9,5.1,4.9,10.7,8.1,15.7c0,0.1,0.1,0.1,0.1,0.2C-335.2,467.5-335.7,468.6-336.3,469.6z M-334.8,460.5
		c0.1,0.7,0.2,1.3,0.2,2c-1.8-3.3-3.3-6.7-5-10C-337.1,454.5-335.4,457.4-334.8,460.5z M-348.1,450
		C-348.1,450.1-348.1,450.1-348.1,450c3.7,6.9,7,14,10,21.2c0,0.1,0.1,0.1,0.1,0.1c-0.6,0.5-1.2,0.9-1.9,1.3
		c-3.6-7.3-7.2-14.7-10.8-22c0.7-0.3,1.4-0.5,2.1-0.6C-348.4,450.1-348.2,450.1-348.1,450z M-349,473.6c-2.7-5.5-5.4-10.9-8.1-16.4
		c0.3-0.7,0.7-1.4,1.2-2.1c2.9,6.5,6.1,12.9,9.5,19.1C-347.3,474.1-348.2,473.9-349,473.6z M-343.9,474.1
		c-3.8-6.8-7.3-13.8-10.5-20.9c0.5-0.5,1.1-1,1.8-1.4c3.6,7.3,7.2,14.6,10.7,21.8C-342.5,473.8-343.2,474-343.9,474.1z M-358,463.4
		c-0.2-1-0.2-2,0-2.9c1.9,3.8,3.7,7.6,5.6,11.4C-355.3,469.8-357.4,466.7-358,463.4z"/>
	<path class="st0" d="M-321.1,432.2c-11.4-10.3-31.2-11.4-44.3-4.2c-13,7.1-22.8,24.3-19.7,39.2c0.9,4.5,2.2,9.1,4.1,13.2
		c2,4.3,5.5,7.6,8.9,10.8c7.1,6.5,15.9,10,25.5,10.2c16.2-0.6,31.5-9.4,37.7-24.9C-302.8,461.3-309.1,443-321.1,432.2z M-320,437.8
		c4,5,7.5,10.8,9.3,17c-3.5-6.2-7.1-12.3-10.6-18.5C-320.9,436.8-320.4,437.3-320,437.8z M-310.7,472.7c-2.9-5.1-5.5-10.3-8.5-15.3
		c-1.2-5.1-3.7-9.8-7.3-13.5c-2.7-5.2-5.5-10.4-8.4-15.5c0.8,0.2,1.6,0.5,2.4,0.8c8.5,13,15,27.2,22.5,40.8
		C-310.2,470.8-310.4,471.8-310.7,472.7z M-312.5,477.5c-2-3.6-4.3-7-6.2-10.7c0.1-0.6,0.1-1.1,0.2-1.7c0-0.7,0.1-1.4,0.1-2.1
		c2.3,4.1,4.4,8.3,6.9,12.4C-311.9,476.2-312.2,476.8-312.5,477.5z M-314.9,481.6c-1.7-3-3.5-5.9-5.5-8.7c0.3-0.8,0.6-1.7,0.9-2.6
		c1.9,3.2,3.8,6.4,5.6,9.6C-314.1,480.4-314.5,481-314.9,481.6z M-347.1,486.3c-6.2-0.5-12.2-2.4-16.9-6.7
		c-4.9-4.5-6.7-12.2-6.5-18.6c0.5-14,14.7-25,28.4-22.5c11.9,2.2,20.9,13.8,20.5,25.8C-322,477.9-334.4,486.4-347.1,486.3z
		 M-324.6,491.2c-1.5-2.5-3-5-4.6-7.4c0.6-0.5,1.3-0.9,1.9-1.5c1.7,2.4,3.3,4.9,4.7,7.4C-323.2,490.3-323.9,490.7-324.6,491.2z
		 M-328.8,493.7c-1.5-2.5-3.1-4.9-4.6-7.4c0.8-0.4,1.6-0.8,2.3-1.3c1.5,2.5,3.1,4.9,4.6,7.4C-327.2,492.9-328,493.3-328.8,493.7z
		 M-333.3,495.7c-1.5-2.6-3.1-5.2-4.7-7.7c0.9-0.3,1.7-0.5,2.6-0.9c1.5,2.5,3.1,5,4.6,7.5C-331.6,495.1-332.4,495.4-333.3,495.7z
		 M-337.4,497.1c-1.7-2.7-3.4-5.4-5.1-8.1c0.7-0.1,1.5-0.2,2.2-0.4c1.7,2.6,3.3,5.2,4.9,7.9C-336.1,496.7-336.8,496.9-337.4,497.1z
		 M-342.1,498c-2-2.8-3.8-5.8-5.5-8.8c0.2,0,0.3,0,0.5,0c0.7,0,1.4,0,2.1,0c1.8,2.8,3.5,5.6,5.3,8.4
		C-340.5,497.8-341.3,497.9-342.1,498z M-346.6,498.4c-0.2,0-0.3,0-0.5,0c-2.1-3.3-4.1-6.6-6-10c0.9,0.2,1.8,0.4,2.6,0.5
		c1.8,3.2,3.7,6.4,5.8,9.4C-345.3,498.4-345.9,498.4-346.6,498.4z M-360.2,495.3c-7.3-13.5-14.5-26.9-21.8-40.4
		c0.2-0.7,0.4-1.4,0.6-2.1c2.8,5.2,5.7,10.3,8.5,15.5c0.9,5,3.1,10,6.8,13.3c0.5,0.4,0.9,0.8,1.4,1.2c2.8,4.7,5.7,9.4,8.5,14
		C-357.5,496.5-358.9,495.9-360.2,495.3z M-365.9,492.1c-6.1-10.1-11.7-20.2-16.9-30.8c0-0.3,0-0.6,0-1c0-0.6,0.1-1.2,0.2-1.8
		c6.3,11.6,12.6,23.3,18.8,34.9C-364.5,493-365.2,492.6-365.9,492.1z M-379.5,447.9c0.7,1.3,1.6,2.6,2.4,3.9
		c1.4,2.4,2.7,4.8,3.9,7.3c-0.1,0.6-0.1,1.2-0.1,1.8c0,0.6,0,1.1,0,1.7c-2.3-4.2-4.6-8.4-7-12.7
		C-380.1,449.3-379.8,448.6-379.5,447.9z M-376.6,442.6c1.8,3.2,3.5,6.4,5,9.7c-0.4,1-0.8,2.1-1.1,3.1c-0.7-1.3-1.4-2.6-2.1-3.9
		c-1.2-2-2.8-4-3.5-6.2C-377.7,444.4-377.2,443.5-376.6,442.6z M-373.5,438.6c1.8,2.7,3.4,5.4,4.9,8.3c-0.6,0.9-1.2,1.8-1.7,2.7
		c-1.5-3.1-3.1-6.1-4.8-9.1C-374.6,439.9-374.1,439.3-373.5,438.6z M-370.2,435.3c1.5,2.7,3.1,5.4,4.6,8.1c-0.5,0.5-1,1-1.4,1.6
		c-1.5-2.8-3.1-5.5-4.9-8C-371.4,436.4-370.8,435.8-370.2,435.3z M-366.4,432.4c1.4,2.7,2.9,5.3,4.4,8c-0.6,0.5-1.3,1-1.9,1.5
		c-1.5-2.7-3-5.3-4.5-8C-367.8,433.3-367.1,432.8-366.4,432.4z M-358.4,428.3c1.3,2.7,2.8,5.4,4.4,8c-0.7,0.2-1.4,0.5-2.1,0.8
		c-1.4-2.7-2.9-5.3-4.3-8C-359.8,428.8-359.1,428.5-358.4,428.3z M-353.6,427c1.8,2.6,3,5.5,4.6,8.2c-0.9,0.1-1.8,0.3-2.7,0.5
		c-1.6-2.6-3.1-5.3-4.5-8.1C-355.4,427.4-354.5,427.1-353.6,427z M-348.6,426.4c1.5,3,3.1,5.9,4.9,8.7c-0.9-0.1-1.9-0.1-2.8-0.1
		c-1.7-2.8-2.9-5.7-4.7-8.4C-350.3,426.5-349.5,426.4-348.6,426.4z M-362.4,430.1c1.4,2.6,2.8,5.2,4.2,7.8c-0.7,0.3-1.4,0.7-2,1.1
		c-1.4-2.7-2.9-5.3-4.3-8c0.7-0.4,1.4-0.8,2.1-1.1C-362.4,430.1-362.4,430.1-362.4,430.1z M-353.1,497.5c-2.4-3.9-4.8-7.9-7.2-11.8
		c1.4,0.7,2.8,1.3,4.2,1.8c2,3.6,4.1,7.2,6.3,10.7c-1.1-0.1-2.1-0.3-3.2-0.5C-353,497.6-353.1,497.6-353.1,497.5z M-338,427.5
		c2.4,4,4.7,8.2,6.9,12.3c-1.1-0.8-2.2-1.4-3.4-2c-2.2-3.6-4.3-7.3-6.5-10.9C-340,427.1-339,427.2-338,427.5z M-328.8,430.8
		c0.9,0.5,1.8,1,2.7,1.6c0,0.1,0.1,0.2,0.1,0.3c5.4,9.3,10.7,18.7,16.1,28c0.1,0.2,0.3,0.3,0.4,0.4c0.1,0.9,0.1,1.8,0.1,2.7
		c0,0.8,0,1.6-0.1,2.3C-315.9,454.3-321.7,442.2-328.8,430.8z M-343.9,426.6c2,3.2,3.9,6.5,5.8,9.8c-0.9-0.3-1.8-0.5-2.7-0.7
		c-1.9-3-3.7-6-5.3-9.2C-345.4,426.4-344.6,426.5-343.9,426.6z M-373.8,485.3c-4.3-4.4-7.5-11.5-8.6-18.2
		c3.7,7.2,7.5,14.2,11.6,21.1C-371.8,487.2-372.8,486.3-373.8,485.3z M-320.8,488.3c-1.4-2.5-2.9-4.9-4.6-7.2
		c-0.1-0.1-0.1-0.2-0.2-0.2c0.5-0.5,0.9-1,1.4-1.5c1.6,2.6,3.2,5.1,4.9,7.7C-319.9,487.5-320.3,487.9-320.8,488.3z M-317.8,485.3
		c-1.7-2.6-3.4-5.2-5-7.9c0.5-0.7,1-1.5,1.4-2.2c1.8,2.7,3.5,5.5,5.1,8.3C-316.8,484.2-317.3,484.8-317.8,485.3z"/>
	<path class="st0" d="M-296,450.6c-2.5-9.7-8.6-18.2-16-24.9c-7.6-7-16.8-13-27.2-14.1c-11.1-1.2-24.7,0.2-34.1,6.7
		c-18.2,12.7-27.8,32.6-23.1,54.8c5.1,23.8,26.5,40.4,50.6,40.4c20.2,0.1,38.4-10.3,46.2-29.2C-295.2,473.6-293.1,461.8-296,450.6z
		 M-299.7,475.7c-3.1,10.7-8.5,20.4-17.9,26.7c-8.3,5.6-18.2,8.1-28.1,8c-19.9,0-38.2-11.9-45.5-30.6c-3.7-9.6-4.6-21.5-1.8-31.5
		c2.6-9.3,8.2-16.5,15.3-22.7c3.7-3.3,7.7-6.6,12.4-8.4c5.4-2.1,11.5-2.4,17.3-2.8c11.1-0.6,20.3,2.6,29.1,9.4
		C-302.4,436.5-293.8,455.1-299.7,475.7z"/>
	<path class="st0" d="M-357.2,445.6c1.1-0.9,0-2.8-1.1-1.9c-1.8,1.3-3.3,2.8-4.7,4.5c-0.9,1.1,0.7,2.7,1.6,1.6
		C-360.2,448.3-358.8,446.8-357.2,445.6z"/>
	<path class="st0" d="M-358.8,448.5c-1,1.1,0.6,2.7,1.6,1.6c0.9-1,2-1.9,3.2-2.6c1.3-0.7,0.1-2.7-1.1-1.9
		C-356.5,446.3-357.8,447.3-358.8,448.5z"/>
</g>
<g>
	<path class="st0" d="M-179.8,487.4c0-6.9-0.1-13.9-0.3-20.8c-0.4-13.2-0.9-26.4-1.7-39.6c-0.5-9.1-4.1-14.7-13.6-16.1
		c-10.6-1.6-21.8-1-32.5-0.4c-4.8,0.3-9.7,0.8-12.6,5.1c-2.8,4.2-3,10.3-3.4,15.2c-1.3,13.8,0.2,27.9-0.1,41.8
		c0,9.1-0.3,18.3,0.5,27.4c0.5,5.7,1.7,10,7.2,12.9c3.8,2,9.6,1.5,13.6,1.5c7.3,0.1,14.5-0.4,21.8-0.6c8.3-0.2,19.3,0.2,20.9-10.4
		C-179.4,498.4-179.8,492.7-179.8,487.4z M-183.2,503c-1.5,7.7-8.6,7.9-15,7.9c-10.2,0.1-20.5,1.1-30.7,0.5c-4.1-0.2-9-1.3-10.9-5.5
		c-1.2-2.5-1-6-1.2-8.8c-0.5-8.1-0.3-16.3-0.3-24.5c0.2-9.1,0.1-18.2-0.2-27.2c-0.2-4.9-0.1-9.7,0.4-14.5c0.5-5.6,0.6-14.1,6.8-16.5
		c4.1-1.6,9.9-1,14.3-1.2c4.5-0.2,9-0.2,13.5-0.1c4.2,0.1,8.9,0.1,13,1.2c6.6,1.8,8.1,6.4,8.5,12.7c1.3,20.4,2.1,40.9,2.1,61.3
		C-182.8,493.1-182.3,498.4-183.2,503z"/>
	<path class="st0" d="M-218.2,420.7c4-0.2,8-0.3,12-0.3c1.4,0,1.4-2.2,0-2.3c-4,0-8,0.1-12,0.3
		C-219.6,418.5-219.6,420.8-218.2,420.7z"/>
	<path class="st0" d="M-201.2,420.2C-201.2,420.2-201.2,420.2-201.2,420.2c1.1-1.1-0.5-2.7-1.5-1.7c0,0,0,0-0.1,0.1
		C-203.8,419.6-202.3,421.2-201.2,420.2z"/>
	<path class="st0" d="M-196.7,420.3C-196.7,420.2-196.6,420.2-196.7,420.3c1.1-1.1-0.5-2.7-1.5-1.7c0,0,0,0-0.1,0.1
		C-199.3,419.7-197.7,421.3-196.7,420.3z"/>
	<path class="st0" d="M-211.3,502.3c-3.1,0-9.2-0.7-9.6,3.7c-0.4,4.1,6.3,3.7,8.8,3.6c2.5-0.1,8.5,0.2,8.7-3.4
		C-203.2,501.6-208.2,502.3-211.3,502.3z M-206.1,506.5c-1,1.1-5.1,0.9-6.5,0.9c-1,0-5.4,0.2-5.7-0.5c-1.3-2.9,5.9-2.3,7-2.3
		C-210.3,504.6-204,504.1-206.1,506.5z"/>
	<path class="st0" d="M-186.5,425.6C-186.5,425.6-186.5,425.6-186.5,425.6c0,0,0-0.1-0.1-0.1c-0.2-0.3-0.5-0.6-1-0.6
		c-16.8,0.1-33.6,0.9-50.4,0.6c-0.5,0-0.8,0.3-1,0.6c0,0,0,0,0,0c0,0,0,0.1,0,0.1c0,0.1-0.1,0.2-0.1,0.4
		c-0.7,11.8,0.5,23.6,0.2,35.4c-0.3,12.6-1,25.1-0.6,37.7c0,0.2,0.1,0.4,0.2,0.5c0.2,0.3,0.5,0.6,1,0.6c8.8-0.2,17.5,0.1,26.3-0.4
		c8.9-0.5,17.7,0.1,26.6-0.1c0.2,0,0.4-0.1,0.5-0.1c0.4-0.1,0.6-0.5,0.6-1c-1.2-24.4-1-48.8-2.1-73.2
		C-186.4,425.9-186.4,425.7-186.5,425.6z M-212,498.3c-8.4,0.4-16.8,0.2-25.2,0.3c-0.3-12.2,0.4-24.3,0.6-36.5
		c0.2-11.4-0.9-22.9-0.3-34.3c16.1,0.2,32.2-0.5,48.3-0.6c1.1,23.6,0.9,47.3,2,71C-195,498.3-203.5,497.8-212,498.3z"/>
	<path class="st0" d="M-226.2,433.6c-2.2,1.8-4,3.9-5.4,6.4c-0.7,1.3,1.2,2.4,1.9,1.1c1.3-2.3,3-4.3,5-5.9
		C-223.5,434.3-225.1,432.7-226.2,433.6z"/>
	<path class="st0" d="M-221.3,434.4c-1.4,1.6-2.7,3.2-4.1,4.8c-0.9,1.1,0.7,2.7,1.6,1.6c1.4-1.6,2.7-3.2,4.1-4.8
		C-218.8,434.9-220.4,433.3-221.3,434.4z"/>
</g>
<g>
	<path class="st0" d="M-34.3,462c-6.7-6.4-13.1-13-19.5-19.7c-6.3-6.6-12.7-13.2-19.2-19.5c-2.1-2-4.8-5.9-7.7-6.9
		c-2.1-0.7-4.8,0.2-6.9,0.5c-0.1,0-0.1,0-0.2,0c-0.6-0.4-1.3-0.7-2.1-0.8c-2.8-0.6-6.4,0.2-9.2,0.4c-5.6,0.4-11.2,0.9-16.8,1.7
		c-4.2,0.6-9.9,0.1-11,5c-1.2,5.2-1.6,10.8-2.1,16.1c-0.5,4.9-1,10.9-0.2,15.7c1.3,8.2,11.1,15.2,16.7,20.4
		c7.7,7.1,15.1,14.6,22.6,21.9c3,3,6.1,5.9,9.2,8.7c1.3,1.1,3.1,3.2,4.9,3.6c0.2,0,0.3,0,0.4,0c0.1,0,0.2,0,0.4,0
		c1.2-0.2,2.3-1.2,3.3-2c5.2,5.7,11.9-3.7,15.5-7.1c4.7-4.5,9.3-9.2,13.9-13.8c4.3-4.4,9.2-8.7,12.9-13.5
		C-25.8,467.8-31,465.1-34.3,462z M-75.3,506.1c-1.2-0.5-2.4-1.9-3.2-2.7c-2.3-2-4.4-4.1-6.6-6.2c-5.7-5.5-11.2-11-16.9-16.5
		c-5.9-5.7-12.2-11.1-17.9-17c-2.9-3-5.9-6.2-6.5-10.5c-0.5-4-0.2-8.6,0.1-12.7c0.4-4.8,0.6-10.2,1.9-14.9c1.2-4.6,3.3-4.2,7.3-4.8
		c3.5-0.5,7-0.9,10.5-1.2c4.5-0.4,10.3-1.8,14.7-1c5.7,0.9,11.5,9,15.4,12.9c7.8,7.8,15.3,15.8,23.1,23.6c3.8,3.8,7.6,7.6,11.5,11.3
		c2.1,2,3.4,2.9,1.1,5.6c-1.3,1.5-2.7,2.8-4,4.2c-6.1,6.4-12.2,12.7-18.5,18.9c-2.6,2.5-5.2,5.1-7.9,7.5
		C-72.1,503.5-73.8,505.5-75.3,506.1z M-31.2,470c-0.1,0.6-2,2.3-2.5,2.9c-6.9,7.3-13.9,14.5-21.1,21.5c-2.9,2.8-5.8,5.6-8.8,8.3
		c-1.9,1.7-3.7,4.4-5.9,2.4c2.1-1.8,4.1-3.8,6.1-5.7c6.9-6.7,13.6-13.6,20.2-20.5c2-2.1,6.4-5.5,7.1-8.5c0.8-3.5-4.5-6.7-6.6-8.7
		c-9.8-9.4-19.1-19.3-28.6-29c-4.4-4.5-8.8-8.8-13.3-13.2c-0.2-0.2-0.4-0.4-0.6-0.6c0.7-0.1,1.5-0.2,2.1-0.1
		c2.1,0.3,4.1,2.8,5.6,4.1c2.5,2.4,4.9,4.8,7.3,7.2c4.9,4.9,9.7,9.9,14.6,14.9c4.9,5.1,9.8,10.1,14.8,15c2.5,2.4,5.5,4.7,7.6,7.3
		C-32.2,468.3-31,468.6-31.2,470z"/>
	<path class="st0" d="M-107.8,429.7c-1.1-3.8-4.7-4.3-7.9-3.1c-0.1,0-0.3,0.1-0.4,0.2c-2.8,1.7-4.3,5-3.1,8.2
		c1.3,3.2,4.2,4.6,7.3,2.9C-109.1,436.3-106.9,433-107.8,429.7z M-113,434.9c-1.6,1.1-2.9,0.6-3.5-1.3c-0.5-1.7,0.4-3.3,1.8-4.2
		c1.7-0.6,3.7-0.9,4.1,1.4C-110.3,432.5-111.7,434.1-113,434.9z"/>
	<path class="st0" d="M-93.3,451.9c-0.5-2-1.9-3.8-2.4-5.8c-0.9-3.6,4-5.5,6-2.6c0.6,0.9,1,2,0.9,3.1c-0.1,1.9,2.9,1.9,3,0
		c0.3-5.6-7.1-11.3-11.6-6.4c-2.3,2.5-1.6,6-0.4,8.8c0.5,1.2,1.4,2.5,1.7,3.8c0.9,3.6-2.2,6.1-5.7,5c-4-1.3-7.3-6.4-4.7-10.2
		c1.1-1.6-1.5-3.1-2.6-1.5c-4.6,6.9,4.6,18.5,12.3,15C-93.5,459.4-92.4,455.3-93.3,451.9z"/>
	<path class="st0" d="M-82,463.3c-1.2-1.2-2.5-2.4-3.7-3.5c0.8-0.8,1.6-1.6,2.5-2.4c1.5-1.4,1.8-1.8,4.1-1.6
		c2.4,0.2,3.3,1.2,4.9,2.9c1.3,1.4,3.5-0.7,2.1-2.1c-2.2-2.3-4.9-4.8-8.4-4.2c-3.6,0.6-6.7,4.7-9.1,7.2c-2,2.1-5.6,5.1-5.2,8.3
		c0.4,3.4,4.1,6.7,6.7,8.4c1.6,1.1,3.1-1.5,1.5-2.6c-1-0.7-2-1.5-2.7-2.4c-0.9-1.1-2.4-3.5-2.2-4.9c0.2-1.2,2.5-3.2,3.8-4.5
		c1.2,1.2,2.5,2.4,3.7,3.5C-82.7,466.8-80.6,464.6-82,463.3z"/>
	<path class="st0" d="M-60,468.6c-0.1-0.1-0.1-0.2-0.2-0.2c0,0,0-0.1-0.1-0.1c-8.4-9.4-28.8,5.2-20.3,16.4
		C-71.6,496.6-53.1,479.5-60,468.6z M-62.5,470.3c4.9,8.1-10.2,22-16.1,12C-83.5,474.2-68.5,464-62.5,470.3z"/>
	<path class="st0" d="M-99.4,429.6c3.5,0,7-0.1,10.4-0.1c1.4,0,1.5-2.3,0-2.3c-3.5,0-7,0.1-10.4,0.1
		C-100.8,427.3-100.8,429.6-99.4,429.6z"/>
	<path class="st0" d="M-93.5,431.2c-1.4-0.1-1.4,2.2,0,2.3c2,0.1,4-0.1,6-0.4c1.4-0.3,0.8-2.4-0.6-2.2
		C-89.9,431.2-91.7,431.3-93.5,431.2z"/>
	<path class="st0" d="M-72.4,492.6c-2.4,0.2-4.8,0.4-7.2,0.5c-1.4,0-1.5,2.3,0,2.3c2.4-0.1,4.8-0.2,7.2-0.5
		C-71,494.7-71,492.4-72.4,492.6z"/>
	<path class="st0" d="M-74.5,496.5c-0.8,0.3-1.6,0.5-2.4,0.6c-0.6,0.1-0.9,0.8-0.8,1.4c0.2,0.6,0.8,0.9,1.4,0.8
		c0.8-0.1,1.6-0.3,2.4-0.6c0.6-0.2,1-0.8,0.8-1.4C-73.2,496.7-73.9,496.3-74.5,496.5z"/>
</g>
<g>
	<path class="st1" d="M13.9,479.1c4.1,0.1,8.8,0.6,9.3-4.5c0.6-6.2,0.1-12.7,0.2-18.9c0-3,1.7-10-2-11.4c-2.1-0.8-5.6-0.4-7.9-0.7
		c-2.2-0.3-4.4-0.3-6.7-0.2c-4,0.1-5.9,0.3-5.9,4.6c0,6-0.5,12.1-0.5,18.1C0,469-0.4,474.6,1.1,477C3.5,480.5,10.6,479.1,13.9,479.1
		z M6.2,446.4c3.1-0.3,6.2,0.2,9.3,0.5c1.3,0.1,4.1-0.4,4.9,0.7c0.7,0.9,0,5.6,0,6.7c0,3.6-0.1,7.3-0.1,10.9c0,2.2,0,4.5-0.1,6.7
		c0,3.7-1.2,4.3-4.9,4.3c-2.3,0-7,0.8-9.8-0.2c0.8-0.6,1.5-1.3,2.1-2.1c0.9-1.1-0.7-2.7-1.6-1.6c-0.7,0.8-1.5,1.6-2.3,2.3
		c0,0-0.1-0.1-0.1-0.1c-0.4-0.9-0.5-2.2-0.5-3.6c1.2-1.1,2.5-2.2,3.7-3.2c1.1-0.9-0.5-2.5-1.6-1.6c-0.7,0.6-1.4,1.2-2.1,1.8
		c0-0.6,0.1-1.2,0.1-1.7c0-0.7,0-1.3,0-2c1.5-1.4,3-2.8,4.7-4.1c1.1-0.9-0.5-2.5-1.6-1.6c-1,0.8-2,1.6-3,2.5c0-0.8,0.1-1.7,0.1-2.5
		c1.4-1.1,2.7-2.2,4.1-3.4c1.1-0.9-0.5-2.5-1.6-1.6c-0.8,0.6-1.6,1.3-2.3,1.9c0-0.5,0.1-1,0.1-1.5c0-0.4,0-0.8,0-1.2
		c1.2-0.9,2.4-1.8,3.6-2.6c1.2-0.9,0-2.8-1.1-1.9c-0.8,0.6-1.7,1.2-2.5,1.8c0-0.4,0-0.8,0-1.1C3.9,446.7,4,446.7,6.2,446.4z"/>
	<path class="st1" d="M32.2,476.3c1.5,3.4,6.1,2.6,9.1,2.5c3.1-0.1,9.5,1.1,12.1-0.9c2.6-2,1.2-9.1,1.2-11.9
		c0-6.7,0.1-13.4,0.1-20.1c0-3.3,0-6.5,0-9.8c0-1.5,0.5-4.2-0.4-5.6c-1.6-2.4-7.5-1.6-10-1.9c-2.6-0.3-8.8-1.2-11.1,0.5
		c-2.4,1.8-1.1,8.4-1.1,11c-0.2,7-0.6,14-0.5,21c-0.2,2.9-0.1,5.7,0.1,8.6C31.7,471.7,31.4,474.5,32.2,476.3z M35,432.2
		c1.4-2.1,9.2-0.5,11.2-0.2c2.2,0.3,4.6-0.5,5.5,1.5c0.8,1.8,0,6,0,7.8c0,5.9-0.1,11.8-0.1,17.7c0,2.9,0,5.8,0,8.6
		c0,1.5,0.8,6.2-0.1,7.5c-0.9,1.3-8.1,1.2-12,1c1.1-0.8,2.2-1.6,3.3-2.4c1.2-0.8,0-2.8-1.1-1.9c-1.8,1.3-3.6,2.6-5.3,3.9
		c-0.8-0.4-1.2-1-1.4-1.7c2.2-1.6,4.3-3.3,6.4-5.1c1.1-0.9-0.5-2.5-1.6-1.6c-1.6,1.4-3.2,2.7-4.9,4c0-0.4,0-0.9,0-1.3
		c0-0.5,0-0.9-0.1-1.4c2-2.2,4.2-4.2,6.6-5.9c1.2-0.8,0-2.8-1.1-1.9c-2,1.4-3.9,3-5.6,4.7c0-0.8,0-1.6,0-2.4
		c1.7-1.9,3.6-3.6,5.6-5.2c1.1-0.9-0.5-2.5-1.6-1.6c-1.4,1.1-2.7,2.3-4,3.5c0-1.2,0-2.4,0-3.6c1.6-1.7,3.4-3.1,5.3-4.4
		c1.2-0.8,0.1-2.7-1.1-1.9c-1.4,0.9-2.8,2-4.1,3.2c0-0.9,0.1-1.9,0.1-2.8c1.6-1.7,3.4-3.3,5.4-4.6c1.2-0.8,0.1-2.8-1.1-1.9
		c-1.5,1-2.8,2.1-4.1,3.3c0-0.5,0-0.9,0.1-1.4c0-0.5,0-1,0-1.5c1.4-1.7,3.1-3.3,4.9-4.6c1.2-0.8,0.1-2.8-1.1-1.9
		c-1.3,0.9-2.5,2-3.7,3.1c0-0.7,0-1.4,0-2.2c1.3-1.3,2.7-2.6,4.3-3.6c1.2-0.8,0.1-2.8-1.1-1.9c-1.1,0.8-2.2,1.6-3.2,2.6
		C34.9,434.2,34.7,432.6,35,432.2z"/>
	<path class="st1" d="M64,473.7c0.2,2.4,0.5,3.9,2.9,4.8c2.4,0.9,5.5,0.6,8,0.7c3.1,0.1,6.6,0.3,9.4-1c3.8-1.7,2.3-8.1,2.3-11.7
		c0-7.4,0.1-14.7,0.1-22.1c0-7.5,0.1-14.9,0.1-22.4c0-3.2,1.6-11-2-12.4c-2.6-1-6.5-0.6-9.3-0.8c-2.5-0.2-6.2-0.5-8.7,0.2
		c-4,1.1-2.4,6.8-2.4,10.1c-0.1,14.1-0.8,28.1-0.6,42.2C63.4,465.3,63.6,469.6,64,473.7z M67.2,413.3c0.6-2.4,4.8-1.8,7.1-1.7
		c1.9,0.1,6.7,0,8.3,0.7c1.8,0.8,1.3,2.4,1.3,4.5c0,5.1-0.1,10.2-0.1,15.4c-0.1,11.9-0.1,23.8-0.2,35.7c0,1.6,0.7,5.2,0,6.7
		c-1.1,2.4-6.6,1.6-8.7,1.5c-1.2,0-2.7,0.1-4,0c0.5-0.4,0.9-0.8,1.3-1.3c1-1.1-0.6-2.7-1.6-1.6c-0.7,0.8-1.5,1.5-2.4,2.2
		c-0.2-0.1-0.4-0.3-0.6-0.5c1.1-1.2,2.2-2.3,3.3-3.4c1.1-1-0.5-2.6-1.6-1.6c-0.9,0.8-1.7,1.7-2.6,2.6c-0.1-0.7-0.2-1.4-0.2-2.1
		c1.3-1.1,2.6-2.2,3.9-3.2c1.1-0.9-0.5-2.5-1.6-1.6c-0.8,0.7-1.6,1.3-2.5,2c0-0.5,0-0.9,0-1.4c2-1.5,4-3,5.9-4.6
		c1.1-0.9-0.5-2.5-1.6-1.6c-1.4,1.1-2.8,2.2-4.2,3.3c0-0.7,0.1-1.4,0.1-2.1c0-0.4,0-0.7,0-1.1c1.5-1.4,3.1-2.6,4.8-3.8
		c1.2-0.8,0.1-2.8-1.1-1.9c-1.3,0.9-2.5,1.8-3.7,2.8c0-0.8,0-1.6,0-2.4c1.4-1,2.7-2.1,4.1-3.2c1.1-0.9-0.5-2.5-1.6-1.6
		c-0.8,0.7-1.6,1.3-2.5,1.9c0-0.9,0-1.8,0-2.7c1.5-1.4,3.1-2.7,4.7-3.9c1.2-0.8,0.1-2.8-1.1-1.9c-1.2,0.9-2.4,1.8-3.6,2.8
		c0-1.3,0.1-2.6,0.1-4c1.1-1,2.2-2,3.4-2.8c0.5-0.4,0.7-1,0.4-1.5c-0.3-0.5-1.1-0.8-1.5-0.4c-0.7,0.5-1.5,1.1-2.2,1.7
		c0-0.6,0-1.2,0-1.9c1.7-1.3,3.5-2.5,5.3-3.5c1.3-0.7,0.1-2.7-1.1-1.9c-1.4,0.8-2.8,1.7-4.1,2.7c0-0.9,0-1.8,0.1-2.7
		c0-0.1,0-0.2,0-0.3c1.3-1.1,2.6-2.3,3.8-3.4c1.1-1-0.5-2.6-1.6-1.6c-0.7,0.7-1.5,1.3-2.2,2c0-1.1,0-2.3,0.1-3.4c1-1,2.1-2,3.2-2.9
		c0.5-0.4,0.4-1.2,0-1.6c-0.5-0.5-1.1-0.4-1.6,0c-0.6,0.4-1.1,0.9-1.6,1.4c0-1,0-2,0-2.9c1.5-1.1,2.9-2.2,4.3-3.5
		c1.1-1-0.5-2.6-1.6-1.6c-0.9,0.8-1.8,1.5-2.7,2.3C67.1,415.3,67,414.1,67.2,413.3z"/>
	<path class="st1" d="M88.3,482.8c-14.8,0.6-29.6,0.6-44.4,0.3c-14-0.3-28.1-1.3-42.1-1c-1.4,0-4.7,0.6-5.8-0.1
		c-1.3-0.8-1.2-4.1-1.3-5.3c-0.2-3.1-0.3-6.3-0.3-9.4c-0.2-6.2-0.1-12.5-0.1-18.7c0.1-12.7,0.4-25.4,0.1-38.1c0-1.9-3-1.9-3,0
		c0.3,14-0.1,27.9-0.2,41.9c0,6.6,0,13.3,0.3,19.9c0.2,4-1.2,11.1,3.7,12.6c2.5,0.8,5.6,0.2,8.2,0.1c3.6-0.1,7.2,0,10.9,0.1
		c8,0.3,15.9,0.6,23.9,0.8c16.7,0.4,33.4,0.4,50.1-0.2C90.3,485.7,90.3,482.7,88.3,482.8z"/>
</g>
<g>
	<path class="st0" d="M238.8,135.3c-17.4,6.4-33.7,15.3-50.6,23.1c-18,8.3-35.5,17.4-53.3,26c-1.1,0.5-0.9,2.6,0.4,2.7
		c11.7,1.6,23.1,4.2,34.6,6.8c0.2,11.7-0.1,23.4,0.1,35.1c0,1.6,2,1.9,2.8,0.8c6.1-8.7,12.2-17.4,18.7-25.8
		c9.1,5.5,18.2,10.9,26.8,17c0.8,0.5,2,0,2.2-0.9c2.7-14,5.5-27.7,9.4-41.4c4-13.8,7.7-27.6,10.8-41.6
		C240.9,136.2,240,134.9,238.8,135.3z M180.1,194.4c-0.4,0.3-0.7,0.7-0.7,1.2c-0.6,1.1-1,2.3-1.5,4.1c-1.8,7.1-3,14.4-5,21.4
		c0-9.4,0.2-18.8,0-28.2c17.8-15.7,36.2-30.9,54.8-45.7c-11.1,11-22.2,21.9-33.3,32.9c-3.4,3.4-6.9,6.7-10.3,10.1
		C182.3,191.9,181.1,193.1,180.1,194.4z M231.4,141.5c-20.4,16-40.5,32.6-60,49.7c-10.2-2.4-20.4-4.7-30.8-6.3
		c15.8-7.7,31.5-15.8,47.5-23.2C202.6,155.1,216.7,147.6,231.4,141.5z M175.3,221.1c1.7-6.3,2.9-12.7,4.4-19
		c0.4-1.6,0.7-3.1,1.3-4.5c2.6,1.6,5.3,3.3,8,4.9C184.2,208.6,179.7,214.8,175.3,221.1z M227,178c-3.7,13-6.5,26-9,39.2
		c-11.5-8-23.7-14.9-35.5-22.2c0.1-0.1,0.2-0.2,0.3-0.3c1.4-1.6,3.1-3.1,4.7-4.6c3.5-3.4,6.9-6.8,10.4-10.2
		c12.9-12.7,25.9-25.5,38.8-38.2C233.8,153.8,230.5,165.9,227,178z"/>
	<path class="st0" d="M161.1,184.1c3.6-2,7.2-4,10.8-6c1.3-0.7,0.1-2.6-1.1-1.9c-3.6,2-7.2,4-10.8,6
		C158.7,182.9,159.9,184.8,161.1,184.1z"/>
	<path class="st0" d="M171.4,181c-1.7,0.9-3.4,1.8-5.1,2.6c-1.3,0.7-0.1,2.6,1.1,1.9c1.7-0.9,3.4-1.8,5.1-2.6
		C173.8,182.3,172.6,180.4,171.4,181z"/>
</g>
<g>
	<path class="st0" d="M238.9,64.5c-0.1-0.1-0.1-0.2-0.2-0.3c-2.4-2.5-5.4-5.2-8.4-7c-0.5-0.3-1-0.2-1.5,0c-0.3,0.2-0.7,0.4-1,0.6
		c-1.3-1.3-2.5-2.9-4.4-2.5c-0.4,0.1-0.9,0.3-1.3,0.6c-2.9-4.2-4.1-8.6-5.6-13.4c-1.4-4.4-3.9-8.1-7-11.4c-2.3-2.4-5.3-6.5-8.9-7
		c-2.4-0.3-4.5,0.9-5.7,2.8c-3.5-2.1-7.8-1.1-9.4,2.6c-3.1-1.3-6.6-0.2-8.4,2.7c-6.2-6-11.4-13.4-18.3-18.5
		c-4.9-3.6-12.5-0.3-9.5,6.2c2,4.4,6.7,7.7,10,11.1c2.4,2.4,4.7,4.8,7,7.3c1.8,1.9,3.6,3.8,5.5,5.7c-2.9,8.2,0.1,16.2,8.4,19.8
		c4.2,1.8,8.7,2.5,13.2,3.3c4.1,0.8,7.2,3.5,10.2,6.4c-0.3,0.4-0.5,0.8-0.6,1.1c-0.5,1.9,1.5,3.8,2.9,5.2c-0.1,0.2-0.3,0.3-0.4,0.5
		c-0.5,0.6-0.6,1.5,0,2.1c2.8,2.9,5.5,5.9,8.3,8.8c0.5,0.5,1.2,0.5,1.8,0.2c3-1.4,5.4-4.5,7.7-6.9c2.8-2.9,5.5-5.8,8.4-8.5
		C233.8,73.9,241.6,68.4,238.9,64.5z M205.6,71.3c-4.1-3.9-7.8-6.4-13.5-7.4c-9.7-1.6-21.5-6-18-17.6c1.7,1.6,3.3,3.3,5,4.9
		c1.4,1.4,3.5-0.8,2.1-2.1c-6.5-6.4-12.8-13.1-19.2-19.6c-2.8-2.8-7.2-5.9-9.1-9.4c-1.2-2.2-1.5-4.4,1.5-4.6
		c1.9-0.1,2.4,0.4,3.8,1.6c1.1,1,2.1,2.1,3.2,3.1c5.2,5.2,9.9,10.8,15.4,15.7c0.8,0.7,2.2,0.5,2.5-0.7c0.7-3,2.8-3.8,6.2-2.4
		c1.1,0.9,2.4,0.3,2.6-1.1c0.7-3.2,2.9-3.6,6.5-1.4c0.8,0.8,2.2,0.4,2.5-0.7c1.7-6.6,9.1,2,10.7,3.8c2.5,2.7,4.6,5.8,5.8,9.3
		c1.9,5.4,3,10.3,6.4,15c-0.2,0.1-0.3,0.3-0.4,0.4c-2.2,1.8-4.3,3.6-6.3,5.6c-1.8,1.8-3.5,3.6-5.2,5.4
		C207.3,69.8,206.5,70.5,205.6,71.3z M206.3,75.5c0-0.6,1.4-1.7,2.1-2.5c2.2-2.4,4.5-4.8,6.8-7.1c2.5-2.4,5.1-4.7,7.9-6.9
		c1.5-1.1,1.4-0.7,2.4,0.5c-2.3,2.2-4.3,5-6.4,7c-3.8,3.7-7.6,7-11.1,10.9C207.3,76.7,206.3,75.6,206.3,75.5z M215.1,88.2
		c-2.2-2.3-4.3-4.6-6.5-6.9c4.9-5.7,10.7-10.4,15.8-15.9c1.1-1.1,2.1-2.3,3.2-3.4c0.6-0.6,2-1.7,1.9-1.7c1.3,0.1,6,5,7,6
		C236.9,66.7,220,84.4,215.1,88.2z"/>
	<path class="st0" d="M213.3,78.8c-0.1,0.1-0.1,0.1-0.2,0.2c-0.1,0.1-0.1,0.2-0.1,0.2c-0.9,1.6-0.8,3.6,0.9,4.7
		c1.6,1,3.7,0.4,4.7-1.1c1-1.5,0.7-3.7-0.7-4.9C216.5,76.6,214.4,77.4,213.3,78.8z M216.6,81.6c-0.4,0.5-1,0.7-1.5,0.4
		c-0.8-0.5-0.4-1.3,0-1.9c0.4-0.5,1.1-0.9,1.5-0.2C217,80.4,217,81.1,216.6,81.6z"/>
	<path class="st0" d="M169,16.8c1.4-12.6-15.5-16-23.1-8.7c-8.6,8.1-4.8,25.5,8.8,24.1c1.4-0.1,1.4-2.4,0-2.3
		c-11.7,1.2-14.4-13.5-7.2-20.3c6.4-5.9,20.5-3.5,19.3,7.1C166.6,18.2,168.8,18.2,169,16.8z"/>
	<path class="st0" d="M158.4,34.1c-5.7,2.3-12.8,0.1-17-4.3c-6.2-6.6-3.9-18.1,1.8-24.3c5.5-6,14.2-7.2,21.3-3.3
		c6.4,3.5,10.9,13,7,19.8c-0.7,1.3,1.2,2.4,1.9,1.1c4.3-7.3,0.5-17.1-6.1-21.8c-7.6-5.3-18.1-4.7-24.8,1.6
		c-6.8,6.4-9.7,18.1-4.3,26.4c4.1,6.4,13.7,9.8,20.8,6.9C160.3,35.7,159.7,33.5,158.4,34.1z"/>
	<path class="st0" d="M228.7,64.8c-0.7-1.2-2.7-0.1-1.9,1.1c0.6,1.1,1.2,2.1,1.9,3.2c0.7,1.2,2.7,0.1,1.9-1.1
		C229.9,66.9,229.3,65.8,228.7,64.8z"/>
	<path class="st0" d="M232,64.3c-0.2-0.6-1.1-0.7-1.5-0.4c-0.6,0.3-0.7,1-0.4,1.5c0.5,1,0.9,2.1,1.4,3.1c0.2,0.6,1.1,0.7,1.5,0.4
		c0.6-0.3,0.7-1,0.4-1.5C232.9,66.4,232.4,65.3,232,64.3z"/>
</g>
<g>
	<path class="st1" d="M158.1,350.9c2.3-2.4,4.6-4.7,6.7-7.3c1-1.2,1.4-2.3,0.9-3.7c0-0.2-0.1-0.5-0.3-0.6c-0.2-0.3-0.5-0.4-0.7-0.4
		c-3.8-1.4-7,3.4-9.4,5.8c-3,3.1-7,6.5-8.2,10.7c-0.1,0.4,0,0.8,0.3,1.1C151.2,360.4,155.8,353.3,158.1,350.9z M152,354.1
		c-0.6,0.6-2.4,2-2.5,1.7c-0.3-1.2,2.1-3.6,2.9-4.5c1-1.1,2-2.3,3-3.4c1.2-1.2,5.9-7.3,8.3-7c-0.1,1.9-5.8,7-6.8,8
		c-1.1,1.1-2.1,2.2-3.2,3.4C153.1,352.9,152.6,353.6,152,354.1z"/>
	<path class="st1" d="M163.1,349.4c-2.4,2.5-4.7,5-7,7.5c-1.8,1.9-2.9,3-2.5,5.6c0,0,0,0,0,0c0,0,0,0.1,0,0.1
		c0.1,0.4,0.3,0.6,0.5,0.7c3.2,2.8,8.8-4.6,10.6-6.5c1.9-2,9-7.9,7.2-11.3C169.6,341.5,164.4,348.1,163.1,349.4z M155.7,361.6
		c0.2-2.6,5-6.4,6.6-8.1c0.9-1,6-7,6.8-6.1C170.3,348.7,157.9,361.1,155.7,361.6z"/>
	<path class="st1" d="M227.6,345.7c-9.3-9.3-19.3-17.9-29.3-26.5c5.9-5.8,11.7-11.6,17.5-17.6c1.3-1.3,2.6-2.9,4-4.1
		c2-1.8,3.1-1.5,5.5-2c0.8-0.2,1.5-0.2,2.2-0.6c2.7-1.8,4.6-7.1,6-9.9c1.4-2.7,1.2-3.3-0.9-5.6c-2.2-2.3-3.2-4-6-2.5
		c-3.3,1.7-8.4,3.8-10.9,6.6c-0.7,0.8-0.6,1-1,1.9c0,0.7,0,1.3,0,2c-0.4,1.8-1.4,3.3-2.7,4.4c-1.1,1.3-2.5,2.5-3.7,3.7
		c-5.8,5.8-11.6,11.6-17.3,17.4c-4.7-4.1-9.3-8.3-13.7-12.6c4.2-6.2,4.9-14.2,0.2-20.4c-4.9-6.5-11.5-8.4-19.1-6.8
		c-1,0.2-1.4,1.4-0.9,2.2c1.5,2.5,2.8,4.9,4.2,7.4c0.5,0.8,0.9,1.8,1.4,2.6c0.4,0.5,0.5,1,0.5,1.2c-0.5,2.4-1.9,5.1-2.9,7.4
		c-1.4-0.1-2.9-0.1-4.3-0.2c-0.9,0-2.5-0.4-3.3-0.2c0,0-0.1,0-0.1,0c-2.3-3.5-4.3-7.2-6.4-10.8c-0.5-0.9-1.6-0.9-2.4-0.3
		c-6.3,5.6-6.4,15.9-1.3,22.3c5.9,7.4,14.6,8.2,22.9,5.8c4.5,4.6,9,9.2,13.5,13.9c-0.5,0.5-1,1-1.5,1.5c-1.8-1.7-3.6-3.3-5.5-4.9
		c-0.6-0.5-1.5-0.6-2.1,0c-1.3,1.2-2.8,2.7-3.6,4.3c-1.2,2.3-0.1,4.7-0.9,7.2c-0.3,0.9-6,1-7.3,1.6c-2.2,1-4.2,3.1-5.9,4.7
		c-2.5,2.3-4.8,4.8-6.9,7.4c-1.6,1.9-4.3,4.5-5.4,6.7c-1.6,3.3,2,6.2,4.1,8.5c2.8,3.2,6.8,8,10.6,9.9c4.1,2,7-2.8,9.6-5.4
		c3.9-3.9,8.1-7.8,11.4-12.3c1-1.4,1.6-2.4,1.8-4.1c0.3-3.2-1.1-4.5,3.1-5.1c3.7-0.5,5.9-2,8.5-4.9c0.6-0.6,0.6-1.5,0-2.1
		c-1.5-1.6-3.1-3.2-4.6-4.8c0.5-0.4,0.9-0.9,1.4-1.3c5.6,5.8,11.3,11.6,16.9,17.4c3,3.1,6.1,6.3,9.2,9.4c3.1,3.1,6.1,7,10.2,8.7
		c5.8,2.4,11.5-0.9,13.1-6.8C236.9,354.1,231.3,349.5,227.6,345.7z M206.7,300.2c3-3,8.7-6.8,10.1-10.9c0.3-1.1-0.1-3.3,0.1-3.8
		c0.6-1.1,3.4-2.3,4.4-2.9c1.6-1,3.2-1.9,4.8-2.8c2.1-1.2,2.1-1.6,3.9,0.2c1.4,1.4,2.2,1.8,1.8,3.6c-0.4,1.5-1.8,3.3-2.6,4.7
		c-0.7,1.3-1.5,3.3-2.7,4.3c-1.3,1.1-3,0.9-4.5,1.2c-4.4,0.9-7.5,6-10.5,9c-4.9,5-9.9,10-14.9,14.9c-1.3-1.1-2.6-2.3-3.9-3.4
		C197.4,309.7,202,304.9,206.7,300.2z M152.8,293.7C152.2,293.8,152.4,293.5,152.8,293.7L152.8,293.7z M184.4,340
		c-2.4,1.7-3.9,0.9-6.6,1.4c-2.6,0.4-3.4,1.8-3.4,4.3c0,2.1,0.5,3.7-0.6,5.7c-1.1,2-3.1,3.7-4.6,5.4c-1.9,2-3.8,3.9-5.7,5.9
		c-1.2,1.2-2.5,2.5-3.7,3.7c-1.4,1.4-1.4,1.8-3.4,1.6c-3.4-0.5-7.4-5.5-9.7-8.1c-1.4-1.6-3.9-3.6-3.4-5.9c0.4-2.1,4.5-5.7,5.9-7.4
		c3.3-3.7,7.8-9.6,13-10.1c2.6-0.2,5.3-0.1,6.3-3.1c0.7-2.1,0-3.9,0.5-5.9c0.3-1.2,1.3-2.3,2.3-3.3c5.2,4.5,10.1,9.4,14.8,14.4
		C185.6,339.1,185,339.6,184.4,340z M183,331c-1.2-1.2-2.4-2.3-3.5-3.5c0.5-0.5,1-1,1.4-1.4c1.2,1.2,2.3,2.4,3.5,3.6
		C183.9,330.1,183.5,330.6,183,331z M231.9,358.4c-0.4,4-2.9,7.1-7.5,6c-3.3-0.8-5.9-3.9-8.2-6.3C204,345.8,192,333.3,180,320.9
		c-4.2-4.3-8.4-8.7-12.6-13c0,0,0,0,0,0c-0.3-0.4-0.8-0.5-1.4-0.4c-6.8,2.2-13.2,2.5-19-2.7c-5.2-4.7-6.3-13.2-1.9-18.7
		c1,1.7,2.1,3.5,3.1,5.2c0.8,1.3,1.7,4,3,4.8c2.4,1.6,7.8,0.8,10.7,0.9c0.7,0,1.2-0.5,1.4-1.1c1-2.6,3.7-7,3.6-9.8
		c-0.1-1.3-1.4-2.8-2-3.9c-1.2-2.2-2.4-4.3-3.7-6.5c5.2-0.6,9.7,0.9,13.4,5.3c4.8,5.6,3.8,13.1-0.5,18.8c-0.4,0.5-0.2,1.4,0.2,1.8
		c12.9,12.6,26.6,24.2,40.1,36.1c5.4,4.8,11,9.5,15.6,15.1C231.8,354.9,232.2,355.3,231.9,358.4z"/>
	<path class="st1" d="M226.9,352.9c-2-1.5-4.5-0.4-6,1.3c-0.1,0.1-0.2,0.2-0.2,0.3c-0.1,0.2-0.2,0.3-0.2,0.5c-0.8,2-0.3,4.5,1.7,5.7
		c2.2,1.3,4.9,0.3,6.4-1.6C230.3,357,228.9,354.4,226.9,352.9z M226.4,358.2c-0.8,0.7-2,1.2-3,0.7c-1.2-0.6-1.4-2.1-0.8-3.2
		c0.8-1.1,2.1-1.7,3.2-0.8C226.9,355.8,227.6,357.1,226.4,358.2z"/>
</g>
<g>
	<path class="st0" d="M223.3,456.3c2.7-5.4,0.9-12.7-4.5-16.1c-5.2-3.3-10.9-2.1-14.9,1.6c-0.8-16.7-22.5-25.4-37.4-20.5
		c-16.9,5.6-21.3,24.2-13.4,38.3c-8.5-2.1-17.2,4.5-15.8,14.6c1.8,13.1,15.4,13.8,26,13.5c1.9-0.1,1.9-3.1,0-3
		c-7.1,0.2-16.4,1-21-5.6c-2.4-3.4-3-8.5-1.1-12.2c3-5.6,10.5-6.2,15.2-2.5c1.5,1.2,3.4-0.6,2.1-2.1c-10.6-12.6-7.9-32.6,8.7-38.1
		c14.1-4.7,37.2,4.3,33.2,22.5c-0.3,1.6,2,2.8,2.7,1.2c2.3-4.7,6.9-8.1,12.3-5.9c6.1,2.5,8.2,11,3,15.6c-1.1,1,0.1,3.1,1.5,2.5
		c12.3-4.8,19.9,13.6,9.7,20.7c-5.2,3.6-12.5,4.2-18.6,4.1c-1.9,0-1.9,3,0,3c9.4,0.2,22.6-1.7,25.9-12.1
		C240,466.5,232.7,455.8,223.3,456.3z"/>
	<path class="st0" d="M177.7,468.5c-0.4-0.4-1.2-0.4-1.6,0c-2.9,3.5-5.8,6.8-8.6,10.4c-0.5,0.7,0.2,1.7,1,1.7c0.9,0,1.9,0,2.8,0
		c0.1,5.8-0.1,11.6,0,17.4c0,0.4,0.2,0.7,0.5,0.9c0.2,0.1,0.4,0.2,0.6,0.2c3.1,0.1,6.2,0.2,9.3,0c0.6,0,1.1-0.5,1.1-1.1
		c-0.1-5.8,0-11.6,0-17.4c0.8,0,1.6,0,2.4,0c0.8,0,1.5-1,1-1.7C183.5,475.4,180.6,472,177.7,468.5z M173.6,497
		c-0.1-5.8,0.1-11.6,0-17.4c0-0.6-0.5-1.1-1.1-1.1c-0.5,0-1.1,0-1.6,0c2-2.5,4-4.9,6.1-7.4c2,2.4,4.1,4.9,6.1,7.4
		c-0.4,0-0.8,0-1.3,0c-0.6,0-1.1,0.5-1.1,1.1c0,5.8-0.1,11.6,0,17.5C178.3,497.1,175.9,497.1,173.6,497z"/>
	<path class="st0" d="M206.4,492.1c-0.8,0-1.6,0-2.4,0c0-5.8-0.1-11.6,0-17.4c0-0.6-0.5-1.1-1.1-1.1c-3.1-0.2-6.2-0.1-9.3,0
		c-0.2,0-0.4,0.1-0.6,0.2c-0.3,0.2-0.5,0.5-0.5,0.9c-0.1,5.8,0.1,11.6,0,17.4c-0.9,0-1.9,0-2.8,0c-0.8,0-1.5,1-1,1.7
		c2.7,3.6,5.7,6.9,8.6,10.4c0.4,0.4,1.2,0.4,1.6,0c2.9-3.3,5.5-6.9,8.4-10.2C207.9,493.3,207.4,492.2,206.4,492.1z M192,494.4
		c0.5,0,1.1,0,1.6,0c0.6,0,1.1-0.5,1.1-1.1c0.1-5.8-0.1-11.6,0-17.4c2.3-0.1,4.7-0.1,7,0c-0.1,5.8,0,11.6,0,17.5
		c0,0.6,0.5,1.1,1.1,1.1c0.4,0,0.8,0,1.2,0c-2,2.4-4,4.9-6,7.4C196,499.3,194,496.9,192,494.4z"/>
	<path class="st0" d="M171.3,431.1c1.4-0.2,1.4-2.4,0-2.3c-8.2,0.9-15.1,10-13.2,18.1c0.3,1.4,2.5,0.8,2.2-0.6
		C158.7,439.8,164.6,431.8,171.3,431.1z"/>
	<path class="st0" d="M171.4,433.6c-2.2,0.4-4.1,1.4-5.8,2.8c-1.1,1,0.5,2.6,1.6,1.6c1.4-1.2,3-2,4.8-2.3
		C173.5,435.5,172.9,433.3,171.4,433.6z"/>
</g>
<g>
	<g>
		<path class="st0" d="M-178.6,584.4c-6.1-4.7-15.9-2.7-21.9,1c-1.9,1.2-0.1,4.2,1.8,3c0.9-0.6,1.8-1,2.6-1.4
			c0.8,16.9,1.5,33.8,2.2,50.7c-1.5-0.2-3-0.5-4.4-1c-2.1-0.8-3,2.6-0.9,3.4c6.4,2.3,18.4,2.7,24.3-1.3c8.6-5.7,7.5-19.2,6.4-27.9
			C-169.4,603.3-171.8,589.6-178.6,584.4z M-184.6,637.8c-1.9,0.2-3.8,0.3-5.8,0.2c-0.8-17.4-1.5-34.8-2.3-52.3
			c14.8-3.7,20.6,18.3,21.3,31C-170.8,626.4-173.1,636.7-184.6,637.8z"/>
		<path class="st0" d="M-154.7,618.8c-5.5,0.5-10.4,4.7-10.4,10.5c0,6.7,6.3,12.1,12.8,12c6-0.2,11.2-5.2,10.6-11.4
			C-142.4,623.7-148.5,618.7-154.7,618.8z M-151.9,637.8c-10.1,0.9-13.6-14.5-2.7-15.5C-145.2,622.1-141,636.8-151.9,637.8z"/>
		<path class="st0" d="M-128.7,619.5c-5.5,0.5-10.4,4.7-10.4,10.5c0,6.7,6.3,12.1,12.8,12c6-0.2,11.2-5.2,10.6-11.4
			C-116.4,624.3-122.5,619.3-128.7,619.5z M-125.9,638.4c-10.1,0.9-13.6-14.5-2.7-15.5C-119.2,622.7-115,637.5-125.9,638.4z"/>
		<path class="st0" d="M9.6,618.5c-5.7,0.5-10.7,4.9-10.8,10.9c-0.1,6.9,6.5,12.5,13.2,12.4c6.2-0.2,11.5-5.4,10.9-11.7
			C22.3,623.5,15.9,618.3,9.6,618.5z M12.4,638.2C1.8,639.1-1.8,622.9,9.6,622c4.1-0.1,8.3,2.8,9.6,6.8
			C20.6,633.5,17.1,637.7,12.4,638.2z"/>
		<path class="st0" d="M-92.7,577.9c0.1-2.2-3.4-2.2-3.5,0c-0.8,13.6-1.2,27.3-0.1,40.9c-6.8-1.7-14.8,0.2-16.8,7.8
			c-1.6,6.2,0.9,14.2,8,14.9c4.9,0.5,11.4-3.1,13-7.9c2.2-6.5-1.1-17.1-1.3-24C-93.7,599-93.3,588.5-92.7,577.9z M-100.1,636.9
			c-13,5.9-12.8-21,4.1-14.5c0,0.2,0,0.4,0,0.5C-95.4,628.7-94.1,634.2-100.1,636.9z"/>
		<path class="st0" d="M-86.8,577.6c0.1,25.1,0.8,40.4,1.2,62.1c0,2.2,3.5,2,3.5-0.3c-0.3-21.7-1.1-36.7-1.2-61.8
			c0,0-0.1-1.3-1.9-1.4C-86.8,576.2-86.8,577.6-86.8,577.6z"/>
		<path class="st0" d="M-59,635.1c-2,3.9-8.2,3.9-11.3,1.4c-1.8-1.4-3.1-3.8-3.7-6.3c4.9,1,12.3,2.1,13.3-3.4
			c1.4-7.4-7.9-10.3-13.2-6.9c-6.2,4.1-4.3,14.1,0.4,18.6c4.6,4.4,14.2,4.6,17.4-1.7C-54.9,634.9-57.9,633.2-59,635.1z M-67,622.1
			c3.7,1.2,3.6,5.3-0.3,5.4c-2.2,0-4.5-0.4-6.7-0.8c0.1-0.3,0-0.7,0.1-1C-73,623-69.8,621.2-67,622.1z"/>
		<path class="st0" d="M-32.8,619.8c0.3,6.6,0.2,13.3,0.5,19.9c0.1,2.2,3.6,2.2,3.5,0c-0.3-6.6-0.2-13.3-0.5-19.9
			C-29.4,617.6-32.9,617.6-32.8,619.8z"/>
		<path class="st0" d="M-30.2,606.6c-0.1,0-0.2,0-0.3,0c-0.1,0-0.1-0.1-0.2-0.1c-5.6-0.6-8,7.7-2.2,9.3
			C-26.5,617.5-23.4,608.6-30.2,606.6z M-32.7,611.9c-0.6-1.2,0.8-1.8,1.8-1.9C-28.3,611-31.7,613.8-32.7,611.9z"/>
		<path class="st0" d="M-6.8,634.3c-2.7,5.1-10.5,6.5-12.2-0.1c-0.5-2.1-0.6-4.7,0-6.8c1-3.3,6.2-6.8,8.9-2.9c1,1.5,3,0.8,3.2-0.9
			c0.1-1.2,0.3-2.5,0.4-3.7c0.3-2.2-3.2-2.2-3.5,0c0,0.2,0,0.3-0.1,0.5c-2.5-1.3-5.6-1.2-8.2,0.4c-4.3,2.7-5.2,8-4.6,12.7
			c1.5,10.4,14.2,11.7,18.9,2.7C-2.8,634-5.8,632.3-6.8,634.3z"/>
		<path class="st0" d="M42.8,624.6c-0.4-3.1-2-6-5.5-5.9c-3.2,0.1-5.2,1.7-6.5,3.9c0-1-0.1-1.9-0.1-2.9c0-2.2-3.5-2.2-3.5,0
			c0.1,6.9,0.4,13.8,1.8,20.6c0.4,1.9,3.6,1.5,3.4-0.5c-0.2-2.9-0.5-5.8-0.4-8.6c0.1-1.5,0.1-3,0.6-4.5c0.6-1.7,3.9-7.1,6.5-3
			c1.1,1.6,0.4,6,0.6,7.9c0.2,2.9,0.6,5.9,0.9,8.8c0.3,2.2,3.7,2.2,3.5,0C43.5,635.2,43.5,629.9,42.8,624.6z"/>
	</g>
	<path class="st2" d="M-84.3,653.3h-10c-1.4,0-2.5,1.1-2.5,2.5c0,1.4,1.1,2.5,2.5,2.5h10c1.4,0,2.5-1.1,2.5-2.5
		C-81.8,654.5-82.9,653.3-84.3,653.3z"/>
	<path class="st2" d="M-148.5,653.3h-10c-1.4,0-2.5,1.1-2.5,2.5c0,1.4,1.1,2.5,2.5,2.5h10c1.4,0,2.5-1.1,2.5-2.5
		C-146,654.5-147.1,653.3-148.5,653.3z"/>
	<path class="st2" d="M-105.7,653.3h-10c-1.4,0-2.5,1.1-2.5,2.5c0,1.4,1.1,2.5,2.5,2.5h10c1.4,0,2.5-1.1,2.5-2.5
		C-103.2,654.5-104.3,653.3-105.7,653.3z"/>
	<path class="st2" d="M-127.1,653.3h-10c-1.4,0-2.5,1.1-2.5,2.5c0,1.4,1.1,2.5,2.5,2.5h10c1.4,0,2.5-1.1,2.5-2.5
		C-124.6,654.5-125.7,653.3-127.1,653.3z"/>
	<path class="st2" d="M-169.9,653.3h-10c-1.4,0-2.5,1.1-2.5,2.5c0,1.4,1.1,2.5,2.5,2.5h10c1.4,0,2.5-1.1,2.5-2.5
		C-167.4,654.5-168.5,653.3-169.9,653.3z"/>
	<path class="st2" d="M-191.3,653.3h-10c-1.4,0-2.5,1.1-2.5,2.5c0,1.4,1.1,2.5,2.5,2.5h10c1.4,0,2.5-1.1,2.5-2.5
		C-188.8,654.5-189.9,653.3-191.3,653.3z"/>
	<path class="st2" d="M-20.1,653.3h-10c-1.4,0-2.5,1.1-2.5,2.5c0,1.4,1.1,2.5,2.5,2.5h10c1.4,0,2.5-1.1,2.5-2.5
		C-17.6,654.5-18.7,653.3-20.1,653.3z"/>
	<path class="st2" d="M-62.9,653.3h-10c-1.4,0-2.5,1.1-2.5,2.5c0,1.4,1.1,2.5,2.5,2.5h10c1.4,0,2.5-1.1,2.5-2.5
		C-60.4,654.5-61.5,653.3-62.9,653.3z"/>
	<path class="st2" d="M22.7,653.3h-10c-1.4,0-2.5,1.1-2.5,2.5c0,1.4,1.1,2.5,2.5,2.5h10c1.4,0,2.5-1.1,2.5-2.5
		C25.2,654.5,24.1,653.3,22.7,653.3z"/>
	<path class="st2" d="M1.3,653.3h-10c-1.4,0-2.5,1.1-2.5,2.5c0,1.4,1.1,2.5,2.5,2.5h10c1.4,0,2.5-1.1,2.5-2.5
		C3.8,654.5,2.7,653.3,1.3,653.3z"/>
	<path class="st2" d="M44.1,653.3h-10c-1.4,0-2.5,1.1-2.5,2.5c0,1.4,1.1,2.5,2.5,2.5h10c1.4,0,2.5-1.1,2.5-2.5
		C46.6,654.5,45.5,653.3,44.1,653.3z"/>
	<path class="st2" d="M-41.5,653.3h-10c-1.4,0-2.5,1.1-2.5,2.5c0,1.4,1.1,2.5,2.5,2.5h10c1.4,0,2.5-1.1,2.5-2.5
		C-39,654.5-40.1,653.3-41.5,653.3z"/>
	<g>
		<path class="st2" d="M53.1,617.2c1.2-1.8,2.4-3.6,3.9-5.2c1.8-2.1-1.2-5.2-3.1-3.1c-1.7,1.9-3.2,4-4.5,6.1
			C47.9,617.4,51.6,619.5,53.1,617.2L53.1,617.2z"/>
	</g>
	<g>
		<path class="st2" d="M60.3,618c1.5-2.1,3.2-3.9,5.1-5.6c2.1-1.8-0.9-4.9-3.1-3.1c-2.3,1.9-4.1,4-5.8,6.4
			C55,618.1,58.7,620.2,60.3,618L60.3,618z"/>
	</g>
</g>
</svg>
