<?xml version="1.0" encoding="utf-8"?>
<!-- Generator: Adobe Illustrator 24.2.3, SVG Export Plug-In . SVG Version: 6.00 Build 0)  -->
<svg version="1.1" id="Layer_1" xmlns="http://www.w3.org/2000/svg" xmlns:xlink="http://www.w3.org/1999/xlink" x="0px" y="0px"
	 viewBox="0 0 395.6 164.3" style="enable-background:new 0 0 395.6 164.3;" xml:space="preserve">
<style type="text/css">
	.st0{fill:#231F20;}
	.st1{clip-path:url(#SVGID_2_);}
</style>
<g>
	<path class="st0" d="M115.6,74.7c-0.9-0.2-1.2-0.1-1.5,0.8c-1.4,4.4-2.8,8.7-4.3,13c-1.4,4.3-2.8,8.7-4.3,13
		c-0.2,0-0.3,0.1-0.5,0.1c-3.6-6.6-7.3-13-10.7-19.7c-3.4-6.7-6.4-13.5-9.6-20.3c-7.1,15-14.1,30-21.3,45.1
		c3.9,1.3,7.6,2.6,11.4,3.9c3.6-8.5,7.2-16.8,10.8-25.4c7.2,13.8,15.4,26.7,24.7,39.1c4.6-16,9.2-31.8,13.7-47.6
		C121.2,76,118.4,75.4,115.6,74.7"/>
	<path class="st0" d="M272.3,118.5c-4.3,3.3-10.7,4.2-15.8,0.5c-4.4-3.3-5.8-9.3-3.2-14.1c2.4-4.4,6.5-6.8,11.7-6.9
		c5.4,0.1,10.8,3.1,11.8,8.7C277.9,111.6,276.2,115.5,272.3,118.5 M267.7,77.8c1.3,4.7,2.6,9.2,3.9,13.9c-3.3-1-6.4-1.4-9.6-1.1
		c-6.6,0.6-12.2,3-16.4,8.3c-8,9.9-4.3,22.7,5.4,28c7.3,4,14.7,3.6,22-0.2c2.7-1.4,4.7-3.5,6.6-6c0.3,1.1,0.7,2.1,0.9,3.1
		c0.1,0.8,0.5,0.9,1.1,0.7c3.4-0.8,6.9-1.6,10.5-2.4c-4.9-15.5-9.8-30.8-14.7-46C274.1,76.7,270.9,77.2,267.7,77.8"/>
	<path class="st0" d="M175.2,99.4c-1.9,0.7-3.7,1.9-5.5,2.8c0.5-5.2,1-10.6,1.5-16h-9.9c-2.2,16-4.3,31.9-6.5,48
		c4,0.1,7.8,0.2,11.7,0.4c0.5-4.8,0.9-9.4,1.4-14c0.2-2.4,0.3-4.9,0.8-7.3c0.8-4.3,6.1-7.6,10.6-6.9c3.2,0.5,5.3,3.4,4.9,5.9
		c-0.1,1-0.1,1.9-0.2,2.9c-0.3,6.9-0.6,13.7-0.9,20.6c0,0.3,0.1,0.6,0.1,1c3.9-0.2,7.7-0.5,11.5-0.7c0-0.4,0.1-0.6,0.1-0.8
		c0.1-8.1,0.1-16.2,0.2-24.4c0-2.3-0.7-4.4-2.1-6.3C189.2,99.3,181.8,97.1,175.2,99.4"/>
	<path class="st0" d="M359.5,68.9c1.8-7.8,3.5-15.4,5.2-23.2c-3.3,1.2-6.3,2.3-9.2,3.5c-0.3,0.1-0.5,0.5-0.6,0.9
		c-1.3,6.1-2.5,12.3-3.8,18.4c-0.5,2.3-1.2,4.6-1.8,7.2c-5.4-8.9-10.6-17.5-15.9-26.2c-2.7,2-5.4,4-8.1,6
		c7.8,14.1,15.6,28.2,23.5,42.4c3.3-2.3,6.5-4.6,9.8-6.9c-3.1-5.1-6.1-10.1-9.2-15.3c2.8,0.7,5.3,1.3,7.8,1.8
		c5.8,1.1,11.6,2.2,17.3,3.3c0.8,0.1,1.4,0,1.9-0.6c1.2-1.4,2.4-2.6,3.6-4c1-1.1,2-2.3,3-3.4C375.2,71.4,367.3,70.1,359.5,68.9"/>
	<path class="st0" d="M142.1,119.8c-0.7,2-2.4,2.7-4.3,3c-0.5,0.1-0.9,0-1.4,0c-2.6,0-4.9-0.7-6.9-2.6c-1.4-1.3-2.1-2.9-1.6-4.8
		c0.5-2,2.1-2.9,4-3.3c3.3-0.6,6.2,0.1,8.7,2.4C142.2,115.9,142.9,117.7,142.1,119.8 M155.4,102.3c-1-3.4-3.3-5.7-6.3-7.2
		c-5.6-2.9-11.7-3.6-17.9-3.9c-0.4,0-1,0.4-1.3,0.8c-1.5,2-2.9,4.1-4.3,6.2c-0.2,0.2-0.3,0.5-0.4,0.6c3.4,0.2,6.7,0.1,10,0.5
		c2.3,0.3,4.7,1,6.9,1.8c2.1,0.9,3,2.7,2.6,4.8c-0.1,0.8-0.3,1.5-0.5,2.4c-0.4-0.3-0.8-0.6-1.1-0.8c-7-5.4-16.8-5.3-23.1,0.3
		c-3.9,3.5-5.8,9.9-1.3,15c1.4,1.6,3.1,3.2,5,4.3c3.6,2.2,7.6,3.7,11.9,2.9c2.1-0.4,4.1-1.4,6.2-2.1c-0.1,0.8-0.3,1.7-0.5,2.9
		c3.3,0.1,6.5,0.3,9.7,0.4c0.8,0,0.7-0.5,0.8-1c1-7.2,2.1-14.3,3.2-21.5C155.5,106.6,156,104.4,155.4,102.3"/>
	<path class="st0" d="M332.6,83.2c-2.7-0.1-5.5,0.4-8.3,0.8c-2.4,0.3-4.7,0.8-7.1,1c-1.3,0.1-2.1-0.6-2.3-1.9
		c-0.2-1.1,0.1-2.2,0.9-2.8c1-0.8,2-1.4,3.1-1.9c2.4-1.1,4.8-0.9,7.3,0c1.3-2.5,2.5-5,3.8-7.6c-0.5-0.2-0.9-0.4-1.3-0.5
		c-0.4-0.1-0.8-0.3-1.2-0.3c-6.5-0.9-12.4,0.5-17.6,4.6c-3.5,2.8-5.5,6.4-5.1,11c0.6,6.2,4.5,10.3,11,9.6c3.1-0.4,6.1-1.1,9.2-1.5
		c1.5-0.2,3-0.3,4.5-0.1c1.4,0.2,2.2,1.7,1.5,3c-0.5,0.9-1.2,1.8-2,2.3c-3.9,2.7-8.1,4.2-12.7,1.6c-1.3,2.8-2.6,5.4-3.9,8.2
		c0.5,0.2,0.8,0.4,1.2,0.4c2.2,0.3,4.5,0.8,6.7,0.6c6.9-0.3,13-2.9,17.8-8c2-2.2,3.6-4.7,4-7.7C342.6,89.1,338.1,83.4,332.6,83.2"/>
	<path class="st0" d="M297.8,105.4c-0.9,1.5-1.8,3-2.6,4.5c-0.8,1.4-1.7,2.9-2.6,4.4c3.5,1.2,6.8,2.4,10.1,3.5
		c0.3,0.1,0.8-0.1,0.9-0.3c1.8-3,3.5-6.1,5.3-9.2c-3.5-1.2-6.8-2.3-10.2-3.4C298.5,104.8,298,105.1,297.8,105.4"/>
	<path class="st0" d="M395.2,58.4c0-0.1,0-0.1,0-0.2c-3.6,42.5-82.1,80.7-180.5,86.7C147.1,149,87,136.8,53.2,115.3l0.6-0.6
		c-0.7-0.3-1.5-0.7-2.2-1c-0.2-0.1-0.4-0.4-0.4-0.6c0-1.3,0-2.6,0.1-3.8c0-0.3,0.1-0.6,0.3-0.8c1.5-1.8,3.2-3.4,5.2-4.5
		c1.1-0.6,1.8-1.5,1.6-2.8c-0.3-1.4,1.1-2,1.3-3.1c0-0.1,0.2-0.2,0.4-0.2c1.8-0.4,2.5-1.8,1.8-3.4c-0.5-1-1.1-1.9-1.8-2.7
		c-0.9-1-1.2-2-0.9-3.3c0.3-1.1-0.2-1.8-1.3-2.2c-0.2-0.1-0.4-0.3-0.6-0.3c-0.5-0.1-1-0.2-1.5-0.3c-0.9-0.1-1.8-0.1-2.8-0.1
		c0-0.2-0.1-0.3-0.1-0.5c0.5-0.3,0.9-0.6,1.4-0.9c1.3-0.7,1.4-1.3,1.1-2.6c-0.3-1.2-0.4-2.5-1.3-3.5c-0.1-0.1-0.1-0.4,0-0.6
		c0.3-0.9,0-1.4-1-1.5c-0.3,0-0.5-0.4-0.7-0.7c-0.3-0.3-0.5-0.7-0.8-0.8c-1-0.2-0.9-0.8-0.7-1.5c0.9-2.7,1.7-5.4,2.9-8
		c2.2-5.1,4.5-10.2,6.9-15.2c1.8-3.6,3.9-7.1,6-10.7c0.2-0.3,0.8-0.6,1.2-0.6c0.8,0,0.9-0.3,0.6-0.9c-0.1-0.3-0.3-0.8-0.1-1.1
		c1.6-2.5,3.2-5.1,5.1-7.5c3.2-4.1,7.1-7.6,10.9-11.1c0.4-0.4,0.8-0.7,1.5-0.3c0.6,0.4,0.9,0.1,1-0.6c0.1-0.5,0.3-1.1,0.7-1.5
		c3.2-3,6.9-5.3,10.9-7.1c5.5-2.6,11.2-4.7,17.1-5.9c7.6-1.6,15.2-1.5,22.8,0.1c8,1.7,15.4,4.9,22.2,9.2c7.7,4.8,15,10.3,21.5,16.6
		c6.1,5.8,11.1,12.4,15.1,19.8c3.4,6.2,6.6,12.5,9.6,18.8c2.3,4.9,4.2,10.1,6.2,15.2c0.8,2.1,1.2,4.3,1.9,6.5c0.1,0.4,0.4,0.6,0.6,1
		c0.1-0.1,0.3-0.1,0.4-0.2c-0.3-1.1-0.6-2.1-1-3.2c-2-5.7-3.8-11.5-6.1-17.1c-2.2-5.4-4.8-10.8-7.6-15.9c-2.8-5.2-5.9-10.4-9.4-15.2
		c-4.5-6.4-9.8-12-15.7-17c-4.2-3.6-8.7-6.9-13.5-9.7c-3.3-2-6.8-3.6-10.3-5.2c-3.7-1.6-7.4-3.1-11.3-4.1
		c-9.9-2.7-19.9-2.3-29.8,0.2c-5.4,1.4-10.5,3.4-15.5,6c-5.6,2.9-10.7,6.6-15.3,10.8c-5.1,4.7-9.6,10.1-13.4,16
		c-3.5,5.5-6.7,11.1-9.6,16.9c-3.1,6.3-5.8,12.8-8.1,19.4c-0.3,0.8-0.5,1.7-1.4,2.3c-0.7,0.5-1.3,1.3-1.5,2
		c-0.5,1.8-1.4,2.9-3.3,2.9c-0.7,0-1.1,0.4-1.2,1.2c0,0.4-0.6,0.8-1,1c-0.5,0.3-1.4,0.3-1.6,0.7c-0.9,1.3-1.9,1.6-3.2,1
		c-0.2-0.1-0.6,0-0.8-0.1c-0.5-0.2-1.3-0.4-1.5-0.9c-0.6-0.9-1.2-1.2-2.2-0.9c0-1.5-0.1-2.9,0-4.3c0-0.3,0.5-0.8,0.9-0.9
		c1.6-0.3,1.9-0.6,1.6-2.3c-0.1-0.3-0.2-0.7-0.2-1c-0.2-1.6,0-1.9,1.6-2.4c0.3-0.1,0.5-0.2,0.8-0.3c1.3-0.8,2.5-1.5,4.1-1.3
		c0.2,0,0.5-0.2,0.6-0.4c0.1-0.1-0.1-0.4-0.3-0.6c-0.2-0.1-0.4-0.2-0.6-0.2c-2.9-1.3-5.8-2.6-6.5-6.3c-0.7-3.1-2.6-5.3-5.5-6.5
		c-2.3-0.9-4.7-0.9-7.2-0.9c-5.6,0-9.6,6.4-8.8,10.6c0.1,0.7,0.2,1.5,0.2,2.2c0,0.2-0.4,0.7-0.6,0.7c-1.3-0.2-2.7-0.4-4-0.8
		c-1.6-0.6-1.8-0.5-2,1.2c-0.1,1,0.4,1.5,1.4,1.6c0.4,0.1,0.7,0.5,1,0.8C7.7,69.7,7.4,70,7,70.1c-1.1,0.3-2.2,0.4-3.2,0.9
		c-2.1,0.9-3.7,2.3-3.2,5c0.2,0.9,0.3,1.9,0.4,2.9c0.1,0.9,0.4,1.5,1.4,1.9c1.3,0.4,1.4,1.1,0.7,2.2c-1,1.6-2,3.1-3,4.8
		c1.4,1,2.9,2,4.4,3c6.1,4.1,12.1,8.4,18.4,12.3c6.3,4,12.9,7.6,19.4,11.3c2.2,1.2,4.5,2.3,6.7,3.4c33.1,22.7,95.2,35.7,165.4,31.5
		C316.9,143.1,397.9,102.4,395.2,58.4"/>
	<g>
		<defs>
			<path id="SVGID_1_" d="M216.4,90c-0.4,0.3-1.1,0.4-1.6,0.3c-1.5-0.4-3-1-4.6-1.4c-0.4-0.1-1,0.1-1.2,0.3c-3.2,3.7-6.1,7.6-8.2,12
				c-3.6,7.6-5,15.6-2.9,23.9c1.3,5.4,3.9,10.2,7.6,14.3c2.2,2.5,4.8,4.6,7.3,6.8c1.2,1.1,2.6,2,3.9,3c-3.9,5-7.7,9.9-11.5,14.9
				c0.1,0,0.2,0,0.3,0c5-2.7,10.1-5.3,15.1-7.9c0.4-0.2,1-0.3,1.5-0.2c2.2,0.4,4.5,0.9,6.7,1.4c3.8,0.8,7.6,1.6,11.4,2.4
				c0-0.1,0.1-0.2,0.1-0.2c-4.8-3.7-9.5-7.5-14.4-11.2c0.3-0.4,0.4-0.5,0.6-0.7c1.9-2.4,3.9-4.6,5.7-7.1c2.5-3.6,4.4-7.6,5.7-11.8
				c2-6.5,2.2-13.1,0.2-19.6c-2.3-7.3-6.7-13.2-12.6-18.1c-1.6-1.3-3.2-2.5-4.8-3.8C219.1,88.2,217.8,89.1,216.4,90"/>
		</defs>
		<clipPath id="SVGID_2_">
			<use xlink:href="#SVGID_1_"  style="overflow:visible;"/>
		</clipPath>
		<g class="st1">
			<defs>
				<rect id="SVGID_3_" x="195.8" y="87.1" width="44.4" height="76.9"/>
			</defs>
			<clipPath id="SVGID_4_">
				<use xlink:href="#SVGID_3_"  style="overflow:visible;"/>
			</clipPath>
			<g style="clip-path:url(#SVGID_4_);">
				
					<image style="overflow:visible;" width="100" height="164" xlink:href="88668825.jpg"  transform="matrix(0.48 0 0 -0.48 194.7685 165.2372)">
				</image>
			</g>
		</g>
	</g>
</g>
</svg>
